<?xml version="1.0" encoding="utf-8"?>
<svg xmlns="http://www.w3.org/2000/svg" xmlns:xlink="http://www.w3.org/1999/xlink" width="1200" height="500" viewBox="0 0 4800 2000">
<defs>
  <clipPath id="clip970">
    <rect x="0" y="0" width="4800" height="2000"/>
  </clipPath>
</defs>
<path clip-path="url(#clip970)" d="M0 2000 L4800 2000 L4800 0 L0 0  Z" fill="#ffffff" fill-rule="evenodd" fill-opacity="1"/>
<defs>
  <clipPath id="clip971">
    <rect x="232" y="170" width="4521" height="1683"/>
  </clipPath>
</defs>
<path clip-path="url(#clip970)" d="M232.508 1852.64 L4752.76 1852.64 L4752.76 170.467 L232.508 170.467  Z" fill="#ffffff" fill-rule="evenodd" fill-opacity="1"/>
<polyline clip-path="url(#clip971)" style="stroke:#000000; stroke-linecap:round; stroke-linejoin:round; stroke-width:2; stroke-opacity:0.25; fill:none" points="896.311,1852.64 896.311,170.467 "/>
<polyline clip-path="url(#clip971)" style="stroke:#000000; stroke-linecap:round; stroke-linejoin:round; stroke-width:2; stroke-opacity:0.25; fill:none" points="2395.11,1852.64 2395.11,170.467 "/>
<polyline clip-path="url(#clip971)" style="stroke:#000000; stroke-linecap:round; stroke-linejoin:round; stroke-width:2; stroke-opacity:0.25; fill:none" points="3895.96,1852.64 3895.96,170.467 "/>
<polyline clip-path="url(#clip971)" style="stroke:#000000; stroke-linecap:round; stroke-linejoin:round; stroke-width:2; stroke-opacity:0.25; fill:none" points="232.508,1805.03 4752.76,1805.03 "/>
<polyline clip-path="url(#clip971)" style="stroke:#000000; stroke-linecap:round; stroke-linejoin:round; stroke-width:2; stroke-opacity:0.25; fill:none" points="232.508,1564.46 4752.76,1564.46 "/>
<polyline clip-path="url(#clip971)" style="stroke:#000000; stroke-linecap:round; stroke-linejoin:round; stroke-width:2; stroke-opacity:0.25; fill:none" points="232.508,1323.89 4752.76,1323.89 "/>
<polyline clip-path="url(#clip971)" style="stroke:#000000; stroke-linecap:round; stroke-linejoin:round; stroke-width:2; stroke-opacity:0.25; fill:none" points="232.508,1083.32 4752.76,1083.32 "/>
<polyline clip-path="url(#clip971)" style="stroke:#000000; stroke-linecap:round; stroke-linejoin:round; stroke-width:2; stroke-opacity:0.25; fill:none" points="232.508,842.748 4752.76,842.748 "/>
<polyline clip-path="url(#clip971)" style="stroke:#000000; stroke-linecap:round; stroke-linejoin:round; stroke-width:2; stroke-opacity:0.25; fill:none" points="232.508,602.177 4752.76,602.177 "/>
<polyline clip-path="url(#clip971)" style="stroke:#000000; stroke-linecap:round; stroke-linejoin:round; stroke-width:2; stroke-opacity:0.25; fill:none" points="232.508,361.606 4752.76,361.606 "/>
<polyline clip-path="url(#clip970)" style="stroke:#000000; stroke-linecap:round; stroke-linejoin:round; stroke-width:4; stroke-opacity:1; fill:none" points="232.508,1852.64 4752.76,1852.64 "/>
<polyline clip-path="url(#clip970)" style="stroke:#000000; stroke-linecap:round; stroke-linejoin:round; stroke-width:2; stroke-opacity:0.5; fill:none" points="232.508,170.467 4752.76,170.467 "/>
<polyline clip-path="url(#clip970)" style="stroke:#000000; stroke-linecap:round; stroke-linejoin:round; stroke-width:4; stroke-opacity:1; fill:none" points="896.311,1852.64 896.311,1833.74 "/>
<polyline clip-path="url(#clip970)" style="stroke:#000000; stroke-linecap:round; stroke-linejoin:round; stroke-width:4; stroke-opacity:1; fill:none" points="2395.11,1852.64 2395.11,1833.74 "/>
<polyline clip-path="url(#clip970)" style="stroke:#000000; stroke-linecap:round; stroke-linejoin:round; stroke-width:4; stroke-opacity:1; fill:none" points="3895.96,1852.64 3895.96,1833.74 "/>
<g clip-path="url(#clip970)">
<text style="fill:#000000; fill-opacity:1; font-family:Century Gothic,CenturyGothic,AppleGothic,sans-serif; font-size:47px; text-anchor:middle;" transform="rotate(0, 896.311, 1933.11)" x="896.311" y="1933.11">2021-01-01</text>
</g>
<g clip-path="url(#clip970)">
<text style="fill:#000000; fill-opacity:1; font-family:Century Gothic,CenturyGothic,AppleGothic,sans-serif; font-size:47px; text-anchor:middle;" transform="rotate(0, 2395.11, 1933.11)" x="2395.11" y="1933.11">2023-01-01</text>
</g>
<g clip-path="url(#clip970)">
<text style="fill:#000000; fill-opacity:1; font-family:Century Gothic,CenturyGothic,AppleGothic,sans-serif; font-size:47px; text-anchor:middle;" transform="rotate(0, 3895.96, 1933.11)" x="3895.96" y="1933.11">2025-01-01</text>
</g>
<g clip-path="url(#clip970)">
<text style="fill:#000000; fill-opacity:1; font-family:Century Gothic,CenturyGothic,AppleGothic,sans-serif; font-size:65px; text-anchor:middle;" transform="rotate(0, 2492.63, 2031.73)" x="2492.63" y="2031.73">date</text>
</g>
<polyline clip-path="url(#clip970)" style="stroke:#000000; stroke-linecap:round; stroke-linejoin:round; stroke-width:4; stroke-opacity:1; fill:none" points="232.508,1852.64 232.508,170.467 "/>
<polyline clip-path="url(#clip970)" style="stroke:#000000; stroke-linecap:round; stroke-linejoin:round; stroke-width:2; stroke-opacity:0.5; fill:none" points="4752.76,1852.64 4752.76,170.467 "/>
<polyline clip-path="url(#clip970)" style="stroke:#000000; stroke-linecap:round; stroke-linejoin:round; stroke-width:4; stroke-opacity:1; fill:none" points="232.508,1805.03 251.406,1805.03 "/>
<polyline clip-path="url(#clip970)" style="stroke:#000000; stroke-linecap:round; stroke-linejoin:round; stroke-width:4; stroke-opacity:1; fill:none" points="232.508,1564.46 251.406,1564.46 "/>
<polyline clip-path="url(#clip970)" style="stroke:#000000; stroke-linecap:round; stroke-linejoin:round; stroke-width:4; stroke-opacity:1; fill:none" points="232.508,1323.89 251.406,1323.89 "/>
<polyline clip-path="url(#clip970)" style="stroke:#000000; stroke-linecap:round; stroke-linejoin:round; stroke-width:4; stroke-opacity:1; fill:none" points="232.508,1083.32 251.406,1083.32 "/>
<polyline clip-path="url(#clip970)" style="stroke:#000000; stroke-linecap:round; stroke-linejoin:round; stroke-width:4; stroke-opacity:1; fill:none" points="232.508,842.748 251.406,842.748 "/>
<polyline clip-path="url(#clip970)" style="stroke:#000000; stroke-linecap:round; stroke-linejoin:round; stroke-width:4; stroke-opacity:1; fill:none" points="232.508,602.177 251.406,602.177 "/>
<polyline clip-path="url(#clip970)" style="stroke:#000000; stroke-linecap:round; stroke-linejoin:round; stroke-width:4; stroke-opacity:1; fill:none" points="232.508,361.606 251.406,361.606 "/>
<g clip-path="url(#clip970)">
<text style="fill:#000000; fill-opacity:1; font-family:Century Gothic,CenturyGothic,AppleGothic,sans-serif; font-size:47px; text-anchor:middle;" transform="rotate(0, 147.572, 1822.53)" x="147.572" y="1822.53">0</text>
</g>
<g clip-path="url(#clip970)">
<text style="fill:#000000; fill-opacity:1; font-family:Century Gothic,CenturyGothic,AppleGothic,sans-serif; font-size:47px; text-anchor:middle;" transform="rotate(0, 121.698, 1581.96)" x="121.698" y="1581.96">100</text>
</g>
<g clip-path="url(#clip970)">
<text style="fill:#000000; fill-opacity:1; font-family:Century Gothic,CenturyGothic,AppleGothic,sans-serif; font-size:47px; text-anchor:middle;" transform="rotate(0, 121.698, 1341.39)" x="121.698" y="1341.39">200</text>
</g>
<g clip-path="url(#clip970)">
<text style="fill:#000000; fill-opacity:1; font-family:Century Gothic,CenturyGothic,AppleGothic,sans-serif; font-size:47px; text-anchor:middle;" transform="rotate(0, 121.698, 1100.82)" x="121.698" y="1100.82">300</text>
</g>
<g clip-path="url(#clip970)">
<text style="fill:#000000; fill-opacity:1; font-family:Century Gothic,CenturyGothic,AppleGothic,sans-serif; font-size:47px; text-anchor:middle;" transform="rotate(0, 121.698, 860.248)" x="121.698" y="860.248">400</text>
</g>
<g clip-path="url(#clip970)">
<text style="fill:#000000; fill-opacity:1; font-family:Century Gothic,CenturyGothic,AppleGothic,sans-serif; font-size:47px; text-anchor:middle;" transform="rotate(0, 121.698, 619.677)" x="121.698" y="619.677">500</text>
</g>
<g clip-path="url(#clip970)">
<text style="fill:#000000; fill-opacity:1; font-family:Century Gothic,CenturyGothic,AppleGothic,sans-serif; font-size:47px; text-anchor:middle;" transform="rotate(0, 121.698, 379.106)" x="121.698" y="379.106">600</text>
</g>
<g clip-path="url(#clip970)">
<text style="fill:#000000; fill-opacity:1; font-family:Century Gothic,CenturyGothic,AppleGothic,sans-serif; font-size:65px; text-anchor:middle;" transform="rotate(-90, 0.932806, 1011.55)" x="0.932806" y="1011.55">daily_interp_gauss</text>
</g>
<g clip-path="url(#clip970)">
<text style="fill:#000000; fill-opacity:1; font-family:Century Gothic,CenturyGothic,AppleGothic,sans-serif; font-size:81px; text-anchor:start;" transform="rotate(0, 1734.14, 98.7837)" x="1734.14" y="98.7837">Заболеваемость и знак производной</text>
</g>
<g clip-path="url(#clip970)">
<text style="fill:#000000; fill-opacity:1; font-family:Century Gothic,CenturyGothic,AppleGothic,sans-serif; font-size:81px; text-anchor:start;" transform="rotate(0, 1843.86, 270.743)" x="1843.86" y="270.743">зеленый - рост, красный - спад</text>
</g>
<polyline clip-path="url(#clip971)" style="stroke:#000000; stroke-linecap:round; stroke-linejoin:round; stroke-width:8; stroke-opacity:1; fill:none" points="360.44,1780.29 362.493,1779.76 364.546,1779.26 366.599,1778.72 368.652,1778.08 370.705,1777.45 372.759,1776.83 374.812,1776.14 376.865,1775.44 378.918,1774.71 380.971,1773.92 383.024,1773.09 385.077,1772.17 387.131,1771.2 389.184,1770.16 391.237,1769.07 393.29,1767.93 395.343,1766.7 397.396,1765.43 399.449,1764.09 401.503,1762.63 403.556,1761.08 405.609,1759.45 407.662,1757.73 409.715,1755.93 411.768,1754.01 413.821,1752.02 415.875,1749.91 417.928,1747.69 419.981,1745.37 422.034,1742.96 424.087,1740.43 426.14,1737.81 428.194,1735.1 430.247,1732.31 432.3,1729.42 434.353,1726.49 436.406,1723.48 438.459,1720.42 440.512,1717.33 442.566,1714.2 444.619,1711.07 446.672,1707.94 448.725,1704.82 450.778,1701.75 452.831,1698.72 454.884,1695.72 456.938,1692.82 458.991,1690.03 461.044,1687.35 463.097,1684.82 465.15,1682.44 467.203,1680.24 469.256,1678.2 471.31,1676.35 473.363,1674.73 475.416,1673.32 477.469,1672.13 479.522,1671.17 481.575,1670.46 483.628,1669.96 485.682,1669.7 487.735,1669.7 489.788,1669.92 491.841,1670.36 493.894,1671.06 495.947,1671.97 498,1673.08 500.054,1674.39 502.107,1675.87 504.16,1677.53 506.213,1679.33 508.266,1681.27 510.319,1683.34 512.373,1685.5 514.426,1687.75 516.479,1690.06 518.532,1692.44 520.585,1694.83 522.638,1697.27 524.691,1699.69 526.745,1702.12 528.798,1704.5 530.851,1706.86 532.904,1709.16 534.957,1711.39 537.01,1713.56 539.063,1715.64 541.117,1717.65 543.17,1719.57 545.223,1721.39 547.276,1723.11 549.329,1724.72 551.382,1726.22 553.435,1727.62 555.489,1728.94 557.542,1730.13 559.595,1731.18 561.648,1732.16 563.701,1733.02 565.754,1733.79 567.807,1734.48 569.861,1735.07 571.914,1735.62 573.967,1736.07 576.02,1736.44 578.073,1736.75 580.126,1736.98 582.179,1737.16 584.233,1737.27 586.286,1737.33 588.339,1737.38 590.392,1737.38 592.445,1737.35 594.498,1737.29 596.552,1737.21 598.605,1737.14 600.658,1737.03 602.711,1736.92 604.764,1736.82 606.817,1736.73 608.87,1736.65 610.924,1736.59 612.977,1736.53 615.03,1736.49 617.083,1736.45 619.136,1736.43 621.189,1736.41 623.242,1736.41 625.296,1736.42 627.349,1736.45 629.402,1736.49 631.455,1736.53 633.508,1736.56 635.561,1736.59 637.614,1736.6 639.668,1736.61 641.721,1736.59 643.774,1736.54 645.827,1736.45 647.88,1736.32 649.933,1736.13 651.986,1735.88 654.04,1735.57 656.093,1735.2 658.146,1734.76 660.199,1734.21 662.252,1733.58 664.305,1732.86 666.358,1732.02 668.412,1731.07 670.465,1730.02 672.518,1728.86 674.571,1727.56 676.624,1726.14 678.677,1724.58 680.731,1722.86 682.784,1721 684.837,1719.02 686.89,1716.88 688.943,1714.59 690.996,1712.14 693.049,1709.58 695.103,1706.82 697.156,1703.9 699.209,1700.83 701.262,1697.59 703.315,1694.18 705.368,1690.62 707.421,1686.89 709.475,1682.99 711.528,1678.93 713.581,1674.73 715.634,1670.39 717.687,1665.9 719.74,1661.27 721.793,1656.52 723.847,1651.63 725.9,1646.64 727.953,1641.52 730.006,1636.3 732.059,1630.99 734.112,1625.59 736.165,1620.11 738.219,1614.55 740.272,1608.95 742.325,1603.29 744.378,1597.58 746.431,1591.84 748.484,1585.58 750.537,1579.64 752.591,1573.62 754.644,1567.52 756.697,1561.4 758.75,1555.2 760.803,1548.92 762.856,1542.57 764.909,1536.12 766.963,1529.56 769.016,1522.88 771.069,1516.1 773.122,1509.16 775.175,1502.05 777.228,1494.78 779.282,1487.32 781.335,1479.63 783.388,1471.71 785.441,1463.52 787.494,1455.09 789.547,1446.38 791.6,1437.38 793.654,1428.07 795.707,1418.42 797.76,1408.45 799.813,1398.14 801.866,1387.54 803.919,1376.63 805.972,1365.42 808.026,1353.87 810.079,1342.05 812.132,1329.89 814.185,1317.44 816.238,1304.79 818.291,1291.92 820.344,1278.86 822.398,1265.62 824.451,1252.28 826.504,1238.87 828.557,1225.47 830.61,1212.07 832.663,1198.83 834.716,1185.69 836.77,1172.8 838.823,1160.23 840.876,1147.98 842.929,1136.21 844.982,1124.87 847.035,1114.12 849.088,1103.96 851.142,1094.53 853.195,1085.81 855.248,1077.94 857.301,1070.89 859.354,1064.7 861.407,1059.43 863.461,1055.12 865.514,1051.79 867.567,1049.51 869.62,1048.3 871.673,1048.09 873.726,1048.89 875.779,1050.7 877.833,1053.57 879.886,1057.39 881.939,1062.25 883.992,1068.01 886.045,1074.67 888.098,1082.19 890.151,1090.47 892.205,1099.5 894.258,1109.21 896.311,1119.59 898.364,1130.54 900.417,1141.99 902.47,1153.86 904.523,1166.12 906.577,1178.7 908.63,1191.54 910.683,1204.59 912.736,1217.83 914.789,1231.18 916.842,1244.58 918.895,1258 920.949,1271.37 923.002,1284.68 925.055,1297.87 927.108,1310.92 929.161,1323.81 931.214,1336.5 933.267,1348.96 935.321,1361.58 937.374,1373.49 939.427,1385.16 941.48,1396.58 943.533,1407.67 945.586,1418.45 947.64,1428.9 949.693,1439 951.746,1448.76 953.799,1458.18 955.852,1467.28 957.905,1476 959.958,1484.37 962.012,1492.39 964.065,1500.04 966.118,1507.33 968.171,1514.27 970.224,1520.86 972.277,1527.12 974.33,1533.01 976.384,1538.58 978.437,1543.81 980.49,1548.75 982.543,1553.38 984.596,1557.73 986.649,1561.79 988.702,1565.54 990.756,1569.02 992.809,1572.26 994.862,1575.32 996.915,1578.18 998.968,1580.9 1001.02,1583.48 1003.07,1585.84 1005.13,1588.08 1007.18,1590.22 1009.23,1592.27 1011.29,1594.24 1013.34,1596.12 1015.39,1597.91 1017.45,1599.67 1019.5,1601.32 1021.55,1602.98 1023.61,1604.56 1025.66,1606.11 1027.71,1607.64 1029.77,1609.12 1031.82,1610.62 1033.87,1612.08 1035.92,1613.53 1037.98,1614.94 1040.03,1616.38 1042.08,1617.76 1044.14,1619.15 1046.19,1620.55 1048.24,1621.96 1050.3,1623.31 1052.35,1624.67 1054.4,1625.97 1056.46,1627.23 1058.51,1628.52 1060.56,1629.79 1062.62,1631.07 1064.67,1632.25 1066.72,1633.43 1068.78,1634.55 1070.83,1635.68 1072.88,1636.77 1074.93,1637.85 1076.99,1638.91 1079.04,1639.94 1081.09,1640.93 1083.15,1641.88 1085.2,1642.8 1087.25,1643.7 1089.31,1644.62 1091.36,1645.5 1093.41,1646.37 1095.47,1647.22 1097.52,1648.06 1099.57,1648.84 1101.63,1649.61 1103.68,1650.37 1105.73,1651.13 1107.78,1651.91 1109.84,1652.68 1111.89,1653.46 1113.94,1654.23 1116,1655 1118.05,1655.77 1120.1,1656.56 1122.16,1657.36 1124.21,1658.17 1126.26,1659.01 1128.32,1659.83 1130.37,1660.67 1132.42,1661.55 1134.48,1662.47 1136.53,1663.42 1138.58,1664.38 1140.64,1665.37 1142.69,1666.36 1144.74,1667.38 1146.79,1668.42 1148.85,1669.48 1150.9,1670.56 1152.95,1671.65 1155.01,1672.75 1157.06,1673.85 1159.11,1674.95 1161.17,1676.05 1163.22,1677.12 1165.27,1678.18 1167.33,1679.19 1169.38,1680.17 1171.43,1681.12 1173.49,1682.03 1175.54,1682.87 1177.59,1683.64 1179.65,1684.32 1181.7,1684.91 1183.75,1685.37 1185.8,1685.73 1187.86,1685.95 1189.91,1686.05 1191.96,1686.01 1194.02,1685.8 1196.07,1685.42 1198.12,1684.86 1200.18,1684.11 1202.23,1683.16 1204.28,1682 1206.34,1680.63 1208.39,1679.02 1210.44,1677.18 1212.5,1675.09 1214.55,1672.75 1216.6,1670.17 1218.65,1667.34 1220.71,1664.26 1222.76,1660.95 1224.81,1657.37 1226.87,1653.56 1228.92,1649.53 1230.97,1645.29 1233.03,1640.85 1235.08,1636.21 1237.13,1631.42 1239.19,1626.45 1241.24,1621.35 1243.29,1616.13 1245.35,1610.8 1247.4,1605.43 1249.45,1600.01 1251.51,1594.58 1253.56,1589.17 1255.61,1583.79 1257.66,1578.48 1259.72,1573.26 1261.77,1568.15 1263.82,1563.18 1265.88,1558.39 1267.93,1553.78 1269.98,1549.36 1272.04,1545.17 1274.09,1541.21 1276.14,1537.5 1278.2,1534.04 1280.25,1530.87 1282.3,1527.96 1284.36,1525.34 1286.41,1523.01 1288.46,1520.96 1290.51,1519.2 1292.57,1517.71 1294.62,1516.48 1296.67,1515.51 1298.73,1514.79 1300.78,1514.33 1302.83,1514.1 1304.89,1514.08 1306.94,1514.27 1308.99,1514.64 1311.05,1515.2 1313.1,1515.9 1315.15,1516.76 1317.21,1517.76 1319.26,1518.88 1321.31,1520.11 1323.37,1521.42 1325.42,1522.81 1327.47,1524.28 1329.52,1525.81 1331.58,1527.39 1333.63,1529.01 1335.68,1530.66 1337.74,1532.33 1339.79,1534 1341.84,1535.68 1343.9,1537.36 1345.95,1539.03 1348,1540.68 1350.06,1542.31 1352.11,1543.91 1354.16,1545.47 1356.22,1546.98 1358.27,1548.43 1360.32,1549.83 1362.38,1551.16 1364.43,1552.41 1366.48,1553.56 1368.53,1554.62 1370.59,1555.57 1372.64,1556.39 1374.69,1557.09 1376.75,1557.64 1378.8,1558.04 1380.85,1558.26 1382.91,1558.29 1384.96,1558.13 1387.01,1557.76 1389.07,1557.17 1391.12,1556.34 1393.17,1555.27 1395.23,1553.93 1397.28,1552.31 1399.33,1550.41 1401.38,1548.21 1403.44,1545.71 1405.49,1542.89 1407.54,1539.73 1409.6,1536.24 1411.65,1532.41 1413.7,1528.24 1415.76,1523.73 1417.81,1518.87 1419.86,1513.66 1421.92,1508.11 1423.97,1502.23 1426.02,1496.01 1428.08,1489.47 1430.13,1482.62 1432.18,1475.46 1434.24,1468.01 1436.29,1460.29 1438.34,1452.3 1440.39,1444.07 1442.45,1435.62 1444.5,1426.95 1446.55,1418.11 1448.61,1409.09 1450.66,1399.94 1452.71,1390.66 1454.77,1381.28 1456.82,1371.84 1458.87,1362.34 1460.93,1352.81 1462.98,1343.28 1465.03,1333.77 1467.09,1324.3 1469.14,1314.9 1471.19,1305.59 1473.24,1296.39 1475.3,1287.33 1477.35,1278.43 1479.4,1269.7 1481.46,1261.18 1483.51,1252.87 1485.56,1244.81 1487.62,1237 1489.67,1229.46 1491.72,1222.22 1493.78,1215.27 1495.83,1208.65 1497.88,1202.35 1499.94,1196.4 1501.99,1190.82 1504.04,1185.61 1506.1,1180.78 1508.15,1176.34 1510.2,1172.3 1512.25,1168.69 1514.31,1165.49 1516.36,1162.72 1518.41,1160.39 1520.47,1158.51 1522.52,1157.08 1524.57,1156.1 1526.63,1155.59 1528.68,1155.53 1530.73,1155.94 1532.79,1156.81 1534.84,1158.13 1536.89,1159.92 1538.95,1162.15 1541,1164.82 1543.05,1167.92 1545.11,1171.44 1547.16,1175.38 1549.21,1179.71 1551.26,1184.44 1553.32,1189.53 1555.37,1194.97 1557.42,1200.73 1559.48,1206.81 1561.53,1213.17 1563.58,1219.79 1565.64,1226.63 1567.69,1233.69 1569.74,1240.92 1571.8,1248.31 1573.85,1255.82 1575.9,1263.44 1577.96,1271.13 1580.01,1278.87 1582.06,1286.64 1584.11,1294.41 1586.17,1302.18 1588.22,1309.93 1590.27,1317.64 1592.33,1325.3 1594.38,1332.89 1596.43,1340.42 1598.49,1347.85 1600.54,1355.18 1602.59,1362.39 1604.65,1369.5 1606.7,1376.48 1608.75,1383.33 1610.81,1390.03 1612.86,1396.58 1614.91,1402.97 1616.97,1409.17 1619.02,1415.18 1621.07,1420.97 1623.12,1426.5 1625.18,1431.75 1627.23,1436.69 1629.28,1441.28 1631.34,1445.49 1633.39,1449.27 1635.44,1452.57 1637.5,1455.34 1639.55,1457.52 1641.6,1459.06 1643.66,1459.88 1645.71,1459.96 1647.76,1459.21 1649.82,1457.57 1651.87,1454.95 1653.92,1451.28 1655.97,1446.54 1658.03,1440.66 1660.08,1433.55 1662.13,1425.17 1664.19,1415.41 1666.24,1404.24 1668.29,1391.57 1670.35,1377.35 1672.4,1361.51 1674.45,1344.02 1676.51,1324.85 1678.56,1303.97 1680.61,1281.38 1682.67,1257.04 1684.72,1230.95 1686.77,1203.14 1688.83,1173.72 1690.88,1142.77 1692.93,1110.08 1694.98,1075.86 1697.04,1040.23 1699.09,1003.3 1701.14,965.2 1703.2,925.909 1705.25,885.674 1707.3,844.664 1709.36,803.068 1711.41,761.094 1713.46,718.981 1715.52,676.976 1717.57,635.243 1719.62,594.083 1721.68,553.768 1723.73,514.555 1725.78,476.74 1727.84,440.595 1729.89,406.414 1731.94,374.325 1733.99,344.644 1736.05,317.626 1738.1,293.464 1740.15,272.374 1742.21,254.523 1744.26,240.064 1746.31,229.099 1748.37,221.746 1750.42,218.075 1752.47,218.12 1754.53,221.882 1756.58,229.336 1758.63,240.419 1760.69,255.04 1762.74,273.082 1764.79,294.406 1766.84,318.841 1768.9,346.18 1770.95,376.209 1773,408.696 1775.06,443.388 1777.11,480.04 1779.16,518.383 1781.22,558.149 1783.27,599.064 1785.32,640.864 1787.38,683.283 1789.43,726.06 1791.48,768.954 1793.54,811.735 1795.59,854.183 1797.64,896.103 1799.7,937.314 1801.75,977.65 1803.8,1016.98 1805.85,1055.16 1807.91,1092.09 1809.96,1127.7 1812.01,1161.92 1814.07,1194.69 1816.12,1225.98 1818.17,1255.77 1820.23,1284.05 1822.28,1310.84 1824.33,1336.16 1826.39,1360.04 1828.44,1382.5 1830.49,1403.61 1832.55,1423.39 1834.6,1441.91 1836.65,1459.24 1838.7,1475.46 1840.76,1490.6 1842.81,1504.71 1844.86,1517.85 1846.92,1530.12 1848.97,1541.55 1851.02,1552.24 1853.08,1562.23 1855.13,1571.58 1857.18,1580.36 1859.24,1588.61 1861.29,1596.36 1863.34,1603.66 1865.4,1610.52 1867.45,1616.98 1869.5,1623.09 1871.56,1628.87 1873.61,1634.35 1875.66,1639.46 1877.71,1644.23 1879.77,1648.94 1881.82,1653.41 1883.87,1657.67 1885.93,1661.7 1887.98,1665.54 1890.03,1669.33 1892.09,1672.97 1894.14,1676.46 1896.19,1679.81 1898.25,1683.02 1900.3,1686.08 1902.35,1688.99 1904.41,1691.82 1906.46,1694.54 1908.51,1697.13 1910.57,1699.61 1912.62,1701.97 1914.67,1704.21 1916.72,1706.34 1918.78,1708.46 1920.83,1710.51 1922.88,1712.47 1924.94,1714.36 1926.99,1716.19 1929.04,1717.97 1931.1,1719.69 1933.15,1721.39 1935.2,1723.05 1937.26,1724.67 1939.31,1726.25 1941.36,1727.81 1943.42,1729.33 1945.47,1730.82 1947.52,1732.29 1949.57,1733.73 1951.63,1735.14 1953.68,1736.52 1955.73,1737.87 1957.79,1739.2 1959.84,1740.49 1961.89,1741.74 1963.95,1742.95 1966,1744.12 1968.05,1745.24 1970.11,1746.31 1972.16,1747.34 1974.21,1748.33 1976.27,1749.27 1978.32,1750.15 1980.37,1750.98 1982.43,1751.74 1984.48,1752.45 1986.53,1753.1 1988.58,1753.69 1990.64,1754.22 1992.69,1754.67 1994.74,1755.07 1996.8,1755.4 1998.85,1755.67 2000.9,1755.85 2002.96,1755.97 2005.01,1756.02 2007.06,1756 2009.12,1755.9 2011.17,1755.71 2013.22,1755.44 2015.28,1755.09 2017.33,1754.64 2019.38,1754.1 2021.43,1753.44 2023.49,1752.66 2025.54,1751.74 2027.59,1750.71 2029.65,1749.54 2031.7,1748.22 2033.75,1746.75 2035.81,1745.11 2037.86,1743.3 2039.91,1741.31 2041.97,1739.13 2044.02,1736.76 2046.07,1734.26 2048.13,1731.47 2050.18,1728.44 2052.23,1725.16 2054.29,1721.61 2056.34,1717.79 2058.39,1713.68 2060.44,1709.28 2062.5,1704.59 2064.55,1699.6 2066.6,1694.31 2068.66,1688.71 2070.71,1682.77 2072.76,1676.51 2074.82,1669.91 2076.87,1662.97 2078.92,1655.71 2080.98,1648.11 2083.03,1640.19 2085.08,1631.92 2087.14,1623.33 2089.19,1614.43 2091.24,1605.22 2093.3,1595.71 2095.35,1585.91 2097.4,1575.84 2099.45,1565.52 2101.51,1555.05 2103.56,1544.41 2105.61,1533.53 2107.67,1522.54 2109.72,1511.42 2111.77,1500.19 2113.83,1488.9 2115.88,1477.62 2117.93,1466.34 2119.99,1455.06 2122.04,1443.82 2124.09,1432.66 2126.15,1421.62 2128.2,1410.73 2130.25,1400.03 2132.3,1389.56 2134.36,1379.34 2136.41,1369.43 2138.46,1359.87 2140.52,1350.68 2142.57,1341.93 2144.62,1333.65 2146.68,1325.89 2148.73,1318.66 2150.78,1312.02 2152.84,1306.01 2154.89,1300.66 2156.94,1296.02 2159,1292.13 2161.05,1289 2163.1,1286.69 2165.16,1285.21 2167.21,1284.59 2169.26,1284.85 2171.31,1286 2173.37,1288.05 2175.42,1291 2177.47,1294.86 2179.53,1299.62 2181.58,1305.25 2183.63,1311.75 2185.69,1319.08 2187.74,1327.21 2189.79,1336.09 2191.85,1345.68 2193.9,1355.93 2195.95,1366.78 2198.01,1378.19 2200.06,1390.08 2202.11,1402.39 2204.16,1415.05 2206.22,1428 2208.27,1441.18 2210.32,1454.51 2212.38,1467.94 2214.43,1481.39 2216.48,1494.79 2218.54,1508.1 2220.59,1521.25 2222.64,1534.2 2224.7,1546.9 2226.75,1559.31 2228.8,1571.39 2230.86,1583.11 2232.91,1594.38 2234.96,1605.33 2237.02,1615.86 2239.07,1625.96 2241.12,1635.63 2243.17,1644.86 2245.23,1653.63 2247.28,1661.96 2249.33,1669.84 2251.39,1677.28 2253.44,1684.28 2255.49,1690.87 2257.55,1697.07 2259.6,1702.89 2261.65,1708.35 2263.71,1713.45 2265.76,1718.21 2267.81,1722.66 2269.87,1726.8 2271.92,1730.65 2273.97,1734.24 2276.03,1737.58 2278.08,1740.67 2280.13,1743.53 2282.18,1746.18 2284.24,1748.63 2286.29,1750.88 2288.34,1752.88 2290.4,1754.71 2292.45,1756.44 2294.5,1757.99 2296.56,1759.42 2298.61,1760.73 2300.66,1761.93 2302.72,1762.98 2304.77,1763.94 2306.82,1764.85 2308.88,1765.7 2310.93,1766.48 2312.98,1767.2 2315.03,1767.86 2317.09,1768.47 2319.14,1769.04 2321.19,1769.57 2323.25,1770.06 2325.3,1770.53 2327.35,1770.97 2329.41,1771.38 2331.46,1771.78 2333.51,1772.17 2335.57,1772.58 2337.62,1772.99 2339.67,1773.41 2341.73,1773.84 2343.78,1774.27 2345.83,1774.72 2347.89,1775.19 2349.94,1775.67 2351.99,1776.17 2354.04,1776.67 2356.1,1777.19 2358.15,1777.72 2360.2,1778.27 2362.26,1778.82 2364.31,1779.38 2366.36,1779.95 2368.42,1780.51 2370.47,1781.07 2372.52,1781.61 2374.58,1782.14 2376.63,1782.65 2378.68,1783.15 2380.74,1783.61 2382.79,1784.05 2384.84,1784.44 2386.9,1784.79 2388.95,1785.09 2391,1785.34 2393.05,1785.54 2395.11,1785.68 2397.16,1785.75 2399.21,1785.76 2401.27,1785.69 2403.32,1785.55 2405.37,1785.34 2407.43,1785.05 2409.48,1784.68 2411.53,1784.25 2413.59,1783.75 2415.64,1783.17 2417.69,1782.51 2419.75,1781.78 2421.8,1780.96 2423.85,1780.06 2425.9,1779.09 2427.96,1778.04 2430.01,1776.91 2432.06,1775.71 2434.12,1774.46 2436.17,1773.15 2438.22,1771.77 2440.28,1770.33 2442.33,1768.83 2444.38,1767.26 2446.44,1765.65 2448.49,1764 2450.54,1762.3 2452.6,1760.55 2454.65,1758.76 2456.7,1756.94 2458.76,1755.08 2460.81,1753.21 2462.86,1751.33 2464.91,1749.44 2466.97,1747.53 2469.02,1745.61 2471.07,1743.69 2473.13,1741.77 2475.18,1739.87 2477.23,1738 2479.29,1736.14 2481.34,1734.29 2483.39,1732.47 2485.45,1730.67 2487.5,1728.91 2489.55,1727.2 2491.61,1725.53 2493.66,1723.89 2495.71,1722.28 2497.76,1720.71 2499.82,1719.18 2501.87,1717.7 2503.92,1716.27 2505.98,1714.89 2508.03,1713.54 2510.08,1712.24 2512.14,1710.97 2514.19,1709.75 2516.24,1708.58 2518.3,1707.46 2520.35,1706.39 2522.4,1705.36 2524.46,1704.39 2526.51,1703.47 2528.56,1702.6 2530.62,1701.8 2532.67,1701.05 2534.72,1700.36 2536.77,1699.74 2538.83,1699.18 2540.88,1698.68 2542.93,1698.26 2544.99,1697.91 2547.04,1697.63 2549.09,1697.45 2551.15,1697.35 2553.2,1697.32 2555.25,1697.37 2557.31,1697.5 2559.36,1697.71 2561.41,1698.01 2563.47,1698.38 2565.52,1698.84 2567.57,1699.37 2569.63,1699.97 2571.68,1700.65 2573.73,1701.39 2575.78,1702.19 2577.84,1703.05 2579.89,1703.96 2581.94,1704.92 2584,1705.93 2586.05,1706.99 2588.1,1708.08 2590.16,1709.21 2592.21,1710.37 2594.26,1711.56 2596.32,1712.78 2598.37,1714.01 2600.42,1715.25 2602.48,1716.52 2604.53,1717.8 2606.58,1719.1 2608.63,1720.43 2610.69,1721.78 2612.74,1723.13 2614.79,1724.5 2616.85,1725.87 2618.9,1727.25 2620.95,1728.63 2623.01,1730.01 2625.06,1731.41 2627.11,1732.82 2629.17,1734.23 2631.22,1735.66 2633.27,1737.09 2635.33,1738.51 2637.38,1739.96 2639.43,1741.41 2641.49,1742.87 2643.54,1744.33 2645.59,1745.79 2647.64,1747.24 2649.7,1748.68 2651.75,1750.13 2653.8,1751.58 2655.86,1753.03 2657.91,1754.48 2659.96,1755.91 2662.02,1757.33 2664.07,1758.73 2666.12,1760.14 2668.18,1761.53 2670.23,1762.92 2672.28,1764.3 2674.34,1765.65 2676.39,1766.97 2678.44,1768.27 2680.49,1769.57 2682.55,1770.86 2684.6,1772.13 2686.65,1773.37 2688.71,1774.58 2690.76,1775.76 2692.81,1776.91 2694.87,1778.05 2696.92,1779.15 2698.97,1780.23 2701.03,1781.28 2703.08,1782.29 2705.13,1783.26 2707.19,1784.19 2709.24,1785.09 2711.29,1785.96 2713.35,1786.8 2715.4,1787.6 2717.45,1788.37 2719.5,1789.1 2721.56,1789.79 2723.61,1790.46 2725.66,1791.1 2727.72,1791.71 2729.77,1792.29 2731.82,1792.84 2733.88,1793.35 2735.93,1793.83 2737.98,1794.28 2740.04,1794.72 2742.09,1795.14 2744.14,1795.55 2746.2,1795.92 2748.25,1796.27 2750.3,1796.6 2752.36,1796.91 2754.41,1797.21 2756.46,1797.5 2758.51,1797.77 2760.57,1798.03 2762.62,1798.28 2764.67,1798.51 2766.73,1798.73 2768.78,1798.95 2770.83,1799.15 2772.89,1799.35 2774.94,1799.52 2776.99,1799.69 2779.05,1799.86 2781.1,1800.01 2783.15,1800.15 2785.21,1800.29 2787.26,1800.42 2789.31,1800.54 2791.36,1800.66 2793.42,1800.77 2795.47,1800.87 2797.52,1800.97 2799.58,1801.07 2801.63,1801.16 2803.68,1801.25 2805.74,1801.33 2807.79,1801.41 2809.84,1801.49 2811.9,1801.56 2813.95,1801.64 2816,1801.71 2818.06,1801.78 2820.11,1801.85 2822.16,1801.92 2824.22,1801.98 2826.27,1802.04 2828.32,1802.11 2830.37,1802.17 2832.43,1802.22 2834.48,1802.28 2836.53,1802.33 2838.59,1802.38 2840.64,1802.44 2842.69,1802.49 2844.75,1802.54 2846.8,1802.58 2848.85,1802.62 2850.91,1802.66 2852.96,1802.69 2855.01,1802.71 2857.07,1802.73 2859.12,1802.75 2861.17,1802.76 2863.22,1802.76 2865.28,1802.76 2867.33,1802.76 2869.38,1802.74 2871.44,1802.72 2873.49,1802.7 2875.54,1802.67 2877.6,1802.63 2879.65,1802.59 2881.7,1802.55 2883.76,1802.49 2885.81,1802.43 2887.86,1802.36 2889.92,1802.28 2891.97,1802.21 2894.02,1802.12 2896.08,1802.02 2898.13,1801.92 2900.18,1801.82 2902.23,1801.71 2904.29,1801.59 2906.34,1801.47 2908.39,1801.35 2910.45,1801.21 2912.5,1801.07 2914.55,1800.93 2916.61,1800.78 2918.66,1800.63 2920.71,1800.47 2922.77,1800.32 2924.82,1800.14 2926.87,1799.97 2928.93,1799.79 2930.98,1799.6 2933.03,1799.41 2935.09,1799.21 2937.14,1799.01 2939.19,1798.81 2941.24,1798.58 2943.3,1798.35 2945.35,1798.1 2947.4,1797.83 2949.46,1797.57 2951.51,1797.29 2953.56,1796.98 2955.62,1796.66 2957.67,1796.31 2959.72,1795.93 2961.78,1795.53 2963.83,1795.12 2965.88,1794.68 2967.94,1794.2 2969.99,1793.66 2972.04,1793.1 2974.09,1792.48 2976.15,1791.82 2978.2,1791.13 2980.25,1790.4 2982.31,1789.6 2984.36,1788.74 2986.41,1787.8 2988.47,1786.8 2990.52,1785.73 2992.57,1784.59 2994.63,1783.39 2996.68,1782.1 2998.73,1780.74 3000.79,1779.29 3002.84,1777.75 3004.89,1776.12 3006.95,1774.42 3009,1772.66 3011.05,1770.77 3013.1,1768.78 3015.16,1766.7 3017.21,1764.51 3019.26,1762.23 3021.32,1759.87 3023.37,1757.43 3025.42,1754.83 3027.48,1752.13 3029.53,1749.33 3031.58,1746.42 3033.64,1743.42 3035.69,1740.36 3037.74,1737.22 3039.8,1733.95 3041.85,1730.61 3043.9,1727.18 3045.95,1723.7 3048.01,1720.16 3050.06,1716.59 3052.11,1712.98 3054.17,1709.35 3056.22,1705.7 3058.27,1702.05 3060.33,1698.43 3062.38,1694.84 3064.43,1691.31 3066.49,1687.85 3068.54,1684.47 3070.59,1681.2 3072.65,1678.05 3074.7,1675.05 3076.75,1672.22 3078.81,1669.58 3080.86,1667.15 3082.91,1664.93 3084.96,1662.95 3087.02,1661.23 3089.07,1659.77 3091.12,1658.59 3093.18,1657.71 3095.23,1657.12 3097.28,1656.85 3099.34,1656.88 3101.39,1657.22 3103.44,1657.88 3105.5,1658.84 3107.55,1660.12 3109.6,1661.69 3111.66,1663.56 3113.71,1665.7 3115.76,1668.11 3117.82,1670.77 3119.87,1673.66 3121.92,1676.77 3123.97,1680.06 3126.03,1683.52 3128.08,1687.16 3130.13,1690.91 3132.19,1694.77 3134.24,1698.72 3136.29,1702.71 3138.35,1706.74 3140.4,1710.8 3142.45,1714.83 3144.51,1718.85 3146.56,1722.82 3148.61,1726.72 3150.67,1730.52 3152.72,1734.23 3154.77,1737.85 3156.82,1741.36 3158.88,1744.72 3160.93,1747.95 3162.98,1751.04 3165.04,1753.96 3167.09,1756.71 3169.14,1759.34 3171.2,1761.81 3173.25,1764.14 3175.3,1766.32 3177.36,1768.35 3179.41,1770.23 3181.46,1771.96 3183.52,1773.56 3185.57,1775.03 3187.62,1776.39 3189.68,1777.64 3191.73,1778.77 3193.78,1779.79 3195.83,1780.7 3197.89,1781.56 3199.94,1782.34 3201.99,1783.04 3204.05,1783.68 3206.1,1784.25 3208.15,1784.74 3210.21,1785.17 3212.26,1785.61 3214.31,1786.01 3216.37,1786.37 3218.42,1786.68 3220.47,1786.97 3222.53,1787.19 3224.58,1787.4 3226.63,1787.62 3228.68,1787.83 3230.74,1788.03 3232.79,1788.19 3234.84,1788.36 3236.9,1788.5 3238.95,1788.64 3241,1788.79 3243.06,1788.93 3245.11,1789.09 3247.16,1789.23 3249.22,1789.39 3251.27,1789.55 3253.32,1789.71 3255.38,1789.89 3257.43,1790.08 3259.48,1790.26 3261.54,1790.46 3263.59,1790.65 3265.64,1790.84 3267.69,1791.05 3269.75,1791.27 3271.8,1791.48 3273.85,1791.7 3275.91,1791.93 3277.96,1792.16 3280.01,1792.39 3282.07,1792.62 3284.12,1792.86 3286.17,1793.09 3288.23,1793.33 3290.28,1793.57 3292.33,1793.8 3294.39,1794.02 3296.44,1794.24 3298.49,1794.47 3300.55,1794.69 3302.6,1794.91 3304.65,1795.12 3306.7,1795.32 3308.76,1795.51 3310.81,1795.7 3312.86,1795.88 3314.92,1796.05 3316.97,1796.22 3319.02,1796.38 3321.08,1796.52 3323.13,1796.65 3325.18,1796.78 3327.24,1796.89 3329.29,1797 3331.34,1797.1 3333.4,1797.19 3335.45,1797.27 3337.5,1797.34 3339.55,1797.4 3341.61,1797.45 3343.66,1797.51 3345.71,1797.55 3347.77,1797.59 3349.82,1797.62 3351.87,1797.64 3353.93,1797.66 3355.98,1797.68 3358.03,1797.71 3360.09,1797.72 3362.14,1797.74 3364.19,1797.76 3366.25,1797.77 3368.3,1797.79 3370.35,1797.81 3372.41,1797.84 3374.46,1797.87 3376.51,1797.9 3378.56,1797.94 3380.62,1797.98 3382.67,1798.03 3384.72,1798.09 3386.78,1798.15 3388.83,1798.22 3390.88,1798.29 3392.94,1798.37 3394.99,1798.45 3397.04,1798.53 3399.1,1798.62 3401.15,1798.72 3403.2,1798.81 3405.26,1798.91 3407.31,1799.01 3409.36,1799.1 3411.41,1799.2 3413.47,1799.3 3415.52,1799.4 3417.57,1799.49 3419.63,1799.58 3421.68,1799.68 3423.73,1799.76 3425.79,1799.85 3427.84,1799.93 3429.89,1800.01 3431.95,1800.08 3434,1800.15 3436.05,1800.22 3438.11,1800.28 3440.16,1800.35 3442.21,1800.41 3444.27,1800.46 3446.32,1800.52 3448.37,1800.57 3450.42,1800.63 3452.48,1800.68 3454.53,1800.73 3456.58,1800.77 3458.64,1800.83 3460.69,1800.88 3462.74,1800.93 3464.8,1800.98 3466.85,1801.03 3468.9,1801.09 3470.96,1801.14 3473.01,1801.19 3475.06,1801.25 3477.12,1801.31 3479.17,1801.37 3481.22,1801.43 3483.28,1801.48 3485.33,1801.54 3487.38,1801.59 3489.43,1801.64 3491.49,1801.69 3493.54,1801.74 3495.59,1801.8 3497.65,1801.84 3499.7,1801.88 3501.75,1801.92 3503.81,1801.95 3505.86,1801.98 3507.91,1802 3509.97,1802.02 3512.02,1802.03 3514.07,1802.03 3516.13,1802.02 3518.18,1802 3520.23,1801.97 3522.28,1801.93 3524.34,1801.88 3526.39,1801.83 3528.44,1801.76 3530.5,1801.68 3532.55,1801.59 3534.6,1801.48 3536.66,1801.36 3538.71,1801.24 3540.76,1801.1 3542.82,1800.95 3544.87,1800.78 3546.92,1800.61 3548.98,1800.42 3551.03,1800.21 3553.08,1800 3555.14,1799.79 3557.19,1799.56 3559.24,1799.31 3561.29,1799.06 3563.35,1798.8 3565.4,1798.53 3567.45,1798.25 3569.51,1797.96 3571.56,1797.67 3573.61,1797.35 3575.67,1797.03 3577.72,1796.71 3579.77,1796.37 3581.83,1796.04 3583.88,1795.71 3585.93,1795.37 3587.99,1795.01 3590.04,1794.66 3592.09,1794.3 3594.14,1793.94 3596.2,1793.58 3598.25,1793.22 3600.3,1792.85 3602.36,1792.48 3604.41,1792.1 3606.46,1791.73 3608.52,1791.36 3610.57,1790.98 3612.62,1790.62 3614.68,1790.24 3616.73,1789.86 3618.78,1789.49 3620.84,1789.11 3622.89,1788.74 3624.94,1788.37 3627,1788.01 3629.05,1787.65 3631.1,1787.28 3633.15,1786.92 3635.21,1786.57 3637.26,1786.21 3639.31,1785.87 3641.37,1785.54 3643.42,1785.21 3645.47,1784.89 3647.53,1784.59 3649.58,1784.29 3651.63,1784 3653.69,1783.73 3655.74,1783.48 3657.79,1783.25 3659.85,1783.03 3661.9,1782.82 3663.95,1782.64 3666.01,1782.47 3668.06,1782.33 3670.11,1782.21 3672.16,1782.11 3674.22,1782.03 3676.27,1781.98 3678.32,1781.94 3680.38,1781.92 3682.43,1781.92 3684.48,1781.94 3686.54,1781.99 3688.59,1782.04 3690.64,1782.11 3692.7,1782.19 3694.75,1782.28 3696.8,1782.39 3698.86,1782.5 3700.91,1782.63 3702.96,1782.76 3705.01,1782.89 3707.07,1783.03 3709.12,1783.18 3711.17,1783.32 3713.23,1783.47 3715.28,1783.62 3717.33,1783.77 3719.39,1783.92 3721.44,1784.07 3723.49,1784.22 3725.55,1784.38 3727.6,1784.54 3729.65,1784.7 3731.71,1784.87 3733.76,1785.04 3735.81,1785.22 3737.87,1785.4 3739.92,1785.59 3741.97,1785.78 3744.02,1785.98 3746.08,1786.19 3748.13,1786.4 3750.18,1786.63 3752.24,1786.86 3754.29,1787.1 3756.34,1787.34 3758.4,1787.6 3760.45,1787.86 3762.5,1788.12 3764.56,1788.38 3766.61,1788.64 3768.66,1788.89 3770.72,1789.14 3772.77,1789.4 3774.82,1789.65 3776.87,1789.9 3778.93,1790.13 3780.98,1790.36 3783.03,1790.58 3785.09,1790.79 3787.14,1790.99 3789.19,1791.19 3791.25,1791.37 3793.3,1791.54 3795.35,1791.7 3797.41,1791.84 3799.46,1791.97 3801.51,1792.1 3803.57,1792.23 3805.62,1792.33 3807.67,1792.43 3809.73,1792.52 3811.78,1792.6 3813.83,1792.68 3815.88,1792.75 3817.94,1792.82 3819.99,1792.89 3822.04,1792.95 3824.1,1793.01 3826.15,1793.06 3828.2,1793.11 3830.26,1793.17 3832.31,1793.21 3834.36,1793.26 3836.42,1793.32 3838.47,1793.38 3840.52,1793.44 3842.58,1793.49 3844.63,1793.56 3846.68,1793.63 3848.74,1793.71 3850.79,1793.78 3852.84,1793.87 3854.89,1793.95 3856.95,1794.03 3859,1794.13 3861.05,1794.23 3863.11,1794.34 3865.16,1794.45 3867.21,1794.57 3869.27,1794.69 3871.32,1794.82 3873.37,1794.95 3875.43,1795.09 3877.48,1795.24 3879.53,1795.39 3881.59,1795.54 3883.64,1795.7 3885.69,1795.85 3887.74,1796.01 3889.8,1796.17 3891.85,1796.33 3893.9,1796.5 3895.96,1796.65 3898.01,1796.81 3900.06,1796.96 3902.12,1797.12 3904.17,1797.27 3906.22,1797.42 3908.28,1797.57 3910.33,1797.71 3912.38,1797.84 3914.44,1797.97 3916.49,1798.09 3918.54,1798.22 3920.6,1798.33 3922.65,1798.44 3924.7,1798.55 3926.75,1798.65 3928.81,1798.75 3930.86,1798.84 3932.91,1798.93 3934.97,1799.02 3937.02,1799.1 3939.07,1799.19 3941.13,1799.26 3943.18,1799.33 3945.23,1799.4 3947.29,1799.48 3949.34,1799.54 3951.39,1799.61 3953.45,1799.68 3955.5,1799.74 3957.55,1799.8 3959.6,1799.86 3961.66,1799.92 3963.71,1799.98 3965.76,1800.04 3967.82,1800.09 3969.87,1800.14 3971.92,1800.2 3973.98,1800.25 3976.03,1800.3 3978.08,1800.35 3980.14,1800.4 3982.19,1800.44 3984.24,1800.49 3986.3,1800.54 3988.35,1800.58 3990.4,1800.62 3992.46,1800.66 3994.51,1800.7 3996.56,1800.74 3998.61,1800.77 4000.67,1800.8 4002.72,1800.82 4004.77,1800.85 4006.83,1800.87 4008.88,1800.88 4010.93,1800.89 4012.99,1800.9 4015.04,1800.89 4017.09,1800.89 4019.15,1800.88 4021.2,1800.85 4023.25,1800.82 4025.31,1800.77 4027.36,1800.71 4029.41,1800.64 4031.47,1800.56 4033.52,1800.47 4035.57,1800.36 4037.62,1800.24 4039.68,1800.09 4041.73,1799.93 4043.78,1799.75 4045.84,1799.55 4047.89,1799.33 4049.94,1799.09 4052,1798.83 4054.05,1798.56 4056.1,1798.26 4058.16,1797.95 4060.21,1797.62 4062.26,1797.28 4064.32,1796.92 4066.37,1796.55 4068.42,1796.18 4070.47,1795.8 4072.53,1795.41 4074.58,1795.04 4076.63,1794.67 4078.69,1794.3 4080.74,1793.95 4082.79,1793.62 4084.85,1793.3 4086.9,1793.01 4088.95,1792.74 4091.01,1792.51 4093.06,1792.31 4095.11,1792.15 4097.17,1792.03 4099.22,1791.94 4101.27,1791.9 4103.33,1791.9 4105.38,1791.95 4107.43,1792.04 4109.48,1792.17 4111.54,1792.34 4113.59,1792.55 4115.64,1792.8 4117.7,1793.08 4119.75,1793.4 4121.8,1793.74 4123.86,1794.11 4125.91,1794.5 4127.96,1794.91 4130.02,1795.33 4132.07,1795.76 4134.12,1796.19 4136.18,1796.63 4138.23,1797.07 4140.28,1797.5 4142.34,1797.92 4144.39,1798.34 4146.44,1798.74 4148.49,1799.13 4150.55,1799.5 4152.6,1799.85 4154.65,1800.19 4156.71,1800.5 4158.76,1800.8 4160.81,1801.08 4162.87,1801.33 4164.92,1801.57 4166.97,1801.79 4169.03,1802 4171.08,1802.18 4173.13,1802.35 4175.19,1802.51 4177.24,1802.65 4179.29,1802.79 4181.34,1802.91 4183.4,1803.02 4185.45,1803.12 4187.5,1803.22 4189.56,1803.31 4191.61,1803.39 4193.66,1803.47 4195.72,1803.54 4197.77,1803.6 4199.82,1803.66 4201.88,1803.72 4203.93,1803.77 4205.98,1803.82 4208.04,1803.87 4210.09,1803.91 4212.14,1803.95 4214.2,1803.98 4216.25,1804.01 4218.3,1804.04 4220.35,1804.06 4222.41,1804.07 4224.46,1804.08 4226.51,1804.09 4228.57,1804.09 4230.62,1804.09 4232.67,1804.08 4234.73,1804.07 4236.78,1804.05 4238.83,1804.03 4240.89,1804.01 4242.94,1803.98 4244.99,1803.94 4247.05,1803.9 4249.1,1803.86 4251.15,1803.81 4253.2,1803.76 4255.26,1803.7 4257.31,1803.64 4259.36,1803.58 4261.42,1803.52 4263.47,1803.45 4265.52,1803.38 4267.58,1803.31 4269.63,1803.25 4271.68,1803.18 4273.74,1803.11 4275.79,1803.05 4277.84,1802.98 4279.9,1802.92 4281.95,1802.86 4284,1802.8 4286.06,1802.75 4288.11,1802.69 4290.16,1802.65 4292.21,1802.6 4294.27,1802.56 4296.32,1802.53 4298.37,1802.5 4300.43,1802.47 4302.48,1802.45 4304.53,1802.44 4306.59,1802.42 4308.64,1802.41 4310.69,1802.4 4312.75,1802.4 4314.8,1802.4 4316.85,1802.4 4318.91,1802.4 4320.96,1802.41 4323.01,1802.41 4325.07,1802.42 4327.12,1802.43 4329.17,1802.43 4331.22,1802.44 4333.28,1802.44 4335.33,1802.45 4337.38,1802.45 4339.44,1802.45 4341.49,1802.44 4343.54,1802.44 4345.6,1802.42 4347.65,1802.41 4349.7,1802.39 4351.76,1802.37 4353.81,1802.34 4355.86,1802.31 4357.92,1802.27 4359.97,1802.23 4362.02,1802.19 4364.07,1802.14 4366.13,1802.08 4368.18,1802.02 4370.23,1801.95 4372.29,1801.88 4374.34,1801.81 4376.39,1801.73 4378.45,1801.65 4380.5,1801.57 4382.55,1801.48 4384.61,1801.39 4386.66,1801.3 4388.71,1801.21 4390.77,1801.12 4392.82,1801.02 4394.87,1800.93 4396.93,1800.85 4398.98,1800.76 4401.03,1800.68 4403.08,1800.6 4405.14,1800.53 4407.19,1800.46 4409.24,1800.4 4411.3,1800.34 4413.35,1800.3 4415.4,1800.25 4417.46,1800.22 4419.51,1800.19 4421.56,1800.17 4423.62,1800.15 4425.67,1800.14 4427.72,1800.14 4429.78,1800.15 4431.83,1800.16 4433.88,1800.17 4435.93,1800.19 4437.99,1800.22 4440.04,1800.25 4442.09,1800.28 4444.15,1800.31 4446.2,1800.35 4448.25,1800.39 4450.31,1800.43 4452.36,1800.46 4454.41,1800.5 4456.47,1800.54 4458.52,1800.57 4460.57,1800.6 4462.63,1800.63 4464.68,1800.65 4466.73,1800.67 4468.79,1800.69 4470.84,1800.7 4472.89,1800.71 4474.94,1800.72 4477,1800.72 4479.05,1800.71 4481.1,1800.7 4483.16,1800.69 4485.21,1800.67 4487.26,1800.65 4489.32,1800.62 4491.37,1800.6 4493.42,1800.56 4495.48,1800.52 4497.53,1800.48 4499.58,1800.44 4501.64,1800.39 4503.69,1800.34 4505.74,1800.29 4507.8,1800.23 4509.85,1800.17 4511.9,1800.11 4513.95,1800.04 4516.01,1799.97 4518.06,1799.9 4520.11,1799.83 4522.17,1799.75 4524.22,1799.67 4526.27,1799.58 4528.33,1799.5 4530.38,1799.4 4532.43,1799.31 4534.49,1799.21 4536.54,1799.11 4538.59,1799 4540.65,1798.9 4542.7,1798.78 4544.75,1798.67 4546.8,1798.55 4548.86,1798.42 4550.91,1798.3 4552.96,1798.17 4555.02,1798.03 4557.07,1797.9 4559.12,1797.76 4561.18,1797.62 4563.23,1797.48 4565.28,1797.34 4567.34,1797.19 4569.39,1797.05 4571.44,1796.9 4573.5,1796.76 4575.55,1796.61 4577.6,1796.47 4579.66,1796.33 4581.71,1796.19 4583.76,1796.05 4585.81,1795.91 4587.87,1795.78 4589.92,1795.65 4591.97,1795.52 4594.03,1795.4 4596.08,1795.28 4598.13,1795.16 4600.19,1795.05 4602.24,1794.94 4604.29,1794.84 4606.35,1794.73 4608.4,1794.64 4610.45,1794.54 4612.51,1794.45 4614.56,1794.36 4616.61,1794.28 4618.66,1794.2 4620.72,1794.12 4622.77,1794.05 4624.82,1793.98 "/>
<path clip-path="url(#clip971)" d="M487.735 1804.09 L487.735 218.075 L588.339 218.075 L588.339 1804.09 L487.735 1804.09  Z" fill="#ff3333" fill-rule="evenodd" fill-opacity="0.12"/>
<polyline clip-path="url(#clip971)" style="stroke:#000000; stroke-linecap:round; stroke-linejoin:round; stroke-width:8; stroke-opacity:0; fill:none" points="487.735,1804.09 487.735,218.075 588.339,218.075 588.339,1804.09 487.735,1804.09 "/>
<path clip-path="url(#clip971)" d="M623.242 1804.09 L623.242 218.075 L637.614 218.075 L637.614 1804.09 L623.242 1804.09  Z" fill="#ff3333" fill-rule="evenodd" fill-opacity="0.12"/>
<polyline clip-path="url(#clip971)" style="stroke:#000000; stroke-linecap:round; stroke-linejoin:round; stroke-width:8; stroke-opacity:0; fill:none" points="623.242,1804.09 623.242,218.075 637.614,218.075 637.614,1804.09 623.242,1804.09 "/>
<path clip-path="url(#clip971)" d="M871.673 1804.09 L871.673 218.075 L1189.91 218.075 L1189.91 1804.09 L871.673 1804.09  Z" fill="#ff3333" fill-rule="evenodd" fill-opacity="0.12"/>
<polyline clip-path="url(#clip971)" style="stroke:#000000; stroke-linecap:round; stroke-linejoin:round; stroke-width:8; stroke-opacity:0; fill:none" points="871.673,1804.09 871.673,218.075 1189.91,218.075 1189.91,1804.09 871.673,1804.09 "/>
<path clip-path="url(#clip971)" d="M1304.89 1804.09 L1304.89 218.075 L1380.85 218.075 L1380.85 1804.09 L1304.89 1804.09  Z" fill="#ff3333" fill-rule="evenodd" fill-opacity="0.12"/>
<polyline clip-path="url(#clip971)" style="stroke:#000000; stroke-linecap:round; stroke-linejoin:round; stroke-width:8; stroke-opacity:0; fill:none" points="1304.89,1804.09 1304.89,218.075 1380.85,218.075 1380.85,1804.09 1304.89,1804.09 "/>
<path clip-path="url(#clip971)" d="M1528.68 1804.09 L1528.68 218.075 L1643.66 218.075 L1643.66 1804.09 L1528.68 1804.09  Z" fill="#ff3333" fill-rule="evenodd" fill-opacity="0.12"/>
<polyline clip-path="url(#clip971)" style="stroke:#000000; stroke-linecap:round; stroke-linejoin:round; stroke-width:8; stroke-opacity:0; fill:none" points="1528.68,1804.09 1528.68,218.075 1643.66,218.075 1643.66,1804.09 1528.68,1804.09 "/>
<path clip-path="url(#clip971)" d="M1752.47 1804.09 L1752.47 218.075 L2005.01 218.075 L2005.01 1804.09 L1752.47 1804.09  Z" fill="#ff3333" fill-rule="evenodd" fill-opacity="0.12"/>
<polyline clip-path="url(#clip971)" style="stroke:#000000; stroke-linecap:round; stroke-linejoin:round; stroke-width:8; stroke-opacity:0; fill:none" points="1752.47,1804.09 1752.47,218.075 2005.01,218.075 2005.01,1804.09 1752.47,1804.09 "/>
<path clip-path="url(#clip971)" d="M2169.26 1804.09 L2169.26 218.075 L2397.16 218.075 L2397.16 1804.09 L2169.26 1804.09  Z" fill="#ff3333" fill-rule="evenodd" fill-opacity="0.12"/>
<polyline clip-path="url(#clip971)" style="stroke:#000000; stroke-linecap:round; stroke-linejoin:round; stroke-width:8; stroke-opacity:0; fill:none" points="2169.26,1804.09 2169.26,218.075 2397.16,218.075 2397.16,1804.09 2169.26,1804.09 "/>
<path clip-path="url(#clip971)" d="M2553.2 1804.09 L2553.2 218.075 L2863.22 218.075 L2863.22 1804.09 L2553.2 1804.09  Z" fill="#ff3333" fill-rule="evenodd" fill-opacity="0.12"/>
<polyline clip-path="url(#clip971)" style="stroke:#000000; stroke-linecap:round; stroke-linejoin:round; stroke-width:8; stroke-opacity:0; fill:none" points="2553.2,1804.09 2553.2,218.075 2863.22,218.075 2863.22,1804.09 2553.2,1804.09 "/>
<path clip-path="url(#clip971)" d="M3099.34 1804.09 L3099.34 218.075 L3512.02 218.075 L3512.02 1804.09 L3099.34 1804.09  Z" fill="#ff3333" fill-rule="evenodd" fill-opacity="0.12"/>
<polyline clip-path="url(#clip971)" style="stroke:#000000; stroke-linecap:round; stroke-linejoin:round; stroke-width:8; stroke-opacity:0; fill:none" points="3099.34,1804.09 3099.34,218.075 3512.02,218.075 3512.02,1804.09 3099.34,1804.09 "/>
<path clip-path="url(#clip971)" d="M3682.43 1804.09 L3682.43 218.075 L4012.99 218.075 L4012.99 1804.09 L3682.43 1804.09  Z" fill="#ff3333" fill-rule="evenodd" fill-opacity="0.12"/>
<polyline clip-path="url(#clip971)" style="stroke:#000000; stroke-linecap:round; stroke-linejoin:round; stroke-width:8; stroke-opacity:0; fill:none" points="3682.43,1804.09 3682.43,218.075 4012.99,218.075 4012.99,1804.09 3682.43,1804.09 "/>
<path clip-path="url(#clip971)" d="M4103.33 1804.09 L4103.33 218.075 L4226.51 218.075 L4226.51 1804.09 L4103.33 1804.09  Z" fill="#ff3333" fill-rule="evenodd" fill-opacity="0.12"/>
<polyline clip-path="url(#clip971)" style="stroke:#000000; stroke-linecap:round; stroke-linejoin:round; stroke-width:8; stroke-opacity:0; fill:none" points="4103.33,1804.09 4103.33,218.075 4226.51,218.075 4226.51,1804.09 4103.33,1804.09 "/>
<path clip-path="url(#clip971)" d="M4316.85 1804.09 L4316.85 218.075 L4335.33 218.075 L4335.33 1804.09 L4316.85 1804.09  Z" fill="#ff3333" fill-rule="evenodd" fill-opacity="0.12"/>
<polyline clip-path="url(#clip971)" style="stroke:#000000; stroke-linecap:round; stroke-linejoin:round; stroke-width:8; stroke-opacity:0; fill:none" points="4316.85,1804.09 4316.85,218.075 4335.33,218.075 4335.33,1804.09 4316.85,1804.09 "/>
<path clip-path="url(#clip971)" d="M4427.72 1804.09 L4427.72 218.075 L4474.94 218.075 L4474.94 1804.09 L4427.72 1804.09  Z" fill="#ff3333" fill-rule="evenodd" fill-opacity="0.12"/>
<polyline clip-path="url(#clip971)" style="stroke:#000000; stroke-linecap:round; stroke-linejoin:round; stroke-width:8; stroke-opacity:0; fill:none" points="4427.72,1804.09 4427.72,218.075 4474.94,218.075 4474.94,1804.09 4427.72,1804.09 "/>
<path clip-path="url(#clip971)" d="M360.44 1804.09 L360.44 218.075 L485.682 218.075 L485.682 1804.09 L360.44 1804.09  Z" fill="#33b233" fill-rule="evenodd" fill-opacity="0.12"/>
<polyline clip-path="url(#clip971)" style="stroke:#000000; stroke-linecap:round; stroke-linejoin:round; stroke-width:8; stroke-opacity:0; fill:none" points="360.44,1804.09 360.44,218.075 485.682,218.075 485.682,1804.09 360.44,1804.09 "/>
<path clip-path="url(#clip971)" d="M590.392 1804.09 L590.392 218.075 L621.189 218.075 L621.189 1804.09 L590.392 1804.09  Z" fill="#33b233" fill-rule="evenodd" fill-opacity="0.12"/>
<polyline clip-path="url(#clip971)" style="stroke:#000000; stroke-linecap:round; stroke-linejoin:round; stroke-width:8; stroke-opacity:0; fill:none" points="590.392,1804.09 590.392,218.075 621.189,218.075 621.189,1804.09 590.392,1804.09 "/>
<path clip-path="url(#clip971)" d="M639.668 1804.09 L639.668 218.075 L869.62 218.075 L869.62 1804.09 L639.668 1804.09  Z" fill="#33b233" fill-rule="evenodd" fill-opacity="0.12"/>
<polyline clip-path="url(#clip971)" style="stroke:#000000; stroke-linecap:round; stroke-linejoin:round; stroke-width:8; stroke-opacity:0; fill:none" points="639.668,1804.09 639.668,218.075 869.62,218.075 869.62,1804.09 639.668,1804.09 "/>
<path clip-path="url(#clip971)" d="M1191.96 1804.09 L1191.96 218.075 L1302.83 218.075 L1302.83 1804.09 L1191.96 1804.09  Z" fill="#33b233" fill-rule="evenodd" fill-opacity="0.12"/>
<polyline clip-path="url(#clip971)" style="stroke:#000000; stroke-linecap:round; stroke-linejoin:round; stroke-width:8; stroke-opacity:0; fill:none" points="1191.96,1804.09 1191.96,218.075 1302.83,218.075 1302.83,1804.09 1191.96,1804.09 "/>
<path clip-path="url(#clip971)" d="M1382.91 1804.09 L1382.91 218.075 L1526.63 218.075 L1526.63 1804.09 L1382.91 1804.09  Z" fill="#33b233" fill-rule="evenodd" fill-opacity="0.12"/>
<polyline clip-path="url(#clip971)" style="stroke:#000000; stroke-linecap:round; stroke-linejoin:round; stroke-width:8; stroke-opacity:0; fill:none" points="1382.91,1804.09 1382.91,218.075 1526.63,218.075 1526.63,1804.09 1382.91,1804.09 "/>
<path clip-path="url(#clip971)" d="M1645.71 1804.09 L1645.71 218.075 L1750.42 218.075 L1750.42 1804.09 L1645.71 1804.09  Z" fill="#33b233" fill-rule="evenodd" fill-opacity="0.12"/>
<polyline clip-path="url(#clip971)" style="stroke:#000000; stroke-linecap:round; stroke-linejoin:round; stroke-width:8; stroke-opacity:0; fill:none" points="1645.71,1804.09 1645.71,218.075 1750.42,218.075 1750.42,1804.09 1645.71,1804.09 "/>
<path clip-path="url(#clip971)" d="M2007.06 1804.09 L2007.06 218.075 L2167.21 218.075 L2167.21 1804.09 L2007.06 1804.09  Z" fill="#33b233" fill-rule="evenodd" fill-opacity="0.12"/>
<polyline clip-path="url(#clip971)" style="stroke:#000000; stroke-linecap:round; stroke-linejoin:round; stroke-width:8; stroke-opacity:0; fill:none" points="2007.06,1804.09 2007.06,218.075 2167.21,218.075 2167.21,1804.09 2007.06,1804.09 "/>
<path clip-path="url(#clip971)" d="M2399.21 1804.09 L2399.21 218.075 L2551.15 218.075 L2551.15 1804.09 L2399.21 1804.09  Z" fill="#33b233" fill-rule="evenodd" fill-opacity="0.12"/>
<polyline clip-path="url(#clip971)" style="stroke:#000000; stroke-linecap:round; stroke-linejoin:round; stroke-width:8; stroke-opacity:0; fill:none" points="2399.21,1804.09 2399.21,218.075 2551.15,218.075 2551.15,1804.09 2399.21,1804.09 "/>
<path clip-path="url(#clip971)" d="M2865.28 1804.09 L2865.28 218.075 L3097.28 218.075 L3097.28 1804.09 L2865.28 1804.09  Z" fill="#33b233" fill-rule="evenodd" fill-opacity="0.12"/>
<polyline clip-path="url(#clip971)" style="stroke:#000000; stroke-linecap:round; stroke-linejoin:round; stroke-width:8; stroke-opacity:0; fill:none" points="2865.28,1804.09 2865.28,218.075 3097.28,218.075 3097.28,1804.09 2865.28,1804.09 "/>
<path clip-path="url(#clip971)" d="M3514.07 1804.09 L3514.07 218.075 L3680.38 218.075 L3680.38 1804.09 L3514.07 1804.09  Z" fill="#33b233" fill-rule="evenodd" fill-opacity="0.12"/>
<polyline clip-path="url(#clip971)" style="stroke:#000000; stroke-linecap:round; stroke-linejoin:round; stroke-width:8; stroke-opacity:0; fill:none" points="3514.07,1804.09 3514.07,218.075 3680.38,218.075 3680.38,1804.09 3514.07,1804.09 "/>
<path clip-path="url(#clip971)" d="M4015.04 1804.09 L4015.04 218.075 L4101.27 218.075 L4101.27 1804.09 L4015.04 1804.09  Z" fill="#33b233" fill-rule="evenodd" fill-opacity="0.12"/>
<polyline clip-path="url(#clip971)" style="stroke:#000000; stroke-linecap:round; stroke-linejoin:round; stroke-width:8; stroke-opacity:0; fill:none" points="4015.04,1804.09 4015.04,218.075 4101.27,218.075 4101.27,1804.09 4015.04,1804.09 "/>
<path clip-path="url(#clip971)" d="M4228.57 1804.09 L4228.57 218.075 L4314.8 218.075 L4314.8 1804.09 L4228.57 1804.09  Z" fill="#33b233" fill-rule="evenodd" fill-opacity="0.12"/>
<polyline clip-path="url(#clip971)" style="stroke:#000000; stroke-linecap:round; stroke-linejoin:round; stroke-width:8; stroke-opacity:0; fill:none" points="4228.57,1804.09 4228.57,218.075 4314.8,218.075 4314.8,1804.09 4228.57,1804.09 "/>
<path clip-path="url(#clip971)" d="M4337.38 1804.09 L4337.38 218.075 L4425.67 218.075 L4425.67 1804.09 L4337.38 1804.09  Z" fill="#33b233" fill-rule="evenodd" fill-opacity="0.12"/>
<polyline clip-path="url(#clip971)" style="stroke:#000000; stroke-linecap:round; stroke-linejoin:round; stroke-width:8; stroke-opacity:0; fill:none" points="4337.38,1804.09 4337.38,218.075 4425.67,218.075 4425.67,1804.09 4337.38,1804.09 "/>
<path clip-path="url(#clip971)" d="M4477 1804.09 L4477 218.075 L4624.82 218.075 L4624.82 1804.09 L4477 1804.09  Z" fill="#33b233" fill-rule="evenodd" fill-opacity="0.12"/>
<polyline clip-path="url(#clip971)" style="stroke:#000000; stroke-linecap:round; stroke-linejoin:round; stroke-width:8; stroke-opacity:0; fill:none" points="4477,1804.09 4477,218.075 4624.82,218.075 4624.82,1804.09 4477,1804.09 "/>
<polyline clip-path="url(#clip971)" style="stroke:#808080; stroke-linecap:round; stroke-linejoin:round; stroke-width:4; stroke-opacity:1; fill:none" stroke-dasharray="16, 10" points="-4287.74,1805.03 9273,1805.03 "/>
<path clip-path="url(#clip970)" d="M3737.86 373.933 L4602.08 373.933 L4602.08 226.539 L3737.86 226.539  Z" fill="#ffffff" fill-rule="evenodd" fill-opacity="1"/>
<polyline clip-path="url(#clip970)" style="stroke:#000000; stroke-linecap:round; stroke-linejoin:round; stroke-width:4; stroke-opacity:1; fill:none" points="3737.86,373.933 4602.08,373.933 4602.08,226.539 3737.86,226.539 3737.86,373.933 "/>
<polyline clip-path="url(#clip970)" style="stroke:#000000; stroke-linecap:round; stroke-linejoin:round; stroke-width:8; stroke-opacity:1; fill:none" points="3788.08,275.67 4089.43,275.67 "/>
<g clip-path="url(#clip970)">
<text style="fill:#000000; fill-opacity:1; font-family:Century Gothic,CenturyGothic,AppleGothic,sans-serif; font-size:47px; text-anchor:start;" transform="rotate(0, 4139.66, 293.17)" x="4139.66" y="293.17">daily_interp_gauss</text>
</g>
<polyline clip-path="url(#clip970)" style="stroke:#808080; stroke-linecap:round; stroke-linejoin:round; stroke-width:4; stroke-opacity:1; fill:none" stroke-dasharray="16, 10" points="3788.08,324.802 4089.43,324.802 "/>
<g clip-path="url(#clip970)">
<text style="fill:#000000; fill-opacity:1; font-family:Century Gothic,CenturyGothic,AppleGothic,sans-serif; font-size:47px; text-anchor:start;" transform="rotate(0, 4139.66, 342.302)" x="4139.66" y="342.302">zero</text>
</g>
</svg>
