<?xml version="1.0" encoding="utf-8"?>
<svg xmlns="http://www.w3.org/2000/svg" xmlns:xlink="http://www.w3.org/1999/xlink" width="800" height="420" viewBox="0 0 3200 1680">
<defs>
  <clipPath id="clip410">
    <rect x="0" y="0" width="3200" height="1680"/>
  </clipPath>
</defs>
<path clip-path="url(#clip410)" d="M0 1680 L3200 1680 L3200 0 L0 0  Z" fill="#ffffff" fill-rule="evenodd" fill-opacity="1"/>
<defs>
  <clipPath id="clip411">
    <rect x="232" y="158" width="2922" height="1363"/>
  </clipPath>
</defs>
<path clip-path="url(#clip410)" d="M232.027 1519.82 L3152.76 1519.82 L3152.76 158.248 L232.027 158.248  Z" fill="#ffffff" fill-rule="evenodd" fill-opacity="1"/>
<polyline clip-path="url(#clip411)" style="stroke:#000000; stroke-linecap:round; stroke-linejoin:round; stroke-width:2; stroke-opacity:0.1; fill:none" points="233.523,1519.82 233.523,158.248 "/>
<polyline clip-path="url(#clip411)" style="stroke:#000000; stroke-linecap:round; stroke-linejoin:round; stroke-width:2; stroke-opacity:0.1; fill:none" points="896.645,1519.82 896.645,158.248 "/>
<polyline clip-path="url(#clip411)" style="stroke:#000000; stroke-linecap:round; stroke-linejoin:round; stroke-width:2; stroke-opacity:0.1; fill:none" points="1559.77,1519.82 1559.77,158.248 "/>
<polyline clip-path="url(#clip411)" style="stroke:#000000; stroke-linecap:round; stroke-linejoin:round; stroke-width:2; stroke-opacity:0.1; fill:none" points="2222.89,1519.82 2222.89,158.248 "/>
<polyline clip-path="url(#clip411)" style="stroke:#000000; stroke-linecap:round; stroke-linejoin:round; stroke-width:2; stroke-opacity:0.1; fill:none" points="2886.01,1519.82 2886.01,158.248 "/>
<polyline clip-path="url(#clip411)" style="stroke:#000000; stroke-linecap:round; stroke-linejoin:round; stroke-width:2; stroke-opacity:0.1; fill:none" points="232.027,1510.12 3152.76,1510.12 "/>
<polyline clip-path="url(#clip411)" style="stroke:#000000; stroke-linecap:round; stroke-linejoin:round; stroke-width:2; stroke-opacity:0.1; fill:none" points="232.027,1267.97 3152.76,1267.97 "/>
<polyline clip-path="url(#clip411)" style="stroke:#000000; stroke-linecap:round; stroke-linejoin:round; stroke-width:2; stroke-opacity:0.1; fill:none" points="232.027,1025.82 3152.76,1025.82 "/>
<polyline clip-path="url(#clip411)" style="stroke:#000000; stroke-linecap:round; stroke-linejoin:round; stroke-width:2; stroke-opacity:0.1; fill:none" points="232.027,783.664 3152.76,783.664 "/>
<polyline clip-path="url(#clip411)" style="stroke:#000000; stroke-linecap:round; stroke-linejoin:round; stroke-width:2; stroke-opacity:0.1; fill:none" points="232.027,541.513 3152.76,541.513 "/>
<polyline clip-path="url(#clip411)" style="stroke:#000000; stroke-linecap:round; stroke-linejoin:round; stroke-width:2; stroke-opacity:0.1; fill:none" points="232.027,299.362 3152.76,299.362 "/>
<polyline clip-path="url(#clip410)" style="stroke:#000000; stroke-linecap:round; stroke-linejoin:round; stroke-width:4; stroke-opacity:1; fill:none" points="232.027,1519.82 3152.76,1519.82 "/>
<polyline clip-path="url(#clip410)" style="stroke:#000000; stroke-linecap:round; stroke-linejoin:round; stroke-width:4; stroke-opacity:1; fill:none" points="233.523,1519.82 233.523,1500.92 "/>
<polyline clip-path="url(#clip410)" style="stroke:#000000; stroke-linecap:round; stroke-linejoin:round; stroke-width:4; stroke-opacity:1; fill:none" points="896.645,1519.82 896.645,1500.92 "/>
<polyline clip-path="url(#clip410)" style="stroke:#000000; stroke-linecap:round; stroke-linejoin:round; stroke-width:4; stroke-opacity:1; fill:none" points="1559.77,1519.82 1559.77,1500.92 "/>
<polyline clip-path="url(#clip410)" style="stroke:#000000; stroke-linecap:round; stroke-linejoin:round; stroke-width:4; stroke-opacity:1; fill:none" points="2222.89,1519.82 2222.89,1500.92 "/>
<polyline clip-path="url(#clip410)" style="stroke:#000000; stroke-linecap:round; stroke-linejoin:round; stroke-width:4; stroke-opacity:1; fill:none" points="2886.01,1519.82 2886.01,1500.92 "/>
<path clip-path="url(#clip410)" d="M210.908 1557.14 Q207.297 1557.14 205.468 1560.71 Q203.663 1564.25 203.663 1571.38 Q203.663 1578.48 205.468 1582.05 Q207.297 1585.59 210.908 1585.59 Q214.542 1585.59 216.348 1582.05 Q218.176 1578.48 218.176 1571.38 Q218.176 1564.25 216.348 1560.71 Q214.542 1557.14 210.908 1557.14 M210.908 1553.44 Q216.718 1553.44 219.774 1558.04 Q222.852 1562.63 222.852 1571.38 Q222.852 1580.1 219.774 1584.71 Q216.718 1589.29 210.908 1589.29 Q205.098 1589.29 202.019 1584.71 Q198.963 1580.1 198.963 1571.38 Q198.963 1562.63 202.019 1558.04 Q205.098 1553.44 210.908 1553.44 Z" fill="#000000" fill-rule="nonzero" fill-opacity="1" /><path clip-path="url(#clip410)" d="M231.07 1582.74 L235.954 1582.74 L235.954 1588.62 L231.07 1588.62 L231.07 1582.74 Z" fill="#000000" fill-rule="nonzero" fill-opacity="1" /><path clip-path="url(#clip410)" d="M256.139 1557.14 Q252.528 1557.14 250.699 1560.71 Q248.894 1564.25 248.894 1571.38 Q248.894 1578.48 250.699 1582.05 Q252.528 1585.59 256.139 1585.59 Q259.773 1585.59 261.579 1582.05 Q263.408 1578.48 263.408 1571.38 Q263.408 1564.25 261.579 1560.71 Q259.773 1557.14 256.139 1557.14 M256.139 1553.44 Q261.949 1553.44 265.005 1558.04 Q268.083 1562.63 268.083 1571.38 Q268.083 1580.1 265.005 1584.71 Q261.949 1589.29 256.139 1589.29 Q250.329 1589.29 247.25 1584.71 Q244.195 1580.1 244.195 1571.38 Q244.195 1562.63 247.25 1558.04 Q250.329 1553.44 256.139 1553.44 Z" fill="#000000" fill-rule="nonzero" fill-opacity="1" /><path clip-path="url(#clip410)" d="M868.382 1584.69 L884.701 1584.69 L884.701 1588.62 L862.757 1588.62 L862.757 1584.69 Q865.419 1581.93 870.002 1577.3 Q874.608 1572.65 875.789 1571.31 Q878.034 1568.78 878.914 1567.05 Q879.817 1565.29 879.817 1563.6 Q879.817 1560.84 877.872 1559.11 Q875.951 1557.37 872.849 1557.37 Q870.65 1557.37 868.196 1558.14 Q865.766 1558.9 862.988 1560.45 L862.988 1555.73 Q865.812 1554.59 868.266 1554.02 Q870.72 1553.44 872.757 1553.44 Q878.127 1553.44 881.321 1556.12 Q884.516 1558.81 884.516 1563.3 Q884.516 1565.43 883.706 1567.35 Q882.919 1569.25 880.812 1571.84 Q880.233 1572.51 877.132 1575.73 Q874.03 1578.92 868.382 1584.69 Z" fill="#000000" fill-rule="nonzero" fill-opacity="1" /><path clip-path="url(#clip410)" d="M894.516 1582.74 L899.4 1582.74 L899.4 1588.62 L894.516 1588.62 L894.516 1582.74 Z" fill="#000000" fill-rule="nonzero" fill-opacity="1" /><path clip-path="url(#clip410)" d="M909.631 1554.06 L927.988 1554.06 L927.988 1558 L913.914 1558 L913.914 1566.47 Q914.932 1566.12 915.951 1565.96 Q916.969 1565.77 917.988 1565.77 Q923.775 1565.77 927.154 1568.95 Q930.534 1572.12 930.534 1577.53 Q930.534 1583.11 927.062 1586.21 Q923.59 1589.29 917.27 1589.29 Q915.094 1589.29 912.826 1588.92 Q910.58 1588.55 908.173 1587.81 L908.173 1583.11 Q910.256 1584.25 912.479 1584.8 Q914.701 1585.36 917.178 1585.36 Q921.182 1585.36 923.52 1583.25 Q925.858 1581.15 925.858 1577.53 Q925.858 1573.92 923.52 1571.82 Q921.182 1569.71 917.178 1569.71 Q915.303 1569.71 913.428 1570.13 Q911.576 1570.54 909.631 1571.42 L909.631 1554.06 Z" fill="#000000" fill-rule="nonzero" fill-opacity="1" /><path clip-path="url(#clip410)" d="M1526.93 1554.06 L1545.29 1554.06 L1545.29 1558 L1531.21 1558 L1531.21 1566.47 Q1532.23 1566.12 1533.25 1565.96 Q1534.27 1565.77 1535.29 1565.77 Q1541.08 1565.77 1544.45 1568.95 Q1547.83 1572.12 1547.83 1577.53 Q1547.83 1583.11 1544.36 1586.21 Q1540.89 1589.29 1534.57 1589.29 Q1532.39 1589.29 1530.13 1588.92 Q1527.88 1588.55 1525.47 1587.81 L1525.47 1583.11 Q1527.56 1584.25 1529.78 1584.8 Q1532 1585.36 1534.48 1585.36 Q1538.48 1585.36 1540.82 1583.25 Q1543.16 1581.15 1543.16 1577.53 Q1543.16 1573.92 1540.82 1571.82 Q1538.48 1569.71 1534.48 1569.71 Q1532.6 1569.71 1530.73 1570.13 Q1528.88 1570.54 1526.93 1571.42 L1526.93 1554.06 Z" fill="#000000" fill-rule="nonzero" fill-opacity="1" /><path clip-path="url(#clip410)" d="M1557.05 1582.74 L1561.93 1582.74 L1561.93 1588.62 L1557.05 1588.62 L1557.05 1582.74 Z" fill="#000000" fill-rule="nonzero" fill-opacity="1" /><path clip-path="url(#clip410)" d="M1582.12 1557.14 Q1578.51 1557.14 1576.68 1560.71 Q1574.87 1564.25 1574.87 1571.38 Q1574.87 1578.48 1576.68 1582.05 Q1578.51 1585.59 1582.12 1585.59 Q1585.75 1585.59 1587.56 1582.05 Q1589.39 1578.48 1589.39 1571.38 Q1589.39 1564.25 1587.56 1560.71 Q1585.75 1557.14 1582.12 1557.14 M1582.12 1553.44 Q1587.93 1553.44 1590.98 1558.04 Q1594.06 1562.63 1594.06 1571.38 Q1594.06 1580.1 1590.98 1584.71 Q1587.93 1589.29 1582.12 1589.29 Q1576.31 1589.29 1573.23 1584.71 Q1570.17 1580.1 1570.17 1571.38 Q1570.17 1562.63 1573.23 1558.04 Q1576.31 1553.44 1582.12 1553.44 Z" fill="#000000" fill-rule="nonzero" fill-opacity="1" /><path clip-path="url(#clip410)" d="M2189.21 1554.06 L2211.43 1554.06 L2211.43 1556.05 L2198.88 1588.62 L2194 1588.62 L2205.81 1558 L2189.21 1558 L2189.21 1554.06 Z" fill="#000000" fill-rule="nonzero" fill-opacity="1" /><path clip-path="url(#clip410)" d="M2220.55 1582.74 L2225.44 1582.74 L2225.44 1588.62 L2220.55 1588.62 L2220.55 1582.74 Z" fill="#000000" fill-rule="nonzero" fill-opacity="1" /><path clip-path="url(#clip410)" d="M2235.67 1554.06 L2254.02 1554.06 L2254.02 1558 L2239.95 1558 L2239.95 1566.47 Q2240.97 1566.12 2241.99 1565.96 Q2243 1565.77 2244.02 1565.77 Q2249.81 1565.77 2253.19 1568.95 Q2256.57 1572.12 2256.57 1577.53 Q2256.57 1583.11 2253.1 1586.21 Q2249.63 1589.29 2243.31 1589.29 Q2241.13 1589.29 2238.86 1588.92 Q2236.62 1588.55 2234.21 1587.81 L2234.21 1583.11 Q2236.29 1584.25 2238.51 1584.8 Q2240.74 1585.36 2243.21 1585.36 Q2247.22 1585.36 2249.56 1583.25 Q2251.89 1581.15 2251.89 1577.53 Q2251.89 1573.92 2249.56 1571.82 Q2247.22 1569.71 2243.21 1569.71 Q2241.34 1569.71 2239.46 1570.13 Q2237.61 1570.54 2235.67 1571.42 L2235.67 1554.06 Z" fill="#000000" fill-rule="nonzero" fill-opacity="1" /><path clip-path="url(#clip410)" d="M2838.08 1584.69 L2845.72 1584.69 L2845.72 1558.32 L2837.41 1559.99 L2837.41 1555.73 L2845.68 1554.06 L2850.35 1554.06 L2850.35 1584.69 L2857.99 1584.69 L2857.99 1588.62 L2838.08 1588.62 L2838.08 1584.69 Z" fill="#000000" fill-rule="nonzero" fill-opacity="1" /><path clip-path="url(#clip410)" d="M2877.43 1557.14 Q2873.82 1557.14 2872 1560.71 Q2870.19 1564.25 2870.19 1571.38 Q2870.19 1578.48 2872 1582.05 Q2873.82 1585.59 2877.43 1585.59 Q2881.07 1585.59 2882.87 1582.05 Q2884.7 1578.48 2884.7 1571.38 Q2884.7 1564.25 2882.87 1560.71 Q2881.07 1557.14 2877.43 1557.14 M2877.43 1553.44 Q2883.24 1553.44 2886.3 1558.04 Q2889.38 1562.63 2889.38 1571.38 Q2889.38 1580.1 2886.3 1584.71 Q2883.24 1589.29 2877.43 1589.29 Q2871.62 1589.29 2868.55 1584.71 Q2865.49 1580.1 2865.49 1571.38 Q2865.49 1562.63 2868.55 1558.04 Q2871.62 1553.44 2877.43 1553.44 Z" fill="#000000" fill-rule="nonzero" fill-opacity="1" /><path clip-path="url(#clip410)" d="M2897.6 1582.74 L2902.48 1582.74 L2902.48 1588.62 L2897.6 1588.62 L2897.6 1582.74 Z" fill="#000000" fill-rule="nonzero" fill-opacity="1" /><path clip-path="url(#clip410)" d="M2922.67 1557.14 Q2919.05 1557.14 2917.23 1560.71 Q2915.42 1564.25 2915.42 1571.38 Q2915.42 1578.48 2917.23 1582.05 Q2919.05 1585.59 2922.67 1585.59 Q2926.3 1585.59 2928.11 1582.05 Q2929.93 1578.48 2929.93 1571.38 Q2929.93 1564.25 2928.11 1560.71 Q2926.3 1557.14 2922.67 1557.14 M2922.67 1553.44 Q2928.48 1553.44 2931.53 1558.04 Q2934.61 1562.63 2934.61 1571.38 Q2934.61 1580.1 2931.53 1584.71 Q2928.48 1589.29 2922.67 1589.29 Q2916.86 1589.29 2913.78 1584.71 Q2910.72 1580.1 2910.72 1571.38 Q2910.72 1562.63 2913.78 1558.04 Q2916.86 1553.44 2922.67 1553.44 Z" fill="#000000" fill-rule="nonzero" fill-opacity="1" /><path clip-path="url(#clip410)" d="M1600.57 1653.99 L1600.57 1671.4 L1610.88 1671.4 Q1616.07 1671.4 1618.55 1669.27 Q1621.06 1667.11 1621.06 1662.68 Q1621.06 1658.23 1618.55 1656.12 Q1616.07 1653.99 1610.88 1653.99 L1600.57 1653.99 M1600.57 1634.45 L1600.57 1648.77 L1610.08 1648.77 Q1614.79 1648.77 1617.09 1647.02 Q1619.41 1645.24 1619.41 1641.61 Q1619.41 1638.01 1617.09 1636.23 Q1614.79 1634.45 1610.08 1634.45 L1600.57 1634.45 M1594.14 1629.17 L1610.56 1629.17 Q1617.91 1629.17 1621.89 1632.22 Q1625.87 1635.28 1625.87 1640.91 Q1625.87 1645.27 1623.83 1647.85 Q1621.8 1650.43 1617.85 1651.06 Q1622.59 1652.08 1625.2 1655.33 Q1627.84 1658.54 1627.84 1663.38 Q1627.84 1669.75 1623.51 1673.22 Q1619.19 1676.69 1611.2 1676.69 L1594.14 1676.69 L1594.14 1629.17 Z" fill="#000000" fill-rule="nonzero" fill-opacity="1" /><path clip-path="url(#clip410)" d="M1652.42 1645.14 Q1647.7 1645.14 1644.97 1648.84 Q1642.23 1652.5 1642.23 1658.89 Q1642.23 1665.29 1644.94 1668.98 Q1647.67 1672.64 1652.42 1672.64 Q1657.09 1672.64 1659.83 1668.95 Q1662.57 1665.26 1662.57 1658.89 Q1662.57 1652.56 1659.83 1648.87 Q1657.09 1645.14 1652.42 1645.14 M1652.42 1640.18 Q1660.05 1640.18 1664.41 1645.14 Q1668.77 1650.11 1668.77 1658.89 Q1668.77 1667.65 1664.41 1672.64 Q1660.05 1677.61 1652.42 1677.61 Q1644.74 1677.61 1640.38 1672.64 Q1636.06 1667.65 1636.06 1658.89 Q1636.06 1650.11 1640.38 1645.14 Q1644.74 1640.18 1652.42 1640.18 Z" fill="#000000" fill-rule="nonzero" fill-opacity="1" /><path clip-path="url(#clip410)" d="M1674.76 1676.69 L1674.76 1671.82 Q1680.55 1670.92 1682.33 1666.91 Q1684.5 1661.28 1684.5 1646.86 L1684.5 1641.04 L1708.59 1641.04 L1708.59 1676.69 L1702.74 1676.69 L1702.74 1645.72 L1690.35 1645.72 L1690.35 1649.25 Q1690.35 1663 1687.55 1669.17 Q1684.56 1675.76 1674.76 1676.69 Z" fill="#000000" fill-rule="nonzero" fill-opacity="1" /><path clip-path="url(#clip410)" d="M1719.92 1641.04 L1725.81 1641.04 L1725.81 1655.58 L1744.81 1655.58 L1744.81 1641.04 L1750.7 1641.04 L1750.7 1676.69 L1744.81 1676.69 L1744.81 1660.26 L1725.81 1660.26 L1725.81 1676.69 L1719.92 1676.69 L1719.92 1641.04 Z" fill="#000000" fill-rule="nonzero" fill-opacity="1" /><path clip-path="url(#clip410)" d="M1778.97 1658.77 Q1771.87 1658.77 1769.13 1660.39 Q1766.39 1662.01 1766.39 1665.93 Q1766.39 1669.05 1768.43 1670.89 Q1770.5 1672.71 1774.03 1672.71 Q1778.9 1672.71 1781.83 1669.27 Q1784.79 1665.8 1784.79 1660.07 L1784.79 1658.77 L1778.97 1658.77 M1790.65 1656.35 L1790.65 1676.69 L1784.79 1676.69 L1784.79 1671.27 Q1782.78 1674.52 1779.79 1676.08 Q1776.8 1677.61 1772.47 1677.61 Q1767 1677.61 1763.75 1674.55 Q1760.54 1671.47 1760.54 1666.31 Q1760.54 1660.29 1764.55 1657.24 Q1768.59 1654.18 1776.58 1654.18 L1784.79 1654.18 L1784.79 1653.61 Q1784.79 1649.57 1782.12 1647.37 Q1779.47 1645.14 1774.67 1645.14 Q1771.61 1645.14 1768.72 1645.88 Q1765.82 1646.61 1763.15 1648.07 L1763.15 1642.66 Q1766.36 1641.42 1769.38 1640.82 Q1772.41 1640.18 1775.27 1640.18 Q1783.01 1640.18 1786.83 1644.19 Q1790.65 1648.2 1790.65 1656.35 Z" fill="#000000" fill-rule="nonzero" fill-opacity="1" /><polyline clip-path="url(#clip410)" style="stroke:#000000; stroke-linecap:round; stroke-linejoin:round; stroke-width:4; stroke-opacity:1; fill:none" points="232.027,1519.82 232.027,158.248 "/>
<polyline clip-path="url(#clip410)" style="stroke:#000000; stroke-linecap:round; stroke-linejoin:round; stroke-width:4; stroke-opacity:1; fill:none" points="232.027,1510.12 250.925,1510.12 "/>
<polyline clip-path="url(#clip410)" style="stroke:#000000; stroke-linecap:round; stroke-linejoin:round; stroke-width:4; stroke-opacity:1; fill:none" points="232.027,1267.97 250.925,1267.97 "/>
<polyline clip-path="url(#clip410)" style="stroke:#000000; stroke-linecap:round; stroke-linejoin:round; stroke-width:4; stroke-opacity:1; fill:none" points="232.027,1025.82 250.925,1025.82 "/>
<polyline clip-path="url(#clip410)" style="stroke:#000000; stroke-linecap:round; stroke-linejoin:round; stroke-width:4; stroke-opacity:1; fill:none" points="232.027,783.664 250.925,783.664 "/>
<polyline clip-path="url(#clip410)" style="stroke:#000000; stroke-linecap:round; stroke-linejoin:round; stroke-width:4; stroke-opacity:1; fill:none" points="232.027,541.513 250.925,541.513 "/>
<polyline clip-path="url(#clip410)" style="stroke:#000000; stroke-linecap:round; stroke-linejoin:round; stroke-width:4; stroke-opacity:1; fill:none" points="232.027,299.362 250.925,299.362 "/>
<path clip-path="url(#clip410)" d="M172.083 1495.92 Q168.472 1495.92 166.643 1499.48 Q164.838 1503.02 164.838 1510.15 Q164.838 1517.26 166.643 1520.82 Q168.472 1524.37 172.083 1524.37 Q175.717 1524.37 177.523 1520.82 Q179.352 1517.26 179.352 1510.15 Q179.352 1503.02 177.523 1499.48 Q175.717 1495.92 172.083 1495.92 M172.083 1492.21 Q177.893 1492.21 180.949 1496.82 Q184.027 1501.4 184.027 1510.15 Q184.027 1518.88 180.949 1523.49 Q177.893 1528.07 172.083 1528.07 Q166.273 1528.07 163.194 1523.49 Q160.139 1518.88 160.139 1510.15 Q160.139 1501.4 163.194 1496.82 Q166.273 1492.21 172.083 1492.21 Z" fill="#000000" fill-rule="nonzero" fill-opacity="1" /><path clip-path="url(#clip410)" d="M131.968 1250.69 L150.324 1250.69 L150.324 1254.62 L136.25 1254.62 L136.25 1263.09 Q137.268 1262.75 138.287 1262.58 Q139.305 1262.4 140.324 1262.4 Q146.111 1262.4 149.491 1265.57 Q152.87 1268.74 152.87 1274.16 Q152.87 1279.74 149.398 1282.84 Q145.926 1285.92 139.606 1285.92 Q137.43 1285.92 135.162 1285.55 Q132.917 1285.18 130.509 1284.44 L130.509 1279.74 Q132.593 1280.87 134.815 1281.43 Q137.037 1281.98 139.514 1281.98 Q143.518 1281.98 145.856 1279.88 Q148.194 1277.77 148.194 1274.16 Q148.194 1270.55 145.856 1268.44 Q143.518 1266.33 139.514 1266.33 Q137.639 1266.33 135.764 1266.75 Q133.912 1267.17 131.968 1268.05 L131.968 1250.69 Z" fill="#000000" fill-rule="nonzero" fill-opacity="1" /><path clip-path="url(#clip410)" d="M172.083 1253.77 Q168.472 1253.77 166.643 1257.33 Q164.838 1260.87 164.838 1268 Q164.838 1275.11 166.643 1278.67 Q168.472 1282.21 172.083 1282.21 Q175.717 1282.21 177.523 1278.67 Q179.352 1275.11 179.352 1268 Q179.352 1260.87 177.523 1257.33 Q175.717 1253.77 172.083 1253.77 M172.083 1250.06 Q177.893 1250.06 180.949 1254.67 Q184.027 1259.25 184.027 1268 Q184.027 1276.73 180.949 1281.33 Q177.893 1285.92 172.083 1285.92 Q166.273 1285.92 163.194 1281.33 Q160.139 1276.73 160.139 1268 Q160.139 1259.25 163.194 1254.67 Q166.273 1250.06 172.083 1250.06 Z" fill="#000000" fill-rule="nonzero" fill-opacity="1" /><path clip-path="url(#clip410)" d="M102.57 1039.16 L110.208 1039.16 L110.208 1012.79 L101.898 1014.46 L101.898 1010.2 L110.162 1008.54 L114.838 1008.54 L114.838 1039.16 L122.477 1039.16 L122.477 1043.1 L102.57 1043.1 L102.57 1039.16 Z" fill="#000000" fill-rule="nonzero" fill-opacity="1" /><path clip-path="url(#clip410)" d="M141.921 1011.61 Q138.31 1011.61 136.481 1015.18 Q134.676 1018.72 134.676 1025.85 Q134.676 1032.96 136.481 1036.52 Q138.31 1040.06 141.921 1040.06 Q145.555 1040.06 147.361 1036.52 Q149.19 1032.96 149.19 1025.85 Q149.19 1018.72 147.361 1015.18 Q145.555 1011.61 141.921 1011.61 M141.921 1007.91 Q147.731 1007.91 150.787 1012.52 Q153.866 1017.1 153.866 1025.85 Q153.866 1034.58 150.787 1039.18 Q147.731 1043.77 141.921 1043.77 Q136.111 1043.77 133.032 1039.18 Q129.977 1034.58 129.977 1025.85 Q129.977 1017.1 133.032 1012.52 Q136.111 1007.91 141.921 1007.91 Z" fill="#000000" fill-rule="nonzero" fill-opacity="1" /><path clip-path="url(#clip410)" d="M172.083 1011.61 Q168.472 1011.61 166.643 1015.18 Q164.838 1018.72 164.838 1025.85 Q164.838 1032.96 166.643 1036.52 Q168.472 1040.06 172.083 1040.06 Q175.717 1040.06 177.523 1036.52 Q179.352 1032.96 179.352 1025.85 Q179.352 1018.72 177.523 1015.18 Q175.717 1011.61 172.083 1011.61 M172.083 1007.91 Q177.893 1007.91 180.949 1012.52 Q184.027 1017.1 184.027 1025.85 Q184.027 1034.58 180.949 1039.18 Q177.893 1043.77 172.083 1043.77 Q166.273 1043.77 163.194 1039.18 Q160.139 1034.58 160.139 1025.85 Q160.139 1017.1 163.194 1012.52 Q166.273 1007.91 172.083 1007.91 Z" fill="#000000" fill-rule="nonzero" fill-opacity="1" /><path clip-path="url(#clip410)" d="M102.57 797.009 L110.208 797.009 L110.208 770.644 L101.898 772.31 L101.898 768.051 L110.162 766.384 L114.838 766.384 L114.838 797.009 L122.477 797.009 L122.477 800.944 L102.57 800.944 L102.57 797.009 Z" fill="#000000" fill-rule="nonzero" fill-opacity="1" /><path clip-path="url(#clip410)" d="M131.968 766.384 L150.324 766.384 L150.324 770.32 L136.25 770.32 L136.25 778.792 Q137.268 778.445 138.287 778.283 Q139.305 778.097 140.324 778.097 Q146.111 778.097 149.491 781.269 Q152.87 784.44 152.87 789.857 Q152.87 795.435 149.398 798.537 Q145.926 801.616 139.606 801.616 Q137.43 801.616 135.162 801.245 Q132.917 800.875 130.509 800.134 L130.509 795.435 Q132.593 796.569 134.815 797.125 Q137.037 797.681 139.514 797.681 Q143.518 797.681 145.856 795.574 Q148.194 793.468 148.194 789.857 Q148.194 786.245 145.856 784.139 Q143.518 782.033 139.514 782.033 Q137.639 782.033 135.764 782.449 Q133.912 782.866 131.968 783.745 L131.968 766.384 Z" fill="#000000" fill-rule="nonzero" fill-opacity="1" /><path clip-path="url(#clip410)" d="M172.083 769.463 Q168.472 769.463 166.643 773.028 Q164.838 776.57 164.838 783.699 Q164.838 790.806 166.643 794.37 Q168.472 797.912 172.083 797.912 Q175.717 797.912 177.523 794.37 Q179.352 790.806 179.352 783.699 Q179.352 776.57 177.523 773.028 Q175.717 769.463 172.083 769.463 M172.083 765.759 Q177.893 765.759 180.949 770.366 Q184.027 774.949 184.027 783.699 Q184.027 792.426 180.949 797.032 Q177.893 801.616 172.083 801.616 Q166.273 801.616 163.194 797.032 Q160.139 792.426 160.139 783.699 Q160.139 774.949 163.194 770.366 Q166.273 765.759 172.083 765.759 Z" fill="#000000" fill-rule="nonzero" fill-opacity="1" /><path clip-path="url(#clip410)" d="M105.787 554.858 L122.106 554.858 L122.106 558.793 L100.162 558.793 L100.162 554.858 Q102.824 552.104 107.407 547.474 Q112.014 542.821 113.194 541.479 Q115.44 538.955 116.319 537.219 Q117.222 535.46 117.222 533.77 Q117.222 531.016 115.278 529.28 Q113.357 527.544 110.255 527.544 Q108.056 527.544 105.602 528.307 Q103.171 529.071 100.394 530.622 L100.394 525.9 Q103.218 524.766 105.671 524.187 Q108.125 523.608 110.162 523.608 Q115.532 523.608 118.727 526.294 Q121.921 528.979 121.921 533.469 Q121.921 535.599 121.111 537.52 Q120.324 539.418 118.218 542.011 Q117.639 542.682 114.537 545.9 Q111.435 549.094 105.787 554.858 Z" fill="#000000" fill-rule="nonzero" fill-opacity="1" /><path clip-path="url(#clip410)" d="M141.921 527.312 Q138.31 527.312 136.481 530.877 Q134.676 534.418 134.676 541.548 Q134.676 548.655 136.481 552.219 Q138.31 555.761 141.921 555.761 Q145.555 555.761 147.361 552.219 Q149.19 548.655 149.19 541.548 Q149.19 534.418 147.361 530.877 Q145.555 527.312 141.921 527.312 M141.921 523.608 Q147.731 523.608 150.787 528.215 Q153.866 532.798 153.866 541.548 Q153.866 550.275 150.787 554.881 Q147.731 559.465 141.921 559.465 Q136.111 559.465 133.032 554.881 Q129.977 550.275 129.977 541.548 Q129.977 532.798 133.032 528.215 Q136.111 523.608 141.921 523.608 Z" fill="#000000" fill-rule="nonzero" fill-opacity="1" /><path clip-path="url(#clip410)" d="M172.083 527.312 Q168.472 527.312 166.643 530.877 Q164.838 534.418 164.838 541.548 Q164.838 548.655 166.643 552.219 Q168.472 555.761 172.083 555.761 Q175.717 555.761 177.523 552.219 Q179.352 548.655 179.352 541.548 Q179.352 534.418 177.523 530.877 Q175.717 527.312 172.083 527.312 M172.083 523.608 Q177.893 523.608 180.949 528.215 Q184.027 532.798 184.027 541.548 Q184.027 550.275 180.949 554.881 Q177.893 559.465 172.083 559.465 Q166.273 559.465 163.194 554.881 Q160.139 550.275 160.139 541.548 Q160.139 532.798 163.194 528.215 Q166.273 523.608 172.083 523.608 Z" fill="#000000" fill-rule="nonzero" fill-opacity="1" /><path clip-path="url(#clip410)" d="M105.787 312.707 L122.106 312.707 L122.106 316.642 L100.162 316.642 L100.162 312.707 Q102.824 309.952 107.407 305.323 Q112.014 300.67 113.194 299.328 Q115.44 296.804 116.319 295.068 Q117.222 293.309 117.222 291.619 Q117.222 288.865 115.278 287.129 Q113.357 285.392 110.255 285.392 Q108.056 285.392 105.602 286.156 Q103.171 286.92 100.394 288.471 L100.394 283.749 Q103.218 282.615 105.671 282.036 Q108.125 281.457 110.162 281.457 Q115.532 281.457 118.727 284.142 Q121.921 286.828 121.921 291.318 Q121.921 293.448 121.111 295.369 Q120.324 297.267 118.218 299.86 Q117.639 300.531 114.537 303.749 Q111.435 306.943 105.787 312.707 Z" fill="#000000" fill-rule="nonzero" fill-opacity="1" /><path clip-path="url(#clip410)" d="M131.968 282.082 L150.324 282.082 L150.324 286.017 L136.25 286.017 L136.25 294.49 Q137.268 294.142 138.287 293.98 Q139.305 293.795 140.324 293.795 Q146.111 293.795 149.491 296.966 Q152.87 300.138 152.87 305.554 Q152.87 311.133 149.398 314.235 Q145.926 317.314 139.606 317.314 Q137.43 317.314 135.162 316.943 Q132.917 316.573 130.509 315.832 L130.509 311.133 Q132.593 312.267 134.815 312.823 Q137.037 313.378 139.514 313.378 Q143.518 313.378 145.856 311.272 Q148.194 309.165 148.194 305.554 Q148.194 301.943 145.856 299.837 Q143.518 297.73 139.514 297.73 Q137.639 297.73 135.764 298.147 Q133.912 298.564 131.968 299.443 L131.968 282.082 Z" fill="#000000" fill-rule="nonzero" fill-opacity="1" /><path clip-path="url(#clip410)" d="M172.083 285.161 Q168.472 285.161 166.643 288.726 Q164.838 292.267 164.838 299.397 Q164.838 306.503 166.643 310.068 Q168.472 313.61 172.083 313.61 Q175.717 313.61 177.523 310.068 Q179.352 306.503 179.352 299.397 Q179.352 292.267 177.523 288.726 Q175.717 285.161 172.083 285.161 M172.083 281.457 Q177.893 281.457 180.949 286.064 Q184.027 290.647 184.027 299.397 Q184.027 308.124 180.949 312.73 Q177.893 317.314 172.083 317.314 Q166.273 317.314 163.194 312.73 Q160.139 308.124 160.139 299.397 Q160.139 290.647 163.194 286.064 Q166.273 281.457 172.083 281.457 Z" fill="#000000" fill-rule="nonzero" fill-opacity="1" /><path clip-path="url(#clip410)" d="M-3.27996 1059.53 L32.559 1072.58 L32.559 1046.45 L-3.27996 1059.53 M37.9062 1081.3 L-9.61384 1063.16 L-9.61384 1055.87 L37.9062 1037.76 L37.9062 1081.3 Z" fill="#000000" fill-rule="nonzero" fill-opacity="1" /><path clip-path="url(#clip410)" d="M-3.27996 1014.94 L20.3686 1023.66 L20.3686 1006.18 L-3.27996 1014.94 M-9.61384 1018.56 L-9.61384 1011.28 L37.9062 993.165 L37.9062 999.849 L25.7158 1004.18 L25.7158 1025.6 L37.9062 1029.93 L37.9062 1036.71 L-9.61384 1018.56 Z" fill="#000000" fill-rule="nonzero" fill-opacity="1" /><path clip-path="url(#clip410)" d="M-9.61384 986.226 L-9.61384 979.797 L37.9062 979.797 L37.9062 986.226 L-9.61384 986.226 Z" fill="#000000" fill-rule="nonzero" fill-opacity="1" /><path clip-path="url(#clip410)" d="M-5.95356 931.417 L0.825916 931.417 Q-2.19779 934.664 -3.69374 938.356 Q-5.18968 942.016 -5.18968 946.154 Q-5.18968 954.302 -0.192597 958.631 Q4.77265 962.959 14.1939 962.959 Q23.5833 962.959 28.5804 958.631 Q33.5456 954.302 33.5456 946.154 Q33.5456 942.016 32.0497 938.356 Q30.5538 934.664 27.5301 931.417 L34.2459 931.417 Q36.5375 934.791 37.6834 938.579 Q38.8292 942.334 38.8292 946.536 Q38.8292 957.326 32.2407 963.532 Q25.6203 969.739 14.1939 969.739 Q2.73563 969.739 -3.85288 963.532 Q-10.4732 957.326 -10.4732 946.536 Q-10.4732 942.271 -9.32739 938.515 Q-8.21339 934.727 -5.95356 931.417 Z" fill="#000000" fill-rule="nonzero" fill-opacity="1" /><path clip-path="url(#clip410)" d="M-11.5554 886.953 Q-4.23482 891.218 2.9266 893.287 Q10.088 895.356 17.4404 895.356 Q24.7928 895.356 32.0179 893.287 Q39.2111 891.186 46.4999 886.953 L46.4999 892.045 Q39.0202 896.82 31.7951 899.207 Q24.57 901.562 17.4404 901.562 Q10.3426 901.562 3.1494 899.207 Q-4.04385 896.852 -11.5554 892.045 L-11.5554 886.953 Z" fill="#000000" fill-rule="nonzero" fill-opacity="1" /><path clip-path="url(#clip410)" d="M2.2582 875.59 L2.2582 869.734 L37.9062 869.734 L37.9062 875.59 L2.2582 875.59 M-11.619 875.59 L-11.619 869.734 L-4.20299 869.734 L-4.20299 875.59 L-11.619 875.59 Z" fill="#000000" fill-rule="nonzero" fill-opacity="1" /><path clip-path="url(#clip410)" d="M16.3901 827.847 L37.9062 827.847 L37.9062 833.704 L16.581 833.704 Q11.5203 833.704 9.00585 835.677 Q6.4914 837.65 6.4914 841.597 Q6.4914 846.34 9.51511 849.077 Q12.5388 851.814 17.7587 851.814 L37.9062 851.814 L37.9062 857.702 L2.2582 857.702 L2.2582 851.814 L7.79637 851.814 Q4.58168 849.713 2.99026 846.881 Q1.39883 844.016 1.39883 840.292 Q1.39883 834.149 5.21825 830.998 Q9.00585 827.847 16.3901 827.847 Z" fill="#000000" fill-rule="nonzero" fill-opacity="1" /><path clip-path="url(#clip410)" d="M-7.86327 810.373 L2.2582 810.373 L2.2582 798.31 L6.80968 798.31 L6.80968 810.373 L26.1614 810.373 Q30.5219 810.373 31.7633 809.196 Q33.0046 807.986 33.0046 804.326 L33.0046 798.31 L37.9062 798.31 L37.9062 804.326 Q37.9062 811.105 35.3917 813.684 Q32.8454 816.262 26.1614 816.262 L6.80968 816.262 L6.80968 820.559 L2.2582 820.559 L2.2582 816.262 L-7.86327 816.262 L-7.86327 810.373 Z" fill="#000000" fill-rule="nonzero" fill-opacity="1" /><path clip-path="url(#clip410)" d="M16.04 745.316 L18.9045 745.316 L31.4131 757.824 L27.5937 761.644 L20.1777 754.228 L20.1777 793.027 L14.7668 793.027 L14.7668 754.228 L7.35077 761.644 L3.53134 757.824 L16.04 745.316 Z" fill="#000000" fill-rule="nonzero" fill-opacity="1" /><path clip-path="url(#clip410)" d="M-11.619 717.943 L-6.74927 717.943 L-6.74927 723.545 Q-6.74927 726.696 -5.47613 727.937 Q-4.20299 729.147 -0.892824 729.147 L2.2582 729.147 L2.2582 719.503 L6.80968 719.503 L6.80968 729.147 L37.9062 729.147 L37.9062 735.035 L6.80968 735.035 L6.80968 740.637 L2.2582 740.637 L2.2582 735.035 L-0.224425 735.035 Q-6.17636 735.035 -8.88179 732.266 Q-11.619 729.497 -11.619 723.481 L-11.619 717.943 Z" fill="#000000" fill-rule="nonzero" fill-opacity="1" /><path clip-path="url(#clip410)" d="M7.73271 692.385 Q7.15979 693.372 6.90517 694.549 Q6.61871 695.695 6.61871 697.096 Q6.61871 702.061 9.86522 704.734 Q13.0799 707.376 19.1273 707.376 L37.9062 707.376 L37.9062 713.265 L2.2582 713.265 L2.2582 707.376 L7.79637 707.376 Q4.54985 705.53 2.99026 702.57 Q1.39883 699.61 1.39883 695.377 Q1.39883 694.772 1.49432 694.04 Q1.55797 693.308 1.71712 692.417 L7.73271 692.385 Z" fill="#000000" fill-rule="nonzero" fill-opacity="1" /><path clip-path="url(#clip410)" d="M19.9867 670.041 Q19.9867 677.139 21.6099 679.876 Q23.2332 682.614 27.1481 682.614 Q30.2673 682.614 32.1134 680.577 Q33.9276 678.508 33.9276 674.975 Q33.9276 670.105 30.4901 667.177 Q27.0208 664.217 21.2917 664.217 L19.9867 664.217 L19.9867 670.041 M17.5677 658.36 L37.9062 658.36 L37.9062 664.217 L32.4953 664.217 Q35.7418 666.222 37.3014 669.214 Q38.8292 672.206 38.8292 676.534 Q38.8292 682.009 35.7736 685.255 Q32.6863 688.47 27.5301 688.47 Q21.5145 688.47 18.4589 684.46 Q15.4034 680.417 15.4034 672.429 L15.4034 664.217 L14.8305 664.217 Q10.7882 664.217 8.59208 666.89 Q6.36408 669.532 6.36408 674.338 Q6.36408 677.394 7.09614 680.29 Q7.82819 683.187 9.29231 685.86 L3.88146 685.86 Q2.64014 682.645 2.0354 679.622 Q1.39883 676.598 1.39883 673.733 Q1.39883 665.999 5.40923 662.18 Q9.41962 658.36 17.5677 658.36 Z" fill="#000000" fill-rule="nonzero" fill-opacity="1" /><path clip-path="url(#clip410)" d="M3.62683 620.644 L9.10133 620.644 Q7.73271 623.126 7.06431 625.641 Q6.36408 628.123 6.36408 630.669 Q6.36408 636.367 9.99253 639.518 Q13.5892 642.669 20.114 642.669 Q26.6389 642.669 30.2673 639.518 Q33.8639 636.367 33.8639 630.669 Q33.8639 628.123 33.1955 625.641 Q32.4953 623.126 31.1267 620.644 L36.5375 620.644 Q37.6834 623.094 38.2563 625.736 Q38.8292 628.346 38.8292 631.306 Q38.8292 639.359 33.7684 644.101 Q28.7077 648.844 20.114 648.844 Q11.393 648.844 6.39591 644.069 Q1.39883 639.263 1.39883 630.924 Q1.39883 628.219 1.97174 625.641 Q2.51283 623.062 3.62683 620.644 Z" fill="#000000" fill-rule="nonzero" fill-opacity="1" /><path clip-path="url(#clip410)" d="M-11.5554 611.381 L-11.5554 606.289 Q-4.04385 601.515 3.1494 599.159 Q10.3426 596.772 17.4404 596.772 Q24.57 596.772 31.7951 599.159 Q39.0202 601.515 46.4999 606.289 L46.4999 611.381 Q39.2111 607.148 32.0179 605.079 Q24.7928 602.979 17.4404 602.979 Q10.088 602.979 2.9266 605.079 Q-4.23482 607.148 -11.5554 611.381 Z" fill="#000000" fill-rule="nonzero" fill-opacity="1" /><path clip-path="url(#clip410)" d="M1041.33 41.3253 L1024.72 86.9385 L1057.98 86.9385 L1041.33 41.3253 M1013.62 93.744 L1036.71 33.264 L1045.99 33.264 L1069.04 93.744 L1013.62 93.744 Z" fill="#000000" fill-rule="nonzero" fill-opacity="1" /><path clip-path="url(#clip410)" d="M1098.08 41.3253 L1086.98 71.4235 L1109.22 71.4235 L1098.08 41.3253 M1093.47 33.264 L1102.74 33.264 L1125.79 93.744 L1117.28 93.744 L1111.78 78.229 L1084.51 78.229 L1079 93.744 L1070.38 93.744 L1093.47 33.264 Z" fill="#000000" fill-rule="nonzero" fill-opacity="1" /><path clip-path="url(#clip410)" d="M1134.62 33.264 L1142.81 33.264 L1142.81 93.744 L1134.62 93.744 L1134.62 33.264 Z" fill="#000000" fill-rule="nonzero" fill-opacity="1" /><path clip-path="url(#clip410)" d="M1204.38 37.9225 L1204.38 46.551 Q1200.25 42.7026 1195.55 40.7987 Q1190.89 38.8948 1185.62 38.8948 Q1175.25 38.8948 1169.74 45.2547 Q1164.23 51.5741 1164.23 63.5648 Q1164.23 75.5149 1169.74 81.8749 Q1175.25 88.1943 1185.62 88.1943 Q1190.89 88.1943 1195.55 86.2903 Q1200.25 84.3864 1204.38 80.5381 L1204.38 89.0855 Q1200.09 92.0021 1195.26 93.4604 Q1190.48 94.9188 1185.14 94.9188 Q1171.4 94.9188 1163.51 86.5334 Q1155.61 78.1075 1155.61 63.5648 Q1155.61 48.9815 1163.51 40.5961 Q1171.4 32.1703 1185.14 32.1703 Q1190.57 32.1703 1195.35 33.6286 Q1200.17 35.0464 1204.38 37.9225 Z" fill="#000000" fill-rule="nonzero" fill-opacity="1" /><path clip-path="url(#clip410)" d="M1218.6 83.4547 L1227.15 83.4547 L1227.15 93.744 L1218.6 93.744 L1218.6 83.4547 M1218.6 50.8449 L1227.15 50.8449 L1227.15 61.1342 L1218.6 61.1342 L1218.6 50.8449 Z" fill="#000000" fill-rule="nonzero" fill-opacity="1" /><path clip-path="url(#clip410)" d="M1271.02 48.3739 L1278.47 48.3739 L1278.47 93.744 L1271.02 93.744 L1271.02 48.3739 M1271.02 30.7119 L1278.47 30.7119 L1278.47 40.1505 L1271.02 40.1505 L1271.02 30.7119 Z" fill="#000000" fill-rule="nonzero" fill-opacity="1" /><path clip-path="url(#clip410)" d="M1331.78 66.3599 L1331.78 93.744 L1324.33 93.744 L1324.33 66.6029 Q1324.33 60.162 1321.81 56.9618 Q1319.3 53.7616 1314.28 53.7616 Q1308.24 53.7616 1304.76 57.6099 Q1301.28 61.4583 1301.28 68.1018 L1301.28 93.744 L1293.78 93.744 L1293.78 48.3739 L1301.28 48.3739 L1301.28 55.4224 Q1303.95 51.331 1307.56 49.3056 Q1311.2 47.2801 1315.94 47.2801 Q1323.76 47.2801 1327.77 52.1412 Q1331.78 56.9618 1331.78 66.3599 Z" fill="#000000" fill-rule="nonzero" fill-opacity="1" /><path clip-path="url(#clip410)" d="M1354.02 35.492 L1354.02 48.3739 L1369.37 48.3739 L1369.37 54.1667 L1354.02 54.1667 L1354.02 78.7962 Q1354.02 84.3459 1355.52 85.9258 Q1357.06 87.5056 1361.72 87.5056 L1369.37 87.5056 L1369.37 93.744 L1361.72 93.744 Q1353.09 93.744 1349.81 90.5438 Q1346.53 87.3031 1346.53 78.7962 L1346.53 54.1667 L1341.06 54.1667 L1341.06 48.3739 L1346.53 48.3739 L1346.53 35.492 L1354.02 35.492 Z" fill="#000000" fill-rule="nonzero" fill-opacity="1" /><path clip-path="url(#clip410)" d="M1417.98 69.1955 L1417.98 72.8413 L1383.71 72.8413 Q1384.2 80.5381 1388.33 84.589 Q1392.5 88.5994 1399.92 88.5994 Q1404.21 88.5994 1408.22 87.5461 Q1412.27 86.4929 1416.24 84.3864 L1416.24 91.435 Q1412.23 93.1364 1408.02 94.0276 Q1403.81 94.9188 1399.47 94.9188 Q1388.61 94.9188 1382.25 88.5994 Q1375.94 82.2799 1375.94 71.5045 Q1375.94 60.3645 1381.93 53.8426 Q1387.97 47.2801 1398.17 47.2801 Q1407.33 47.2801 1412.64 53.1944 Q1417.98 59.0683 1417.98 69.1955 M1410.53 67.008 Q1410.45 60.8912 1407.09 57.2454 Q1403.76 53.5995 1398.26 53.5995 Q1392.02 53.5995 1388.25 57.1238 Q1384.52 60.6481 1383.96 67.0485 L1410.53 67.008 Z" fill="#000000" fill-rule="nonzero" fill-opacity="1" /><path clip-path="url(#clip410)" d="M1460.07 70.5323 Q1460.07 62.4305 1456.71 57.9745 Q1453.39 53.5185 1447.35 53.5185 Q1441.36 53.5185 1437.99 57.9745 Q1434.67 62.4305 1434.67 70.5323 Q1434.67 78.5936 1437.99 83.0496 Q1441.36 87.5056 1447.35 87.5056 Q1453.39 87.5056 1456.71 83.0496 Q1460.07 78.5936 1460.07 70.5323 M1467.53 88.1132 Q1467.53 99.6988 1462.38 105.33 Q1457.24 111.001 1446.62 111.001 Q1442.69 111.001 1439.21 110.393 Q1435.73 109.826 1432.45 108.611 L1432.45 101.36 Q1435.73 103.142 1438.93 103.993 Q1442.13 104.843 1445.45 104.843 Q1452.78 104.843 1456.43 100.995 Q1460.07 97.1873 1460.07 89.45 L1460.07 85.7637 Q1457.76 89.7741 1454.16 91.7591 Q1450.55 93.744 1445.53 93.744 Q1437.18 93.744 1432.08 87.3841 Q1426.98 81.0242 1426.98 70.5323 Q1426.98 60 1432.08 53.64 Q1437.18 47.2801 1445.53 47.2801 Q1450.55 47.2801 1454.16 49.2651 Q1457.76 51.25 1460.07 55.2604 L1460.07 48.3739 L1467.53 48.3739 L1467.53 88.1132 Z" fill="#000000" fill-rule="nonzero" fill-opacity="1" /><path clip-path="url(#clip410)" d="M1521.69 69.1955 L1521.69 72.8413 L1487.42 72.8413 Q1487.9 80.5381 1492.03 84.589 Q1496.21 88.5994 1503.62 88.5994 Q1507.91 88.5994 1511.92 87.5461 Q1515.97 86.4929 1519.94 84.3864 L1519.94 91.435 Q1515.93 93.1364 1511.72 94.0276 Q1507.51 94.9188 1503.17 94.9188 Q1492.32 94.9188 1485.96 88.5994 Q1479.64 82.2799 1479.64 71.5045 Q1479.64 60.3645 1485.63 53.8426 Q1491.67 47.2801 1501.88 47.2801 Q1511.03 47.2801 1516.34 53.1944 Q1521.69 59.0683 1521.69 69.1955 M1514.23 67.008 Q1514.15 60.8912 1510.79 57.2454 Q1507.47 53.5995 1501.96 53.5995 Q1495.72 53.5995 1491.95 57.1238 Q1488.23 60.6481 1487.66 67.0485 L1514.23 67.008 Z" fill="#000000" fill-rule="nonzero" fill-opacity="1" /><path clip-path="url(#clip410)" d="M1560.21 55.3414 Q1558.95 54.6123 1557.46 54.2882 Q1556 53.9236 1554.22 53.9236 Q1547.9 53.9236 1544.49 58.0555 Q1541.13 62.1469 1541.13 69.8437 L1541.13 93.744 L1533.64 93.744 L1533.64 48.3739 L1541.13 48.3739 L1541.13 55.4224 Q1543.48 51.2905 1547.25 49.3056 Q1551.02 47.2801 1556.4 47.2801 Q1557.17 47.2801 1558.1 47.4017 Q1559.04 47.4827 1560.17 47.6852 L1560.21 55.3414 Z" fill="#000000" fill-rule="nonzero" fill-opacity="1" /><path clip-path="url(#clip410)" d="M1635.96 85.1156 L1635.96 68.8714 L1622.59 68.8714 L1622.59 62.1469 L1644.06 62.1469 L1644.06 88.1132 Q1639.32 91.4755 1633.61 93.2174 Q1627.9 94.9188 1621.42 94.9188 Q1607.24 94.9188 1599.22 86.6549 Q1591.24 78.3506 1591.24 63.5648 Q1591.24 48.7385 1599.22 40.4746 Q1607.24 32.1703 1621.42 32.1703 Q1627.33 32.1703 1632.64 33.6286 Q1637.99 35.0869 1642.48 37.9225 L1642.48 46.632 Q1637.95 42.7836 1632.84 40.8392 Q1627.74 38.8948 1622.11 38.8948 Q1611.01 38.8948 1605.42 45.0926 Q1599.87 51.2905 1599.87 63.5648 Q1599.87 75.7985 1605.42 81.9964 Q1611.01 88.1943 1622.11 88.1943 Q1626.44 88.1943 1629.85 87.4651 Q1633.25 86.6954 1635.96 85.1156 Z" fill="#000000" fill-rule="nonzero" fill-opacity="1" /><path clip-path="url(#clip410)" d="M1659.01 33.264 L1667.2 33.264 L1667.2 86.8575 L1696.65 86.8575 L1696.65 93.744 L1659.01 93.744 L1659.01 33.264 Z" fill="#000000" fill-rule="nonzero" fill-opacity="1" /><path clip-path="url(#clip410)" d="M1725.93 48.3739 L1733.83 48.3739 L1748.01 86.4524 L1762.19 48.3739 L1770.09 48.3739 L1753.07 93.744 L1742.95 93.744 L1725.93 48.3739 Z" fill="#000000" fill-rule="nonzero" fill-opacity="1" /><path clip-path="url(#clip410)" d="M1809.3 49.7107 L1809.3 56.7592 Q1806.14 55.1389 1802.74 54.3287 Q1799.34 53.5185 1795.69 53.5185 Q1790.14 53.5185 1787.34 55.2199 Q1784.59 56.9213 1784.59 60.324 Q1784.59 62.9166 1786.58 64.4155 Q1788.56 65.8738 1794.56 67.2106 L1797.11 67.7777 Q1805.05 69.4791 1808.37 72.5983 Q1811.73 75.677 1811.73 81.2267 Q1811.73 87.5461 1806.71 91.2324 Q1801.73 94.9188 1792.98 94.9188 Q1789.33 94.9188 1785.36 94.1896 Q1781.43 93.5009 1777.06 92.0831 L1777.06 84.3864 Q1781.19 86.5334 1785.2 87.6271 Q1789.21 88.6804 1793.14 88.6804 Q1798.4 88.6804 1801.24 86.898 Q1804.08 85.0751 1804.08 81.7938 Q1804.08 78.7557 1802.01 77.1353 Q1799.98 75.5149 1793.06 74.0161 L1790.46 73.4085 Q1783.54 71.9501 1780.46 68.9525 Q1777.38 65.9143 1777.38 60.6481 Q1777.38 54.2477 1781.92 50.7639 Q1786.45 47.2801 1794.8 47.2801 Q1798.93 47.2801 1802.58 47.8878 Q1806.22 48.4954 1809.3 49.7107 Z" fill="#000000" fill-rule="nonzero" fill-opacity="1" /><path clip-path="url(#clip410)" d="M1872.94 30.7119 L1872.94 36.9098 L1865.81 36.9098 Q1861.8 36.9098 1860.22 38.5302 Q1858.68 40.1505 1858.68 44.3635 L1858.68 48.3739 L1870.96 48.3739 L1870.96 54.1667 L1858.68 54.1667 L1858.68 93.744 L1851.19 93.744 L1851.19 54.1667 L1844.06 54.1667 L1844.06 48.3739 L1851.19 48.3739 L1851.19 45.2142 Q1851.19 37.639 1854.71 34.1957 Q1858.24 30.7119 1865.89 30.7119 L1872.94 30.7119 Z" fill="#000000" fill-rule="nonzero" fill-opacity="1" /><path clip-path="url(#clip410)" d="M1905.47 55.3414 Q1904.21 54.6123 1902.71 54.2882 Q1901.26 53.9236 1899.47 53.9236 Q1893.15 53.9236 1889.75 58.0555 Q1886.39 62.1469 1886.39 69.8437 L1886.39 93.744 L1878.9 93.744 L1878.9 48.3739 L1886.39 48.3739 L1886.39 55.4224 Q1888.74 51.2905 1892.51 49.3056 Q1896.27 47.2801 1901.66 47.2801 Q1902.43 47.2801 1903.36 47.4017 Q1904.29 47.4827 1905.43 47.6852 L1905.47 55.3414 Z" fill="#000000" fill-rule="nonzero" fill-opacity="1" /><path clip-path="url(#clip410)" d="M1933.91 70.9374 Q1924.87 70.9374 1921.39 73.0034 Q1917.91 75.0693 1917.91 80.0519 Q1917.91 84.0218 1920.5 86.3714 Q1923.13 88.6804 1927.63 88.6804 Q1933.83 88.6804 1937.55 84.3054 Q1941.32 79.8899 1941.32 72.5983 L1941.32 70.9374 L1933.91 70.9374 M1948.77 67.8587 L1948.77 93.744 L1941.32 93.744 L1941.32 86.8575 Q1938.77 90.9894 1934.96 92.9743 Q1931.15 94.9188 1925.64 94.9188 Q1918.68 94.9188 1914.54 91.0299 Q1910.45 87.1005 1910.45 80.5381 Q1910.45 72.8818 1915.56 68.993 Q1920.7 65.1041 1930.87 65.1041 L1941.32 65.1041 L1941.32 64.3749 Q1941.32 59.2303 1937.92 56.4352 Q1934.55 53.5995 1928.44 53.5995 Q1924.55 53.5995 1920.86 54.5312 Q1917.18 55.463 1913.77 57.3264 L1913.77 50.4398 Q1917.87 48.86 1921.71 48.0903 Q1925.56 47.2801 1929.21 47.2801 Q1939.05 47.2801 1943.91 52.3843 Q1948.77 57.4884 1948.77 67.8587 Z" fill="#000000" fill-rule="nonzero" fill-opacity="1" /><path clip-path="url(#clip410)" d="M1996.78 50.1158 L1996.78 57.0833 Q1993.62 55.3414 1990.42 54.4907 Q1987.26 53.5995 1984.02 53.5995 Q1976.77 53.5995 1972.75 58.2176 Q1968.74 62.7951 1968.74 71.0994 Q1968.74 79.4038 1972.75 84.0218 Q1976.77 88.5994 1984.02 88.5994 Q1987.26 88.5994 1990.42 87.7487 Q1993.62 86.8575 1996.78 85.1156 L1996.78 92.0021 Q1993.66 93.4604 1990.3 94.1896 Q1986.97 94.9188 1983.21 94.9188 Q1972.96 94.9188 1966.92 88.4778 Q1960.89 82.0369 1960.89 71.0994 Q1960.89 60 1966.96 53.64 Q1973.08 47.2801 1983.69 47.2801 Q1987.14 47.2801 1990.42 48.0093 Q1993.7 48.6979 1996.78 50.1158 Z" fill="#000000" fill-rule="nonzero" fill-opacity="1" /><path clip-path="url(#clip410)" d="M2017.11 35.492 L2017.11 48.3739 L2032.47 48.3739 L2032.47 54.1667 L2017.11 54.1667 L2017.11 78.7962 Q2017.11 84.3459 2018.61 85.9258 Q2020.15 87.5056 2024.81 87.5056 L2032.47 87.5056 L2032.47 93.744 L2024.81 93.744 Q2016.18 93.744 2012.9 90.5438 Q2009.62 87.3031 2009.62 78.7962 L2009.62 54.1667 L2004.15 54.1667 L2004.15 48.3739 L2009.62 48.3739 L2009.62 35.492 L2017.11 35.492 Z" fill="#000000" fill-rule="nonzero" fill-opacity="1" /><path clip-path="url(#clip410)" d="M2042.27 48.3739 L2049.72 48.3739 L2049.72 93.744 L2042.27 93.744 L2042.27 48.3739 M2042.27 30.7119 L2049.72 30.7119 L2049.72 40.1505 L2042.27 40.1505 L2042.27 30.7119 Z" fill="#000000" fill-rule="nonzero" fill-opacity="1" /><path clip-path="url(#clip410)" d="M2082.9 53.5995 Q2076.9 53.5995 2073.42 58.2986 Q2069.94 62.9571 2069.94 71.0994 Q2069.94 79.2418 2073.38 83.9408 Q2076.86 88.5994 2082.9 88.5994 Q2088.85 88.5994 2092.34 83.9003 Q2095.82 79.2013 2095.82 71.0994 Q2095.82 63.0381 2092.34 58.3391 Q2088.85 53.5995 2082.9 53.5995 M2082.9 47.2801 Q2092.62 47.2801 2098.17 53.5995 Q2103.72 59.9189 2103.72 71.0994 Q2103.72 82.2394 2098.17 88.5994 Q2092.62 94.9188 2082.9 94.9188 Q2073.14 94.9188 2067.59 88.5994 Q2062.08 82.2394 2062.08 71.0994 Q2062.08 59.9189 2067.59 53.5995 Q2073.14 47.2801 2082.9 47.2801 Z" fill="#000000" fill-rule="nonzero" fill-opacity="1" /><path clip-path="url(#clip410)" d="M2153.79 66.3599 L2153.79 93.744 L2146.34 93.744 L2146.34 66.6029 Q2146.34 60.162 2143.82 56.9618 Q2141.31 53.7616 2136.29 53.7616 Q2130.25 53.7616 2126.77 57.6099 Q2123.29 61.4583 2123.29 68.1018 L2123.29 93.744 L2115.79 93.744 L2115.79 48.3739 L2123.29 48.3739 L2123.29 55.4224 Q2125.96 51.331 2129.57 49.3056 Q2133.21 47.2801 2137.95 47.2801 Q2145.77 47.2801 2149.78 52.1412 Q2153.79 56.9618 2153.79 66.3599 Z" fill="#000000" fill-rule="nonzero" fill-opacity="1" /><path clip-path="url(#clip410)" d="M2189.28 70.9374 Q2180.24 70.9374 2176.76 73.0034 Q2173.27 75.0693 2173.27 80.0519 Q2173.27 84.0218 2175.87 86.3714 Q2178.5 88.6804 2183 88.6804 Q2189.19 88.6804 2192.92 84.3054 Q2196.69 79.8899 2196.69 72.5983 L2196.69 70.9374 L2189.28 70.9374 M2204.14 67.8587 L2204.14 93.744 L2196.69 93.744 L2196.69 86.8575 Q2194.14 90.9894 2190.33 92.9743 Q2186.52 94.9188 2181.01 94.9188 Q2174.04 94.9188 2169.91 91.0299 Q2165.82 87.1005 2165.82 80.5381 Q2165.82 72.8818 2170.92 68.993 Q2176.07 65.1041 2186.24 65.1041 L2196.69 65.1041 L2196.69 64.3749 Q2196.69 59.2303 2193.29 56.4352 Q2189.92 53.5995 2183.81 53.5995 Q2179.92 53.5995 2176.23 54.5312 Q2172.55 55.463 2169.14 57.3264 L2169.14 50.4398 Q2173.23 48.86 2177.08 48.0903 Q2180.93 47.2801 2184.58 47.2801 Q2194.42 47.2801 2199.28 52.3843 Q2204.14 57.4884 2204.14 67.8587 Z" fill="#000000" fill-rule="nonzero" fill-opacity="1" /><path clip-path="url(#clip410)" d="M2219.5 30.7119 L2226.95 30.7119 L2226.95 93.744 L2219.5 93.744 L2219.5 30.7119 Z" fill="#000000" fill-rule="nonzero" fill-opacity="1" /><path clip-path="url(#clip410)" d="M2310.48 85.1156 L2310.48 68.8714 L2297.11 68.8714 L2297.11 62.1469 L2318.58 62.1469 L2318.58 88.1132 Q2313.84 91.4755 2308.13 93.2174 Q2302.42 94.9188 2295.94 94.9188 Q2281.76 94.9188 2273.74 86.6549 Q2265.76 78.3506 2265.76 63.5648 Q2265.76 48.7385 2273.74 40.4746 Q2281.76 32.1703 2295.94 32.1703 Q2301.85 32.1703 2307.16 33.6286 Q2312.5 35.0869 2317 37.9225 L2317 46.632 Q2312.46 42.7836 2307.36 40.8392 Q2302.26 38.8948 2296.62 38.8948 Q2285.53 38.8948 2279.93 45.0926 Q2274.39 51.2905 2274.39 63.5648 Q2274.39 75.7985 2279.93 81.9964 Q2285.53 88.1943 2296.62 88.1943 Q2300.96 88.1943 2304.36 87.4651 Q2307.76 86.6954 2310.48 85.1156 Z" fill="#000000" fill-rule="nonzero" fill-opacity="1" /><path clip-path="url(#clip410)" d="M2333.53 33.264 L2341.71 33.264 L2341.71 86.8575 L2371.16 86.8575 L2371.16 93.744 L2333.53 93.744 L2333.53 33.264 Z" fill="#000000" fill-rule="nonzero" fill-opacity="1" /><path clip-path="url(#clip410)" d="M551.718 121.513 Q546.29 130.83 543.657 139.945 Q541.023 149.059 541.023 158.417 Q541.023 167.774 543.657 176.97 Q546.33 186.125 551.718 195.401 L545.236 195.401 Q539.16 185.882 536.122 176.686 Q533.124 167.491 533.124 158.417 Q533.124 149.383 536.122 140.228 Q539.12 131.073 545.236 121.513 L551.718 121.513 Z" fill="#000000" fill-rule="nonzero" fill-opacity="1" /><path clip-path="url(#clip410)" d="M565.896 139.094 L573.309 139.094 L573.309 160.402 L594.333 139.094 L603.488 139.094 L586.15 156.634 L605.716 184.464 L597.372 184.464 L581.289 161.576 L573.309 169.678 L573.309 184.464 L565.896 184.464 L565.896 139.094 Z" fill="#000000" fill-rule="nonzero" fill-opacity="1" /><path clip-path="url(#clip410)" d="M623.5 177.658 L623.5 201.721 L616.006 201.721 L616.006 139.094 L623.5 139.094 L623.5 145.98 Q625.849 141.93 629.414 139.985 Q633.019 138 638.002 138 Q646.266 138 651.411 144.563 Q656.596 151.125 656.596 161.819 Q656.596 172.514 651.411 179.076 Q646.266 185.639 638.002 185.639 Q633.019 185.639 629.414 183.694 Q625.849 181.709 623.5 177.658 M648.858 161.819 Q648.858 153.596 645.456 148.938 Q642.093 144.239 636.179 144.239 Q630.265 144.239 626.862 148.938 Q623.5 153.596 623.5 161.819 Q623.5 170.043 626.862 174.742 Q630.265 179.4 636.179 179.4 Q642.093 179.4 645.456 174.742 Q648.858 170.043 648.858 161.819 Z" fill="#000000" fill-rule="nonzero" fill-opacity="1" /><path clip-path="url(#clip410)" d="M689.57 161.657 Q680.537 161.657 677.053 163.723 Q673.569 165.789 673.569 170.772 Q673.569 174.742 676.162 177.091 Q678.795 179.4 683.291 179.4 Q689.489 179.4 693.216 175.025 Q696.983 170.61 696.983 163.318 L696.983 161.657 L689.57 161.657 M704.437 158.579 L704.437 184.464 L696.983 184.464 L696.983 177.577 Q694.431 181.709 690.623 183.694 Q686.815 185.639 681.306 185.639 Q674.339 185.639 670.207 181.75 Q666.115 177.821 666.115 171.258 Q666.115 163.602 671.219 159.713 Q676.364 155.824 686.532 155.824 L696.983 155.824 L696.983 155.095 Q696.983 149.95 693.58 147.155 Q690.218 144.32 684.101 144.32 Q680.212 144.32 676.526 145.251 Q672.84 146.183 669.437 148.046 L669.437 141.16 Q673.529 139.58 677.377 138.81 Q681.225 138 684.871 138 Q694.715 138 699.576 143.104 Q704.437 148.208 704.437 158.579 Z" fill="#000000" fill-rule="nonzero" fill-opacity="1" /><path clip-path="url(#clip410)" d="M752.44 140.836 L752.44 147.803 Q749.28 146.061 746.08 145.211 Q742.92 144.32 739.68 144.32 Q732.429 144.32 728.418 148.938 Q724.408 153.515 724.408 161.819 Q724.408 170.124 728.418 174.742 Q732.429 179.319 739.68 179.319 Q742.92 179.319 746.08 178.469 Q749.28 177.577 752.44 175.836 L752.44 182.722 Q749.321 184.18 745.959 184.91 Q742.637 185.639 738.87 185.639 Q728.621 185.639 722.585 179.198 Q716.549 172.757 716.549 161.819 Q716.549 150.72 722.625 144.36 Q728.742 138 739.356 138 Q742.799 138 746.08 138.729 Q749.361 139.418 752.44 140.836 Z" fill="#000000" fill-rule="nonzero" fill-opacity="1" /><path clip-path="url(#clip410)" d="M765.119 139.094 L772.614 139.094 L772.614 157.607 L796.798 157.607 L796.798 139.094 L804.292 139.094 L804.292 184.464 L796.798 184.464 L796.798 163.561 L772.614 163.561 L772.614 184.464 L765.119 184.464 L765.119 139.094 Z" fill="#000000" fill-rule="nonzero" fill-opacity="1" /><path clip-path="url(#clip410)" d="M862.503 139.094 L869.957 139.094 L869.957 184.464 L862.503 184.464 L862.503 139.094 M866.23 138 L866.23 138 M847.879 171.015 Q847.879 167.369 845.206 165.465 Q842.573 163.561 837.469 163.561 L826.855 163.561 L826.855 178.509 L837.469 178.509 Q842.573 178.509 845.206 176.605 Q847.879 174.661 847.879 171.015 M819.361 139.094 L826.855 139.094 L826.855 157.607 L837.793 157.607 Q846.462 157.607 851.12 160.928 Q855.819 164.209 855.819 171.015 Q855.819 177.821 851.12 181.142 Q846.462 184.464 837.793 184.464 L819.361 184.464 L819.361 139.094 Z" fill="#000000" fill-rule="nonzero" fill-opacity="1" /><path clip-path="url(#clip410)" d="M923.712 139.094 L923.712 184.464 L916.299 184.464 L916.299 148.046 L894.424 184.464 L884.864 184.464 L884.864 139.094 L892.277 139.094 L892.277 175.43 L914.112 139.094 L923.712 139.094 M891.629 121.432 L896.409 121.432 Q896.855 124.47 898.799 126.009 Q900.784 127.508 904.309 127.508 Q907.792 127.508 909.737 126.009 Q911.681 124.511 912.208 121.432 L916.988 121.432 Q916.583 127.225 913.383 130.141 Q910.182 133.058 904.309 133.058 Q898.435 133.058 895.234 130.141 Q892.034 127.225 891.629 121.432 Z" fill="#000000" fill-rule="nonzero" fill-opacity="1" /><path clip-path="url(#clip410)" d="M1023.08 156.634 L1023.08 160.28 L1007.16 176.2 L1002.3 171.339 L1011.74 161.9 L962.358 161.9 L962.358 155.014 L1011.74 155.014 L1002.3 145.575 L1007.16 140.714 L1023.08 156.634 Z" fill="#000000" fill-rule="nonzero" fill-opacity="1" /><path clip-path="url(#clip410)" d="M1068.53 177.658 L1068.53 201.721 L1061.04 201.721 L1061.04 139.094 L1068.53 139.094 L1068.53 145.98 Q1070.88 141.93 1074.45 139.985 Q1078.05 138 1083.03 138 Q1091.3 138 1096.44 144.563 Q1101.63 151.125 1101.63 161.819 Q1101.63 172.514 1096.44 179.076 Q1091.3 185.639 1083.03 185.639 Q1078.05 185.639 1074.45 183.694 Q1070.88 181.709 1068.53 177.658 M1093.89 161.819 Q1093.89 153.596 1090.49 148.938 Q1087.13 144.239 1081.21 144.239 Q1075.3 144.239 1071.89 148.938 Q1068.53 153.596 1068.53 161.819 Q1068.53 170.043 1071.89 174.742 Q1075.3 179.4 1081.21 179.4 Q1087.13 179.4 1090.49 174.742 Q1093.89 170.043 1093.89 161.819 Z" fill="#000000" fill-rule="nonzero" fill-opacity="1" /><path clip-path="url(#clip410)" d="M1166.89 143.631 L1125.08 158.498 L1166.89 173.284 L1166.89 180.656 L1114.96 161.819 L1114.96 155.095 L1166.89 136.258 L1166.89 143.631 Z" fill="#000000" fill-rule="nonzero" fill-opacity="1" /><path clip-path="url(#clip410)" d="M1202.05 129.372 Q1195.73 129.372 1192.53 135.61 Q1189.37 141.808 1189.37 154.285 Q1189.37 166.721 1192.53 172.959 Q1195.73 179.157 1202.05 179.157 Q1208.41 179.157 1211.57 172.959 Q1214.77 166.721 1214.77 154.285 Q1214.77 141.808 1211.57 135.61 Q1208.41 129.372 1202.05 129.372 M1202.05 122.89 Q1212.22 122.89 1217.56 130.952 Q1222.95 138.972 1222.95 154.285 Q1222.95 169.557 1217.56 177.618 Q1212.22 185.639 1202.05 185.639 Q1191.88 185.639 1186.49 177.618 Q1181.15 169.557 1181.15 154.285 Q1181.15 138.972 1186.49 130.952 Q1191.88 122.89 1202.05 122.89 Z" fill="#000000" fill-rule="nonzero" fill-opacity="1" /><path clip-path="url(#clip410)" d="M1237.33 174.175 L1245.88 174.175 L1245.88 184.464 L1237.33 184.464 L1237.33 174.175 Z" fill="#000000" fill-rule="nonzero" fill-opacity="1" /><path clip-path="url(#clip410)" d="M1281.2 129.372 Q1274.89 129.372 1271.69 135.61 Q1268.53 141.808 1268.53 154.285 Q1268.53 166.721 1271.69 172.959 Q1274.89 179.157 1281.2 179.157 Q1287.56 179.157 1290.72 172.959 Q1293.92 166.721 1293.92 154.285 Q1293.92 141.808 1290.72 135.61 Q1287.56 129.372 1281.2 129.372 M1281.2 122.89 Q1291.37 122.89 1296.72 130.952 Q1302.11 138.972 1302.11 154.285 Q1302.11 169.557 1296.72 177.618 Q1291.37 185.639 1281.2 185.639 Q1271.04 185.639 1265.65 177.618 Q1260.3 169.557 1260.3 154.285 Q1260.3 138.972 1265.65 130.952 Q1271.04 122.89 1281.2 122.89 Z" fill="#000000" fill-rule="nonzero" fill-opacity="1" /><path clip-path="url(#clip410)" d="M1316.57 123.984 L1348.69 123.984 L1348.69 130.871 L1324.06 130.871 L1324.06 145.697 Q1325.85 145.089 1327.63 144.806 Q1329.41 144.482 1331.19 144.482 Q1341.32 144.482 1347.23 150.031 Q1353.15 155.581 1353.15 165.06 Q1353.15 174.823 1347.07 180.251 Q1341 185.639 1329.94 185.639 Q1326.13 185.639 1322.16 184.991 Q1318.23 184.342 1314.02 183.046 L1314.02 174.823 Q1317.66 176.808 1321.55 177.78 Q1325.44 178.752 1329.77 178.752 Q1336.78 178.752 1340.87 175.066 Q1344.97 171.38 1344.97 165.06 Q1344.97 158.741 1340.87 155.054 Q1336.78 151.368 1329.77 151.368 Q1326.49 151.368 1323.21 152.097 Q1319.97 152.826 1316.57 154.366 L1316.57 123.984 Z" fill="#000000" fill-rule="nonzero" fill-opacity="1" /><path clip-path="url(#clip410)" d="M1370.12 174.175 L1378.67 174.175 L1378.67 181.142 L1372.03 194.105 L1366.8 194.105 L1370.12 181.142 L1370.12 174.175 Z" fill="#000000" fill-rule="nonzero" fill-opacity="1" /><path clip-path="url(#clip410)" d="M1431.09 178.509 L1452.72 178.509 L1452.72 145.049 L1437.04 145.049 L1437.04 150.72 Q1437.04 167.41 1432.26 176.322 L1431.09 178.509 M1420.27 178.509 Q1423.96 176.889 1425.58 173.446 Q1429.55 164.898 1429.55 147.682 L1429.55 139.094 L1460.21 139.094 L1460.21 178.509 L1466.17 178.509 L1466.17 195.928 L1460.21 195.928 L1460.21 184.464 L1423.43 184.464 L1423.43 195.928 L1417.48 195.928 L1417.48 178.509 L1420.27 178.509 Z" fill="#000000" fill-rule="nonzero" fill-opacity="1" /><path clip-path="url(#clip410)" d="M1485.53 177.658 L1485.53 201.721 L1478.04 201.721 L1478.04 139.094 L1485.53 139.094 L1485.53 145.98 Q1487.88 141.93 1491.45 139.985 Q1495.05 138 1500.03 138 Q1508.3 138 1513.44 144.563 Q1518.63 151.125 1518.63 161.819 Q1518.63 172.514 1513.44 179.076 Q1508.3 185.639 1500.03 185.639 Q1495.05 185.639 1491.45 183.694 Q1487.88 181.709 1485.53 177.658 M1510.89 161.819 Q1510.89 153.596 1507.49 148.938 Q1504.13 144.239 1498.21 144.239 Q1492.3 144.239 1488.89 148.938 Q1485.53 153.596 1485.53 161.819 Q1485.53 170.043 1488.89 174.742 Q1492.3 179.4 1498.21 179.4 Q1504.13 179.4 1507.49 174.742 Q1510.89 170.043 1510.89 161.819 Z" fill="#000000" fill-rule="nonzero" fill-opacity="1" /><path clip-path="url(#clip410)" d="M1548.56 144.32 Q1542.57 144.32 1539.09 149.019 Q1535.6 153.677 1535.6 161.819 Q1535.6 169.962 1539.04 174.661 Q1542.53 179.319 1548.56 179.319 Q1554.52 179.319 1558 174.62 Q1561.49 169.921 1561.49 161.819 Q1561.49 153.758 1558 149.059 Q1554.52 144.32 1548.56 144.32 M1548.56 138 Q1558.29 138 1563.84 144.32 Q1569.39 150.639 1569.39 161.819 Q1569.39 172.959 1563.84 179.319 Q1558.29 185.639 1548.56 185.639 Q1538.8 185.639 1533.25 179.319 Q1527.74 172.959 1527.74 161.819 Q1527.74 150.639 1533.25 144.32 Q1538.8 138 1548.56 138 Z" fill="#000000" fill-rule="nonzero" fill-opacity="1" /><path clip-path="url(#clip410)" d="M1599.73 138 Q1609.45 138 1615 144.32 Q1620.55 150.639 1620.55 161.819 Q1620.55 172.959 1615 179.319 Q1609.45 185.639 1599.73 185.639 Q1589.96 185.639 1584.58 179.481 Q1579.19 173.324 1578.91 161.819 L1578.66 152.543 Q1578.46 147.722 1578.46 146.061 Q1578.46 139.58 1580.81 134.8 Q1584.5 127.306 1590.86 124.065 Q1597.26 120.824 1607.95 120.743 Q1612.89 120.703 1615.08 120.014 L1617.15 125.928 Q1615.16 126.739 1613.34 126.779 L1603.21 127.468 Q1598.11 127.832 1595.03 129.615 Q1586.97 134.354 1586.2 140.552 L1585.91 142.821 Q1591.18 138 1599.73 138 M1599.73 144.32 Q1593.73 144.32 1590.25 149.019 Q1586.76 153.677 1586.76 161.819 Q1586.76 169.962 1590.21 174.661 Q1593.69 179.319 1599.73 179.319 Q1605.68 179.319 1609.17 174.62 Q1612.65 169.921 1612.65 161.819 Q1612.65 153.758 1609.17 149.059 Q1605.68 144.32 1599.73 144.32 Z" fill="#000000" fill-rule="nonzero" fill-opacity="1" /><path clip-path="url(#clip410)" d="M1632.62 139.094 L1640.11 139.094 L1640.11 157.607 L1664.3 157.607 L1664.3 139.094 L1671.79 139.094 L1671.79 184.464 L1664.3 184.464 L1664.3 163.561 L1640.11 163.561 L1640.11 184.464 L1632.62 184.464 L1632.62 139.094 Z" fill="#000000" fill-rule="nonzero" fill-opacity="1" /><path clip-path="url(#clip410)" d="M1707.76 161.657 Q1698.73 161.657 1695.25 163.723 Q1691.76 165.789 1691.76 170.772 Q1691.76 174.742 1694.36 177.091 Q1696.99 179.4 1701.49 179.4 Q1707.68 179.4 1711.41 175.025 Q1715.18 170.61 1715.18 163.318 L1715.18 161.657 L1707.76 161.657 M1722.63 158.579 L1722.63 184.464 L1715.18 184.464 L1715.18 177.577 Q1712.63 181.709 1708.82 183.694 Q1705.01 185.639 1699.5 185.639 Q1692.53 185.639 1688.4 181.75 Q1684.31 177.821 1684.31 171.258 Q1684.31 163.602 1689.41 159.713 Q1694.56 155.824 1704.73 155.824 L1715.18 155.824 L1715.18 155.095 Q1715.18 149.95 1711.78 147.155 Q1708.41 144.32 1702.3 144.32 Q1698.41 144.32 1694.72 145.251 Q1691.03 146.183 1687.63 148.046 L1687.63 141.16 Q1691.72 139.58 1695.57 138.81 Q1699.42 138 1703.07 138 Q1712.91 138 1717.77 143.104 Q1722.63 148.208 1722.63 158.579 Z" fill="#000000" fill-rule="nonzero" fill-opacity="1" /><path clip-path="url(#clip410)" d="M1745.48 152.178 Q1745.48 155.541 1748.07 157.444 Q1750.66 159.348 1755.48 159.348 L1765.53 159.348 L1765.53 145.049 L1755.48 145.049 Q1750.66 145.049 1748.07 146.912 Q1745.48 148.776 1745.48 152.178 M1734.87 184.464 L1748.72 164.574 Q1744.02 163.521 1740.9 160.766 Q1737.78 157.971 1737.78 152.178 Q1737.78 145.616 1742.12 142.375 Q1746.49 139.094 1755.28 139.094 L1773.02 139.094 L1773.02 184.464 L1765.53 184.464 L1765.53 165.303 L1756.25 165.303 L1742.89 184.464 L1734.87 184.464 Z" fill="#000000" fill-rule="nonzero" fill-opacity="1" /><path clip-path="url(#clip410)" d="M1813.98 139.094 L1824.88 139.094 L1837.76 169.476 L1850.68 139.094 L1861.5 139.094 L1861.5 184.464 L1854 184.464 L1854 146.223 L1841.49 175.755 L1834.03 175.755 L1821.47 146.223 L1821.47 184.464 L1813.98 184.464 L1813.98 139.094 Z" fill="#000000" fill-rule="nonzero" fill-opacity="1" /><path clip-path="url(#clip410)" d="M1894.43 144.32 Q1888.44 144.32 1884.95 149.019 Q1881.47 153.677 1881.47 161.819 Q1881.47 169.962 1884.91 174.661 Q1888.39 179.319 1894.43 179.319 Q1900.39 179.319 1903.87 174.62 Q1907.35 169.921 1907.35 161.819 Q1907.35 153.758 1903.87 149.059 Q1900.39 144.32 1894.43 144.32 M1894.43 138 Q1904.15 138 1909.7 144.32 Q1915.25 150.639 1915.25 161.819 Q1915.25 172.959 1909.7 179.319 Q1904.15 185.639 1894.43 185.639 Q1884.67 185.639 1879.12 179.319 Q1873.61 172.959 1873.61 161.819 Q1873.61 150.639 1879.12 144.32 Q1884.67 138 1894.43 138 Z" fill="#000000" fill-rule="nonzero" fill-opacity="1" /><path clip-path="url(#clip410)" d="M1937.73 178.509 L1959.37 178.509 L1959.37 145.049 L1943.69 145.049 L1943.69 150.72 Q1943.69 167.41 1938.91 176.322 L1937.73 178.509 M1926.92 178.509 Q1930.61 176.889 1932.23 173.446 Q1936.2 164.898 1936.2 147.682 L1936.2 139.094 L1966.86 139.094 L1966.86 178.509 L1972.82 178.509 L1972.82 195.928 L1966.86 195.928 L1966.86 184.464 L1930.08 184.464 L1930.08 195.928 L1924.12 195.928 L1924.12 178.509 L1926.92 178.509 Z" fill="#000000" fill-rule="nonzero" fill-opacity="1" /><path clip-path="url(#clip410)" d="M2023.78 159.916 L2023.78 163.561 L1989.51 163.561 Q1989.99 171.258 1994.12 175.309 Q1998.3 179.319 2005.71 179.319 Q2010 179.319 2014.01 178.266 Q2018.06 177.213 2022.03 175.106 L2022.03 182.155 Q2018.02 183.856 2013.81 184.748 Q2009.6 185.639 2005.26 185.639 Q1994.41 185.639 1988.05 179.319 Q1981.73 173 1981.73 162.225 Q1981.73 151.085 1987.72 144.563 Q1993.76 138 2003.97 138 Q2013.12 138 2018.43 143.914 Q2023.78 149.788 2023.78 159.916 M2016.32 157.728 Q2016.24 151.611 2012.88 147.965 Q2009.56 144.32 2004.05 144.32 Q1997.81 144.32 1994.04 147.844 Q1990.32 151.368 1989.75 157.769 L2016.32 157.728 Z" fill="#000000" fill-rule="nonzero" fill-opacity="1" /><path clip-path="url(#clip410)" d="M2031.27 184.464 L2031.27 178.266 Q2038.64 177.132 2040.91 172.028 Q2043.67 164.858 2043.67 146.507 L2043.67 139.094 L2074.33 139.094 L2074.33 184.464 L2066.88 184.464 L2066.88 145.049 L2051.12 145.049 L2051.12 149.545 Q2051.12 167.045 2047.55 174.904 Q2043.75 183.289 2031.27 184.464 Z" fill="#000000" fill-rule="nonzero" fill-opacity="1" /><path clip-path="url(#clip410)" d="M2117.27 171.015 Q2117.27 167.369 2114.6 165.465 Q2111.96 163.561 2106.86 163.561 L2096.25 163.561 L2096.25 178.509 L2106.86 178.509 Q2111.96 178.509 2114.6 176.605 Q2117.27 174.661 2117.27 171.015 M2088.75 139.094 L2096.25 139.094 L2096.25 157.607 L2107.18 157.607 Q2115.85 157.607 2120.51 160.928 Q2125.21 164.209 2125.21 171.015 Q2125.21 177.821 2120.51 181.142 Q2115.85 184.464 2107.18 184.464 L2088.75 184.464 L2088.75 139.094 Z" fill="#000000" fill-rule="nonzero" fill-opacity="1" /><path clip-path="url(#clip410)" d="M2185.08 159.997 Q2190.11 160.969 2192.9 163.926 Q2195.7 166.883 2195.7 171.258 Q2195.7 178.266 2190.47 181.952 Q2185.24 185.639 2175.6 185.639 Q2172.36 185.639 2168.92 185.072 Q2165.52 184.505 2161.87 183.37 L2161.87 176.443 Q2164.75 177.942 2168.19 178.712 Q2171.63 179.441 2175.4 179.441 Q2181.52 179.441 2184.92 177.172 Q2188.36 174.904 2188.36 171.258 Q2188.36 167.693 2185.33 165.546 Q2182.29 163.359 2176.74 163.359 L2170.74 163.359 L2170.74 157.201 L2177.02 157.201 Q2181.72 157.201 2184.43 155.419 Q2187.19 153.596 2187.19 150.76 Q2187.19 148.168 2184.35 146.304 Q2181.56 144.441 2176.74 144.441 Q2173.86 144.441 2170.58 144.968 Q2167.34 145.494 2163.41 146.669 L2163.41 139.904 Q2167.38 138.932 2170.82 138.446 Q2174.27 137.96 2177.35 137.96 Q2185.29 137.96 2189.86 141.16 Q2194.48 144.32 2194.48 150.031 Q2194.48 153.799 2192.05 156.432 Q2189.62 159.024 2185.08 159.997 Z" fill="#000000" fill-rule="nonzero" fill-opacity="1" /><path clip-path="url(#clip410)" d="M2208.13 139.094 L2215.63 139.094 L2215.63 157.607 L2239.81 157.607 L2239.81 139.094 L2247.3 139.094 L2247.3 184.464 L2239.81 184.464 L2239.81 163.561 L2215.63 163.561 L2215.63 184.464 L2208.13 184.464 L2208.13 139.094 Z" fill="#000000" fill-rule="nonzero" fill-opacity="1" /><path clip-path="url(#clip410)" d="M2283.28 161.657 Q2274.24 161.657 2270.76 163.723 Q2267.28 165.789 2267.28 170.772 Q2267.28 174.742 2269.87 177.091 Q2272.5 179.4 2277 179.4 Q2283.2 179.4 2286.92 175.025 Q2290.69 170.61 2290.69 163.318 L2290.69 161.657 L2283.28 161.657 M2298.14 158.579 L2298.14 184.464 L2290.69 184.464 L2290.69 177.577 Q2288.14 181.709 2284.33 183.694 Q2280.52 185.639 2275.01 185.639 Q2268.05 185.639 2263.91 181.75 Q2259.82 177.821 2259.82 171.258 Q2259.82 163.602 2264.93 159.713 Q2270.07 155.824 2280.24 155.824 L2290.69 155.824 L2290.69 155.095 Q2290.69 149.95 2287.29 147.155 Q2283.92 144.32 2277.81 144.32 Q2273.92 144.32 2270.23 145.251 Q2266.55 146.183 2263.14 148.046 L2263.14 141.16 Q2267.24 139.58 2271.08 138.81 Q2274.93 138 2278.58 138 Q2288.42 138 2293.28 143.104 Q2298.14 148.208 2298.14 158.579 Z" fill="#000000" fill-rule="nonzero" fill-opacity="1" /><path clip-path="url(#clip410)" d="M2339.71 184.464 L2339.71 165.384 L2325.81 165.384 Q2319.61 165.384 2315.48 161.536 Q2311.75 158.052 2311.75 150.598 L2311.75 139.094 L2319.21 139.094 L2319.21 149.91 Q2319.21 154.649 2321.31 157.039 Q2323.46 159.429 2327.67 159.429 L2339.71 159.429 L2339.71 139.094 L2347.16 139.094 L2347.16 184.464 L2339.71 184.464 Z" fill="#000000" fill-rule="nonzero" fill-opacity="1" /><path clip-path="url(#clip410)" d="M2401.08 139.094 L2401.08 184.464 L2393.66 184.464 L2393.66 148.046 L2371.79 184.464 L2362.23 184.464 L2362.23 139.094 L2369.64 139.094 L2369.64 175.43 L2391.48 139.094 L2401.08 139.094 Z" fill="#000000" fill-rule="nonzero" fill-opacity="1" /><path clip-path="url(#clip410)" d="M2416.15 139.094 L2427.04 139.094 L2439.93 169.476 L2452.85 139.094 L2463.66 139.094 L2463.66 184.464 L2456.17 184.464 L2456.17 146.223 L2443.65 175.755 L2436.2 175.755 L2423.64 146.223 L2423.64 184.464 L2416.15 184.464 L2416.15 139.094 Z" fill="#000000" fill-rule="nonzero" fill-opacity="1" /><path clip-path="url(#clip410)" d="M2496.6 144.32 Q2490.6 144.32 2487.12 149.019 Q2483.63 153.677 2483.63 161.819 Q2483.63 169.962 2487.08 174.661 Q2490.56 179.319 2496.6 179.319 Q2502.55 179.319 2506.04 174.62 Q2509.52 169.921 2509.52 161.819 Q2509.52 153.758 2506.04 149.059 Q2502.55 144.32 2496.6 144.32 M2496.6 138 Q2506.32 138 2511.87 144.32 Q2517.42 150.639 2517.42 161.819 Q2517.42 172.959 2511.87 179.319 Q2506.32 185.639 2496.6 185.639 Q2486.83 185.639 2481.29 179.319 Q2475.78 172.959 2475.78 161.819 Q2475.78 150.639 2481.29 144.32 Q2486.83 138 2496.6 138 Z" fill="#000000" fill-rule="nonzero" fill-opacity="1" /><path clip-path="url(#clip410)" d="M2551.41 184.464 L2551.41 178.266 Q2558.78 177.132 2561.05 172.028 Q2563.8 164.858 2563.8 146.507 L2563.8 139.094 L2594.47 139.094 L2594.47 184.464 L2587.01 184.464 L2587.01 145.049 L2571.26 145.049 L2571.26 149.545 Q2571.26 167.045 2567.69 174.904 Q2563.88 183.289 2551.41 184.464 Z" fill="#000000" fill-rule="nonzero" fill-opacity="1" /><path clip-path="url(#clip410)" d="M2628.05 188.677 Q2624.89 196.779 2621.89 199.25 Q2618.89 201.721 2613.87 201.721 L2607.92 201.721 L2607.92 195.482 L2612.29 195.482 Q2615.37 195.482 2617.07 194.024 Q2618.77 192.566 2620.84 187.138 L2622.18 183.735 L2603.82 139.094 L2611.72 139.094 L2625.9 174.58 L2640.08 139.094 L2647.98 139.094 L2628.05 188.677 Z" fill="#000000" fill-rule="nonzero" fill-opacity="1" /><path clip-path="url(#clip410)" d="M2684.48 184.464 L2684.48 165.384 L2670.58 165.384 Q2664.39 165.384 2660.25 161.536 Q2656.53 158.052 2656.53 150.598 L2656.53 139.094 L2663.98 139.094 L2663.98 149.91 Q2663.98 154.649 2666.09 157.039 Q2668.23 159.429 2672.45 159.429 L2684.48 159.429 L2684.48 139.094 L2691.93 139.094 L2691.93 184.464 L2684.48 184.464 Z" fill="#000000" fill-rule="nonzero" fill-opacity="1" /><path clip-path="url(#clip410)" d="M2741.15 178.509 L2760.35 178.509 L2760.35 139.094 L2767.85 139.094 L2767.85 184.464 L2707 184.464 L2707 139.094 L2714.5 139.094 L2714.5 178.509 L2733.66 178.509 L2733.66 139.094 L2741.15 139.094 L2741.15 178.509 Z" fill="#000000" fill-rule="nonzero" fill-opacity="1" /><path clip-path="url(#clip410)" d="M2822.01 159.916 L2822.01 163.561 L2787.74 163.561 Q2788.22 171.258 2792.35 175.309 Q2796.53 179.319 2803.94 179.319 Q2808.23 179.319 2812.24 178.266 Q2816.29 177.213 2820.26 175.106 L2820.26 182.155 Q2816.25 183.856 2812.04 184.748 Q2807.83 185.639 2803.49 185.639 Q2792.64 185.639 2786.28 179.319 Q2779.96 173 2779.96 162.225 Q2779.96 151.085 2785.95 144.563 Q2791.99 138 2802.2 138 Q2811.35 138 2816.66 143.914 Q2822.01 149.788 2822.01 159.916 M2814.55 157.728 Q2814.47 151.611 2811.11 147.965 Q2807.79 144.32 2802.28 144.32 Q2796.04 144.32 2792.27 147.844 Q2788.55 151.368 2787.98 157.769 L2814.55 157.728 Z" fill="#000000" fill-rule="nonzero" fill-opacity="1" /><path clip-path="url(#clip410)" d="M2833.07 121.513 L2839.55 121.513 Q2845.62 131.073 2848.62 140.228 Q2851.66 149.383 2851.66 158.417 Q2851.66 167.491 2848.62 176.686 Q2845.62 185.882 2839.55 195.401 L2833.07 195.401 Q2838.45 186.125 2841.09 176.97 Q2843.76 167.774 2843.76 158.417 Q2843.76 149.059 2841.09 139.945 Q2838.45 130.83 2833.07 121.513 Z" fill="#000000" fill-rule="nonzero" fill-opacity="1" /><path clip-path="url(#clip411)" d="M392.673 1519.8 L392.673 1510.12 L604.872 1510.12 L604.872 1519.8 L392.673 1519.8 L392.673 1519.8  Z" fill="#999999" fill-rule="evenodd" fill-opacity="0.85"/>
<polyline clip-path="url(#clip411)" style="stroke:#000000; stroke-linecap:round; stroke-linejoin:round; stroke-width:4; stroke-opacity:0.85; fill:none" points="392.673,1519.8 392.673,1510.12 604.872,1510.12 604.872,1519.8 392.673,1519.8 "/>
<path clip-path="url(#clip411)" d="M657.921 1519.82 L657.921 1510.12 L870.12 1510.12 L870.12 1519.82 L657.921 1519.82 L657.921 1519.82  Z" fill="#999999" fill-rule="evenodd" fill-opacity="0.85"/>
<polyline clip-path="url(#clip411)" style="stroke:#000000; stroke-linecap:round; stroke-linejoin:round; stroke-width:4; stroke-opacity:0.85; fill:none" points="657.921,1519.82 657.921,1510.12 870.12,1510.12 870.12,1519.82 657.921,1519.82 "/>
<path clip-path="url(#clip411)" d="M923.17 1359.97 L923.17 1510.12 L1135.37 1510.12 L1135.37 1359.97 L923.17 1359.97 L923.17 1359.97  Z" fill="#dc143c" fill-rule="evenodd" fill-opacity="0.85"/>
<polyline clip-path="url(#clip411)" style="stroke:#000000; stroke-linecap:round; stroke-linejoin:round; stroke-width:4; stroke-opacity:0.85; fill:none" points="923.17,1359.97 923.17,1510.12 1135.37,1510.12 1135.37,1359.97 923.17,1359.97 "/>
<path clip-path="url(#clip411)" d="M1188.42 1519.8 L1188.42 1510.12 L1400.62 1510.12 L1400.62 1519.8 L1188.42 1519.8 L1188.42 1519.8  Z" fill="#999999" fill-rule="evenodd" fill-opacity="0.85"/>
<polyline clip-path="url(#clip411)" style="stroke:#000000; stroke-linecap:round; stroke-linejoin:round; stroke-width:4; stroke-opacity:0.85; fill:none" points="1188.42,1519.8 1188.42,1510.12 1400.62,1510.12 1400.62,1519.8 1188.42,1519.8 "/>
<path clip-path="url(#clip411)" d="M1453.67 1519.8 L1453.67 1510.12 L1665.87 1510.12 L1665.87 1519.8 L1453.67 1519.8 L1453.67 1519.8  Z" fill="#999999" fill-rule="evenodd" fill-opacity="0.85"/>
<polyline clip-path="url(#clip411)" style="stroke:#000000; stroke-linecap:round; stroke-linejoin:round; stroke-width:4; stroke-opacity:0.85; fill:none" points="1453.67,1519.8 1453.67,1510.12 1665.87,1510.12 1665.87,1519.8 1453.67,1519.8 "/>
<path clip-path="url(#clip411)" d="M1718.92 1519.8 L1718.92 1510.12 L1931.12 1510.12 L1931.12 1519.8 L1718.92 1519.8 L1718.92 1519.8  Z" fill="#999999" fill-rule="evenodd" fill-opacity="0.85"/>
<polyline clip-path="url(#clip411)" style="stroke:#000000; stroke-linecap:round; stroke-linejoin:round; stroke-width:4; stroke-opacity:0.85; fill:none" points="1718.92,1519.8 1718.92,1510.12 1931.12,1510.12 1931.12,1519.8 1718.92,1519.8 "/>
<path clip-path="url(#clip411)" d="M1984.17 1408.65 L1984.17 1510.12 L2196.36 1510.12 L2196.36 1408.65 L1984.17 1408.65 L1984.17 1408.65  Z" fill="#dc143c" fill-rule="evenodd" fill-opacity="0.85"/>
<polyline clip-path="url(#clip411)" style="stroke:#000000; stroke-linecap:round; stroke-linejoin:round; stroke-width:4; stroke-opacity:0.85; fill:none" points="1984.17,1408.65 1984.17,1510.12 2196.36,1510.12 2196.36,1408.65 1984.17,1408.65 "/>
<path clip-path="url(#clip411)" d="M2249.41 1052.98 L2249.41 1510.12 L2461.61 1510.12 L2461.61 1052.98 L2249.41 1052.98 L2249.41 1052.98  Z" fill="#dc143c" fill-rule="evenodd" fill-opacity="0.85"/>
<polyline clip-path="url(#clip411)" style="stroke:#000000; stroke-linecap:round; stroke-linejoin:round; stroke-width:4; stroke-opacity:0.85; fill:none" points="2249.41,1052.98 2249.41,1510.12 2461.61,1510.12 2461.61,1052.98 2249.41,1052.98 "/>
<path clip-path="url(#clip411)" d="M2514.66 158.248 L2514.66 1510.12 L2726.86 1510.12 L2726.86 158.248 L2514.66 158.248 L2514.66 158.248  Z" fill="#dc143c" fill-rule="evenodd" fill-opacity="0.85"/>
<polyline clip-path="url(#clip411)" style="stroke:#000000; stroke-linecap:round; stroke-linejoin:round; stroke-width:4; stroke-opacity:0.85; fill:none" points="2514.66,158.248 2514.66,1510.12 2726.86,1510.12 2726.86,158.248 2514.66,158.248 "/>
<path clip-path="url(#clip411)" d="M2779.91 932.532 L2779.91 1510.12 L2992.11 1510.12 L2992.11 932.532 L2779.91 932.532 L2779.91 932.532  Z" fill="#dc143c" fill-rule="evenodd" fill-opacity="0.85"/>
<polyline clip-path="url(#clip411)" style="stroke:#000000; stroke-linecap:round; stroke-linejoin:round; stroke-width:4; stroke-opacity:0.85; fill:none" points="2779.91,932.532 2779.91,1510.12 2992.11,1510.12 2992.11,932.532 2779.91,932.532 "/>
<circle clip-path="url(#clip411)" style="fill:#999999; stroke:none; fill-opacity:0" cx="498.772" cy="1519.8" r="2"/>
<circle clip-path="url(#clip411)" style="fill:#999999; stroke:none; fill-opacity:0" cx="764.021" cy="1519.82" r="2"/>
<circle clip-path="url(#clip411)" style="fill:#dc143c; stroke:none; fill-opacity:0" cx="1029.27" cy="1359.97" r="2"/>
<circle clip-path="url(#clip411)" style="fill:#999999; stroke:none; fill-opacity:0" cx="1294.52" cy="1519.8" r="2"/>
<circle clip-path="url(#clip411)" style="fill:#999999; stroke:none; fill-opacity:0" cx="1559.77" cy="1519.8" r="2"/>
<circle clip-path="url(#clip411)" style="fill:#999999; stroke:none; fill-opacity:0" cx="1825.02" cy="1519.8" r="2"/>
<circle clip-path="url(#clip411)" style="fill:#dc143c; stroke:none; fill-opacity:0" cx="2090.26" cy="1408.65" r="2"/>
<circle clip-path="url(#clip411)" style="fill:#dc143c; stroke:none; fill-opacity:0" cx="2355.51" cy="1052.98" r="2"/>
<circle clip-path="url(#clip411)" style="fill:#dc143c; stroke:none; fill-opacity:0" cx="2620.76" cy="158.248" r="2"/>
<circle clip-path="url(#clip411)" style="fill:#dc143c; stroke:none; fill-opacity:0" cx="2886.01" cy="932.532" r="2"/>
<polyline clip-path="url(#clip411)" style="stroke:#ffa500; stroke-linecap:round; stroke-linejoin:round; stroke-width:6; stroke-opacity:1; fill:none" stroke-dasharray="24, 15" points="-2688.7,1500.43 6073.48,1500.43 "/>
<polyline clip-path="url(#clip411)" style="stroke:#ffa500; stroke-linecap:round; stroke-linejoin:round; stroke-width:6; stroke-opacity:1; fill:none" stroke-dasharray="24, 15" points="-2688.7,1461.69 6073.48,1461.69 "/>
</svg>
