<?xml version="1.0" encoding="utf-8"?>
<svg xmlns="http://www.w3.org/2000/svg" xmlns:xlink="http://www.w3.org/1999/xlink" width="800" height="420" viewBox="0 0 3200 1680">
<defs>
  <clipPath id="clip340">
    <rect x="0" y="0" width="3200" height="1680"/>
  </clipPath>
</defs>
<path clip-path="url(#clip340)" d="M0 1680 L3200 1680 L3200 0 L0 0  Z" fill="#ffffff" fill-rule="evenodd" fill-opacity="1"/>
<defs>
  <clipPath id="clip341">
    <rect x="247" y="110" width="2906" height="1410"/>
  </clipPath>
</defs>
<path clip-path="url(#clip340)" d="M247.444 1519.82 L3152.76 1519.82 L3152.76 110.62 L247.444 110.62  Z" fill="#ffffff" fill-rule="evenodd" fill-opacity="1"/>
<polyline clip-path="url(#clip341)" style="stroke:#000000; stroke-linecap:round; stroke-linejoin:round; stroke-width:2; stroke-opacity:0.1; fill:none" points="509.112,1519.82 509.112,110.62 "/>
<polyline clip-path="url(#clip341)" style="stroke:#000000; stroke-linecap:round; stroke-linejoin:round; stroke-width:2; stroke-opacity:0.1; fill:none" points="773.776,1519.82 773.776,110.62 "/>
<polyline clip-path="url(#clip341)" style="stroke:#000000; stroke-linecap:round; stroke-linejoin:round; stroke-width:2; stroke-opacity:0.1; fill:none" points="1038.44,1519.82 1038.44,110.62 "/>
<polyline clip-path="url(#clip341)" style="stroke:#000000; stroke-linecap:round; stroke-linejoin:round; stroke-width:2; stroke-opacity:0.1; fill:none" points="1303.1,1519.82 1303.1,110.62 "/>
<polyline clip-path="url(#clip341)" style="stroke:#000000; stroke-linecap:round; stroke-linejoin:round; stroke-width:2; stroke-opacity:0.1; fill:none" points="1567.77,1519.82 1567.77,110.62 "/>
<polyline clip-path="url(#clip341)" style="stroke:#000000; stroke-linecap:round; stroke-linejoin:round; stroke-width:2; stroke-opacity:0.1; fill:none" points="1832.43,1519.82 1832.43,110.62 "/>
<polyline clip-path="url(#clip341)" style="stroke:#000000; stroke-linecap:round; stroke-linejoin:round; stroke-width:2; stroke-opacity:0.1; fill:none" points="2097.1,1519.82 2097.1,110.62 "/>
<polyline clip-path="url(#clip341)" style="stroke:#000000; stroke-linecap:round; stroke-linejoin:round; stroke-width:2; stroke-opacity:0.1; fill:none" points="2361.76,1519.82 2361.76,110.62 "/>
<polyline clip-path="url(#clip341)" style="stroke:#000000; stroke-linecap:round; stroke-linejoin:round; stroke-width:2; stroke-opacity:0.1; fill:none" points="2626.42,1519.82 2626.42,110.62 "/>
<polyline clip-path="url(#clip341)" style="stroke:#000000; stroke-linecap:round; stroke-linejoin:round; stroke-width:2; stroke-opacity:0.1; fill:none" points="2891.09,1519.82 2891.09,110.62 "/>
<polyline clip-path="url(#clip341)" style="stroke:#000000; stroke-linecap:round; stroke-linejoin:round; stroke-width:2; stroke-opacity:0.1; fill:none" points="247.444,1519.82 3152.76,1519.82 "/>
<polyline clip-path="url(#clip341)" style="stroke:#000000; stroke-linecap:round; stroke-linejoin:round; stroke-width:2; stroke-opacity:0.1; fill:none" points="247.444,1184.3 3152.76,1184.3 "/>
<polyline clip-path="url(#clip341)" style="stroke:#000000; stroke-linecap:round; stroke-linejoin:round; stroke-width:2; stroke-opacity:0.1; fill:none" points="247.444,848.773 3152.76,848.773 "/>
<polyline clip-path="url(#clip341)" style="stroke:#000000; stroke-linecap:round; stroke-linejoin:round; stroke-width:2; stroke-opacity:0.1; fill:none" points="247.444,513.249 3152.76,513.249 "/>
<polyline clip-path="url(#clip341)" style="stroke:#000000; stroke-linecap:round; stroke-linejoin:round; stroke-width:2; stroke-opacity:0.1; fill:none" points="247.444,177.725 3152.76,177.725 "/>
<polyline clip-path="url(#clip340)" style="stroke:#000000; stroke-linecap:round; stroke-linejoin:round; stroke-width:4; stroke-opacity:1; fill:none" points="247.444,1519.82 3152.76,1519.82 "/>
<polyline clip-path="url(#clip340)" style="stroke:#000000; stroke-linecap:round; stroke-linejoin:round; stroke-width:4; stroke-opacity:1; fill:none" points="509.112,1519.82 509.112,1500.92 "/>
<polyline clip-path="url(#clip340)" style="stroke:#000000; stroke-linecap:round; stroke-linejoin:round; stroke-width:4; stroke-opacity:1; fill:none" points="773.776,1519.82 773.776,1500.92 "/>
<polyline clip-path="url(#clip340)" style="stroke:#000000; stroke-linecap:round; stroke-linejoin:round; stroke-width:4; stroke-opacity:1; fill:none" points="1038.44,1519.82 1038.44,1500.92 "/>
<polyline clip-path="url(#clip340)" style="stroke:#000000; stroke-linecap:round; stroke-linejoin:round; stroke-width:4; stroke-opacity:1; fill:none" points="1303.1,1519.82 1303.1,1500.92 "/>
<polyline clip-path="url(#clip340)" style="stroke:#000000; stroke-linecap:round; stroke-linejoin:round; stroke-width:4; stroke-opacity:1; fill:none" points="1567.77,1519.82 1567.77,1500.92 "/>
<polyline clip-path="url(#clip340)" style="stroke:#000000; stroke-linecap:round; stroke-linejoin:round; stroke-width:4; stroke-opacity:1; fill:none" points="1832.43,1519.82 1832.43,1500.92 "/>
<polyline clip-path="url(#clip340)" style="stroke:#000000; stroke-linecap:round; stroke-linejoin:round; stroke-width:4; stroke-opacity:1; fill:none" points="2097.1,1519.82 2097.1,1500.92 "/>
<polyline clip-path="url(#clip340)" style="stroke:#000000; stroke-linecap:round; stroke-linejoin:round; stroke-width:4; stroke-opacity:1; fill:none" points="2361.76,1519.82 2361.76,1500.92 "/>
<polyline clip-path="url(#clip340)" style="stroke:#000000; stroke-linecap:round; stroke-linejoin:round; stroke-width:4; stroke-opacity:1; fill:none" points="2626.42,1519.82 2626.42,1500.92 "/>
<polyline clip-path="url(#clip340)" style="stroke:#000000; stroke-linecap:round; stroke-linejoin:round; stroke-width:4; stroke-opacity:1; fill:none" points="2891.09,1519.82 2891.09,1500.92 "/>
<path clip-path="url(#clip340)" d="M499.494 1584.69 L507.133 1584.69 L507.133 1558.32 L498.823 1559.99 L498.823 1555.73 L507.087 1554.06 L511.762 1554.06 L511.762 1584.69 L519.401 1584.69 L519.401 1588.62 L499.494 1588.62 L499.494 1584.69 Z" fill="#000000" fill-rule="nonzero" fill-opacity="1" /><path clip-path="url(#clip340)" d="M768.429 1584.69 L784.748 1584.69 L784.748 1588.62 L762.804 1588.62 L762.804 1584.69 Q765.466 1581.93 770.049 1577.3 Q774.656 1572.65 775.836 1571.31 Q778.082 1568.78 778.961 1567.05 Q779.864 1565.29 779.864 1563.6 Q779.864 1560.84 777.92 1559.11 Q775.998 1557.37 772.896 1557.37 Q770.697 1557.37 768.244 1558.14 Q765.813 1558.9 763.035 1560.45 L763.035 1555.73 Q765.859 1554.59 768.313 1554.02 Q770.767 1553.44 772.804 1553.44 Q778.174 1553.44 781.369 1556.12 Q784.563 1558.81 784.563 1563.3 Q784.563 1565.43 783.753 1567.35 Q782.966 1569.25 780.859 1571.84 Q780.281 1572.51 777.179 1575.73 Q774.077 1578.92 768.429 1584.69 Z" fill="#000000" fill-rule="nonzero" fill-opacity="1" /><path clip-path="url(#clip340)" d="M1042.69 1569.99 Q1046.04 1570.71 1047.92 1572.97 Q1049.82 1575.24 1049.82 1578.58 Q1049.82 1583.69 1046.3 1586.49 Q1042.78 1589.29 1036.3 1589.29 Q1034.12 1589.29 1031.81 1588.85 Q1029.52 1588.44 1027.06 1587.58 L1027.06 1583.07 Q1029.01 1584.2 1031.32 1584.78 Q1033.64 1585.36 1036.16 1585.36 Q1040.56 1585.36 1042.85 1583.62 Q1045.16 1581.89 1045.16 1578.58 Q1045.16 1575.52 1043.01 1573.81 Q1040.88 1572.07 1037.06 1572.07 L1033.03 1572.07 L1033.03 1568.23 L1037.25 1568.23 Q1040.7 1568.23 1042.53 1566.86 Q1044.35 1565.47 1044.35 1562.88 Q1044.35 1560.22 1042.46 1558.81 Q1040.58 1557.37 1037.06 1557.37 Q1035.14 1557.37 1032.94 1557.79 Q1030.74 1558.21 1028.1 1559.08 L1028.1 1554.92 Q1030.77 1554.18 1033.08 1553.81 Q1035.42 1553.44 1037.48 1553.44 Q1042.8 1553.44 1045.91 1555.87 Q1049.01 1558.27 1049.01 1562.4 Q1049.01 1565.27 1047.36 1567.26 Q1045.72 1569.22 1042.69 1569.99 Z" fill="#000000" fill-rule="nonzero" fill-opacity="1" /><path clip-path="url(#clip340)" d="M1306.11 1558.14 L1294.31 1576.58 L1306.11 1576.58 L1306.11 1558.14 M1304.89 1554.06 L1310.77 1554.06 L1310.77 1576.58 L1315.7 1576.58 L1315.7 1580.47 L1310.77 1580.47 L1310.77 1588.62 L1306.11 1588.62 L1306.11 1580.47 L1290.51 1580.47 L1290.51 1575.96 L1304.89 1554.06 Z" fill="#000000" fill-rule="nonzero" fill-opacity="1" /><path clip-path="url(#clip340)" d="M1558.05 1554.06 L1576.4 1554.06 L1576.4 1558 L1562.33 1558 L1562.33 1566.47 Q1563.35 1566.12 1564.37 1565.96 Q1565.38 1565.77 1566.4 1565.77 Q1572.19 1565.77 1575.57 1568.95 Q1578.95 1572.12 1578.95 1577.53 Q1578.95 1583.11 1575.48 1586.21 Q1572 1589.29 1565.68 1589.29 Q1563.51 1589.29 1561.24 1588.92 Q1558.99 1588.55 1556.59 1587.81 L1556.59 1583.11 Q1558.67 1584.25 1560.89 1584.8 Q1563.12 1585.36 1565.59 1585.36 Q1569.6 1585.36 1571.93 1583.25 Q1574.27 1581.15 1574.27 1577.53 Q1574.27 1573.92 1571.93 1571.82 Q1569.6 1569.71 1565.59 1569.71 Q1563.72 1569.71 1561.84 1570.13 Q1559.99 1570.54 1558.05 1571.42 L1558.05 1554.06 Z" fill="#000000" fill-rule="nonzero" fill-opacity="1" /><path clip-path="url(#clip340)" d="M1832.84 1569.48 Q1829.69 1569.48 1827.84 1571.63 Q1826.01 1573.78 1826.01 1577.53 Q1826.01 1581.26 1827.84 1583.44 Q1829.69 1585.59 1832.84 1585.59 Q1835.99 1585.59 1837.81 1583.44 Q1839.67 1581.26 1839.67 1577.53 Q1839.67 1573.78 1837.81 1571.63 Q1835.99 1569.48 1832.84 1569.48 M1842.12 1554.83 L1842.12 1559.08 Q1840.36 1558.25 1838.55 1557.81 Q1836.77 1557.37 1835.01 1557.37 Q1830.38 1557.37 1827.93 1560.5 Q1825.5 1563.62 1825.15 1569.94 Q1826.52 1567.93 1828.58 1566.86 Q1830.64 1565.77 1833.11 1565.77 Q1838.32 1565.77 1841.33 1568.95 Q1844.36 1572.09 1844.36 1577.53 Q1844.36 1582.86 1841.22 1586.08 Q1838.07 1589.29 1832.84 1589.29 Q1826.84 1589.29 1823.67 1584.71 Q1820.5 1580.1 1820.5 1571.38 Q1820.5 1563.18 1824.39 1558.32 Q1828.28 1553.44 1834.83 1553.44 Q1836.59 1553.44 1838.37 1553.78 Q1840.17 1554.13 1842.12 1554.83 Z" fill="#000000" fill-rule="nonzero" fill-opacity="1" /><path clip-path="url(#clip340)" d="M2085.98 1554.06 L2108.21 1554.06 L2108.21 1556.05 L2095.66 1588.62 L2090.78 1588.62 L2102.58 1558 L2085.98 1558 L2085.98 1554.06 Z" fill="#000000" fill-rule="nonzero" fill-opacity="1" /><path clip-path="url(#clip340)" d="M2361.76 1572.21 Q2358.43 1572.21 2356.51 1573.99 Q2354.61 1575.77 2354.61 1578.9 Q2354.61 1582.02 2356.51 1583.81 Q2358.43 1585.59 2361.76 1585.59 Q2365.09 1585.59 2367.01 1583.81 Q2368.94 1582 2368.94 1578.9 Q2368.94 1575.77 2367.01 1573.99 Q2365.12 1572.21 2361.76 1572.21 M2357.08 1570.22 Q2354.07 1569.48 2352.38 1567.42 Q2350.72 1565.36 2350.72 1562.4 Q2350.72 1558.25 2353.66 1555.84 Q2356.62 1553.44 2361.76 1553.44 Q2366.92 1553.44 2369.86 1555.84 Q2372.8 1558.25 2372.8 1562.4 Q2372.8 1565.36 2371.11 1567.42 Q2369.45 1569.48 2366.46 1570.22 Q2369.84 1571.01 2371.71 1573.3 Q2373.61 1575.59 2373.61 1578.9 Q2373.61 1583.92 2370.53 1586.61 Q2367.48 1589.29 2361.76 1589.29 Q2356.04 1589.29 2352.96 1586.61 Q2349.91 1583.92 2349.91 1578.9 Q2349.91 1575.59 2351.81 1573.3 Q2353.7 1571.01 2357.08 1570.22 M2355.37 1562.83 Q2355.37 1565.52 2357.04 1567.02 Q2358.73 1568.53 2361.76 1568.53 Q2364.77 1568.53 2366.46 1567.02 Q2368.17 1565.52 2368.17 1562.83 Q2368.17 1560.15 2366.46 1558.65 Q2364.77 1557.14 2361.76 1557.14 Q2358.73 1557.14 2357.04 1558.65 Q2355.37 1560.15 2355.37 1562.83 Z" fill="#000000" fill-rule="nonzero" fill-opacity="1" /><path clip-path="url(#clip340)" d="M2616.72 1587.9 L2616.72 1583.65 Q2618.48 1584.48 2620.29 1584.92 Q2622.1 1585.36 2623.83 1585.36 Q2628.46 1585.36 2630.89 1582.26 Q2633.35 1579.13 2633.69 1572.79 Q2632.35 1574.78 2630.29 1575.84 Q2628.23 1576.91 2625.73 1576.91 Q2620.54 1576.91 2617.51 1573.78 Q2614.5 1570.64 2614.5 1565.2 Q2614.5 1559.87 2617.65 1556.65 Q2620.8 1553.44 2626.03 1553.44 Q2632.03 1553.44 2635.17 1558.04 Q2638.35 1562.63 2638.35 1571.38 Q2638.35 1579.55 2634.46 1584.43 Q2630.59 1589.29 2624.04 1589.29 Q2622.28 1589.29 2620.47 1588.95 Q2618.67 1588.6 2616.72 1587.9 M2626.03 1573.25 Q2629.18 1573.25 2631.01 1571.1 Q2632.86 1568.95 2632.86 1565.2 Q2632.86 1561.47 2631.01 1559.32 Q2629.18 1557.14 2626.03 1557.14 Q2622.88 1557.14 2621.03 1559.32 Q2619.2 1561.47 2619.2 1565.2 Q2619.2 1568.95 2621.03 1571.1 Q2622.88 1573.25 2626.03 1573.25 Z" fill="#000000" fill-rule="nonzero" fill-opacity="1" /><path clip-path="url(#clip340)" d="M2865.78 1584.69 L2873.41 1584.69 L2873.41 1558.32 L2865.1 1559.99 L2865.1 1555.73 L2873.37 1554.06 L2878.04 1554.06 L2878.04 1584.69 L2885.68 1584.69 L2885.68 1588.62 L2865.78 1588.62 L2865.78 1584.69 Z" fill="#000000" fill-rule="nonzero" fill-opacity="1" /><path clip-path="url(#clip340)" d="M2905.13 1557.14 Q2901.52 1557.14 2899.69 1560.71 Q2897.88 1564.25 2897.88 1571.38 Q2897.88 1578.48 2899.69 1582.05 Q2901.52 1585.59 2905.13 1585.59 Q2908.76 1585.59 2910.57 1582.05 Q2912.4 1578.48 2912.4 1571.38 Q2912.4 1564.25 2910.57 1560.71 Q2908.76 1557.14 2905.13 1557.14 M2905.13 1553.44 Q2910.94 1553.44 2913.99 1558.04 Q2917.07 1562.63 2917.07 1571.38 Q2917.07 1580.1 2913.99 1584.71 Q2910.94 1589.29 2905.13 1589.29 Q2899.32 1589.29 2896.24 1584.71 Q2893.18 1580.1 2893.18 1571.38 Q2893.18 1562.63 2896.24 1558.04 Q2899.32 1553.44 2905.13 1553.44 Z" fill="#000000" fill-rule="nonzero" fill-opacity="1" /><path clip-path="url(#clip340)" d="M1608.27 1653.99 L1608.27 1671.4 L1618.59 1671.4 Q1623.78 1671.4 1626.26 1669.27 Q1628.77 1667.11 1628.77 1662.68 Q1628.77 1658.23 1626.26 1656.12 Q1623.78 1653.99 1618.59 1653.99 L1608.27 1653.99 M1608.27 1634.45 L1608.27 1648.77 L1617.79 1648.77 Q1622.5 1648.77 1624.79 1647.02 Q1627.12 1645.24 1627.12 1641.61 Q1627.12 1638.01 1624.79 1636.23 Q1622.5 1634.45 1617.79 1634.45 L1608.27 1634.45 M1601.85 1629.17 L1618.27 1629.17 Q1625.62 1629.17 1629.6 1632.22 Q1633.58 1635.28 1633.58 1640.91 Q1633.58 1645.27 1631.54 1647.85 Q1629.5 1650.43 1625.56 1651.06 Q1630.3 1652.08 1632.91 1655.33 Q1635.55 1658.54 1635.55 1663.38 Q1635.55 1669.75 1631.22 1673.22 Q1626.89 1676.69 1618.91 1676.69 L1601.85 1676.69 L1601.85 1629.17 Z" fill="#000000" fill-rule="nonzero" fill-opacity="1" /><path clip-path="url(#clip340)" d="M1660.12 1645.14 Q1655.41 1645.14 1652.68 1648.84 Q1649.94 1652.5 1649.94 1658.89 Q1649.94 1665.29 1652.64 1668.98 Q1655.38 1672.64 1660.12 1672.64 Q1664.8 1672.64 1667.54 1668.95 Q1670.28 1665.26 1670.28 1658.89 Q1670.28 1652.56 1667.54 1648.87 Q1664.8 1645.14 1660.12 1645.14 M1660.12 1640.18 Q1667.76 1640.18 1672.12 1645.14 Q1676.48 1650.11 1676.48 1658.89 Q1676.48 1667.65 1672.12 1672.64 Q1667.76 1677.61 1660.12 1677.61 Q1652.45 1677.61 1648.09 1672.64 Q1643.76 1667.65 1643.76 1658.89 Q1643.76 1650.11 1648.09 1645.14 Q1652.45 1640.18 1660.12 1640.18 Z" fill="#000000" fill-rule="nonzero" fill-opacity="1" /><path clip-path="url(#clip340)" d="M1682.47 1676.69 L1682.47 1671.82 Q1688.26 1670.92 1690.04 1666.91 Q1692.21 1661.28 1692.21 1646.86 L1692.21 1641.04 L1716.3 1641.04 L1716.3 1676.69 L1710.44 1676.69 L1710.44 1645.72 L1698.06 1645.72 L1698.06 1649.25 Q1698.06 1663 1695.26 1669.17 Q1692.27 1675.76 1682.47 1676.69 Z" fill="#000000" fill-rule="nonzero" fill-opacity="1" /><path clip-path="url(#clip340)" d="M1727.63 1641.04 L1733.52 1641.04 L1733.52 1655.58 L1752.52 1655.58 L1752.52 1641.04 L1758.41 1641.04 L1758.41 1676.69 L1752.52 1676.69 L1752.52 1660.26 L1733.52 1660.26 L1733.52 1676.69 L1727.63 1676.69 L1727.63 1641.04 Z" fill="#000000" fill-rule="nonzero" fill-opacity="1" /><path clip-path="url(#clip340)" d="M1786.67 1658.77 Q1779.58 1658.77 1776.84 1660.39 Q1774.1 1662.01 1774.1 1665.93 Q1774.1 1669.05 1776.14 1670.89 Q1778.21 1672.71 1781.74 1672.71 Q1786.61 1672.71 1789.54 1669.27 Q1792.5 1665.8 1792.5 1660.07 L1792.5 1658.77 L1786.67 1658.77 M1798.35 1656.35 L1798.35 1676.69 L1792.5 1676.69 L1792.5 1671.27 Q1790.49 1674.52 1787.5 1676.08 Q1784.51 1677.61 1780.18 1677.61 Q1774.71 1677.61 1771.46 1674.55 Q1768.24 1671.47 1768.24 1666.31 Q1768.24 1660.29 1772.26 1657.24 Q1776.3 1654.18 1784.29 1654.18 L1792.5 1654.18 L1792.5 1653.61 Q1792.5 1649.57 1789.82 1647.37 Q1787.18 1645.14 1782.38 1645.14 Q1779.32 1645.14 1776.42 1645.88 Q1773.53 1646.61 1770.85 1648.07 L1770.85 1642.66 Q1774.07 1641.42 1777.09 1640.82 Q1780.12 1640.18 1782.98 1640.18 Q1790.72 1640.18 1794.54 1644.19 Q1798.35 1648.2 1798.35 1656.35 Z" fill="#000000" fill-rule="nonzero" fill-opacity="1" /><polyline clip-path="url(#clip340)" style="stroke:#000000; stroke-linecap:round; stroke-linejoin:round; stroke-width:4; stroke-opacity:1; fill:none" points="247.444,1519.82 247.444,110.62 "/>
<polyline clip-path="url(#clip340)" style="stroke:#000000; stroke-linecap:round; stroke-linejoin:round; stroke-width:4; stroke-opacity:1; fill:none" points="247.444,1519.82 266.342,1519.82 "/>
<polyline clip-path="url(#clip340)" style="stroke:#000000; stroke-linecap:round; stroke-linejoin:round; stroke-width:4; stroke-opacity:1; fill:none" points="247.444,1184.3 266.342,1184.3 "/>
<polyline clip-path="url(#clip340)" style="stroke:#000000; stroke-linecap:round; stroke-linejoin:round; stroke-width:4; stroke-opacity:1; fill:none" points="247.444,848.773 266.342,848.773 "/>
<polyline clip-path="url(#clip340)" style="stroke:#000000; stroke-linecap:round; stroke-linejoin:round; stroke-width:4; stroke-opacity:1; fill:none" points="247.444,513.249 266.342,513.249 "/>
<polyline clip-path="url(#clip340)" style="stroke:#000000; stroke-linecap:round; stroke-linejoin:round; stroke-width:4; stroke-opacity:1; fill:none" points="247.444,177.725 266.342,177.725 "/>
<path clip-path="url(#clip340)" d="M112.107 1505.62 Q108.495 1505.62 106.667 1509.19 Q104.861 1512.73 104.861 1519.86 Q104.861 1526.96 106.667 1530.53 Q108.495 1534.07 112.107 1534.07 Q115.741 1534.07 117.546 1530.53 Q119.375 1526.96 119.375 1519.86 Q119.375 1512.73 117.546 1509.19 Q115.741 1505.62 112.107 1505.62 M112.107 1501.92 Q117.917 1501.92 120.972 1506.52 Q124.051 1511.11 124.051 1519.86 Q124.051 1528.58 120.972 1533.19 Q117.917 1537.77 112.107 1537.77 Q106.296 1537.77 103.218 1533.19 Q100.162 1528.58 100.162 1519.86 Q100.162 1511.11 103.218 1506.52 Q106.296 1501.92 112.107 1501.92 Z" fill="#000000" fill-rule="nonzero" fill-opacity="1" /><path clip-path="url(#clip340)" d="M132.268 1531.22 L137.153 1531.22 L137.153 1537.1 L132.268 1537.1 L132.268 1531.22 Z" fill="#000000" fill-rule="nonzero" fill-opacity="1" /><path clip-path="url(#clip340)" d="M157.338 1505.62 Q153.727 1505.62 151.898 1509.19 Q150.092 1512.73 150.092 1519.86 Q150.092 1526.96 151.898 1530.53 Q153.727 1534.07 157.338 1534.07 Q160.972 1534.07 162.778 1530.53 Q164.606 1526.96 164.606 1519.86 Q164.606 1512.73 162.778 1509.19 Q160.972 1505.62 157.338 1505.62 M157.338 1501.92 Q163.148 1501.92 166.203 1506.52 Q169.282 1511.11 169.282 1519.86 Q169.282 1528.58 166.203 1533.19 Q163.148 1537.77 157.338 1537.77 Q151.528 1537.77 148.449 1533.19 Q145.393 1528.58 145.393 1519.86 Q145.393 1511.11 148.449 1506.52 Q151.528 1501.92 157.338 1501.92 Z" fill="#000000" fill-rule="nonzero" fill-opacity="1" /><path clip-path="url(#clip340)" d="M187.5 1505.62 Q183.889 1505.62 182.06 1509.19 Q180.254 1512.73 180.254 1519.86 Q180.254 1526.96 182.06 1530.53 Q183.889 1534.07 187.5 1534.07 Q191.134 1534.07 192.939 1530.53 Q194.768 1526.96 194.768 1519.86 Q194.768 1512.73 192.939 1509.19 Q191.134 1505.62 187.5 1505.62 M187.5 1501.92 Q193.31 1501.92 196.365 1506.52 Q199.444 1511.11 199.444 1519.86 Q199.444 1528.58 196.365 1533.19 Q193.31 1537.77 187.5 1537.77 Q181.689 1537.77 178.611 1533.19 Q175.555 1528.58 175.555 1519.86 Q175.555 1511.11 178.611 1506.52 Q181.689 1501.92 187.5 1501.92 Z" fill="#000000" fill-rule="nonzero" fill-opacity="1" /><path clip-path="url(#clip340)" d="M113.102 1170.1 Q109.491 1170.1 107.662 1173.66 Q105.857 1177.2 105.857 1184.33 Q105.857 1191.44 107.662 1195 Q109.491 1198.55 113.102 1198.55 Q116.736 1198.55 118.542 1195 Q120.37 1191.44 120.37 1184.33 Q120.37 1177.2 118.542 1173.66 Q116.736 1170.1 113.102 1170.1 M113.102 1166.39 Q118.912 1166.39 121.968 1171 Q125.046 1175.58 125.046 1184.33 Q125.046 1193.06 121.968 1197.67 Q118.912 1202.25 113.102 1202.25 Q107.292 1202.25 104.213 1197.67 Q101.158 1193.06 101.158 1184.33 Q101.158 1175.58 104.213 1171 Q107.292 1166.39 113.102 1166.39 Z" fill="#000000" fill-rule="nonzero" fill-opacity="1" /><path clip-path="url(#clip340)" d="M133.264 1195.7 L138.148 1195.7 L138.148 1201.58 L133.264 1201.58 L133.264 1195.7 Z" fill="#000000" fill-rule="nonzero" fill-opacity="1" /><path clip-path="url(#clip340)" d="M152.361 1197.64 L168.68 1197.64 L168.68 1201.58 L146.736 1201.58 L146.736 1197.64 Q149.398 1194.89 153.981 1190.26 Q158.588 1185.61 159.768 1184.26 Q162.014 1181.74 162.893 1180 Q163.796 1178.24 163.796 1176.55 Q163.796 1173.8 161.852 1172.06 Q159.93 1170.33 156.829 1170.33 Q154.629 1170.33 152.176 1171.09 Q149.745 1171.86 146.967 1173.41 L146.967 1168.68 Q149.792 1167.55 152.245 1166.97 Q154.699 1166.39 156.736 1166.39 Q162.106 1166.39 165.301 1169.08 Q168.495 1171.76 168.495 1176.25 Q168.495 1178.38 167.685 1180.3 Q166.898 1182.2 164.791 1184.8 Q164.213 1185.47 161.111 1188.68 Q158.009 1191.88 152.361 1197.64 Z" fill="#000000" fill-rule="nonzero" fill-opacity="1" /><path clip-path="url(#clip340)" d="M178.541 1167.02 L196.898 1167.02 L196.898 1170.95 L182.824 1170.95 L182.824 1179.42 Q183.842 1179.08 184.861 1178.92 Q185.879 1178.73 186.898 1178.73 Q192.685 1178.73 196.064 1181.9 Q199.444 1185.07 199.444 1190.49 Q199.444 1196.07 195.972 1199.17 Q192.5 1202.25 186.18 1202.25 Q184.004 1202.25 181.736 1201.88 Q179.49 1201.51 177.083 1200.77 L177.083 1196.07 Q179.166 1197.2 181.389 1197.76 Q183.611 1198.31 186.088 1198.31 Q190.092 1198.31 192.43 1196.21 Q194.768 1194.1 194.768 1190.49 Q194.768 1186.88 192.43 1184.77 Q190.092 1182.67 186.088 1182.67 Q184.213 1182.67 182.338 1183.08 Q180.486 1183.5 178.541 1184.38 L178.541 1167.02 Z" fill="#000000" fill-rule="nonzero" fill-opacity="1" /><path clip-path="url(#clip340)" d="M112.107 834.572 Q108.495 834.572 106.667 838.137 Q104.861 841.679 104.861 848.808 Q104.861 855.915 106.667 859.479 Q108.495 863.021 112.107 863.021 Q115.741 863.021 117.546 859.479 Q119.375 855.915 119.375 848.808 Q119.375 841.679 117.546 838.137 Q115.741 834.572 112.107 834.572 M112.107 830.868 Q117.917 830.868 120.972 835.475 Q124.051 840.058 124.051 848.808 Q124.051 857.535 120.972 862.141 Q117.917 866.725 112.107 866.725 Q106.296 866.725 103.218 862.141 Q100.162 857.535 100.162 848.808 Q100.162 840.058 103.218 835.475 Q106.296 830.868 112.107 830.868 Z" fill="#000000" fill-rule="nonzero" fill-opacity="1" /><path clip-path="url(#clip340)" d="M132.268 860.174 L137.153 860.174 L137.153 866.053 L132.268 866.053 L132.268 860.174 Z" fill="#000000" fill-rule="nonzero" fill-opacity="1" /><path clip-path="url(#clip340)" d="M147.384 831.493 L165.741 831.493 L165.741 835.429 L151.667 835.429 L151.667 843.901 Q152.685 843.554 153.704 843.391 Q154.722 843.206 155.741 843.206 Q161.528 843.206 164.907 846.378 Q168.287 849.549 168.287 854.966 Q168.287 860.544 164.815 863.646 Q161.342 866.725 155.023 866.725 Q152.847 866.725 150.579 866.354 Q148.333 865.984 145.926 865.243 L145.926 860.544 Q148.009 861.678 150.231 862.234 Q152.454 862.79 154.93 862.79 Q158.935 862.79 161.273 860.683 Q163.611 858.577 163.611 854.966 Q163.611 851.354 161.273 849.248 Q158.935 847.141 154.93 847.141 Q153.055 847.141 151.18 847.558 Q149.329 847.975 147.384 848.854 L147.384 831.493 Z" fill="#000000" fill-rule="nonzero" fill-opacity="1" /><path clip-path="url(#clip340)" d="M187.5 834.572 Q183.889 834.572 182.06 838.137 Q180.254 841.679 180.254 848.808 Q180.254 855.915 182.06 859.479 Q183.889 863.021 187.5 863.021 Q191.134 863.021 192.939 859.479 Q194.768 855.915 194.768 848.808 Q194.768 841.679 192.939 838.137 Q191.134 834.572 187.5 834.572 M187.5 830.868 Q193.31 830.868 196.365 835.475 Q199.444 840.058 199.444 848.808 Q199.444 857.535 196.365 862.141 Q193.31 866.725 187.5 866.725 Q181.689 866.725 178.611 862.141 Q175.555 857.535 175.555 848.808 Q175.555 840.058 178.611 835.475 Q181.689 830.868 187.5 830.868 Z" fill="#000000" fill-rule="nonzero" fill-opacity="1" /><path clip-path="url(#clip340)" d="M113.102 499.048 Q109.491 499.048 107.662 502.613 Q105.857 506.154 105.857 513.284 Q105.857 520.39 107.662 523.955 Q109.491 527.497 113.102 527.497 Q116.736 527.497 118.542 523.955 Q120.37 520.39 120.37 513.284 Q120.37 506.154 118.542 502.613 Q116.736 499.048 113.102 499.048 M113.102 495.344 Q118.912 495.344 121.968 499.951 Q125.046 504.534 125.046 513.284 Q125.046 522.011 121.968 526.617 Q118.912 531.2 113.102 531.2 Q107.292 531.2 104.213 526.617 Q101.158 522.011 101.158 513.284 Q101.158 504.534 104.213 499.951 Q107.292 495.344 113.102 495.344 Z" fill="#000000" fill-rule="nonzero" fill-opacity="1" /><path clip-path="url(#clip340)" d="M133.264 524.65 L138.148 524.65 L138.148 530.529 L133.264 530.529 L133.264 524.65 Z" fill="#000000" fill-rule="nonzero" fill-opacity="1" /><path clip-path="url(#clip340)" d="M147.153 495.969 L169.375 495.969 L169.375 497.96 L156.829 530.529 L151.944 530.529 L163.75 499.904 L147.153 499.904 L147.153 495.969 Z" fill="#000000" fill-rule="nonzero" fill-opacity="1" /><path clip-path="url(#clip340)" d="M178.541 495.969 L196.898 495.969 L196.898 499.904 L182.824 499.904 L182.824 508.377 Q183.842 508.029 184.861 507.867 Q185.879 507.682 186.898 507.682 Q192.685 507.682 196.064 510.853 Q199.444 514.025 199.444 519.441 Q199.444 525.02 195.972 528.122 Q192.5 531.2 186.18 531.2 Q184.004 531.2 181.736 530.83 Q179.49 530.46 177.083 529.719 L177.083 525.02 Q179.166 526.154 181.389 526.71 Q183.611 527.265 186.088 527.265 Q190.092 527.265 192.43 525.159 Q194.768 523.052 194.768 519.441 Q194.768 515.83 192.43 513.724 Q190.092 511.617 186.088 511.617 Q184.213 511.617 182.338 512.034 Q180.486 512.451 178.541 513.33 L178.541 495.969 Z" fill="#000000" fill-rule="nonzero" fill-opacity="1" /><path clip-path="url(#clip340)" d="M102.917 191.07 L110.556 191.07 L110.556 164.704 L102.245 166.371 L102.245 162.112 L110.509 160.445 L115.185 160.445 L115.185 191.07 L122.824 191.07 L122.824 195.005 L102.917 195.005 L102.917 191.07 Z" fill="#000000" fill-rule="nonzero" fill-opacity="1" /><path clip-path="url(#clip340)" d="M132.268 189.125 L137.153 189.125 L137.153 195.005 L132.268 195.005 L132.268 189.125 Z" fill="#000000" fill-rule="nonzero" fill-opacity="1" /><path clip-path="url(#clip340)" d="M157.338 163.524 Q153.727 163.524 151.898 167.088 Q150.092 170.63 150.092 177.76 Q150.092 184.866 151.898 188.431 Q153.727 191.973 157.338 191.973 Q160.972 191.973 162.778 188.431 Q164.606 184.866 164.606 177.76 Q164.606 170.63 162.778 167.088 Q160.972 163.524 157.338 163.524 M157.338 159.82 Q163.148 159.82 166.203 164.426 Q169.282 169.01 169.282 177.76 Q169.282 186.486 166.203 191.093 Q163.148 195.676 157.338 195.676 Q151.528 195.676 148.449 191.093 Q145.393 186.486 145.393 177.76 Q145.393 169.01 148.449 164.426 Q151.528 159.82 157.338 159.82 Z" fill="#000000" fill-rule="nonzero" fill-opacity="1" /><path clip-path="url(#clip340)" d="M187.5 163.524 Q183.889 163.524 182.06 167.088 Q180.254 170.63 180.254 177.76 Q180.254 184.866 182.06 188.431 Q183.889 191.973 187.5 191.973 Q191.134 191.973 192.939 188.431 Q194.768 184.866 194.768 177.76 Q194.768 170.63 192.939 167.088 Q191.134 163.524 187.5 163.524 M187.5 159.82 Q193.31 159.82 196.365 164.426 Q199.444 169.01 199.444 177.76 Q199.444 186.486 196.365 191.093 Q193.31 195.676 187.5 195.676 Q181.689 195.676 178.611 191.093 Q175.555 186.486 175.555 177.76 Q175.555 169.01 178.611 164.426 Q181.689 159.82 187.5 159.82 Z" fill="#000000" fill-rule="nonzero" fill-opacity="1" /><path clip-path="url(#clip340)" d="M15.6262 823.146 Q16.3264 821.077 18.6181 819.136 Q20.9097 817.163 24.9201 815.189 L37.9062 808.664 L37.9062 815.571 L25.7158 821.65 Q20.9415 824.006 19.382 826.234 Q17.8224 828.43 17.8224 832.249 L17.8224 839.252 L37.9062 839.252 L37.9062 845.681 L-9.61384 845.681 L-9.61384 831.167 Q-9.61384 823.019 -6.20819 819.009 Q-2.80254 814.998 4.07243 814.998 Q8.56025 814.998 11.5203 817.099 Q14.4804 819.168 15.6262 823.146 M-4.33031 839.252 L12.5388 839.252 L12.5388 831.167 Q12.5388 826.52 10.4063 824.165 Q8.24196 821.778 4.07243 821.778 Q-0.0971111 821.778 -2.19779 824.165 Q-4.33031 826.52 -4.33031 831.167 L-4.33031 839.252 Z" fill="#000000" fill-rule="nonzero" fill-opacity="1" /><path clip-path="url(#clip340)" d="M13.0162 798.256 L13.0162 784.761 L16.6447 784.761 L16.6447 803.795 L13.1436 803.795 Q12.1569 802.712 10.3745 800.707 Q0.666774 789.758 -2.32511 789.758 Q-4.42579 789.758 -5.69893 791.413 Q-7.0039 793.068 -7.0039 795.774 Q-7.0039 797.429 -6.43099 799.37 Q-5.8899 801.312 -4.77591 803.604 L-8.69082 803.604 Q-9.58201 801.153 -10.0276 799.052 Q-10.4732 796.92 -10.4732 795.105 Q-10.4732 790.49 -8.37253 787.721 Q-6.27185 784.952 -2.83436 784.952 Q1.5898 784.952 10.6291 795.487 Q12.1569 797.27 13.0162 798.256 Z" fill="#000000" fill-rule="nonzero" fill-opacity="1" /><path clip-path="url(#clip340)" d="M766.427 12.096 L774.61 12.096 L774.61 41.9917 L803.858 12.096 L814.35 12.096 L790.976 35.9963 L815.565 72.576 L806.653 72.576 L785.669 41.4245 L774.61 52.7266 L774.61 72.576 L766.427 72.576 L766.427 12.096 Z" fill="#000000" fill-rule="nonzero" fill-opacity="1" /><path clip-path="url(#clip340)" d="M842.584 32.4315 Q836.589 32.4315 833.105 37.1306 Q829.621 41.7891 829.621 49.9314 Q829.621 58.0738 833.065 62.7728 Q836.548 67.4314 842.584 67.4314 Q848.539 67.4314 852.023 62.7323 Q855.507 58.0333 855.507 49.9314 Q855.507 41.8701 852.023 37.1711 Q848.539 32.4315 842.584 32.4315 M842.584 26.1121 Q852.306 26.1121 857.856 32.4315 Q863.406 38.7509 863.406 49.9314 Q863.406 61.0714 857.856 67.4314 Q852.306 73.7508 842.584 73.7508 Q832.822 73.7508 827.272 67.4314 Q821.763 61.0714 821.763 49.9314 Q821.763 38.7509 827.272 32.4315 Q832.822 26.1121 842.584 26.1121 Z" fill="#000000" fill-rule="nonzero" fill-opacity="1" /><path clip-path="url(#clip340)" d="M872.52 63.9476 Q878.921 67.4314 885.281 67.4314 Q891.236 67.4314 895.489 63.9881 Q899.743 60.5043 900.512 51.6733 L877.503 51.6733 L877.503 45.7185 L900.269 45.7185 Q899.783 41.4651 896.542 36.9686 Q893.342 32.4315 885.281 32.4315 Q879.042 32.4315 872.52 35.9153 L872.52 28.9478 Q878.88 26.1121 885.605 26.1121 Q896.218 26.1121 902.295 32.5531 Q908.412 38.9535 908.412 49.9314 Q908.412 60.8689 902.457 67.3098 Q896.542 73.7508 886.132 73.7508 Q878.475 73.7508 872.52 70.8341 L872.52 63.9476 Z" fill="#000000" fill-rule="nonzero" fill-opacity="1" /><path clip-path="url(#clip340)" d="M925.749 49.9314 Q925.749 59.4511 928.666 63.502 Q931.623 67.5124 936.606 67.5124 Q940.576 67.5124 945.194 60.7069 L945.194 39.156 Q940.576 32.3505 936.606 32.3505 Q931.623 32.3505 928.666 36.4014 Q925.749 40.4118 925.749 49.9314 M945.194 89.8329 L945.194 66.7832 Q942.885 70.5911 940.211 72.1709 Q937.578 73.7508 934.216 73.7508 Q927.451 73.7508 922.711 67.5124 Q918.012 61.2335 918.012 50.0935 Q918.012 38.9535 922.711 32.5531 Q927.451 26.1121 934.216 26.1121 Q937.578 26.1121 940.211 27.6515 Q942.885 29.1908 945.194 32.9987 L945.194 12.096 L952.688 12.096 L952.688 32.9987 Q954.997 29.1908 957.63 27.6515 Q960.304 26.1121 963.666 26.1121 Q970.431 26.1121 975.13 32.5531 Q979.869 38.9535 979.869 50.0935 Q979.869 61.2335 975.13 67.5124 Q970.431 73.7508 963.666 73.7508 Q960.304 73.7508 957.63 72.1709 Q954.997 70.5911 952.688 66.7832 L952.688 89.8329 L945.194 89.8329 M972.132 49.9314 Q972.132 40.4118 969.175 36.4014 Q966.258 32.3505 961.276 32.3505 Q957.306 32.3505 952.688 39.156 L952.688 60.7069 Q957.306 67.5124 961.276 67.5124 Q966.258 67.5124 969.175 63.502 Q972.132 59.4511 972.132 49.9314 Z" fill="#000000" fill-rule="nonzero" fill-opacity="1" /><path clip-path="url(#clip340)" d="M996.681 49.9314 Q996.681 59.4511 999.597 63.502 Q1002.55 67.5124 1007.54 67.5124 Q1011.51 67.5124 1016.13 60.7069 L1016.13 39.156 Q1011.51 32.3505 1007.54 32.3505 Q1002.55 32.3505 999.597 36.4014 Q996.681 40.4118 996.681 49.9314 M1016.13 89.8329 L1016.13 66.7832 Q1013.82 70.5911 1011.14 72.1709 Q1008.51 73.7508 1005.15 73.7508 Q998.382 73.7508 993.643 67.5124 Q988.943 61.2335 988.943 50.0935 Q988.943 38.9535 993.643 32.5531 Q998.382 26.1121 1005.15 26.1121 Q1008.51 26.1121 1011.14 27.6515 Q1013.82 29.1908 1016.13 32.9987 L1016.13 12.096 L1023.62 12.096 L1023.62 32.9987 Q1025.93 29.1908 1028.56 27.6515 Q1031.23 26.1121 1034.6 26.1121 Q1041.36 26.1121 1046.06 32.5531 Q1050.8 38.9535 1050.8 50.0935 Q1050.8 61.2335 1046.06 67.5124 Q1041.36 73.7508 1034.6 73.7508 Q1031.23 73.7508 1028.56 72.1709 Q1025.93 70.5911 1023.62 66.7832 L1023.62 89.8329 L1016.13 89.8329 M1043.06 49.9314 Q1043.06 40.4118 1040.11 36.4014 Q1037.19 32.3505 1032.21 32.3505 Q1028.24 32.3505 1023.62 39.156 L1023.62 60.7069 Q1028.24 67.5124 1032.21 67.5124 Q1037.19 67.5124 1040.11 63.502 Q1043.06 59.4511 1043.06 49.9314 Z" fill="#000000" fill-rule="nonzero" fill-opacity="1" /><path clip-path="url(#clip340)" d="M1101.72 27.2059 L1101.72 72.576 L1094.31 72.576 L1094.31 36.1584 L1072.43 72.576 L1062.87 72.576 L1062.87 27.2059 L1070.29 27.2059 L1070.29 63.5425 L1092.12 27.2059 L1101.72 27.2059 Z" fill="#000000" fill-rule="nonzero" fill-opacity="1" /><path clip-path="url(#clip340)" d="M1155.96 72.576 L1116.79 72.576 L1116.79 27.2059 L1124.28 27.2059 L1124.28 66.6212 L1148.47 66.6212 L1148.47 27.2059 L1155.96 27.2059 L1155.96 66.6212 L1161.92 66.6212 L1161.92 84.0401 L1155.96 84.0401 L1155.96 72.576 Z" fill="#000000" fill-rule="nonzero" fill-opacity="1" /><path clip-path="url(#clip340)" d="M1212.11 27.2059 L1212.11 72.576 L1204.69 72.576 L1204.69 36.1584 L1182.82 72.576 L1173.26 72.576 L1173.26 27.2059 L1180.67 27.2059 L1180.67 63.5425 L1202.51 27.2059 L1212.11 27.2059 Z" fill="#000000" fill-rule="nonzero" fill-opacity="1" /><path clip-path="url(#clip340)" d="M1266.27 48.0275 L1266.27 51.6733 L1232 51.6733 Q1232.48 59.3701 1236.62 63.421 Q1240.79 67.4314 1248.2 67.4314 Q1252.5 67.4314 1256.51 66.3781 Q1260.56 65.3249 1264.53 63.2184 L1264.53 70.267 Q1260.52 71.9684 1256.3 72.8596 Q1252.09 73.7508 1247.76 73.7508 Q1236.9 73.7508 1230.54 67.4314 Q1224.22 61.1119 1224.22 50.3365 Q1224.22 39.1965 1230.22 32.6746 Q1236.25 26.1121 1246.46 26.1121 Q1255.61 26.1121 1260.92 32.0264 Q1266.27 37.9003 1266.27 48.0275 M1258.81 45.84 Q1258.73 39.7232 1255.37 36.0774 Q1252.05 32.4315 1246.54 32.4315 Q1240.3 32.4315 1236.53 35.9558 Q1232.81 39.4801 1232.24 45.8805 L1258.81 45.84 Z" fill="#000000" fill-rule="nonzero" fill-opacity="1" /><path clip-path="url(#clip340)" d="M1278.22 27.2059 L1285.71 27.2059 L1285.71 45.7185 L1309.9 45.7185 L1309.9 27.2059 L1317.39 27.2059 L1317.39 72.576 L1309.9 72.576 L1309.9 51.6733 L1285.71 51.6733 L1285.71 72.576 L1278.22 72.576 L1278.22 27.2059 Z" fill="#000000" fill-rule="nonzero" fill-opacity="1" /><path clip-path="url(#clip340)" d="M1327.36 27.2059 L1370.82 27.2059 L1370.82 33.1607 L1352.76 33.1607 L1352.76 72.576 L1345.42 72.576 L1345.42 33.1607 L1327.36 33.1607 L1327.36 27.2059 Z" fill="#000000" fill-rule="nonzero" fill-opacity="1" /><path clip-path="url(#clip340)" d="M1417.57 66.6212 L1439.2 66.6212 L1439.2 33.1607 L1423.52 33.1607 L1423.52 38.832 Q1423.52 55.5217 1418.74 64.4337 L1417.57 66.6212 M1406.75 66.6212 Q1410.44 65.0008 1412.06 61.5575 Q1416.03 53.0101 1416.03 35.7938 L1416.03 27.2059 L1446.7 27.2059 L1446.7 66.6212 L1452.65 66.6212 L1452.65 84.0401 L1446.7 84.0401 L1446.7 72.576 L1409.91 72.576 L1409.91 84.0401 L1403.96 84.0401 L1403.96 66.6212 L1406.75 66.6212 Z" fill="#000000" fill-rule="nonzero" fill-opacity="1" /><path clip-path="url(#clip340)" d="M1503.61 48.0275 L1503.61 51.6733 L1469.34 51.6733 Q1469.83 59.3701 1473.96 63.421 Q1478.13 67.4314 1485.54 67.4314 Q1489.84 67.4314 1493.85 66.3781 Q1497.9 65.3249 1501.87 63.2184 L1501.87 70.267 Q1497.86 71.9684 1493.65 72.8596 Q1489.43 73.7508 1485.1 73.7508 Q1474.24 73.7508 1467.88 67.4314 Q1461.56 61.1119 1461.56 50.3365 Q1461.56 39.1965 1467.56 32.6746 Q1473.59 26.1121 1483.8 26.1121 Q1492.96 26.1121 1498.26 32.0264 Q1503.61 37.9003 1503.61 48.0275 M1496.16 45.84 Q1496.08 39.7232 1492.71 36.0774 Q1489.39 32.4315 1483.88 32.4315 Q1477.64 32.4315 1473.88 35.9558 Q1470.15 39.4801 1469.58 45.8805 L1496.16 45.84 Z" fill="#000000" fill-rule="nonzero" fill-opacity="1" /><path clip-path="url(#clip340)" d="M1510.46 27.2059 L1553.92 27.2059 L1553.92 33.1607 L1535.86 33.1607 L1535.86 72.576 L1528.52 72.576 L1528.52 33.1607 L1510.46 33.1607 L1510.46 27.2059 Z" fill="#000000" fill-rule="nonzero" fill-opacity="1" /><path clip-path="url(#clip340)" d="M1602.98 48.0275 L1602.98 51.6733 L1568.71 51.6733 Q1569.19 59.3701 1573.33 63.421 Q1577.5 67.4314 1584.91 67.4314 Q1589.21 67.4314 1593.22 66.3781 Q1597.27 65.3249 1601.24 63.2184 L1601.24 70.267 Q1597.23 71.9684 1593.01 72.8596 Q1588.8 73.7508 1584.47 73.7508 Q1573.61 73.7508 1567.25 67.4314 Q1560.93 61.1119 1560.93 50.3365 Q1560.93 39.1965 1566.93 32.6746 Q1572.96 26.1121 1583.17 26.1121 Q1592.33 26.1121 1597.63 32.0264 Q1602.98 37.9003 1602.98 48.0275 M1595.53 45.84 Q1595.44 39.7232 1592.08 36.0774 Q1588.76 32.4315 1583.25 32.4315 Q1577.01 32.4315 1573.25 35.9558 Q1569.52 39.4801 1568.95 45.8805 L1595.53 45.84 Z" fill="#000000" fill-rule="nonzero" fill-opacity="1" /><path clip-path="url(#clip340)" d="M1622.42 65.7705 L1622.42 89.8329 L1614.93 89.8329 L1614.93 27.2059 L1622.42 27.2059 L1622.42 34.0924 Q1624.77 30.0415 1628.34 28.0971 Q1631.94 26.1121 1636.93 26.1121 Q1645.19 26.1121 1650.33 32.6746 Q1655.52 39.2371 1655.52 49.9314 Q1655.52 60.6258 1650.33 67.1883 Q1645.19 73.7508 1636.93 73.7508 Q1631.94 73.7508 1628.34 71.8063 Q1624.77 69.8214 1622.42 65.7705 M1647.78 49.9314 Q1647.78 41.7081 1644.38 37.0496 Q1641.02 32.3505 1635.1 32.3505 Q1629.19 32.3505 1625.79 37.0496 Q1622.42 41.7081 1622.42 49.9314 Q1622.42 58.1548 1625.79 62.8538 Q1629.19 67.5124 1635.1 67.5124 Q1641.02 67.5124 1644.38 62.8538 Q1647.78 58.1548 1647.78 49.9314 Z" fill="#000000" fill-rule="nonzero" fill-opacity="1" /><path clip-path="url(#clip340)" d="M1667.59 27.2059 L1678.49 27.2059 L1691.37 57.5877 L1704.29 27.2059 L1715.11 27.2059 L1715.11 72.576 L1707.61 72.576 L1707.61 34.3355 L1695.1 63.8666 L1687.64 63.8666 L1675.09 34.3355 L1675.09 72.576 L1667.59 72.576 L1667.59 27.2059 Z" fill="#000000" fill-rule="nonzero" fill-opacity="1" /><path clip-path="url(#clip340)" d="M1769.03 27.2059 L1769.03 72.576 L1761.61 72.576 L1761.61 36.1584 L1739.74 72.576 L1730.18 72.576 L1730.18 27.2059 L1737.59 27.2059 L1737.59 63.5425 L1759.43 27.2059 L1769.03 27.2059 Z" fill="#000000" fill-rule="nonzero" fill-opacity="1" /><path clip-path="url(#clip340)" d="M1784.1 27.2059 L1791.59 27.2059 L1791.59 45.7185 L1815.77 45.7185 L1815.77 27.2059 L1823.27 27.2059 L1823.27 72.576 L1815.77 72.576 L1815.77 51.6733 L1791.59 51.6733 L1791.59 72.576 L1784.1 72.576 L1784.1 27.2059 Z" fill="#000000" fill-rule="nonzero" fill-opacity="1" /><path clip-path="url(#clip340)" d="M1859.24 49.7694 Q1850.21 49.7694 1846.72 51.8354 Q1843.24 53.9013 1843.24 58.8839 Q1843.24 62.8538 1845.83 65.2034 Q1848.46 67.5124 1852.96 67.5124 Q1859.16 67.5124 1862.89 63.1374 Q1866.65 58.7219 1866.65 51.4303 L1866.65 49.7694 L1859.24 49.7694 M1874.11 46.6907 L1874.11 72.576 L1866.65 72.576 L1866.65 65.6895 Q1864.1 69.8214 1860.29 71.8063 Q1856.49 73.7508 1850.98 73.7508 Q1844.01 73.7508 1839.88 69.8619 Q1835.79 65.9325 1835.79 59.3701 Q1835.79 51.7138 1840.89 47.825 Q1846.03 43.9361 1856.2 43.9361 L1866.65 43.9361 L1866.65 43.2069 Q1866.65 38.0623 1863.25 35.2672 Q1859.89 32.4315 1853.77 32.4315 Q1849.88 32.4315 1846.2 33.3632 Q1842.51 34.295 1839.11 36.1584 L1839.11 29.2718 Q1843.2 27.692 1847.05 26.9223 Q1850.89 26.1121 1854.54 26.1121 Q1864.38 26.1121 1869.25 31.2163 Q1874.11 36.3204 1874.11 46.6907 Z" fill="#000000" fill-rule="nonzero" fill-opacity="1" /><path clip-path="url(#clip340)" d="M1928.35 72.576 L1889.18 72.576 L1889.18 27.2059 L1896.67 27.2059 L1896.67 66.6212 L1920.85 66.6212 L1920.85 27.2059 L1928.35 27.2059 L1928.35 66.6212 L1934.3 66.6212 L1934.3 84.0401 L1928.35 84.0401 L1928.35 72.576 Z" fill="#000000" fill-rule="nonzero" fill-opacity="1" /><path clip-path="url(#clip340)" d="M1984.49 27.2059 L1984.49 72.576 L1977.08 72.576 L1977.08 36.1584 L1955.21 72.576 L1945.65 72.576 L1945.65 27.2059 L1953.06 27.2059 L1953.06 63.5425 L1974.89 27.2059 L1984.49 27.2059 Z" fill="#000000" fill-rule="nonzero" fill-opacity="1" /><path clip-path="url(#clip340)" d="M2038.41 27.2059 L2038.41 72.576 L2031 72.576 L2031 36.1584 L2009.12 72.576 L1999.56 72.576 L1999.56 27.2059 L2006.98 27.2059 L2006.98 63.5425 L2028.81 27.2059 L2038.41 27.2059 Z" fill="#000000" fill-rule="nonzero" fill-opacity="1" /><path clip-path="url(#clip340)" d="M2109.14 44.2197 Q2111.77 45.1109 2114.24 48.0275 Q2116.76 50.9442 2119.27 56.0483 L2127.57 72.576 L2118.78 72.576 L2111.04 57.061 Q2108.05 50.9847 2105.21 48.9997 Q2102.42 47.0148 2097.55 47.0148 L2088.64 47.0148 L2088.64 72.576 L2080.46 72.576 L2080.46 12.096 L2098.93 12.096 Q2109.3 12.096 2114.41 16.4305 Q2119.51 20.7649 2119.51 29.5149 Q2119.51 35.2267 2116.84 38.994 Q2114.2 42.7613 2109.14 44.2197 M2088.64 18.8205 L2088.64 40.2903 L2098.93 40.2903 Q2104.85 40.2903 2107.84 37.5762 Q2110.88 34.8216 2110.88 29.5149 Q2110.88 24.2082 2107.84 21.5346 Q2104.85 18.8205 2098.93 18.8205 L2088.64 18.8205 Z" fill="#000000" fill-rule="nonzero" fill-opacity="1" /><path clip-path="url(#clip340)" d="M2140.82 40.8979 L2157.99 40.8979 L2157.99 45.516 L2133.77 45.516 L2133.77 41.06 Q2135.15 39.8042 2137.7 37.5357 Q2151.63 25.1804 2151.63 21.3726 Q2151.63 18.699 2149.53 17.0786 Q2147.42 15.4177 2143.98 15.4177 Q2141.87 15.4177 2139.4 16.1469 Q2136.93 16.8356 2134.01 18.2534 L2134.01 13.2708 Q2137.13 12.1365 2139.81 11.5694 Q2142.52 11.0023 2144.83 11.0023 Q2150.7 11.0023 2154.23 13.6759 Q2157.75 16.3494 2157.75 20.7244 Q2157.75 26.3552 2144.34 37.8598 Q2142.07 39.8042 2140.82 40.8979 Z" fill="#000000" fill-rule="nonzero" fill-opacity="1" /><path clip-path="url(#clip340)" d="M2236.3 27.2059 L2236.3 72.576 L2228.8 72.576 L2228.8 33.1607 L2204.62 33.1607 L2204.62 72.576 L2197.13 72.576 L2197.13 27.2059 L2236.3 27.2059 Z" fill="#000000" fill-rule="nonzero" fill-opacity="1" /><path clip-path="url(#clip340)" d="M2269.23 32.4315 Q2263.24 32.4315 2259.75 37.1306 Q2256.27 41.7891 2256.27 49.9314 Q2256.27 58.0738 2259.71 62.7728 Q2263.2 67.4314 2269.23 67.4314 Q2275.19 67.4314 2278.67 62.7323 Q2282.15 58.0333 2282.15 49.9314 Q2282.15 41.8701 2278.67 37.1711 Q2275.19 32.4315 2269.23 32.4315 M2269.23 26.1121 Q2278.95 26.1121 2284.5 32.4315 Q2290.05 38.7509 2290.05 49.9314 Q2290.05 61.0714 2284.5 67.4314 Q2278.95 73.7508 2269.23 73.7508 Q2259.47 73.7508 2253.92 67.4314 Q2248.41 61.0714 2248.41 49.9314 Q2248.41 38.7509 2253.92 32.4315 Q2259.47 26.1121 2269.23 26.1121 Z" fill="#000000" fill-rule="nonzero" fill-opacity="1" /><path clip-path="url(#clip340)" d="M2335.95 51.6733 L2335.95 66.6212 L2346.56 66.6212 Q2351.67 66.6212 2354.34 64.7172 Q2357.01 62.7728 2357.01 59.127 Q2357.01 55.4812 2354.34 53.5773 Q2351.67 51.6733 2346.56 51.6733 L2335.95 51.6733 M2335.95 33.1607 L2335.95 45.7185 L2345.75 45.7185 Q2349.97 45.7185 2352.64 44.0576 Q2355.31 42.3563 2355.31 39.3586 Q2355.31 36.3609 2352.64 34.7811 Q2349.97 33.1607 2345.75 33.1607 L2335.95 33.1607 M2328.5 27.2059 L2346.24 27.2059 Q2354.22 27.2059 2358.51 30.1225 Q2362.81 33.0392 2362.81 38.4269 Q2362.81 42.5993 2360.62 45.0704 Q2358.43 47.5009 2354.14 48.1085 Q2359.28 49.0808 2362.12 52.1594 Q2364.95 55.2381 2364.95 59.8562 Q2364.95 65.9325 2360.26 69.2543 Q2355.6 72.576 2346.93 72.576 L2328.5 72.576 L2328.5 27.2059 Z" fill="#000000" fill-rule="nonzero" fill-opacity="1" /><path clip-path="url(#clip340)" d="M2395.26 32.4315 Q2389.26 32.4315 2385.78 37.1306 Q2382.29 41.7891 2382.29 49.9314 Q2382.29 58.0738 2385.74 62.7728 Q2389.22 67.4314 2395.26 67.4314 Q2401.21 67.4314 2404.69 62.7323 Q2408.18 58.0333 2408.18 49.9314 Q2408.18 41.8701 2404.69 37.1711 Q2401.21 32.4315 2395.26 32.4315 M2395.26 26.1121 Q2404.98 26.1121 2410.53 32.4315 Q2416.08 38.7509 2416.08 49.9314 Q2416.08 61.0714 2410.53 67.4314 Q2404.98 73.7508 2395.26 73.7508 Q2385.49 73.7508 2379.94 67.4314 Q2374.43 61.0714 2374.43 49.9314 Q2374.43 38.7509 2379.94 32.4315 Q2385.49 26.1121 2395.26 26.1121 Z" fill="#000000" fill-rule="nonzero" fill-opacity="1" /><path clip-path="url(#clip340)" d="M2423.69 72.576 L2423.69 66.3781 Q2431.07 65.2439 2433.33 60.1397 Q2436.09 52.9696 2436.09 34.619 L2436.09 27.2059 L2466.75 27.2059 L2466.75 72.576 L2459.3 72.576 L2459.3 33.1607 L2443.54 33.1607 L2443.54 37.6572 Q2443.54 55.1571 2439.98 63.0159 Q2436.17 71.4012 2423.69 72.576 Z" fill="#000000" fill-rule="nonzero" fill-opacity="1" /><path clip-path="url(#clip340)" d="M2481.18 27.2059 L2488.67 27.2059 L2488.67 45.7185 L2512.85 45.7185 L2512.85 27.2059 L2520.35 27.2059 L2520.35 72.576 L2512.85 72.576 L2512.85 51.6733 L2488.67 51.6733 L2488.67 72.576 L2481.18 72.576 L2481.18 27.2059 Z" fill="#000000" fill-rule="nonzero" fill-opacity="1" /><path clip-path="url(#clip340)" d="M2556.32 49.7694 Q2547.29 49.7694 2543.8 51.8354 Q2540.32 53.9013 2540.32 58.8839 Q2540.32 62.8538 2542.91 65.2034 Q2545.54 67.5124 2550.04 67.5124 Q2556.24 67.5124 2559.97 63.1374 Q2563.73 58.7219 2563.73 51.4303 L2563.73 49.7694 L2556.32 49.7694 M2571.19 46.6907 L2571.19 72.576 L2563.73 72.576 L2563.73 65.6895 Q2561.18 69.8214 2557.37 71.8063 Q2553.56 73.7508 2548.06 73.7508 Q2541.09 73.7508 2536.96 69.8619 Q2532.86 65.9325 2532.86 59.3701 Q2532.86 51.7138 2537.97 47.825 Q2543.11 43.9361 2553.28 43.9361 L2563.73 43.9361 L2563.73 43.2069 Q2563.73 38.0623 2560.33 35.2672 Q2556.97 32.4315 2550.85 32.4315 Q2546.96 32.4315 2543.28 33.3632 Q2539.59 34.295 2536.19 36.1584 L2536.19 29.2718 Q2540.28 27.692 2544.13 26.9223 Q2547.97 26.1121 2551.62 26.1121 Q2561.46 26.1121 2566.33 31.2163 Q2571.19 36.3204 2571.19 46.6907 Z" fill="#000000" fill-rule="nonzero" fill-opacity="1" /><path clip-path="url(#clip340)" d="M2586.26 27.2059 L2597.15 27.2059 L2610.03 57.5877 L2622.96 27.2059 L2633.77 27.2059 L2633.77 72.576 L2626.28 72.576 L2626.28 34.3355 L2613.76 63.8666 L2606.31 63.8666 L2593.75 34.3355 L2593.75 72.576 L2586.26 72.576 L2586.26 27.2059 Z" fill="#000000" fill-rule="nonzero" fill-opacity="1" /><path clip-path="url(#clip341)" d="M403.246 389.203 L403.246 1519.82 L473.823 1519.82 L473.823 389.203 L403.246 389.203 L403.246 389.203  Z" fill="#ffa500" fill-rule="evenodd" fill-opacity="0.85"/>
<polyline clip-path="url(#clip341)" style="stroke:#000000; stroke-linecap:round; stroke-linejoin:round; stroke-width:4; stroke-opacity:0.85; fill:none" points="403.246,389.203 403.246,1519.82 473.823,1519.82 473.823,389.203 403.246,389.203 "/>
<path clip-path="url(#clip341)" d="M667.91 779.056 L667.91 1519.82 L738.487 1519.82 L738.487 779.056 L667.91 779.056 L667.91 779.056  Z" fill="#ffa500" fill-rule="evenodd" fill-opacity="0.85"/>
<polyline clip-path="url(#clip341)" style="stroke:#000000; stroke-linecap:round; stroke-linejoin:round; stroke-width:4; stroke-opacity:0.85; fill:none" points="667.91,779.056 667.91,1519.82 738.487,1519.82 738.487,779.056 667.91,779.056 "/>
<path clip-path="url(#clip341)" d="M932.574 1324.99 L932.574 1519.82 L1003.15 1519.82 L1003.15 1324.99 L932.574 1324.99 L932.574 1324.99  Z" fill="#ffa500" fill-rule="evenodd" fill-opacity="0.85"/>
<polyline clip-path="url(#clip341)" style="stroke:#000000; stroke-linecap:round; stroke-linejoin:round; stroke-width:4; stroke-opacity:0.85; fill:none" points="932.574,1324.99 932.574,1519.82 1003.15,1519.82 1003.15,1324.99 932.574,1324.99 "/>
<path clip-path="url(#clip341)" d="M1197.24 516.399 L1197.24 1519.82 L1267.82 1519.82 L1267.82 516.399 L1197.24 516.399 L1197.24 516.399  Z" fill="#ffa500" fill-rule="evenodd" fill-opacity="0.85"/>
<polyline clip-path="url(#clip341)" style="stroke:#000000; stroke-linecap:round; stroke-linejoin:round; stroke-width:4; stroke-opacity:0.85; fill:none" points="1197.24,516.399 1197.24,1519.82 1267.82,1519.82 1267.82,516.399 1197.24,516.399 "/>
<path clip-path="url(#clip341)" d="M1461.9 623.655 L1461.9 1519.82 L1532.48 1519.82 L1532.48 623.655 L1461.9 623.655 L1461.9 623.655  Z" fill="#ffa500" fill-rule="evenodd" fill-opacity="0.85"/>
<polyline clip-path="url(#clip341)" style="stroke:#000000; stroke-linecap:round; stroke-linejoin:round; stroke-width:4; stroke-opacity:0.85; fill:none" points="1461.9,623.655 1461.9,1519.82 1532.48,1519.82 1532.48,623.655 1461.9,623.655 "/>
<path clip-path="url(#clip341)" d="M1726.57 961.756 L1726.57 1519.82 L1797.14 1519.82 L1797.14 961.756 L1726.57 961.756 L1726.57 961.756  Z" fill="#ffa500" fill-rule="evenodd" fill-opacity="0.85"/>
<polyline clip-path="url(#clip341)" style="stroke:#000000; stroke-linecap:round; stroke-linejoin:round; stroke-width:4; stroke-opacity:0.85; fill:none" points="1726.57,961.756 1726.57,1519.82 1797.14,1519.82 1797.14,961.756 1726.57,961.756 "/>
<path clip-path="url(#clip341)" d="M1991.23 550.708 L1991.23 1519.82 L2061.81 1519.82 L2061.81 550.708 L1991.23 550.708 L1991.23 550.708  Z" fill="#ffa500" fill-rule="evenodd" fill-opacity="0.85"/>
<polyline clip-path="url(#clip341)" style="stroke:#000000; stroke-linecap:round; stroke-linejoin:round; stroke-width:4; stroke-opacity:0.85; fill:none" points="1991.23,550.708 1991.23,1519.82 2061.81,1519.82 2061.81,550.708 1991.23,550.708 "/>
<path clip-path="url(#clip341)" d="M2255.89 214.807 L2255.89 1519.82 L2326.47 1519.82 L2326.47 214.807 L2255.89 214.807 L2255.89 214.807  Z" fill="#ffa500" fill-rule="evenodd" fill-opacity="0.85"/>
<polyline clip-path="url(#clip341)" style="stroke:#000000; stroke-linecap:round; stroke-linejoin:round; stroke-width:4; stroke-opacity:0.85; fill:none" points="2255.89,214.807 2255.89,1519.82 2326.47,1519.82 2326.47,214.807 2255.89,214.807 "/>
<path clip-path="url(#clip341)" d="M2520.56 899.78 L2520.56 1519.82 L2591.14 1519.82 L2591.14 899.78 L2520.56 899.78 L2520.56 899.78  Z" fill="#ffa500" fill-rule="evenodd" fill-opacity="0.85"/>
<polyline clip-path="url(#clip341)" style="stroke:#000000; stroke-linecap:round; stroke-linejoin:round; stroke-width:4; stroke-opacity:0.85; fill:none" points="2520.56,899.78 2520.56,1519.82 2591.14,1519.82 2591.14,899.78 2520.56,899.78 "/>
<path clip-path="url(#clip341)" d="M2785.22 350.424 L2785.22 1519.82 L2855.8 1519.82 L2855.8 350.424 L2785.22 350.424 L2785.22 350.424  Z" fill="#ffa500" fill-rule="evenodd" fill-opacity="0.85"/>
<polyline clip-path="url(#clip341)" style="stroke:#000000; stroke-linecap:round; stroke-linejoin:round; stroke-width:4; stroke-opacity:0.85; fill:none" points="2785.22,350.424 2785.22,1519.82 2855.8,1519.82 2855.8,350.424 2785.22,350.424 "/>
<circle clip-path="url(#clip341)" style="fill:#ffa500; stroke:none; fill-opacity:0" cx="438.535" cy="389.203" r="2"/>
<circle clip-path="url(#clip341)" style="fill:#ffa500; stroke:none; fill-opacity:0" cx="703.199" cy="779.056" r="2"/>
<circle clip-path="url(#clip341)" style="fill:#ffa500; stroke:none; fill-opacity:0" cx="967.863" cy="1324.99" r="2"/>
<circle clip-path="url(#clip341)" style="fill:#ffa500; stroke:none; fill-opacity:0" cx="1232.53" cy="516.399" r="2"/>
<circle clip-path="url(#clip341)" style="fill:#ffa500; stroke:none; fill-opacity:0" cx="1497.19" cy="623.655" r="2"/>
<circle clip-path="url(#clip341)" style="fill:#ffa500; stroke:none; fill-opacity:0" cx="1761.85" cy="961.756" r="2"/>
<circle clip-path="url(#clip341)" style="fill:#ffa500; stroke:none; fill-opacity:0" cx="2026.52" cy="550.708" r="2"/>
<circle clip-path="url(#clip341)" style="fill:#ffa500; stroke:none; fill-opacity:0" cx="2291.18" cy="214.807" r="2"/>
<circle clip-path="url(#clip341)" style="fill:#ffa500; stroke:none; fill-opacity:0" cx="2555.85" cy="899.78" r="2"/>
<circle clip-path="url(#clip341)" style="fill:#ffa500; stroke:none; fill-opacity:0" cx="2820.51" cy="350.424" r="2"/>
<path clip-path="url(#clip341)" d="M473.823 378.731 L473.823 1519.82 L544.401 1519.82 L544.401 378.731 L473.823 378.731 L473.823 378.731  Z" fill="#4682b4" fill-rule="evenodd" fill-opacity="0.85"/>
<polyline clip-path="url(#clip341)" style="stroke:#000000; stroke-linecap:round; stroke-linejoin:round; stroke-width:4; stroke-opacity:0.85; fill:none" points="473.823,378.731 473.823,1519.82 544.401,1519.82 544.401,378.731 473.823,378.731 "/>
<path clip-path="url(#clip341)" d="M738.487 729.595 L738.487 1519.82 L809.065 1519.82 L809.065 729.595 L738.487 729.595 L738.487 729.595  Z" fill="#4682b4" fill-rule="evenodd" fill-opacity="0.85"/>
<polyline clip-path="url(#clip341)" style="stroke:#000000; stroke-linecap:round; stroke-linejoin:round; stroke-width:4; stroke-opacity:0.85; fill:none" points="738.487,729.595 738.487,1519.82 809.065,1519.82 809.065,729.595 738.487,729.595 "/>
<path clip-path="url(#clip341)" d="M1003.15 1330.8 L1003.15 1519.82 L1073.73 1519.82 L1073.73 1330.8 L1003.15 1330.8 L1003.15 1330.8  Z" fill="#4682b4" fill-rule="evenodd" fill-opacity="0.85"/>
<polyline clip-path="url(#clip341)" style="stroke:#000000; stroke-linecap:round; stroke-linejoin:round; stroke-width:4; stroke-opacity:0.85; fill:none" points="1003.15,1330.8 1003.15,1519.82 1073.73,1519.82 1073.73,1330.8 1003.15,1330.8 "/>
<path clip-path="url(#clip341)" d="M1267.82 513.992 L1267.82 1519.82 L1338.39 1519.82 L1338.39 513.992 L1267.82 513.992 L1267.82 513.992  Z" fill="#4682b4" fill-rule="evenodd" fill-opacity="0.85"/>
<polyline clip-path="url(#clip341)" style="stroke:#000000; stroke-linecap:round; stroke-linejoin:round; stroke-width:4; stroke-opacity:0.85; fill:none" points="1267.82,513.992 1267.82,1519.82 1338.39,1519.82 1338.39,513.992 1267.82,513.992 "/>
<path clip-path="url(#clip341)" d="M1532.48 622.586 L1532.48 1519.82 L1603.06 1519.82 L1603.06 622.586 L1532.48 622.586 L1532.48 622.586  Z" fill="#4682b4" fill-rule="evenodd" fill-opacity="0.85"/>
<polyline clip-path="url(#clip341)" style="stroke:#000000; stroke-linecap:round; stroke-linejoin:round; stroke-width:4; stroke-opacity:0.85; fill:none" points="1532.48,622.586 1532.48,1519.82 1603.06,1519.82 1603.06,622.586 1532.48,622.586 "/>
<path clip-path="url(#clip341)" d="M1797.14 965.479 L1797.14 1519.82 L1867.72 1519.82 L1867.72 965.479 L1797.14 965.479 L1797.14 965.479  Z" fill="#4682b4" fill-rule="evenodd" fill-opacity="0.85"/>
<polyline clip-path="url(#clip341)" style="stroke:#000000; stroke-linecap:round; stroke-linejoin:round; stroke-width:4; stroke-opacity:0.85; fill:none" points="1797.14,965.479 1797.14,1519.82 1867.72,1519.82 1867.72,965.479 1797.14,965.479 "/>
<path clip-path="url(#clip341)" d="M2061.81 563.898 L2061.81 1519.82 L2132.38 1519.82 L2132.38 563.898 L2061.81 563.898 L2061.81 563.898  Z" fill="#4682b4" fill-rule="evenodd" fill-opacity="0.85"/>
<polyline clip-path="url(#clip341)" style="stroke:#000000; stroke-linecap:round; stroke-linejoin:round; stroke-width:4; stroke-opacity:0.85; fill:none" points="2061.81,563.898 2061.81,1519.82 2132.38,1519.82 2132.38,563.898 2061.81,563.898 "/>
<path clip-path="url(#clip341)" d="M2326.47 218.981 L2326.47 1519.82 L2397.05 1519.82 L2397.05 218.981 L2326.47 218.981 L2326.47 218.981  Z" fill="#4682b4" fill-rule="evenodd" fill-opacity="0.85"/>
<polyline clip-path="url(#clip341)" style="stroke:#000000; stroke-linecap:round; stroke-linejoin:round; stroke-width:4; stroke-opacity:0.85; fill:none" points="2326.47,218.981 2326.47,1519.82 2397.05,1519.82 2397.05,218.981 2326.47,218.981 "/>
<path clip-path="url(#clip341)" d="M2591.14 924.254 L2591.14 1519.82 L2661.71 1519.82 L2661.71 924.254 L2591.14 924.254 L2591.14 924.254  Z" fill="#4682b4" fill-rule="evenodd" fill-opacity="0.85"/>
<polyline clip-path="url(#clip341)" style="stroke:#000000; stroke-linecap:round; stroke-linejoin:round; stroke-width:4; stroke-opacity:0.85; fill:none" points="2591.14,924.254 2591.14,1519.82 2661.71,1519.82 2661.71,924.254 2591.14,924.254 "/>
<path clip-path="url(#clip341)" d="M2855.8 355.619 L2855.8 1519.82 L2926.38 1519.82 L2926.38 355.619 L2855.8 355.619 L2855.8 355.619  Z" fill="#4682b4" fill-rule="evenodd" fill-opacity="0.85"/>
<polyline clip-path="url(#clip341)" style="stroke:#000000; stroke-linecap:round; stroke-linejoin:round; stroke-width:4; stroke-opacity:0.85; fill:none" points="2855.8,355.619 2855.8,1519.82 2926.38,1519.82 2926.38,355.619 2855.8,355.619 "/>
<circle clip-path="url(#clip341)" style="fill:#4682b4; stroke:none; fill-opacity:0" cx="509.112" cy="378.731" r="2"/>
<circle clip-path="url(#clip341)" style="fill:#4682b4; stroke:none; fill-opacity:0" cx="773.776" cy="729.595" r="2"/>
<circle clip-path="url(#clip341)" style="fill:#4682b4; stroke:none; fill-opacity:0" cx="1038.44" cy="1330.8" r="2"/>
<circle clip-path="url(#clip341)" style="fill:#4682b4; stroke:none; fill-opacity:0" cx="1303.1" cy="513.992" r="2"/>
<circle clip-path="url(#clip341)" style="fill:#4682b4; stroke:none; fill-opacity:0" cx="1567.77" cy="622.586" r="2"/>
<circle clip-path="url(#clip341)" style="fill:#4682b4; stroke:none; fill-opacity:0" cx="1832.43" cy="965.479" r="2"/>
<circle clip-path="url(#clip341)" style="fill:#4682b4; stroke:none; fill-opacity:0" cx="2097.1" cy="563.898" r="2"/>
<circle clip-path="url(#clip341)" style="fill:#4682b4; stroke:none; fill-opacity:0" cx="2361.76" cy="218.981" r="2"/>
<circle clip-path="url(#clip341)" style="fill:#4682b4; stroke:none; fill-opacity:0" cx="2626.42" cy="924.254" r="2"/>
<circle clip-path="url(#clip341)" style="fill:#4682b4; stroke:none; fill-opacity:0" cx="2891.09" cy="355.619" r="2"/>
<path clip-path="url(#clip341)" d="M544.401 378.731 L544.401 1519.82 L614.978 1519.82 L614.978 378.731 L544.401 378.731 L544.401 378.731  Z" fill="#dc143c" fill-rule="evenodd" fill-opacity="0.85"/>
<polyline clip-path="url(#clip341)" style="stroke:#000000; stroke-linecap:round; stroke-linejoin:round; stroke-width:4; stroke-opacity:0.85; fill:none" points="544.401,378.731 544.401,1519.82 614.978,1519.82 614.978,378.731 544.401,378.731 "/>
<path clip-path="url(#clip341)" d="M809.065 729.557 L809.065 1519.82 L879.642 1519.82 L879.642 729.557 L809.065 729.557 L809.065 729.557  Z" fill="#dc143c" fill-rule="evenodd" fill-opacity="0.85"/>
<polyline clip-path="url(#clip341)" style="stroke:#000000; stroke-linecap:round; stroke-linejoin:round; stroke-width:4; stroke-opacity:0.85; fill:none" points="809.065,729.557 809.065,1519.82 879.642,1519.82 879.642,729.557 809.065,729.557 "/>
<path clip-path="url(#clip341)" d="M1073.73 1170.18 L1073.73 1519.82 L1144.31 1519.82 L1144.31 1170.18 L1073.73 1170.18 L1073.73 1170.18  Z" fill="#dc143c" fill-rule="evenodd" fill-opacity="0.85"/>
<polyline clip-path="url(#clip341)" style="stroke:#000000; stroke-linecap:round; stroke-linejoin:round; stroke-width:4; stroke-opacity:0.85; fill:none" points="1073.73,1170.18 1073.73,1519.82 1144.31,1519.82 1144.31,1170.18 1073.73,1170.18 "/>
<path clip-path="url(#clip341)" d="M1338.39 513.992 L1338.39 1519.82 L1408.97 1519.82 L1408.97 513.992 L1338.39 513.992 L1338.39 513.992  Z" fill="#dc143c" fill-rule="evenodd" fill-opacity="0.85"/>
<polyline clip-path="url(#clip341)" style="stroke:#000000; stroke-linecap:round; stroke-linejoin:round; stroke-width:4; stroke-opacity:0.85; fill:none" points="1338.39,513.992 1338.39,1519.82 1408.97,1519.82 1408.97,513.992 1338.39,513.992 "/>
<path clip-path="url(#clip341)" d="M1603.06 622.586 L1603.06 1519.82 L1673.63 1519.82 L1673.63 622.586 L1603.06 622.586 L1603.06 622.586  Z" fill="#dc143c" fill-rule="evenodd" fill-opacity="0.85"/>
<polyline clip-path="url(#clip341)" style="stroke:#000000; stroke-linecap:round; stroke-linejoin:round; stroke-width:4; stroke-opacity:0.85; fill:none" points="1603.06,622.586 1603.06,1519.82 1673.63,1519.82 1673.63,622.586 1603.06,622.586 "/>
<path clip-path="url(#clip341)" d="M1867.72 965.479 L1867.72 1519.82 L1938.3 1519.82 L1938.3 965.479 L1867.72 965.479 L1867.72 965.479  Z" fill="#dc143c" fill-rule="evenodd" fill-opacity="0.85"/>
<polyline clip-path="url(#clip341)" style="stroke:#000000; stroke-linecap:round; stroke-linejoin:round; stroke-width:4; stroke-opacity:0.85; fill:none" points="1867.72,965.479 1867.72,1519.82 1938.3,1519.82 1938.3,965.479 1867.72,965.479 "/>
<path clip-path="url(#clip341)" d="M2132.38 517.478 L2132.38 1519.82 L2202.96 1519.82 L2202.96 517.478 L2132.38 517.478 L2132.38 517.478  Z" fill="#dc143c" fill-rule="evenodd" fill-opacity="0.85"/>
<polyline clip-path="url(#clip341)" style="stroke:#000000; stroke-linecap:round; stroke-linejoin:round; stroke-width:4; stroke-opacity:0.85; fill:none" points="2132.38,517.478 2132.38,1519.82 2202.96,1519.82 2202.96,517.478 2132.38,517.478 "/>
<path clip-path="url(#clip341)" d="M2397.05 206.755 L2397.05 1519.82 L2467.63 1519.82 L2467.63 206.755 L2397.05 206.755 L2397.05 206.755  Z" fill="#dc143c" fill-rule="evenodd" fill-opacity="0.85"/>
<polyline clip-path="url(#clip341)" style="stroke:#000000; stroke-linecap:round; stroke-linejoin:round; stroke-width:4; stroke-opacity:0.85; fill:none" points="2397.05,206.755 2397.05,1519.82 2467.63,1519.82 2467.63,206.755 2397.05,206.755 "/>
<path clip-path="url(#clip341)" d="M2661.71 507.805 L2661.71 1519.82 L2732.29 1519.82 L2732.29 507.805 L2661.71 507.805 L2661.71 507.805  Z" fill="#dc143c" fill-rule="evenodd" fill-opacity="0.85"/>
<polyline clip-path="url(#clip341)" style="stroke:#000000; stroke-linecap:round; stroke-linejoin:round; stroke-width:4; stroke-opacity:0.85; fill:none" points="2661.71,507.805 2661.71,1519.82 2732.29,1519.82 2732.29,507.805 2661.71,507.805 "/>
<path clip-path="url(#clip341)" d="M2926.38 279.891 L2926.38 1519.82 L2996.95 1519.82 L2996.95 279.891 L2926.38 279.891 L2926.38 279.891  Z" fill="#dc143c" fill-rule="evenodd" fill-opacity="0.85"/>
<polyline clip-path="url(#clip341)" style="stroke:#000000; stroke-linecap:round; stroke-linejoin:round; stroke-width:4; stroke-opacity:0.85; fill:none" points="2926.38,279.891 2926.38,1519.82 2996.95,1519.82 2996.95,279.891 2926.38,279.891 "/>
<circle clip-path="url(#clip341)" style="fill:#dc143c; stroke:none; fill-opacity:0" cx="579.689" cy="378.731" r="2"/>
<circle clip-path="url(#clip341)" style="fill:#dc143c; stroke:none; fill-opacity:0" cx="844.353" cy="729.557" r="2"/>
<circle clip-path="url(#clip341)" style="fill:#dc143c; stroke:none; fill-opacity:0" cx="1109.02" cy="1170.18" r="2"/>
<circle clip-path="url(#clip341)" style="fill:#dc143c; stroke:none; fill-opacity:0" cx="1373.68" cy="513.992" r="2"/>
<circle clip-path="url(#clip341)" style="fill:#dc143c; stroke:none; fill-opacity:0" cx="1638.35" cy="622.586" r="2"/>
<circle clip-path="url(#clip341)" style="fill:#dc143c; stroke:none; fill-opacity:0" cx="1903.01" cy="965.479" r="2"/>
<circle clip-path="url(#clip341)" style="fill:#dc143c; stroke:none; fill-opacity:0" cx="2167.67" cy="517.478" r="2"/>
<circle clip-path="url(#clip341)" style="fill:#dc143c; stroke:none; fill-opacity:0" cx="2432.34" cy="206.755" r="2"/>
<circle clip-path="url(#clip341)" style="fill:#dc143c; stroke:none; fill-opacity:0" cx="2697" cy="507.805" r="2"/>
<circle clip-path="url(#clip341)" style="fill:#dc143c; stroke:none; fill-opacity:0" cx="2961.66" cy="279.891" r="2"/>
<path clip-path="url(#clip340)" d="M344.288 364.954 L930.882 364.954 L930.882 157.594 L344.288 157.594  Z" fill="#ffffff" fill-rule="evenodd" fill-opacity="1"/>
<polyline clip-path="url(#clip340)" style="stroke:#000000; stroke-linecap:round; stroke-linejoin:round; stroke-width:4; stroke-opacity:1; fill:none" points="344.288,364.954 930.882,364.954 930.882,157.594 344.288,157.594 344.288,364.954 "/>
<path clip-path="url(#clip340)" d="M376.569 230.17 L570.256 230.17 L570.256 188.698 L376.569 188.698 L376.569 230.17  Z" fill="#ffa500" fill-rule="evenodd" fill-opacity="0.85"/>
<polyline clip-path="url(#clip340)" style="stroke:#000000; stroke-linecap:round; stroke-linejoin:round; stroke-width:4; stroke-opacity:1; fill:none" points="376.569,230.17 570.256,230.17 570.256,188.698 376.569,188.698 376.569,230.17 "/>
<path clip-path="url(#clip340)" d="M622.885 205.765 Q624.482 202.894 626.704 201.528 Q628.926 200.163 631.936 200.163 Q635.987 200.163 638.186 203.01 Q640.385 205.834 640.385 211.065 L640.385 226.714 L636.102 226.714 L636.102 211.204 Q636.102 207.478 634.783 205.672 Q633.463 203.866 630.755 203.866 Q627.445 203.866 625.524 206.065 Q623.602 208.265 623.602 212.061 L623.602 226.714 L619.32 226.714 L619.32 211.204 Q619.32 207.454 618.001 205.672 Q616.681 203.866 613.927 203.866 Q610.663 203.866 608.741 206.089 Q606.82 208.288 606.82 212.061 L606.82 226.714 L602.538 226.714 L602.538 200.788 L606.82 200.788 L606.82 204.815 Q608.278 202.431 610.315 201.297 Q612.352 200.163 615.153 200.163 Q617.977 200.163 619.945 201.598 Q621.936 203.033 622.885 205.765 Z" fill="#000000" fill-rule="nonzero" fill-opacity="1" /><path clip-path="url(#clip340)" d="M660.662 213.681 Q655.5 213.681 653.51 214.862 Q651.519 216.042 651.519 218.889 Q651.519 221.158 653 222.501 Q654.505 223.82 657.074 223.82 Q660.616 223.82 662.746 221.32 Q664.898 218.797 664.898 214.63 L664.898 213.681 L660.662 213.681 M669.158 211.922 L669.158 226.714 L664.898 226.714 L664.898 222.778 Q663.44 225.139 661.264 226.274 Q659.088 227.385 655.94 227.385 Q651.959 227.385 649.598 225.163 Q647.26 222.917 647.26 219.167 Q647.26 214.792 650.176 212.57 Q653.116 210.348 658.926 210.348 L664.898 210.348 L664.898 209.931 Q664.898 206.991 662.954 205.394 Q661.033 203.774 657.537 203.774 Q655.315 203.774 653.209 204.306 Q651.102 204.839 649.158 205.903 L649.158 201.968 Q651.496 201.066 653.695 200.626 Q655.894 200.163 657.977 200.163 Q663.602 200.163 666.38 203.079 Q669.158 205.996 669.158 211.922 Z" fill="#000000" fill-rule="nonzero" fill-opacity="1" /><path clip-path="url(#clip340)" d="M677.931 200.788 L682.19 200.788 L682.19 226.714 L677.931 226.714 L677.931 200.788 M677.931 190.695 L682.19 190.695 L682.19 196.089 L677.931 196.089 L677.931 190.695 Z" fill="#000000" fill-rule="nonzero" fill-opacity="1" /><path clip-path="url(#clip340)" d="M712.653 211.065 L712.653 226.714 L708.394 226.714 L708.394 211.204 Q708.394 207.524 706.958 205.695 Q705.523 203.866 702.653 203.866 Q699.204 203.866 697.213 206.065 Q695.222 208.265 695.222 212.061 L695.222 226.714 L690.94 226.714 L690.94 200.788 L695.222 200.788 L695.222 204.815 Q696.75 202.478 698.81 201.32 Q700.894 200.163 703.602 200.163 Q708.07 200.163 710.361 202.94 Q712.653 205.695 712.653 211.065 Z" fill="#000000" fill-rule="nonzero" fill-opacity="1" /><path clip-path="url(#clip340)" d="M720.569 192.154 L742.792 192.154 L742.792 194.144 L730.245 226.714 L725.361 226.714 L737.167 196.089 L720.569 196.089 L720.569 192.154 Z" fill="#000000" fill-rule="nonzero" fill-opacity="1" /><path clip-path="url(#clip340)" d="M776.611 190.741 Q773.509 196.066 772.004 201.274 Q770.5 206.482 770.5 211.829 Q770.5 217.177 772.004 222.431 Q773.532 227.663 776.611 232.963 L772.907 232.963 Q769.435 227.524 767.699 222.269 Q765.986 217.014 765.986 211.829 Q765.986 206.667 767.699 201.436 Q769.412 196.204 772.907 190.741 L776.611 190.741 Z" fill="#000000" fill-rule="nonzero" fill-opacity="1" /><path clip-path="url(#clip340)" d="M799.088 195.325 Q793.995 195.325 790.986 199.121 Q788 202.917 788 209.468 Q788 215.996 790.986 219.792 Q793.995 223.589 799.088 223.589 Q804.18 223.589 807.143 219.792 Q810.129 215.996 810.129 209.468 Q810.129 202.917 807.143 199.121 Q804.18 195.325 799.088 195.325 M799.088 191.529 Q806.356 191.529 810.708 196.413 Q815.06 201.274 815.06 209.468 Q815.06 217.639 810.708 222.524 Q806.356 227.385 799.088 227.385 Q791.796 227.385 787.421 222.524 Q783.069 217.663 783.069 209.468 Q783.069 201.274 787.421 196.413 Q791.796 191.529 799.088 191.529 Z" fill="#000000" fill-rule="nonzero" fill-opacity="1" /><path clip-path="url(#clip340)" d="M827.05 195.996 L827.05 222.871 L832.699 222.871 Q839.851 222.871 843.161 219.63 Q846.495 216.389 846.495 209.399 Q846.495 202.454 843.161 199.237 Q839.851 195.996 832.699 195.996 L827.05 195.996 M822.374 192.154 L831.981 192.154 Q842.027 192.154 846.726 196.343 Q851.425 200.51 851.425 209.399 Q851.425 218.334 846.703 222.524 Q841.981 226.714 831.981 226.714 L822.374 226.714 L822.374 192.154 Z" fill="#000000" fill-rule="nonzero" fill-opacity="1" /><path clip-path="url(#clip340)" d="M858.879 192.154 L880.731 192.154 L880.731 196.089 L863.555 196.089 L863.555 206.32 L880.013 206.32 L880.013 210.255 L863.555 210.255 L863.555 222.778 L881.147 222.778 L881.147 226.714 L858.879 226.714 L858.879 192.154 Z" fill="#000000" fill-rule="nonzero" fill-opacity="1" /><path clip-path="url(#clip340)" d="M887.976 190.741 L891.68 190.741 Q895.152 196.204 896.865 201.436 Q898.601 206.667 898.601 211.829 Q898.601 217.014 896.865 222.269 Q895.152 227.524 891.68 232.963 L887.976 232.963 Q891.055 227.663 892.559 222.431 Q894.087 217.177 894.087 211.829 Q894.087 206.482 892.559 201.274 Q891.055 196.066 887.976 190.741 Z" fill="#000000" fill-rule="nonzero" fill-opacity="1" /><path clip-path="url(#clip340)" d="M376.569 282.01 L570.256 282.01 L570.256 240.538 L376.569 240.538 L376.569 282.01  Z" fill="#4682b4" fill-rule="evenodd" fill-opacity="0.85"/>
<polyline clip-path="url(#clip340)" style="stroke:#000000; stroke-linecap:round; stroke-linejoin:round; stroke-width:4; stroke-opacity:1; fill:none" points="376.569,282.01 570.256,282.01 570.256,240.538 376.569,240.538 376.569,282.01 "/>
<path clip-path="url(#clip340)" d="M602.538 252.628 L606.797 252.628 L606.797 278.554 L602.538 278.554 L602.538 252.628 M602.538 242.535 L606.797 242.535 L606.797 247.929 L602.538 247.929 L602.538 242.535 Z" fill="#000000" fill-rule="nonzero" fill-opacity="1" /><path clip-path="url(#clip340)" d="M637.26 262.905 L637.26 278.554 L633.001 278.554 L633.001 263.044 Q633.001 259.364 631.565 257.535 Q630.13 255.706 627.26 255.706 Q623.811 255.706 621.82 257.905 Q619.829 260.105 619.829 263.901 L619.829 278.554 L615.547 278.554 L615.547 252.628 L619.829 252.628 L619.829 256.655 Q621.357 254.318 623.417 253.16 Q625.501 252.003 628.209 252.003 Q632.676 252.003 634.968 254.78 Q637.26 257.535 637.26 262.905 Z" fill="#000000" fill-rule="nonzero" fill-opacity="1" /><path clip-path="url(#clip340)" d="M649.968 245.267 L649.968 252.628 L658.741 252.628 L658.741 255.938 L649.968 255.938 L649.968 270.012 Q649.968 273.183 650.824 274.086 Q651.704 274.989 654.366 274.989 L658.741 274.989 L658.741 278.554 L654.366 278.554 Q649.436 278.554 647.561 276.725 Q645.686 274.873 645.686 270.012 L645.686 255.938 L642.561 255.938 L642.561 252.628 L645.686 252.628 L645.686 245.267 L649.968 245.267 Z" fill="#000000" fill-rule="nonzero" fill-opacity="1" /><path clip-path="url(#clip340)" d="M703.162 273.623 L703.162 264.341 L695.523 264.341 L695.523 260.498 L707.792 260.498 L707.792 275.336 Q705.083 277.257 701.82 278.253 Q698.556 279.225 694.852 279.225 Q686.75 279.225 682.167 274.503 Q677.607 269.757 677.607 261.308 Q677.607 252.836 682.167 248.114 Q686.75 243.369 694.852 243.369 Q698.232 243.369 701.264 244.202 Q704.32 245.035 706.889 246.656 L706.889 251.632 Q704.296 249.433 701.38 248.322 Q698.463 247.211 695.246 247.211 Q688.903 247.211 685.709 250.753 Q682.537 254.294 682.537 261.308 Q682.537 268.299 685.709 271.841 Q688.903 275.382 695.246 275.382 Q697.722 275.382 699.667 274.966 Q701.611 274.526 703.162 273.623 Z" fill="#000000" fill-rule="nonzero" fill-opacity="1" /><path clip-path="url(#clip340)" d="M716.333 243.994 L721.009 243.994 L721.009 274.618 L737.838 274.618 L737.838 278.554 L716.333 278.554 L716.333 243.994 Z" fill="#000000" fill-rule="nonzero" fill-opacity="1" /><path clip-path="url(#clip340)" d="M376.569 333.85 L570.256 333.85 L570.256 292.378 L376.569 292.378 L376.569 333.85  Z" fill="#dc143c" fill-rule="evenodd" fill-opacity="0.85"/>
<polyline clip-path="url(#clip340)" style="stroke:#000000; stroke-linecap:round; stroke-linejoin:round; stroke-width:4; stroke-opacity:1; fill:none" points="376.569,333.85 570.256,333.85 570.256,292.378 376.569,292.378 376.569,333.85 "/>
<path clip-path="url(#clip340)" d="M619.042 294.375 L619.042 297.917 L614.968 297.917 Q612.677 297.917 611.774 298.843 Q610.894 299.769 610.894 302.176 L610.894 304.468 L617.908 304.468 L617.908 307.778 L610.894 307.778 L610.894 330.394 L606.612 330.394 L606.612 307.778 L602.538 307.778 L602.538 304.468 L606.612 304.468 L606.612 302.662 Q606.612 298.334 608.626 296.366 Q610.64 294.375 615.014 294.375 L619.042 294.375 Z" fill="#000000" fill-rule="nonzero" fill-opacity="1" /><path clip-path="url(#clip340)" d="M637.63 308.449 Q636.913 308.033 636.056 307.847 Q635.223 307.639 634.204 307.639 Q630.593 307.639 628.649 310 Q626.727 312.338 626.727 316.736 L626.727 330.394 L622.445 330.394 L622.445 304.468 L626.727 304.468 L626.727 308.495 Q628.07 306.134 630.223 305 Q632.376 303.843 635.454 303.843 Q635.894 303.843 636.426 303.912 Q636.959 303.958 637.607 304.074 L637.63 308.449 Z" fill="#000000" fill-rule="nonzero" fill-opacity="1" /><path clip-path="url(#clip340)" d="M653.88 317.361 Q648.718 317.361 646.727 318.542 Q644.737 319.722 644.737 322.569 Q644.737 324.838 646.218 326.181 Q647.723 327.5 650.292 327.5 Q653.834 327.5 655.963 325 Q658.116 322.477 658.116 318.31 L658.116 317.361 L653.88 317.361 M662.375 315.602 L662.375 330.394 L658.116 330.394 L658.116 326.458 Q656.658 328.819 654.482 329.954 Q652.306 331.065 649.158 331.065 Q645.176 331.065 642.815 328.843 Q640.477 326.597 640.477 322.847 Q640.477 318.472 643.394 316.25 Q646.334 314.028 652.144 314.028 L658.116 314.028 L658.116 313.611 Q658.116 310.671 656.172 309.074 Q654.25 307.454 650.755 307.454 Q648.533 307.454 646.426 307.986 Q644.32 308.519 642.375 309.583 L642.375 305.648 Q644.713 304.746 646.912 304.306 Q649.112 303.843 651.195 303.843 Q656.82 303.843 659.598 306.759 Q662.375 309.676 662.375 315.602 Z" fill="#000000" fill-rule="nonzero" fill-opacity="1" /><path clip-path="url(#clip340)" d="M689.806 305.463 L689.806 309.445 Q688 308.449 686.172 307.963 Q684.366 307.454 682.514 307.454 Q678.371 307.454 676.079 310.093 Q673.787 312.708 673.787 317.454 Q673.787 322.199 676.079 324.838 Q678.371 327.454 682.514 327.454 Q684.366 327.454 686.172 326.968 Q688 326.458 689.806 325.463 L689.806 329.398 Q688.023 330.231 686.102 330.648 Q684.204 331.065 682.051 331.065 Q676.195 331.065 672.746 327.384 Q669.297 323.704 669.297 317.454 Q669.297 311.111 672.769 307.477 Q676.264 303.843 682.329 303.843 Q684.297 303.843 686.172 304.259 Q688.047 304.653 689.806 305.463 Z" fill="#000000" fill-rule="nonzero" fill-opacity="1" /><path clip-path="url(#clip340)" d="M736.032 325.463 L736.032 316.181 L728.394 316.181 L728.394 312.338 L740.662 312.338 L740.662 327.176 Q737.954 329.097 734.69 330.093 Q731.426 331.065 727.722 331.065 Q719.62 331.065 715.037 326.343 Q710.477 321.597 710.477 313.148 Q710.477 304.676 715.037 299.954 Q719.62 295.209 727.722 295.209 Q731.102 295.209 734.134 296.042 Q737.19 296.875 739.759 298.496 L739.759 303.472 Q737.167 301.273 734.25 300.162 Q731.333 299.051 728.116 299.051 Q721.773 299.051 718.579 302.593 Q715.407 306.134 715.407 313.148 Q715.407 320.139 718.579 323.681 Q721.773 327.222 728.116 327.222 Q730.593 327.222 732.537 326.806 Q734.481 326.366 736.032 325.463 Z" fill="#000000" fill-rule="nonzero" fill-opacity="1" /><path clip-path="url(#clip340)" d="M749.204 295.834 L753.879 295.834 L753.879 326.458 L770.708 326.458 L770.708 330.394 L749.204 330.394 L749.204 295.834 Z" fill="#000000" fill-rule="nonzero" fill-opacity="1" /></svg>
