<?xml version="1.0" encoding="utf-8"?>
<svg xmlns="http://www.w3.org/2000/svg" xmlns:xlink="http://www.w3.org/1999/xlink" width="1920" height="1080" viewBox="0 0 7680 4320">
<defs>
  <clipPath id="clip510">
    <rect x="0" y="0" width="7680" height="4320"/>
  </clipPath>
</defs>
<path clip-path="url(#clip510)" d="M0 4320 L7680 4320 L7680 0 L0 0  Z" fill="#ffffff" fill-rule="evenodd" fill-opacity="1"/>
<defs>
  <clipPath id="clip511">
    <rect x="271" y="111" width="6861" height="4022"/>
  </clipPath>
</defs>
<path clip-path="url(#clip510)" d="M271.16 4132.42 L7131.52 4132.42 L7131.52 111.356 L271.16 111.356  Z" fill="#ffffff" fill-rule="evenodd" fill-opacity="1"/>
<polyline clip-path="url(#clip511)" style="stroke:#000000; stroke-linecap:round; stroke-linejoin:round; stroke-width:2; stroke-opacity:0.3; fill:none" points="465.321,4132.42 465.321,111.356 "/>
<polyline clip-path="url(#clip511)" style="stroke:#000000; stroke-linecap:round; stroke-linejoin:round; stroke-width:2; stroke-opacity:0.3; fill:none" points="2633.54,4132.42 2633.54,111.356 "/>
<polyline clip-path="url(#clip511)" style="stroke:#000000; stroke-linecap:round; stroke-linejoin:round; stroke-width:2; stroke-opacity:0.3; fill:none" points="4798.8,4132.42 4798.8,111.356 "/>
<polyline clip-path="url(#clip511)" style="stroke:#000000; stroke-linecap:round; stroke-linejoin:round; stroke-width:2; stroke-opacity:0.3; fill:none" points="6967.02,4132.42 6967.02,111.356 "/>
<polyline clip-path="url(#clip510)" style="stroke:#000000; stroke-linecap:round; stroke-linejoin:round; stroke-width:4; stroke-opacity:1; fill:none" points="271.16,4132.42 7131.52,4132.42 "/>
<polyline clip-path="url(#clip510)" style="stroke:#000000; stroke-linecap:round; stroke-linejoin:round; stroke-width:2; stroke-opacity:0.5; fill:none" points="271.16,111.356 7131.52,111.356 "/>
<polyline clip-path="url(#clip510)" style="stroke:#000000; stroke-linecap:round; stroke-linejoin:round; stroke-width:4; stroke-opacity:1; fill:none" points="465.321,4132.42 465.321,4113.53 "/>
<polyline clip-path="url(#clip510)" style="stroke:#000000; stroke-linecap:round; stroke-linejoin:round; stroke-width:4; stroke-opacity:1; fill:none" points="2633.54,4132.42 2633.54,4113.53 "/>
<polyline clip-path="url(#clip510)" style="stroke:#000000; stroke-linecap:round; stroke-linejoin:round; stroke-width:4; stroke-opacity:1; fill:none" points="4798.8,4132.42 4798.8,4113.53 "/>
<polyline clip-path="url(#clip510)" style="stroke:#000000; stroke-linecap:round; stroke-linejoin:round; stroke-width:4; stroke-opacity:1; fill:none" points="6967.02,4132.42 6967.02,4113.53 "/>
<g clip-path="url(#clip510)">
<text style="fill:#000000; fill-opacity:1; font-family:Century Gothic,CenturyGothic,AppleGothic,sans-serif; font-size:47px; text-anchor:middle;" transform="rotate(0, 465.321, 4235.93)" x="465.321" y="4235.93">2020-01-01</text>
</g>
<g clip-path="url(#clip510)">
<text style="fill:#000000; fill-opacity:1; font-family:Century Gothic,CenturyGothic,AppleGothic,sans-serif; font-size:47px; text-anchor:middle;" transform="rotate(0, 2633.54, 4235.93)" x="2633.54" y="4235.93">2022-01-01</text>
</g>
<g clip-path="url(#clip510)">
<text style="fill:#000000; fill-opacity:1; font-family:Century Gothic,CenturyGothic,AppleGothic,sans-serif; font-size:47px; text-anchor:middle;" transform="rotate(0, 4798.8, 4235.93)" x="4798.8" y="4235.93">2024-01-01</text>
</g>
<g clip-path="url(#clip510)">
<text style="fill:#000000; fill-opacity:1; font-family:Century Gothic,CenturyGothic,AppleGothic,sans-serif; font-size:47px; text-anchor:middle;" transform="rotate(0, 6967.02, 4235.93)" x="6967.02" y="4235.93">2026-01-01</text>
</g>
<g clip-path="url(#clip510)">
<text style="fill:#000000; fill-opacity:1; font-family:Century Gothic,CenturyGothic,AppleGothic,sans-serif; font-size:65px; text-anchor:middle;" transform="rotate(0, 3701.34, 4354.71)" x="3701.34" y="4354.71">Date</text>
</g>
<polyline clip-path="url(#clip510)" style="stroke:#000000; stroke-linecap:round; stroke-linejoin:round; stroke-width:4; stroke-opacity:1; fill:none" points="271.16,4132.42 271.16,111.356 "/>
<polyline clip-path="url(#clip510)" style="stroke:#000000; stroke-linecap:round; stroke-linejoin:round; stroke-width:2; stroke-opacity:0.5; fill:none" points="7131.52,4132.42 7131.52,111.356 "/>
<polyline clip-path="url(#clip510)" style="stroke:#000000; stroke-linecap:round; stroke-linejoin:round; stroke-width:4; stroke-opacity:1; fill:none" points="271.16,4018.62 290.058,4018.62 "/>
<polyline clip-path="url(#clip510)" style="stroke:#000000; stroke-linecap:round; stroke-linejoin:round; stroke-width:4; stroke-opacity:1; fill:none" points="271.16,3205.98 290.058,3205.98 "/>
<polyline clip-path="url(#clip510)" style="stroke:#000000; stroke-linecap:round; stroke-linejoin:round; stroke-width:4; stroke-opacity:1; fill:none" points="271.16,2393.33 290.058,2393.33 "/>
<polyline clip-path="url(#clip510)" style="stroke:#000000; stroke-linecap:round; stroke-linejoin:round; stroke-width:4; stroke-opacity:1; fill:none" points="271.16,1580.69 290.058,1580.69 "/>
<polyline clip-path="url(#clip510)" style="stroke:#000000; stroke-linecap:round; stroke-linejoin:round; stroke-width:4; stroke-opacity:1; fill:none" points="271.16,768.05 290.058,768.05 "/>
<g clip-path="url(#clip510)">
<text style="fill:#000000; fill-opacity:1; font-family:Century Gothic,CenturyGothic,AppleGothic,sans-serif; font-size:47px; text-anchor:middle;" transform="rotate(0, 143.023, 4036.12)" x="143.023" y="4036.12">0</text>
</g>
<g clip-path="url(#clip510)">
<text style="fill:#000000; fill-opacity:1; font-family:Century Gothic,CenturyGothic,AppleGothic,sans-serif; font-size:47px; text-anchor:middle;" transform="rotate(0, 117.15, 3223.48)" x="117.15" y="3223.48">200</text>
</g>
<g clip-path="url(#clip510)">
<text style="fill:#000000; fill-opacity:1; font-family:Century Gothic,CenturyGothic,AppleGothic,sans-serif; font-size:47px; text-anchor:middle;" transform="rotate(0, 117.15, 2410.83)" x="117.15" y="2410.83">400</text>
</g>
<g clip-path="url(#clip510)">
<text style="fill:#000000; fill-opacity:1; font-family:Century Gothic,CenturyGothic,AppleGothic,sans-serif; font-size:47px; text-anchor:middle;" transform="rotate(0, 117.15, 1598.19)" x="117.15" y="1598.19">600</text>
</g>
<g clip-path="url(#clip510)">
<text style="fill:#000000; fill-opacity:1; font-family:Century Gothic,CenturyGothic,AppleGothic,sans-serif; font-size:47px; text-anchor:middle;" transform="rotate(0, 117.15, 785.55)" x="117.15" y="785.55">800</text>
</g>
<g clip-path="url(#clip510)">
<text style="fill:#000000; fill-opacity:1; font-family:Century Gothic,CenturyGothic,AppleGothic,sans-serif; font-size:65px; text-anchor:middle;" transform="rotate(-90, -46.8154, 2121.89)" x="-46.8154" y="2121.89">Total Cases</text>
</g>
<g clip-path="url(#clip510)">
<text style="fill:#000000; fill-opacity:1; font-family:Century Gothic,CenturyGothic,AppleGothic,sans-serif; font-size:81px; text-anchor:middle;" transform="rotate(0, 3701.34, 72)" x="3701.34" y="72">Daily Cases with Strain Annotations</text>
</g>
<polyline clip-path="url(#clip511)" style="stroke:#0000ff; stroke-linecap:round; stroke-linejoin:round; stroke-width:8; stroke-opacity:1; fill:none" points="776.762,4018.62 779.728,4008.46 782.694,3998.3 785.66,4001.35 788.626,3998.3 791.592,3997.63 794.559,3998.3 797.525,3998.81 800.491,3998.3 803.457,3991.8 806.423,3987.96 809.389,3985.78 812.355,3987.05 815.321,3985.24 818.287,3985.57 821.253,3986.62 824.22,3982.77 827.186,3980.7 830.152,3980.47 833.118,3977.54 836.084,3977.08 839.05,3973.7 842.016,3969.41 844.982,3969.18 847.948,3966.48 850.915,3963.99 853.881,3960.83 856.847,3963.09 859.813,3964.22 862.779,3963.77 865.745,3960.38 868.711,3959.25 871.677,3956.54 874.643,3951.35 877.609,3954.51 880.576,3951.13 883.542,3947.06 886.508,3944.35 889.474,3941.87 892.44,3939.84 895.406,3942.32 898.372,3939.16 901.338,3933.29 904.304,3924.94 907.27,3919.97 910.237,3909.14 913.203,3897.63 916.169,3896.05 919.135,3890.4 922.101,3869.41 925.067,3859.03 928.033,3857.9 930.999,3844.58 933.965,3843.68 936.932,3839.61 939.898,3832.84 942.864,3824.71 945.83,3805.75 948.796,3786.79 951.762,3767.83 954.728,3755.19 957.694,3752.71 960.66,3740.74 963.626,3742.55 966.593,3747.51 969.559,3731.26 972.525,3719.75 975.491,3728.1 978.457,3729 981.423,3726.29 984.389,3726.29 987.355,3726.29 990.321,3724.49 993.287,3724.94 996.254,3725.84 999.22,3742.77 1002.19,3748.87 1005.15,3762.41 1008.12,3771.67 1011.08,3777.99 1014.05,3787.92 1017.02,3793.56 1019.98,3794.24 1022.95,3809.59 1025.91,3824.71 1028.88,3833.74 1031.85,3841.64 1034.81,3847.96 1037.78,3856.54 1040.75,3862.19 1043.71,3864.67 1046.68,3869.64 1049.64,3875.96 1052.61,3879.79 1055.58,3889.5 1058.54,3895.37 1061.51,3904.62 1064.47,3908.69 1067.44,3912.98 1070.41,3908.01 1073.37,3912.07 1076.34,3911.85 1079.3,3910.04 1082.27,3914.56 1085.24,3917.49 1088.2,3912.07 1091.17,3909.59 1094.13,3904.85 1097.1,3904.4 1100.07,3904.17 1103.03,3910.04 1106,3913.2 1108.97,3913.2 1111.93,3912.98 1114.9,3912.3 1117.86,3911.62 1120.83,3911.4 1123.8,3917.49 1126.76,3917.72 1129.73,3915.69 1132.69,3916.59 1135.66,3911.17 1138.63,3906.43 1141.59,3904.85 1144.56,3908.69 1147.52,3910.04 1150.49,3909.82 1153.46,3910.27 1156.42,3902.37 1159.39,3895.59 1162.36,3891.08 1165.32,3890.18 1168.29,3885.21 1171.25,3883.41 1174.22,3884.08 1177.19,3883.41 1180.15,3882.73 1183.12,3883.86 1186.08,3890.4 1189.05,3893.79 1192.02,3896.27 1194.98,3901.01 1197.95,3898.98 1200.91,3900.34 1203.88,3903.04 1206.85,3906.2 1209.81,3909.82 1212.78,3911.4 1215.75,3918.62 1218.71,3915.46 1221.68,3917.49 1224.64,3919.07 1227.61,3922.68 1230.58,3923.81 1233.54,3922.23 1236.51,3923.36 1239.47,3916.36 1242.44,3912.3 1245.41,3908.69 1248.37,3909.14 1251.34,3911.62 1254.3,3910.72 1257.27,3909.14 1260.24,3903.95 1263.2,3899.21 1266.17,3896.95 1269.14,3897.85 1272.1,3898.75 1275.07,3899.21 1278.03,3895.37 1281,3887.69 1283.97,3880.92 1286.93,3876.18 1289.9,3869.18 1292.86,3865.57 1295.83,3863.99 1298.8,3864.44 1301.76,3859.7 1304.73,3852.25 1307.69,3843.68 1310.66,3837.13 1313.63,3832.61 1316.59,3827.42 1319.56,3821.1 1322.52,3807.33 1325.49,3795.37 1328.46,3782.05 1331.42,3768.51 1334.39,3760.15 1337.36,3749.09 1340.32,3738.48 1343.29,3726.97 1346.25,3713.43 1349.22,3699.66 1352.19,3683.18 1355.15,3667.15 1358.12,3653.83 1361.08,3643.22 1364.05,3630.58 1367.02,3618.17 1369.98,3606.2 1372.95,3593.79 1375.91,3582.28 1378.88,3574.83 1381.85,3568.28 1384.81,3561.73 1387.78,3552.03 1390.75,3554.96 1393.71,3547.74 1396.68,3543 1399.64,3536.9 1402.61,3528.33 1405.58,3518.84 1408.54,3511.17 1411.51,3501.01 1414.47,3487.47 1417.44,3476.18 1420.41,3465.8 1423.37,3455.41 1426.34,3444.35 1429.3,3435.1 1432.27,3424.04 1435.24,3412.3 1438.2,3401.46 1441.17,3390.18 1444.14,3368.73 1447.1,3356.09 1450.07,3341.42 1453.03,3328.55 1456,3317.94 1458.97,3308.23 1461.93,3297.17 1464.9,3288.37 1467.86,3282.05 1470.83,3121.1 1473.8,3101.91 1476.76,3074.6 1479.73,3037.13 1482.69,3013.65 1485.66,2984.76 1488.63,2948.64 1491.59,2913.88 1494.56,2880.02 1497.53,2842.09 1500.49,2802.82 1503.46,2766.25 1506.42,2725.39 1509.39,2680.69 1512.36,2635.55 1515.32,2591.53 1518.29,2546.61 1521.25,2497.4 1524.22,2596.27 1527.19,2558.8 1530.15,2526.97 1533.12,2512.75 1536.08,2484.53 1539.05,2462.64 1542.02,2447.96 1544.98,2433.74 1547.95,2439.38 1550.91,2456.99 1553.88,2491.75 1556.85,2517.04 1559.81,2557.67 1562.78,2591.76 1565.75,2622 1568.71,2673.24 1571.68,2721.78 1574.64,2769.41 1577.61,2815.23 1580.58,2857.44 1583.54,2898.08 1586.51,2943 1589.47,2970.54 1592.44,3017.94 1595.41,3045.93 1598.37,3087.02 1601.34,3114.1 1604.3,3130.58 1607.27,3147.06 1610.24,3158.35 1613.2,3165.57 1616.17,3179.34 1619.14,3217.49 1622.1,3222.46 1625.07,3249.54 1628.03,3273.7 1631,3296.95 1633.97,3310.04 1636.93,3331.49 1639.9,3339.16 1642.86,3375.05 1645.83,3407.11 1648.8,3445.48 1651.76,3464.89 1654.73,3469.41 1657.69,3495.14 1660.66,3503.95 1663.63,3538.93 1666.59,3557.45 1669.56,3581.15 1672.53,3587.24 1675.49,3594.01 1678.46,3583.18 1681.42,3581.82 1684.39,3599.43 1687.36,3624.71 1690.32,3642.77 1693.29,3654.06 1696.25,3659.48 1699.22,3643 1702.19,3640.74 1705.15,3642.32 1708.12,3666.93 1711.08,3671.44 1714.05,3676.18 1717.02,3668.28 1719.98,3664.89 1722.95,3660.83 1725.91,3653.16 1728.88,3659.03 1731.85,3663.31 1734.81,3666.47 1737.78,3657.67 1740.75,3649.77 1743.71,3643.45 1746.68,3649.32 1749.64,3657.9 1752.61,3676.18 1755.58,3684.31 1758.54,3689.5 1761.51,3679.79 1764.47,3672.57 1767.44,3668.05 1770.41,3673.25 1773.37,3680.02 1776.34,3685.89 1779.3,3691.76 1782.27,3696.05 1785.24,3701.24 1788.2,3706.2 1791.17,3713.88 1794.14,3718.62 1797.1,3723.59 1800.07,3728.1 1803.03,3724.04 1806,3721.33 1808.97,3726.75 1811.93,3732.84 1814.9,3737.36 1817.86,3738.71 1820.83,3738.94 1823.8,3732.39 1826.76,3729.45 1829.73,3733.29 1832.69,3738.48 1835.66,3744.35 1838.63,3744.8 1841.59,3744.35 1844.56,3743.45 1847.53,3745.03 1850.49,3751.12 1853.46,3753.38 1856.42,3757.9 1859.39,3752.48 1862.36,3747.51 1865.32,3746.61 1868.29,3748.42 1871.25,3757.45 1874.22,3765.57 1877.19,3770.54 1880.15,3775.05 1883.12,3770.99 1886.08,3764.67 1889.05,3763.09 1892.02,3768.05 1894.98,3772.12 1897.95,3772.57 1900.92,3771.89 1903.88,3766.7 1906.85,3759.7 1909.81,3753.83 1912.78,3754.06 1915.75,3759.03 1918.71,3767.15 1921.68,3771.67 1924.64,3773.7 1927.61,3773.25 1930.58,3774.6 1933.54,3776.18 1936.51,3780.24 1939.47,3785.44 1942.44,3789.73 1945.41,3787.02 1948.37,3784.08 1951.34,3783.63 1954.3,3787.69 1957.27,3790.63 1960.24,3798.75 1963.2,3808.24 1966.17,3815.23 1969.14,3815.01 1972.1,3815.46 1975.07,3820.88 1978.03,3818.39 1981,3819.97 1983.97,3820.2 1986.93,3819.97 1989.9,3823.59 1992.86,3828.1 1995.83,3830.81 1998.8,3833.07 2001.76,3838.03 2004.73,3843 2007.69,3845.26 2010.66,3849.77 2013.63,3853.16 2016.59,3853.61 2019.56,3852.48 2022.53,3854.06 2025.49,3850.67 2028.46,3845.03 2031.42,3846.61 2034.39,3847.74 2037.36,3849.32 2040.32,3850.22 2043.29,3846.16 2046.25,3840.97 2049.22,3831.26 2052.19,3828.55 2055.15,3823.81 2058.12,3818.39 2061.08,3810.72 2064.05,3801.01 2067.02,3789.5 2069.98,3774.83 2072.95,3760.38 2075.92,3745.03 2078.88,3731.49 2081.85,3716.81 2084.81,3699.43 2087.78,3680.92 2090.75,3661.06 2093.71,3641.64 2096.68,3622.23 2099.64,3603.72 2102.61,3585.89 2105.58,3566.7 2108.54,3547.96 2111.51,3530.58 2114.47,3515.91 2117.44,3502.59 2120.41,3493.56 2123.37,3486.34 2126.34,3481.37 2129.3,3476.86 2132.27,3471.67 2135.24,3468.73 2138.2,3467.38 2141.17,3467.83 2144.14,3469.63 2147.1,3471.44 2150.07,3473.92 2153.03,3477.31 2156,3481.82 2158.97,3486.56 2161.93,3492.66 2164.9,3499.43 2167.86,3504.4 2170.83,3510.27 2173.8,3512.75 2176.76,3515.91 2179.73,3518.84 2182.69,3522.91 2185.66,3526.52 2188.63,3529.91 2191.59,3533.74 2194.56,3537.58 2197.53,3540.52 2200.49,3544.58 2203.46,3549.54 2206.42,3554.51 2209.39,3557.9 2212.36,3561.06 2215.32,3563.99 2218.29,3566.7 2221.25,3570.31 2224.22,3571.89 2227.19,3575.05 2230.15,3577.76 2233.12,3580.92 2236.08,3583.18 2239.05,3586.56 2242.02,3589.27 2244.98,3592.21 2247.95,3592.89 2250.92,3594.92 2253.88,3598.08 2256.85,3600.11 2259.81,3601.01 2262.78,3604.62 2265.75,3609.36 2268.71,3613.43 2271.68,3617.72 2274.64,3619.97 2277.61,3624.04 2280.58,3628.1 2283.54,3632.61 2286.51,3635.1 2289.47,3637.35 2292.44,3639.61 2295.41,3641.87 2298.37,3643.22 2301.34,3645.26 2304.31,3646.38 2307.27,3645.93 2310.24,3647.06 2313.2,3647.51 2316.17,3645.03 2319.14,3640.74 2322.1,3634.42 2325.07,3625.84 2328.03,3617.94 2331,3608.91 2333.97,3598.75 2336.93,3586.34 2339.9,3573.25 2342.86,3561.28 2345.83,3546.84 2348.8,3532.39 2351.76,3517.04 2354.73,3501.69 2357.69,3485.89 2360.66,3468.73 2363.63,3448.42 2366.59,3427.2 2369.56,3405.75 2372.53,3384.98 2375.49,3365.57 2378.46,3346.16 2381.42,3325.62 2384.39,3304.17 2387.36,3282.28 2390.32,3261.28 2393.29,3241.87 2396.25,3221.78 2399.22,3201.69 2402.19,3180.92 2405.15,3159.93 2408.12,3139.61 2411.08,3120.2 2414.05,3100.79 2417.02,3082.95 2419.98,3065.34 2422.95,3047.96 2425.92,3029.45 2428.88,3011.62 2431.85,2995.14 2434.81,2981.37 2437.78,2968.73 2440.75,2956.32 2443.71,2943.45 2446.68,2931.03 2449.64,2919.52 2452.61,2910.04 2455.58,2901.24 2458.54,2894.01 2461.51,2886.56 2464.47,2878.44 2467.44,2870.99 2470.41,2864.22 2473.37,2859.7 2476.34,2855.19 2479.31,2852.03 2482.27,2849.09 2485.24,2846.61 2488.2,2843 2491.17,2840.51 2494.14,2839.84 2497.1,2840.74 2500.07,2841.42 2503.03,2842.32 2506,2843 2508.97,2845.25 2511.93,2847.96 2514.9,2852.48 2517.86,2859.25 2520.83,2867.38 2523.8,2877.76 2526.76,2889.72 2529.73,2905.53 2532.7,2923.81 2535.66,2944.8 2538.63,2966.25 2541.59,2989.27 2544.56,3012.52 2547.53,3034.42 2550.49,3056.54 2553.46,3079.57 2556.42,3101.91 2559.39,3124.94 2562.36,3146.83 2565.32,3168.28 2568.29,3188.6 2571.25,3207.56 2574.22,3226.07 2577.19,3242.55 2580.15,3256.99 2583.12,3268.51 2586.08,3278.21 2589.05,3285.44 2592.02,3292.21 2594.98,3298.08 2597.95,3303.04 2600.92,3309.36 2603.88,3315.01 2606.85,3321.33 2609.81,3327.65 2612.78,3333.29 2615.75,3339.39 2618.71,3345.03 2621.68,3350.67 2624.64,3357.67 2627.61,3365.35 2630.58,3377.08 2633.54,3389.05 2636.51,3404.4 2639.47,3420.65 2642.44,3441.64 2645.41,3461.96 2648.37,3482.05 2651.34,3502.82 2654.31,3522.23 2657.27,3541.64 2660.24,3559.25 2663.2,3576.86 2666.17,3592.43 2669.14,3605.08 2672.1,3614.33 2675.07,3620.42 2678.03,3622.68 2681,3622.68 2683.97,3618.39 2686.93,3612.75 2689.9,3603.49 2692.86,3591.53 2695.83,3573.02 2698.8,3552.25 2701.76,3529 2704.73,3502.37 2707.7,3474.15 2710.66,3443.45 2713.63,3410.49 2716.59,3374.83 2719.56,3338.03 2722.53,3301.69 2725.49,3262.86 2728.46,3224.49 2731.42,3182.73 2734.39,3131.03 2737.36,3067.83 2740.32,2997.85 2743.29,2916.36 2746.25,2829.45 2749.22,2732.84 2752.19,2624.71 2755.15,2506.88 2758.12,2378.89 2761.08,2241.19 2764.05,2094.46 2767.02,1946.61 2769.98,1791.3 2772.95,1632.61 2775.92,1465.57 2778.88,1294.24 2781.85,1135.54 2784.81,988.592 2787.78,853.152 2790.75,736.221 2793.71,628.32 2796.68,533.964 2799.64,448.185 2802.61,373.015 2805.58,310.713 2808.54,262.406 2811.51,233.737 2814.47,225.16 2817.44,241.412 2820.41,270.532 2823.37,319.968 2826.34,391.751 2829.31,515.002 2832.27,697.621 2835.24,827.192 2838.2,965.341 2841.17,1118.39 2844.14,1291.53 2847.1,1478.89 2850.07,1631.26 2853.03,1782.27 2856,1934.42 2858.97,2088.14 2861.93,2241.64 2864.9,2396.04 2867.86,2552.25 2870.83,2679.57 2873.8,2798.53 2876.76,2912.97 2879.73,3012.07 2882.7,3080.02 2885.66,3108.91 2888.63,3198.3 2891.59,3245.48 2894.56,3278.44 2897.53,3291.76 2900.49,3290.85 2903.46,3326.52 2906.42,3363.77 2909.39,3401.46 2912.36,3434.42 2915.32,3465.12 2918.29,3489.5 2921.25,3504.4 2924.22,3535.1 2927.19,3566.25 2930.15,3591.31 2933.12,3615.23 2936.09,3628.33 2939.05,3632.84 2942.02,3620.88 2944.98,3634.42 2947.95,3646.61 2950.92,3652.25 2953.88,3656.99 2956.85,3661.73 2959.81,3666.47 2962.78,3671.67 2965.75,3681.37 2968.71,3692.21 2971.68,3701.91 2974.64,3708.46 2977.61,3715.46 2980.58,3721.78 2983.54,3728.1 2986.51,3735.78 2989.47,3746.16 2992.44,3756.54 2995.41,3767.38 2998.37,3781.15 3001.34,3793.11 3004.31,3803.5 3007.27,3814.33 3010.24,3822.68 3013.2,3828.78 3016.17,3833.74 3019.14,3838.03 3022.1,3841.42 3025.07,3844.58 3028.03,3849.32 3031,3852.93 3033.97,3856.54 3036.93,3859.93 3039.9,3862.19 3042.86,3864.44 3045.83,3867.83 3048.8,3866.7 3051.76,3865.35 3054.73,3867.15 3057.7,3868.28 3060.66,3870.09 3063.63,3870.54 3066.59,3870.31 3069.56,3869.18 3072.53,3869.41 3075.49,3871.67 3078.46,3872.34 3081.42,3875.96 3084.39,3879.12 3087.36,3882.5 3090.32,3886.79 3093.29,3894.69 3096.25,3901.24 3099.22,3901.24 3102.19,3903.72 3105.15,3906.43 3108.12,3908.69 3111.09,3912.3 3114.05,3915.01 3117.02,3918.85 3119.98,3923.81 3122.95,3927.2 3125.92,3930.13 3128.88,3932.16 3131.85,3936.23 3134.81,3938.71 3137.78,3942.32 3140.75,3944.58 3143.71,3945.93 3146.68,3943.9 3149.64,3940.97 3152.61,3941.87 3155.58,3943.68 3158.54,3945.03 3161.51,3945.26 3164.48,3945.48 3167.44,3945.03 3170.41,3944.13 3173.37,3942.55 3176.34,3943.45 3179.31,3944.13 3182.27,3944.58 3185.24,3943.9 3188.2,3942.1 3191.17,3940.06 3194.14,3939.84 3197.1,3940.74 3200.07,3941.64 3203.03,3941.87 3206,3941.87 3208.97,3941.64 3211.93,3940.52 3214.9,3940.06 3217.86,3940.29 3220.83,3941.19 3223.8,3941.42 3226.76,3941.42 3229.73,3940.97 3232.7,3939.39 3235.66,3936.45 3238.63,3934.2 3241.59,3932.62 3244.56,3929.68 3247.53,3924.94 3250.49,3919.52 3253.46,3912.07 3256.42,3905.75 3259.39,3901.92 3262.36,3899.66 3265.32,3896.05 3268.29,3890.18 3271.25,3881.6 3274.22,3872.12 3277.19,3861.28 3280.15,3849.77 3283.12,3838.94 3286.09,3828.78 3289.05,3818.17 3292.02,3807.33 3294.98,3792.89 3297.95,3780.92 3300.92,3768.28 3303.88,3753.83 3306.85,3739.84 3309.81,3721.78 3312.78,3697.17 3315.75,3666.02 3318.71,3636.23 3321.68,3607.33 3324.64,3578.21 3327.61,3548.42 3330.58,3519.75 3333.54,3491.08 3336.51,3462.19 3339.48,3434.19 3342.44,3410.94 3345.41,3414.33 3348.37,3393.79 3351.34,3369.18 3354.31,3343 3357.27,3314.1 3360.24,3282.73 3363.2,3256.99 3366.17,3233.07 3369.14,3212.52 3372.1,3194.46 3375.07,3183.18 3378.03,3173.47 3381,3163.31 3383.97,3152.03 3386.93,3139.16 3389.9,3125.62 3392.86,3110.04 3395.83,3090.4 3398.8,3043 3401.76,3018.84 3404.73,2996.04 3407.7,2974.83 3410.66,2957.44 3413.63,2939.16 3416.59,2917.71 3419.56,2898.08 3422.53,2883.18 3425.49,2893.11 3428.46,2908.23 3431.42,2903.27 3434.39,2916.81 3437.36,2933.29 3440.32,2953.16 3443.29,2977.99 3446.25,3023.81 3449.22,3074.6 3452.19,3117.04 3455.15,3161.51 3458.12,3204.62 3461.09,3250.67 3464.05,3298.53 3467.02,3352.48 3469.98,3410.04 3472.95,3466.7 3475.92,3521.55 3478.88,3551.35 3481.85,3572.34 3484.81,3617.72 3487.78,3651.35 3490.75,3687.47 3493.71,3716.14 3496.68,3739.84 3499.64,3745.03 3502.61,3745.03 3505.58,3755.41 3508.54,3768.28 3511.51,3784.53 3514.48,3798.53 3517.44,3812.07 3520.41,3826.29 3523.37,3838.03 3526.34,3852.25 3529.31,3866.25 3532.27,3879.34 3535.24,3889.95 3538.2,3895.59 3541.17,3895.14 3544.14,3892.66 3547.1,3898.53 3550.07,3905.98 3553.03,3913.2 3556,3918.85 3558.97,3922.68 3561.93,3926.29 3564.9,3930.36 3567.87,3935.55 3570.83,3940.52 3573.8,3944.13 3576.76,3946.38 3579.73,3947.51 3582.7,3947.97 3585.66,3948.42 3588.63,3950.45 3591.59,3953.61 3594.56,3956.99 3597.53,3958.35 3600.49,3958.57 3603.46,3958.12 3606.42,3956.32 3609.39,3957.67 3612.36,3961.06 3615.32,3964.9 3618.29,3965.57 3621.25,3965.35 3624.22,3965.12 3627.19,3964.67 3630.15,3966.25 3633.12,3967.83 3636.09,3968.28 3639.05,3967.15 3642.02,3963.99 3644.98,3961.06 3647.95,3959.93 3650.92,3960.15 3653.88,3960.38 3656.85,3960.15 3659.81,3959.25 3662.78,3958.8 3665.75,3957.22 3668.71,3954.74 3671.68,3954.74 3674.64,3956.77 3677.61,3959.93 3680.58,3960.38 3683.54,3959.93 3686.51,3959.7 3689.48,3961.28 3692.44,3964.44 3695.41,3968.96 3698.37,3973.7 3701.34,3975.28 3704.31,3977.08 3707.27,3978.21 3710.24,3979.79 3713.2,3983.18 3716.17,3985.66 3719.14,3988.37 3722.1,3991.08 3725.07,3994.01 3728.03,3995.37 3731,3995.59 3733.97,3998.08 3736.93,4001.01 3739.9,4004.17 3742.87,4005.3 3745.83,4004.85 3748.8,4003.5 3751.76,4001.46 3754.73,4001.46 3757.7,4001.24 3760.66,4001.92 3763.63,4001.46 3766.59,4000.11 3769.56,3998.08 3772.53,3995.14 3775.49,3992.66 3778.46,3990.63 3781.42,3989.27 3784.39,3987.02 3787.36,3984.31 3790.32,3981.15 3793.29,3977.31 3796.25,3975.5 3799.22,3975.05 3802.19,3975.73 3805.15,3974.38 3808.12,3972.12 3811.09,3968.06 3814.05,3963.99 3817.02,3959.7 3819.98,3956.77 3822.95,3955.87 3825.92,3954.29 3828.88,3951.8 3831.85,3948.19 3834.81,3942.1 3837.78,3936.45 3840.75,3932.84 3843.71,3929.68 3846.68,3925.17 3849.64,3919.07 3852.61,3912.07 3855.58,3903.27 3858.54,3897.63 3861.51,3891.53 3864.48,3886.57 3867.44,3880.7 3870.41,3875.5 3873.37,3871.67 3876.34,3871.22 3879.31,3871.89 3882.27,3873.47 3885.24,3875.5 3888.2,3872.57 3891.17,3867.6 3894.14,3862.19 3897.1,3855.41 3900.07,3850.67 3903.03,3848.87 3906,3851.58 3908.97,3854.51 3911.93,3855.41 3914.9,3857.9 3917.87,3858.35 3920.83,3858.35 3923.8,3861.28 3926.76,3864.67 3929.73,3857.45 3932.7,3849.54 3935.66,3839.39 3938.63,3827.2 3941.59,3823.36 3944.56,3825.39 3947.53,3830.58 3950.49,3833.29 3953.46,3832.84 3956.42,3829.23 3959.39,3820.88 3962.36,3814.1 3965.32,3812.07 3968.29,3813.43 3971.26,3813.43 3974.22,3812.52 3977.19,3808.01 3980.15,3800.33 3983.12,3801.69 3986.09,3809.59 3989.05,3821.33 3992.02,3829.45 3994.98,3833.74 3997.95,3834.2 4000.92,3831.71 4003.88,3833.97 4006.85,3840.52 4009.81,3849.09 4012.78,3855.41 4015.75,3859.7 4018.71,3858.35 4021.68,3852.93 4024.64,3853.16 4027.61,3858.35 4030.58,3866.7 4033.54,3872.57 4036.51,3875.28 4039.48,3872.12 4042.44,3866.25 4045.41,3867.83 4048.37,3872.12 4051.34,3877.99 4054.31,3880.47 4057.27,3881.15 4060.24,3879.79 4063.2,3875.96 4066.17,3875.73 4069.14,3879.57 4072.1,3888.82 4075.07,3898.75 4078.03,3903.5 4081,3902.14 4083.97,3897.63 4086.93,3899.43 4089.9,3902.37 4092.87,3906.66 4095.83,3912.07 4098.8,3915.91 4101.76,3918.39 4104.73,3919.75 4107.7,3922.01 4110.66,3925.62 4113.63,3930.13 4116.59,3935.32 4119.56,3938.71 4122.53,3939.16 4125.49,3937.36 4128.46,3936.23 4131.42,3938.26 4134.39,3943.68 4137.36,3949.77 4140.32,3952.93 4143.29,3954.96 4146.26,3955.64 4149.22,3956.99 4152.19,3958.12 4155.15,3961.06 4158.12,3961.96 4161.09,3965.12 4164.05,3967.15 4167.02,3968.96 4169.98,3971.89 4172.95,3976.86 4175.92,3982.28 4178.88,3985.66 4181.85,3987.69 4184.81,3989.27 4187.78,3990.18 4190.75,3991.76 4193.71,3992.66 4196.68,3993.79 4199.65,3996.27 4202.61,3996.95 4205.58,3996.95 4208.54,3996.5 4211.51,3998.76 4214.48,4000.11 4217.44,4002.14 4220.41,4004.17 4223.37,4004.4 4226.34,4003.27 4229.31,4002.14 4232.27,4001.92 4235.24,4002.37 4238.2,4003.27 4241.17,4003.72 4244.14,4003.95 4247.1,4004.85 4250.07,4005.3 4253.03,4005.3 4256,4005.75 4258.97,4006.88 4261.93,4007.33 4264.9,4007.33 4267.87,4007.33 4270.83,4007.33 4273.8,4007.33 4276.76,4008.46 4279.73,4009.59 4282.7,4010.04 4285.66,4010.49 4288.63,4010.72 4291.59,4010.94 4294.56,4011.85 4297.53,4012.52 4300.49,4012.98 4303.46,4013.43 4306.42,4013.2 4309.39,4013.65 4312.36,4013.43 4315.32,4013.65 4318.29,4012.75 4321.26,4012.52 4324.22,4012.3 4327.19,4011.85 4330.15,4011.85 4333.12,4011.4 4336.09,4011.62 4339.05,4012.07 4342.02,4012.75 4344.98,4012.98 4347.95,4013.2 4350.92,4012.98 4353.88,4012.98 4356.85,4012.52 4359.81,4012.52 4362.78,4012.52 4365.75,4012.52 4368.71,4012.75 4371.68,4013.65 4374.65,4013.88 4377.61,4014.11 4380.58,4014.33 4383.54,4014.33 4386.51,4015.01 4389.48,4015.46 4392.44,4015.46 4395.41,4015.46 4398.37,4015.23 4401.34,4015.46 4404.31,4016.14 4407.27,4015.69 4410.24,4015.91 4413.2,4015.91 4416.17,4015.91 4419.14,4016.14 4422.1,4016.36 4425.07,4016.59 4428.03,4016.36 4431,4016.36 4433.97,4016.14 4436.93,4015.69 4439.9,4015.01 4442.87,4015.01 4445.83,4015.23 4448.8,4014.78 4451.76,4015.23 4454.73,4015.01 4457.7,4014.78 4460.66,4015.01 4463.63,4015.23 4466.59,4015.46 4469.56,4014.78 4472.53,4013.88 4475.49,4013.88 4478.46,4013.2 4481.42,4012.98 4484.39,4012.3 4487.36,4012.75 4490.32,4012.75 4493.29,4012.98 4496.26,4012.75 4499.22,4012.75 4502.19,4012.07 4505.15,4011.85 4508.12,4012.07 4511.09,4011.62 4514.05,4009.82 4517.02,4008.46 4519.98,4007.11 4522.95,4007.11 4525.92,4008.24 4528.88,4008.24 4531.85,4006.88 4534.81,4006.88 4537.78,4006.43 4540.75,4005.75 4543.71,4006.2 4546.68,4006.66 4549.65,4006.88 4552.61,4005.98 4555.58,4005.53 4558.54,4005.3 4561.51,4003.95 4564.48,4003.95 4567.44,4005.98 4570.41,4007.33 4573.37,4006.88 4576.34,4005.75 4579.31,4005.08 4582.27,4003.04 4585.24,4003.5 4588.2,4003.72 4591.17,4004.85 4594.14,4002.59 4597.1,3999.66 4600.07,3997.85 4603.04,3994.69 4606,3994.92 4608.97,3995.59 4611.93,3995.82 4614.9,3991.76 4617.87,3989.05 4620.83,3984.76 4623.8,3980.24 4626.76,3978.66 4629.73,3976.63 4632.7,3975.28 4635.66,3977.31 4638.63,3972.12 4641.59,3966.02 4644.56,3958.57 4647.53,3952.93 4650.49,3952.93 4653.46,3953.38 4656.42,3947.51 4659.39,3941.19 4662.36,3933.97 4665.32,3923.59 4668.29,3920.2 4671.26,3920.65 4674.22,3923.81 4677.19,3919.07 4680.15,3910.49 4683.12,3903.27 4686.09,3892.43 4689.05,3878.21 4692.02,3877.54 4694.98,3880.24 4697.95,3877.08 4700.92,3870.54 4703.88,3854.06 4706.85,3835.32 4709.81,3822.68 4712.78,3808.91 4715.75,3801.92 4718.71,3792.21 4721.68,3782.95 4724.65,3763.99 4727.61,3743.45 4730.58,3730.58 4733.54,3726.29 4736.51,3730.58 4739.48,3721.1 4742.44,3715.91 4745.41,3704.17 4748.37,3685.89 4751.34,3677.99 4754.31,3682.95 4757.27,3699.88 4760.24,3695.37 4763.2,3694.92 4766.17,3692.89 4769.14,3687.92 4772.1,3688.6 4775.07,3702.59 4778.04,3721.78 4781,3727.2 4783.97,3735.55 4786.93,3736.45 4789.9,3735.1 4792.87,3748.19 4795.83,3766.25 4798.8,3785.21 4801.76,3803.27 4804.73,3820.65 4807.7,3826.07 4810.66,3827.65 4813.63,3850.45 4816.59,3871.22 4819.56,3894.01 4822.53,3909.82 4825.49,3924.94 4828.46,3924.71 4831.42,3922.91 4834.39,3936 4837.36,3949.77 4840.32,3964.67 4843.29,3968.51 4846.26,3975.28 4849.22,3974.38 4852.19,3972.8 4855.15,3973.7 4858.12,3974.6 4861.09,3979.12 4864.05,3977.99 4867.02,3977.54 4869.98,3975.96 4872.95,3974.15 4875.92,3976.41 4878.88,3980.47 4881.85,3984.53 4884.81,3986.34 4887.78,3987.69 4890.75,3984.99 4893.71,3983.63 4896.68,3986.11 4899.65,3988.37 4902.61,3989.95 4905.58,3989.73 4908.54,3991.76 4911.51,3989.73 4914.48,3986.34 4917.44,3987.47 4920.41,3989.5 4923.37,3991.53 4926.34,3992.66 4929.31,3990.85 4932.27,3989.05 4935.24,3986.79 4938.2,3987.92 4941.17,3989.5 4944.14,3991.98 4947.1,3992.66 4950.07,3992.89 4953.04,3990.4 4956,3988.37 4958.97,3989.95 4961.93,3990.63 4964.9,3991.76 4967.87,3994.47 4970.83,3991.53 4973.8,3988.82 4976.76,3987.47 4979.73,3986.79 4982.7,3990.4 4985.66,3992.66 4988.63,3992.66 4991.59,3992.43 4994.56,3991.76 4997.53,3990.85 5000.49,3991.08 5003.46,3992.21 5006.43,3994.92 5009.39,3996.27 5012.36,3995.37 5015.32,3994.69 5018.29,3993.56 5021.26,3994.01 5024.22,3997.85 5027.19,4000.34 5030.15,4001.24 5033.12,4001.24 5036.09,4001.01 5039.05,3999.21 5042.02,4001.01 5044.98,4002.59 5047.95,4003.5 5050.92,4003.95 5053.88,4003.72 5056.85,4003.5 5059.81,4003.04 5062.78,4003.5 5065.75,4004.85 5068.71,4005.75 5071.68,4006.66 5074.65,4005.98 5077.61,4004.62 5080.58,4004.17 5083.54,4005.53 5086.51,4006.66 5089.48,4007.11 5092.44,4008.24 5095.41,4008.01 5098.37,4007.33 5101.34,4006.43 5104.31,4006.66 5107.27,4007.78 5110.24,4008.46 5113.2,4008.46 5116.17,4008.01 5119.14,4007.33 5122.1,4007.33 5125.07,4008.46 5128.04,4008.91 5131,4008.91 5133.97,4009.14 5136.93,4008.24 5139.9,4007.56 5142.87,4005.3 5145.83,4003.95 5148.8,4003.04 5151.76,4003.04 5154.73,4003.04 5157.7,4003.5 5160.66,4003.5 5163.63,4003.27 5166.59,4003.27 5169.56,4004.17 5172.53,4004.85 5175.49,4004.62 5178.46,4003.95 5181.43,4003.72 5184.39,4005.08 5187.36,4005.75 5190.32,4006.66 5193.29,4007.33 5196.26,4008.01 5199.22,4008.24 5202.19,4009.59 5205.15,4010.49 5208.12,4010.94 5211.09,4010.94 5214.05,4010.94 5217.02,4010.94 5219.98,4011.4 5222.95,4011.62 5225.92,4010.94 5228.88,4010.72 5231.85,4011.17 5234.82,4012.07 5237.78,4012.07 5240.75,4010.72 5243.71,4009.59 5246.68,4009.82 5249.65,4011.17 5252.61,4012.98 5255.58,4013.43 5258.54,4012.07 5261.51,4011.85 5264.48,4011.4 5267.44,4010.94 5270.41,4010.49 5273.37,4010.49 5276.34,4010.72 5279.31,4010.72 5282.27,4010.27 5285.24,4010.72 5288.2,4010.72 5291.17,4010.04 5294.14,4011.17 5297.1,4012.3 5300.07,4012.07 5303.04,4011.85 5306,4010.94 5308.97,4010.49 5311.93,4011.85 5314.9,4012.52 5317.87,4012.98 5320.83,4012.75 5323.8,4013.2 5326.76,4013.2 5329.73,4013.2 5332.7,4013.88 5335.66,4014.78 5338.63,4014.78 5341.59,4014.33 5344.56,4014.33 5347.53,4013.88 5350.49,4013.88 5353.46,4014.11 5356.43,4014.56 5359.39,4015.46 5362.36,4015.69 5365.32,4015.46 5368.29,4015.46 5371.26,4015.23 5374.22,4015.91 5377.19,4016.14 5380.15,4016.14 5383.12,4015.23 5386.09,4014.78 5389.05,4014.56 5392.02,4014.56 5394.98,4014.78 5397.95,4015.46 5400.92,4016.14 5403.88,4014.56 5406.85,4013.2 5409.82,4012.07 5412.78,4012.07 5415.75,4011.4 5418.71,4011.17 5421.68,4011.17 5424.65,4010.94 5427.61,4009.36 5430.58,4008.24 5433.54,4007.56 5436.51,4007.56 5439.48,4008.01 5442.44,4008.24 5445.41,4006.2 5448.37,4005.53 5451.34,4004.17 5454.31,4003.5 5457.27,4004.4 5460.24,4005.08 5463.2,4006.2 5466.17,4004.17 5469.14,4002.82 5472.1,4001.24 5475.07,3998.76 5478.04,3996.72 5481,3997.18 5483.97,3998.3 5486.93,3996.95 5489.9,3996.72 5492.87,3995.59 5495.83,3993.11 5498.8,3992.89 5501.76,3992.89 5504.73,3994.01 5507.7,3992.66 5510.66,3990.85 5513.63,3989.73 5516.59,3987.02 5519.56,3986.79 5522.53,3988.15 5525.49,3990.18 5528.46,3990.4 5531.43,3991.53 5534.39,3991.31 5537.36,3989.05 5540.32,3987.92 5543.29,3988.6 5546.26,3989.5 5549.22,3988.37 5552.19,3985.21 5555.15,3981.37 5558.12,3977.99 5561.09,3974.83 5564.05,3977.08 5567.02,3978.89 5569.98,3977.99 5572.95,3976.18 5575.92,3974.6 5578.88,3972.57 5581.85,3970.76 5584.82,3971.67 5587.78,3973.02 5590.75,3972.34 5593.71,3971.89 5596.68,3969.64 5599.65,3967.6 5602.61,3970.09 5605.58,3974.15 5608.54,3978.89 5611.51,3979.79 5614.48,3980.7 5617.44,3979.34 5620.41,3977.31 5623.37,3979.12 5626.34,3982.73 5629.31,3984.99 5632.27,3986.11 5635.24,3987.02 5638.21,3985.89 5641.17,3983.18 5644.14,3982.28 5647.1,3985.21 5650.07,3987.92 5653.04,3987.02 5656,3986.11 5658.97,3985.66 5661.93,3982.95 5664.9,3983.18 5667.87,3986.11 5670.83,3987.47 5673.8,3987.02 5676.76,3984.76 5679.73,3981.37 5682.7,3979.57 5685.66,3976.63 5688.63,3979.12 5691.59,3980.7 5694.56,3982.05 5697.53,3984.53 5700.49,3983.18 5703.46,3981.83 5706.43,3984.08 5709.39,3984.53 5712.36,3986.34 5715.32,3989.05 5718.29,3990.4 5721.26,3988.82 5724.22,3988.15 5727.19,3989.73 5730.15,3993.34 5733.12,3997.18 5736.09,3997.85 5739.05,3999.21 5742.02,3999.88 5744.98,3998.53 5747.95,3998.98 5750.92,4000.11 5753.88,4001.92 5756.85,4001.24 5759.82,4001.69 5762.78,4001.69 5765.75,3998.3 5768.71,3996.95 5771.68,3997.63 5774.65,4000.34 5777.61,3999.43 5780.58,3998.08 5783.54,3997.18 5786.51,3996.72 5789.48,3996.5 5792.44,3998.53 5795.41,3998.3 5798.37,3998.3 5801.34,3997.4 5804.31,3995.59 5807.27,3995.14 5810.24,3995.82 5813.21,3996.05 5816.17,3997.63 5819.14,4000.34 5822.1,4000.56 5825.07,3999.88 5828.04,3998.08 5831,3998.76 5833.97,4000.56 5836.93,4001.92 5839.9,4001.24 5842.87,4000.56 5845.83,3999.66 5848.8,3996.95 5851.76,3997.63 5854.73,3998.76 5857.7,4000.56 5860.66,4000.11 5863.63,4000.56 5866.59,3998.76 5869.56,3997.18 5872.53,3997.63 5875.49,3996.5 5878.46,3996.95 5881.43,3998.76 5884.39,3999.66 5887.36,4000.11 5890.32,3999.66 5893.29,4000.11 5896.26,4002.37 5899.22,4003.72 5902.19,4005.75 5905.15,4006.43 5908.12,4006.88 5911.09,4006.66 5914.05,4006.88 5917.02,4007.56 5919.98,4009.59 5922.95,4009.36 5925.92,4006.88 5928.88,4008.46 5931.85,4008.46 5934.82,4008.69 5937.78,4008.91 5940.75,4008.91 5943.71,4008.69 5946.68,4008.46 5949.65,4008.24 5952.61,4006.66 5955.58,4007.33 5958.54,4007.33 5961.51,4007.56 5964.48,4007.33 5967.44,4008.01 5970.41,4008.01 5973.37,4007.78 5976.34,4008.24 5979.31,4010.72 5982.27,4011.17 5985.24,4010.27 5988.21,4009.82 5991.17,4009.59 5994.14,4009.59 5997.1,4009.59 6000.07,4010.49 6003.04,4010.72 6006,4011.62 6008.97,4010.94 6011.93,4010.49 6014.9,4010.49 6017.87,4010.04 6020.83,4010.04 6023.8,4010.27 6026.76,4010.27 6029.73,4010.49 6032.7,4010.72 6035.66,4010.04 6038.63,4011.4 6041.6,4011.85 6044.56,4012.07 6047.53,4011.62 6050.49,4011.85 6053.46,4011.62 6056.43,4010.94 6059.39,4011.17 6062.36,4011.62 6065.32,4012.07 6068.29,4012.07 6071.26,4012.3 6074.22,4012.07 6077.19,4011.4 6080.15,4011.4 6083.12,4012.07 6086.09,4012.07 6089.05,4012.3 6092.02,4012.3 6094.98,4011.85 6097.95,4011.85 6100.92,4011.62 6103.88,4012.07 6106.85,4011.85 6109.82,4012.52 6112.78,4012.98 6115.75,4013.2 6118.71,4013.2 6121.68,4012.52 6124.65,4012.98 6127.61,4013.43 6130.58,4014.11 6133.54,4014.11 6136.51,4014.33 6139.48,4014.33 6142.44,4013.65 6145.41,4013.88 6148.37,4014.33 6151.34,4013.87 6154.31,4013.68 6157.27,4012.45 6160.24,4011.35 6163.21,4009.51 6166.17,4007.41 6169.14,4005.33 6172.1,4002.85 6175.07,4000.91 6178.04,3998.64 6181,3995.85 6183.97,3993.04 6186.93,3990.47 6189.9,3987.95 6192.87,3985.29 6195.83,3984.1 6198.8,3981.73 6201.76,3979.55 6204.73,3978.08 6207.7,3977.28 6210.66,3977.16 6213.63,3977.7 6216.6,3978.82 6219.56,3980.44 6222.53,3982.46 6225.49,3984.8 6228.46,3987.37 6231.43,3990.07 6234.39,3992.83 6237.36,3995.59 6240.32,3998.33 6243.29,4001.01 6246.26,4003.59 6249.22,4006.05 6252.19,4008.33 6255.15,4010.42 6258.12,4012.28 6261.09,4013.87 6264.05,4015.17 6267.02,4016.17 6269.99,4016.89 6272.95,4017.36 6275.92,4017.65 6278.88,4017.79 6281.85,4017.84 6284.82,4017.86 6287.78,4017.89 6290.75,4017.57 6293.71,4016.95 6296.68,4016.11 6299.65,4015.42 6302.61,4014.92 6305.58,4014.61 6308.54,4014.46 6311.51,4014.43 6314.48,4014.5 6317.44,4014.54 6320.41,4014.56 6323.37,4014.56 6326.34,4014.56 6329.31,4014.56 6332.27,4014.56 6335.24,4014.56 6338.21,4014.56 6341.17,4014.56 6344.14,4014.93 6347.1,4015.61 6350.07,4016.52 6353.04,4017.29 6356,4017.87 6358.97,4018.27 6361.93,4018.51 6364.9,4018.62 6367.87,4018.55 6370.83,4018.25 6373.8,4018.01 6376.76,4017.85 6379.73,4017.76 6382.7,4017.72 6385.66,4017.72 6388.63,4017.72 6391.6,4017.72 6394.56,4017.72 6397.53,4017.72 6400.49,4017.72 6403.46,4017.72 6406.43,4017.71 6409.39,4017.67 6412.36,4017.63 6415.32,4017.59 6418.29,4017.56 6421.26,4017.62 6424.22,4017.89 6427.19,4018.08 6430.15,4018.15 6433.12,4018.09 6436.09,4017.89 6439.05,4017.56 6442.02,4017.12 6444.99,4016.59 6447.95,4016.02 6450.92,4015.44 6453.88,4014.87 6456.85,4014.36 6459.82,4013.96 6462.78,4013.7 6465.75,4013.54 6468.71,4013.44 6471.68,4013.37 6474.65,4013.3 6477.61,4013.2 6480.58,4013.07 6483.54,4012.9 6486.51,4012.73 6489.48,4012.59 6492.44,4012.53 6495.41,4012.57 6498.37,4012.71 6501.34,4012.94 6504.31,4013.23 6507.27,4013.55 6510.24,4013.85 6513.21,4014.09 6516.17,4014.23 6519.14,4014.29 6522.1,4014.29 6525.07,4014.24 6528.04,4014.19 6531,4014.15 6533.97,4014.17 6536.93,4014.26 6539.9,4014.41 6542.87,4014.61 6545.83,4014.82 6548.8,4015.04 6551.76,4015.22 6554.73,4015.35 6557.7,4015.41 6560.66,4015.39 6563.63,4015.3 6566.6,4015.15 6569.56,4014.97 6572.53,4014.77 6575.49,4014.59 6578.46,4014.44 6581.43,4014.35 6584.39,4014.33 6587.36,4014.39 6590.32,4014.51 6593.29,4014.66 6596.26,4014.8 6599.22,4014.9 6602.19,4014.95 6605.15,4014.9 6608.12,4014.75 6611.09,4014.5 6614.05,4014.19 6617.02,4013.83 6619.99,4013.44 6622.95,4013.04 6625.92,4012.62 6628.88,4012.19 6631.85,4011.73 6634.82,4011.23 6637.78,4010.69 6640.75,4010.09 6643.71,4009.47 6646.68,4008.86 6649.65,4008.3 6652.61,4007.8 6655.58,4007.41 6658.54,4007.15 6661.51,4007.04 6664.48,4007.05 6667.44,4007.18 6670.41,4007.4 6673.38,4007.69 6676.34,4008.03 6679.31,4008.4 6682.27,4008.79 6685.24,4009.18 6688.21,4009.58 6691.17,4009.97 6694.14,4010.36 6697.1,4010.72 6700.07,4011.05 6703.04,4011.33 6706,4011.56 6708.97,4011.75 6711.93,4011.88 6714.9,4011.97 6717.87,4012.03 6720.83,4012.07 6723.8,4012.11 6726.76,4012.15 6729.73,4012.2 6732.7,4012.27 6735.66,4012.35 6738.63,4012.43 6741.6,4012.5 6744.56,4012.55 6747.53,4012.57 6750.49,4012.57 6753.46,4012.53 6756.43,4012.46 6759.39,4012.38 6762.36,4012.28 6765.32,4012.17 6768.29,4012.05 6771.26,4011.9 6774.22,4011.72 6777.19,4011.51 6780.15,4011.27 6783.12,4011.01 6786.09,4010.74 6789.05,4010.48 6792.02,4010.25 6794.99,4010.07 6797.95,4009.94 6800.92,4009.86 6803.88,4009.81 6806.85,4009.8 6809.82,4009.82 6812.78,4009.83 6815.75,4009.85 6818.71,4009.85 6821.68,4009.85 6824.65,4009.85 6827.61,4009.85 6830.58,4009.85 6833.54,4009.82 6836.51,4009.76 6839.48,4009.67 6842.44,4009.54 6845.41,4009.35 6848.38,4009.12 6851.34,4008.84 6854.31,4008.56 6857.27,4008.28 6860.24,4008.01 6863.21,4007.73 6866.17,4007.46 6869.14,4007.18 6872.1,4006.87 6875.07,4006.52 6878.04,4006.1 6881,4005.63 6883.97,4005.14 6886.93,4004.63 6889.9,4004.14 6892.87,4003.68 6895.83,4003.27 6898.8,4002.91 6901.77,4002.59 6904.73,4002.29 6907.7,4001.98 6910.66,4001.65 6913.63,4001.28 6916.6,4000.89 6919.56,4000.47 6922.53,4000.06 6925.49,3999.67 6928.46,3999.34 6931.43,3999.08 6934.39,3998.88 6937.36,3998.73 "/>
<polyline clip-path="url(#clip511)" style="stroke:#008000; stroke-linecap:round; stroke-linejoin:round; stroke-width:8; stroke-opacity:1; fill:none" stroke-dasharray="32, 20" points="465.321,8153.49 465.321,-3909.71 "/>
<polyline clip-path="url(#clip511)" style="stroke:#ff0000; stroke-linecap:round; stroke-linejoin:round; stroke-width:8; stroke-opacity:1; fill:none" stroke-dasharray="32, 20" points="1506.42,8153.49 1506.42,-3909.71 "/>
<polyline clip-path="url(#clip511)" style="stroke:#008000; stroke-linecap:round; stroke-linejoin:round; stroke-width:8; stroke-opacity:1; fill:none" stroke-dasharray="32, 20" points="1506.42,8153.49 1506.42,-3909.71 "/>
<polyline clip-path="url(#clip511)" style="stroke:#ff0000; stroke-linecap:round; stroke-linejoin:round; stroke-width:8; stroke-opacity:1; fill:none" stroke-dasharray="32, 20" points="1883.12,8153.49 1883.12,-3909.71 "/>
<polyline clip-path="url(#clip511)" style="stroke:#008000; stroke-linecap:round; stroke-linejoin:round; stroke-width:8; stroke-opacity:1; fill:none" stroke-dasharray="32, 20" points="1883.12,8153.49 1883.12,-3909.71 "/>
<polyline clip-path="url(#clip511)" style="stroke:#ff0000; stroke-linecap:round; stroke-linejoin:round; stroke-width:8; stroke-opacity:1; fill:none" stroke-dasharray="32, 20" points="1951.34,8153.49 1951.34,-3909.71 "/>
<polyline clip-path="url(#clip511)" style="stroke:#008000; stroke-linecap:round; stroke-linejoin:round; stroke-width:8; stroke-opacity:1; fill:none" stroke-dasharray="32, 20" points="1951.34,8153.49 1951.34,-3909.71 "/>
<polyline clip-path="url(#clip511)" style="stroke:#ff0000; stroke-linecap:round; stroke-linejoin:round; stroke-width:8; stroke-opacity:1; fill:none" stroke-dasharray="32, 20" points="2087.78,8153.49 2087.78,-3909.71 "/>
<polyline clip-path="url(#clip511)" style="stroke:#008000; stroke-linecap:round; stroke-linejoin:round; stroke-width:8; stroke-opacity:1; fill:none" stroke-dasharray="32, 20" points="2087.78,8153.49 2087.78,-3909.71 "/>
<polyline clip-path="url(#clip511)" style="stroke:#ff0000; stroke-linecap:round; stroke-linejoin:round; stroke-width:8; stroke-opacity:1; fill:none" stroke-dasharray="32, 20" points="2615.75,8153.49 2615.75,-3909.71 "/>
<polyline clip-path="url(#clip511)" style="stroke:#008000; stroke-linecap:round; stroke-linejoin:round; stroke-width:8; stroke-opacity:1; fill:none" stroke-dasharray="32, 20" points="2615.75,8153.49 2615.75,-3909.71 "/>
<polyline clip-path="url(#clip511)" style="stroke:#ff0000; stroke-linecap:round; stroke-linejoin:round; stroke-width:8; stroke-opacity:1; fill:none" stroke-dasharray="32, 20" points="2891.59,8153.49 2891.59,-3909.71 "/>
<polyline clip-path="url(#clip511)" style="stroke:#008000; stroke-linecap:round; stroke-linejoin:round; stroke-width:8; stroke-opacity:1; fill:none" stroke-dasharray="32, 20" points="2891.59,8153.49 2891.59,-3909.71 "/>
<polyline clip-path="url(#clip511)" style="stroke:#ff0000; stroke-linecap:round; stroke-linejoin:round; stroke-width:8; stroke-opacity:1; fill:none" stroke-dasharray="32, 20" points="3208.97,8153.49 3208.97,-3909.71 "/>
<polyline clip-path="url(#clip511)" style="stroke:#008000; stroke-linecap:round; stroke-linejoin:round; stroke-width:8; stroke-opacity:1; fill:none" stroke-dasharray="32, 20" points="3208.97,8153.49 3208.97,-3909.71 "/>
<polyline clip-path="url(#clip511)" style="stroke:#ff0000; stroke-linecap:round; stroke-linejoin:round; stroke-width:8; stroke-opacity:1; fill:none" stroke-dasharray="32, 20" points="3621.25,8153.49 3621.25,-3909.71 "/>
<polyline clip-path="url(#clip511)" style="stroke:#008000; stroke-linecap:round; stroke-linejoin:round; stroke-width:8; stroke-opacity:1; fill:none" stroke-dasharray="32, 20" points="3621.25,8153.49 3621.25,-3909.71 "/>
<polyline clip-path="url(#clip511)" style="stroke:#ff0000; stroke-linecap:round; stroke-linejoin:round; stroke-width:8; stroke-opacity:1; fill:none" stroke-dasharray="32, 20" points="3864.48,8153.49 3864.48,-3909.71 "/>
<polyline clip-path="url(#clip511)" style="stroke:#008000; stroke-linecap:round; stroke-linejoin:round; stroke-width:8; stroke-opacity:1; fill:none" stroke-dasharray="32, 20" points="3864.48,8153.49 3864.48,-3909.71 "/>
<polyline clip-path="url(#clip511)" style="stroke:#ff0000; stroke-linecap:round; stroke-linejoin:round; stroke-width:8; stroke-opacity:1; fill:none" stroke-dasharray="32, 20" points="4072.1,8153.49 4072.1,-3909.71 "/>
<polyline clip-path="url(#clip511)" style="stroke:#008000; stroke-linecap:round; stroke-linejoin:round; stroke-width:8; stroke-opacity:1; fill:none" stroke-dasharray="32, 20" points="4072.1,8153.49 4072.1,-3909.71 "/>
<polyline clip-path="url(#clip511)" style="stroke:#ff0000; stroke-linecap:round; stroke-linejoin:round; stroke-width:8; stroke-opacity:1; fill:none" stroke-dasharray="32, 20" points="4389.48,8153.49 4389.48,-3909.71 "/>
<polyline clip-path="url(#clip511)" style="stroke:#008000; stroke-linecap:round; stroke-linejoin:round; stroke-width:8; stroke-opacity:1; fill:none" stroke-dasharray="32, 20" points="4389.48,8153.49 4389.48,-3909.71 "/>
<polyline clip-path="url(#clip511)" style="stroke:#ff0000; stroke-linecap:round; stroke-linejoin:round; stroke-width:8; stroke-opacity:1; fill:none" stroke-dasharray="32, 20" points="4795.83,8153.49 4795.83,-3909.71 "/>
<polyline clip-path="url(#clip511)" style="stroke:#008000; stroke-linecap:round; stroke-linejoin:round; stroke-width:8; stroke-opacity:1; fill:none" stroke-dasharray="32, 20" points="4795.83,8153.49 4795.83,-3909.71 "/>
<polyline clip-path="url(#clip511)" style="stroke:#ff0000; stroke-linecap:round; stroke-linejoin:round; stroke-width:8; stroke-opacity:1; fill:none" stroke-dasharray="32, 20" points="5231.85,8153.49 5231.85,-3909.71 "/>
<polyline clip-path="url(#clip511)" style="stroke:#008000; stroke-linecap:round; stroke-linejoin:round; stroke-width:8; stroke-opacity:1; fill:none" stroke-dasharray="32, 20" points="5231.85,8153.49 5231.85,-3909.71 "/>
<polyline clip-path="url(#clip511)" style="stroke:#ff0000; stroke-linecap:round; stroke-linejoin:round; stroke-width:8; stroke-opacity:1; fill:none" stroke-dasharray="32, 20" points="5700.49,8153.49 5700.49,-3909.71 "/>
<polyline clip-path="url(#clip511)" style="stroke:#008000; stroke-linecap:round; stroke-linejoin:round; stroke-width:8; stroke-opacity:1; fill:none" stroke-dasharray="32, 20" points="5700.49,8153.49 5700.49,-3909.71 "/>
<polyline clip-path="url(#clip511)" style="stroke:#ff0000; stroke-linecap:round; stroke-linejoin:round; stroke-width:8; stroke-opacity:1; fill:none" stroke-dasharray="32, 20" points="6418.29,8153.49 6418.29,-3909.71 "/>
<path clip-path="url(#clip510)" d="M499.839 343.654 L1442.83 343.654 L1442.83 245.391 L499.839 245.391  Z" fill="#ffffff" fill-rule="evenodd" fill-opacity="1"/>
<polyline clip-path="url(#clip510)" style="stroke:#000000; stroke-linecap:round; stroke-linejoin:round; stroke-width:4; stroke-opacity:1; fill:none" points="499.839,343.654 1442.83,343.654 1442.83,245.391 499.839,245.391 499.839,343.654 "/>
<polyline clip-path="url(#clip510)" style="stroke:#0000ff; stroke-linecap:round; stroke-linejoin:round; stroke-width:8; stroke-opacity:1; fill:none" points="576.065,294.523 1033.42,294.523 "/>
<g clip-path="url(#clip510)">
<text style="fill:#000000; fill-opacity:1; font-family:Century Gothic,CenturyGothic,AppleGothic,sans-serif; font-size:47px; text-anchor:start;" transform="rotate(0, 1109.65, 312.023)" x="1109.65" y="312.023">Total Cases</text>
</g>
<polyline clip-path="url(#clip510)" style="stroke:#000000; stroke-linecap:round; stroke-linejoin:round; stroke-width:4; stroke-opacity:1; fill:none" points="7131.52,4132.42 7131.52,111.356 "/>
<polyline clip-path="url(#clip510)" style="stroke:#000000; stroke-linecap:round; stroke-linejoin:round; stroke-width:2; stroke-opacity:0.5; fill:none" points="271.16,4132.42 271.16,111.356 "/>
<polyline clip-path="url(#clip510)" style="stroke:#000000; stroke-linecap:round; stroke-linejoin:round; stroke-width:4; stroke-opacity:1; fill:none" points="7131.52,4018.62 7112.62,4018.62 "/>
<polyline clip-path="url(#clip510)" style="stroke:#000000; stroke-linecap:round; stroke-linejoin:round; stroke-width:4; stroke-opacity:1; fill:none" points="7131.52,3259.93 7112.62,3259.93 "/>
<polyline clip-path="url(#clip510)" style="stroke:#000000; stroke-linecap:round; stroke-linejoin:round; stroke-width:4; stroke-opacity:1; fill:none" points="7131.52,2501.24 7112.62,2501.24 "/>
<polyline clip-path="url(#clip510)" style="stroke:#000000; stroke-linecap:round; stroke-linejoin:round; stroke-width:4; stroke-opacity:1; fill:none" points="7131.52,1742.54 7112.62,1742.54 "/>
<polyline clip-path="url(#clip510)" style="stroke:#000000; stroke-linecap:round; stroke-linejoin:round; stroke-width:4; stroke-opacity:1; fill:none" points="7131.52,983.852 7112.62,983.852 "/>
<polyline clip-path="url(#clip510)" style="stroke:#000000; stroke-linecap:round; stroke-linejoin:round; stroke-width:4; stroke-opacity:1; fill:none" points="7131.52,225.16 7112.62,225.16 "/>
<g clip-path="url(#clip510)">
<text style="fill:#000000; fill-opacity:1; font-family:Century Gothic,CenturyGothic,AppleGothic,sans-serif; font-size:47px; text-anchor:middle;" transform="rotate(0, 7361.16, 4036.12)" x="7361.16" y="4036.12">moderate</text>
</g>
<g clip-path="url(#clip510)">
<text style="fill:#000000; fill-opacity:1; font-family:Century Gothic,CenturyGothic,AppleGothic,sans-serif; font-size:47px; text-anchor:middle;" transform="rotate(0, 7424.19, 3277.43)" x="7424.19" y="3277.43">moderate-high</text>
</g>
<g clip-path="url(#clip510)">
<text style="fill:#000000; fill-opacity:1; font-family:Century Gothic,CenturyGothic,AppleGothic,sans-serif; font-size:47px; text-anchor:middle;" transform="rotate(0, 7295.59, 2518.74)" x="7295.59" y="2518.74">high</text>
</g>
<g clip-path="url(#clip510)">
<text style="fill:#000000; fill-opacity:1; font-family:Century Gothic,CenturyGothic,AppleGothic,sans-serif; font-size:47px; text-anchor:middle;" transform="rotate(0, 7422.56, 1760.04)" x="7422.56" y="1760.04">mild-moderate</text>
</g>
<g clip-path="url(#clip510)">
<text style="fill:#000000; fill-opacity:1; font-family:Century Gothic,CenturyGothic,AppleGothic,sans-serif; font-size:47px; text-anchor:middle;" transform="rotate(0, 7293.96, 1001.35)" x="7293.96" y="1001.35">mild</text>
</g>
<g clip-path="url(#clip510)">
<text style="fill:#000000; fill-opacity:1; font-family:Century Gothic,CenturyGothic,AppleGothic,sans-serif; font-size:65px; text-anchor:middle;" transform="rotate(-90, 7774.82, 2121.89)" x="7774.82" y="2121.89">Strain Severity</text>
</g>
<polyline clip-path="url(#clip511)" style="stroke:#ffa500; stroke-linecap:round; stroke-linejoin:round; stroke-width:8; stroke-opacity:1; fill:none" points="776.762,4018.62 779.728,4018.62 782.694,4018.62 785.66,4018.62 788.626,4018.62 791.592,4018.62 794.559,4018.62 797.525,4018.62 800.491,4018.62 803.457,4018.62 806.423,4018.62 809.389,4018.62 812.355,4018.62 815.321,4018.62 818.287,4018.62 821.253,4018.62 824.22,4018.62 827.186,4018.62 830.152,4018.62 833.118,4018.62 836.084,4018.62 839.05,4018.62 842.016,4018.62 844.982,4018.62 847.948,4018.62 850.915,4018.62 853.881,4018.62 856.847,4018.62 859.813,4018.62 862.779,4018.62 865.745,4018.62 868.711,4018.62 871.677,4018.62 874.643,4018.62 877.609,4018.62 880.576,4018.62 883.542,4018.62 886.508,4018.62 889.474,4018.62 892.44,4018.62 895.406,4018.62 898.372,4018.62 901.338,4018.62 904.304,4018.62 907.27,4018.62 910.237,4018.62 913.203,4018.62 916.169,4018.62 919.135,4018.62 922.101,4018.62 925.067,4018.62 928.033,4018.62 930.999,4018.62 933.965,4018.62 936.932,4018.62 939.898,4018.62 942.864,4018.62 945.83,4018.62 948.796,4018.62 951.762,4018.62 954.728,4018.62 957.694,4018.62 960.66,4018.62 963.626,4018.62 966.593,4018.62 969.559,4018.62 972.525,4018.62 975.491,4018.62 978.457,4018.62 981.423,4018.62 984.389,4018.62 987.355,4018.62 990.321,4018.62 993.287,4018.62 996.254,4018.62 999.22,4018.62 1002.19,4018.62 1005.15,4018.62 1008.12,4018.62 1011.08,4018.62 1014.05,4018.62 1017.02,4018.62 1019.98,4018.62 1022.95,4018.62 1025.91,4018.62 1028.88,4018.62 1031.85,4018.62 1034.81,4018.62 1037.78,4018.62 1040.75,4018.62 1043.71,4018.62 1046.68,4018.62 1049.64,4018.62 1052.61,4018.62 1055.58,4018.62 1058.54,4018.62 1061.51,4018.62 1064.47,4018.62 1067.44,4018.62 1070.41,4018.62 1073.37,4018.62 1076.34,4018.62 1079.3,4018.62 1082.27,4018.62 1085.24,4018.62 1088.2,4018.62 1091.17,4018.62 1094.13,4018.62 1097.1,4018.62 1100.07,4018.62 1103.03,4018.62 1106,4018.62 1108.97,4018.62 1111.93,4018.62 1114.9,4018.62 1117.86,4018.62 1120.83,4018.62 1123.8,4018.62 1126.76,4018.62 1129.73,4018.62 1132.69,4018.62 1135.66,4018.62 1138.63,4018.62 1141.59,4018.62 1144.56,4018.62 1147.52,4018.62 1150.49,4018.62 1153.46,4018.62 1156.42,4018.62 1159.39,4018.62 1162.36,4018.62 1165.32,4018.62 1168.29,4018.62 1171.25,4018.62 1174.22,4018.62 1177.19,4018.62 1180.15,4018.62 1183.12,4018.62 1186.08,4018.62 1189.05,4018.62 1192.02,4018.62 1194.98,4018.62 1197.95,4018.62 1200.91,4018.62 1203.88,4018.62 1206.85,4018.62 1209.81,4018.62 1212.78,4018.62 1215.75,4018.62 1218.71,4018.62 1221.68,4018.62 1224.64,4018.62 1227.61,4018.62 1230.58,4018.62 1233.54,4018.62 1236.51,4018.62 1239.47,4018.62 1242.44,4018.62 1245.41,4018.62 1248.37,4018.62 1251.34,4018.62 1254.3,4018.62 1257.27,4018.62 1260.24,4018.62 1263.2,4018.62 1266.17,4018.62 1269.14,4018.62 1272.1,4018.62 1275.07,4018.62 1278.03,4018.62 1281,4018.62 1283.97,4018.62 1286.93,4018.62 1289.9,4018.62 1292.86,4018.62 1295.83,4018.62 1298.8,4018.62 1301.76,4018.62 1304.73,4018.62 1307.69,4018.62 1310.66,4018.62 1313.63,4018.62 1316.59,4018.62 1319.56,4018.62 1322.52,4018.62 1325.49,4018.62 1328.46,4018.62 1331.42,4018.62 1334.39,4018.62 1337.36,4018.62 1340.32,4018.62 1343.29,4018.62 1346.25,4018.62 1349.22,4018.62 1352.19,4018.62 1355.15,4018.62 1358.12,4018.62 1361.08,4018.62 1364.05,4018.62 1367.02,4018.62 1369.98,4018.62 1372.95,4018.62 1375.91,4018.62 1378.88,4018.62 1381.85,4018.62 1384.81,4018.62 1387.78,4018.62 1390.75,4018.62 1393.71,4018.62 1396.68,4018.62 1399.64,4018.62 1402.61,4018.62 1405.58,4018.62 1408.54,4018.62 1411.51,4018.62 1414.47,4018.62 1417.44,4018.62 1420.41,4018.62 1423.37,4018.62 1426.34,4018.62 1429.3,4018.62 1432.27,4018.62 1435.24,4018.62 1438.2,4018.62 1441.17,4018.62 1444.14,4018.62 1447.1,4018.62 1450.07,4018.62 1453.03,4018.62 1456,4018.62 1458.97,4018.62 1461.93,4018.62 1464.9,4018.62 1467.86,4018.62 1470.83,4018.62 1473.8,4018.62 1476.76,4018.62 1479.73,4018.62 1482.69,4018.62 1485.66,4018.62 1488.63,4018.62 1491.59,4018.62 1494.56,4018.62 1497.53,4018.62 1500.49,4018.62 1503.46,4018.62 1506.42,3259.93 1509.39,3259.93 1512.36,3259.93 1515.32,3259.93 1518.29,3259.93 1521.25,3259.93 1524.22,3259.93 1527.19,3259.93 1530.15,3259.93 1533.12,3259.93 1536.08,3259.93 1539.05,3259.93 1542.02,3259.93 1544.98,3259.93 1547.95,3259.93 1550.91,3259.93 1553.88,3259.93 1556.85,3259.93 1559.81,3259.93 1562.78,3259.93 1565.75,3259.93 1568.71,3259.93 1571.68,3259.93 1574.64,3259.93 1577.61,3259.93 1580.58,3259.93 1583.54,3259.93 1586.51,3259.93 1589.47,3259.93 1592.44,3259.93 1595.41,3259.93 1598.37,3259.93 1601.34,3259.93 1604.3,3259.93 1607.27,3259.93 1610.24,3259.93 1613.2,3259.93 1616.17,3259.93 1619.14,3259.93 1622.1,3259.93 1625.07,3259.93 1628.03,3259.93 1631,3259.93 1633.97,3259.93 1636.93,3259.93 1639.9,3259.93 1642.86,3259.93 1645.83,3259.93 1648.8,3259.93 1651.76,3259.93 1654.73,3259.93 1657.69,3259.93 1660.66,3259.93 1663.63,3259.93 1666.59,3259.93 1669.56,3259.93 1672.53,3259.93 1675.49,3259.93 1678.46,3259.93 1681.42,3259.93 1684.39,3259.93 1687.36,3259.93 1690.32,3259.93 1693.29,3259.93 1696.25,3259.93 1699.22,3259.93 1702.19,3259.93 1705.15,3259.93 1708.12,3259.93 1711.08,3259.93 1714.05,3259.93 1717.02,3259.93 1719.98,3259.93 1722.95,3259.93 1725.91,3259.93 1728.88,3259.93 1731.85,3259.93 1734.81,3259.93 1737.78,3259.93 1740.75,3259.93 1743.71,3259.93 1746.68,3259.93 1749.64,3259.93 1752.61,3259.93 1755.58,3259.93 1758.54,3259.93 1761.51,3259.93 1764.47,3259.93 1767.44,3259.93 1770.41,3259.93 1773.37,3259.93 1776.34,3259.93 1779.3,3259.93 1782.27,3259.93 1785.24,3259.93 1788.2,3259.93 1791.17,3259.93 1794.14,3259.93 1797.1,3259.93 1800.07,3259.93 1803.03,3259.93 1806,3259.93 1808.97,3259.93 1811.93,3259.93 1814.9,3259.93 1817.86,3259.93 1820.83,3259.93 1823.8,3259.93 1826.76,3259.93 1829.73,3259.93 1832.69,3259.93 1835.66,3259.93 1838.63,3259.93 1841.59,3259.93 1844.56,3259.93 1847.53,3259.93 1850.49,3259.93 1853.46,3259.93 1856.42,3259.93 1859.39,3259.93 1862.36,3259.93 1865.32,3259.93 1868.29,3259.93 1871.25,3259.93 1874.22,3259.93 1877.19,3259.93 1880.15,3259.93 1883.12,3259.93 1886.08,3259.93 1889.05,3259.93 1892.02,3259.93 1894.98,3259.93 1897.95,3259.93 1900.92,3259.93 1903.88,3259.93 1906.85,3259.93 1909.81,3259.93 1912.78,3259.93 1915.75,3259.93 1918.71,3259.93 1921.68,3259.93 1924.64,3259.93 1927.61,3259.93 1930.58,3259.93 1933.54,3259.93 1936.51,3259.93 1939.47,3259.93 1942.44,3259.93 1945.41,3259.93 1948.37,3259.93 1951.34,3259.93 1954.3,3259.93 1957.27,3259.93 1960.24,3259.93 1963.2,3259.93 1966.17,3259.93 1969.14,3259.93 1972.1,3259.93 1975.07,3259.93 1978.03,3259.93 1981,3259.93 1983.97,3259.93 1986.93,3259.93 1989.9,3259.93 1992.86,3259.93 1995.83,3259.93 1998.8,3259.93 2001.76,3259.93 2004.73,3259.93 2007.69,3259.93 2010.66,3259.93 2013.63,3259.93 2016.59,3259.93 2019.56,3259.93 2022.53,3259.93 2025.49,3259.93 2028.46,3259.93 2031.42,3259.93 2034.39,3259.93 2037.36,3259.93 2040.32,3259.93 2043.29,3259.93 2046.25,3259.93 2049.22,3259.93 2052.19,3259.93 2055.15,3259.93 2058.12,3259.93 2061.08,3259.93 2064.05,3259.93 2067.02,3259.93 2069.98,3259.93 2072.95,3259.93 2075.92,3259.93 2078.88,3259.93 2081.85,3259.93 2084.81,3259.93 2087.78,2501.24 2090.75,2501.24 2093.71,2501.24 2096.68,2501.24 2099.64,2501.24 2102.61,2501.24 2105.58,2501.24 2108.54,2501.24 2111.51,2501.24 2114.47,2501.24 2117.44,2501.24 2120.41,2501.24 2123.37,2501.24 2126.34,2501.24 2129.3,2501.24 2132.27,2501.24 2135.24,2501.24 2138.2,2501.24 2141.17,2501.24 2144.14,2501.24 2147.1,2501.24 2150.07,2501.24 2153.03,2501.24 2156,2501.24 2158.97,2501.24 2161.93,2501.24 2164.9,2501.24 2167.86,2501.24 2170.83,2501.24 2173.8,2501.24 2176.76,2501.24 2179.73,2501.24 2182.69,2501.24 2185.66,2501.24 2188.63,2501.24 2191.59,2501.24 2194.56,2501.24 2197.53,2501.24 2200.49,2501.24 2203.46,2501.24 2206.42,2501.24 2209.39,2501.24 2212.36,2501.24 2215.32,2501.24 2218.29,2501.24 2221.25,2501.24 2224.22,2501.24 2227.19,2501.24 2230.15,2501.24 2233.12,2501.24 2236.08,2501.24 2239.05,2501.24 2242.02,2501.24 2244.98,2501.24 2247.95,2501.24 2250.92,2501.24 2253.88,2501.24 2256.85,2501.24 2259.81,2501.24 2262.78,2501.24 2265.75,2501.24 2268.71,2501.24 2271.68,2501.24 2274.64,2501.24 2277.61,2501.24 2280.58,2501.24 2283.54,2501.24 2286.51,2501.24 2289.47,2501.24 2292.44,2501.24 2295.41,2501.24 2298.37,2501.24 2301.34,2501.24 2304.31,2501.24 2307.27,2501.24 2310.24,2501.24 2313.2,2501.24 2316.17,2501.24 2319.14,2501.24 2322.1,2501.24 2325.07,2501.24 2328.03,2501.24 2331,2501.24 2333.97,2501.24 2336.93,2501.24 2339.9,2501.24 2342.86,2501.24 2345.83,2501.24 2348.8,2501.24 2351.76,2501.24 2354.73,2501.24 2357.69,2501.24 2360.66,2501.24 2363.63,2501.24 2366.59,2501.24 2369.56,2501.24 2372.53,2501.24 2375.49,2501.24 2378.46,2501.24 2381.42,2501.24 2384.39,2501.24 2387.36,2501.24 2390.32,2501.24 2393.29,2501.24 2396.25,2501.24 2399.22,2501.24 2402.19,2501.24 2405.15,2501.24 2408.12,2501.24 2411.08,2501.24 2414.05,2501.24 2417.02,2501.24 2419.98,2501.24 2422.95,2501.24 2425.92,2501.24 2428.88,2501.24 2431.85,2501.24 2434.81,2501.24 2437.78,2501.24 2440.75,2501.24 2443.71,2501.24 2446.68,2501.24 2449.64,2501.24 2452.61,2501.24 2455.58,2501.24 2458.54,2501.24 2461.51,2501.24 2464.47,2501.24 2467.44,2501.24 2470.41,2501.24 2473.37,2501.24 2476.34,2501.24 2479.31,2501.24 2482.27,2501.24 2485.24,2501.24 2488.2,2501.24 2491.17,2501.24 2494.14,2501.24 2497.1,2501.24 2500.07,2501.24 2503.03,2501.24 2506,2501.24 2508.97,2501.24 2511.93,2501.24 2514.9,2501.24 2517.86,2501.24 2520.83,2501.24 2523.8,2501.24 2526.76,2501.24 2529.73,2501.24 2532.7,2501.24 2535.66,2501.24 2538.63,2501.24 2541.59,2501.24 2544.56,2501.24 2547.53,2501.24 2550.49,2501.24 2553.46,2501.24 2556.42,2501.24 2559.39,2501.24 2562.36,2501.24 2565.32,2501.24 2568.29,2501.24 2571.25,2501.24 2574.22,2501.24 2577.19,2501.24 2580.15,2501.24 2583.12,2501.24 2586.08,2501.24 2589.05,2501.24 2592.02,2501.24 2594.98,2501.24 2597.95,2501.24 2600.92,2501.24 2603.88,2501.24 2606.85,2501.24 2609.81,2501.24 2612.78,2501.24 2615.75,1742.54 2618.71,1742.54 2621.68,1742.54 2624.64,1742.54 2627.61,1742.54 2630.58,1742.54 2633.54,1742.54 2636.51,1742.54 2639.47,1742.54 2642.44,1742.54 2645.41,1742.54 2648.37,1742.54 2651.34,1742.54 2654.31,1742.54 2657.27,1742.54 2660.24,1742.54 2663.2,1742.54 2666.17,1742.54 2669.14,1742.54 2672.1,1742.54 2675.07,1742.54 2678.03,1742.54 2681,1742.54 2683.97,1742.54 2686.93,1742.54 2689.9,1742.54 2692.86,1742.54 2695.83,1742.54 2698.8,1742.54 2701.76,1742.54 2704.73,1742.54 2707.7,1742.54 2710.66,1742.54 2713.63,1742.54 2716.59,1742.54 2719.56,1742.54 2722.53,1742.54 2725.49,1742.54 2728.46,1742.54 2731.42,1742.54 2734.39,1742.54 2737.36,1742.54 2740.32,1742.54 2743.29,1742.54 2746.25,1742.54 2749.22,1742.54 2752.19,1742.54 2755.15,1742.54 2758.12,1742.54 2761.08,1742.54 2764.05,1742.54 2767.02,1742.54 2769.98,1742.54 2772.95,1742.54 2775.92,1742.54 2778.88,1742.54 2781.85,1742.54 2784.81,1742.54 2787.78,1742.54 2790.75,1742.54 2793.71,1742.54 2796.68,1742.54 2799.64,1742.54 2802.61,1742.54 2805.58,1742.54 2808.54,1742.54 2811.51,1742.54 2814.47,1742.54 2817.44,1742.54 2820.41,1742.54 2823.37,1742.54 2826.34,1742.54 2829.31,1742.54 2832.27,1742.54 2835.24,1742.54 2838.2,1742.54 2841.17,1742.54 2844.14,1742.54 2847.1,1742.54 2850.07,1742.54 2853.03,1742.54 2856,1742.54 2858.97,1742.54 2861.93,1742.54 2864.9,1742.54 2867.86,1742.54 2870.83,1742.54 2873.8,1742.54 2876.76,1742.54 2879.73,1742.54 2882.7,1742.54 2885.66,1742.54 2888.63,1742.54 2891.59,1742.54 2894.56,1742.54 2897.53,1742.54 2900.49,1742.54 2903.46,1742.54 2906.42,1742.54 2909.39,1742.54 2912.36,1742.54 2915.32,1742.54 2918.29,1742.54 2921.25,1742.54 2924.22,1742.54 2927.19,1742.54 2930.15,1742.54 2933.12,1742.54 2936.09,1742.54 2939.05,1742.54 2942.02,1742.54 2944.98,1742.54 2947.95,1742.54 2950.92,1742.54 2953.88,1742.54 2956.85,1742.54 2959.81,1742.54 2962.78,1742.54 2965.75,1742.54 2968.71,1742.54 2971.68,1742.54 2974.64,1742.54 2977.61,1742.54 2980.58,1742.54 2983.54,1742.54 2986.51,1742.54 2989.47,1742.54 2992.44,1742.54 2995.41,1742.54 2998.37,1742.54 3001.34,1742.54 3004.31,1742.54 3007.27,1742.54 3010.24,1742.54 3013.2,1742.54 3016.17,1742.54 3019.14,1742.54 3022.1,1742.54 3025.07,1742.54 3028.03,1742.54 3031,1742.54 3033.97,1742.54 3036.93,1742.54 3039.9,1742.54 3042.86,1742.54 3045.83,1742.54 3048.8,1742.54 3051.76,1742.54 3054.73,1742.54 3057.7,1742.54 3060.66,1742.54 3063.63,1742.54 3066.59,1742.54 3069.56,1742.54 3072.53,1742.54 3075.49,1742.54 3078.46,1742.54 3081.42,1742.54 3084.39,1742.54 3087.36,1742.54 3090.32,1742.54 3093.29,1742.54 3096.25,1742.54 3099.22,1742.54 3102.19,1742.54 3105.15,1742.54 3108.12,1742.54 3111.09,1742.54 3114.05,1742.54 3117.02,1742.54 3119.98,1742.54 3122.95,1742.54 3125.92,1742.54 3128.88,1742.54 3131.85,1742.54 3134.81,1742.54 3137.78,1742.54 3140.75,1742.54 3143.71,1742.54 3146.68,1742.54 3149.64,1742.54 3152.61,1742.54 3155.58,1742.54 3158.54,1742.54 3161.51,1742.54 3164.48,1742.54 3167.44,1742.54 3170.41,1742.54 3173.37,1742.54 3176.34,1742.54 3179.31,1742.54 3182.27,1742.54 3185.24,1742.54 3188.2,1742.54 3191.17,1742.54 3194.14,1742.54 3197.1,1742.54 3200.07,1742.54 3203.03,1742.54 3206,1742.54 3208.97,983.852 3211.93,983.852 3214.9,983.852 3217.86,983.852 3220.83,983.852 3223.8,983.852 3226.76,983.852 3229.73,983.852 3232.7,983.852 3235.66,983.852 3238.63,983.852 3241.59,983.852 3244.56,983.852 3247.53,983.852 3250.49,983.852 3253.46,983.852 3256.42,983.852 3259.39,983.852 3262.36,983.852 3265.32,983.852 3268.29,983.852 3271.25,983.852 3274.22,983.852 3277.19,983.852 3280.15,983.852 3283.12,983.852 3286.09,983.852 3289.05,983.852 3292.02,983.852 3294.98,983.852 3297.95,983.852 3300.92,983.852 3303.88,983.852 3306.85,983.852 3309.81,983.852 3312.78,983.852 3315.75,983.852 3318.71,983.852 3321.68,983.852 3324.64,983.852 3327.61,983.852 3330.58,983.852 3333.54,983.852 3336.51,983.852 3339.48,983.852 3342.44,983.852 3345.41,983.852 3348.37,983.852 3351.34,983.852 3354.31,983.852 3357.27,983.852 3360.24,983.852 3363.2,983.852 3366.17,983.852 3369.14,983.852 3372.1,983.852 3375.07,983.852 3378.03,983.852 3381,983.852 3383.97,983.852 3386.93,983.852 3389.9,983.852 3392.86,983.852 3395.83,983.852 3398.8,983.852 3401.76,983.852 3404.73,983.852 3407.7,983.852 3410.66,983.852 3413.63,983.852 3416.59,983.852 3419.56,983.852 3422.53,983.852 3425.49,983.852 3428.46,983.852 3431.42,983.852 3434.39,983.852 3437.36,983.852 3440.32,983.852 3443.29,983.852 3446.25,983.852 3449.22,983.852 3452.19,983.852 3455.15,983.852 3458.12,983.852 3461.09,983.852 3464.05,983.852 3467.02,983.852 3469.98,983.852 3472.95,983.852 3475.92,983.852 3478.88,983.852 3481.85,983.852 3484.81,983.852 3487.78,983.852 3490.75,983.852 3493.71,983.852 3496.68,983.852 3499.64,983.852 3502.61,983.852 3505.58,983.852 3508.54,983.852 3511.51,983.852 3514.48,983.852 3517.44,983.852 3520.41,983.852 3523.37,983.852 3526.34,983.852 3529.31,983.852 3532.27,983.852 3535.24,983.852 3538.2,983.852 3541.17,983.852 3544.14,983.852 3547.1,983.852 3550.07,983.852 3553.03,983.852 3556,983.852 3558.97,983.852 3561.93,983.852 3564.9,983.852 3567.87,983.852 3570.83,983.852 3573.8,983.852 3576.76,983.852 3579.73,983.852 3582.7,983.852 3585.66,983.852 3588.63,983.852 3591.59,983.852 3594.56,983.852 3597.53,983.852 3600.49,983.852 3603.46,983.852 3606.42,983.852 3609.39,983.852 3612.36,983.852 3615.32,983.852 3618.29,983.852 3621.25,983.852 3624.22,983.852 3627.19,983.852 3630.15,983.852 3633.12,983.852 3636.09,983.852 3639.05,983.852 3642.02,983.852 3644.98,983.852 3647.95,983.852 3650.92,983.852 3653.88,983.852 3656.85,983.852 3659.81,983.852 3662.78,983.852 3665.75,983.852 3668.71,983.852 3671.68,983.852 3674.64,983.852 3677.61,983.852 3680.58,983.852 3683.54,983.852 3686.51,983.852 3689.48,983.852 3692.44,983.852 3695.41,983.852 3698.37,983.852 3701.34,983.852 3704.31,983.852 3707.27,983.852 3710.24,983.852 3713.2,983.852 3716.17,983.852 3719.14,983.852 3722.1,983.852 3725.07,983.852 3728.03,983.852 3731,983.852 3733.97,983.852 3736.93,983.852 3739.9,983.852 3742.87,983.852 3745.83,983.852 3748.8,983.852 3751.76,983.852 3754.73,983.852 3757.7,983.852 3760.66,983.852 3763.63,983.852 3766.59,983.852 3769.56,983.852 3772.53,983.852 3775.49,983.852 3778.46,983.852 3781.42,983.852 3784.39,983.852 3787.36,983.852 3790.32,983.852 3793.29,983.852 3796.25,983.852 3799.22,983.852 3802.19,983.852 3805.15,983.852 3808.12,983.852 3811.09,983.852 3814.05,983.852 3817.02,983.852 3819.98,983.852 3822.95,983.852 3825.92,983.852 3828.88,983.852 3831.85,983.852 3834.81,983.852 3837.78,983.852 3840.75,983.852 3843.71,983.852 3846.68,983.852 3849.64,983.852 3852.61,983.852 3855.58,983.852 3858.54,983.852 3861.51,983.852 3864.48,983.852 3867.44,983.852 3870.41,983.852 3873.37,983.852 3876.34,983.852 3879.31,983.852 3882.27,983.852 3885.24,983.852 3888.2,983.852 3891.17,983.852 3894.14,983.852 3897.1,983.852 3900.07,983.852 3903.03,983.852 3906,983.852 3908.97,983.852 3911.93,983.852 3914.9,983.852 3917.87,983.852 3920.83,983.852 3923.8,983.852 3926.76,983.852 3929.73,983.852 3932.7,983.852 3935.66,983.852 3938.63,983.852 3941.59,983.852 3944.56,983.852 3947.53,983.852 3950.49,983.852 3953.46,983.852 3956.42,983.852 3959.39,983.852 3962.36,983.852 3965.32,983.852 3968.29,983.852 3971.26,983.852 3974.22,983.852 3977.19,983.852 3980.15,983.852 3983.12,983.852 3986.09,983.852 3989.05,983.852 3992.02,983.852 3994.98,983.852 3997.95,983.852 4000.92,983.852 4003.88,983.852 4006.85,983.852 4009.81,983.852 4012.78,983.852 4015.75,983.852 4018.71,983.852 4021.68,983.852 4024.64,983.852 4027.61,983.852 4030.58,983.852 4033.54,983.852 4036.51,983.852 4039.48,983.852 4042.44,983.852 4045.41,983.852 4048.37,983.852 4051.34,983.852 4054.31,983.852 4057.27,983.852 4060.24,983.852 4063.2,983.852 4066.17,983.852 4069.14,983.852 4072.1,983.852 4075.07,983.852 4078.03,983.852 4081,983.852 4083.97,983.852 4086.93,983.852 4089.9,983.852 4092.87,983.852 4095.83,983.852 4098.8,983.852 4101.76,983.852 4104.73,983.852 4107.7,983.852 4110.66,983.852 4113.63,983.852 4116.59,983.852 4119.56,983.852 4122.53,983.852 4125.49,983.852 4128.46,983.852 4131.42,983.852 4134.39,983.852 4137.36,983.852 4140.32,983.852 4143.29,983.852 4146.26,983.852 4149.22,983.852 4152.19,983.852 4155.15,983.852 4158.12,983.852 4161.09,983.852 4164.05,983.852 4167.02,983.852 4169.98,983.852 4172.95,983.852 4175.92,983.852 4178.88,983.852 4181.85,983.852 4184.81,983.852 4187.78,983.852 4190.75,983.852 4193.71,983.852 4196.68,983.852 4199.65,983.852 4202.61,983.852 4205.58,983.852 4208.54,983.852 4211.51,983.852 4214.48,983.852 4217.44,983.852 4220.41,983.852 4223.37,983.852 4226.34,983.852 4229.31,983.852 4232.27,983.852 4235.24,983.852 4238.2,983.852 4241.17,983.852 4244.14,983.852 4247.1,983.852 4250.07,983.852 4253.03,983.852 4256,983.852 4258.97,983.852 4261.93,983.852 4264.9,983.852 4267.87,983.852 4270.83,983.852 4273.8,983.852 4276.76,983.852 4279.73,983.852 4282.7,983.852 4285.66,983.852 4288.63,983.852 4291.59,983.852 4294.56,983.852 4297.53,983.852 4300.49,983.852 4303.46,983.852 4306.42,983.852 4309.39,983.852 4312.36,983.852 4315.32,983.852 4318.29,983.852 4321.26,983.852 4324.22,983.852 4327.19,983.852 4330.15,983.852 4333.12,983.852 4336.09,983.852 4339.05,983.852 4342.02,983.852 4344.98,983.852 4347.95,983.852 4350.92,983.852 4353.88,983.852 4356.85,983.852 4359.81,983.852 4362.78,983.852 4365.75,983.852 4368.71,983.852 4371.68,983.852 4374.65,983.852 4377.61,983.852 4380.58,983.852 4383.54,983.852 4386.51,983.852 4389.48,983.852 4392.44,983.852 4395.41,983.852 4398.37,983.852 4401.34,983.852 4404.31,983.852 4407.27,983.852 4410.24,983.852 4413.2,983.852 4416.17,983.852 4419.14,983.852 4422.1,983.852 4425.07,983.852 4428.03,983.852 4431,983.852 4433.97,983.852 4436.93,983.852 4439.9,983.852 4442.87,983.852 4445.83,983.852 4448.8,983.852 4451.76,983.852 4454.73,983.852 4457.7,983.852 4460.66,983.852 4463.63,983.852 4466.59,983.852 4469.56,983.852 4472.53,983.852 4475.49,983.852 4478.46,983.852 4481.42,983.852 4484.39,983.852 4487.36,983.852 4490.32,983.852 4493.29,983.852 4496.26,983.852 4499.22,983.852 4502.19,983.852 4505.15,983.852 4508.12,983.852 4511.09,983.852 4514.05,983.852 4517.02,983.852 4519.98,983.852 4522.95,983.852 4525.92,983.852 4528.88,983.852 4531.85,983.852 4534.81,983.852 4537.78,983.852 4540.75,983.852 4543.71,983.852 4546.68,983.852 4549.65,983.852 4552.61,983.852 4555.58,983.852 4558.54,983.852 4561.51,983.852 4564.48,983.852 4567.44,983.852 4570.41,983.852 4573.37,983.852 4576.34,983.852 4579.31,983.852 4582.27,983.852 4585.24,983.852 4588.2,983.852 4591.17,983.852 4594.14,983.852 4597.1,983.852 4600.07,983.852 4603.04,983.852 4606,983.852 4608.97,983.852 4611.93,983.852 4614.9,983.852 4617.87,983.852 4620.83,983.852 4623.8,983.852 4626.76,983.852 4629.73,983.852 4632.7,983.852 4635.66,983.852 4638.63,983.852 4641.59,983.852 4644.56,983.852 4647.53,983.852 4650.49,983.852 4653.46,983.852 4656.42,983.852 4659.39,983.852 4662.36,983.852 4665.32,983.852 4668.29,983.852 4671.26,983.852 4674.22,983.852 4677.19,983.852 4680.15,983.852 4683.12,983.852 4686.09,983.852 4689.05,983.852 4692.02,983.852 4694.98,983.852 4697.95,983.852 4700.92,983.852 4703.88,983.852 4706.85,983.852 4709.81,983.852 4712.78,983.852 4715.75,983.852 4718.71,983.852 4721.68,983.852 4724.65,983.852 4727.61,983.852 4730.58,983.852 4733.54,983.852 4736.51,983.852 4739.48,983.852 4742.44,983.852 4745.41,983.852 4748.37,983.852 4751.34,983.852 4754.31,983.852 4757.27,983.852 4760.24,983.852 4763.2,983.852 4766.17,983.852 4769.14,983.852 4772.1,983.852 4775.07,983.852 4778.04,983.852 4781,983.852 4783.97,983.852 4786.93,983.852 4789.9,983.852 4792.87,983.852 4795.83,983.852 4798.8,983.852 4801.76,983.852 4804.73,983.852 4807.7,983.852 4810.66,983.852 4813.63,983.852 4816.59,983.852 4819.56,983.852 4822.53,983.852 4825.49,983.852 4828.46,983.852 4831.42,983.852 4834.39,983.852 4837.36,983.852 4840.32,983.852 4843.29,983.852 4846.26,983.852 4849.22,983.852 4852.19,983.852 4855.15,983.852 4858.12,983.852 4861.09,983.852 4864.05,983.852 4867.02,983.852 4869.98,983.852 4872.95,983.852 4875.92,983.852 4878.88,983.852 4881.85,983.852 4884.81,983.852 4887.78,983.852 4890.75,983.852 4893.71,983.852 4896.68,983.852 4899.65,983.852 4902.61,983.852 4905.58,983.852 4908.54,983.852 4911.51,983.852 4914.48,983.852 4917.44,983.852 4920.41,983.852 4923.37,983.852 4926.34,983.852 4929.31,983.852 4932.27,983.852 4935.24,983.852 4938.2,983.852 4941.17,983.852 4944.14,983.852 4947.1,983.852 4950.07,983.852 4953.04,983.852 4956,983.852 4958.97,983.852 4961.93,983.852 4964.9,983.852 4967.87,983.852 4970.83,983.852 4973.8,983.852 4976.76,983.852 4979.73,983.852 4982.7,983.852 4985.66,983.852 4988.63,983.852 4991.59,983.852 4994.56,983.852 4997.53,983.852 5000.49,983.852 5003.46,983.852 5006.43,983.852 5009.39,983.852 5012.36,983.852 5015.32,983.852 5018.29,983.852 5021.26,983.852 5024.22,983.852 5027.19,983.852 5030.15,983.852 5033.12,983.852 5036.09,983.852 5039.05,983.852 5042.02,983.852 5044.98,983.852 5047.95,983.852 5050.92,983.852 5053.88,983.852 5056.85,983.852 5059.81,983.852 5062.78,983.852 5065.75,983.852 5068.71,983.852 5071.68,983.852 5074.65,983.852 5077.61,983.852 5080.58,983.852 5083.54,983.852 5086.51,983.852 5089.48,983.852 5092.44,983.852 5095.41,983.852 5098.37,983.852 5101.34,983.852 5104.31,983.852 5107.27,983.852 5110.24,983.852 5113.2,983.852 5116.17,983.852 5119.14,983.852 5122.1,983.852 5125.07,983.852 5128.04,983.852 5131,983.852 5133.97,983.852 5136.93,983.852 5139.9,983.852 5142.87,983.852 5145.83,983.852 5148.8,983.852 5151.76,983.852 5154.73,983.852 5157.7,983.852 5160.66,983.852 5163.63,983.852 5166.59,983.852 5169.56,983.852 5172.53,983.852 5175.49,983.852 5178.46,983.852 5181.43,983.852 5184.39,983.852 5187.36,983.852 5190.32,983.852 5193.29,983.852 5196.26,983.852 5199.22,983.852 5202.19,983.852 5205.15,983.852 5208.12,983.852 5211.09,983.852 5214.05,983.852 5217.02,983.852 5219.98,983.852 5222.95,983.852 5225.92,983.852 5228.88,983.852 5231.85,983.852 5234.82,983.852 5237.78,983.852 5240.75,983.852 5243.71,983.852 5246.68,983.852 5249.65,983.852 5252.61,983.852 5255.58,983.852 5258.54,983.852 5261.51,983.852 5264.48,983.852 5267.44,983.852 5270.41,983.852 5273.37,983.852 5276.34,983.852 5279.31,983.852 5282.27,983.852 5285.24,983.852 5288.2,983.852 5291.17,983.852 5294.14,983.852 5297.1,983.852 5300.07,983.852 5303.04,983.852 5306,983.852 5308.97,983.852 5311.93,983.852 5314.9,983.852 5317.87,983.852 5320.83,983.852 5323.8,983.852 5326.76,983.852 5329.73,983.852 5332.7,983.852 5335.66,983.852 5338.63,983.852 5341.59,983.852 5344.56,983.852 5347.53,983.852 5350.49,983.852 5353.46,983.852 5356.43,983.852 5359.39,983.852 5362.36,983.852 5365.32,983.852 5368.29,983.852 5371.26,983.852 5374.22,983.852 5377.19,983.852 5380.15,983.852 5383.12,983.852 5386.09,983.852 5389.05,983.852 5392.02,983.852 5394.98,983.852 5397.95,983.852 5400.92,983.852 5403.88,983.852 5406.85,983.852 5409.82,983.852 5412.78,983.852 5415.75,983.852 5418.71,983.852 5421.68,983.852 5424.65,983.852 5427.61,983.852 5430.58,983.852 5433.54,983.852 5436.51,983.852 5439.48,983.852 5442.44,983.852 5445.41,983.852 5448.37,983.852 5451.34,983.852 5454.31,983.852 5457.27,983.852 5460.24,983.852 5463.2,983.852 5466.17,983.852 5469.14,983.852 5472.1,983.852 5475.07,983.852 5478.04,983.852 5481,983.852 5483.97,983.852 5486.93,983.852 5489.9,983.852 5492.87,983.852 5495.83,983.852 5498.8,983.852 5501.76,983.852 5504.73,983.852 5507.7,983.852 5510.66,983.852 5513.63,983.852 5516.59,983.852 5519.56,983.852 5522.53,983.852 5525.49,983.852 5528.46,983.852 5531.43,983.852 5534.39,983.852 5537.36,983.852 5540.32,983.852 5543.29,983.852 5546.26,983.852 5549.22,983.852 5552.19,983.852 5555.15,983.852 5558.12,983.852 5561.09,983.852 5564.05,983.852 5567.02,983.852 5569.98,983.852 5572.95,983.852 5575.92,983.852 5578.88,983.852 5581.85,983.852 5584.82,983.852 5587.78,983.852 5590.75,983.852 5593.71,983.852 5596.68,983.852 5599.65,983.852 5602.61,983.852 5605.58,983.852 5608.54,983.852 5611.51,983.852 5614.48,983.852 5617.44,983.852 5620.41,983.852 5623.37,983.852 5626.34,983.852 5629.31,983.852 5632.27,983.852 5635.24,983.852 5638.21,983.852 5641.17,983.852 5644.14,983.852 5647.1,983.852 5650.07,983.852 5653.04,983.852 5656,983.852 5658.97,983.852 5661.93,983.852 5664.9,983.852 5667.87,983.852 5670.83,983.852 5673.8,983.852 5676.76,983.852 5679.73,983.852 5682.7,983.852 5685.66,983.852 5688.63,983.852 5691.59,983.852 5694.56,983.852 5697.53,983.852 5700.49,983.852 5703.46,983.852 5706.43,983.852 5709.39,983.852 5712.36,983.852 5715.32,983.852 5718.29,983.852 5721.26,983.852 5724.22,983.852 5727.19,983.852 5730.15,983.852 5733.12,983.852 5736.09,983.852 5739.05,983.852 5742.02,983.852 5744.98,983.852 5747.95,983.852 5750.92,983.852 5753.88,983.852 5756.85,983.852 5759.82,983.852 5762.78,983.852 5765.75,983.852 5768.71,983.852 5771.68,983.852 5774.65,983.852 5777.61,983.852 5780.58,983.852 5783.54,983.852 5786.51,983.852 5789.48,983.852 5792.44,983.852 5795.41,983.852 5798.37,983.852 5801.34,983.852 5804.31,983.852 5807.27,983.852 5810.24,983.852 5813.21,983.852 5816.17,983.852 5819.14,983.852 5822.1,983.852 5825.07,983.852 5828.04,983.852 5831,983.852 5833.97,983.852 5836.93,983.852 5839.9,983.852 5842.87,983.852 5845.83,983.852 5848.8,983.852 5851.76,983.852 5854.73,983.852 5857.7,983.852 5860.66,983.852 5863.63,983.852 5866.59,983.852 5869.56,983.852 5872.53,983.852 5875.49,983.852 5878.46,983.852 5881.43,983.852 5884.39,983.852 5887.36,983.852 5890.32,983.852 5893.29,983.852 5896.26,983.852 5899.22,983.852 5902.19,983.852 5905.15,983.852 5908.12,983.852 5911.09,983.852 5914.05,983.852 5917.02,983.852 5919.98,983.852 5922.95,983.852 5925.92,983.852 5928.88,983.852 5931.85,983.852 5934.82,983.852 5937.78,983.852 5940.75,983.852 5943.71,983.852 5946.68,983.852 5949.65,983.852 5952.61,983.852 5955.58,983.852 5958.54,983.852 5961.51,983.852 5964.48,983.852 5967.44,983.852 5970.41,983.852 5973.37,983.852 5976.34,983.852 5979.31,983.852 5982.27,983.852 5985.24,983.852 5988.21,983.852 5991.17,983.852 5994.14,983.852 5997.1,983.852 6000.07,983.852 6003.04,983.852 6006,983.852 6008.97,983.852 6011.93,983.852 6014.9,983.852 6017.87,983.852 6020.83,983.852 6023.8,983.852 6026.76,983.852 6029.73,983.852 6032.7,983.852 6035.66,983.852 6038.63,983.852 6041.6,983.852 6044.56,983.852 6047.53,983.852 6050.49,983.852 6053.46,983.852 6056.43,983.852 6059.39,983.852 6062.36,983.852 6065.32,983.852 6068.29,983.852 6071.26,983.852 6074.22,983.852 6077.19,983.852 6080.15,983.852 6083.12,983.852 6086.09,983.852 6089.05,983.852 6092.02,983.852 6094.98,983.852 6097.95,983.852 6100.92,983.852 6103.88,983.852 6106.85,983.852 6109.82,983.852 6112.78,983.852 6115.75,983.852 6118.71,983.852 6121.68,983.852 6124.65,983.852 6127.61,983.852 6130.58,983.852 6133.54,983.852 6136.51,983.852 6139.48,983.852 6142.44,983.852 6145.41,983.852 6148.37,983.852 6151.34,983.852 6154.31,983.852 6157.27,983.852 6160.24,983.852 6163.21,983.852 6166.17,983.852 6169.14,983.852 6172.1,983.852 6175.07,983.852 6178.04,983.852 6181,983.852 6183.97,983.852 6186.93,983.852 6189.9,983.852 6192.87,983.852 6195.83,983.852 6198.8,983.852 6201.76,983.852 6204.73,983.852 6207.7,983.852 6210.66,983.852 6213.63,983.852 6216.6,983.852 6219.56,983.852 6222.53,983.852 6225.49,983.852 6228.46,983.852 6231.43,983.852 6234.39,983.852 6237.36,983.852 6240.32,983.852 6243.29,983.852 6246.26,983.852 6249.22,983.852 6252.19,983.852 6255.15,983.852 6258.12,983.852 6261.09,983.852 6264.05,983.852 6267.02,983.852 6269.99,983.852 6272.95,983.852 6275.92,983.852 6278.88,983.852 6281.85,983.852 6284.82,983.852 6287.78,983.852 6290.75,983.852 6293.71,983.852 6296.68,983.852 6299.65,983.852 6302.61,983.852 6305.58,983.852 6308.54,983.852 6311.51,983.852 6314.48,983.852 6317.44,983.852 6320.41,983.852 6323.37,983.852 6326.34,983.852 6329.31,983.852 6332.27,983.852 6335.24,983.852 6338.21,983.852 6341.17,983.852 6344.14,983.852 6347.1,983.852 6350.07,983.852 6353.04,983.852 6356,983.852 6358.97,983.852 6361.93,983.852 6364.9,983.852 6367.87,983.852 6370.83,983.852 6373.8,983.852 6376.76,983.852 6379.73,983.852 6382.7,983.852 6385.66,983.852 6388.63,983.852 6391.6,983.852 6394.56,983.852 6397.53,983.852 6400.49,983.852 6403.46,983.852 6406.43,983.852 6409.39,983.852 6412.36,983.852 6415.32,983.852 6418.29,983.852 6421.26,225.16 6424.22,225.16 6427.19,225.16 6430.15,225.16 6433.12,225.16 6436.09,225.16 6439.05,225.16 6442.02,225.16 6444.99,225.16 6447.95,225.16 6450.92,225.16 6453.88,225.16 6456.85,225.16 6459.82,225.16 6462.78,225.16 6465.75,225.16 6468.71,225.16 6471.68,225.16 6474.65,225.16 6477.61,225.16 6480.58,225.16 6483.54,225.16 6486.51,225.16 6489.48,225.16 6492.44,225.16 6495.41,225.16 6498.37,225.16 6501.34,225.16 6504.31,225.16 6507.27,225.16 6510.24,225.16 6513.21,225.16 6516.17,225.16 6519.14,225.16 6522.1,225.16 6525.07,225.16 6528.04,225.16 6531,225.16 6533.97,225.16 6536.93,225.16 6539.9,225.16 6542.87,225.16 6545.83,225.16 6548.8,225.16 6551.76,225.16 6554.73,225.16 6557.7,225.16 6560.66,225.16 6563.63,225.16 6566.6,225.16 6569.56,225.16 6572.53,225.16 6575.49,225.16 6578.46,225.16 6581.43,225.16 6584.39,225.16 6587.36,225.16 6590.32,225.16 6593.29,225.16 6596.26,225.16 6599.22,225.16 6602.19,225.16 6605.15,225.16 6608.12,225.16 6611.09,225.16 6614.05,225.16 6617.02,225.16 6619.99,225.16 6622.95,225.16 6625.92,225.16 6628.88,225.16 6631.85,225.16 6634.82,225.16 6637.78,225.16 6640.75,225.16 6643.71,225.16 6646.68,225.16 6649.65,225.16 6652.61,225.16 6655.58,225.16 6658.54,225.16 6661.51,225.16 6664.48,225.16 6667.44,225.16 6670.41,225.16 6673.38,225.16 6676.34,225.16 6679.31,225.16 6682.27,225.16 6685.24,225.16 6688.21,225.16 6691.17,225.16 6694.14,225.16 6697.1,225.16 6700.07,225.16 6703.04,225.16 6706,225.16 6708.97,225.16 6711.93,225.16 6714.9,225.16 6717.87,225.16 6720.83,225.16 6723.8,225.16 6726.76,225.16 6729.73,225.16 6732.7,225.16 6735.66,225.16 6738.63,225.16 6741.6,225.16 6744.56,225.16 6747.53,225.16 6750.49,225.16 6753.46,225.16 6756.43,225.16 6759.39,225.16 6762.36,225.16 6765.32,225.16 6768.29,225.16 6771.26,225.16 6774.22,225.16 6777.19,225.16 6780.15,225.16 6783.12,225.16 6786.09,225.16 6789.05,225.16 6792.02,225.16 6794.99,225.16 6797.95,225.16 6800.92,225.16 6803.88,225.16 6806.85,225.16 6809.82,225.16 6812.78,225.16 6815.75,225.16 6818.71,225.16 6821.68,225.16 6824.65,225.16 6827.61,225.16 6830.58,225.16 6833.54,225.16 6836.51,225.16 6839.48,225.16 6842.44,225.16 6845.41,225.16 6848.38,225.16 6851.34,225.16 6854.31,225.16 6857.27,225.16 6860.24,225.16 6863.21,225.16 6866.17,225.16 6869.14,225.16 6872.1,225.16 6875.07,225.16 6878.04,225.16 6881,225.16 6883.97,225.16 6886.93,225.16 6889.9,225.16 6892.87,225.16 6895.83,225.16 6898.8,225.16 6901.77,225.16 6904.73,225.16 6907.7,225.16 6910.66,225.16 6913.63,225.16 6916.6,225.16 6919.56,225.16 6922.53,225.16 6925.49,225.16 6928.46,225.16 6931.43,225.16 6934.39,225.16 6937.36,225.16 "/>
<path clip-path="url(#clip510)" d="M499.839 343.654 L1495.79 343.654 L1495.79 245.391 L499.839 245.391  Z" fill="#ffffff" fill-rule="evenodd" fill-opacity="1"/>
<polyline clip-path="url(#clip510)" style="stroke:#000000; stroke-linecap:round; stroke-linejoin:round; stroke-width:4; stroke-opacity:1; fill:none" points="499.839,343.654 1495.79,343.654 1495.79,245.391 499.839,245.391 499.839,343.654 "/>
<polyline clip-path="url(#clip510)" style="stroke:#ffa500; stroke-linecap:round; stroke-linejoin:round; stroke-width:8; stroke-opacity:1; fill:none" points="576.065,294.523 1033.42,294.523 "/>
<g clip-path="url(#clip510)">
<text style="fill:#000000; fill-opacity:1; font-family:Century Gothic,CenturyGothic,AppleGothic,sans-serif; font-size:47px; text-anchor:start;" transform="rotate(0, 1109.65, 312.023)" x="1109.65" y="312.023">Strain Severity</text>
</g>
</svg>
