<?xml version="1.0" encoding="utf-8"?>
<svg xmlns="http://www.w3.org/2000/svg" xmlns:xlink="http://www.w3.org/1999/xlink" width="900" height="450" viewBox="0 0 3600 1800">
<defs>
  <clipPath id="clip820">
    <rect x="0" y="0" width="3600" height="1800"/>
  </clipPath>
</defs>
<path clip-path="url(#clip820)" d="M0 1800 L3600 1800 L3600 0 L0 0  Z" fill="#ffffff" fill-rule="evenodd" fill-opacity="1"/>
<defs>
  <clipPath id="clip821">
    <rect x="249" y="108" width="3304" height="1534"/>
  </clipPath>
</defs>
<path clip-path="url(#clip820)" d="M249.662 1641.7 L3552.76 1641.7 L3552.76 108.352 L249.662 108.352  Z" fill="#ffffff" fill-rule="evenodd" fill-opacity="1"/>
<polyline clip-path="url(#clip821)" style="stroke:#000000; stroke-linecap:round; stroke-linejoin:round; stroke-width:2; stroke-opacity:0.1; fill:none" points="290.33,1641.7 290.33,108.352 "/>
<polyline clip-path="url(#clip821)" style="stroke:#000000; stroke-linecap:round; stroke-linejoin:round; stroke-width:2; stroke-opacity:0.1; fill:none" points="818.487,1641.7 818.487,108.352 "/>
<polyline clip-path="url(#clip821)" style="stroke:#000000; stroke-linecap:round; stroke-linejoin:round; stroke-width:2; stroke-opacity:0.1; fill:none" points="1346.64,1641.7 1346.64,108.352 "/>
<polyline clip-path="url(#clip821)" style="stroke:#000000; stroke-linecap:round; stroke-linejoin:round; stroke-width:2; stroke-opacity:0.1; fill:none" points="1874.8,1641.7 1874.8,108.352 "/>
<polyline clip-path="url(#clip821)" style="stroke:#000000; stroke-linecap:round; stroke-linejoin:round; stroke-width:2; stroke-opacity:0.1; fill:none" points="2402.96,1641.7 2402.96,108.352 "/>
<polyline clip-path="url(#clip821)" style="stroke:#000000; stroke-linecap:round; stroke-linejoin:round; stroke-width:2; stroke-opacity:0.1; fill:none" points="2931.12,1641.7 2931.12,108.352 "/>
<polyline clip-path="url(#clip821)" style="stroke:#000000; stroke-linecap:round; stroke-linejoin:round; stroke-width:2; stroke-opacity:0.1; fill:none" points="3459.27,1641.7 3459.27,108.352 "/>
<polyline clip-path="url(#clip821)" style="stroke:#000000; stroke-linecap:round; stroke-linejoin:round; stroke-width:2; stroke-opacity:0.1; fill:none" points="249.662,1598.3 3552.76,1598.3 "/>
<polyline clip-path="url(#clip821)" style="stroke:#000000; stroke-linecap:round; stroke-linejoin:round; stroke-width:2; stroke-opacity:0.1; fill:none" points="249.662,1236.66 3552.76,1236.66 "/>
<polyline clip-path="url(#clip821)" style="stroke:#000000; stroke-linecap:round; stroke-linejoin:round; stroke-width:2; stroke-opacity:0.1; fill:none" points="249.662,875.026 3552.76,875.026 "/>
<polyline clip-path="url(#clip821)" style="stroke:#000000; stroke-linecap:round; stroke-linejoin:round; stroke-width:2; stroke-opacity:0.1; fill:none" points="249.662,513.387 3552.76,513.387 "/>
<polyline clip-path="url(#clip821)" style="stroke:#000000; stroke-linecap:round; stroke-linejoin:round; stroke-width:2; stroke-opacity:0.1; fill:none" points="249.662,151.749 3552.76,151.749 "/>
<polyline clip-path="url(#clip820)" style="stroke:#000000; stroke-linecap:round; stroke-linejoin:round; stroke-width:4; stroke-opacity:1; fill:none" points="249.662,1641.7 3552.76,1641.7 "/>
<polyline clip-path="url(#clip820)" style="stroke:#000000; stroke-linecap:round; stroke-linejoin:round; stroke-width:4; stroke-opacity:1; fill:none" points="290.33,1641.7 290.33,1622.8 "/>
<polyline clip-path="url(#clip820)" style="stroke:#000000; stroke-linecap:round; stroke-linejoin:round; stroke-width:4; stroke-opacity:1; fill:none" points="818.487,1641.7 818.487,1622.8 "/>
<polyline clip-path="url(#clip820)" style="stroke:#000000; stroke-linecap:round; stroke-linejoin:round; stroke-width:4; stroke-opacity:1; fill:none" points="1346.64,1641.7 1346.64,1622.8 "/>
<polyline clip-path="url(#clip820)" style="stroke:#000000; stroke-linecap:round; stroke-linejoin:round; stroke-width:4; stroke-opacity:1; fill:none" points="1874.8,1641.7 1874.8,1622.8 "/>
<polyline clip-path="url(#clip820)" style="stroke:#000000; stroke-linecap:round; stroke-linejoin:round; stroke-width:4; stroke-opacity:1; fill:none" points="2402.96,1641.7 2402.96,1622.8 "/>
<polyline clip-path="url(#clip820)" style="stroke:#000000; stroke-linecap:round; stroke-linejoin:round; stroke-width:4; stroke-opacity:1; fill:none" points="2931.12,1641.7 2931.12,1622.8 "/>
<polyline clip-path="url(#clip820)" style="stroke:#000000; stroke-linecap:round; stroke-linejoin:round; stroke-width:4; stroke-opacity:1; fill:none" points="3459.27,1641.7 3459.27,1622.8 "/>
<path clip-path="url(#clip820)" d="M290.33 1682.22 Q286.719 1682.22 284.89 1685.78 Q283.085 1689.32 283.085 1696.45 Q283.085 1703.56 284.89 1707.13 Q286.719 1710.67 290.33 1710.67 Q293.964 1710.67 295.77 1707.13 Q297.599 1703.56 297.599 1696.45 Q297.599 1689.32 295.77 1685.78 Q293.964 1682.22 290.33 1682.22 M290.33 1678.51 Q296.14 1678.51 299.196 1683.12 Q302.275 1687.7 302.275 1696.45 Q302.275 1705.18 299.196 1709.79 Q296.14 1714.37 290.33 1714.37 Q284.52 1714.37 281.441 1709.79 Q278.386 1705.18 278.386 1696.45 Q278.386 1687.7 281.441 1683.12 Q284.52 1678.51 290.33 1678.51 Z" fill="#000000" fill-rule="nonzero" fill-opacity="1" /><path clip-path="url(#clip820)" d="M793.175 1709.76 L800.814 1709.76 L800.814 1683.4 L792.503 1685.07 L792.503 1680.81 L800.767 1679.14 L805.443 1679.14 L805.443 1709.76 L813.082 1709.76 L813.082 1713.7 L793.175 1713.7 L793.175 1709.76 Z" fill="#000000" fill-rule="nonzero" fill-opacity="1" /><path clip-path="url(#clip820)" d="M832.526 1682.22 Q828.915 1682.22 827.087 1685.78 Q825.281 1689.32 825.281 1696.45 Q825.281 1703.56 827.087 1707.13 Q828.915 1710.67 832.526 1710.67 Q836.161 1710.67 837.966 1707.13 Q839.795 1703.56 839.795 1696.45 Q839.795 1689.32 837.966 1685.78 Q836.161 1682.22 832.526 1682.22 M832.526 1678.51 Q838.337 1678.51 841.392 1683.12 Q844.471 1687.7 844.471 1696.45 Q844.471 1705.18 841.392 1709.79 Q838.337 1714.37 832.526 1714.37 Q826.716 1714.37 823.638 1709.79 Q820.582 1705.18 820.582 1696.45 Q820.582 1687.7 823.638 1683.12 Q826.716 1678.51 832.526 1678.51 Z" fill="#000000" fill-rule="nonzero" fill-opacity="1" /><path clip-path="url(#clip820)" d="M1325.42 1709.76 L1341.74 1709.76 L1341.74 1713.7 L1319.79 1713.7 L1319.79 1709.76 Q1322.45 1707.01 1327.04 1702.38 Q1331.64 1697.73 1332.82 1696.39 Q1335.07 1693.86 1335.95 1692.13 Q1336.85 1690.37 1336.85 1688.68 Q1336.85 1685.92 1334.91 1684.19 Q1332.99 1682.45 1329.88 1682.45 Q1327.69 1682.45 1325.23 1683.21 Q1322.8 1683.98 1320.02 1685.53 L1320.02 1680.81 Q1322.85 1679.67 1325.3 1679.09 Q1327.76 1678.51 1329.79 1678.51 Q1335.16 1678.51 1338.36 1681.2 Q1341.55 1683.89 1341.55 1688.38 Q1341.55 1690.51 1340.74 1692.43 Q1339.95 1694.32 1337.85 1696.92 Q1337.27 1697.59 1334.17 1700.81 Q1331.07 1704 1325.42 1709.76 Z" fill="#000000" fill-rule="nonzero" fill-opacity="1" /><path clip-path="url(#clip820)" d="M1361.55 1682.22 Q1357.94 1682.22 1356.11 1685.78 Q1354.31 1689.32 1354.31 1696.45 Q1354.31 1703.56 1356.11 1707.13 Q1357.94 1710.67 1361.55 1710.67 Q1365.19 1710.67 1366.99 1707.13 Q1368.82 1703.56 1368.82 1696.45 Q1368.82 1689.32 1366.99 1685.78 Q1365.19 1682.22 1361.55 1682.22 M1361.55 1678.51 Q1367.36 1678.51 1370.42 1683.12 Q1373.5 1687.7 1373.5 1696.45 Q1373.5 1705.18 1370.42 1709.79 Q1367.36 1714.37 1361.55 1714.37 Q1355.74 1714.37 1352.66 1709.79 Q1349.61 1705.18 1349.61 1696.45 Q1349.61 1687.7 1352.66 1683.12 Q1355.74 1678.51 1361.55 1678.51 Z" fill="#000000" fill-rule="nonzero" fill-opacity="1" /><path clip-path="url(#clip820)" d="M1863.64 1695.07 Q1867 1695.78 1868.88 1698.05 Q1870.77 1700.32 1870.77 1703.65 Q1870.77 1708.77 1867.25 1711.57 Q1863.74 1714.37 1857.25 1714.37 Q1855.08 1714.37 1852.76 1713.93 Q1850.47 1713.51 1848.02 1712.66 L1848.02 1708.14 Q1849.96 1709.28 1852.28 1709.86 Q1854.59 1710.44 1857.12 1710.44 Q1861.51 1710.44 1863.81 1708.7 Q1866.12 1706.96 1866.12 1703.65 Q1866.12 1700.6 1863.97 1698.89 Q1861.84 1697.15 1858.02 1697.15 L1853.99 1697.15 L1853.99 1693.31 L1858.2 1693.31 Q1861.65 1693.31 1863.48 1691.94 Q1865.31 1690.55 1865.31 1687.96 Q1865.31 1685.3 1863.41 1683.89 Q1861.54 1682.45 1858.02 1682.45 Q1856.1 1682.45 1853.9 1682.87 Q1851.7 1683.28 1849.06 1684.16 L1849.06 1680 Q1851.72 1679.26 1854.04 1678.89 Q1856.38 1678.51 1858.44 1678.51 Q1863.76 1678.51 1866.86 1680.95 Q1869.96 1683.35 1869.96 1687.47 Q1869.96 1690.34 1868.32 1692.33 Q1866.68 1694.3 1863.64 1695.07 Z" fill="#000000" fill-rule="nonzero" fill-opacity="1" /><path clip-path="url(#clip820)" d="M1889.64 1682.22 Q1886.03 1682.22 1884.2 1685.78 Q1882.39 1689.32 1882.39 1696.45 Q1882.39 1703.56 1884.2 1707.13 Q1886.03 1710.67 1889.64 1710.67 Q1893.27 1710.67 1895.08 1707.13 Q1896.91 1703.56 1896.91 1696.45 Q1896.91 1689.32 1895.08 1685.78 Q1893.27 1682.22 1889.64 1682.22 M1889.64 1678.51 Q1895.45 1678.51 1898.5 1683.12 Q1901.58 1687.7 1901.58 1696.45 Q1901.58 1705.18 1898.5 1709.79 Q1895.45 1714.37 1889.64 1714.37 Q1883.83 1714.37 1880.75 1709.79 Q1877.69 1705.18 1877.69 1696.45 Q1877.69 1687.7 1880.75 1683.12 Q1883.83 1678.51 1889.64 1678.51 Z" fill="#000000" fill-rule="nonzero" fill-opacity="1" /><path clip-path="url(#clip820)" d="M2391.13 1683.21 L2379.32 1701.66 L2391.13 1701.66 L2391.13 1683.21 M2389.9 1679.14 L2395.78 1679.14 L2395.78 1701.66 L2400.71 1701.66 L2400.71 1705.55 L2395.78 1705.55 L2395.78 1713.7 L2391.13 1713.7 L2391.13 1705.55 L2375.53 1705.55 L2375.53 1701.04 L2389.9 1679.14 Z" fill="#000000" fill-rule="nonzero" fill-opacity="1" /><path clip-path="url(#clip820)" d="M2418.44 1682.22 Q2414.83 1682.22 2413 1685.78 Q2411.2 1689.32 2411.2 1696.45 Q2411.2 1703.56 2413 1707.13 Q2414.83 1710.67 2418.44 1710.67 Q2422.08 1710.67 2423.88 1707.13 Q2425.71 1703.56 2425.71 1696.45 Q2425.71 1689.32 2423.88 1685.78 Q2422.08 1682.22 2418.44 1682.22 M2418.44 1678.51 Q2424.25 1678.51 2427.31 1683.12 Q2430.39 1687.7 2430.39 1696.45 Q2430.39 1705.18 2427.31 1709.79 Q2424.25 1714.37 2418.44 1714.37 Q2412.63 1714.37 2409.56 1709.79 Q2406.5 1705.18 2406.5 1696.45 Q2406.5 1687.7 2409.56 1683.12 Q2412.63 1678.51 2418.44 1678.51 Z" fill="#000000" fill-rule="nonzero" fill-opacity="1" /><path clip-path="url(#clip820)" d="M2905.81 1679.14 L2924.17 1679.14 L2924.17 1683.08 L2910.1 1683.08 L2910.1 1691.55 Q2911.12 1691.2 2912.13 1691.04 Q2913.15 1690.85 2914.17 1690.85 Q2919.96 1690.85 2923.34 1694.02 Q2926.72 1697.2 2926.72 1702.61 Q2926.72 1708.19 2923.24 1711.29 Q2919.77 1714.37 2913.45 1714.37 Q2911.28 1714.37 2909.01 1714 Q2906.76 1713.63 2904.36 1712.89 L2904.36 1708.19 Q2906.44 1709.32 2908.66 1709.88 Q2910.88 1710.44 2913.36 1710.44 Q2917.37 1710.44 2919.7 1708.33 Q2922.04 1706.22 2922.04 1702.61 Q2922.04 1699 2919.7 1696.89 Q2917.37 1694.79 2913.36 1694.79 Q2911.49 1694.79 2909.61 1695.2 Q2907.76 1695.62 2905.81 1696.5 L2905.81 1679.14 Z" fill="#000000" fill-rule="nonzero" fill-opacity="1" /><path clip-path="url(#clip820)" d="M2945.93 1682.22 Q2942.32 1682.22 2940.49 1685.78 Q2938.68 1689.32 2938.68 1696.45 Q2938.68 1703.56 2940.49 1707.13 Q2942.32 1710.67 2945.93 1710.67 Q2949.56 1710.67 2951.37 1707.13 Q2953.2 1703.56 2953.2 1696.45 Q2953.2 1689.32 2951.37 1685.78 Q2949.56 1682.22 2945.93 1682.22 M2945.93 1678.51 Q2951.74 1678.51 2954.8 1683.12 Q2957.87 1687.7 2957.87 1696.45 Q2957.87 1705.18 2954.8 1709.79 Q2951.74 1714.37 2945.93 1714.37 Q2940.12 1714.37 2937.04 1709.79 Q2933.99 1705.18 2933.99 1696.45 Q2933.99 1687.7 2937.04 1683.12 Q2940.12 1678.51 2945.93 1678.51 Z" fill="#000000" fill-rule="nonzero" fill-opacity="1" /><path clip-path="url(#clip820)" d="M3444.68 1694.56 Q3441.53 1694.56 3439.68 1696.71 Q3437.85 1698.86 3437.85 1702.61 Q3437.85 1706.34 3439.68 1708.51 Q3441.53 1710.67 3444.68 1710.67 Q3447.83 1710.67 3449.65 1708.51 Q3451.51 1706.34 3451.51 1702.61 Q3451.51 1698.86 3449.65 1696.71 Q3447.83 1694.56 3444.68 1694.56 M3453.96 1679.9 L3453.96 1684.16 Q3452.2 1683.33 3450.39 1682.89 Q3448.61 1682.45 3446.85 1682.45 Q3442.22 1682.45 3439.77 1685.57 Q3437.34 1688.7 3436.99 1695.02 Q3438.36 1693.01 3440.42 1691.94 Q3442.48 1690.85 3444.96 1690.85 Q3450.16 1690.85 3453.17 1694.02 Q3456.21 1697.17 3456.21 1702.61 Q3456.21 1707.94 3453.06 1711.15 Q3449.91 1714.37 3444.68 1714.37 Q3438.68 1714.37 3435.51 1709.79 Q3432.34 1705.18 3432.34 1696.45 Q3432.34 1688.26 3436.23 1683.4 Q3440.12 1678.51 3446.67 1678.51 Q3448.43 1678.51 3450.21 1678.86 Q3452.02 1679.21 3453.96 1679.9 Z" fill="#000000" fill-rule="nonzero" fill-opacity="1" /><path clip-path="url(#clip820)" d="M3474.26 1682.22 Q3470.65 1682.22 3468.82 1685.78 Q3467.02 1689.32 3467.02 1696.45 Q3467.02 1703.56 3468.82 1707.13 Q3470.65 1710.67 3474.26 1710.67 Q3477.89 1710.67 3479.7 1707.13 Q3481.53 1703.56 3481.53 1696.45 Q3481.53 1689.32 3479.7 1685.78 Q3477.89 1682.22 3474.26 1682.22 M3474.26 1678.51 Q3480.07 1678.51 3483.13 1683.12 Q3486.2 1687.7 3486.2 1696.45 Q3486.2 1705.18 3483.13 1709.79 Q3480.07 1714.37 3474.26 1714.37 Q3468.45 1714.37 3465.37 1709.79 Q3462.32 1705.18 3462.32 1696.45 Q3462.32 1687.7 3465.37 1683.12 Q3468.45 1678.51 3474.26 1678.51 Z" fill="#000000" fill-rule="nonzero" fill-opacity="1" /><path clip-path="url(#clip820)" d="M1703.46 1804.56 L1703.46 1799.15 Q1710.37 1797.66 1712.34 1792.44 Q1715.11 1784.23 1715.11 1765.13 L1715.11 1757.04 L1743.37 1757.04 L1743.37 1804.56 L1736.94 1804.56 L1736.94 1762.45 L1721.51 1762.45 L1721.51 1768.31 Q1721.51 1786.33 1718.26 1794.73 Q1715.14 1802.78 1703.46 1804.56 Z" fill="#000000" fill-rule="nonzero" fill-opacity="1" /><path clip-path="url(#clip820)" d="M1772.14 1786.64 Q1765.05 1786.64 1762.31 1788.27 Q1759.57 1789.89 1759.57 1793.81 Q1759.57 1796.92 1761.61 1798.77 Q1763.68 1800.59 1767.21 1800.59 Q1772.08 1800.59 1775.01 1797.15 Q1777.97 1793.68 1777.97 1787.95 L1777.97 1786.64 L1772.14 1786.64 M1783.83 1784.23 L1783.83 1804.56 L1777.97 1804.56 L1777.97 1799.15 Q1775.96 1802.4 1772.97 1803.96 Q1769.98 1805.49 1765.65 1805.49 Q1760.18 1805.49 1756.93 1802.43 Q1753.72 1799.34 1753.72 1794.19 Q1753.72 1788.17 1757.73 1785.12 Q1761.77 1782.06 1769.76 1782.06 L1777.97 1782.06 L1777.97 1781.49 Q1777.97 1777.45 1775.3 1775.25 Q1772.65 1773.02 1767.85 1773.02 Q1764.79 1773.02 1761.9 1773.75 Q1759 1774.49 1756.33 1775.95 L1756.33 1770.54 Q1759.54 1769.3 1762.56 1768.69 Q1765.59 1768.06 1768.45 1768.06 Q1776.19 1768.06 1780.01 1772.07 Q1783.83 1776.08 1783.83 1784.23 Z" fill="#000000" fill-rule="nonzero" fill-opacity="1" /><path clip-path="url(#clip820)" d="M1795.67 1804.56 L1795.67 1768.92 L1820.81 1768.92 L1820.81 1773.59 L1801.55 1773.59 L1801.55 1804.56 L1795.67 1804.56 Z" fill="#000000" fill-rule="nonzero" fill-opacity="1" /><path clip-path="url(#clip820)" d="M1850.86 1768.92 L1856.71 1768.92 L1856.71 1805.2 Q1856.71 1812.01 1854.1 1815.07 Q1851.52 1818.12 1845.76 1818.12 L1843.54 1818.12 L1843.54 1813.16 L1845.1 1813.16 Q1848.44 1813.16 1849.65 1811.6 Q1850.86 1810.07 1850.86 1805.2 L1850.86 1768.92 M1850.86 1755.04 L1856.71 1755.04 L1856.71 1762.45 L1850.86 1762.45 L1850.86 1755.04 Z" fill="#000000" fill-rule="nonzero" fill-opacity="1" /><path clip-path="url(#clip820)" d="M1903.76 1755.1 Q1899.49 1762.42 1897.42 1769.58 Q1895.35 1776.75 1895.35 1784.1 Q1895.35 1791.45 1897.42 1798.68 Q1899.52 1805.87 1903.76 1813.16 L1898.66 1813.16 Q1893.89 1805.68 1891.5 1798.45 Q1889.15 1791.23 1889.15 1784.1 Q1889.15 1777 1891.5 1769.81 Q1893.86 1762.61 1898.66 1755.1 L1903.76 1755.1 Z" fill="#000000" fill-rule="nonzero" fill-opacity="1" /><path clip-path="url(#clip820)" d="M1923.08 1799.89 L1940.07 1799.89 L1940.07 1773.59 L1927.75 1773.59 L1927.75 1778.05 Q1927.75 1791.16 1924 1798.17 L1923.08 1799.89 M1914.58 1799.89 Q1917.47 1798.61 1918.75 1795.91 Q1921.87 1789.19 1921.87 1775.66 L1921.87 1768.92 L1945.96 1768.92 L1945.96 1799.89 L1950.64 1799.89 L1950.64 1813.57 L1945.96 1813.57 L1945.96 1804.56 L1917.06 1804.56 L1917.06 1813.57 L1912.38 1813.57 L1912.38 1799.89 L1914.58 1799.89 Z" fill="#000000" fill-rule="nonzero" fill-opacity="1" /><path clip-path="url(#clip820)" d="M1959.96 1768.92 L1965.85 1768.92 L1965.85 1783.46 L1984.85 1783.46 L1984.85 1768.92 L1990.74 1768.92 L1990.74 1804.56 L1984.85 1804.56 L1984.85 1788.14 L1965.85 1788.14 L1965.85 1804.56 L1959.96 1804.56 L1959.96 1768.92 Z" fill="#000000" fill-rule="nonzero" fill-opacity="1" /><path clip-path="url(#clip820)" d="M2033.3 1785.28 L2033.3 1788.14 L2006.37 1788.14 Q2006.75 1794.19 2010 1797.37 Q2013.28 1800.52 2019.1 1800.52 Q2022.48 1800.52 2025.63 1799.69 Q2028.81 1798.87 2031.93 1797.21 L2031.93 1802.75 Q2028.78 1804.09 2025.47 1804.79 Q2022.16 1805.49 2018.75 1805.49 Q2010.22 1805.49 2005.22 1800.52 Q2000.26 1795.56 2000.26 1787.09 Q2000.26 1778.34 2004.97 1773.21 Q2009.71 1768.06 2017.73 1768.06 Q2024.93 1768.06 2029.1 1772.7 Q2033.3 1777.32 2033.3 1785.28 M2027.44 1783.56 Q2027.38 1778.75 2024.74 1775.89 Q2022.13 1773.02 2017.8 1773.02 Q2012.9 1773.02 2009.94 1775.79 Q2007.01 1778.56 2006.56 1783.59 L2027.44 1783.56 Z" fill="#000000" fill-rule="nonzero" fill-opacity="1" /><path clip-path="url(#clip820)" d="M2073.21 1768.92 L2073.21 1804.56 L2067.39 1804.56 L2067.39 1775.95 L2050.2 1804.56 L2042.69 1804.56 L2042.69 1768.92 L2048.51 1768.92 L2048.51 1797.47 L2065.67 1768.92 L2073.21 1768.92 M2048 1755.04 L2051.76 1755.04 Q2052.11 1757.43 2053.64 1758.64 Q2055.2 1759.81 2057.96 1759.81 Q2060.7 1759.81 2062.23 1758.64 Q2063.76 1757.46 2064.17 1755.04 L2067.93 1755.04 Q2067.61 1759.59 2065.09 1761.88 Q2062.58 1764.17 2057.96 1764.17 Q2053.35 1764.17 2050.83 1761.88 Q2048.32 1759.59 2048 1755.04 Z" fill="#000000" fill-rule="nonzero" fill-opacity="1" /><path clip-path="url(#clip820)" d="M2084.35 1755.1 L2089.44 1755.1 Q2094.22 1762.61 2096.57 1769.81 Q2098.96 1777 2098.96 1784.1 Q2098.96 1791.23 2096.57 1798.45 Q2094.22 1805.68 2089.44 1813.16 L2084.35 1813.16 Q2088.58 1805.87 2090.65 1798.68 Q2092.75 1791.45 2092.75 1784.1 Q2092.75 1776.75 2090.65 1769.58 Q2088.58 1762.42 2084.35 1755.1 Z" fill="#000000" fill-rule="nonzero" fill-opacity="1" /><polyline clip-path="url(#clip820)" style="stroke:#000000; stroke-linecap:round; stroke-linejoin:round; stroke-width:4; stroke-opacity:1; fill:none" points="249.662,1641.7 249.662,108.352 "/>
<polyline clip-path="url(#clip820)" style="stroke:#000000; stroke-linecap:round; stroke-linejoin:round; stroke-width:4; stroke-opacity:1; fill:none" points="249.662,1598.3 268.56,1598.3 "/>
<polyline clip-path="url(#clip820)" style="stroke:#000000; stroke-linecap:round; stroke-linejoin:round; stroke-width:4; stroke-opacity:1; fill:none" points="249.662,1236.66 268.56,1236.66 "/>
<polyline clip-path="url(#clip820)" style="stroke:#000000; stroke-linecap:round; stroke-linejoin:round; stroke-width:4; stroke-opacity:1; fill:none" points="249.662,875.026 268.56,875.026 "/>
<polyline clip-path="url(#clip820)" style="stroke:#000000; stroke-linecap:round; stroke-linejoin:round; stroke-width:4; stroke-opacity:1; fill:none" points="249.662,513.387 268.56,513.387 "/>
<polyline clip-path="url(#clip820)" style="stroke:#000000; stroke-linecap:round; stroke-linejoin:round; stroke-width:4; stroke-opacity:1; fill:none" points="249.662,151.749 268.56,151.749 "/>
<path clip-path="url(#clip820)" d="M108.325 1584.1 Q104.713 1584.1 102.885 1587.67 Q101.079 1591.21 101.079 1598.34 Q101.079 1605.44 102.885 1609.01 Q104.713 1612.55 108.325 1612.55 Q111.959 1612.55 113.764 1609.01 Q115.593 1605.44 115.593 1598.34 Q115.593 1591.21 113.764 1587.67 Q111.959 1584.1 108.325 1584.1 M108.325 1580.4 Q114.135 1580.4 117.19 1585 Q120.269 1589.59 120.269 1598.34 Q120.269 1607.06 117.19 1611.67 Q114.135 1616.25 108.325 1616.25 Q102.514 1616.25 99.4357 1611.67 Q96.3802 1607.06 96.3802 1598.34 Q96.3802 1589.59 99.4357 1585 Q102.514 1580.4 108.325 1580.4 Z" fill="#000000" fill-rule="nonzero" fill-opacity="1" /><path clip-path="url(#clip820)" d="M128.486 1609.7 L133.371 1609.7 L133.371 1615.58 L128.486 1615.58 L128.486 1609.7 Z" fill="#000000" fill-rule="nonzero" fill-opacity="1" /><path clip-path="url(#clip820)" d="M153.556 1584.1 Q149.945 1584.1 148.116 1587.67 Q146.31 1591.21 146.31 1598.34 Q146.31 1605.44 148.116 1609.01 Q149.945 1612.55 153.556 1612.55 Q157.19 1612.55 158.996 1609.01 Q160.824 1605.44 160.824 1598.34 Q160.824 1591.21 158.996 1587.67 Q157.19 1584.1 153.556 1584.1 M153.556 1580.4 Q159.366 1580.4 162.421 1585 Q165.5 1589.59 165.5 1598.34 Q165.5 1607.06 162.421 1611.67 Q159.366 1616.25 153.556 1616.25 Q147.746 1616.25 144.667 1611.67 Q141.611 1607.06 141.611 1598.34 Q141.611 1589.59 144.667 1585 Q147.746 1580.4 153.556 1580.4 Z" fill="#000000" fill-rule="nonzero" fill-opacity="1" /><path clip-path="url(#clip820)" d="M183.718 1584.1 Q180.107 1584.1 178.278 1587.67 Q176.472 1591.21 176.472 1598.34 Q176.472 1605.44 178.278 1609.01 Q180.107 1612.55 183.718 1612.55 Q187.352 1612.55 189.157 1609.01 Q190.986 1605.44 190.986 1598.34 Q190.986 1591.21 189.157 1587.67 Q187.352 1584.1 183.718 1584.1 M183.718 1580.4 Q189.528 1580.4 192.583 1585 Q195.662 1589.59 195.662 1598.34 Q195.662 1607.06 192.583 1611.67 Q189.528 1616.25 183.718 1616.25 Q177.907 1616.25 174.829 1611.67 Q171.773 1607.06 171.773 1598.34 Q171.773 1589.59 174.829 1585 Q177.907 1580.4 183.718 1580.4 Z" fill="#000000" fill-rule="nonzero" fill-opacity="1" /><path clip-path="url(#clip820)" d="M109.32 1222.46 Q105.709 1222.46 103.88 1226.03 Q102.075 1229.57 102.075 1236.7 Q102.075 1243.81 103.88 1247.37 Q105.709 1250.91 109.32 1250.91 Q112.954 1250.91 114.76 1247.37 Q116.588 1243.81 116.588 1236.7 Q116.588 1229.57 114.76 1226.03 Q112.954 1222.46 109.32 1222.46 M109.32 1218.76 Q115.13 1218.76 118.186 1223.37 Q121.264 1227.95 121.264 1236.7 Q121.264 1245.43 118.186 1250.03 Q115.13 1254.62 109.32 1254.62 Q103.51 1254.62 100.431 1250.03 Q97.3755 1245.43 97.3755 1236.7 Q97.3755 1227.95 100.431 1223.37 Q103.51 1218.76 109.32 1218.76 Z" fill="#000000" fill-rule="nonzero" fill-opacity="1" /><path clip-path="url(#clip820)" d="M129.482 1248.06 L134.366 1248.06 L134.366 1253.94 L129.482 1253.94 L129.482 1248.06 Z" fill="#000000" fill-rule="nonzero" fill-opacity="1" /><path clip-path="url(#clip820)" d="M148.579 1250.01 L164.898 1250.01 L164.898 1253.94 L142.954 1253.94 L142.954 1250.01 Q145.616 1247.25 150.199 1242.63 Q154.806 1237.97 155.986 1236.63 Q158.232 1234.11 159.111 1232.37 Q160.014 1230.61 160.014 1228.92 Q160.014 1226.17 158.07 1224.43 Q156.148 1222.69 153.047 1222.69 Q150.847 1222.69 148.394 1223.46 Q145.963 1224.22 143.185 1225.77 L143.185 1221.05 Q146.01 1219.92 148.463 1219.34 Q150.917 1218.76 152.954 1218.76 Q158.324 1218.76 161.519 1221.44 Q164.713 1224.13 164.713 1228.62 Q164.713 1230.75 163.903 1232.67 Q163.116 1234.57 161.009 1237.16 Q160.431 1237.83 157.329 1241.05 Q154.227 1244.25 148.579 1250.01 Z" fill="#000000" fill-rule="nonzero" fill-opacity="1" /><path clip-path="url(#clip820)" d="M174.759 1219.38 L193.116 1219.38 L193.116 1223.32 L179.042 1223.32 L179.042 1231.79 Q180.06 1231.44 181.079 1231.28 Q182.097 1231.1 183.116 1231.1 Q188.903 1231.1 192.282 1234.27 Q195.662 1237.44 195.662 1242.86 Q195.662 1248.44 192.19 1251.54 Q188.718 1254.62 182.398 1254.62 Q180.222 1254.62 177.954 1254.25 Q175.708 1253.88 173.301 1253.13 L173.301 1248.44 Q175.384 1249.57 177.607 1250.13 Q179.829 1250.68 182.306 1250.68 Q186.31 1250.68 188.648 1248.57 Q190.986 1246.47 190.986 1242.86 Q190.986 1239.25 188.648 1237.14 Q186.31 1235.03 182.306 1235.03 Q180.431 1235.03 178.556 1235.45 Q176.704 1235.87 174.759 1236.75 L174.759 1219.38 Z" fill="#000000" fill-rule="nonzero" fill-opacity="1" /><path clip-path="url(#clip820)" d="M108.325 860.825 Q104.713 860.825 102.885 864.389 Q101.079 867.931 101.079 875.061 Q101.079 882.167 102.885 885.732 Q104.713 889.274 108.325 889.274 Q111.959 889.274 113.764 885.732 Q115.593 882.167 115.593 875.061 Q115.593 867.931 113.764 864.389 Q111.959 860.825 108.325 860.825 M108.325 857.121 Q114.135 857.121 117.19 861.727 Q120.269 866.311 120.269 875.061 Q120.269 883.788 117.19 888.394 Q114.135 892.977 108.325 892.977 Q102.514 892.977 99.4357 888.394 Q96.3802 883.788 96.3802 875.061 Q96.3802 866.311 99.4357 861.727 Q102.514 857.121 108.325 857.121 Z" fill="#000000" fill-rule="nonzero" fill-opacity="1" /><path clip-path="url(#clip820)" d="M128.486 886.426 L133.371 886.426 L133.371 892.306 L128.486 892.306 L128.486 886.426 Z" fill="#000000" fill-rule="nonzero" fill-opacity="1" /><path clip-path="url(#clip820)" d="M143.602 857.746 L161.959 857.746 L161.959 861.681 L147.885 861.681 L147.885 870.153 Q148.903 869.806 149.922 869.644 Q150.94 869.459 151.959 869.459 Q157.746 869.459 161.125 872.63 Q164.505 875.801 164.505 881.218 Q164.505 886.797 161.033 889.899 Q157.56 892.977 151.241 892.977 Q149.065 892.977 146.797 892.607 Q144.551 892.237 142.144 891.496 L142.144 886.797 Q144.227 887.931 146.449 888.487 Q148.672 889.042 151.148 889.042 Q155.153 889.042 157.491 886.936 Q159.829 884.829 159.829 881.218 Q159.829 877.607 157.491 875.501 Q155.153 873.394 151.148 873.394 Q149.273 873.394 147.398 873.811 Q145.547 874.227 143.602 875.107 L143.602 857.746 Z" fill="#000000" fill-rule="nonzero" fill-opacity="1" /><path clip-path="url(#clip820)" d="M183.718 860.825 Q180.107 860.825 178.278 864.389 Q176.472 867.931 176.472 875.061 Q176.472 882.167 178.278 885.732 Q180.107 889.274 183.718 889.274 Q187.352 889.274 189.157 885.732 Q190.986 882.167 190.986 875.061 Q190.986 867.931 189.157 864.389 Q187.352 860.825 183.718 860.825 M183.718 857.121 Q189.528 857.121 192.583 861.727 Q195.662 866.311 195.662 875.061 Q195.662 883.788 192.583 888.394 Q189.528 892.977 183.718 892.977 Q177.907 892.977 174.829 888.394 Q171.773 883.788 171.773 875.061 Q171.773 866.311 174.829 861.727 Q177.907 857.121 183.718 857.121 Z" fill="#000000" fill-rule="nonzero" fill-opacity="1" /><path clip-path="url(#clip820)" d="M109.32 499.186 Q105.709 499.186 103.88 502.751 Q102.075 506.293 102.075 513.422 Q102.075 520.529 103.88 524.093 Q105.709 527.635 109.32 527.635 Q112.954 527.635 114.76 524.093 Q116.588 520.529 116.588 513.422 Q116.588 506.293 114.76 502.751 Q112.954 499.186 109.32 499.186 M109.32 495.482 Q115.13 495.482 118.186 500.089 Q121.264 504.672 121.264 513.422 Q121.264 522.149 118.186 526.755 Q115.13 531.339 109.32 531.339 Q103.51 531.339 100.431 526.755 Q97.3755 522.149 97.3755 513.422 Q97.3755 504.672 100.431 500.089 Q103.51 495.482 109.32 495.482 Z" fill="#000000" fill-rule="nonzero" fill-opacity="1" /><path clip-path="url(#clip820)" d="M129.482 524.788 L134.366 524.788 L134.366 530.667 L129.482 530.667 L129.482 524.788 Z" fill="#000000" fill-rule="nonzero" fill-opacity="1" /><path clip-path="url(#clip820)" d="M143.371 496.107 L165.593 496.107 L165.593 498.098 L153.047 530.667 L148.162 530.667 L159.968 500.043 L143.371 500.043 L143.371 496.107 Z" fill="#000000" fill-rule="nonzero" fill-opacity="1" /><path clip-path="url(#clip820)" d="M174.759 496.107 L193.116 496.107 L193.116 500.043 L179.042 500.043 L179.042 508.515 Q180.06 508.167 181.079 508.005 Q182.097 507.82 183.116 507.82 Q188.903 507.82 192.282 510.992 Q195.662 514.163 195.662 519.579 Q195.662 525.158 192.19 528.26 Q188.718 531.339 182.398 531.339 Q180.222 531.339 177.954 530.968 Q175.708 530.598 173.301 529.857 L173.301 525.158 Q175.384 526.292 177.607 526.848 Q179.829 527.404 182.306 527.404 Q186.31 527.404 188.648 525.297 Q190.986 523.191 190.986 519.579 Q190.986 515.968 188.648 513.862 Q186.31 511.755 182.306 511.755 Q180.431 511.755 178.556 512.172 Q176.704 512.589 174.759 513.468 L174.759 496.107 Z" fill="#000000" fill-rule="nonzero" fill-opacity="1" /><path clip-path="url(#clip820)" d="M99.1348 165.094 L106.774 165.094 L106.774 138.728 L98.4635 140.395 L98.4635 136.135 L106.727 134.469 L111.403 134.469 L111.403 165.094 L119.042 165.094 L119.042 169.029 L99.1348 169.029 L99.1348 165.094 Z" fill="#000000" fill-rule="nonzero" fill-opacity="1" /><path clip-path="url(#clip820)" d="M128.486 163.149 L133.371 163.149 L133.371 169.029 L128.486 169.029 L128.486 163.149 Z" fill="#000000" fill-rule="nonzero" fill-opacity="1" /><path clip-path="url(#clip820)" d="M153.556 137.547 Q149.945 137.547 148.116 141.112 Q146.31 144.654 146.31 151.783 Q146.31 158.89 148.116 162.455 Q149.945 165.996 153.556 165.996 Q157.19 165.996 158.996 162.455 Q160.824 158.89 160.824 151.783 Q160.824 144.654 158.996 141.112 Q157.19 137.547 153.556 137.547 M153.556 133.844 Q159.366 133.844 162.421 138.45 Q165.5 143.034 165.5 151.783 Q165.5 160.51 162.421 165.117 Q159.366 169.7 153.556 169.7 Q147.746 169.7 144.667 165.117 Q141.611 160.51 141.611 151.783 Q141.611 143.034 144.667 138.45 Q147.746 133.844 153.556 133.844 Z" fill="#000000" fill-rule="nonzero" fill-opacity="1" /><path clip-path="url(#clip820)" d="M183.718 137.547 Q180.107 137.547 178.278 141.112 Q176.472 144.654 176.472 151.783 Q176.472 158.89 178.278 162.455 Q180.107 165.996 183.718 165.996 Q187.352 165.996 189.157 162.455 Q190.986 158.89 190.986 151.783 Q190.986 144.654 189.157 141.112 Q187.352 137.547 183.718 137.547 M183.718 133.844 Q189.528 133.844 192.583 138.45 Q195.662 143.034 195.662 151.783 Q195.662 160.51 192.583 165.117 Q189.528 169.7 183.718 169.7 Q177.907 169.7 174.829 165.117 Q171.773 160.51 171.773 151.783 Q171.773 143.034 174.829 138.45 Q177.907 133.844 183.718 133.844 Z" fill="#000000" fill-rule="nonzero" fill-opacity="1" /><path clip-path="url(#clip820)" d="M-21.6875 935.309 L43.4973 935.309 L43.4973 940.72 L-21.6875 940.72 L-21.6875 935.309 Z" fill="#000000" fill-rule="nonzero" fill-opacity="1" /><path clip-path="url(#clip820)" d="M-7.5238 924.297 L-7.5238 918.44 L20.2943 911.12 L-7.5238 903.831 L-7.5238 896.924 L20.2943 889.603 L-7.5238 882.315 L-7.5238 876.458 L28.1242 885.784 L28.1242 892.691 L-1.09444 900.361 L28.1242 908.064 L28.1242 914.971 L-7.5238 924.297 Z" fill="#000000" fill-rule="nonzero" fill-opacity="1" /><path clip-path="url(#clip820)" d="M38.9459 840.492 L43.4973 840.492 L43.4973 874.358 L38.9459 874.358 L38.9459 840.492 Z" fill="#000000" fill-rule="nonzero" fill-opacity="1" /><path clip-path="url(#clip820)" d="M-7.5238 834.986 L-7.5238 829.129 L28.7607 829.129 Q35.572 829.129 38.6276 831.739 Q41.6831 834.317 41.6831 840.078 L41.6831 842.306 L36.7179 842.306 L36.7179 840.747 Q36.7179 837.405 35.1583 836.195 Q33.6305 834.986 28.7607 834.986 L-7.5238 834.986 M-21.401 834.986 L-21.401 829.129 L-13.985 829.129 L-13.985 834.986 L-21.401 834.986 Z" fill="#000000" fill-rule="nonzero" fill-opacity="1" /><path clip-path="url(#clip820)" d="M-21.6875 809.332 L43.4973 809.332 L43.4973 814.743 L-21.6875 814.743 L-21.6875 809.332 Z" fill="#000000" fill-rule="nonzero" fill-opacity="1" /><path clip-path="url(#clip820)" d="M1011.25 29.5149 Q1011.25 34.8216 1014.24 37.5762 Q1017.28 40.2903 1023.2 40.2903 L1035.92 40.2903 L1035.92 18.8205 L1023.2 18.8205 Q1017.28 18.8205 1014.24 21.5346 Q1011.25 24.2082 1011.25 29.5149 M1000.11 72.576 L1016.63 46.1236 Q1012.58 45.0704 1007.4 41.6676 Q1002.21 38.2243 1002.21 29.5149 Q1002.21 21.17 1007.48 16.633 Q1012.74 12.096 1023.2 12.096 L1044.1 12.096 L1044.1 72.576 L1035.92 72.576 L1035.92 47.0148 L1024.98 47.0148 L1009.02 72.576 L1000.11 72.576 Z" fill="#000000" fill-rule="nonzero" fill-opacity="1" /><path clip-path="url(#clip820)" d="M1070.19 66.6212 L1091.82 66.6212 L1091.82 33.1607 L1076.14 33.1607 L1076.14 38.832 Q1076.14 55.5217 1071.36 64.4337 L1070.19 66.6212 M1059.37 66.6212 Q1063.06 65.0008 1064.68 61.5575 Q1068.65 53.0101 1068.65 35.7938 L1068.65 27.2059 L1099.31 27.2059 L1099.31 66.6212 L1105.27 66.6212 L1105.27 84.0401 L1099.31 84.0401 L1099.31 72.576 L1062.53 72.576 L1062.53 84.0401 L1056.58 84.0401 L1056.58 66.6212 L1059.37 66.6212 Z" fill="#000000" fill-rule="nonzero" fill-opacity="1" /><path clip-path="url(#clip820)" d="M1124.63 65.7705 L1124.63 89.8329 L1117.14 89.8329 L1117.14 27.2059 L1124.63 27.2059 L1124.63 34.0924 Q1126.98 30.0415 1130.54 28.0971 Q1134.15 26.1121 1139.13 26.1121 Q1147.4 26.1121 1152.54 32.6746 Q1157.73 39.2371 1157.73 49.9314 Q1157.73 60.6258 1152.54 67.1883 Q1147.4 73.7508 1139.13 73.7508 Q1134.15 73.7508 1130.54 71.8063 Q1126.98 69.8214 1124.63 65.7705 M1149.99 49.9314 Q1149.99 41.7081 1146.59 37.0496 Q1143.22 32.3505 1137.31 32.3505 Q1131.4 32.3505 1127.99 37.0496 Q1124.63 41.7081 1124.63 49.9314 Q1124.63 58.1548 1127.99 62.8538 Q1131.4 67.5124 1137.31 67.5124 Q1143.22 67.5124 1146.59 62.8538 Q1149.99 58.1548 1149.99 49.9314 Z" fill="#000000" fill-rule="nonzero" fill-opacity="1" /><path clip-path="url(#clip820)" d="M1187.66 32.4315 Q1181.67 32.4315 1178.18 37.1306 Q1174.7 41.7891 1174.7 49.9314 Q1174.7 58.0738 1178.14 62.7728 Q1181.63 67.4314 1187.66 67.4314 Q1193.62 67.4314 1197.1 62.7323 Q1200.58 58.0333 1200.58 49.9314 Q1200.58 41.8701 1197.1 37.1711 Q1193.62 32.4315 1187.66 32.4315 M1187.66 26.1121 Q1197.38 26.1121 1202.93 32.4315 Q1208.48 38.7509 1208.48 49.9314 Q1208.48 61.0714 1202.93 67.4314 Q1197.38 73.7508 1187.66 73.7508 Q1177.9 73.7508 1172.35 67.4314 Q1166.84 61.0714 1166.84 49.9314 Q1166.84 38.7509 1172.35 32.4315 Q1177.9 26.1121 1187.66 26.1121 Z" fill="#000000" fill-rule="nonzero" fill-opacity="1" /><path clip-path="url(#clip820)" d="M1286.1 27.2059 L1286.1 72.576 L1278.61 72.576 L1278.61 33.1607 L1254.42 33.1607 L1254.42 72.576 L1246.93 72.576 L1246.93 27.2059 L1286.1 27.2059 Z" fill="#000000" fill-rule="nonzero" fill-opacity="1" /><path clip-path="url(#clip820)" d="M1322.07 49.7694 Q1313.04 49.7694 1309.55 51.8354 Q1306.07 53.9013 1306.07 58.8839 Q1306.07 62.8538 1308.66 65.2034 Q1311.3 67.5124 1315.79 67.5124 Q1321.99 67.5124 1325.72 63.1374 Q1329.48 58.7219 1329.48 51.4303 L1329.48 49.7694 L1322.07 49.7694 M1336.94 46.6907 L1336.94 72.576 L1329.48 72.576 L1329.48 65.6895 Q1326.93 69.8214 1323.12 71.8063 Q1319.32 73.7508 1313.81 73.7508 Q1306.84 73.7508 1302.71 69.8619 Q1298.62 65.9325 1298.62 59.3701 Q1298.62 51.7138 1303.72 47.825 Q1308.87 43.9361 1319.03 43.9361 L1329.48 43.9361 L1329.48 43.2069 Q1329.48 38.0623 1326.08 35.2672 Q1322.72 32.4315 1316.6 32.4315 Q1312.71 32.4315 1309.03 33.3632 Q1305.34 34.295 1301.94 36.1584 L1301.94 29.2718 Q1306.03 27.692 1309.88 26.9223 Q1313.73 26.1121 1317.37 26.1121 Q1327.22 26.1121 1332.08 31.2163 Q1336.94 36.3204 1336.94 46.6907 Z" fill="#000000" fill-rule="nonzero" fill-opacity="1" /><path clip-path="url(#clip820)" d="M1352.01 27.2059 L1362.9 27.2059 L1375.79 57.5877 L1388.71 27.2059 L1399.52 27.2059 L1399.52 72.576 L1392.03 72.576 L1392.03 34.3355 L1379.51 63.8666 L1372.06 63.8666 L1359.5 34.3355 L1359.5 72.576 L1352.01 72.576 L1352.01 27.2059 Z" fill="#000000" fill-rule="nonzero" fill-opacity="1" /><path clip-path="url(#clip820)" d="M1422.37 40.2903 Q1422.37 43.6525 1424.96 45.5565 Q1427.56 47.4604 1432.38 47.4604 L1442.42 47.4604 L1442.42 33.1607 L1432.38 33.1607 Q1427.56 33.1607 1424.96 35.0241 Q1422.37 36.8875 1422.37 40.2903 M1411.76 72.576 L1425.61 52.6861 Q1420.91 51.6328 1417.79 48.8782 Q1414.68 46.0831 1414.68 40.2903 Q1414.68 33.7278 1419.01 30.4871 Q1423.38 27.2059 1432.18 27.2059 L1449.92 27.2059 L1449.92 72.576 L1442.42 72.576 L1442.42 53.4152 L1433.15 53.4152 L1419.78 72.576 L1411.76 72.576 Z" fill="#000000" fill-rule="nonzero" fill-opacity="1" /><path clip-path="url(#clip820)" d="M1459.4 27.2059 L1502.86 27.2059 L1502.86 33.1607 L1484.8 33.1607 L1484.8 72.576 L1477.46 72.576 L1477.46 33.1607 L1459.4 33.1607 L1459.4 27.2059 Z" fill="#000000" fill-rule="nonzero" fill-opacity="1" /><path clip-path="url(#clip820)" d="M1551.68 27.2059 L1551.68 72.576 L1544.26 72.576 L1544.26 36.1584 L1522.39 72.576 L1512.83 72.576 L1512.83 27.2059 L1520.24 27.2059 L1520.24 63.5425 L1542.08 27.2059 L1551.68 27.2059 Z" fill="#000000" fill-rule="nonzero" fill-opacity="1" /><path clip-path="url(#clip820)" d="M1634.96 63.9476 L1634.96 47.7034 L1621.6 47.7034 L1621.6 40.9789 L1643.07 40.9789 L1643.07 66.9452 Q1638.33 70.3075 1632.61 72.0494 Q1626.9 73.7508 1620.42 73.7508 Q1606.24 73.7508 1598.22 65.4869 Q1590.24 57.1826 1590.24 42.3968 Q1590.24 27.5705 1598.22 19.3066 Q1606.24 11.0023 1620.42 11.0023 Q1626.33 11.0023 1631.64 12.4606 Q1636.99 13.9189 1641.49 16.7545 L1641.49 25.464 Q1636.95 21.6156 1631.84 19.6712 Q1626.74 17.7268 1621.11 17.7268 Q1610.01 17.7268 1604.42 23.9246 Q1598.87 30.1225 1598.87 42.3968 Q1598.87 54.6305 1604.42 60.8284 Q1610.01 67.0263 1621.11 67.0263 Q1625.44 67.0263 1628.85 66.2971 Q1632.25 65.5274 1634.96 63.9476 Z" fill="#000000" fill-rule="nonzero" fill-opacity="1" /><path clip-path="url(#clip820)" d="M1658.01 12.096 L1666.2 12.096 L1666.2 65.6895 L1695.65 65.6895 L1695.65 72.576 L1658.01 72.576 L1658.01 12.096 Z" fill="#000000" fill-rule="nonzero" fill-opacity="1" /><path clip-path="url(#clip820)" d="M1705.81 62.2867 L1714.36 62.2867 L1714.36 72.576 L1705.81 72.576 L1705.81 62.2867 M1705.81 29.6769 L1714.36 29.6769 L1714.36 39.9662 L1705.81 39.9662 L1705.81 29.6769 Z" fill="#000000" fill-rule="nonzero" fill-opacity="1" /><path clip-path="url(#clip820)" d="M1765.4 51.6733 L1765.4 66.6212 L1776.02 66.6212 Q1781.12 66.6212 1783.79 64.7172 Q1786.47 62.7728 1786.47 59.127 Q1786.47 55.4812 1783.79 53.5773 Q1781.12 51.6733 1776.02 51.6733 L1765.4 51.6733 M1765.4 33.1607 L1765.4 45.7185 L1775.21 45.7185 Q1779.42 45.7185 1782.09 44.0576 Q1784.77 42.3563 1784.77 39.3586 Q1784.77 36.3609 1782.09 34.7811 Q1779.42 33.1607 1775.21 33.1607 L1765.4 33.1607 M1757.95 27.2059 L1775.69 27.2059 Q1783.67 27.2059 1787.97 30.1225 Q1792.26 33.0392 1792.26 38.4269 Q1792.26 42.5993 1790.07 45.0704 Q1787.88 47.5009 1783.59 48.1085 Q1788.74 49.0808 1791.57 52.1594 Q1794.41 55.2381 1794.41 59.8562 Q1794.41 65.9325 1789.71 69.2543 Q1785.05 72.576 1776.38 72.576 L1757.95 72.576 L1757.95 27.2059 Z" fill="#000000" fill-rule="nonzero" fill-opacity="1" /><path clip-path="url(#clip820)" d="M1845.93 48.0275 L1845.93 51.6733 L1811.66 51.6733 Q1812.15 59.3701 1816.28 63.421 Q1820.45 67.4314 1827.87 67.4314 Q1832.16 67.4314 1836.17 66.3781 Q1840.22 65.3249 1844.19 63.2184 L1844.19 70.267 Q1840.18 71.9684 1835.97 72.8596 Q1831.76 73.7508 1827.42 73.7508 Q1816.57 73.7508 1810.21 67.4314 Q1803.89 61.1119 1803.89 50.3365 Q1803.89 39.1965 1809.88 32.6746 Q1815.92 26.1121 1826.13 26.1121 Q1835.28 26.1121 1840.59 32.0264 Q1845.93 37.9003 1845.93 48.0275 M1838.48 45.84 Q1838.4 39.7232 1835.04 36.0774 Q1831.72 32.4315 1826.21 32.4315 Q1819.97 32.4315 1816.2 35.9558 Q1812.47 39.4801 1811.91 45.8805 L1838.48 45.84 Z" fill="#000000" fill-rule="nonzero" fill-opacity="1" /><path clip-path="url(#clip820)" d="M1890.82 28.9478 L1890.82 35.9153 Q1887.66 34.1734 1884.46 33.3227 Q1881.3 32.4315 1878.06 32.4315 Q1870.81 32.4315 1866.8 37.0496 Q1862.79 41.6271 1862.79 49.9314 Q1862.79 58.2358 1866.8 62.8538 Q1870.81 67.4314 1878.06 67.4314 Q1881.3 67.4314 1884.46 66.5807 Q1887.66 65.6895 1890.82 63.9476 L1890.82 70.8341 Q1887.7 72.2924 1884.34 73.0216 Q1881.02 73.7508 1877.25 73.7508 Q1867 73.7508 1860.96 67.3098 Q1854.93 60.8689 1854.93 49.9314 Q1854.93 38.832 1861 32.472 Q1867.12 26.1121 1877.73 26.1121 Q1881.18 26.1121 1884.46 26.8413 Q1887.74 27.5299 1890.82 28.9478 Z" fill="#000000" fill-rule="nonzero" fill-opacity="1" /><path clip-path="url(#clip820)" d="M1924.4 49.7694 Q1915.37 49.7694 1911.88 51.8354 Q1908.4 53.9013 1908.4 58.8839 Q1908.4 62.8538 1910.99 65.2034 Q1913.62 67.5124 1918.12 67.5124 Q1924.32 67.5124 1928.05 63.1374 Q1931.81 58.7219 1931.81 51.4303 L1931.81 49.7694 L1924.4 49.7694 M1939.27 46.6907 L1939.27 72.576 L1931.81 72.576 L1931.81 65.6895 Q1929.26 69.8214 1925.45 71.8063 Q1921.65 73.7508 1916.14 73.7508 Q1909.17 73.7508 1905.04 69.8619 Q1900.95 65.9325 1900.95 59.3701 Q1900.95 51.7138 1906.05 47.825 Q1911.19 43.9361 1921.36 43.9361 L1931.81 43.9361 L1931.81 43.2069 Q1931.81 38.0623 1928.41 35.2672 Q1925.05 32.4315 1918.93 32.4315 Q1915.04 32.4315 1911.36 33.3632 Q1907.67 34.295 1904.27 36.1584 L1904.27 29.2718 Q1908.36 27.692 1912.21 26.9223 Q1916.06 26.1121 1919.7 26.1121 Q1929.55 26.1121 1934.41 31.2163 Q1939.27 36.3204 1939.27 46.6907 Z" fill="#000000" fill-rule="nonzero" fill-opacity="1" /><path clip-path="url(#clip820)" d="M1990.59 9.17935 L1990.59 92.1419 L1983.71 92.1419 L1983.71 9.17935 L1990.59 9.17935 Z" fill="#000000" fill-rule="nonzero" fill-opacity="1" /><path clip-path="url(#clip820)" d="M2004.61 27.2059 L2012.06 27.2059 L2021.38 62.6108 L2030.66 27.2059 L2039.45 27.2059 L2048.76 62.6108 L2058.04 27.2059 L2065.49 27.2059 L2053.62 72.576 L2044.83 72.576 L2035.07 35.3887 L2025.27 72.576 L2016.48 72.576 L2004.61 27.2059 Z" fill="#000000" fill-rule="nonzero" fill-opacity="1" /><path clip-path="url(#clip820)" d="M2111.27 86.3491 L2111.27 92.1419 L2068.17 92.1419 L2068.17 86.3491 L2111.27 86.3491 Z" fill="#000000" fill-rule="nonzero" fill-opacity="1" /><path clip-path="url(#clip820)" d="M2118.28 27.2059 L2125.73 27.2059 L2125.73 73.3862 Q2125.73 82.0551 2122.41 85.944 Q2119.13 89.8329 2111.8 89.8329 L2108.96 89.8329 L2108.96 83.5134 L2110.94 83.5134 Q2115.2 83.5134 2116.74 81.5285 Q2118.28 79.5841 2118.28 73.3862 L2118.28 27.2059 M2118.28 9.54393 L2125.73 9.54393 L2125.73 18.9825 L2118.28 18.9825 L2118.28 9.54393 Z" fill="#000000" fill-rule="nonzero" fill-opacity="1" /><path clip-path="url(#clip820)" d="M2172.23 12.096 L2194.23 34.6595 L2186.09 34.6595 L2168.26 18.6585 L2150.44 34.6595 L2142.3 34.6595 L2164.29 12.096 L2172.23 12.096 Z" fill="#000000" fill-rule="nonzero" fill-opacity="1" /><path clip-path="url(#clip820)" d="M2245.43 80.2727 L2245.43 86.106 L2242.92 86.106 Q2232.84 86.106 2229.39 83.1084 Q2225.99 80.1107 2225.99 71.1582 L2225.99 61.4765 Q2225.99 55.3597 2223.8 53.0101 Q2221.62 50.6606 2215.86 50.6606 L2213.39 50.6606 L2213.39 44.8678 L2215.86 44.8678 Q2221.66 44.8678 2223.8 42.5588 Q2225.99 40.2093 2225.99 34.1734 L2225.99 24.4513 Q2225.99 15.4988 2229.39 12.5416 Q2232.84 9.54393 2242.92 9.54393 L2245.43 9.54393 L2245.43 15.3367 L2242.68 15.3367 Q2236.97 15.3367 2235.23 17.1191 Q2233.48 18.9015 2233.48 24.6133 L2233.48 34.6595 Q2233.48 41.0195 2231.62 43.8956 Q2229.8 46.7717 2225.34 47.7845 Q2229.84 48.8782 2231.66 51.7544 Q2233.48 54.6305 2233.48 60.9499 L2233.48 70.9961 Q2233.48 76.7079 2235.23 78.4903 Q2236.97 80.2727 2242.68 80.2727 L2245.43 80.2727 Z" fill="#000000" fill-rule="nonzero" fill-opacity="1" /><path clip-path="url(#clip820)" d="M2290.08 51.4708 L2288.29 42.1132 Q2286.47 32.5126 2279.26 32.5126 Q2273.83 32.5126 2271.36 36.9686 Q2268.24 42.5588 2268.24 49.9314 Q2268.24 58.8434 2271.28 63.0969 Q2274.36 67.4314 2279.26 67.4314 Q2284.69 67.4314 2287.6 58.8029 L2290.08 51.4708 M2294.25 39.075 L2298.26 27.2059 L2304.9 27.2059 L2296.6 51.7949 L2298.22 60.6663 Q2298.58 62.6513 2300 64.3122 Q2301.66 66.2566 2302.96 66.2566 L2306.52 66.2566 L2306.52 72.576 L2302.07 72.576 Q2298.26 72.576 2294.86 69.1732 Q2293.19 67.4719 2292.51 63.9071 Q2290.64 68.4036 2286.83 71.9279 Q2285.05 73.5887 2279.26 73.5887 Q2269.74 73.5887 2265.12 67.4314 Q2260.38 61.0714 2260.38 49.9314 Q2260.38 38.0218 2265.53 32.4315 Q2271.24 26.1931 2279.26 26.1931 Q2291.86 26.1931 2294.25 39.075 Z" fill="#000000" fill-rule="nonzero" fill-opacity="1" /><path clip-path="url(#clip820)" d="M2320.86 80.2727 L2323.7 80.2727 Q2329.37 80.2727 2331.07 78.5308 Q2332.81 76.7889 2332.81 70.9961 L2332.81 60.9499 Q2332.81 54.6305 2334.64 51.7544 Q2336.46 48.8782 2340.95 47.7845 Q2336.46 46.7717 2334.64 43.8956 Q2332.81 41.0195 2332.81 34.6595 L2332.81 24.6133 Q2332.81 18.861 2331.07 17.1191 Q2329.37 15.3367 2323.7 15.3367 L2320.86 15.3367 L2320.86 9.54393 L2323.41 9.54393 Q2333.5 9.54393 2336.86 12.5416 Q2340.27 15.4988 2340.27 24.4513 L2340.27 34.1734 Q2340.27 40.2093 2342.45 42.5588 Q2344.64 44.8678 2350.39 44.8678 L2352.91 44.8678 L2352.91 50.6606 L2350.39 50.6606 Q2344.64 50.6606 2342.45 53.0101 Q2340.27 55.3597 2340.27 61.4765 L2340.27 71.1582 Q2340.27 80.1107 2336.86 83.1084 Q2333.5 86.106 2323.41 86.106 L2320.86 86.106 L2320.86 80.2727 Z" fill="#000000" fill-rule="nonzero" fill-opacity="1" /><path clip-path="url(#clip820)" d="M2380.69 9.17935 L2380.69 92.1419 L2373.81 92.1419 L2373.81 9.17935 L2380.69 9.17935 Z" fill="#000000" fill-rule="nonzero" fill-opacity="1" /><path clip-path="url(#clip820)" d="M2464.3 27.2059 L2464.3 72.576 L2456.81 72.576 L2456.81 33.1607 L2432.63 33.1607 L2432.63 72.576 L2425.13 72.576 L2425.13 27.2059 L2464.3 27.2059 Z" fill="#000000" fill-rule="nonzero" fill-opacity="1" /><path clip-path="url(#clip820)" d="M2497.24 32.4315 Q2491.24 32.4315 2487.76 37.1306 Q2484.28 41.7891 2484.28 49.9314 Q2484.28 58.0738 2487.72 62.7728 Q2491.2 67.4314 2497.24 67.4314 Q2503.19 67.4314 2506.68 62.7323 Q2510.16 58.0333 2510.16 49.9314 Q2510.16 41.8701 2506.68 37.1711 Q2503.19 32.4315 2497.24 32.4315 M2497.24 26.1121 Q2506.96 26.1121 2512.51 32.4315 Q2518.06 38.7509 2518.06 49.9314 Q2518.06 61.0714 2512.51 67.4314 Q2506.96 73.7508 2497.24 73.7508 Q2487.48 73.7508 2481.93 67.4314 Q2476.42 61.0714 2476.42 49.9314 Q2476.42 38.7509 2481.93 32.4315 Q2487.48 26.1121 2497.24 26.1121 Z" fill="#000000" fill-rule="nonzero" fill-opacity="1" /><path clip-path="url(#clip820)" d="M2552.05 72.576 L2552.05 66.3781 Q2559.42 65.2439 2561.69 60.1397 Q2564.44 52.9696 2564.44 34.619 L2564.44 27.2059 L2595.11 27.2059 L2595.11 72.576 L2587.65 72.576 L2587.65 33.1607 L2571.9 33.1607 L2571.9 37.6572 Q2571.9 55.1571 2568.33 63.0159 Q2564.52 71.4012 2552.05 72.576 Z" fill="#000000" fill-rule="nonzero" fill-opacity="1" /><path clip-path="url(#clip820)" d="M2630.43 49.7694 Q2621.4 49.7694 2617.92 51.8354 Q2614.43 53.9013 2614.43 58.8839 Q2614.43 62.8538 2617.02 65.2034 Q2619.66 67.5124 2624.15 67.5124 Q2630.35 67.5124 2634.08 63.1374 Q2637.85 58.7219 2637.85 51.4303 L2637.85 49.7694 L2630.43 49.7694 M2645.3 46.6907 L2645.3 72.576 L2637.85 72.576 L2637.85 65.6895 Q2635.29 69.8214 2631.49 71.8063 Q2627.68 73.7508 2622.17 73.7508 Q2615.2 73.7508 2611.07 69.8619 Q2606.98 65.9325 2606.98 59.3701 Q2606.98 51.7138 2612.08 47.825 Q2617.23 43.9361 2627.39 43.9361 L2637.85 43.9361 L2637.85 43.2069 Q2637.85 38.0623 2634.44 35.2672 Q2631.08 32.4315 2624.96 32.4315 Q2621.07 32.4315 2617.39 33.3632 Q2613.7 34.295 2610.3 36.1584 L2610.3 29.2718 Q2614.39 27.692 2618.24 26.9223 Q2622.09 26.1121 2625.73 26.1121 Q2635.58 26.1121 2640.44 31.2163 Q2645.3 36.3204 2645.3 46.6907 Z" fill="#000000" fill-rule="nonzero" fill-opacity="1" /><path clip-path="url(#clip820)" d="M2660.37 72.576 L2660.37 27.2059 L2692.37 27.2059 L2692.37 33.1607 L2667.86 33.1607 L2667.86 72.576 L2660.37 72.576 Z" fill="#000000" fill-rule="nonzero" fill-opacity="1" /><path clip-path="url(#clip820)" d="M2724.86 49.7694 Q2715.83 49.7694 2712.34 51.8354 Q2708.86 53.9013 2708.86 58.8839 Q2708.86 62.8538 2711.45 65.2034 Q2714.08 67.5124 2718.58 67.5124 Q2724.78 67.5124 2728.5 63.1374 Q2732.27 58.7219 2732.27 51.4303 L2732.27 49.7694 L2724.86 49.7694 M2739.73 46.6907 L2739.73 72.576 L2732.27 72.576 L2732.27 65.6895 Q2729.72 69.8214 2725.91 71.8063 Q2722.1 73.7508 2716.6 73.7508 Q2709.63 73.7508 2705.5 69.8619 Q2701.4 65.9325 2701.4 59.3701 Q2701.4 51.7138 2706.51 47.825 Q2711.65 43.9361 2721.82 43.9361 L2732.27 43.9361 L2732.27 43.2069 Q2732.27 38.0623 2728.87 35.2672 Q2725.51 32.4315 2719.39 32.4315 Q2715.5 32.4315 2711.82 33.3632 Q2708.13 34.295 2704.73 36.1584 L2704.73 29.2718 Q2708.82 27.692 2712.67 26.9223 Q2716.51 26.1121 2720.16 26.1121 Q2730 26.1121 2734.86 31.2163 Q2739.73 36.3204 2739.73 46.6907 Z" fill="#000000" fill-rule="nonzero" fill-opacity="1" /><path clip-path="url(#clip820)" d="M2754.8 27.2059 L2765.69 27.2059 L2778.57 57.5877 L2791.5 27.2059 L2802.31 27.2059 L2802.31 72.576 L2794.82 72.576 L2794.82 34.3355 L2782.3 63.8666 L2774.85 63.8666 L2762.29 34.3355 L2762.29 72.576 L2754.8 72.576 L2754.8 27.2059 Z" fill="#000000" fill-rule="nonzero" fill-opacity="1" /><polyline clip-path="url(#clip821)" style="stroke:#800080; stroke-linecap:round; stroke-linejoin:round; stroke-width:8; stroke-opacity:0.85; fill:none" points="343.146,802.698 395.962,1419.29 448.777,1511.78 501.593,1545.31 554.409,1561.74 607.224,1571.18 660.04,1577.19 712.856,1581.28 765.671,1584.21 818.487,1586.4 871.303,1588.07 924.119,1589.39 976.934,1590.46 1029.75,1591.33 1082.57,1592.05 1135.38,1592.65 1188.2,1593.17 1241.01,1593.61 1293.83,1593.99 1346.64,1594.33 1399.46,1594.62 1452.28,1594.88 1505.09,1595.11 1557.91,1595.32 1610.72,1595.5 1663.54,1595.67 1716.35,1595.82 1769.17,1595.96 1821.99,1596.08 1874.8,1596.2 1927.62,1596.3 1980.43,1596.4 2033.25,1596.49 2086.06,1596.57 2138.88,1596.65 2191.7,1596.72 2244.51,1596.79 2297.33,1596.85 2350.14,1596.91 2402.96,1596.96 2455.77,1597.01 2508.59,1597.06 2561.41,1597.1 2614.22,1597.15 2667.04,1597.19 2719.85,1597.22 2772.67,1597.26 2825.48,1597.29 2878.3,1597.32 2931.12,1597.35 2983.93,1597.38 3036.75,1597.41 3089.56,1597.44 3142.38,1597.46 3195.19,1597.49 3248.01,1597.51 3300.83,1597.53 3353.64,1597.55 3406.46,1597.57 3459.27,1597.59 "/>
<polyline clip-path="url(#clip821)" style="stroke:#0000ff; stroke-linecap:round; stroke-linejoin:round; stroke-width:8; stroke-opacity:0.85; fill:none" points="343.146,658.043 395.962,1433.76 448.777,1524.26 501.593,1554.8 554.409,1569.16 607.224,1577.17 660.04,1582.15 712.856,1585.48 765.671,1587.83 818.487,1589.56 871.303,1590.87 924.119,1591.89 976.934,1592.71 1029.75,1593.37 1082.57,1593.91 1135.38,1594.36 1188.2,1594.75 1241.01,1595.07 1293.83,1595.35 1346.64,1595.6 1399.46,1595.81 1452.28,1596 1505.09,1596.16 1557.91,1596.31 1610.72,1596.44 1663.54,1596.56 1716.35,1596.67 1769.17,1596.76 1821.99,1596.85 1874.8,1596.93 1927.62,1597 1980.43,1597.07 2033.25,1597.13 2086.06,1597.19 2138.88,1597.24 2191.7,1597.29 2244.51,1597.33 2297.33,1597.38 2350.14,1597.42 2402.96,1597.45 2455.77,1597.49 2508.59,1597.52 2561.41,1597.55 2614.22,1597.58 2667.04,1597.6 2719.85,1597.63 2772.67,1597.65 2825.48,1597.67 2878.3,1597.7 2931.12,1597.72 2983.93,1597.74 3036.75,1597.75 3089.56,1597.77 3142.38,1597.79 3195.19,1597.8 3248.01,1597.82 3300.83,1597.83 3353.64,1597.84 3406.46,1597.86 3459.27,1597.87 "/>
<polyline clip-path="url(#clip821)" style="stroke:#008080; stroke-linecap:round; stroke-linejoin:round; stroke-width:8; stroke-opacity:0.85; fill:none" points="343.146,513.387 395.962,1462.69 448.777,1541.8 501.593,1566.52 554.409,1577.64 607.224,1583.67 660.04,1587.33 712.856,1589.73 765.671,1591.4 818.487,1592.6 871.303,1593.51 924.119,1594.21 976.934,1594.76 1029.75,1595.2 1082.57,1595.57 1135.38,1595.86 1188.2,1596.12 1241.01,1596.33 1293.83,1596.51 1346.64,1596.67 1399.46,1596.8 1452.28,1596.92 1505.09,1597.03 1557.91,1597.12 1610.72,1597.2 1663.54,1597.28 1716.35,1597.34 1769.17,1597.4 1821.99,1597.46 1874.8,1597.51 1927.62,1597.55 1980.43,1597.59 2033.25,1597.63 2086.06,1597.67 2138.88,1597.7 2191.7,1597.73 2244.51,1597.75 2297.33,1597.78 2350.14,1597.8 2402.96,1597.83 2455.77,1597.85 2508.59,1597.86 2561.41,1597.88 2614.22,1597.9 2667.04,1597.91 2719.85,1597.93 2772.67,1597.94 2825.48,1597.96 2878.3,1597.97 2931.12,1597.98 2983.93,1597.99 3036.75,1598 3089.56,1598.01 3142.38,1598.02 3195.19,1598.03 3248.01,1598.04 3300.83,1598.05 3353.64,1598.05 3406.46,1598.06 3459.27,1598.07 "/>
<polyline clip-path="url(#clip821)" style="stroke:#008000; stroke-linecap:round; stroke-linejoin:round; stroke-width:8; stroke-opacity:0.85; fill:none" points="343.146,368.732 395.962,1506.09 448.777,1562.95 501.593,1579.3 554.409,1586.33 607.224,1590.02 660.04,1592.21 712.856,1593.62 765.671,1594.58 818.487,1595.27 871.303,1595.78 924.119,1596.17 976.934,1596.47 1029.75,1596.72 1082.57,1596.91 1135.38,1597.07 1188.2,1597.21 1241.01,1597.32 1293.83,1597.41 1346.64,1597.5 1399.46,1597.57 1452.28,1597.63 1505.09,1597.68 1557.91,1597.73 1610.72,1597.77 1663.54,1597.81 1716.35,1597.85 1769.17,1597.88 1821.99,1597.9 1874.8,1597.93 1927.62,1597.95 1980.43,1597.97 2033.25,1597.99 2086.06,1598.01 2138.88,1598.02 2191.7,1598.04 2244.51,1598.05 2297.33,1598.06 2350.14,1598.07 2402.96,1598.08 2455.77,1598.09 2508.59,1598.1 2561.41,1598.11 2614.22,1598.12 2667.04,1598.13 2719.85,1598.13 2772.67,1598.14 2825.48,1598.15 2878.3,1598.15 2931.12,1598.16 2983.93,1598.16 3036.75,1598.17 3089.56,1598.17 3142.38,1598.18 3195.19,1598.18 3248.01,1598.19 3300.83,1598.19 3353.64,1598.19 3406.46,1598.2 3459.27,1598.2 "/>
<polyline clip-path="url(#clip821)" style="stroke:#ffa500; stroke-linecap:round; stroke-linejoin:round; stroke-width:8; stroke-opacity:0.85; fill:none" points="343.146,224.076 395.962,1563.95 448.777,1586.28 501.593,1592.14 554.409,1594.54 607.224,1595.77 660.04,1596.47 712.856,1596.92 765.671,1597.22 818.487,1597.43 871.303,1597.58 924.119,1597.7 976.934,1597.79 1029.75,1597.86 1082.57,1597.92 1135.38,1597.97 1188.2,1598.01 1241.01,1598.04 1293.83,1598.07 1346.64,1598.09 1399.46,1598.11 1452.28,1598.13 1505.09,1598.14 1557.91,1598.15 1610.72,1598.17 1663.54,1598.18 1716.35,1598.18 1769.17,1598.19 1821.99,1598.2 1874.8,1598.21 1927.62,1598.21 1980.43,1598.22 2033.25,1598.22 2086.06,1598.23 2138.88,1598.23 2191.7,1598.24 2244.51,1598.24 2297.33,1598.24 2350.14,1598.25 2402.96,1598.25 2455.77,1598.25 2508.59,1598.25 2561.41,1598.26 2614.22,1598.26 2667.04,1598.26 2719.85,1598.26 2772.67,1598.26 2825.48,1598.27 2878.3,1598.27 2931.12,1598.27 2983.93,1598.27 3036.75,1598.27 3089.56,1598.27 3142.38,1598.27 3195.19,1598.27 3248.01,1598.28 3300.83,1598.28 3353.64,1598.28 3406.46,1598.28 3459.27,1598.28 "/>
<polyline clip-path="url(#clip821)" style="stroke:#ff0000; stroke-linecap:round; stroke-linejoin:round; stroke-width:8; stroke-opacity:0.85; fill:none" points="343.146,151.749 395.962,1598.3 448.777,1598.3 501.593,1598.3 554.409,1598.3 607.224,1598.3 660.04,1598.3 712.856,1598.3 765.671,1598.3 818.487,1598.3 871.303,1598.3 924.119,1598.3 976.934,1598.3 1029.75,1598.3 1082.57,1598.3 1135.38,1598.3 1188.2,1598.3 1241.01,1598.3 1293.83,1598.3 1346.64,1598.3 1399.46,1598.3 1452.28,1598.3 1505.09,1598.3 1557.91,1598.3 1610.72,1598.3 1663.54,1598.3 1716.35,1598.3 1769.17,1598.3 1821.99,1598.3 1874.8,1598.3 1927.62,1598.3 1980.43,1598.3 2033.25,1598.3 2086.06,1598.3 2138.88,1598.3 2191.7,1598.3 2244.51,1598.3 2297.33,1598.3 2350.14,1598.3 2402.96,1598.3 2455.77,1598.3 2508.59,1598.3 2561.41,1598.3 2614.22,1598.3 2667.04,1598.3 2719.85,1598.3 2772.67,1598.3 2825.48,1598.3 2878.3,1598.3 2931.12,1598.3 2983.93,1598.3 3036.75,1598.3 3089.56,1598.3 3142.38,1598.3 3195.19,1598.3 3248.01,1598.3 3300.83,1598.3 3353.64,1598.3 3406.46,1598.3 3459.27,1598.3 "/>
<path clip-path="url(#clip820)" d="M2942.58 522.344 L3442.65 522.344 L3442.65 159.464 L2942.58 159.464  Z" fill="#ffffff" fill-rule="evenodd" fill-opacity="1"/>
<polyline clip-path="url(#clip820)" style="stroke:#000000; stroke-linecap:round; stroke-linejoin:round; stroke-width:4; stroke-opacity:1; fill:none" points="2942.58,522.344 3442.65,522.344 3442.65,159.464 2942.58,159.464 2942.58,522.344 "/>
<polyline clip-path="url(#clip820)" style="stroke:#800080; stroke-linecap:round; stroke-linejoin:round; stroke-width:8; stroke-opacity:0.85; fill:none" points="2979.28,211.304 3199.48,211.304 "/>
<path clip-path="url(#clip820)" d="M3253.15 216.524 L3252.13 211.176 Q3251.09 205.69 3246.97 205.69 Q3243.87 205.69 3242.46 208.237 Q3240.67 211.431 3240.67 215.644 Q3240.67 220.737 3242.41 223.167 Q3244.17 225.644 3246.97 225.644 Q3250.07 225.644 3251.74 220.713 L3253.15 216.524 M3255.54 209.44 L3257.83 202.658 L3261.62 202.658 L3256.88 216.709 L3257.8 221.778 Q3258.01 222.912 3258.82 223.862 Q3259.77 224.973 3260.51 224.973 L3262.55 224.973 L3262.55 228.584 L3260 228.584 Q3257.83 228.584 3255.88 226.639 Q3254.93 225.667 3254.54 223.63 Q3253.48 226.199 3251.3 228.213 Q3250.28 229.162 3246.97 229.162 Q3241.53 229.162 3238.89 225.644 Q3236.18 222.01 3236.18 215.644 Q3236.18 208.838 3239.12 205.644 Q3242.39 202.079 3246.97 202.079 Q3254.17 202.079 3255.54 209.44 Z" fill="#000000" fill-rule="nonzero" fill-opacity="1" /><path clip-path="url(#clip820)" d="M3269.84 207.056 L3299.52 207.056 L3299.52 210.945 L3269.84 210.945 L3269.84 207.056 M3269.84 216.5 L3299.52 216.5 L3299.52 220.436 L3269.84 220.436 L3269.84 216.5 Z" fill="#000000" fill-rule="nonzero" fill-opacity="1" /><path clip-path="url(#clip820)" d="M3319.61 197.102 Q3316 197.102 3314.17 200.667 Q3312.36 204.209 3312.36 211.338 Q3312.36 218.445 3314.17 222.01 Q3316 225.551 3319.61 225.551 Q3323.24 225.551 3325.05 222.01 Q3326.88 218.445 3326.88 211.338 Q3326.88 204.209 3325.05 200.667 Q3323.24 197.102 3319.61 197.102 M3319.61 193.399 Q3325.42 193.399 3328.48 198.005 Q3331.55 202.588 3331.55 211.338 Q3331.55 220.065 3328.48 224.672 Q3325.42 229.255 3319.61 229.255 Q3313.8 229.255 3310.72 224.672 Q3307.67 220.065 3307.67 211.338 Q3307.67 202.588 3310.72 198.005 Q3313.8 193.399 3319.61 193.399 Z" fill="#000000" fill-rule="nonzero" fill-opacity="1" /><path clip-path="url(#clip820)" d="M3339.77 222.704 L3344.66 222.704 L3344.66 228.584 L3339.77 228.584 L3339.77 222.704 Z" fill="#000000" fill-rule="nonzero" fill-opacity="1" /><path clip-path="url(#clip820)" d="M3354.89 194.024 L3373.24 194.024 L3373.24 197.959 L3359.17 197.959 L3359.17 206.431 Q3360.19 206.084 3361.21 205.922 Q3362.23 205.737 3363.24 205.737 Q3369.03 205.737 3372.41 208.908 Q3375.79 212.079 3375.79 217.496 Q3375.79 223.074 3372.32 226.176 Q3368.85 229.255 3362.53 229.255 Q3360.35 229.255 3358.08 228.885 Q3355.84 228.514 3353.43 227.774 L3353.43 223.074 Q3355.51 224.209 3357.73 224.764 Q3359.96 225.32 3362.43 225.32 Q3366.44 225.32 3368.78 223.213 Q3371.11 221.107 3371.11 217.496 Q3371.11 213.885 3368.78 211.778 Q3366.44 209.672 3362.43 209.672 Q3360.56 209.672 3358.68 210.088 Q3356.83 210.505 3354.89 211.385 L3354.89 194.024 Z" fill="#000000" fill-rule="nonzero" fill-opacity="1" /><path clip-path="url(#clip820)" d="M3385.05 194.024 L3403.41 194.024 L3403.41 197.959 L3389.33 197.959 L3389.33 206.431 Q3390.35 206.084 3391.37 205.922 Q3392.39 205.737 3393.41 205.737 Q3399.19 205.737 3402.57 208.908 Q3405.95 212.079 3405.95 217.496 Q3405.95 223.074 3402.48 226.176 Q3399.01 229.255 3392.69 229.255 Q3390.51 229.255 3388.24 228.885 Q3386 228.514 3383.59 227.774 L3383.59 223.074 Q3385.67 224.209 3387.9 224.764 Q3390.12 225.32 3392.6 225.32 Q3396.6 225.32 3398.94 223.213 Q3401.28 221.107 3401.28 217.496 Q3401.28 213.885 3398.94 211.778 Q3396.6 209.672 3392.6 209.672 Q3390.72 209.672 3388.85 210.088 Q3386.99 210.505 3385.05 211.385 L3385.05 194.024 Z" fill="#000000" fill-rule="nonzero" fill-opacity="1" /><polyline clip-path="url(#clip820)" style="stroke:#0000ff; stroke-linecap:round; stroke-linejoin:round; stroke-width:8; stroke-opacity:0.85; fill:none" points="2979.28,263.144 3199.48,263.144 "/>
<path clip-path="url(#clip820)" d="M3253.15 268.364 L3252.13 263.016 Q3251.09 257.53 3246.97 257.53 Q3243.87 257.53 3242.46 260.077 Q3240.67 263.271 3240.67 267.484 Q3240.67 272.577 3242.41 275.007 Q3244.17 277.484 3246.97 277.484 Q3250.07 277.484 3251.74 272.553 L3253.15 268.364 M3255.54 261.28 L3257.83 254.498 L3261.62 254.498 L3256.88 268.549 L3257.8 273.618 Q3258.01 274.752 3258.82 275.702 Q3259.77 276.813 3260.51 276.813 L3262.55 276.813 L3262.55 280.424 L3260 280.424 Q3257.83 280.424 3255.88 278.479 Q3254.93 277.507 3254.54 275.47 Q3253.48 278.039 3251.3 280.053 Q3250.28 281.002 3246.97 281.002 Q3241.53 281.002 3238.89 277.484 Q3236.18 273.85 3236.18 267.484 Q3236.18 260.678 3239.12 257.484 Q3242.39 253.919 3246.97 253.919 Q3254.17 253.919 3255.54 261.28 Z" fill="#000000" fill-rule="nonzero" fill-opacity="1" /><path clip-path="url(#clip820)" d="M3269.84 258.896 L3299.52 258.896 L3299.52 262.785 L3269.84 262.785 L3269.84 258.896 M3269.84 268.34 L3299.52 268.34 L3299.52 272.276 L3269.84 272.276 L3269.84 268.34 Z" fill="#000000" fill-rule="nonzero" fill-opacity="1" /><path clip-path="url(#clip820)" d="M3319.61 248.942 Q3316 248.942 3314.17 252.507 Q3312.36 256.049 3312.36 263.178 Q3312.36 270.285 3314.17 273.85 Q3316 277.391 3319.61 277.391 Q3323.24 277.391 3325.05 273.85 Q3326.88 270.285 3326.88 263.178 Q3326.88 256.049 3325.05 252.507 Q3323.24 248.942 3319.61 248.942 M3319.61 245.239 Q3325.42 245.239 3328.48 249.845 Q3331.55 254.428 3331.55 263.178 Q3331.55 271.905 3328.48 276.512 Q3325.42 281.095 3319.61 281.095 Q3313.8 281.095 3310.72 276.512 Q3307.67 271.905 3307.67 263.178 Q3307.67 254.428 3310.72 249.845 Q3313.8 245.239 3319.61 245.239 Z" fill="#000000" fill-rule="nonzero" fill-opacity="1" /><path clip-path="url(#clip820)" d="M3339.77 274.544 L3344.66 274.544 L3344.66 280.424 L3339.77 280.424 L3339.77 274.544 Z" fill="#000000" fill-rule="nonzero" fill-opacity="1" /><path clip-path="url(#clip820)" d="M3365.42 261.28 Q3362.27 261.28 3360.42 263.433 Q3358.59 265.586 3358.59 269.336 Q3358.59 273.063 3360.42 275.239 Q3362.27 277.391 3365.42 277.391 Q3368.57 277.391 3370.4 275.239 Q3372.25 273.063 3372.25 269.336 Q3372.25 265.586 3370.4 263.433 Q3368.57 261.28 3365.42 261.28 M3374.7 246.628 L3374.7 250.887 Q3372.94 250.054 3371.14 249.614 Q3369.35 249.174 3367.6 249.174 Q3362.97 249.174 3360.51 252.299 Q3358.08 255.424 3357.73 261.743 Q3359.1 259.729 3361.16 258.665 Q3363.22 257.577 3365.7 257.577 Q3370.91 257.577 3373.91 260.748 Q3376.95 263.896 3376.95 269.336 Q3376.95 274.66 3373.8 277.877 Q3370.65 281.095 3365.42 281.095 Q3359.42 281.095 3356.25 276.512 Q3353.08 271.905 3353.08 263.178 Q3353.08 254.984 3356.97 250.123 Q3360.86 245.239 3367.41 245.239 Q3369.17 245.239 3370.95 245.586 Q3372.76 245.933 3374.7 246.628 Z" fill="#000000" fill-rule="nonzero" fill-opacity="1" /><path clip-path="url(#clip820)" d="M3385.05 245.864 L3403.41 245.864 L3403.41 249.799 L3389.33 249.799 L3389.33 258.271 Q3390.35 257.924 3391.37 257.762 Q3392.39 257.577 3393.41 257.577 Q3399.19 257.577 3402.57 260.748 Q3405.95 263.919 3405.95 269.336 Q3405.95 274.914 3402.48 278.016 Q3399.01 281.095 3392.69 281.095 Q3390.51 281.095 3388.24 280.725 Q3386 280.354 3383.59 279.614 L3383.59 274.914 Q3385.67 276.049 3387.9 276.604 Q3390.12 277.16 3392.6 277.16 Q3396.6 277.16 3398.94 275.053 Q3401.28 272.947 3401.28 269.336 Q3401.28 265.725 3398.94 263.618 Q3396.6 261.512 3392.6 261.512 Q3390.72 261.512 3388.85 261.928 Q3386.99 262.345 3385.05 263.225 L3385.05 245.864 Z" fill="#000000" fill-rule="nonzero" fill-opacity="1" /><polyline clip-path="url(#clip820)" style="stroke:#008080; stroke-linecap:round; stroke-linejoin:round; stroke-width:8; stroke-opacity:0.85; fill:none" points="2979.28,314.984 3199.48,314.984 "/>
<path clip-path="url(#clip820)" d="M3253.15 320.204 L3252.13 314.856 Q3251.09 309.37 3246.97 309.37 Q3243.87 309.37 3242.46 311.917 Q3240.67 315.111 3240.67 319.324 Q3240.67 324.417 3242.41 326.847 Q3244.17 329.324 3246.97 329.324 Q3250.07 329.324 3251.74 324.393 L3253.15 320.204 M3255.54 313.12 L3257.83 306.338 L3261.62 306.338 L3256.88 320.389 L3257.8 325.458 Q3258.01 326.592 3258.82 327.542 Q3259.77 328.653 3260.51 328.653 L3262.55 328.653 L3262.55 332.264 L3260 332.264 Q3257.83 332.264 3255.88 330.319 Q3254.93 329.347 3254.54 327.31 Q3253.48 329.879 3251.3 331.893 Q3250.28 332.842 3246.97 332.842 Q3241.53 332.842 3238.89 329.324 Q3236.18 325.69 3236.18 319.324 Q3236.18 312.518 3239.12 309.324 Q3242.39 305.759 3246.97 305.759 Q3254.17 305.759 3255.54 313.12 Z" fill="#000000" fill-rule="nonzero" fill-opacity="1" /><path clip-path="url(#clip820)" d="M3269.84 310.736 L3299.52 310.736 L3299.52 314.625 L3269.84 314.625 L3269.84 310.736 M3269.84 320.18 L3299.52 320.18 L3299.52 324.116 L3269.84 324.116 L3269.84 320.18 Z" fill="#000000" fill-rule="nonzero" fill-opacity="1" /><path clip-path="url(#clip820)" d="M3319.61 300.782 Q3316 300.782 3314.17 304.347 Q3312.36 307.889 3312.36 315.018 Q3312.36 322.125 3314.17 325.69 Q3316 329.231 3319.61 329.231 Q3323.24 329.231 3325.05 325.69 Q3326.88 322.125 3326.88 315.018 Q3326.88 307.889 3325.05 304.347 Q3323.24 300.782 3319.61 300.782 M3319.61 297.079 Q3325.42 297.079 3328.48 301.685 Q3331.55 306.268 3331.55 315.018 Q3331.55 323.745 3328.48 328.352 Q3325.42 332.935 3319.61 332.935 Q3313.8 332.935 3310.72 328.352 Q3307.67 323.745 3307.67 315.018 Q3307.67 306.268 3310.72 301.685 Q3313.8 297.079 3319.61 297.079 Z" fill="#000000" fill-rule="nonzero" fill-opacity="1" /><path clip-path="url(#clip820)" d="M3339.77 326.384 L3344.66 326.384 L3344.66 332.264 L3339.77 332.264 L3339.77 326.384 Z" fill="#000000" fill-rule="nonzero" fill-opacity="1" /><path clip-path="url(#clip820)" d="M3353.66 297.704 L3375.88 297.704 L3375.88 299.694 L3363.34 332.264 L3358.45 332.264 L3370.26 301.639 L3353.66 301.639 L3353.66 297.704 Z" fill="#000000" fill-rule="nonzero" fill-opacity="1" /><path clip-path="url(#clip820)" d="M3385.05 297.704 L3403.41 297.704 L3403.41 301.639 L3389.33 301.639 L3389.33 310.111 Q3390.35 309.764 3391.37 309.602 Q3392.39 309.417 3393.41 309.417 Q3399.19 309.417 3402.57 312.588 Q3405.95 315.759 3405.95 321.176 Q3405.95 326.754 3402.48 329.856 Q3399.01 332.935 3392.69 332.935 Q3390.51 332.935 3388.24 332.565 Q3386 332.194 3383.59 331.454 L3383.59 326.754 Q3385.67 327.889 3387.9 328.444 Q3390.12 329 3392.6 329 Q3396.6 329 3398.94 326.893 Q3401.28 324.787 3401.28 321.176 Q3401.28 317.565 3398.94 315.458 Q3396.6 313.352 3392.6 313.352 Q3390.72 313.352 3388.85 313.768 Q3386.99 314.185 3385.05 315.065 L3385.05 297.704 Z" fill="#000000" fill-rule="nonzero" fill-opacity="1" /><polyline clip-path="url(#clip820)" style="stroke:#008000; stroke-linecap:round; stroke-linejoin:round; stroke-width:8; stroke-opacity:0.85; fill:none" points="2979.28,366.824 3199.48,366.824 "/>
<path clip-path="url(#clip820)" d="M3253.15 372.044 L3252.13 366.696 Q3251.09 361.21 3246.97 361.21 Q3243.87 361.21 3242.46 363.757 Q3240.67 366.951 3240.67 371.164 Q3240.67 376.257 3242.41 378.687 Q3244.17 381.164 3246.97 381.164 Q3250.07 381.164 3251.74 376.233 L3253.15 372.044 M3255.54 364.96 L3257.83 358.178 L3261.62 358.178 L3256.88 372.229 L3257.8 377.298 Q3258.01 378.432 3258.82 379.382 Q3259.77 380.493 3260.51 380.493 L3262.55 380.493 L3262.55 384.104 L3260 384.104 Q3257.83 384.104 3255.88 382.159 Q3254.93 381.187 3254.54 379.15 Q3253.48 381.719 3251.3 383.733 Q3250.28 384.682 3246.97 384.682 Q3241.53 384.682 3238.89 381.164 Q3236.18 377.53 3236.18 371.164 Q3236.18 364.358 3239.12 361.164 Q3242.39 357.599 3246.97 357.599 Q3254.17 357.599 3255.54 364.96 Z" fill="#000000" fill-rule="nonzero" fill-opacity="1" /><path clip-path="url(#clip820)" d="M3269.84 362.576 L3299.52 362.576 L3299.52 366.465 L3269.84 366.465 L3269.84 362.576 M3269.84 372.02 L3299.52 372.02 L3299.52 375.956 L3269.84 375.956 L3269.84 372.02 Z" fill="#000000" fill-rule="nonzero" fill-opacity="1" /><path clip-path="url(#clip820)" d="M3319.61 352.622 Q3316 352.622 3314.17 356.187 Q3312.36 359.729 3312.36 366.858 Q3312.36 373.965 3314.17 377.53 Q3316 381.071 3319.61 381.071 Q3323.24 381.071 3325.05 377.53 Q3326.88 373.965 3326.88 366.858 Q3326.88 359.729 3325.05 356.187 Q3323.24 352.622 3319.61 352.622 M3319.61 348.919 Q3325.42 348.919 3328.48 353.525 Q3331.55 358.108 3331.55 366.858 Q3331.55 375.585 3328.48 380.192 Q3325.42 384.775 3319.61 384.775 Q3313.8 384.775 3310.72 380.192 Q3307.67 375.585 3307.67 366.858 Q3307.67 358.108 3310.72 353.525 Q3313.8 348.919 3319.61 348.919 Z" fill="#000000" fill-rule="nonzero" fill-opacity="1" /><path clip-path="url(#clip820)" d="M3339.77 378.224 L3344.66 378.224 L3344.66 384.104 L3339.77 384.104 L3339.77 378.224 Z" fill="#000000" fill-rule="nonzero" fill-opacity="1" /><path clip-path="url(#clip820)" d="M3364.84 367.692 Q3361.51 367.692 3359.59 369.474 Q3357.69 371.257 3357.69 374.382 Q3357.69 377.507 3359.59 379.289 Q3361.51 381.071 3364.84 381.071 Q3368.17 381.071 3370.1 379.289 Q3372.02 377.483 3372.02 374.382 Q3372.02 371.257 3370.1 369.474 Q3368.2 367.692 3364.84 367.692 M3360.16 365.701 Q3357.16 364.96 3355.47 362.9 Q3353.8 360.84 3353.8 357.877 Q3353.8 353.734 3356.74 351.326 Q3359.7 348.919 3364.84 348.919 Q3370 348.919 3372.94 351.326 Q3375.88 353.734 3375.88 357.877 Q3375.88 360.84 3374.19 362.9 Q3372.53 364.96 3369.54 365.701 Q3372.92 366.488 3374.79 368.78 Q3376.69 371.071 3376.69 374.382 Q3376.69 379.405 3373.61 382.09 Q3370.56 384.775 3364.84 384.775 Q3359.12 384.775 3356.04 382.09 Q3352.99 379.405 3352.99 374.382 Q3352.99 371.071 3354.89 368.78 Q3356.79 366.488 3360.16 365.701 M3358.45 358.317 Q3358.45 361.002 3360.12 362.507 Q3361.81 364.011 3364.84 364.011 Q3367.85 364.011 3369.54 362.507 Q3371.25 361.002 3371.25 358.317 Q3371.25 355.632 3369.54 354.127 Q3367.85 352.622 3364.84 352.622 Q3361.81 352.622 3360.12 354.127 Q3358.45 355.632 3358.45 358.317 Z" fill="#000000" fill-rule="nonzero" fill-opacity="1" /><path clip-path="url(#clip820)" d="M3385.05 349.544 L3403.41 349.544 L3403.41 353.479 L3389.33 353.479 L3389.33 361.951 Q3390.35 361.604 3391.37 361.442 Q3392.39 361.257 3393.41 361.257 Q3399.19 361.257 3402.57 364.428 Q3405.95 367.599 3405.95 373.016 Q3405.95 378.594 3402.48 381.696 Q3399.01 384.775 3392.69 384.775 Q3390.51 384.775 3388.24 384.405 Q3386 384.034 3383.59 383.294 L3383.59 378.594 Q3385.67 379.729 3387.9 380.284 Q3390.12 380.84 3392.6 380.84 Q3396.6 380.84 3398.94 378.733 Q3401.28 376.627 3401.28 373.016 Q3401.28 369.405 3398.94 367.298 Q3396.6 365.192 3392.6 365.192 Q3390.72 365.192 3388.85 365.608 Q3386.99 366.025 3385.05 366.905 L3385.05 349.544 Z" fill="#000000" fill-rule="nonzero" fill-opacity="1" /><polyline clip-path="url(#clip820)" style="stroke:#ffa500; stroke-linecap:round; stroke-linejoin:round; stroke-width:8; stroke-opacity:0.85; fill:none" points="2979.28,418.664 3199.48,418.664 "/>
<path clip-path="url(#clip820)" d="M3253.15 423.884 L3252.13 418.536 Q3251.09 413.05 3246.97 413.05 Q3243.87 413.05 3242.46 415.597 Q3240.67 418.791 3240.67 423.004 Q3240.67 428.097 3242.41 430.527 Q3244.17 433.004 3246.97 433.004 Q3250.07 433.004 3251.74 428.073 L3253.15 423.884 M3255.54 416.8 L3257.83 410.018 L3261.62 410.018 L3256.88 424.069 L3257.8 429.138 Q3258.01 430.272 3258.82 431.222 Q3259.77 432.333 3260.51 432.333 L3262.55 432.333 L3262.55 435.944 L3260 435.944 Q3257.83 435.944 3255.88 433.999 Q3254.93 433.027 3254.54 430.99 Q3253.48 433.559 3251.3 435.573 Q3250.28 436.522 3246.97 436.522 Q3241.53 436.522 3238.89 433.004 Q3236.18 429.37 3236.18 423.004 Q3236.18 416.198 3239.12 413.004 Q3242.39 409.439 3246.97 409.439 Q3254.17 409.439 3255.54 416.8 Z" fill="#000000" fill-rule="nonzero" fill-opacity="1" /><path clip-path="url(#clip820)" d="M3269.84 414.416 L3299.52 414.416 L3299.52 418.305 L3269.84 418.305 L3269.84 414.416 M3269.84 423.86 L3299.52 423.86 L3299.52 427.796 L3269.84 427.796 L3269.84 423.86 Z" fill="#000000" fill-rule="nonzero" fill-opacity="1" /><path clip-path="url(#clip820)" d="M3319.61 404.462 Q3316 404.462 3314.17 408.027 Q3312.36 411.569 3312.36 418.698 Q3312.36 425.805 3314.17 429.37 Q3316 432.911 3319.61 432.911 Q3323.24 432.911 3325.05 429.37 Q3326.88 425.805 3326.88 418.698 Q3326.88 411.569 3325.05 408.027 Q3323.24 404.462 3319.61 404.462 M3319.61 400.759 Q3325.42 400.759 3328.48 405.365 Q3331.55 409.948 3331.55 418.698 Q3331.55 427.425 3328.48 432.032 Q3325.42 436.615 3319.61 436.615 Q3313.8 436.615 3310.72 432.032 Q3307.67 427.425 3307.67 418.698 Q3307.67 409.948 3310.72 405.365 Q3313.8 400.759 3319.61 400.759 Z" fill="#000000" fill-rule="nonzero" fill-opacity="1" /><path clip-path="url(#clip820)" d="M3339.77 430.064 L3344.66 430.064 L3344.66 435.944 L3339.77 435.944 L3339.77 430.064 Z" fill="#000000" fill-rule="nonzero" fill-opacity="1" /><path clip-path="url(#clip820)" d="M3354.98 435.226 L3354.98 430.967 Q3356.74 431.8 3358.54 432.24 Q3360.35 432.68 3362.09 432.68 Q3366.72 432.68 3369.15 429.578 Q3371.6 426.453 3371.95 420.11 Q3370.6 422.101 3368.54 423.166 Q3366.48 424.231 3363.98 424.231 Q3358.8 424.231 3355.77 421.106 Q3352.76 417.958 3352.76 412.518 Q3352.76 407.194 3355.91 403.976 Q3359.05 400.759 3364.29 400.759 Q3370.28 400.759 3373.43 405.365 Q3376.6 409.948 3376.6 418.698 Q3376.6 426.87 3372.71 431.754 Q3368.85 436.615 3362.29 436.615 Q3360.54 436.615 3358.73 436.268 Q3356.92 435.921 3354.98 435.226 M3364.29 420.573 Q3367.43 420.573 3369.26 418.421 Q3371.11 416.268 3371.11 412.518 Q3371.11 408.791 3369.26 406.638 Q3367.43 404.462 3364.29 404.462 Q3361.14 404.462 3359.29 406.638 Q3357.46 408.791 3357.46 412.518 Q3357.46 416.268 3359.29 418.421 Q3361.14 420.573 3364.29 420.573 Z" fill="#000000" fill-rule="nonzero" fill-opacity="1" /><path clip-path="url(#clip820)" d="M3385.05 401.384 L3403.41 401.384 L3403.41 405.319 L3389.33 405.319 L3389.33 413.791 Q3390.35 413.444 3391.37 413.282 Q3392.39 413.097 3393.41 413.097 Q3399.19 413.097 3402.57 416.268 Q3405.95 419.439 3405.95 424.856 Q3405.95 430.434 3402.48 433.536 Q3399.01 436.615 3392.69 436.615 Q3390.51 436.615 3388.24 436.245 Q3386 435.874 3383.59 435.134 L3383.59 430.434 Q3385.67 431.569 3387.9 432.124 Q3390.12 432.68 3392.6 432.68 Q3396.6 432.68 3398.94 430.573 Q3401.28 428.467 3401.28 424.856 Q3401.28 421.245 3398.94 419.138 Q3396.6 417.032 3392.6 417.032 Q3390.72 417.032 3388.85 417.448 Q3386.99 417.865 3385.05 418.745 L3385.05 401.384 Z" fill="#000000" fill-rule="nonzero" fill-opacity="1" /><polyline clip-path="url(#clip820)" style="stroke:#ff0000; stroke-linecap:round; stroke-linejoin:round; stroke-width:8; stroke-opacity:0.85; fill:none" points="2979.28,470.504 3199.48,470.504 "/>
<path clip-path="url(#clip820)" d="M3253.15 475.724 L3252.13 470.376 Q3251.09 464.89 3246.97 464.89 Q3243.87 464.89 3242.46 467.437 Q3240.67 470.631 3240.67 474.844 Q3240.67 479.937 3242.41 482.367 Q3244.17 484.844 3246.97 484.844 Q3250.07 484.844 3251.74 479.913 L3253.15 475.724 M3255.54 468.64 L3257.83 461.858 L3261.62 461.858 L3256.88 475.909 L3257.8 480.978 Q3258.01 482.112 3258.82 483.062 Q3259.77 484.173 3260.51 484.173 L3262.55 484.173 L3262.55 487.784 L3260 487.784 Q3257.83 487.784 3255.88 485.839 Q3254.93 484.867 3254.54 482.83 Q3253.48 485.399 3251.3 487.413 Q3250.28 488.362 3246.97 488.362 Q3241.53 488.362 3238.89 484.844 Q3236.18 481.21 3236.18 474.844 Q3236.18 468.038 3239.12 464.844 Q3242.39 461.279 3246.97 461.279 Q3254.17 461.279 3255.54 468.64 Z" fill="#000000" fill-rule="nonzero" fill-opacity="1" /><path clip-path="url(#clip820)" d="M3269.84 466.256 L3299.52 466.256 L3299.52 470.145 L3269.84 470.145 L3269.84 466.256 M3269.84 475.7 L3299.52 475.7 L3299.52 479.636 L3269.84 479.636 L3269.84 475.7 Z" fill="#000000" fill-rule="nonzero" fill-opacity="1" /><path clip-path="url(#clip820)" d="M3310.42 483.849 L3318.06 483.849 L3318.06 457.483 L3309.75 459.15 L3309.75 454.89 L3318.01 453.224 L3322.69 453.224 L3322.69 483.849 L3330.33 483.849 L3330.33 487.784 L3310.42 487.784 L3310.42 483.849 Z" fill="#000000" fill-rule="nonzero" fill-opacity="1" /><path clip-path="url(#clip820)" d="M3339.77 481.904 L3344.66 481.904 L3344.66 487.784 L3339.77 487.784 L3339.77 481.904 Z" fill="#000000" fill-rule="nonzero" fill-opacity="1" /><path clip-path="url(#clip820)" d="M3364.84 456.302 Q3361.23 456.302 3359.4 459.867 Q3357.6 463.409 3357.6 470.538 Q3357.6 477.645 3359.4 481.21 Q3361.23 484.751 3364.84 484.751 Q3368.48 484.751 3370.28 481.21 Q3372.11 477.645 3372.11 470.538 Q3372.11 463.409 3370.28 459.867 Q3368.48 456.302 3364.84 456.302 M3364.84 452.599 Q3370.65 452.599 3373.71 457.205 Q3376.79 461.788 3376.79 470.538 Q3376.79 479.265 3373.71 483.872 Q3370.65 488.455 3364.84 488.455 Q3359.03 488.455 3355.95 483.872 Q3352.9 479.265 3352.9 470.538 Q3352.9 461.788 3355.95 457.205 Q3359.03 452.599 3364.84 452.599 Z" fill="#000000" fill-rule="nonzero" fill-opacity="1" /></svg>
