<?xml version="1.0" encoding="utf-8"?>
<svg xmlns="http://www.w3.org/2000/svg" xmlns:xlink="http://www.w3.org/1999/xlink" width="800" height="420" viewBox="0 0 3200 1680">
<defs>
  <clipPath id="clip540">
    <rect x="0" y="0" width="3200" height="1680"/>
  </clipPath>
</defs>
<path clip-path="url(#clip540)" d="M0 1680 L3200 1680 L3200 0 L0 0  Z" fill="#ffffff" fill-rule="evenodd" fill-opacity="1"/>
<defs>
  <clipPath id="clip541">
    <rect x="247" y="158" width="2906" height="1363"/>
  </clipPath>
</defs>
<path clip-path="url(#clip540)" d="M247.444 1519.82 L3152.76 1519.82 L3152.76 158.248 L247.444 158.248  Z" fill="#ffffff" fill-rule="evenodd" fill-opacity="1"/>
<polyline clip-path="url(#clip541)" style="stroke:#000000; stroke-linecap:round; stroke-linejoin:round; stroke-width:2; stroke-opacity:0.1; fill:none" points="248.932,1519.82 248.932,158.248 "/>
<polyline clip-path="url(#clip541)" style="stroke:#000000; stroke-linecap:round; stroke-linejoin:round; stroke-width:2; stroke-opacity:0.1; fill:none" points="908.554,1519.82 908.554,158.248 "/>
<polyline clip-path="url(#clip541)" style="stroke:#000000; stroke-linecap:round; stroke-linejoin:round; stroke-width:2; stroke-opacity:0.1; fill:none" points="1568.18,1519.82 1568.18,158.248 "/>
<polyline clip-path="url(#clip541)" style="stroke:#000000; stroke-linecap:round; stroke-linejoin:round; stroke-width:2; stroke-opacity:0.1; fill:none" points="2227.8,1519.82 2227.8,158.248 "/>
<polyline clip-path="url(#clip541)" style="stroke:#000000; stroke-linecap:round; stroke-linejoin:round; stroke-width:2; stroke-opacity:0.1; fill:none" points="2887.42,1519.82 2887.42,158.248 "/>
<polyline clip-path="url(#clip541)" style="stroke:#000000; stroke-linecap:round; stroke-linejoin:round; stroke-width:2; stroke-opacity:0.1; fill:none" points="247.444,1519.82 3152.76,1519.82 "/>
<polyline clip-path="url(#clip541)" style="stroke:#000000; stroke-linecap:round; stroke-linejoin:round; stroke-width:2; stroke-opacity:0.1; fill:none" points="247.444,1195.64 3152.76,1195.64 "/>
<polyline clip-path="url(#clip541)" style="stroke:#000000; stroke-linecap:round; stroke-linejoin:round; stroke-width:2; stroke-opacity:0.1; fill:none" points="247.444,871.453 3152.76,871.453 "/>
<polyline clip-path="url(#clip541)" style="stroke:#000000; stroke-linecap:round; stroke-linejoin:round; stroke-width:2; stroke-opacity:0.1; fill:none" points="247.444,547.269 3152.76,547.269 "/>
<polyline clip-path="url(#clip541)" style="stroke:#000000; stroke-linecap:round; stroke-linejoin:round; stroke-width:2; stroke-opacity:0.1; fill:none" points="247.444,223.085 3152.76,223.085 "/>
<polyline clip-path="url(#clip540)" style="stroke:#000000; stroke-linecap:round; stroke-linejoin:round; stroke-width:4; stroke-opacity:1; fill:none" points="247.444,1519.82 3152.76,1519.82 "/>
<polyline clip-path="url(#clip540)" style="stroke:#000000; stroke-linecap:round; stroke-linejoin:round; stroke-width:4; stroke-opacity:1; fill:none" points="248.932,1519.82 248.932,1500.92 "/>
<polyline clip-path="url(#clip540)" style="stroke:#000000; stroke-linecap:round; stroke-linejoin:round; stroke-width:4; stroke-opacity:1; fill:none" points="908.554,1519.82 908.554,1500.92 "/>
<polyline clip-path="url(#clip540)" style="stroke:#000000; stroke-linecap:round; stroke-linejoin:round; stroke-width:4; stroke-opacity:1; fill:none" points="1568.18,1519.82 1568.18,1500.92 "/>
<polyline clip-path="url(#clip540)" style="stroke:#000000; stroke-linecap:round; stroke-linejoin:round; stroke-width:4; stroke-opacity:1; fill:none" points="2227.8,1519.82 2227.8,1500.92 "/>
<polyline clip-path="url(#clip540)" style="stroke:#000000; stroke-linecap:round; stroke-linejoin:round; stroke-width:4; stroke-opacity:1; fill:none" points="2887.42,1519.82 2887.42,1500.92 "/>
<path clip-path="url(#clip540)" d="M226.317 1557.14 Q222.705 1557.14 220.877 1560.71 Q219.071 1564.25 219.071 1571.38 Q219.071 1578.48 220.877 1582.05 Q222.705 1585.59 226.317 1585.59 Q229.951 1585.59 231.756 1582.05 Q233.585 1578.48 233.585 1571.38 Q233.585 1564.25 231.756 1560.71 Q229.951 1557.14 226.317 1557.14 M226.317 1553.44 Q232.127 1553.44 235.182 1558.04 Q238.261 1562.63 238.261 1571.38 Q238.261 1580.1 235.182 1584.71 Q232.127 1589.29 226.317 1589.29 Q220.506 1589.29 217.428 1584.71 Q214.372 1580.1 214.372 1571.38 Q214.372 1562.63 217.428 1558.04 Q220.506 1553.44 226.317 1553.44 Z" fill="#000000" fill-rule="nonzero" fill-opacity="1" /><path clip-path="url(#clip540)" d="M246.478 1582.74 L251.363 1582.74 L251.363 1588.62 L246.478 1588.62 L246.478 1582.74 Z" fill="#000000" fill-rule="nonzero" fill-opacity="1" /><path clip-path="url(#clip540)" d="M271.548 1557.14 Q267.937 1557.14 266.108 1560.71 Q264.302 1564.25 264.302 1571.38 Q264.302 1578.48 266.108 1582.05 Q267.937 1585.59 271.548 1585.59 Q275.182 1585.59 276.988 1582.05 Q278.816 1578.48 278.816 1571.38 Q278.816 1564.25 276.988 1560.71 Q275.182 1557.14 271.548 1557.14 M271.548 1553.44 Q277.358 1553.44 280.413 1558.04 Q283.492 1562.63 283.492 1571.38 Q283.492 1580.1 280.413 1584.71 Q277.358 1589.29 271.548 1589.29 Q265.738 1589.29 262.659 1584.71 Q259.603 1580.1 259.603 1571.38 Q259.603 1562.63 262.659 1558.04 Q265.738 1553.44 271.548 1553.44 Z" fill="#000000" fill-rule="nonzero" fill-opacity="1" /><path clip-path="url(#clip540)" d="M880.29 1584.69 L896.609 1584.69 L896.609 1588.62 L874.665 1588.62 L874.665 1584.69 Q877.327 1581.93 881.911 1577.3 Q886.517 1572.65 887.698 1571.31 Q889.943 1568.78 890.822 1567.05 Q891.725 1565.29 891.725 1563.6 Q891.725 1560.84 889.781 1559.11 Q887.86 1557.37 884.758 1557.37 Q882.559 1557.37 880.105 1558.14 Q877.674 1558.9 874.897 1560.45 L874.897 1555.73 Q877.721 1554.59 880.174 1554.02 Q882.628 1553.44 884.665 1553.44 Q890.035 1553.44 893.23 1556.12 Q896.424 1558.81 896.424 1563.3 Q896.424 1565.43 895.614 1567.35 Q894.827 1569.25 892.721 1571.84 Q892.142 1572.51 889.04 1575.73 Q885.938 1578.92 880.29 1584.69 Z" fill="#000000" fill-rule="nonzero" fill-opacity="1" /><path clip-path="url(#clip540)" d="M906.424 1582.74 L911.308 1582.74 L911.308 1588.62 L906.424 1588.62 L906.424 1582.74 Z" fill="#000000" fill-rule="nonzero" fill-opacity="1" /><path clip-path="url(#clip540)" d="M921.54 1554.06 L939.896 1554.06 L939.896 1558 L925.822 1558 L925.822 1566.47 Q926.841 1566.12 927.859 1565.96 Q928.878 1565.77 929.896 1565.77 Q935.683 1565.77 939.063 1568.95 Q942.443 1572.12 942.443 1577.53 Q942.443 1583.11 938.97 1586.21 Q935.498 1589.29 929.179 1589.29 Q927.003 1589.29 924.734 1588.92 Q922.489 1588.55 920.082 1587.81 L920.082 1583.11 Q922.165 1584.25 924.387 1584.8 Q926.609 1585.36 929.086 1585.36 Q933.091 1585.36 935.429 1583.25 Q937.767 1581.15 937.767 1577.53 Q937.767 1573.92 935.429 1571.82 Q933.091 1569.71 929.086 1569.71 Q927.211 1569.71 925.336 1570.13 Q923.484 1570.54 921.54 1571.42 L921.54 1554.06 Z" fill="#000000" fill-rule="nonzero" fill-opacity="1" /><path clip-path="url(#clip540)" d="M1535.34 1554.06 L1553.7 1554.06 L1553.7 1558 L1539.62 1558 L1539.62 1566.47 Q1540.64 1566.12 1541.66 1565.96 Q1542.68 1565.77 1543.7 1565.77 Q1549.48 1565.77 1552.86 1568.95 Q1556.24 1572.12 1556.24 1577.53 Q1556.24 1583.11 1552.77 1586.21 Q1549.3 1589.29 1542.98 1589.29 Q1540.8 1589.29 1538.53 1588.92 Q1536.29 1588.55 1533.88 1587.81 L1533.88 1583.11 Q1535.97 1584.25 1538.19 1584.8 Q1540.41 1585.36 1542.89 1585.36 Q1546.89 1585.36 1549.23 1583.25 Q1551.57 1581.15 1551.57 1577.53 Q1551.57 1573.92 1549.23 1571.82 Q1546.89 1569.71 1542.89 1569.71 Q1541.01 1569.71 1539.14 1570.13 Q1537.28 1570.54 1535.34 1571.42 L1535.34 1554.06 Z" fill="#000000" fill-rule="nonzero" fill-opacity="1" /><path clip-path="url(#clip540)" d="M1565.46 1582.74 L1570.34 1582.74 L1570.34 1588.62 L1565.46 1588.62 L1565.46 1582.74 Z" fill="#000000" fill-rule="nonzero" fill-opacity="1" /><path clip-path="url(#clip540)" d="M1590.53 1557.14 Q1586.91 1557.14 1585.09 1560.71 Q1583.28 1564.25 1583.28 1571.38 Q1583.28 1578.48 1585.09 1582.05 Q1586.91 1585.59 1590.53 1585.59 Q1594.16 1585.59 1595.96 1582.05 Q1597.79 1578.48 1597.79 1571.38 Q1597.79 1564.25 1595.96 1560.71 Q1594.16 1557.14 1590.53 1557.14 M1590.53 1553.44 Q1596.34 1553.44 1599.39 1558.04 Q1602.47 1562.63 1602.47 1571.38 Q1602.47 1580.1 1599.39 1584.71 Q1596.34 1589.29 1590.53 1589.29 Q1584.71 1589.29 1581.64 1584.71 Q1578.58 1580.1 1578.58 1571.38 Q1578.58 1562.63 1581.64 1558.04 Q1584.71 1553.44 1590.53 1553.44 Z" fill="#000000" fill-rule="nonzero" fill-opacity="1" /><path clip-path="url(#clip540)" d="M2194.12 1554.06 L2216.34 1554.06 L2216.34 1556.05 L2203.79 1588.62 L2198.91 1588.62 L2210.71 1558 L2194.12 1558 L2194.12 1554.06 Z" fill="#000000" fill-rule="nonzero" fill-opacity="1" /><path clip-path="url(#clip540)" d="M2225.46 1582.74 L2230.34 1582.74 L2230.34 1588.62 L2225.46 1588.62 L2225.46 1582.74 Z" fill="#000000" fill-rule="nonzero" fill-opacity="1" /><path clip-path="url(#clip540)" d="M2240.58 1554.06 L2258.93 1554.06 L2258.93 1558 L2244.86 1558 L2244.86 1566.47 Q2245.88 1566.12 2246.89 1565.96 Q2247.91 1565.77 2248.93 1565.77 Q2254.72 1565.77 2258.1 1568.95 Q2261.48 1572.12 2261.48 1577.53 Q2261.48 1583.11 2258.01 1586.21 Q2254.53 1589.29 2248.21 1589.29 Q2246.04 1589.29 2243.77 1588.92 Q2241.52 1588.55 2239.12 1587.81 L2239.12 1583.11 Q2241.2 1584.25 2243.42 1584.8 Q2245.64 1585.36 2248.12 1585.36 Q2252.13 1585.36 2254.46 1583.25 Q2256.8 1581.15 2256.8 1577.53 Q2256.8 1573.92 2254.46 1571.82 Q2252.13 1569.71 2248.12 1569.71 Q2246.25 1569.71 2244.37 1570.13 Q2242.52 1570.54 2240.58 1571.42 L2240.58 1554.06 Z" fill="#000000" fill-rule="nonzero" fill-opacity="1" /><path clip-path="url(#clip540)" d="M2839.49 1584.69 L2847.13 1584.69 L2847.13 1558.32 L2838.82 1559.99 L2838.82 1555.73 L2847.08 1554.06 L2851.76 1554.06 L2851.76 1584.69 L2859.4 1584.69 L2859.4 1588.62 L2839.49 1588.62 L2839.49 1584.69 Z" fill="#000000" fill-rule="nonzero" fill-opacity="1" /><path clip-path="url(#clip540)" d="M2878.84 1557.14 Q2875.23 1557.14 2873.4 1560.71 Q2871.6 1564.25 2871.6 1571.38 Q2871.6 1578.48 2873.4 1582.05 Q2875.23 1585.59 2878.84 1585.59 Q2882.48 1585.59 2884.28 1582.05 Q2886.11 1578.48 2886.11 1571.38 Q2886.11 1564.25 2884.28 1560.71 Q2882.48 1557.14 2878.84 1557.14 M2878.84 1553.44 Q2884.65 1553.44 2887.71 1558.04 Q2890.79 1562.63 2890.79 1571.38 Q2890.79 1580.1 2887.71 1584.71 Q2884.65 1589.29 2878.84 1589.29 Q2873.03 1589.29 2869.95 1584.71 Q2866.9 1580.1 2866.9 1571.38 Q2866.9 1562.63 2869.95 1558.04 Q2873.03 1553.44 2878.84 1553.44 Z" fill="#000000" fill-rule="nonzero" fill-opacity="1" /><path clip-path="url(#clip540)" d="M2899 1582.74 L2903.89 1582.74 L2903.89 1588.62 L2899 1588.62 L2899 1582.74 Z" fill="#000000" fill-rule="nonzero" fill-opacity="1" /><path clip-path="url(#clip540)" d="M2924.07 1557.14 Q2920.46 1557.14 2918.63 1560.71 Q2916.83 1564.25 2916.83 1571.38 Q2916.83 1578.48 2918.63 1582.05 Q2920.46 1585.59 2924.07 1585.59 Q2927.71 1585.59 2929.51 1582.05 Q2931.34 1578.48 2931.34 1571.38 Q2931.34 1564.25 2929.51 1560.71 Q2927.71 1557.14 2924.07 1557.14 M2924.07 1553.44 Q2929.88 1553.44 2932.94 1558.04 Q2936.02 1562.63 2936.02 1571.38 Q2936.02 1580.1 2932.94 1584.71 Q2929.88 1589.29 2924.07 1589.29 Q2918.26 1589.29 2915.19 1584.71 Q2912.13 1580.1 2912.13 1571.38 Q2912.13 1562.63 2915.19 1558.04 Q2918.26 1553.44 2924.07 1553.44 Z" fill="#000000" fill-rule="nonzero" fill-opacity="1" /><path clip-path="url(#clip540)" d="M1608.27 1653.99 L1608.27 1671.4 L1618.59 1671.4 Q1623.78 1671.4 1626.26 1669.27 Q1628.77 1667.11 1628.77 1662.68 Q1628.77 1658.23 1626.26 1656.12 Q1623.78 1653.99 1618.59 1653.99 L1608.27 1653.99 M1608.27 1634.45 L1608.27 1648.77 L1617.79 1648.77 Q1622.5 1648.77 1624.79 1647.02 Q1627.12 1645.24 1627.12 1641.61 Q1627.12 1638.01 1624.79 1636.23 Q1622.5 1634.45 1617.79 1634.45 L1608.27 1634.45 M1601.85 1629.17 L1618.27 1629.17 Q1625.62 1629.17 1629.6 1632.22 Q1633.58 1635.28 1633.58 1640.91 Q1633.58 1645.27 1631.54 1647.85 Q1629.5 1650.43 1625.56 1651.06 Q1630.3 1652.08 1632.91 1655.33 Q1635.55 1658.54 1635.55 1663.38 Q1635.55 1669.75 1631.22 1673.22 Q1626.89 1676.69 1618.91 1676.69 L1601.85 1676.69 L1601.85 1629.17 Z" fill="#000000" fill-rule="nonzero" fill-opacity="1" /><path clip-path="url(#clip540)" d="M1660.12 1645.14 Q1655.41 1645.14 1652.68 1648.84 Q1649.94 1652.5 1649.94 1658.89 Q1649.94 1665.29 1652.64 1668.98 Q1655.38 1672.64 1660.12 1672.64 Q1664.8 1672.64 1667.54 1668.95 Q1670.28 1665.26 1670.28 1658.89 Q1670.28 1652.56 1667.54 1648.87 Q1664.8 1645.14 1660.12 1645.14 M1660.12 1640.18 Q1667.76 1640.18 1672.12 1645.14 Q1676.48 1650.11 1676.48 1658.89 Q1676.48 1667.65 1672.12 1672.64 Q1667.76 1677.61 1660.12 1677.61 Q1652.45 1677.61 1648.09 1672.64 Q1643.76 1667.65 1643.76 1658.89 Q1643.76 1650.11 1648.09 1645.14 Q1652.45 1640.18 1660.12 1640.18 Z" fill="#000000" fill-rule="nonzero" fill-opacity="1" /><path clip-path="url(#clip540)" d="M1682.47 1676.69 L1682.47 1671.82 Q1688.26 1670.92 1690.04 1666.91 Q1692.21 1661.28 1692.21 1646.86 L1692.21 1641.04 L1716.3 1641.04 L1716.3 1676.69 L1710.44 1676.69 L1710.44 1645.72 L1698.06 1645.72 L1698.06 1649.25 Q1698.06 1663 1695.26 1669.17 Q1692.27 1675.76 1682.47 1676.69 Z" fill="#000000" fill-rule="nonzero" fill-opacity="1" /><path clip-path="url(#clip540)" d="M1727.63 1641.04 L1733.52 1641.04 L1733.52 1655.58 L1752.52 1655.58 L1752.52 1641.04 L1758.41 1641.04 L1758.41 1676.69 L1752.52 1676.69 L1752.52 1660.26 L1733.52 1660.26 L1733.52 1676.69 L1727.63 1676.69 L1727.63 1641.04 Z" fill="#000000" fill-rule="nonzero" fill-opacity="1" /><path clip-path="url(#clip540)" d="M1786.67 1658.77 Q1779.58 1658.77 1776.84 1660.39 Q1774.1 1662.01 1774.1 1665.93 Q1774.1 1669.05 1776.14 1670.89 Q1778.21 1672.71 1781.74 1672.71 Q1786.61 1672.71 1789.54 1669.27 Q1792.5 1665.8 1792.5 1660.07 L1792.5 1658.77 L1786.67 1658.77 M1798.35 1656.35 L1798.35 1676.69 L1792.5 1676.69 L1792.5 1671.27 Q1790.49 1674.52 1787.5 1676.08 Q1784.51 1677.61 1780.18 1677.61 Q1774.71 1677.61 1771.46 1674.55 Q1768.24 1671.47 1768.24 1666.31 Q1768.24 1660.29 1772.26 1657.24 Q1776.3 1654.18 1784.29 1654.18 L1792.5 1654.18 L1792.5 1653.61 Q1792.5 1649.57 1789.82 1647.37 Q1787.18 1645.14 1782.38 1645.14 Q1779.32 1645.14 1776.42 1645.88 Q1773.53 1646.61 1770.85 1648.07 L1770.85 1642.66 Q1774.07 1641.42 1777.09 1640.82 Q1780.12 1640.18 1782.98 1640.18 Q1790.72 1640.18 1794.54 1644.19 Q1798.35 1648.2 1798.35 1656.35 Z" fill="#000000" fill-rule="nonzero" fill-opacity="1" /><polyline clip-path="url(#clip540)" style="stroke:#000000; stroke-linecap:round; stroke-linejoin:round; stroke-width:4; stroke-opacity:1; fill:none" points="247.444,1519.82 247.444,158.248 "/>
<polyline clip-path="url(#clip540)" style="stroke:#000000; stroke-linecap:round; stroke-linejoin:round; stroke-width:4; stroke-opacity:1; fill:none" points="247.444,1519.82 266.342,1519.82 "/>
<polyline clip-path="url(#clip540)" style="stroke:#000000; stroke-linecap:round; stroke-linejoin:round; stroke-width:4; stroke-opacity:1; fill:none" points="247.444,1195.64 266.342,1195.64 "/>
<polyline clip-path="url(#clip540)" style="stroke:#000000; stroke-linecap:round; stroke-linejoin:round; stroke-width:4; stroke-opacity:1; fill:none" points="247.444,871.453 266.342,871.453 "/>
<polyline clip-path="url(#clip540)" style="stroke:#000000; stroke-linecap:round; stroke-linejoin:round; stroke-width:4; stroke-opacity:1; fill:none" points="247.444,547.269 266.342,547.269 "/>
<polyline clip-path="url(#clip540)" style="stroke:#000000; stroke-linecap:round; stroke-linejoin:round; stroke-width:4; stroke-opacity:1; fill:none" points="247.444,223.085 266.342,223.085 "/>
<path clip-path="url(#clip540)" d="M112.107 1505.62 Q108.495 1505.62 106.667 1509.19 Q104.861 1512.73 104.861 1519.86 Q104.861 1526.96 106.667 1530.53 Q108.495 1534.07 112.107 1534.07 Q115.741 1534.07 117.546 1530.53 Q119.375 1526.96 119.375 1519.86 Q119.375 1512.73 117.546 1509.19 Q115.741 1505.62 112.107 1505.62 M112.107 1501.92 Q117.917 1501.92 120.972 1506.52 Q124.051 1511.11 124.051 1519.86 Q124.051 1528.58 120.972 1533.19 Q117.917 1537.77 112.107 1537.77 Q106.296 1537.77 103.218 1533.19 Q100.162 1528.58 100.162 1519.86 Q100.162 1511.11 103.218 1506.52 Q106.296 1501.92 112.107 1501.92 Z" fill="#000000" fill-rule="nonzero" fill-opacity="1" /><path clip-path="url(#clip540)" d="M132.268 1531.22 L137.153 1531.22 L137.153 1537.1 L132.268 1537.1 L132.268 1531.22 Z" fill="#000000" fill-rule="nonzero" fill-opacity="1" /><path clip-path="url(#clip540)" d="M157.338 1505.62 Q153.727 1505.62 151.898 1509.19 Q150.092 1512.73 150.092 1519.86 Q150.092 1526.96 151.898 1530.53 Q153.727 1534.07 157.338 1534.07 Q160.972 1534.07 162.778 1530.53 Q164.606 1526.96 164.606 1519.86 Q164.606 1512.73 162.778 1509.19 Q160.972 1505.62 157.338 1505.62 M157.338 1501.92 Q163.148 1501.92 166.203 1506.52 Q169.282 1511.11 169.282 1519.86 Q169.282 1528.58 166.203 1533.19 Q163.148 1537.77 157.338 1537.77 Q151.528 1537.77 148.449 1533.19 Q145.393 1528.58 145.393 1519.86 Q145.393 1511.11 148.449 1506.52 Q151.528 1501.92 157.338 1501.92 Z" fill="#000000" fill-rule="nonzero" fill-opacity="1" /><path clip-path="url(#clip540)" d="M187.5 1505.62 Q183.889 1505.62 182.06 1509.19 Q180.254 1512.73 180.254 1519.86 Q180.254 1526.96 182.06 1530.53 Q183.889 1534.07 187.5 1534.07 Q191.134 1534.07 192.939 1530.53 Q194.768 1526.96 194.768 1519.86 Q194.768 1512.73 192.939 1509.19 Q191.134 1505.62 187.5 1505.62 M187.5 1501.92 Q193.31 1501.92 196.365 1506.52 Q199.444 1511.11 199.444 1519.86 Q199.444 1528.58 196.365 1533.19 Q193.31 1537.77 187.5 1537.77 Q181.689 1537.77 178.611 1533.19 Q175.555 1528.58 175.555 1519.86 Q175.555 1511.11 178.611 1506.52 Q181.689 1501.92 187.5 1501.92 Z" fill="#000000" fill-rule="nonzero" fill-opacity="1" /><path clip-path="url(#clip540)" d="M113.102 1181.44 Q109.491 1181.44 107.662 1185 Q105.857 1188.54 105.857 1195.67 Q105.857 1202.78 107.662 1206.34 Q109.491 1209.89 113.102 1209.89 Q116.736 1209.89 118.542 1206.34 Q120.37 1202.78 120.37 1195.67 Q120.37 1188.54 118.542 1185 Q116.736 1181.44 113.102 1181.44 M113.102 1177.73 Q118.912 1177.73 121.968 1182.34 Q125.046 1186.92 125.046 1195.67 Q125.046 1204.4 121.968 1209.01 Q118.912 1213.59 113.102 1213.59 Q107.292 1213.59 104.213 1209.01 Q101.158 1204.4 101.158 1195.67 Q101.158 1186.92 104.213 1182.34 Q107.292 1177.73 113.102 1177.73 Z" fill="#000000" fill-rule="nonzero" fill-opacity="1" /><path clip-path="url(#clip540)" d="M133.264 1207.04 L138.148 1207.04 L138.148 1212.92 L133.264 1212.92 L133.264 1207.04 Z" fill="#000000" fill-rule="nonzero" fill-opacity="1" /><path clip-path="url(#clip540)" d="M152.361 1208.98 L168.68 1208.98 L168.68 1212.92 L146.736 1212.92 L146.736 1208.98 Q149.398 1206.23 153.981 1201.6 Q158.588 1196.95 159.768 1195.6 Q162.014 1193.08 162.893 1191.34 Q163.796 1189.58 163.796 1187.89 Q163.796 1185.14 161.852 1183.4 Q159.93 1181.67 156.829 1181.67 Q154.629 1181.67 152.176 1182.43 Q149.745 1183.2 146.967 1184.75 L146.967 1180.02 Q149.792 1178.89 152.245 1178.31 Q154.699 1177.73 156.736 1177.73 Q162.106 1177.73 165.301 1180.42 Q168.495 1183.1 168.495 1187.59 Q168.495 1189.72 167.685 1191.64 Q166.898 1193.54 164.791 1196.14 Q164.213 1196.81 161.111 1200.02 Q158.009 1203.22 152.361 1208.98 Z" fill="#000000" fill-rule="nonzero" fill-opacity="1" /><path clip-path="url(#clip540)" d="M178.541 1178.36 L196.898 1178.36 L196.898 1182.29 L182.824 1182.29 L182.824 1190.76 Q183.842 1190.42 184.861 1190.26 Q185.879 1190.07 186.898 1190.07 Q192.685 1190.07 196.064 1193.24 Q199.444 1196.41 199.444 1201.83 Q199.444 1207.41 195.972 1210.51 Q192.5 1213.59 186.18 1213.59 Q184.004 1213.59 181.736 1213.22 Q179.49 1212.85 177.083 1212.11 L177.083 1207.41 Q179.166 1208.54 181.389 1209.1 Q183.611 1209.65 186.088 1209.65 Q190.092 1209.65 192.43 1207.55 Q194.768 1205.44 194.768 1201.83 Q194.768 1198.22 192.43 1196.11 Q190.092 1194.01 186.088 1194.01 Q184.213 1194.01 182.338 1194.42 Q180.486 1194.84 178.541 1195.72 L178.541 1178.36 Z" fill="#000000" fill-rule="nonzero" fill-opacity="1" /><path clip-path="url(#clip540)" d="M112.107 857.252 Q108.495 857.252 106.667 860.817 Q104.861 864.359 104.861 871.488 Q104.861 878.595 106.667 882.159 Q108.495 885.701 112.107 885.701 Q115.741 885.701 117.546 882.159 Q119.375 878.595 119.375 871.488 Q119.375 864.359 117.546 860.817 Q115.741 857.252 112.107 857.252 M112.107 853.548 Q117.917 853.548 120.972 858.155 Q124.051 862.738 124.051 871.488 Q124.051 880.215 120.972 884.821 Q117.917 889.405 112.107 889.405 Q106.296 889.405 103.218 884.821 Q100.162 880.215 100.162 871.488 Q100.162 862.738 103.218 858.155 Q106.296 853.548 112.107 853.548 Z" fill="#000000" fill-rule="nonzero" fill-opacity="1" /><path clip-path="url(#clip540)" d="M132.268 882.854 L137.153 882.854 L137.153 888.733 L132.268 888.733 L132.268 882.854 Z" fill="#000000" fill-rule="nonzero" fill-opacity="1" /><path clip-path="url(#clip540)" d="M147.384 854.173 L165.741 854.173 L165.741 858.109 L151.667 858.109 L151.667 866.581 Q152.685 866.234 153.704 866.071 Q154.722 865.886 155.741 865.886 Q161.528 865.886 164.907 869.058 Q168.287 872.229 168.287 877.646 Q168.287 883.224 164.815 886.326 Q161.342 889.405 155.023 889.405 Q152.847 889.405 150.579 889.034 Q148.333 888.664 145.926 887.923 L145.926 883.224 Q148.009 884.358 150.231 884.914 Q152.454 885.47 154.93 885.47 Q158.935 885.47 161.273 883.363 Q163.611 881.257 163.611 877.646 Q163.611 874.034 161.273 871.928 Q158.935 869.821 154.93 869.821 Q153.055 869.821 151.18 870.238 Q149.329 870.655 147.384 871.534 L147.384 854.173 Z" fill="#000000" fill-rule="nonzero" fill-opacity="1" /><path clip-path="url(#clip540)" d="M187.5 857.252 Q183.889 857.252 182.06 860.817 Q180.254 864.359 180.254 871.488 Q180.254 878.595 182.06 882.159 Q183.889 885.701 187.5 885.701 Q191.134 885.701 192.939 882.159 Q194.768 878.595 194.768 871.488 Q194.768 864.359 192.939 860.817 Q191.134 857.252 187.5 857.252 M187.5 853.548 Q193.31 853.548 196.365 858.155 Q199.444 862.738 199.444 871.488 Q199.444 880.215 196.365 884.821 Q193.31 889.405 187.5 889.405 Q181.689 889.405 178.611 884.821 Q175.555 880.215 175.555 871.488 Q175.555 862.738 178.611 858.155 Q181.689 853.548 187.5 853.548 Z" fill="#000000" fill-rule="nonzero" fill-opacity="1" /><path clip-path="url(#clip540)" d="M113.102 533.068 Q109.491 533.068 107.662 536.633 Q105.857 540.174 105.857 547.304 Q105.857 554.41 107.662 557.975 Q109.491 561.517 113.102 561.517 Q116.736 561.517 118.542 557.975 Q120.37 554.41 120.37 547.304 Q120.37 540.174 118.542 536.633 Q116.736 533.068 113.102 533.068 M113.102 529.364 Q118.912 529.364 121.968 533.971 Q125.046 538.554 125.046 547.304 Q125.046 556.031 121.968 560.637 Q118.912 565.22 113.102 565.22 Q107.292 565.22 104.213 560.637 Q101.158 556.031 101.158 547.304 Q101.158 538.554 104.213 533.971 Q107.292 529.364 113.102 529.364 Z" fill="#000000" fill-rule="nonzero" fill-opacity="1" /><path clip-path="url(#clip540)" d="M133.264 558.67 L138.148 558.67 L138.148 564.549 L133.264 564.549 L133.264 558.67 Z" fill="#000000" fill-rule="nonzero" fill-opacity="1" /><path clip-path="url(#clip540)" d="M147.153 529.989 L169.375 529.989 L169.375 531.98 L156.829 564.549 L151.944 564.549 L163.75 533.924 L147.153 533.924 L147.153 529.989 Z" fill="#000000" fill-rule="nonzero" fill-opacity="1" /><path clip-path="url(#clip540)" d="M178.541 529.989 L196.898 529.989 L196.898 533.924 L182.824 533.924 L182.824 542.397 Q183.842 542.049 184.861 541.887 Q185.879 541.702 186.898 541.702 Q192.685 541.702 196.064 544.873 Q199.444 548.045 199.444 553.461 Q199.444 559.04 195.972 562.142 Q192.5 565.22 186.18 565.22 Q184.004 565.22 181.736 564.85 Q179.49 564.48 177.083 563.739 L177.083 559.04 Q179.166 560.174 181.389 560.73 Q183.611 561.285 186.088 561.285 Q190.092 561.285 192.43 559.179 Q194.768 557.072 194.768 553.461 Q194.768 549.85 192.43 547.744 Q190.092 545.637 186.088 545.637 Q184.213 545.637 182.338 546.054 Q180.486 546.471 178.541 547.35 L178.541 529.989 Z" fill="#000000" fill-rule="nonzero" fill-opacity="1" /><path clip-path="url(#clip540)" d="M102.917 236.43 L110.556 236.43 L110.556 210.064 L102.245 211.731 L102.245 207.472 L110.509 205.805 L115.185 205.805 L115.185 236.43 L122.824 236.43 L122.824 240.365 L102.917 240.365 L102.917 236.43 Z" fill="#000000" fill-rule="nonzero" fill-opacity="1" /><path clip-path="url(#clip540)" d="M132.268 234.485 L137.153 234.485 L137.153 240.365 L132.268 240.365 L132.268 234.485 Z" fill="#000000" fill-rule="nonzero" fill-opacity="1" /><path clip-path="url(#clip540)" d="M157.338 208.884 Q153.727 208.884 151.898 212.448 Q150.092 215.99 150.092 223.12 Q150.092 230.226 151.898 233.791 Q153.727 237.333 157.338 237.333 Q160.972 237.333 162.778 233.791 Q164.606 230.226 164.606 223.12 Q164.606 215.99 162.778 212.448 Q160.972 208.884 157.338 208.884 M157.338 205.18 Q163.148 205.18 166.203 209.786 Q169.282 214.37 169.282 223.12 Q169.282 231.846 166.203 236.453 Q163.148 241.036 157.338 241.036 Q151.528 241.036 148.449 236.453 Q145.393 231.846 145.393 223.12 Q145.393 214.37 148.449 209.786 Q151.528 205.18 157.338 205.18 Z" fill="#000000" fill-rule="nonzero" fill-opacity="1" /><path clip-path="url(#clip540)" d="M187.5 208.884 Q183.889 208.884 182.06 212.448 Q180.254 215.99 180.254 223.12 Q180.254 230.226 182.06 233.791 Q183.889 237.333 187.5 237.333 Q191.134 237.333 192.939 233.791 Q194.768 230.226 194.768 223.12 Q194.768 215.99 192.939 212.448 Q191.134 208.884 187.5 208.884 M187.5 205.18 Q193.31 205.18 196.365 209.786 Q199.444 214.37 199.444 223.12 Q199.444 231.846 196.365 236.453 Q193.31 241.036 187.5 241.036 Q181.689 241.036 178.611 236.453 Q175.555 231.846 175.555 223.12 Q175.555 214.37 178.611 209.786 Q181.689 205.18 187.5 205.18 Z" fill="#000000" fill-rule="nonzero" fill-opacity="1" /><path clip-path="url(#clip540)" d="M21.3235 870.466 L13.9711 871.866 Q6.42774 873.298 6.42774 878.964 Q6.42774 883.229 9.92888 885.17 Q14.3212 887.621 20.114 887.621 Q27.1163 887.621 30.4583 885.234 Q33.8639 882.815 33.8639 878.964 Q33.8639 874.699 27.0845 872.407 L21.3235 870.466 M11.584 867.187 L2.2582 864.036 L2.2582 858.816 L21.5781 865.341 L28.5486 864.068 Q30.1082 863.782 31.4131 862.668 Q32.9409 861.363 32.9409 860.344 L32.9409 857.543 L37.9062 857.543 L37.9062 861.044 Q37.9062 864.036 35.2326 866.71 Q33.8958 868.015 31.0949 868.556 Q34.6278 870.02 37.3969 873.012 Q38.7019 874.412 38.7019 878.964 Q38.7019 886.444 33.8639 890.072 Q28.8669 893.796 20.114 893.796 Q10.7564 893.796 6.36408 889.754 Q1.46249 885.266 1.46249 878.964 Q1.46249 869.065 11.584 867.187 Z" fill="#000000" fill-rule="nonzero" fill-opacity="1" /><path clip-path="url(#clip540)" d="M48.7279 821.195 L53.2793 821.195 L53.2793 855.061 L48.7279 855.061 L48.7279 821.195 Z" fill="#000000" fill-rule="nonzero" fill-opacity="1" /><path clip-path="url(#clip540)" d="M-11.619 815.912 L-11.619 810.023 L17.6314 810.023 L2.2582 792.549 L2.2582 785.07 L18.9364 803.976 L37.9062 784.274 L37.9062 791.913 L20.4959 810.023 L37.9062 810.023 L37.9062 815.912 L-11.619 815.912 Z" fill="#000000" fill-rule="nonzero" fill-opacity="1" /><path clip-path="url(#clip540)" d="M830.411 33.264 L830.411 93.744 L822.229 93.744 L822.229 40.1505 L792.495 40.1505 L792.495 93.744 L784.312 93.744 L784.312 33.264 L830.411 33.264 Z" fill="#000000" fill-rule="nonzero" fill-opacity="1" /><path clip-path="url(#clip540)" d="M863.953 53.5995 Q857.957 53.5995 854.474 58.2986 Q850.99 62.9571 850.99 71.0994 Q850.99 79.2418 854.433 83.9408 Q857.917 88.5994 863.953 88.5994 Q869.908 88.5994 873.391 83.9003 Q876.875 79.2013 876.875 71.0994 Q876.875 63.0381 873.391 58.3391 Q869.908 53.5995 863.953 53.5995 M863.953 47.2801 Q873.675 47.2801 879.225 53.5995 Q884.774 59.9189 884.774 71.0994 Q884.774 82.2394 879.225 88.5994 Q873.675 94.9188 863.953 94.9188 Q854.19 94.9188 848.64 88.5994 Q843.131 82.2394 843.131 71.0994 Q843.131 59.9189 848.64 53.5995 Q854.19 47.2801 863.953 47.2801 Z" fill="#000000" fill-rule="nonzero" fill-opacity="1" /><path clip-path="url(#clip540)" d="M904.34 86.9385 L904.34 111.001 L896.846 111.001 L896.846 48.3739 L904.34 48.3739 L904.34 55.2604 Q906.69 51.2095 910.255 49.2651 Q913.86 47.2801 918.843 47.2801 Q927.106 47.2801 932.251 53.8426 Q937.436 60.4051 937.436 71.0994 Q937.436 81.7938 932.251 88.3563 Q927.106 94.9188 918.843 94.9188 Q913.86 94.9188 910.255 92.9743 Q906.69 90.9894 904.34 86.9385 M929.699 71.0994 Q929.699 62.8761 926.296 58.2176 Q922.934 53.5185 917.02 53.5185 Q911.105 53.5185 907.703 58.2176 Q904.34 62.8761 904.34 71.0994 Q904.34 79.3228 907.703 84.0218 Q911.105 88.6804 917.02 88.6804 Q922.934 88.6804 926.296 84.0218 Q929.699 79.3228 929.699 71.0994 Z" fill="#000000" fill-rule="nonzero" fill-opacity="1" /><path clip-path="url(#clip540)" d="M957.286 61.4583 Q957.286 64.8205 959.878 66.7245 Q962.471 68.6284 967.291 68.6284 L977.338 68.6284 L977.338 54.3287 L967.291 54.3287 Q962.471 54.3287 959.878 56.1921 Q957.286 58.0555 957.286 61.4583 M946.672 93.744 L960.526 73.8541 Q955.827 72.8008 952.708 70.0462 Q949.589 67.2511 949.589 61.4583 Q949.589 54.8958 953.923 51.6551 Q958.298 48.3739 967.089 48.3739 L984.832 48.3739 L984.832 93.744 L977.338 93.744 L977.338 74.5832 L968.061 74.5832 L954.693 93.744 L946.672 93.744 Z" fill="#000000" fill-rule="nonzero" fill-opacity="1" /><path clip-path="url(#clip540)" d="M1009.83 87.7892 L1031.46 87.7892 L1031.46 54.3287 L1015.78 54.3287 L1015.78 60 Q1015.78 76.6897 1011 85.6017 L1009.83 87.7892 M999.01 87.7892 Q1002.7 86.1688 1004.32 82.7255 Q1008.29 74.1781 1008.29 56.9618 L1008.29 48.3739 L1038.95 48.3739 L1038.95 87.7892 L1044.91 87.7892 L1044.91 105.208 L1038.95 105.208 L1038.95 93.744 L1002.17 93.744 L1002.17 105.208 L996.215 105.208 L996.215 87.7892 L999.01 87.7892 Z" fill="#000000" fill-rule="nonzero" fill-opacity="1" /><path clip-path="url(#clip540)" d="M1074.64 53.5995 Q1068.65 53.5995 1065.16 58.2986 Q1061.68 62.9571 1061.68 71.0994 Q1061.68 79.2418 1065.12 83.9408 Q1068.6 88.5994 1074.64 88.5994 Q1080.6 88.5994 1084.08 83.9003 Q1087.56 79.2013 1087.56 71.0994 Q1087.56 63.0381 1084.08 58.3391 Q1080.6 53.5995 1074.64 53.5995 M1074.64 47.2801 Q1084.36 47.2801 1089.91 53.5995 Q1095.46 59.9189 1095.46 71.0994 Q1095.46 82.2394 1089.91 88.5994 Q1084.36 94.9188 1074.64 94.9188 Q1064.88 94.9188 1059.33 88.5994 Q1053.82 82.2394 1053.82 71.0994 Q1053.82 59.9189 1059.33 53.5995 Q1064.88 47.2801 1074.64 47.2801 Z" fill="#000000" fill-rule="nonzero" fill-opacity="1" /><path clip-path="url(#clip540)" d="M1107.53 48.3739 L1114.95 48.3739 L1114.95 69.6816 L1135.97 48.3739 L1145.13 48.3739 L1127.79 65.9143 L1147.35 93.744 L1139.01 93.744 L1122.93 70.8564 L1114.95 78.9582 L1114.95 93.744 L1107.53 93.744 L1107.53 48.3739 Z" fill="#000000" fill-rule="nonzero" fill-opacity="1" /><path clip-path="url(#clip540)" d="M1194.43 87.7892 L1216.06 87.7892 L1216.06 54.3287 L1200.38 54.3287 L1200.38 60 Q1200.38 76.6897 1195.6 85.6017 L1194.43 87.7892 M1183.61 87.7892 Q1187.3 86.1688 1188.92 82.7255 Q1192.89 74.1781 1192.89 56.9618 L1192.89 48.3739 L1223.55 48.3739 L1223.55 87.7892 L1229.51 87.7892 L1229.51 105.208 L1223.55 105.208 L1223.55 93.744 L1186.77 93.744 L1186.77 105.208 L1180.81 105.208 L1180.81 87.7892 L1183.61 87.7892 Z" fill="#000000" fill-rule="nonzero" fill-opacity="1" /><path clip-path="url(#clip540)" d="M1248.87 86.9385 L1248.87 111.001 L1241.38 111.001 L1241.38 48.3739 L1248.87 48.3739 L1248.87 55.2604 Q1251.22 51.2095 1254.78 49.2651 Q1258.39 47.2801 1263.37 47.2801 Q1271.64 47.2801 1276.78 53.8426 Q1281.97 60.4051 1281.97 71.0994 Q1281.97 81.7938 1276.78 88.3563 Q1271.64 94.9188 1263.37 94.9188 Q1258.39 94.9188 1254.78 92.9743 Q1251.22 90.9894 1248.87 86.9385 M1274.23 71.0994 Q1274.23 62.8761 1270.83 58.2176 Q1267.46 53.5185 1261.55 53.5185 Q1255.63 53.5185 1252.23 58.2176 Q1248.87 62.8761 1248.87 71.0994 Q1248.87 79.3228 1252.23 84.0218 Q1255.63 88.6804 1261.55 88.6804 Q1267.46 88.6804 1270.83 84.0218 Q1274.23 79.3228 1274.23 71.0994 Z" fill="#000000" fill-rule="nonzero" fill-opacity="1" /><path clip-path="url(#clip540)" d="M1311.9 53.5995 Q1305.91 53.5995 1302.42 58.2986 Q1298.94 62.9571 1298.94 71.0994 Q1298.94 79.2418 1302.38 83.9408 Q1305.87 88.5994 1311.9 88.5994 Q1317.86 88.5994 1321.34 83.9003 Q1324.82 79.2013 1324.82 71.0994 Q1324.82 63.0381 1321.34 58.3391 Q1317.86 53.5995 1311.9 53.5995 M1311.9 47.2801 Q1321.62 47.2801 1327.17 53.5995 Q1332.72 59.9189 1332.72 71.0994 Q1332.72 82.2394 1327.17 88.5994 Q1321.62 94.9188 1311.9 94.9188 Q1302.14 94.9188 1296.59 88.5994 Q1291.08 82.2394 1291.08 71.0994 Q1291.08 59.9189 1296.59 53.5995 Q1302.14 47.2801 1311.9 47.2801 Z" fill="#000000" fill-rule="nonzero" fill-opacity="1" /><path clip-path="url(#clip540)" d="M1363.06 47.2801 Q1372.79 47.2801 1378.34 53.5995 Q1383.89 59.9189 1383.89 71.0994 Q1383.89 82.2394 1378.34 88.5994 Q1372.79 94.9188 1363.06 94.9188 Q1353.3 94.9188 1347.91 88.7614 Q1342.53 82.604 1342.24 71.0994 L1342 61.8229 Q1341.8 57.0023 1341.8 55.3414 Q1341.8 48.86 1344.15 44.0799 Q1347.83 36.5857 1354.19 33.345 Q1360.59 30.1043 1371.29 30.0233 Q1376.23 29.9828 1378.42 29.2941 L1380.48 35.2084 Q1378.5 36.0186 1376.68 36.0591 L1366.55 36.7478 Q1361.44 37.1124 1358.37 38.8948 Q1350.3 43.6343 1349.53 49.8322 L1349.25 52.1007 Q1354.52 47.2801 1363.06 47.2801 M1363.06 53.5995 Q1357.07 53.5995 1353.59 58.2986 Q1350.1 62.9571 1350.1 71.0994 Q1350.1 79.2418 1353.55 83.9408 Q1357.03 88.5994 1363.06 88.5994 Q1369.02 88.5994 1372.5 83.9003 Q1375.99 79.2013 1375.99 71.0994 Q1375.99 63.0381 1372.5 58.3391 Q1369.02 53.5995 1363.06 53.5995 Z" fill="#000000" fill-rule="nonzero" fill-opacity="1" /><path clip-path="url(#clip540)" d="M1395.96 48.3739 L1403.45 48.3739 L1403.45 66.8865 L1427.64 66.8865 L1427.64 48.3739 L1435.13 48.3739 L1435.13 93.744 L1427.64 93.744 L1427.64 72.8413 L1403.45 72.8413 L1403.45 93.744 L1395.96 93.744 L1395.96 48.3739 Z" fill="#000000" fill-rule="nonzero" fill-opacity="1" /><path clip-path="url(#clip540)" d="M1468.06 53.5995 Q1462.07 53.5995 1458.59 58.2986 Q1455.1 62.9571 1455.1 71.0994 Q1455.1 79.2418 1458.54 83.9408 Q1462.03 88.5994 1468.06 88.5994 Q1474.02 88.5994 1477.5 83.9003 Q1480.99 79.2013 1480.99 71.0994 Q1480.99 63.0381 1477.5 58.3391 Q1474.02 53.5995 1468.06 53.5995 M1468.06 47.2801 Q1477.79 47.2801 1483.34 53.5995 Q1488.89 59.9189 1488.89 71.0994 Q1488.89 82.2394 1483.34 88.5994 Q1477.79 94.9188 1468.06 94.9188 Q1458.3 94.9188 1452.75 88.5994 Q1447.24 82.2394 1447.24 71.0994 Q1447.24 59.9189 1452.75 53.5995 Q1458.3 47.2801 1468.06 47.2801 Z" fill="#000000" fill-rule="nonzero" fill-opacity="1" /><path clip-path="url(#clip540)" d="M1539.81 48.3739 L1539.81 93.744 L1532.39 93.744 L1532.39 57.3264 L1510.52 93.744 L1500.96 93.744 L1500.96 48.3739 L1508.37 48.3739 L1508.37 84.7105 L1530.21 48.3739 L1539.81 48.3739 M1507.72 30.7119 L1512.5 30.7119 Q1512.95 33.7501 1514.89 35.2895 Q1516.88 36.7883 1520.4 36.7883 Q1523.89 36.7883 1525.83 35.2895 Q1527.77 33.7906 1528.3 30.7119 L1533.08 30.7119 Q1532.68 36.5047 1529.48 39.4214 Q1526.28 42.338 1520.4 42.338 Q1514.53 42.338 1511.33 39.4214 Q1508.13 36.5047 1507.72 30.7119 Z" fill="#000000" fill-rule="nonzero" fill-opacity="1" /><path clip-path="url(#clip540)" d="M1620.42 48.3739 L1620.42 93.744 L1612.92 93.744 L1612.92 54.3287 L1588.74 54.3287 L1588.74 93.744 L1581.25 93.744 L1581.25 48.3739 L1620.42 48.3739 Z" fill="#000000" fill-rule="nonzero" fill-opacity="1" /><path clip-path="url(#clip540)" d="M1642.98 86.9385 L1642.98 111.001 L1635.49 111.001 L1635.49 48.3739 L1642.98 48.3739 L1642.98 55.2604 Q1645.33 51.2095 1648.9 49.2651 Q1652.5 47.2801 1657.48 47.2801 Q1665.75 47.2801 1670.89 53.8426 Q1676.08 60.4051 1676.08 71.0994 Q1676.08 81.7938 1670.89 88.3563 Q1665.75 94.9188 1657.48 94.9188 Q1652.5 94.9188 1648.9 92.9743 Q1645.33 90.9894 1642.98 86.9385 M1668.34 71.0994 Q1668.34 62.8761 1664.94 58.2176 Q1661.58 53.5185 1655.66 53.5185 Q1649.75 53.5185 1646.34 58.2176 Q1642.98 62.8761 1642.98 71.0994 Q1642.98 79.3228 1646.34 84.0218 Q1649.75 88.6804 1655.66 88.6804 Q1661.58 88.6804 1664.94 84.0218 Q1668.34 79.3228 1668.34 71.0994 Z" fill="#000000" fill-rule="nonzero" fill-opacity="1" /><path clip-path="url(#clip540)" d="M1706.01 53.5995 Q1700.02 53.5995 1696.54 58.2986 Q1693.05 62.9571 1693.05 71.0994 Q1693.05 79.2418 1696.49 83.9408 Q1699.98 88.5994 1706.01 88.5994 Q1711.97 88.5994 1715.45 83.9003 Q1718.94 79.2013 1718.94 71.0994 Q1718.94 63.0381 1715.45 58.3391 Q1711.97 53.5995 1706.01 53.5995 M1706.01 47.2801 Q1715.74 47.2801 1721.29 53.5995 Q1726.84 59.9189 1726.84 71.0994 Q1726.84 82.2394 1721.29 88.5994 Q1715.74 94.9188 1706.01 94.9188 Q1696.25 94.9188 1690.7 88.5994 Q1685.19 82.2394 1685.19 71.0994 Q1685.19 59.9189 1690.7 53.5995 Q1696.25 47.2801 1706.01 47.2801 Z" fill="#000000" fill-rule="nonzero" fill-opacity="1" /><path clip-path="url(#clip540)" d="M1777.76 48.3739 L1777.76 93.744 L1770.34 93.744 L1770.34 57.3264 L1748.47 93.744 L1738.91 93.744 L1738.91 48.3739 L1746.32 48.3739 L1746.32 84.7105 L1768.16 48.3739 L1777.76 48.3739 Z" fill="#000000" fill-rule="nonzero" fill-opacity="1" /><path clip-path="url(#clip540)" d="M1813.89 69.2765 Q1818.91 70.2488 1821.71 73.2059 Q1824.5 76.1631 1824.5 80.5381 Q1824.5 87.5461 1819.28 91.2324 Q1814.05 94.9188 1804.41 94.9188 Q1801.17 94.9188 1797.73 94.3516 Q1794.32 93.7845 1790.68 92.6503 L1790.68 85.7232 Q1793.55 87.222 1797 87.9917 Q1800.44 88.7209 1804.21 88.7209 Q1810.33 88.7209 1813.73 86.4524 Q1817.17 84.1839 1817.17 80.5381 Q1817.17 76.9733 1814.13 74.8263 Q1811.09 72.6388 1805.55 72.6388 L1799.55 72.6388 L1799.55 66.4814 L1805.83 66.4814 Q1810.53 66.4814 1813.24 64.699 Q1816 62.8761 1816 60.0405 Q1816 57.4479 1813.16 55.5845 Q1810.37 53.7211 1805.55 53.7211 Q1802.67 53.7211 1799.39 54.2477 Q1796.15 54.7743 1792.22 55.9491 L1792.22 49.1841 Q1796.19 48.2118 1799.63 47.7257 Q1803.07 47.2396 1806.15 47.2396 Q1814.09 47.2396 1818.67 50.4398 Q1823.29 53.5995 1823.29 59.3113 Q1823.29 63.0787 1820.86 65.7117 Q1818.43 68.3043 1813.89 69.2765 Z" fill="#000000" fill-rule="nonzero" fill-opacity="1" /><path clip-path="url(#clip540)" d="M1844.39 72.8413 L1844.39 87.7892 L1855.01 87.7892 Q1860.11 87.7892 1862.78 85.8852 Q1865.46 83.9408 1865.46 80.295 Q1865.46 76.6492 1862.78 74.7453 Q1860.11 72.8413 1855.01 72.8413 L1844.39 72.8413 M1844.39 54.3287 L1844.39 66.8865 L1854.2 66.8865 Q1858.41 66.8865 1861.08 65.2256 Q1863.76 63.5243 1863.76 60.5266 Q1863.76 57.5289 1861.08 55.9491 Q1858.41 54.3287 1854.2 54.3287 L1844.39 54.3287 M1836.94 48.3739 L1854.68 48.3739 Q1862.66 48.3739 1866.96 51.2905 Q1871.25 54.2072 1871.25 59.5949 Q1871.25 63.7673 1869.06 66.2384 Q1866.88 68.6689 1862.58 69.2765 Q1867.73 70.2488 1870.56 73.3274 Q1873.4 76.4061 1873.4 81.0242 Q1873.4 87.1005 1868.7 90.4223 Q1864.04 93.744 1855.37 93.744 L1836.94 93.744 L1836.94 48.3739 Z" fill="#000000" fill-rule="nonzero" fill-opacity="1" /><path clip-path="url(#clip540)" d="M1903.7 53.5995 Q1897.7 53.5995 1894.22 58.2986 Q1890.74 62.9571 1890.74 71.0994 Q1890.74 79.2418 1894.18 83.9408 Q1897.66 88.5994 1903.7 88.5994 Q1909.65 88.5994 1913.14 83.9003 Q1916.62 79.2013 1916.62 71.0994 Q1916.62 63.0381 1913.14 58.3391 Q1909.65 53.5995 1903.7 53.5995 M1903.7 47.2801 Q1913.42 47.2801 1918.97 53.5995 Q1924.52 59.9189 1924.52 71.0994 Q1924.52 82.2394 1918.97 88.5994 Q1913.42 94.9188 1903.7 94.9188 Q1893.94 94.9188 1888.39 88.5994 Q1882.88 82.2394 1882.88 71.0994 Q1882.88 59.9189 1888.39 53.5995 Q1893.94 47.2801 1903.7 47.2801 Z" fill="#000000" fill-rule="nonzero" fill-opacity="1" /><path clip-path="url(#clip540)" d="M1947 87.7892 L1968.63 87.7892 L1968.63 54.3287 L1952.96 54.3287 L1952.96 60 Q1952.96 76.6897 1948.18 85.6017 L1947 87.7892 M1936.19 87.7892 Q1939.87 86.1688 1941.49 82.7255 Q1945.46 74.1781 1945.46 56.9618 L1945.46 48.3739 L1976.13 48.3739 L1976.13 87.7892 L1982.08 87.7892 L1982.08 105.208 L1976.13 105.208 L1976.13 93.744 L1939.35 93.744 L1939.35 105.208 L1933.39 105.208 L1933.39 87.7892 L1936.19 87.7892 Z" fill="#000000" fill-rule="nonzero" fill-opacity="1" /><path clip-path="url(#clip540)" d="M1993.95 48.3739 L2001.45 48.3739 L2001.45 66.8865 L2025.63 66.8865 L2025.63 48.3739 L2033.12 48.3739 L2033.12 93.744 L2025.63 93.744 L2025.63 72.8413 L2001.45 72.8413 L2001.45 93.744 L1993.95 93.744 L1993.95 48.3739 Z" fill="#000000" fill-rule="nonzero" fill-opacity="1" /><path clip-path="url(#clip540)" d="M2066.06 53.5995 Q2060.06 53.5995 2056.58 58.2986 Q2053.1 62.9571 2053.1 71.0994 Q2053.1 79.2418 2056.54 83.9408 Q2060.02 88.5994 2066.06 88.5994 Q2072.01 88.5994 2075.5 83.9003 Q2078.98 79.2013 2078.98 71.0994 Q2078.98 63.0381 2075.5 58.3391 Q2072.01 53.5995 2066.06 53.5995 M2066.06 47.2801 Q2075.78 47.2801 2081.33 53.5995 Q2086.88 59.9189 2086.88 71.0994 Q2086.88 82.2394 2081.33 88.5994 Q2075.78 94.9188 2066.06 94.9188 Q2056.3 94.9188 2050.75 88.5994 Q2045.24 82.2394 2045.24 71.0994 Q2045.24 59.9189 2050.75 53.5995 Q2056.3 47.2801 2066.06 47.2801 Z" fill="#000000" fill-rule="nonzero" fill-opacity="1" /><path clip-path="url(#clip540)" d="M2137.8 48.3739 L2137.8 93.744 L2130.39 93.744 L2130.39 57.3264 L2108.51 93.744 L2098.95 93.744 L2098.95 48.3739 L2106.37 48.3739 L2106.37 84.7105 L2128.2 48.3739 L2137.8 48.3739 M2105.72 30.7119 L2110.5 30.7119 Q2110.94 33.7501 2112.89 35.2895 Q2114.87 36.7883 2118.4 36.7883 Q2121.88 36.7883 2123.82 35.2895 Q2125.77 33.7906 2126.3 30.7119 L2131.08 30.7119 Q2130.67 36.5047 2127.47 39.4214 Q2124.27 42.338 2118.4 42.338 Q2112.52 42.338 2109.32 39.4214 Q2106.12 36.5047 2105.72 30.7119 Z" fill="#000000" fill-rule="nonzero" fill-opacity="1" /><path clip-path="url(#clip540)" d="M2218.41 48.3739 L2218.41 93.744 L2210.92 93.744 L2210.92 54.3287 L2186.74 54.3287 L2186.74 93.744 L2179.24 93.744 L2179.24 48.3739 L2218.41 48.3739 Z" fill="#000000" fill-rule="nonzero" fill-opacity="1" /><path clip-path="url(#clip540)" d="M2251.35 53.5995 Q2245.35 53.5995 2241.87 58.2986 Q2238.38 62.9571 2238.38 71.0994 Q2238.38 79.2418 2241.83 83.9408 Q2245.31 88.5994 2251.35 88.5994 Q2257.3 88.5994 2260.79 83.9003 Q2264.27 79.2013 2264.27 71.0994 Q2264.27 63.0381 2260.79 58.3391 Q2257.3 53.5995 2251.35 53.5995 M2251.35 47.2801 Q2261.07 47.2801 2266.62 53.5995 Q2272.17 59.9189 2272.17 71.0994 Q2272.17 82.2394 2266.62 88.5994 Q2261.07 94.9188 2251.35 94.9188 Q2241.58 94.9188 2236.03 88.5994 Q2230.53 82.2394 2230.53 71.0994 Q2230.53 59.9189 2236.03 53.5995 Q2241.58 47.2801 2251.35 47.2801 Z" fill="#000000" fill-rule="nonzero" fill-opacity="1" /><path clip-path="url(#clip540)" d="M2318.07 72.8413 L2318.07 87.7892 L2328.68 87.7892 Q2333.78 87.7892 2336.46 85.8852 Q2339.13 83.9408 2339.13 80.295 Q2339.13 76.6492 2336.46 74.7453 Q2333.78 72.8413 2328.68 72.8413 L2318.07 72.8413 M2318.07 54.3287 L2318.07 66.8865 L2327.87 66.8865 Q2332.08 66.8865 2334.76 65.2256 Q2337.43 63.5243 2337.43 60.5266 Q2337.43 57.5289 2334.76 55.9491 Q2332.08 54.3287 2327.87 54.3287 L2318.07 54.3287 M2310.61 48.3739 L2328.35 48.3739 Q2336.33 48.3739 2340.63 51.2905 Q2344.92 54.2072 2344.92 59.5949 Q2344.92 63.7673 2342.74 66.2384 Q2340.55 68.6689 2336.25 69.2765 Q2341.4 70.2488 2344.23 73.3274 Q2347.07 76.4061 2347.07 81.0242 Q2347.07 87.1005 2342.37 90.4223 Q2337.71 93.744 2329.04 93.744 L2310.61 93.744 L2310.61 48.3739 Z" fill="#000000" fill-rule="nonzero" fill-opacity="1" /><path clip-path="url(#clip540)" d="M2377.37 53.5995 Q2371.38 53.5995 2367.89 58.2986 Q2364.41 62.9571 2364.41 71.0994 Q2364.41 79.2418 2367.85 83.9408 Q2371.33 88.5994 2377.37 88.5994 Q2383.33 88.5994 2386.81 83.9003 Q2390.29 79.2013 2390.29 71.0994 Q2390.29 63.0381 2386.81 58.3391 Q2383.33 53.5995 2377.37 53.5995 M2377.37 47.2801 Q2387.09 47.2801 2392.64 53.5995 Q2398.19 59.9189 2398.19 71.0994 Q2398.19 82.2394 2392.64 88.5994 Q2387.09 94.9188 2377.37 94.9188 Q2367.61 94.9188 2362.06 88.5994 Q2356.55 82.2394 2356.55 71.0994 Q2356.55 59.9189 2362.06 53.5995 Q2367.61 47.2801 2377.37 47.2801 Z" fill="#000000" fill-rule="nonzero" fill-opacity="1" /><path clip-path="url(#clip540)" d="M2405.81 93.744 L2405.81 87.5461 Q2413.18 86.4119 2415.45 81.3077 Q2418.2 74.1376 2418.2 55.787 L2418.2 48.3739 L2448.87 48.3739 L2448.87 93.744 L2441.42 93.744 L2441.42 54.3287 L2425.66 54.3287 L2425.66 58.8252 Q2425.66 76.3251 2422.09 84.1839 Q2418.28 92.5692 2405.81 93.744 Z" fill="#000000" fill-rule="nonzero" fill-opacity="1" /><path clip-path="url(#clip540)" d="M2463.29 48.3739 L2470.78 48.3739 L2470.78 66.8865 L2494.97 66.8865 L2494.97 48.3739 L2502.46 48.3739 L2502.46 93.744 L2494.97 93.744 L2494.97 72.8413 L2470.78 72.8413 L2470.78 93.744 L2463.29 93.744 L2463.29 48.3739 Z" fill="#000000" fill-rule="nonzero" fill-opacity="1" /><path clip-path="url(#clip540)" d="M2538.43 70.9374 Q2529.4 70.9374 2525.92 73.0034 Q2522.43 75.0693 2522.43 80.0519 Q2522.43 84.0218 2525.03 86.3714 Q2527.66 88.6804 2532.16 88.6804 Q2538.35 88.6804 2542.08 84.3054 Q2545.85 79.8899 2545.85 72.5983 L2545.85 70.9374 L2538.43 70.9374 M2553.3 67.8587 L2553.3 93.744 L2545.85 93.744 L2545.85 86.8575 Q2543.3 90.9894 2539.49 92.9743 Q2535.68 94.9188 2530.17 94.9188 Q2523.2 94.9188 2519.07 91.0299 Q2514.98 87.1005 2514.98 80.5381 Q2514.98 72.8818 2520.08 68.993 Q2525.23 65.1041 2535.4 65.1041 L2545.85 65.1041 L2545.85 64.3749 Q2545.85 59.2303 2542.44 56.4352 Q2539.08 53.5995 2532.97 53.5995 Q2529.08 53.5995 2525.39 54.5312 Q2521.7 55.463 2518.3 57.3264 L2518.3 50.4398 Q2522.39 48.86 2526.24 48.0903 Q2530.09 47.2801 2533.74 47.2801 Q2543.58 47.2801 2548.44 52.3843 Q2553.3 57.4884 2553.3 67.8587 Z" fill="#000000" fill-rule="nonzero" fill-opacity="1" /><path clip-path="url(#clip540)" d="M2568.37 48.3739 L2579.27 48.3739 L2592.15 78.7557 L2605.07 48.3739 L2615.89 48.3739 L2615.89 93.744 L2608.39 93.744 L2608.39 55.5035 L2595.88 85.0346 L2588.42 85.0346 L2575.86 55.5035 L2575.86 93.744 L2568.37 93.744 L2568.37 48.3739 Z" fill="#000000" fill-rule="nonzero" fill-opacity="1" /><path clip-path="url(#clip540)" d="M1078.75 121.513 Q1073.32 130.83 1070.69 139.945 Q1068.06 149.059 1068.06 158.417 Q1068.06 167.774 1070.69 176.97 Q1073.36 186.125 1078.75 195.401 L1072.27 195.401 Q1066.19 185.882 1063.16 176.686 Q1060.16 167.491 1060.16 158.417 Q1060.16 149.383 1063.16 140.228 Q1066.15 131.073 1072.27 121.513 L1078.75 121.513 Z" fill="#000000" fill-rule="nonzero" fill-opacity="1" /><path clip-path="url(#clip540)" d="M1119.67 163.359 L1117.88 154.001 Q1116.06 144.401 1108.85 144.401 Q1103.42 144.401 1100.95 148.857 Q1097.83 154.447 1097.83 161.819 Q1097.83 170.731 1100.87 174.985 Q1103.95 179.319 1108.85 179.319 Q1114.28 179.319 1117.2 170.691 L1119.67 163.359 M1123.84 150.963 L1127.85 139.094 L1134.49 139.094 L1126.19 163.683 L1127.81 172.554 Q1128.17 174.539 1129.59 176.2 Q1131.25 178.145 1132.55 178.145 L1136.11 178.145 L1136.11 184.464 L1131.66 184.464 Q1127.85 184.464 1124.45 181.061 Q1122.79 179.36 1122.1 175.795 Q1120.23 180.292 1116.43 183.816 Q1114.64 185.477 1108.85 185.477 Q1099.33 185.477 1094.71 179.319 Q1089.97 172.959 1089.97 161.819 Q1089.97 149.91 1095.12 144.32 Q1100.83 138.081 1108.85 138.081 Q1121.45 138.081 1123.84 150.963 Z" fill="#000000" fill-rule="nonzero" fill-opacity="1" /><path clip-path="url(#clip540)" d="M1182.37 198.237 L1182.37 204.03 L1139.27 204.03 L1139.27 198.237 L1182.37 198.237 Z" fill="#000000" fill-rule="nonzero" fill-opacity="1" /><path clip-path="url(#clip540)" d="M1189.1 121.432 L1196.59 121.432 L1196.59 158.66 L1218.83 139.094 L1228.35 139.094 L1204.29 160.321 L1229.36 184.464 L1219.64 184.464 L1196.59 162.306 L1196.59 184.464 L1189.1 184.464 L1189.1 121.432 Z" fill="#000000" fill-rule="nonzero" fill-opacity="1" /><path clip-path="url(#clip540)" d="M1238.4 146.791 L1290.33 146.791 L1290.33 153.596 L1238.4 153.596 L1238.4 146.791 M1238.4 163.318 L1290.33 163.318 L1290.33 170.205 L1238.4 170.205 L1238.4 163.318 Z" fill="#000000" fill-rule="nonzero" fill-opacity="1" /><path clip-path="url(#clip540)" d="M1309.41 177.577 L1322.78 177.577 L1322.78 131.438 L1308.24 134.354 L1308.24 126.901 L1322.7 123.984 L1330.88 123.984 L1330.88 177.577 L1344.25 177.577 L1344.25 184.464 L1309.41 184.464 L1309.41 177.577 Z" fill="#000000" fill-rule="nonzero" fill-opacity="1" /><path clip-path="url(#clip540)" d="M1382.33 160.28 L1382.33 156.634 L1398.25 140.714 L1403.11 145.575 L1393.67 155.014 L1432.4 155.014 L1422.96 145.575 L1427.82 140.714 L1443.74 156.634 L1443.74 160.28 L1427.82 176.2 L1422.96 171.339 L1432.4 161.9 L1393.67 161.9 L1403.11 171.339 L1398.25 176.2 L1382.33 160.28 Z" fill="#000000" fill-rule="nonzero" fill-opacity="1" /><path clip-path="url(#clip540)" d="M1514.63 140.836 L1514.63 147.803 Q1511.47 146.061 1508.27 145.211 Q1505.11 144.32 1501.87 144.32 Q1494.62 144.32 1490.61 148.938 Q1486.6 153.515 1486.6 161.819 Q1486.6 170.124 1490.61 174.742 Q1494.62 179.319 1501.87 179.319 Q1505.11 179.319 1508.27 178.469 Q1511.47 177.577 1514.63 175.836 L1514.63 182.722 Q1511.51 184.18 1508.15 184.91 Q1504.83 185.639 1501.06 185.639 Q1490.81 185.639 1484.77 179.198 Q1478.74 172.757 1478.74 161.819 Q1478.74 150.72 1484.81 144.36 Q1490.93 138 1501.54 138 Q1504.99 138 1508.27 138.729 Q1511.55 139.418 1514.63 140.836 Z" fill="#000000" fill-rule="nonzero" fill-opacity="1" /><path clip-path="url(#clip540)" d="M1522.2 139.094 L1565.67 139.094 L1565.67 145.049 L1547.6 145.049 L1547.6 184.464 L1540.27 184.464 L1540.27 145.049 L1522.2 145.049 L1522.2 139.094 Z" fill="#000000" fill-rule="nonzero" fill-opacity="1" /><path clip-path="url(#clip540)" d="M1596.54 161.657 Q1587.51 161.657 1584.02 163.723 Q1580.54 165.789 1580.54 170.772 Q1580.54 174.742 1583.13 177.091 Q1585.76 179.4 1590.26 179.4 Q1596.46 179.4 1600.18 175.025 Q1603.95 170.61 1603.95 163.318 L1603.95 161.657 L1596.54 161.657 M1611.41 158.579 L1611.41 184.464 L1603.95 184.464 L1603.95 177.577 Q1601.4 181.709 1597.59 183.694 Q1593.78 185.639 1588.27 185.639 Q1581.31 185.639 1577.18 181.75 Q1573.08 177.821 1573.08 171.258 Q1573.08 163.602 1578.19 159.713 Q1583.33 155.824 1593.5 155.824 L1603.95 155.824 L1603.95 155.095 Q1603.95 149.95 1600.55 147.155 Q1597.19 144.32 1591.07 144.32 Q1587.18 144.32 1583.49 145.251 Q1579.81 146.183 1576.41 148.046 L1576.41 141.16 Q1580.5 139.58 1584.35 138.81 Q1588.19 138 1591.84 138 Q1601.68 138 1606.54 143.104 Q1611.41 148.208 1611.41 158.579 Z" fill="#000000" fill-rule="nonzero" fill-opacity="1" /><path clip-path="url(#clip540)" d="M1626.47 139.094 L1633.97 139.094 L1633.97 157.607 L1658.15 157.607 L1658.15 139.094 L1665.65 139.094 L1665.65 184.464 L1658.15 184.464 L1658.15 163.561 L1633.97 163.561 L1633.97 184.464 L1626.47 184.464 L1626.47 139.094 Z" fill="#000000" fill-rule="nonzero" fill-opacity="1" /><path clip-path="url(#clip540)" d="M1691.13 178.509 L1712.76 178.509 L1712.76 145.049 L1697.08 145.049 L1697.08 150.72 Q1697.08 167.41 1692.3 176.322 L1691.13 178.509 M1680.31 178.509 Q1684 176.889 1685.62 173.446 Q1689.59 164.898 1689.59 147.682 L1689.59 139.094 L1720.25 139.094 L1720.25 178.509 L1726.21 178.509 L1726.21 195.928 L1720.25 195.928 L1720.25 184.464 L1683.47 184.464 L1683.47 195.928 L1677.52 195.928 L1677.52 178.509 L1680.31 178.509 Z" fill="#000000" fill-rule="nonzero" fill-opacity="1" /><path clip-path="url(#clip540)" d="M1758.98 161.657 Q1749.95 161.657 1746.46 163.723 Q1742.98 165.789 1742.98 170.772 Q1742.98 174.742 1745.57 177.091 Q1748.2 179.4 1752.7 179.4 Q1758.9 179.4 1762.63 175.025 Q1766.39 170.61 1766.39 163.318 L1766.39 161.657 L1758.98 161.657 M1773.85 158.579 L1773.85 184.464 L1766.39 184.464 L1766.39 177.577 Q1763.84 181.709 1760.03 183.694 Q1756.23 185.639 1750.72 185.639 Q1743.75 185.639 1739.62 181.75 Q1735.53 177.821 1735.53 171.258 Q1735.53 163.602 1740.63 159.713 Q1745.77 155.824 1755.94 155.824 L1766.39 155.824 L1766.39 155.095 Q1766.39 149.95 1762.99 147.155 Q1759.63 144.32 1753.51 144.32 Q1749.62 144.32 1745.94 145.251 Q1742.25 146.183 1738.85 148.046 L1738.85 141.16 Q1742.94 139.58 1746.79 138.81 Q1750.63 138 1754.28 138 Q1764.12 138 1768.99 143.104 Q1773.85 148.208 1773.85 158.579 Z" fill="#000000" fill-rule="nonzero" fill-opacity="1" /><path clip-path="url(#clip540)" d="M1796.41 177.658 L1796.41 201.721 L1788.92 201.721 L1788.92 139.094 L1796.41 139.094 L1796.41 145.98 Q1798.76 141.93 1802.32 139.985 Q1805.93 138 1810.91 138 Q1819.18 138 1824.32 144.563 Q1829.51 151.125 1829.51 161.819 Q1829.51 172.514 1824.32 179.076 Q1819.18 185.639 1810.91 185.639 Q1805.93 185.639 1802.32 183.694 Q1798.76 181.709 1796.41 177.658 M1821.77 161.819 Q1821.77 153.596 1818.37 148.938 Q1815 144.239 1809.09 144.239 Q1803.18 144.239 1799.77 148.938 Q1796.41 153.596 1796.41 161.819 Q1796.41 170.043 1799.77 174.742 Q1803.18 179.4 1809.09 179.4 Q1815 179.4 1818.37 174.742 Q1821.77 170.043 1821.77 161.819 Z" fill="#000000" fill-rule="nonzero" fill-opacity="1" /><path clip-path="url(#clip540)" d="M1836.47 139.094 L1879.94 139.094 L1879.94 145.049 L1861.87 145.049 L1861.87 184.464 L1854.54 184.464 L1854.54 145.049 L1836.47 145.049 L1836.47 139.094 Z" fill="#000000" fill-rule="nonzero" fill-opacity="1" /><path clip-path="url(#clip540)" d="M1889.91 139.094 L1897.4 139.094 L1897.4 157.607 L1921.58 157.607 L1921.58 139.094 L1929.08 139.094 L1929.08 184.464 L1921.58 184.464 L1921.58 163.561 L1897.4 163.561 L1897.4 184.464 L1889.91 184.464 L1889.91 139.094 Z" fill="#000000" fill-rule="nonzero" fill-opacity="1" /><path clip-path="url(#clip540)" d="M1965.05 161.657 Q1956.02 161.657 1952.53 163.723 Q1949.05 165.789 1949.05 170.772 Q1949.05 174.742 1951.64 177.091 Q1954.27 179.4 1958.77 179.4 Q1964.97 179.4 1968.7 175.025 Q1972.46 170.61 1972.46 163.318 L1972.46 161.657 L1965.05 161.657 M1979.92 158.579 L1979.92 184.464 L1972.46 184.464 L1972.46 177.577 Q1969.91 181.709 1966.1 183.694 Q1962.29 185.639 1956.79 185.639 Q1949.82 185.639 1945.69 181.75 Q1941.59 177.821 1941.59 171.258 Q1941.59 163.602 1946.7 159.713 Q1951.84 155.824 1962.01 155.824 L1972.46 155.824 L1972.46 155.095 Q1972.46 149.95 1969.06 147.155 Q1965.7 144.32 1959.58 144.32 Q1955.69 144.32 1952.01 145.251 Q1948.32 146.183 1944.92 148.046 L1944.92 141.16 Q1949.01 139.58 1952.86 138.81 Q1956.7 138 1960.35 138 Q1970.19 138 1975.06 143.104 Q1979.92 148.208 1979.92 158.579 Z" fill="#000000" fill-rule="nonzero" fill-opacity="1" /><path clip-path="url(#clip540)" d="M2002.76 152.178 Q2002.76 155.541 2005.36 157.444 Q2007.95 159.348 2012.77 159.348 L2022.82 159.348 L2022.82 145.049 L2012.77 145.049 Q2007.95 145.049 2005.36 146.912 Q2002.76 148.776 2002.76 152.178 M1992.15 184.464 L2006 164.574 Q2001.3 163.521 1998.19 160.766 Q1995.07 157.971 1995.07 152.178 Q1995.07 145.616 1999.4 142.375 Q2003.78 139.094 2012.57 139.094 L2030.31 139.094 L2030.31 184.464 L2022.82 184.464 L2022.82 165.303 L2013.54 165.303 L2000.17 184.464 L1992.15 184.464 Z" fill="#000000" fill-rule="nonzero" fill-opacity="1" /><path clip-path="url(#clip540)" d="M2108.13 125.969 L2108.13 133.949 Q2103.47 131.721 2099.34 130.627 Q2095.2 129.534 2091.36 129.534 Q2084.67 129.534 2081.03 132.126 Q2077.42 134.719 2077.42 139.499 Q2077.42 143.509 2079.81 145.575 Q2082.24 147.601 2088.97 148.857 L2093.91 149.869 Q2103.06 151.611 2107.4 156.027 Q2111.77 160.402 2111.77 167.774 Q2111.77 176.565 2105.86 181.102 Q2099.98 185.639 2088.6 185.639 Q2084.31 185.639 2079.45 184.667 Q2074.63 183.694 2069.44 181.79 L2069.44 173.365 Q2074.42 176.16 2079.2 177.577 Q2083.98 178.995 2088.6 178.995 Q2095.61 178.995 2099.42 176.241 Q2103.23 173.486 2103.23 168.382 Q2103.23 163.926 2100.47 161.414 Q2097.76 158.903 2091.52 157.647 L2086.54 156.675 Q2077.38 154.852 2073.29 150.963 Q2069.2 147.074 2069.2 140.147 Q2069.2 132.126 2074.83 127.508 Q2080.5 122.89 2090.42 122.89 Q2094.68 122.89 2099.09 123.66 Q2103.51 124.43 2108.13 125.969 Z" fill="#000000" fill-rule="nonzero" fill-opacity="1" /><path clip-path="url(#clip540)" d="M2124.53 123.984 L2162.77 123.984 L2162.77 130.871 L2132.72 130.871 L2132.72 148.776 L2161.52 148.776 L2161.52 155.662 L2132.72 155.662 L2132.72 177.577 L2163.5 177.577 L2163.5 184.464 L2124.53 184.464 L2124.53 123.984 Z" fill="#000000" fill-rule="nonzero" fill-opacity="1" /><path clip-path="url(#clip540)" d="M2176.95 123.984 L2185.13 123.984 L2185.13 184.464 L2176.95 184.464 L2176.95 123.984 Z" fill="#000000" fill-rule="nonzero" fill-opacity="1" /><path clip-path="url(#clip540)" d="M2230.1 156.108 Q2232.73 156.999 2235.2 159.916 Q2237.72 162.832 2240.23 167.936 L2248.53 184.464 L2239.74 184.464 L2232 168.949 Q2229.01 162.873 2226.17 160.888 Q2223.38 158.903 2218.51 158.903 L2209.6 158.903 L2209.6 184.464 L2201.42 184.464 L2201.42 123.984 L2219.89 123.984 Q2230.26 123.984 2235.37 128.318 Q2240.47 132.653 2240.47 141.403 Q2240.47 147.115 2237.8 150.882 Q2235.16 154.649 2230.1 156.108 M2209.6 130.709 L2209.6 152.178 L2219.89 152.178 Q2225.81 152.178 2228.8 149.464 Q2231.84 146.71 2231.84 141.403 Q2231.84 136.096 2228.8 133.423 Q2225.81 130.709 2219.89 130.709 L2209.6 130.709 Z" fill="#000000" fill-rule="nonzero" fill-opacity="1" /><path clip-path="url(#clip540)" d="M2267.25 130.709 L2267.25 177.739 L2277.13 177.739 Q2289.65 177.739 2295.44 172.068 Q2301.27 166.397 2301.27 154.163 Q2301.27 142.011 2295.44 136.38 Q2289.65 130.709 2277.13 130.709 L2267.25 130.709 M2259.06 123.984 L2275.88 123.984 Q2293.46 123.984 2301.68 131.316 Q2309.9 138.608 2309.9 154.163 Q2309.9 169.8 2301.64 177.132 Q2293.38 184.464 2275.88 184.464 L2259.06 184.464 L2259.06 123.984 Z" fill="#000000" fill-rule="nonzero" fill-opacity="1" /><path clip-path="url(#clip540)" d="M2321.45 121.513 L2327.93 121.513 Q2334.01 131.073 2337 140.228 Q2340.04 149.383 2340.04 158.417 Q2340.04 167.491 2337 176.686 Q2334.01 185.882 2327.93 195.401 L2321.45 195.401 Q2326.84 186.125 2329.47 176.97 Q2332.14 167.774 2332.14 158.417 Q2332.14 149.059 2329.47 139.945 Q2326.84 130.83 2321.45 121.513 Z" fill="#000000" fill-rule="nonzero" fill-opacity="1" /><path clip-path="url(#clip541)" d="M407.241 223.085 L407.241 1519.82 L618.32 1519.82 L618.32 223.085 L407.241 223.085 L407.241 223.085  Z" fill="#ba55d3" fill-rule="evenodd" fill-opacity="0.85"/>
<polyline clip-path="url(#clip541)" style="stroke:#000000; stroke-linecap:round; stroke-linejoin:round; stroke-width:4; stroke-opacity:0.85; fill:none" points="407.241,223.085 407.241,1519.82 618.32,1519.82 618.32,223.085 407.241,223.085 "/>
<path clip-path="url(#clip541)" d="M671.09 223.085 L671.09 1519.82 L882.169 1519.82 L882.169 223.085 L671.09 223.085 L671.09 223.085  Z" fill="#ba55d3" fill-rule="evenodd" fill-opacity="0.85"/>
<polyline clip-path="url(#clip541)" style="stroke:#000000; stroke-linecap:round; stroke-linejoin:round; stroke-width:4; stroke-opacity:0.85; fill:none" points="671.09,223.085 671.09,1519.82 882.169,1519.82 882.169,223.085 671.09,223.085 "/>
<path clip-path="url(#clip541)" d="M934.939 562.052 L934.939 1519.82 L1146.02 1519.82 L1146.02 562.052 L934.939 562.052 L934.939 562.052  Z" fill="#ba55d3" fill-rule="evenodd" fill-opacity="0.85"/>
<polyline clip-path="url(#clip541)" style="stroke:#000000; stroke-linecap:round; stroke-linejoin:round; stroke-width:4; stroke-opacity:0.85; fill:none" points="934.939,562.052 934.939,1519.82 1146.02,1519.82 1146.02,562.052 934.939,562.052 "/>
<path clip-path="url(#clip541)" d="M1198.79 223.085 L1198.79 1519.82 L1409.87 1519.82 L1409.87 223.085 L1198.79 223.085 L1198.79 223.085  Z" fill="#ba55d3" fill-rule="evenodd" fill-opacity="0.85"/>
<polyline clip-path="url(#clip541)" style="stroke:#000000; stroke-linecap:round; stroke-linejoin:round; stroke-width:4; stroke-opacity:0.85; fill:none" points="1198.79,223.085 1198.79,1519.82 1409.87,1519.82 1409.87,223.085 1198.79,223.085 "/>
<path clip-path="url(#clip541)" d="M1462.64 223.085 L1462.64 1519.82 L1673.72 1519.82 L1673.72 223.085 L1462.64 223.085 L1462.64 223.085  Z" fill="#ba55d3" fill-rule="evenodd" fill-opacity="0.85"/>
<polyline clip-path="url(#clip541)" style="stroke:#000000; stroke-linecap:round; stroke-linejoin:round; stroke-width:4; stroke-opacity:0.85; fill:none" points="1462.64,223.085 1462.64,1519.82 1673.72,1519.82 1673.72,223.085 1462.64,223.085 "/>
<path clip-path="url(#clip541)" d="M1726.48 223.085 L1726.48 1519.82 L1937.56 1519.82 L1937.56 223.085 L1726.48 223.085 L1726.48 223.085  Z" fill="#ba55d3" fill-rule="evenodd" fill-opacity="0.85"/>
<polyline clip-path="url(#clip541)" style="stroke:#000000; stroke-linecap:round; stroke-linejoin:round; stroke-width:4; stroke-opacity:0.85; fill:none" points="1726.48,223.085 1726.48,1519.82 1937.56,1519.82 1937.56,223.085 1726.48,223.085 "/>
<path clip-path="url(#clip541)" d="M1990.33 271.194 L1990.33 1519.82 L2201.41 1519.82 L2201.41 271.194 L1990.33 271.194 L1990.33 271.194  Z" fill="#ba55d3" fill-rule="evenodd" fill-opacity="0.85"/>
<polyline clip-path="url(#clip541)" style="stroke:#000000; stroke-linecap:round; stroke-linejoin:round; stroke-width:4; stroke-opacity:0.85; fill:none" points="1990.33,271.194 1990.33,1519.82 2201.41,1519.82 2201.41,271.194 1990.33,271.194 "/>
<path clip-path="url(#clip541)" d="M2254.18 269.378 L2254.18 1519.82 L2465.26 1519.82 L2465.26 269.378 L2254.18 269.378 L2254.18 269.378  Z" fill="#ba55d3" fill-rule="evenodd" fill-opacity="0.85"/>
<polyline clip-path="url(#clip541)" style="stroke:#000000; stroke-linecap:round; stroke-linejoin:round; stroke-width:4; stroke-opacity:0.85; fill:none" points="2254.18,269.378 2254.18,1519.82 2465.26,1519.82 2465.26,269.378 2254.18,269.378 "/>
<path clip-path="url(#clip541)" d="M2518.03 482.173 L2518.03 1519.82 L2729.11 1519.82 L2729.11 482.173 L2518.03 482.173 L2518.03 482.173  Z" fill="#ba55d3" fill-rule="evenodd" fill-opacity="0.85"/>
<polyline clip-path="url(#clip541)" style="stroke:#000000; stroke-linecap:round; stroke-linejoin:round; stroke-width:4; stroke-opacity:0.85; fill:none" points="2518.03,482.173 2518.03,1519.82 2729.11,1519.82 2729.11,482.173 2518.03,482.173 "/>
<path clip-path="url(#clip541)" d="M2781.88 345.367 L2781.88 1519.82 L2992.96 1519.82 L2992.96 345.367 L2781.88 345.367 L2781.88 345.367  Z" fill="#ba55d3" fill-rule="evenodd" fill-opacity="0.85"/>
<polyline clip-path="url(#clip541)" style="stroke:#000000; stroke-linecap:round; stroke-linejoin:round; stroke-width:4; stroke-opacity:0.85; fill:none" points="2781.88,345.367 2781.88,1519.82 2992.96,1519.82 2992.96,345.367 2781.88,345.367 "/>
<circle clip-path="url(#clip541)" style="fill:#ba55d3; stroke:none; fill-opacity:0" cx="512.781" cy="223.085" r="2"/>
<circle clip-path="url(#clip541)" style="fill:#ba55d3; stroke:none; fill-opacity:0" cx="776.63" cy="223.085" r="2"/>
<circle clip-path="url(#clip541)" style="fill:#ba55d3; stroke:none; fill-opacity:0" cx="1040.48" cy="562.052" r="2"/>
<circle clip-path="url(#clip541)" style="fill:#ba55d3; stroke:none; fill-opacity:0" cx="1304.33" cy="223.085" r="2"/>
<circle clip-path="url(#clip541)" style="fill:#ba55d3; stroke:none; fill-opacity:0" cx="1568.18" cy="223.085" r="2"/>
<circle clip-path="url(#clip541)" style="fill:#ba55d3; stroke:none; fill-opacity:0" cx="1832.02" cy="223.085" r="2"/>
<circle clip-path="url(#clip541)" style="fill:#ba55d3; stroke:none; fill-opacity:0" cx="2095.87" cy="271.194" r="2"/>
<circle clip-path="url(#clip541)" style="fill:#ba55d3; stroke:none; fill-opacity:0" cx="2359.72" cy="269.378" r="2"/>
<circle clip-path="url(#clip541)" style="fill:#ba55d3; stroke:none; fill-opacity:0" cx="2623.57" cy="482.173" r="2"/>
<circle clip-path="url(#clip541)" style="fill:#ba55d3; stroke:none; fill-opacity:0" cx="2887.42" cy="345.367" r="2"/>
<polyline clip-path="url(#clip541)" style="stroke:#000000; stroke-linecap:round; stroke-linejoin:round; stroke-width:4; stroke-opacity:1; fill:none" stroke-dasharray="16, 10" points="-2657.87,223.085 6058.07,223.085 "/>
<path clip-path="url(#clip540)" d="M475.828 199.196 L484.422 199.196 L484.422 169.535 L475.073 171.409 L475.073 166.618 L484.37 164.743 L489.63 164.743 L489.63 199.196 L498.224 199.196 L498.224 203.623 L475.828 203.623 L475.828 199.196 Z" fill="#000000" fill-rule="nonzero" fill-opacity="1" /><path clip-path="url(#clip540)" d="M508.849 197.008 L514.343 197.008 L514.343 203.623 L508.849 203.623 L508.849 197.008 Z" fill="#000000" fill-rule="nonzero" fill-opacity="1" /><path clip-path="url(#clip540)" d="M537.052 168.206 Q532.989 168.206 530.932 172.217 Q528.901 176.201 528.901 184.222 Q528.901 192.217 530.932 196.227 Q532.989 200.211 537.052 200.211 Q541.14 200.211 543.171 196.227 Q545.229 192.217 545.229 184.222 Q545.229 176.201 543.171 172.217 Q541.14 168.206 537.052 168.206 M537.052 164.04 Q543.588 164.04 547.025 169.222 Q550.489 174.378 550.489 184.222 Q550.489 194.04 547.025 199.222 Q543.588 204.378 537.052 204.378 Q530.515 204.378 527.052 199.222 Q523.614 194.04 523.614 184.222 Q523.614 174.378 527.052 169.222 Q530.515 164.04 537.052 164.04 Z" fill="#000000" fill-rule="nonzero" fill-opacity="1" /><path clip-path="url(#clip540)" d="M739.677 199.196 L748.27 199.196 L748.27 169.535 L738.921 171.409 L738.921 166.618 L748.218 164.743 L753.479 164.743 L753.479 199.196 L762.072 199.196 L762.072 203.623 L739.677 203.623 L739.677 199.196 Z" fill="#000000" fill-rule="nonzero" fill-opacity="1" /><path clip-path="url(#clip540)" d="M772.697 197.008 L778.192 197.008 L778.192 203.623 L772.697 203.623 L772.697 197.008 Z" fill="#000000" fill-rule="nonzero" fill-opacity="1" /><path clip-path="url(#clip540)" d="M800.9 168.206 Q796.838 168.206 794.78 172.217 Q792.749 176.201 792.749 184.222 Q792.749 192.217 794.78 196.227 Q796.838 200.211 800.9 200.211 Q804.989 200.211 807.02 196.227 Q809.077 192.217 809.077 184.222 Q809.077 176.201 807.02 172.217 Q804.989 168.206 800.9 168.206 M800.9 164.04 Q807.437 164.04 810.874 169.222 Q814.338 174.378 814.338 184.222 Q814.338 194.04 810.874 199.222 Q807.437 204.378 800.9 204.378 Q794.364 204.378 790.9 199.222 Q787.463 194.04 787.463 184.222 Q787.463 174.378 790.9 169.222 Q794.364 164.04 800.9 164.04 Z" fill="#000000" fill-rule="nonzero" fill-opacity="1" /><path clip-path="url(#clip540)" d="M964.046 507.173 Q959.984 507.173 957.927 511.184 Q955.895 515.168 955.895 523.189 Q955.895 531.184 957.927 535.194 Q959.984 539.178 964.046 539.178 Q968.135 539.178 970.166 535.194 Q972.223 531.184 972.223 523.189 Q972.223 515.168 970.166 511.184 Q968.135 507.173 964.046 507.173 M964.046 503.007 Q970.583 503.007 974.02 508.189 Q977.484 513.345 977.484 523.189 Q977.484 533.007 974.02 538.189 Q970.583 543.345 964.046 543.345 Q957.51 543.345 954.046 538.189 Q950.609 533.007 950.609 523.189 Q950.609 513.345 954.046 508.189 Q957.51 503.007 964.046 503.007 Z" fill="#000000" fill-rule="nonzero" fill-opacity="1" /><path clip-path="url(#clip540)" d="M986.729 535.975 L992.223 535.975 L992.223 542.59 L986.729 542.59 L986.729 535.975 Z" fill="#000000" fill-rule="nonzero" fill-opacity="1" /><path clip-path="url(#clip540)" d="M1002.35 503.71 L1027.35 503.71 L1027.35 505.949 L1013.24 542.59 L1007.74 542.59 L1021.03 508.137 L1002.35 508.137 L1002.35 503.71 Z" fill="#000000" fill-rule="nonzero" fill-opacity="1" /><path clip-path="url(#clip540)" d="M1053.55 521.626 Q1057.33 522.434 1059.44 524.986 Q1061.57 527.538 1061.57 531.288 Q1061.57 537.043 1057.61 540.194 Q1053.66 543.345 1046.36 543.345 Q1043.92 543.345 1041.31 542.85 Q1038.73 542.382 1035.97 541.418 L1035.97 536.34 Q1038.16 537.616 1040.76 538.267 Q1043.37 538.918 1046.21 538.918 Q1051.16 538.918 1053.73 536.965 Q1056.34 535.012 1056.34 531.288 Q1056.34 527.85 1053.92 525.923 Q1051.52 523.97 1047.22 523.97 L1042.69 523.97 L1042.69 519.647 L1047.43 519.647 Q1051.31 519.647 1053.37 518.111 Q1055.43 516.548 1055.43 513.632 Q1055.43 510.637 1053.29 509.048 Q1051.18 507.434 1047.22 507.434 Q1045.06 507.434 1042.59 507.903 Q1040.11 508.371 1037.14 509.361 L1037.14 504.673 Q1040.14 503.84 1042.74 503.423 Q1045.37 503.007 1047.69 503.007 Q1053.68 503.007 1057.17 505.741 Q1060.66 508.449 1060.66 513.085 Q1060.66 516.314 1058.81 518.554 Q1056.96 520.767 1053.55 521.626 Z" fill="#000000" fill-rule="nonzero" fill-opacity="1" /><path clip-path="url(#clip540)" d="M1082.8 524.126 Q1079.05 524.126 1076.88 526.132 Q1074.75 528.137 1074.75 531.652 Q1074.75 535.168 1076.88 537.173 Q1079.05 539.178 1082.8 539.178 Q1086.55 539.178 1088.71 537.173 Q1090.87 535.142 1090.87 531.652 Q1090.87 528.137 1088.71 526.132 Q1086.57 524.126 1082.8 524.126 M1077.54 521.887 Q1074.15 521.054 1072.25 518.736 Q1070.37 516.418 1070.37 513.085 Q1070.37 508.423 1073.68 505.715 Q1077.01 503.007 1082.8 503.007 Q1088.6 503.007 1091.91 505.715 Q1095.22 508.423 1095.22 513.085 Q1095.22 516.418 1093.32 518.736 Q1091.44 521.054 1088.08 521.887 Q1091.88 522.772 1093.99 525.35 Q1096.13 527.929 1096.13 531.652 Q1096.13 537.303 1092.67 540.324 Q1089.23 543.345 1082.8 543.345 Q1076.36 543.345 1072.9 540.324 Q1069.46 537.303 1069.46 531.652 Q1069.46 527.929 1071.6 525.35 Q1073.73 522.772 1077.54 521.887 M1075.61 513.58 Q1075.61 516.6 1077.48 518.293 Q1079.38 519.986 1082.8 519.986 Q1086.18 519.986 1088.08 518.293 Q1090.01 516.6 1090.01 513.58 Q1090.01 510.559 1088.08 508.866 Q1086.18 507.173 1082.8 507.173 Q1079.38 507.173 1077.48 508.866 Q1075.61 510.559 1075.61 513.58 Z" fill="#000000" fill-rule="nonzero" fill-opacity="1" /><path clip-path="url(#clip540)" d="M1117.38 521.054 Q1113.84 521.054 1111.75 523.475 Q1109.7 525.897 1109.7 530.116 Q1109.7 534.309 1111.75 536.757 Q1113.84 539.178 1117.38 539.178 Q1120.92 539.178 1122.98 536.757 Q1125.06 534.309 1125.06 530.116 Q1125.06 525.897 1122.98 523.475 Q1120.92 521.054 1117.38 521.054 M1127.82 504.569 L1127.82 509.361 Q1125.84 508.423 1123.81 507.929 Q1121.81 507.434 1119.83 507.434 Q1114.62 507.434 1111.86 510.949 Q1109.12 514.465 1108.73 521.574 Q1110.27 519.309 1112.59 518.111 Q1114.9 516.887 1117.69 516.887 Q1123.55 516.887 1126.94 520.455 Q1130.35 523.996 1130.35 530.116 Q1130.35 536.106 1126.81 539.725 Q1123.26 543.345 1117.38 543.345 Q1110.63 543.345 1107.07 538.189 Q1103.5 533.007 1103.5 523.189 Q1103.5 513.97 1107.87 508.502 Q1112.25 503.007 1119.62 503.007 Q1121.6 503.007 1123.6 503.397 Q1125.63 503.788 1127.82 504.569 Z" fill="#000000" fill-rule="nonzero" fill-opacity="1" /><path clip-path="url(#clip540)" d="M1267.37 199.196 L1275.97 199.196 L1275.97 169.535 L1266.62 171.409 L1266.62 166.618 L1275.92 164.743 L1281.18 164.743 L1281.18 199.196 L1289.77 199.196 L1289.77 203.623 L1267.37 203.623 L1267.37 199.196 Z" fill="#000000" fill-rule="nonzero" fill-opacity="1" /><path clip-path="url(#clip540)" d="M1300.39 197.008 L1305.89 197.008 L1305.89 203.623 L1300.39 203.623 L1300.39 197.008 Z" fill="#000000" fill-rule="nonzero" fill-opacity="1" /><path clip-path="url(#clip540)" d="M1328.6 168.206 Q1324.54 168.206 1322.48 172.217 Q1320.45 176.201 1320.45 184.222 Q1320.45 192.217 1322.48 196.227 Q1324.54 200.211 1328.6 200.211 Q1332.69 200.211 1334.72 196.227 Q1336.77 192.217 1336.77 184.222 Q1336.77 176.201 1334.72 172.217 Q1332.69 168.206 1328.6 168.206 M1328.6 164.04 Q1335.13 164.04 1338.57 169.222 Q1342.04 174.378 1342.04 184.222 Q1342.04 194.04 1338.57 199.222 Q1335.13 204.378 1328.6 204.378 Q1322.06 204.378 1318.6 199.222 Q1315.16 194.04 1315.16 184.222 Q1315.16 174.378 1318.6 169.222 Q1322.06 164.04 1328.6 164.04 Z" fill="#000000" fill-rule="nonzero" fill-opacity="1" /><path clip-path="url(#clip540)" d="M1531.22 199.196 L1539.82 199.196 L1539.82 169.535 L1530.47 171.409 L1530.47 166.618 L1539.76 164.743 L1545.02 164.743 L1545.02 199.196 L1553.62 199.196 L1553.62 203.623 L1531.22 203.623 L1531.22 199.196 Z" fill="#000000" fill-rule="nonzero" fill-opacity="1" /><path clip-path="url(#clip540)" d="M1564.24 197.008 L1569.74 197.008 L1569.74 203.623 L1564.24 203.623 L1564.24 197.008 Z" fill="#000000" fill-rule="nonzero" fill-opacity="1" /><path clip-path="url(#clip540)" d="M1592.45 168.206 Q1588.38 168.206 1586.33 172.217 Q1584.3 176.201 1584.3 184.222 Q1584.3 192.217 1586.33 196.227 Q1588.38 200.211 1592.45 200.211 Q1596.53 200.211 1598.57 196.227 Q1600.62 192.217 1600.62 184.222 Q1600.62 176.201 1598.57 172.217 Q1596.53 168.206 1592.45 168.206 M1592.45 164.04 Q1598.98 164.04 1602.42 169.222 Q1605.88 174.378 1605.88 184.222 Q1605.88 194.04 1602.42 199.222 Q1598.98 204.378 1592.45 204.378 Q1585.91 204.378 1582.45 199.222 Q1579.01 194.04 1579.01 184.222 Q1579.01 174.378 1582.45 169.222 Q1585.91 164.04 1592.45 164.04 Z" fill="#000000" fill-rule="nonzero" fill-opacity="1" /><path clip-path="url(#clip540)" d="M1795.07 199.196 L1803.67 199.196 L1803.67 169.535 L1794.32 171.409 L1794.32 166.618 L1803.61 164.743 L1808.87 164.743 L1808.87 199.196 L1817.47 199.196 L1817.47 203.623 L1795.07 203.623 L1795.07 199.196 Z" fill="#000000" fill-rule="nonzero" fill-opacity="1" /><path clip-path="url(#clip540)" d="M1828.09 197.008 L1833.59 197.008 L1833.59 203.623 L1828.09 203.623 L1828.09 197.008 Z" fill="#000000" fill-rule="nonzero" fill-opacity="1" /><path clip-path="url(#clip540)" d="M1856.3 168.206 Q1852.23 168.206 1850.18 172.217 Q1848.14 176.201 1848.14 184.222 Q1848.14 192.217 1850.18 196.227 Q1852.23 200.211 1856.3 200.211 Q1860.38 200.211 1862.41 196.227 Q1864.47 192.217 1864.47 184.222 Q1864.47 176.201 1862.41 172.217 Q1860.38 168.206 1856.3 168.206 M1856.3 164.04 Q1862.83 164.04 1866.27 169.222 Q1869.73 174.378 1869.73 184.222 Q1869.73 194.04 1866.27 199.222 Q1862.83 204.378 1856.3 204.378 Q1849.76 204.378 1846.3 199.222 Q1842.86 194.04 1842.86 184.222 Q1842.86 174.378 1846.3 169.222 Q1849.76 164.04 1856.3 164.04 Z" fill="#000000" fill-rule="nonzero" fill-opacity="1" /><path clip-path="url(#clip540)" d="M2019.64 216.315 Q2015.57 216.315 2013.52 220.326 Q2011.49 224.31 2011.49 232.331 Q2011.49 240.326 2013.52 244.336 Q2015.57 248.32 2019.64 248.32 Q2023.72 248.32 2025.76 244.336 Q2027.81 240.326 2027.81 232.331 Q2027.81 224.31 2025.76 220.326 Q2023.72 216.315 2019.64 216.315 M2019.64 212.149 Q2026.17 212.149 2029.61 217.331 Q2033.07 222.487 2033.07 232.331 Q2033.07 242.149 2029.61 247.331 Q2026.17 252.487 2019.64 252.487 Q2013.1 252.487 2009.64 247.331 Q2006.2 242.149 2006.2 232.331 Q2006.2 222.487 2009.64 217.331 Q2013.1 212.149 2019.64 212.149 Z" fill="#000000" fill-rule="nonzero" fill-opacity="1" /><path clip-path="url(#clip540)" d="M2042.32 245.117 L2047.81 245.117 L2047.81 251.732 L2042.32 251.732 L2042.32 245.117 Z" fill="#000000" fill-rule="nonzero" fill-opacity="1" /><path clip-path="url(#clip540)" d="M2059.43 250.925 L2059.43 246.133 Q2061.41 247.07 2063.44 247.565 Q2065.47 248.06 2067.42 248.06 Q2072.63 248.06 2075.37 244.57 Q2078.13 241.055 2078.52 233.919 Q2077.01 236.159 2074.69 237.357 Q2072.37 238.555 2069.56 238.555 Q2063.72 238.555 2060.31 235.039 Q2056.93 231.498 2056.93 225.378 Q2056.93 219.388 2060.47 215.768 Q2064.01 212.149 2069.9 212.149 Q2076.64 212.149 2080.18 217.331 Q2083.75 222.487 2083.75 232.331 Q2083.75 241.524 2079.38 247.018 Q2075.03 252.487 2067.66 252.487 Q2065.68 252.487 2063.65 252.096 Q2061.62 251.706 2059.43 250.925 M2069.9 234.44 Q2073.44 234.44 2075.5 232.018 Q2077.58 229.597 2077.58 225.378 Q2077.58 221.185 2075.5 218.763 Q2073.44 216.315 2069.9 216.315 Q2066.35 216.315 2064.27 218.763 Q2062.21 221.185 2062.21 225.378 Q2062.21 229.597 2064.27 232.018 Q2066.35 234.44 2069.9 234.44 Z" fill="#000000" fill-rule="nonzero" fill-opacity="1" /><path clip-path="url(#clip540)" d="M2105.1 230.195 Q2101.56 230.195 2099.48 232.617 Q2097.42 235.039 2097.42 239.258 Q2097.42 243.451 2099.48 245.898 Q2101.56 248.32 2105.1 248.32 Q2108.65 248.32 2110.7 245.898 Q2112.79 243.451 2112.79 239.258 Q2112.79 235.039 2110.7 232.617 Q2108.65 230.195 2105.1 230.195 M2115.55 213.711 L2115.55 218.503 Q2113.57 217.565 2111.54 217.071 Q2109.53 216.576 2107.55 216.576 Q2102.34 216.576 2099.58 220.091 Q2096.85 223.607 2096.46 230.716 Q2098 228.451 2100.31 227.253 Q2102.63 226.029 2105.42 226.029 Q2111.28 226.029 2114.66 229.597 Q2118.07 233.138 2118.07 239.258 Q2118.07 245.247 2114.53 248.867 Q2110.99 252.487 2105.1 252.487 Q2098.36 252.487 2094.79 247.331 Q2091.22 242.149 2091.22 232.331 Q2091.22 223.112 2095.6 217.643 Q2099.97 212.149 2107.34 212.149 Q2109.32 212.149 2111.33 212.539 Q2113.36 212.93 2115.55 213.711 Z" fill="#000000" fill-rule="nonzero" fill-opacity="1" /><path clip-path="url(#clip540)" d="M2131.67 247.305 L2150.03 247.305 L2150.03 251.732 L2125.34 251.732 L2125.34 247.305 Q2128.33 244.206 2133.49 238.997 Q2138.67 233.763 2140 232.253 Q2142.53 229.414 2143.52 227.461 Q2144.53 225.482 2144.53 223.581 Q2144.53 220.482 2142.34 218.529 Q2140.18 216.576 2136.69 216.576 Q2134.22 216.576 2131.46 217.435 Q2128.72 218.294 2125.6 220.039 L2125.6 214.727 Q2128.78 213.451 2131.54 212.8 Q2134.3 212.149 2136.59 212.149 Q2142.63 212.149 2146.22 215.169 Q2149.82 218.19 2149.82 223.242 Q2149.82 225.638 2148.91 227.8 Q2148.02 229.935 2145.65 232.852 Q2145 233.607 2141.51 237.227 Q2138.02 240.82 2131.67 247.305 Z" fill="#000000" fill-rule="nonzero" fill-opacity="1" /><path clip-path="url(#clip540)" d="M2161.22 250.925 L2161.22 246.133 Q2163.2 247.07 2165.23 247.565 Q2167.27 248.06 2169.22 248.06 Q2174.43 248.06 2177.16 244.57 Q2179.92 241.055 2180.31 233.919 Q2178.8 236.159 2176.48 237.357 Q2174.17 238.555 2171.35 238.555 Q2165.52 238.555 2162.11 235.039 Q2158.72 231.498 2158.72 225.378 Q2158.72 219.388 2162.27 215.768 Q2165.81 212.149 2171.69 212.149 Q2178.44 212.149 2181.98 217.331 Q2185.55 222.487 2185.55 232.331 Q2185.55 241.524 2181.17 247.018 Q2176.82 252.487 2169.45 252.487 Q2167.47 252.487 2165.44 252.096 Q2163.41 251.706 2161.22 250.925 M2171.69 234.44 Q2175.23 234.44 2177.29 232.018 Q2179.38 229.597 2179.38 225.378 Q2179.38 221.185 2177.29 218.763 Q2175.23 216.315 2171.69 216.315 Q2168.15 216.315 2166.07 218.763 Q2164.01 221.185 2164.01 225.378 Q2164.01 229.597 2166.07 232.018 Q2168.15 234.44 2171.69 234.44 Z" fill="#000000" fill-rule="nonzero" fill-opacity="1" /><path clip-path="url(#clip540)" d="M2283.75 214.5 Q2279.68 214.5 2277.63 218.51 Q2275.59 222.495 2275.59 230.515 Q2275.59 238.51 2277.63 242.521 Q2279.68 246.505 2283.75 246.505 Q2287.83 246.505 2289.87 242.521 Q2291.92 238.51 2291.92 230.515 Q2291.92 222.495 2289.87 218.51 Q2287.83 214.5 2283.75 214.5 M2283.75 210.333 Q2290.28 210.333 2293.72 215.516 Q2297.18 220.672 2297.18 230.515 Q2297.18 240.333 2293.72 245.515 Q2290.28 250.672 2283.75 250.672 Q2277.21 250.672 2273.75 245.515 Q2270.31 240.333 2270.31 230.515 Q2270.31 220.672 2273.75 215.516 Q2277.21 210.333 2283.75 210.333 Z" fill="#000000" fill-rule="nonzero" fill-opacity="1" /><path clip-path="url(#clip540)" d="M2306.43 243.302 L2311.92 243.302 L2311.92 249.916 L2306.43 249.916 L2306.43 243.302 Z" fill="#000000" fill-rule="nonzero" fill-opacity="1" /><path clip-path="url(#clip540)" d="M2323.54 249.109 L2323.54 244.317 Q2325.52 245.255 2327.55 245.75 Q2329.58 246.245 2331.53 246.245 Q2336.74 246.245 2339.47 242.755 Q2342.23 239.239 2342.63 232.104 Q2341.12 234.344 2338.8 235.541 Q2336.48 236.739 2333.67 236.739 Q2327.83 236.739 2324.42 233.224 Q2321.04 229.682 2321.04 223.562 Q2321.04 217.573 2324.58 213.953 Q2328.12 210.333 2334.01 210.333 Q2340.75 210.333 2344.29 215.516 Q2347.86 220.672 2347.86 230.515 Q2347.86 239.708 2343.48 245.203 Q2339.14 250.672 2331.77 250.672 Q2329.79 250.672 2327.76 250.281 Q2325.72 249.89 2323.54 249.109 M2334.01 232.625 Q2337.55 232.625 2339.6 230.203 Q2341.69 227.781 2341.69 223.562 Q2341.69 219.37 2339.6 216.948 Q2337.55 214.5 2334.01 214.5 Q2330.46 214.5 2328.38 216.948 Q2326.32 219.37 2326.32 223.562 Q2326.32 227.781 2328.38 230.203 Q2330.46 232.625 2334.01 232.625 Z" fill="#000000" fill-rule="nonzero" fill-opacity="1" /><path clip-path="url(#clip540)" d="M2369.21 228.38 Q2365.67 228.38 2363.59 230.802 Q2361.53 233.224 2361.53 237.442 Q2361.53 241.635 2363.59 244.083 Q2365.67 246.505 2369.21 246.505 Q2372.76 246.505 2374.81 244.083 Q2376.9 241.635 2376.9 237.442 Q2376.9 233.224 2374.81 230.802 Q2372.76 228.38 2369.21 228.38 M2379.66 211.896 L2379.66 216.687 Q2377.68 215.75 2375.65 215.255 Q2373.64 214.76 2371.66 214.76 Q2366.45 214.76 2363.69 218.276 Q2360.96 221.792 2360.57 228.901 Q2362.1 226.635 2364.42 225.437 Q2366.74 224.213 2369.53 224.213 Q2375.39 224.213 2378.77 227.781 Q2382.18 231.323 2382.18 237.442 Q2382.18 243.432 2378.64 247.052 Q2375.1 250.672 2369.21 250.672 Q2362.47 250.672 2358.9 245.515 Q2355.33 240.333 2355.33 230.515 Q2355.33 221.297 2359.71 215.828 Q2364.08 210.333 2371.45 210.333 Q2373.43 210.333 2375.44 210.724 Q2377.47 211.114 2379.66 211.896 Z" fill="#000000" fill-rule="nonzero" fill-opacity="1" /><path clip-path="url(#clip540)" d="M2405.7 215.62 L2392.42 236.375 L2405.7 236.375 L2405.7 215.62 M2404.32 211.036 L2410.93 211.036 L2410.93 236.375 L2416.48 236.375 L2416.48 240.75 L2410.93 240.75 L2410.93 249.916 L2405.7 249.916 L2405.7 240.75 L2388.15 240.75 L2388.15 235.672 L2404.32 211.036 Z" fill="#000000" fill-rule="nonzero" fill-opacity="1" /><path clip-path="url(#clip540)" d="M2441.11 228.953 Q2444.89 229.76 2447 232.312 Q2449.14 234.864 2449.14 238.614 Q2449.14 244.37 2445.18 247.521 Q2441.22 250.672 2433.93 250.672 Q2431.48 250.672 2428.87 250.177 Q2426.3 249.708 2423.54 248.745 L2423.54 243.666 Q2425.72 244.942 2428.33 245.593 Q2430.93 246.245 2433.77 246.245 Q2438.72 246.245 2441.3 244.291 Q2443.9 242.338 2443.9 238.614 Q2443.9 235.177 2441.48 233.25 Q2439.08 231.297 2434.79 231.297 L2430.26 231.297 L2430.26 226.974 L2434.99 226.974 Q2438.87 226.974 2440.93 225.437 Q2442.99 223.875 2442.99 220.958 Q2442.99 217.963 2440.85 216.375 Q2438.74 214.76 2434.79 214.76 Q2432.62 214.76 2430.15 215.229 Q2427.68 215.698 2424.71 216.687 L2424.71 212 Q2427.7 211.167 2430.31 210.75 Q2432.94 210.333 2435.26 210.333 Q2441.24 210.333 2444.73 213.068 Q2448.22 215.776 2448.22 220.411 Q2448.22 223.64 2446.37 225.88 Q2444.53 228.094 2441.11 228.953 Z" fill="#000000" fill-rule="nonzero" fill-opacity="1" /><path clip-path="url(#clip540)" d="M2548.13 427.294 Q2544.07 427.294 2542.01 431.305 Q2539.98 435.289 2539.98 443.31 Q2539.98 451.305 2542.01 455.315 Q2544.07 459.299 2548.13 459.299 Q2552.22 459.299 2554.25 455.315 Q2556.31 451.305 2556.31 443.31 Q2556.31 435.289 2554.25 431.305 Q2552.22 427.294 2548.13 427.294 M2548.13 423.128 Q2554.66 423.128 2558.1 428.31 Q2561.57 433.466 2561.57 443.31 Q2561.57 453.128 2558.1 458.31 Q2554.66 463.466 2548.13 463.466 Q2541.59 463.466 2538.13 458.31 Q2534.69 453.128 2534.69 443.31 Q2534.69 433.466 2538.13 428.31 Q2541.59 423.128 2548.13 423.128 Z" fill="#000000" fill-rule="nonzero" fill-opacity="1" /><path clip-path="url(#clip540)" d="M2570.81 456.096 L2576.31 456.096 L2576.31 462.711 L2570.81 462.711 L2570.81 456.096 Z" fill="#000000" fill-rule="nonzero" fill-opacity="1" /><path clip-path="url(#clip540)" d="M2599.01 444.247 Q2595.26 444.247 2593.1 446.253 Q2590.97 448.258 2590.97 451.773 Q2590.97 455.289 2593.1 457.294 Q2595.26 459.299 2599.01 459.299 Q2602.76 459.299 2604.92 457.294 Q2607.09 455.263 2607.09 451.773 Q2607.09 448.258 2604.92 446.253 Q2602.79 444.247 2599.01 444.247 M2593.75 442.008 Q2590.37 441.175 2588.47 438.857 Q2586.59 436.539 2586.59 433.206 Q2586.59 428.544 2589.9 425.836 Q2593.23 423.128 2599.01 423.128 Q2604.82 423.128 2608.13 425.836 Q2611.44 428.544 2611.44 433.206 Q2611.44 436.539 2609.53 438.857 Q2607.66 441.175 2604.3 442.008 Q2608.1 442.893 2610.21 445.471 Q2612.35 448.05 2612.35 451.773 Q2612.35 457.424 2608.88 460.445 Q2605.45 463.466 2599.01 463.466 Q2592.58 463.466 2589.12 460.445 Q2585.68 457.424 2585.68 451.773 Q2585.68 448.05 2587.82 445.471 Q2589.95 442.893 2593.75 442.008 M2591.83 433.701 Q2591.83 436.721 2593.7 438.414 Q2595.6 440.107 2599.01 440.107 Q2602.4 440.107 2604.3 438.414 Q2606.23 436.721 2606.23 433.701 Q2606.23 430.68 2604.3 428.987 Q2602.4 427.294 2599.01 427.294 Q2595.6 427.294 2593.7 428.987 Q2591.83 430.68 2591.83 433.701 Z" fill="#000000" fill-rule="nonzero" fill-opacity="1" /><path clip-path="url(#clip540)" d="M2632.95 427.294 Q2628.88 427.294 2626.83 431.305 Q2624.79 435.289 2624.79 443.31 Q2624.79 451.305 2626.83 455.315 Q2628.88 459.299 2632.95 459.299 Q2637.03 459.299 2639.07 455.315 Q2641.12 451.305 2641.12 443.31 Q2641.12 435.289 2639.07 431.305 Q2637.03 427.294 2632.95 427.294 M2632.95 423.128 Q2639.48 423.128 2642.92 428.31 Q2646.38 433.466 2646.38 443.31 Q2646.38 453.128 2642.92 458.31 Q2639.48 463.466 2632.95 463.466 Q2626.41 463.466 2622.95 458.31 Q2619.51 453.128 2619.51 443.31 Q2619.51 433.466 2622.95 428.31 Q2626.41 423.128 2632.95 423.128 Z" fill="#000000" fill-rule="nonzero" fill-opacity="1" /><path clip-path="url(#clip540)" d="M2666.88 427.294 Q2662.81 427.294 2660.76 431.305 Q2658.73 435.289 2658.73 443.31 Q2658.73 451.305 2660.76 455.315 Q2662.81 459.299 2666.88 459.299 Q2670.97 459.299 2673 455.315 Q2675.05 451.305 2675.05 443.31 Q2675.05 435.289 2673 431.305 Q2670.97 427.294 2666.88 427.294 M2666.88 423.128 Q2673.41 423.128 2676.85 428.31 Q2680.31 433.466 2680.31 443.31 Q2680.31 453.128 2676.85 458.31 Q2673.41 463.466 2666.88 463.466 Q2660.34 463.466 2656.88 458.31 Q2653.44 453.128 2653.44 443.31 Q2653.44 433.466 2656.88 428.31 Q2660.34 423.128 2666.88 423.128 Z" fill="#000000" fill-rule="nonzero" fill-opacity="1" /><path clip-path="url(#clip540)" d="M2694.09 458.284 L2712.45 458.284 L2712.45 462.711 L2687.76 462.711 L2687.76 458.284 Q2690.76 455.185 2695.91 449.977 Q2701.1 444.742 2702.42 443.232 Q2704.95 440.393 2705.94 438.44 Q2706.96 436.461 2706.96 434.56 Q2706.96 431.461 2704.77 429.508 Q2702.61 427.555 2699.12 427.555 Q2696.64 427.555 2693.88 428.414 Q2691.15 429.274 2688.02 431.018 L2688.02 425.706 Q2691.2 424.43 2693.96 423.779 Q2696.72 423.128 2699.01 423.128 Q2705.05 423.128 2708.65 426.149 Q2712.24 429.169 2712.24 434.221 Q2712.24 436.617 2711.33 438.779 Q2710.44 440.914 2708.08 443.831 Q2707.42 444.586 2703.93 448.206 Q2700.44 451.799 2694.09 458.284 Z" fill="#000000" fill-rule="nonzero" fill-opacity="1" /><path clip-path="url(#clip540)" d="M2811.59 290.489 Q2807.52 290.489 2805.47 294.499 Q2803.44 298.483 2803.44 306.504 Q2803.44 314.499 2805.47 318.509 Q2807.52 322.494 2811.59 322.494 Q2815.67 322.494 2817.71 318.509 Q2819.76 314.499 2819.76 306.504 Q2819.76 298.483 2817.71 294.499 Q2815.67 290.489 2811.59 290.489 M2811.59 286.322 Q2818.12 286.322 2821.56 291.504 Q2825.02 296.661 2825.02 306.504 Q2825.02 316.322 2821.56 321.504 Q2818.12 326.66 2811.59 326.66 Q2805.05 326.66 2801.59 321.504 Q2798.15 316.322 2798.15 306.504 Q2798.15 296.661 2801.59 291.504 Q2805.05 286.322 2811.59 286.322 Z" fill="#000000" fill-rule="nonzero" fill-opacity="1" /><path clip-path="url(#clip540)" d="M2834.27 319.291 L2839.76 319.291 L2839.76 325.905 L2834.27 325.905 L2834.27 319.291 Z" fill="#000000" fill-rule="nonzero" fill-opacity="1" /><path clip-path="url(#clip540)" d="M2851.38 325.098 L2851.38 320.306 Q2853.36 321.244 2855.39 321.739 Q2857.42 322.233 2859.37 322.233 Q2864.58 322.233 2867.32 318.744 Q2870.08 315.228 2870.47 308.093 Q2868.96 310.332 2866.64 311.53 Q2864.32 312.728 2861.51 312.728 Q2855.67 312.728 2852.26 309.213 Q2848.88 305.671 2848.88 299.551 Q2848.88 293.562 2852.42 289.942 Q2855.96 286.322 2861.85 286.322 Q2868.59 286.322 2872.13 291.504 Q2875.7 296.661 2875.7 306.504 Q2875.7 315.697 2871.33 321.192 Q2866.98 326.66 2859.61 326.66 Q2857.63 326.66 2855.6 326.27 Q2853.57 325.879 2851.38 325.098 M2861.85 308.614 Q2865.39 308.614 2867.45 306.192 Q2869.53 303.77 2869.53 299.551 Q2869.53 295.358 2867.45 292.937 Q2865.39 290.489 2861.85 290.489 Q2858.3 290.489 2856.22 292.937 Q2854.16 295.358 2854.16 299.551 Q2854.16 303.77 2856.22 306.192 Q2858.3 308.614 2861.85 308.614 Z" fill="#000000" fill-rule="nonzero" fill-opacity="1" /><path clip-path="url(#clip540)" d="M2896.4 290.489 Q2892.34 290.489 2890.28 294.499 Q2888.25 298.483 2888.25 306.504 Q2888.25 314.499 2890.28 318.509 Q2892.34 322.494 2896.4 322.494 Q2900.49 322.494 2902.52 318.509 Q2904.58 314.499 2904.58 306.504 Q2904.58 298.483 2902.52 294.499 Q2900.49 290.489 2896.4 290.489 M2896.4 286.322 Q2902.94 286.322 2906.38 291.504 Q2909.84 296.661 2909.84 306.504 Q2909.84 316.322 2906.38 321.504 Q2902.94 326.66 2896.4 326.66 Q2889.87 326.66 2886.4 321.504 Q2882.97 316.322 2882.97 306.504 Q2882.97 296.661 2886.4 291.504 Q2889.87 286.322 2896.4 286.322 Z" fill="#000000" fill-rule="nonzero" fill-opacity="1" /><path clip-path="url(#clip540)" d="M2919.14 287.025 L2939.79 287.025 L2939.79 291.452 L2923.96 291.452 L2923.96 300.983 Q2925.1 300.593 2926.25 300.41 Q2927.39 300.202 2928.54 300.202 Q2935.05 300.202 2938.85 303.77 Q2942.65 307.338 2942.65 313.431 Q2942.65 319.707 2938.75 323.197 Q2934.84 326.66 2927.73 326.66 Q2925.28 326.66 2922.73 326.244 Q2920.21 325.827 2917.5 324.994 L2917.5 319.707 Q2919.84 320.983 2922.34 321.608 Q2924.84 322.233 2927.63 322.233 Q2932.13 322.233 2934.76 319.864 Q2937.39 317.494 2937.39 313.431 Q2937.39 309.369 2934.76 306.999 Q2932.13 304.629 2927.63 304.629 Q2925.52 304.629 2923.41 305.098 Q2921.33 305.567 2919.14 306.556 L2919.14 287.025 Z" fill="#000000" fill-rule="nonzero" fill-opacity="1" /><path clip-path="url(#clip540)" d="M2951.69 287.025 L2976.69 287.025 L2976.69 289.265 L2962.57 325.905 L2957.08 325.905 L2970.36 291.452 L2951.69 291.452 L2951.69 287.025 Z" fill="#000000" fill-rule="nonzero" fill-opacity="1" /></svg>
