<?xml version="1.0" encoding="utf-8"?>
<svg xmlns="http://www.w3.org/2000/svg" xmlns:xlink="http://www.w3.org/1999/xlink" width="800" height="420" viewBox="0 0 3200 1680">
<defs>
  <clipPath id="clip610">
    <rect x="0" y="0" width="3200" height="1680"/>
  </clipPath>
</defs>
<path clip-path="url(#clip610)" d="M0 1680 L3200 1680 L3200 0 L0 0  Z" fill="#ffffff" fill-rule="evenodd" fill-opacity="1"/>
<defs>
  <clipPath id="clip611">
    <rect x="201" y="110" width="2952" height="1410"/>
  </clipPath>
</defs>
<path clip-path="url(#clip610)" d="M201.866 1519.82 L3152.76 1519.82 L3152.76 110.62 L201.866 110.62  Z" fill="#ffffff" fill-rule="evenodd" fill-opacity="1"/>
<polyline clip-path="url(#clip611)" style="stroke:#000000; stroke-linecap:round; stroke-linejoin:round; stroke-width:2; stroke-opacity:0.1; fill:none" points="594.699,1519.82 594.699,110.62 "/>
<polyline clip-path="url(#clip611)" style="stroke:#000000; stroke-linecap:round; stroke-linejoin:round; stroke-width:2; stroke-opacity:0.1; fill:none" points="1213.33,1519.82 1213.33,110.62 "/>
<polyline clip-path="url(#clip611)" style="stroke:#000000; stroke-linecap:round; stroke-linejoin:round; stroke-width:2; stroke-opacity:0.1; fill:none" points="1831.97,1519.82 1831.97,110.62 "/>
<polyline clip-path="url(#clip611)" style="stroke:#000000; stroke-linecap:round; stroke-linejoin:round; stroke-width:2; stroke-opacity:0.1; fill:none" points="2450.6,1519.82 2450.6,110.62 "/>
<polyline clip-path="url(#clip611)" style="stroke:#000000; stroke-linecap:round; stroke-linejoin:round; stroke-width:2; stroke-opacity:0.1; fill:none" points="3069.24,1519.82 3069.24,110.62 "/>
<polyline clip-path="url(#clip611)" style="stroke:#000000; stroke-linecap:round; stroke-linejoin:round; stroke-width:2; stroke-opacity:0.1; fill:none" points="201.866,1204.4 3152.76,1204.4 "/>
<polyline clip-path="url(#clip611)" style="stroke:#000000; stroke-linecap:round; stroke-linejoin:round; stroke-width:2; stroke-opacity:0.1; fill:none" points="201.866,853.219 3152.76,853.219 "/>
<polyline clip-path="url(#clip611)" style="stroke:#000000; stroke-linecap:round; stroke-linejoin:round; stroke-width:2; stroke-opacity:0.1; fill:none" points="201.866,502.037 3152.76,502.037 "/>
<polyline clip-path="url(#clip611)" style="stroke:#000000; stroke-linecap:round; stroke-linejoin:round; stroke-width:2; stroke-opacity:0.1; fill:none" points="201.866,150.854 3152.76,150.854 "/>
<polyline clip-path="url(#clip610)" style="stroke:#000000; stroke-linecap:round; stroke-linejoin:round; stroke-width:4; stroke-opacity:1; fill:none" points="201.866,1519.82 3152.76,1519.82 "/>
<polyline clip-path="url(#clip610)" style="stroke:#000000; stroke-linecap:round; stroke-linejoin:round; stroke-width:4; stroke-opacity:1; fill:none" points="594.699,1519.82 594.699,1500.92 "/>
<polyline clip-path="url(#clip610)" style="stroke:#000000; stroke-linecap:round; stroke-linejoin:round; stroke-width:4; stroke-opacity:1; fill:none" points="1213.33,1519.82 1213.33,1500.92 "/>
<polyline clip-path="url(#clip610)" style="stroke:#000000; stroke-linecap:round; stroke-linejoin:round; stroke-width:4; stroke-opacity:1; fill:none" points="1831.97,1519.82 1831.97,1500.92 "/>
<polyline clip-path="url(#clip610)" style="stroke:#000000; stroke-linecap:round; stroke-linejoin:round; stroke-width:4; stroke-opacity:1; fill:none" points="2450.6,1519.82 2450.6,1500.92 "/>
<polyline clip-path="url(#clip610)" style="stroke:#000000; stroke-linecap:round; stroke-linejoin:round; stroke-width:4; stroke-opacity:1; fill:none" points="3069.24,1519.82 3069.24,1500.92 "/>
<path clip-path="url(#clip610)" d="M589.352 1584.69 L605.671 1584.69 L605.671 1588.62 L583.727 1588.62 L583.727 1584.69 Q586.389 1581.93 590.972 1577.3 Q595.579 1572.65 596.759 1571.31 Q599.005 1568.78 599.884 1567.05 Q600.787 1565.29 600.787 1563.6 Q600.787 1560.84 598.842 1559.11 Q596.921 1557.37 593.819 1557.37 Q591.62 1557.37 589.167 1558.14 Q586.736 1558.9 583.958 1560.45 L583.958 1555.73 Q586.782 1554.59 589.236 1554.02 Q591.69 1553.44 593.727 1553.44 Q599.097 1553.44 602.292 1556.12 Q605.486 1558.81 605.486 1563.3 Q605.486 1565.43 604.676 1567.35 Q603.889 1569.25 601.782 1571.84 Q601.204 1572.51 598.102 1575.73 Q595 1578.92 589.352 1584.69 Z" fill="#000000" fill-rule="nonzero" fill-opacity="1" /><path clip-path="url(#clip610)" d="M1216.34 1558.14 L1204.54 1576.58 L1216.34 1576.58 L1216.34 1558.14 M1215.12 1554.06 L1221 1554.06 L1221 1576.58 L1225.93 1576.58 L1225.93 1580.47 L1221 1580.47 L1221 1588.62 L1216.34 1588.62 L1216.34 1580.47 L1200.74 1580.47 L1200.74 1575.96 L1215.12 1554.06 Z" fill="#000000" fill-rule="nonzero" fill-opacity="1" /><path clip-path="url(#clip610)" d="M1832.37 1569.48 Q1829.23 1569.48 1827.37 1571.63 Q1825.55 1573.78 1825.55 1577.53 Q1825.55 1581.26 1827.37 1583.44 Q1829.23 1585.59 1832.37 1585.59 Q1835.52 1585.59 1837.35 1583.44 Q1839.2 1581.26 1839.2 1577.53 Q1839.2 1573.78 1837.35 1571.63 Q1835.52 1569.48 1832.37 1569.48 M1841.66 1554.83 L1841.66 1559.08 Q1839.9 1558.25 1838.09 1557.81 Q1836.31 1557.37 1834.55 1557.37 Q1829.92 1557.37 1827.47 1560.5 Q1825.04 1563.62 1824.69 1569.94 Q1826.06 1567.93 1828.12 1566.86 Q1830.18 1565.77 1832.65 1565.77 Q1837.86 1565.77 1840.87 1568.95 Q1843.9 1572.09 1843.9 1577.53 Q1843.9 1582.86 1840.75 1586.08 Q1837.61 1589.29 1832.37 1589.29 Q1826.38 1589.29 1823.21 1584.71 Q1820.04 1580.1 1820.04 1571.38 Q1820.04 1563.18 1823.93 1558.32 Q1827.81 1553.44 1834.37 1553.44 Q1836.12 1553.44 1837.91 1553.78 Q1839.71 1554.13 1841.66 1554.83 Z" fill="#000000" fill-rule="nonzero" fill-opacity="1" /><path clip-path="url(#clip610)" d="M2450.6 1572.21 Q2447.27 1572.21 2445.35 1573.99 Q2443.45 1575.77 2443.45 1578.9 Q2443.45 1582.02 2445.35 1583.81 Q2447.27 1585.59 2450.6 1585.59 Q2453.94 1585.59 2455.86 1583.81 Q2457.78 1582 2457.78 1578.9 Q2457.78 1575.77 2455.86 1573.99 Q2453.96 1572.21 2450.6 1572.21 M2445.93 1570.22 Q2442.92 1569.48 2441.23 1567.42 Q2439.56 1565.36 2439.56 1562.4 Q2439.56 1558.25 2442.5 1555.84 Q2445.47 1553.44 2450.6 1553.44 Q2455.77 1553.44 2458.71 1555.84 Q2461.65 1558.25 2461.65 1562.4 Q2461.65 1565.36 2459.96 1567.42 Q2458.29 1569.48 2455.3 1570.22 Q2458.68 1571.01 2460.56 1573.3 Q2462.46 1575.59 2462.46 1578.9 Q2462.46 1583.92 2459.38 1586.61 Q2456.32 1589.29 2450.6 1589.29 Q2444.89 1589.29 2441.81 1586.61 Q2438.75 1583.92 2438.75 1578.9 Q2438.75 1575.59 2440.65 1573.3 Q2442.55 1571.01 2445.93 1570.22 M2444.22 1562.83 Q2444.22 1565.52 2445.88 1567.02 Q2447.57 1568.53 2450.6 1568.53 Q2453.61 1568.53 2455.3 1567.02 Q2457.02 1565.52 2457.02 1562.83 Q2457.02 1560.15 2455.3 1558.65 Q2453.61 1557.14 2450.6 1557.14 Q2447.57 1557.14 2445.88 1558.65 Q2444.22 1560.15 2444.22 1562.83 Z" fill="#000000" fill-rule="nonzero" fill-opacity="1" /><path clip-path="url(#clip610)" d="M3043.93 1584.69 L3051.57 1584.69 L3051.57 1558.32 L3043.26 1559.99 L3043.26 1555.73 L3051.52 1554.06 L3056.2 1554.06 L3056.2 1584.69 L3063.84 1584.69 L3063.84 1588.62 L3043.93 1588.62 L3043.93 1584.69 Z" fill="#000000" fill-rule="nonzero" fill-opacity="1" /><path clip-path="url(#clip610)" d="M3083.28 1557.14 Q3079.67 1557.14 3077.84 1560.71 Q3076.03 1564.25 3076.03 1571.38 Q3076.03 1578.48 3077.84 1582.05 Q3079.67 1585.59 3083.28 1585.59 Q3086.91 1585.59 3088.72 1582.05 Q3090.55 1578.48 3090.55 1571.38 Q3090.55 1564.25 3088.72 1560.71 Q3086.91 1557.14 3083.28 1557.14 M3083.28 1553.44 Q3089.09 1553.44 3092.15 1558.04 Q3095.22 1562.63 3095.22 1571.38 Q3095.22 1580.1 3092.15 1584.71 Q3089.09 1589.29 3083.28 1589.29 Q3077.47 1589.29 3074.39 1584.71 Q3071.34 1580.1 3071.34 1571.38 Q3071.34 1562.63 3074.39 1558.04 Q3077.47 1553.44 3083.28 1553.44 Z" fill="#000000" fill-rule="nonzero" fill-opacity="1" /><path clip-path="url(#clip610)" d="M1585.49 1653.99 L1585.49 1671.4 L1595.8 1671.4 Q1600.99 1671.4 1603.47 1669.27 Q1605.98 1667.11 1605.98 1662.68 Q1605.98 1658.23 1603.47 1656.12 Q1600.99 1653.99 1595.8 1653.99 L1585.49 1653.99 M1585.49 1634.45 L1585.49 1648.77 L1595 1648.77 Q1599.71 1648.77 1602 1647.02 Q1604.33 1645.24 1604.33 1641.61 Q1604.33 1638.01 1602 1636.23 Q1599.71 1634.45 1595 1634.45 L1585.49 1634.45 M1579.06 1629.17 L1595.48 1629.17 Q1602.83 1629.17 1606.81 1632.22 Q1610.79 1635.28 1610.79 1640.91 Q1610.79 1645.27 1608.75 1647.85 Q1606.72 1650.43 1602.77 1651.06 Q1607.51 1652.08 1610.12 1655.33 Q1612.76 1658.54 1612.76 1663.38 Q1612.76 1669.75 1608.43 1673.22 Q1604.11 1676.69 1596.12 1676.69 L1579.06 1676.69 L1579.06 1629.17 Z" fill="#000000" fill-rule="nonzero" fill-opacity="1" /><path clip-path="url(#clip610)" d="M1637.33 1645.14 Q1632.62 1645.14 1629.89 1648.84 Q1627.15 1652.5 1627.15 1658.89 Q1627.15 1665.29 1629.85 1668.98 Q1632.59 1672.64 1637.33 1672.64 Q1642.01 1672.64 1644.75 1668.95 Q1647.49 1665.26 1647.49 1658.89 Q1647.49 1652.56 1644.75 1648.87 Q1642.01 1645.14 1637.33 1645.14 M1637.33 1640.18 Q1644.97 1640.18 1649.33 1645.14 Q1653.69 1650.11 1653.69 1658.89 Q1653.69 1667.65 1649.33 1672.64 Q1644.97 1677.61 1637.33 1677.61 Q1629.66 1677.61 1625.3 1672.64 Q1620.97 1667.65 1620.97 1658.89 Q1620.97 1650.11 1625.3 1645.14 Q1629.66 1640.18 1637.33 1640.18 Z" fill="#000000" fill-rule="nonzero" fill-opacity="1" /><path clip-path="url(#clip610)" d="M1659.68 1676.69 L1659.68 1671.82 Q1665.47 1670.92 1667.25 1666.91 Q1669.42 1661.28 1669.42 1646.86 L1669.42 1641.04 L1693.51 1641.04 L1693.51 1676.69 L1687.66 1676.69 L1687.66 1645.72 L1675.27 1645.72 L1675.27 1649.25 Q1675.27 1663 1672.47 1669.17 Q1669.48 1675.76 1659.68 1676.69 Z" fill="#000000" fill-rule="nonzero" fill-opacity="1" /><path clip-path="url(#clip610)" d="M1704.84 1641.04 L1710.73 1641.04 L1710.73 1655.58 L1729.73 1655.58 L1729.73 1641.04 L1735.62 1641.04 L1735.62 1676.69 L1729.73 1676.69 L1729.73 1660.26 L1710.73 1660.26 L1710.73 1676.69 L1704.84 1676.69 L1704.84 1641.04 Z" fill="#000000" fill-rule="nonzero" fill-opacity="1" /><path clip-path="url(#clip610)" d="M1763.88 1658.77 Q1756.79 1658.77 1754.05 1660.39 Q1751.31 1662.01 1751.31 1665.93 Q1751.31 1669.05 1753.35 1670.89 Q1755.42 1672.71 1758.95 1672.71 Q1763.82 1672.71 1766.75 1669.27 Q1769.71 1665.8 1769.71 1660.07 L1769.71 1658.77 L1763.88 1658.77 M1775.57 1656.35 L1775.57 1676.69 L1769.71 1676.69 L1769.71 1671.27 Q1767.7 1674.52 1764.71 1676.08 Q1761.72 1677.61 1757.39 1677.61 Q1751.92 1677.61 1748.67 1674.55 Q1745.46 1671.47 1745.46 1666.31 Q1745.46 1660.29 1749.47 1657.24 Q1753.51 1654.18 1761.5 1654.18 L1769.71 1654.18 L1769.71 1653.61 Q1769.71 1649.57 1767.04 1647.37 Q1764.39 1645.14 1759.59 1645.14 Q1756.53 1645.14 1753.64 1645.88 Q1750.74 1646.61 1748.07 1648.07 L1748.07 1642.66 Q1751.28 1641.42 1754.3 1640.82 Q1757.33 1640.18 1760.19 1640.18 Q1767.93 1640.18 1771.75 1644.19 Q1775.57 1648.2 1775.57 1656.35 Z" fill="#000000" fill-rule="nonzero" fill-opacity="1" /><polyline clip-path="url(#clip610)" style="stroke:#000000; stroke-linecap:round; stroke-linejoin:round; stroke-width:4; stroke-opacity:1; fill:none" points="201.866,1519.82 201.866,110.62 "/>
<polyline clip-path="url(#clip610)" style="stroke:#000000; stroke-linecap:round; stroke-linejoin:round; stroke-width:4; stroke-opacity:1; fill:none" points="201.866,1204.4 220.763,1204.4 "/>
<polyline clip-path="url(#clip610)" style="stroke:#000000; stroke-linecap:round; stroke-linejoin:round; stroke-width:4; stroke-opacity:1; fill:none" points="201.866,853.219 220.763,853.219 "/>
<polyline clip-path="url(#clip610)" style="stroke:#000000; stroke-linecap:round; stroke-linejoin:round; stroke-width:4; stroke-opacity:1; fill:none" points="201.866,502.037 220.763,502.037 "/>
<polyline clip-path="url(#clip610)" style="stroke:#000000; stroke-linecap:round; stroke-linejoin:round; stroke-width:4; stroke-opacity:1; fill:none" points="201.866,150.854 220.763,150.854 "/>
<path clip-path="url(#clip610)" d="M132.963 1187.12 L151.319 1187.12 L151.319 1191.06 L137.245 1191.06 L137.245 1199.53 Q138.264 1199.18 139.282 1199.02 Q140.301 1198.83 141.319 1198.83 Q147.106 1198.83 150.486 1202.01 Q153.866 1205.18 153.866 1210.59 Q153.866 1216.17 150.393 1219.27 Q146.921 1222.35 140.602 1222.35 Q138.426 1222.35 136.157 1221.98 Q133.912 1221.61 131.505 1220.87 L131.505 1216.17 Q133.588 1217.31 135.81 1217.86 Q138.032 1218.42 140.509 1218.42 Q144.514 1218.42 146.852 1216.31 Q149.19 1214.2 149.19 1210.59 Q149.19 1206.98 146.852 1204.88 Q144.514 1202.77 140.509 1202.77 Q138.634 1202.77 136.759 1203.19 Q134.907 1203.6 132.963 1204.48 L132.963 1187.12 Z" fill="#000000" fill-rule="nonzero" fill-opacity="1" /><path clip-path="url(#clip610)" d="M102.57 866.564 L110.208 866.564 L110.208 840.198 L101.898 841.865 L101.898 837.606 L110.162 835.939 L114.838 835.939 L114.838 866.564 L122.477 866.564 L122.477 870.499 L102.57 870.499 L102.57 866.564 Z" fill="#000000" fill-rule="nonzero" fill-opacity="1" /><path clip-path="url(#clip610)" d="M141.921 839.018 Q138.31 839.018 136.481 842.582 Q134.676 846.124 134.676 853.254 Q134.676 860.36 136.481 863.925 Q138.31 867.467 141.921 867.467 Q145.555 867.467 147.361 863.925 Q149.19 860.36 149.19 853.254 Q149.19 846.124 147.361 842.582 Q145.555 839.018 141.921 839.018 M141.921 835.314 Q147.731 835.314 150.787 839.92 Q153.866 844.504 153.866 853.254 Q153.866 861.98 150.787 866.587 Q147.731 871.17 141.921 871.17 Q136.111 871.17 133.032 866.587 Q129.977 861.98 129.977 853.254 Q129.977 844.504 133.032 839.92 Q136.111 835.314 141.921 835.314 Z" fill="#000000" fill-rule="nonzero" fill-opacity="1" /><path clip-path="url(#clip610)" d="M103.565 515.381 L111.204 515.381 L111.204 489.016 L102.894 490.683 L102.894 486.423 L111.157 484.757 L115.833 484.757 L115.833 515.381 L123.472 515.381 L123.472 519.317 L103.565 519.317 L103.565 515.381 Z" fill="#000000" fill-rule="nonzero" fill-opacity="1" /><path clip-path="url(#clip610)" d="M132.963 484.757 L151.319 484.757 L151.319 488.692 L137.245 488.692 L137.245 497.164 Q138.264 496.817 139.282 496.655 Q140.301 496.47 141.319 496.47 Q147.106 496.47 150.486 499.641 Q153.866 502.812 153.866 508.229 Q153.866 513.807 150.393 516.909 Q146.921 519.988 140.602 519.988 Q138.426 519.988 136.157 519.618 Q133.912 519.247 131.505 518.506 L131.505 513.807 Q133.588 514.942 135.81 515.497 Q138.032 516.053 140.509 516.053 Q144.514 516.053 146.852 513.946 Q149.19 511.84 149.19 508.229 Q149.19 504.618 146.852 502.511 Q144.514 500.405 140.509 500.405 Q138.634 500.405 136.759 500.821 Q134.907 501.238 132.963 502.118 L132.963 484.757 Z" fill="#000000" fill-rule="nonzero" fill-opacity="1" /><path clip-path="url(#clip610)" d="M105.787 164.199 L122.106 164.199 L122.106 168.134 L100.162 168.134 L100.162 164.199 Q102.824 161.445 107.407 156.815 Q112.014 152.162 113.194 150.82 Q115.44 148.297 116.319 146.56 Q117.222 144.801 117.222 143.111 Q117.222 140.357 115.278 138.621 Q113.357 136.885 110.255 136.885 Q108.056 136.885 105.602 137.648 Q103.171 138.412 100.394 139.963 L100.394 135.241 Q103.218 134.107 105.671 133.528 Q108.125 132.949 110.162 132.949 Q115.532 132.949 118.727 135.635 Q121.921 138.32 121.921 142.81 Q121.921 144.94 121.111 146.861 Q120.324 148.759 118.218 151.352 Q117.639 152.023 114.537 155.241 Q111.435 158.435 105.787 164.199 Z" fill="#000000" fill-rule="nonzero" fill-opacity="1" /><path clip-path="url(#clip610)" d="M141.921 136.653 Q138.31 136.653 136.481 140.218 Q134.676 143.76 134.676 150.889 Q134.676 157.996 136.481 161.56 Q138.31 165.102 141.921 165.102 Q145.555 165.102 147.361 161.56 Q149.19 157.996 149.19 150.889 Q149.19 143.76 147.361 140.218 Q145.555 136.653 141.921 136.653 M141.921 132.949 Q147.731 132.949 150.787 137.556 Q153.866 142.139 153.866 150.889 Q153.866 159.616 150.787 164.222 Q147.731 168.806 141.921 168.806 Q136.111 168.806 133.032 164.222 Q129.977 159.616 129.977 150.889 Q129.977 142.139 133.032 137.556 Q136.111 132.949 141.921 132.949 Z" fill="#000000" fill-rule="nonzero" fill-opacity="1" /><path clip-path="url(#clip610)" d="M15.6262 830.706 Q16.3264 828.637 18.6181 826.695 Q20.9097 824.722 24.9201 822.748 L37.9062 816.224 L37.9062 823.13 L25.7158 829.21 Q20.9415 831.565 19.382 833.793 Q17.8224 835.989 17.8224 839.809 L17.8224 846.811 L37.9062 846.811 L37.9062 853.24 L-9.61384 853.24 L-9.61384 838.726 Q-9.61384 830.578 -6.20819 826.568 Q-2.80254 822.557 4.07243 822.557 Q8.56025 822.557 11.5203 824.658 Q14.4804 826.727 15.6262 830.706 M-4.33031 846.811 L12.5388 846.811 L12.5388 838.726 Q12.5388 834.079 10.4063 831.724 Q8.24196 829.337 4.07243 829.337 Q-0.0971111 829.337 -2.19779 831.724 Q-4.33031 834.079 -4.33031 838.726 L-4.33031 846.811 Z" fill="#000000" fill-rule="nonzero" fill-opacity="1" /><path clip-path="url(#clip610)" d="M-5.38065 793.625 Q-5.38065 798.591 -0.479054 801.105 Q4.39071 803.588 14.1939 803.588 Q23.9653 803.588 28.8669 801.105 Q33.7366 798.591 33.7366 793.625 Q33.7366 788.628 28.8669 786.146 Q23.9653 783.631 14.1939 783.631 Q4.39071 783.631 -0.479054 786.146 Q-5.38065 788.628 -5.38065 793.625 M-10.4732 793.625 Q-10.4732 785.636 -4.13933 781.435 Q2.16271 777.202 14.1939 777.202 Q26.1933 777.202 32.5271 781.435 Q38.8292 785.636 38.8292 793.625 Q38.8292 801.614 32.5271 805.847 Q26.1933 810.049 14.1939 810.049 Q2.16271 810.049 -4.13933 805.847 Q-10.4732 801.614 -10.4732 793.625 Z" fill="#000000" fill-rule="nonzero" fill-opacity="1" /><path clip-path="url(#clip610)" d="M841.751 44.2197 Q844.384 45.1109 846.855 48.0275 Q849.367 50.9442 851.878 56.0483 L860.183 72.576 L851.392 72.576 L843.655 57.061 Q840.657 50.9847 837.822 48.9997 Q835.026 47.0148 830.165 47.0148 L821.253 47.0148 L821.253 72.576 L813.071 72.576 L813.071 12.096 L831.543 12.096 Q841.913 12.096 847.017 16.4305 Q852.121 20.7649 852.121 29.5149 Q852.121 35.2267 849.448 38.994 Q846.815 42.7613 841.751 44.2197 M821.253 18.8205 L821.253 40.2903 L831.543 40.2903 Q837.457 40.2903 840.455 37.5762 Q843.493 34.8216 843.493 29.5149 Q843.493 24.2082 840.455 21.5346 Q837.457 18.8205 831.543 18.8205 L821.253 18.8205 Z" fill="#000000" fill-rule="nonzero" fill-opacity="1" /><path clip-path="url(#clip610)" d="M888.944 17.4837 Q882.625 17.4837 879.424 23.7221 Q876.265 29.92 876.265 42.3968 Q876.265 54.833 879.424 61.0714 Q882.625 67.2693 888.944 67.2693 Q895.304 67.2693 898.464 61.0714 Q901.664 54.833 901.664 42.3968 Q901.664 29.92 898.464 23.7221 Q895.304 17.4837 888.944 17.4837 M888.944 11.0023 Q899.112 11.0023 904.459 19.0636 Q909.847 27.0843 909.847 42.3968 Q909.847 57.6687 904.459 65.73 Q899.112 73.7508 888.944 73.7508 Q878.776 73.7508 873.389 65.73 Q868.041 57.6687 868.041 42.3968 Q868.041 27.0843 873.389 19.0636 Q878.776 11.0023 888.944 11.0023 Z" fill="#000000" fill-rule="nonzero" fill-opacity="1" /><path clip-path="url(#clip610)" d="M925.078 62.2867 L933.625 62.2867 L933.625 72.576 L925.078 72.576 L925.078 62.2867 M925.078 29.6769 L933.625 29.6769 L933.625 39.9662 L925.078 39.9662 L925.078 29.6769 Z" fill="#000000" fill-rule="nonzero" fill-opacity="1" /><path clip-path="url(#clip610)" d="M984.707 65.7705 L984.707 89.8329 L977.213 89.8329 L977.213 27.2059 L984.707 27.2059 L984.707 34.0924 Q987.057 30.0415 990.622 28.0971 Q994.227 26.1121 999.21 26.1121 Q1007.47 26.1121 1012.62 32.6746 Q1017.8 39.2371 1017.8 49.9314 Q1017.8 60.6258 1012.62 67.1883 Q1007.47 73.7508 999.21 73.7508 Q994.227 73.7508 990.622 71.8063 Q987.057 69.8214 984.707 65.7705 M1010.07 49.9314 Q1010.07 41.7081 1006.66 37.0496 Q1003.3 32.3505 997.387 32.3505 Q991.472 32.3505 988.07 37.0496 Q984.707 41.7081 984.707 49.9314 Q984.707 58.1548 988.07 62.8538 Q991.472 67.5124 997.387 67.5124 Q1003.3 67.5124 1006.66 62.8538 Q1010.07 58.1548 1010.07 49.9314 Z" fill="#000000" fill-rule="nonzero" fill-opacity="1" /><path clip-path="url(#clip610)" d="M1056.45 34.1734 Q1055.19 33.4443 1053.69 33.1202 Q1052.24 32.7556 1050.45 32.7556 Q1044.13 32.7556 1040.73 36.8875 Q1037.37 40.9789 1037.37 48.6757 L1037.37 72.576 L1029.87 72.576 L1029.87 27.2059 L1037.37 27.2059 L1037.37 34.2544 Q1039.72 30.1225 1043.49 28.1376 Q1047.25 26.1121 1052.64 26.1121 Q1053.41 26.1121 1054.34 26.2337 Q1055.27 26.3147 1056.41 26.5172 L1056.45 34.1734 Z" fill="#000000" fill-rule="nonzero" fill-opacity="1" /><path clip-path="url(#clip610)" d="M1064.27 27.2059 L1071.72 27.2059 L1071.72 72.576 L1064.27 72.576 L1064.27 27.2059 M1064.27 9.54393 L1071.72 9.54393 L1071.72 18.9825 L1064.27 18.9825 L1064.27 9.54393 Z" fill="#000000" fill-rule="nonzero" fill-opacity="1" /><path clip-path="url(#clip610)" d="M1104.9 32.4315 Q1098.9 32.4315 1095.42 37.1306 Q1091.93 41.7891 1091.93 49.9314 Q1091.93 58.0738 1095.38 62.7728 Q1098.86 67.4314 1104.9 67.4314 Q1110.85 67.4314 1114.34 62.7323 Q1117.82 58.0333 1117.82 49.9314 Q1117.82 41.8701 1114.34 37.1711 Q1110.85 32.4315 1104.9 32.4315 M1104.9 26.1121 Q1114.62 26.1121 1120.17 32.4315 Q1125.72 38.7509 1125.72 49.9314 Q1125.72 61.0714 1120.17 67.4314 Q1114.62 73.7508 1104.9 73.7508 Q1095.14 73.7508 1089.59 67.4314 Q1084.08 61.0714 1084.08 49.9314 Q1084.08 38.7509 1089.59 32.4315 Q1095.14 26.1121 1104.9 26.1121 Z" fill="#000000" fill-rule="nonzero" fill-opacity="1" /><path clip-path="url(#clip610)" d="M1164.36 34.1734 Q1163.11 33.4443 1161.61 33.1202 Q1160.15 32.7556 1158.37 32.7556 Q1152.05 32.7556 1148.65 36.8875 Q1145.29 40.9789 1145.29 48.6757 L1145.29 72.576 L1137.79 72.576 L1137.79 27.2059 L1145.29 27.2059 L1145.29 34.2544 Q1147.63 30.1225 1151.4 28.1376 Q1155.17 26.1121 1160.56 26.1121 Q1161.33 26.1121 1162.26 26.2337 Q1163.19 26.3147 1164.32 26.5172 L1164.36 34.1734 Z" fill="#000000" fill-rule="nonzero" fill-opacity="1" /><path clip-path="url(#clip610)" d="M1216.46 9.62495 Q1211.03 18.942 1208.4 28.0566 Q1205.77 37.1711 1205.77 46.5287 Q1205.77 55.8863 1208.4 65.0818 Q1211.07 74.2369 1216.46 83.5134 L1209.98 83.5134 Q1203.9 73.9938 1200.86 64.7983 Q1197.87 55.6027 1197.87 46.5287 Q1197.87 37.4952 1200.86 28.3401 Q1203.86 19.1851 1209.98 9.62495 L1216.46 9.62495 Z" fill="#000000" fill-rule="nonzero" fill-opacity="1" /><path clip-path="url(#clip610)" d="M1264.79 66.6212 L1283.99 66.6212 L1283.99 27.2059 L1291.48 27.2059 L1291.48 72.576 L1230.64 72.576 L1230.64 27.2059 L1238.13 27.2059 L1238.13 66.6212 L1257.29 66.6212 L1257.29 27.2059 L1264.79 27.2059 L1264.79 66.6212 Z" fill="#000000" fill-rule="nonzero" fill-opacity="1" /><path clip-path="url(#clip610)" d="M1301.45 27.2059 L1344.91 27.2059 L1344.91 33.1607 L1326.85 33.1607 L1326.85 72.576 L1319.51 72.576 L1319.51 33.1607 L1301.45 33.1607 L1301.45 27.2059 Z" fill="#000000" fill-rule="nonzero" fill-opacity="1" /><path clip-path="url(#clip610)" d="M1375.78 49.7694 Q1366.75 49.7694 1363.26 51.8354 Q1359.78 53.9013 1359.78 58.8839 Q1359.78 62.8538 1362.37 65.2034 Q1365.01 67.5124 1369.5 67.5124 Q1375.7 67.5124 1379.43 63.1374 Q1383.19 58.7219 1383.19 51.4303 L1383.19 49.7694 L1375.78 49.7694 M1390.65 46.6907 L1390.65 72.576 L1383.19 72.576 L1383.19 65.6895 Q1380.64 69.8214 1376.83 71.8063 Q1373.03 73.7508 1367.52 73.7508 Q1360.55 73.7508 1356.42 69.8619 Q1352.33 65.9325 1352.33 59.3701 Q1352.33 51.7138 1357.43 47.825 Q1362.58 43.9361 1372.74 43.9361 L1383.19 43.9361 L1383.19 43.2069 Q1383.19 38.0623 1379.79 35.2672 Q1376.43 32.4315 1370.31 32.4315 Q1366.42 32.4315 1362.74 33.3632 Q1359.05 34.295 1355.65 36.1584 L1355.65 29.2718 Q1359.74 27.692 1363.59 26.9223 Q1367.44 26.1121 1371.08 26.1121 Q1380.93 26.1121 1385.79 31.2163 Q1390.65 36.3204 1390.65 46.6907 Z" fill="#000000" fill-rule="nonzero" fill-opacity="1" /><path clip-path="url(#clip610)" d="M1405.72 27.2059 L1416.61 27.2059 L1429.5 57.5877 L1442.42 27.2059 L1453.23 27.2059 L1453.23 72.576 L1445.74 72.576 L1445.74 34.3355 L1433.22 63.8666 L1425.77 63.8666 L1413.21 34.3355 L1413.21 72.576 L1405.72 72.576 L1405.72 27.2059 Z" fill="#000000" fill-rule="nonzero" fill-opacity="1" /><path clip-path="url(#clip610)" d="M1468.3 27.2059 L1479.2 27.2059 L1492.08 57.5877 L1505.01 27.2059 L1515.82 27.2059 L1515.82 72.576 L1508.33 72.576 L1508.33 34.3355 L1495.81 63.8666 L1488.36 63.8666 L1475.8 34.3355 L1475.8 72.576 L1468.3 72.576 L1468.3 27.2059 Z" fill="#000000" fill-rule="nonzero" fill-opacity="1" /><path clip-path="url(#clip610)" d="M1530 9.62495 L1536.48 9.62495 Q1542.56 19.1851 1545.56 28.3401 Q1548.59 37.4952 1548.59 46.5287 Q1548.59 55.6027 1545.56 64.7983 Q1542.56 73.9938 1536.48 83.5134 L1530 83.5134 Q1535.39 74.2369 1538.02 65.0818 Q1540.69 55.8863 1540.69 46.5287 Q1540.69 37.1711 1538.02 28.0566 Q1535.39 18.942 1530 9.62495 Z" fill="#000000" fill-rule="nonzero" fill-opacity="1" /><path clip-path="url(#clip610)" d="M1584.57 27.2059 L1592.46 27.2059 L1606.64 65.2844 L1620.82 27.2059 L1628.72 27.2059 L1611.71 72.576 L1601.58 72.576 L1584.57 27.2059 Z" fill="#000000" fill-rule="nonzero" fill-opacity="1" /><path clip-path="url(#clip610)" d="M1667.93 28.5427 L1667.93 35.5912 Q1664.77 33.9709 1661.37 33.1607 Q1657.97 32.3505 1654.32 32.3505 Q1648.77 32.3505 1645.98 34.0519 Q1643.22 35.7533 1643.22 39.156 Q1643.22 41.7486 1645.21 43.2475 Q1647.19 44.7058 1653.19 46.0426 L1655.74 46.6097 Q1663.68 48.3111 1667 51.4303 Q1670.36 54.509 1670.36 60.0587 Q1670.36 66.3781 1665.34 70.0644 Q1660.36 73.7508 1651.61 73.7508 Q1647.96 73.7508 1643.99 73.0216 Q1640.06 72.3329 1635.69 70.9151 L1635.69 63.2184 Q1639.82 65.3654 1643.83 66.4591 Q1647.84 67.5124 1651.77 67.5124 Q1657.04 67.5124 1659.87 65.73 Q1662.71 63.9071 1662.71 60.6258 Q1662.71 57.5877 1660.64 55.9673 Q1658.62 54.3469 1651.69 52.8481 L1649.1 52.2405 Q1642.17 50.7821 1639.09 47.7845 Q1636.01 44.7463 1636.01 39.4801 Q1636.01 33.0797 1640.55 29.5959 Q1645.09 26.1121 1653.43 26.1121 Q1657.56 26.1121 1661.21 26.7198 Q1664.85 27.3274 1667.93 28.5427 Z" fill="#000000" fill-rule="nonzero" fill-opacity="1" /><path clip-path="url(#clip610)" d="M1708.93 12.096 L1717.11 12.096 L1717.11 72.576 L1708.93 72.576 L1708.93 12.096 Z" fill="#000000" fill-rule="nonzero" fill-opacity="1" /><path clip-path="url(#clip610)" d="M1770.79 45.1919 L1770.79 72.576 L1763.33 72.576 L1763.33 45.4349 Q1763.33 38.994 1760.82 35.7938 Q1758.31 32.5936 1753.29 32.5936 Q1747.25 32.5936 1743.77 36.4419 Q1740.28 40.2903 1740.28 46.9338 L1740.28 72.576 L1732.79 72.576 L1732.79 27.2059 L1740.28 27.2059 L1740.28 34.2544 Q1742.96 30.163 1746.56 28.1376 Q1750.21 26.1121 1754.95 26.1121 Q1762.76 26.1121 1766.77 30.9732 Q1770.79 35.7938 1770.79 45.1919 Z" fill="#000000" fill-rule="nonzero" fill-opacity="1" /><path clip-path="url(#clip610)" d="M1793.02 14.324 L1793.02 27.2059 L1808.38 27.2059 L1808.38 32.9987 L1793.02 32.9987 L1793.02 57.6282 Q1793.02 63.1779 1794.52 64.7578 Q1796.06 66.3376 1800.72 66.3376 L1808.38 66.3376 L1808.38 72.576 L1800.72 72.576 Q1792.09 72.576 1788.81 69.3758 Q1785.53 66.1351 1785.53 57.6282 L1785.53 32.9987 L1780.06 32.9987 L1780.06 27.2059 L1785.53 27.2059 L1785.53 14.324 L1793.02 14.324 Z" fill="#000000" fill-rule="nonzero" fill-opacity="1" /><path clip-path="url(#clip610)" d="M1856.99 48.0275 L1856.99 51.6733 L1822.72 51.6733 Q1823.2 59.3701 1827.34 63.421 Q1831.51 67.4314 1838.92 67.4314 Q1843.22 67.4314 1847.23 66.3781 Q1851.28 65.3249 1855.25 63.2184 L1855.25 70.267 Q1851.24 71.9684 1847.02 72.8596 Q1842.81 73.7508 1838.48 73.7508 Q1827.62 73.7508 1821.26 67.4314 Q1814.94 61.1119 1814.94 50.3365 Q1814.94 39.1965 1820.94 32.6746 Q1826.97 26.1121 1837.18 26.1121 Q1846.33 26.1121 1851.64 32.0264 Q1856.99 37.9003 1856.99 48.0275 M1849.53 45.84 Q1849.45 39.7232 1846.09 36.0774 Q1842.77 32.4315 1837.26 32.4315 Q1831.02 32.4315 1827.25 35.9558 Q1823.53 39.4801 1822.96 45.8805 L1849.53 45.84 Z" fill="#000000" fill-rule="nonzero" fill-opacity="1" /><path clip-path="url(#clip610)" d="M1899.08 49.3643 Q1899.08 41.2625 1895.72 36.8065 Q1892.39 32.3505 1886.36 32.3505 Q1880.36 32.3505 1877 36.8065 Q1873.68 41.2625 1873.68 49.3643 Q1873.68 57.4256 1877 61.8816 Q1880.36 66.3376 1886.36 66.3376 Q1892.39 66.3376 1895.72 61.8816 Q1899.08 57.4256 1899.08 49.3643 M1906.53 66.9452 Q1906.53 78.5308 1901.39 84.1616 Q1896.24 89.8329 1885.63 89.8329 Q1881.7 89.8329 1878.22 89.2252 Q1874.73 88.6581 1871.45 87.4428 L1871.45 80.1917 Q1874.73 81.9741 1877.93 82.8248 Q1881.13 83.6755 1884.45 83.6755 Q1891.79 83.6755 1895.43 79.8271 Q1899.08 76.0193 1899.08 68.282 L1899.08 64.5957 Q1896.77 68.6061 1893.16 70.5911 Q1889.56 72.576 1884.53 72.576 Q1876.19 72.576 1871.09 66.2161 Q1865.98 59.8562 1865.98 49.3643 Q1865.98 38.832 1871.09 32.472 Q1876.19 26.1121 1884.53 26.1121 Q1889.56 26.1121 1893.16 28.0971 Q1896.77 30.082 1899.08 34.0924 L1899.08 27.2059 L1906.53 27.2059 L1906.53 66.9452 Z" fill="#000000" fill-rule="nonzero" fill-opacity="1" /><path clip-path="url(#clip610)" d="M1960.69 48.0275 L1960.69 51.6733 L1926.42 51.6733 Q1926.91 59.3701 1931.04 63.421 Q1935.21 67.4314 1942.62 67.4314 Q1946.92 67.4314 1950.93 66.3781 Q1954.98 65.3249 1958.95 63.2184 L1958.95 70.267 Q1954.94 71.9684 1950.73 72.8596 Q1946.51 73.7508 1942.18 73.7508 Q1931.32 73.7508 1924.96 67.4314 Q1918.64 61.1119 1918.64 50.3365 Q1918.64 39.1965 1924.64 32.6746 Q1930.67 26.1121 1940.88 26.1121 Q1950.04 26.1121 1955.34 32.0264 Q1960.69 37.9003 1960.69 48.0275 M1953.24 45.84 Q1953.16 39.7232 1949.79 36.0774 Q1946.47 32.4315 1940.96 32.4315 Q1934.73 32.4315 1930.96 35.9558 Q1927.23 39.4801 1926.66 45.8805 L1953.24 45.84 Z" fill="#000000" fill-rule="nonzero" fill-opacity="1" /><path clip-path="url(#clip610)" d="M1999.22 34.1734 Q1997.96 33.4443 1996.46 33.1202 Q1995 32.7556 1993.22 32.7556 Q1986.9 32.7556 1983.5 36.8875 Q1980.14 40.9789 1980.14 48.6757 L1980.14 72.576 L1972.64 72.576 L1972.64 27.2059 L1980.14 27.2059 L1980.14 34.2544 Q1982.49 30.1225 1986.25 28.1376 Q1990.02 26.1121 1995.41 26.1121 Q1996.18 26.1121 1997.11 26.2337 Q1998.04 26.3147 1999.18 26.5172 L1999.22 34.1734 Z" fill="#000000" fill-rule="nonzero" fill-opacity="1" /><path clip-path="url(#clip610)" d="M2028.06 27.2059 L2035.96 27.2059 L2050.14 65.2844 L2064.31 27.2059 L2072.21 27.2059 L2055.2 72.576 L2045.07 72.576 L2028.06 27.2059 Z" fill="#000000" fill-rule="nonzero" fill-opacity="1" /><path clip-path="url(#clip610)" d="M2111.43 28.5427 L2111.43 35.5912 Q2108.27 33.9709 2104.86 33.1607 Q2101.46 32.3505 2097.81 32.3505 Q2092.27 32.3505 2089.47 34.0519 Q2086.72 35.7533 2086.72 39.156 Q2086.72 41.7486 2088.7 43.2475 Q2090.69 44.7058 2096.68 46.0426 L2099.23 46.6097 Q2107.17 48.3111 2110.49 51.4303 Q2113.86 54.509 2113.86 60.0587 Q2113.86 66.3781 2108.83 70.0644 Q2103.85 73.7508 2095.1 73.7508 Q2091.45 73.7508 2087.49 73.0216 Q2083.56 72.3329 2079.18 70.9151 L2079.18 63.2184 Q2083.31 65.3654 2087.32 66.4591 Q2091.33 67.5124 2095.26 67.5124 Q2100.53 67.5124 2103.36 65.73 Q2106.2 63.9071 2106.2 60.6258 Q2106.2 57.5877 2104.13 55.9673 Q2102.11 54.3469 2095.18 52.8481 L2092.59 52.2405 Q2085.66 50.7821 2082.58 47.7845 Q2079.5 44.7463 2079.5 39.4801 Q2079.5 33.0797 2084.04 29.5959 Q2088.58 26.1121 2096.92 26.1121 Q2101.06 26.1121 2104.7 26.7198 Q2108.35 27.3274 2111.43 28.5427 Z" fill="#000000" fill-rule="nonzero" fill-opacity="1" /><path clip-path="url(#clip610)" d="M2152.42 12.096 L2187.18 12.096 L2187.18 18.9825 L2160.6 18.9825 L2160.6 36.8065 L2184.59 36.8065 L2184.59 43.6931 L2160.6 43.6931 L2160.6 72.576 L2152.42 72.576 L2152.42 12.096 Z" fill="#000000" fill-rule="nonzero" fill-opacity="1" /><path clip-path="url(#clip610)" d="M2220.07 34.1734 Q2218.82 33.4443 2217.32 33.1202 Q2215.86 32.7556 2214.08 32.7556 Q2207.76 32.7556 2204.35 36.8875 Q2200.99 40.9789 2200.99 48.6757 L2200.99 72.576 L2193.5 72.576 L2193.5 27.2059 L2200.99 27.2059 L2200.99 34.2544 Q2203.34 30.1225 2207.11 28.1376 Q2210.88 26.1121 2216.26 26.1121 Q2217.03 26.1121 2217.96 26.2337 Q2218.9 26.3147 2220.03 26.5172 L2220.07 34.1734 Z" fill="#000000" fill-rule="nonzero" fill-opacity="1" /><path clip-path="url(#clip610)" d="M2248.51 49.7694 Q2239.47 49.7694 2235.99 51.8354 Q2232.51 53.9013 2232.51 58.8839 Q2232.51 62.8538 2235.1 65.2034 Q2237.73 67.5124 2242.23 67.5124 Q2248.43 67.5124 2252.15 63.1374 Q2255.92 58.7219 2255.92 51.4303 L2255.92 49.7694 L2248.51 49.7694 M2263.38 46.6907 L2263.38 72.576 L2255.92 72.576 L2255.92 65.6895 Q2253.37 69.8214 2249.56 71.8063 Q2245.75 73.7508 2240.24 73.7508 Q2233.28 73.7508 2229.15 69.8619 Q2225.05 65.9325 2225.05 59.3701 Q2225.05 51.7138 2230.16 47.825 Q2235.3 43.9361 2245.47 43.9361 L2255.92 43.9361 L2255.92 43.2069 Q2255.92 38.0623 2252.52 35.2672 Q2249.16 32.4315 2243.04 32.4315 Q2239.15 32.4315 2235.46 33.3632 Q2231.78 34.295 2228.38 36.1584 L2228.38 29.2718 Q2232.47 27.692 2236.32 26.9223 Q2240.16 26.1121 2243.81 26.1121 Q2253.65 26.1121 2258.51 31.2163 Q2263.38 36.3204 2263.38 46.6907 Z" fill="#000000" fill-rule="nonzero" fill-opacity="1" /><path clip-path="url(#clip610)" d="M2311.38 28.9478 L2311.38 35.9153 Q2308.22 34.1734 2305.02 33.3227 Q2301.86 32.4315 2298.62 32.4315 Q2291.37 32.4315 2287.36 37.0496 Q2283.35 41.6271 2283.35 49.9314 Q2283.35 58.2358 2287.36 62.8538 Q2291.37 67.4314 2298.62 67.4314 Q2301.86 67.4314 2305.02 66.5807 Q2308.22 65.6895 2311.38 63.9476 L2311.38 70.8341 Q2308.26 72.2924 2304.9 73.0216 Q2301.58 73.7508 2297.81 73.7508 Q2287.56 73.7508 2281.52 67.3098 Q2275.49 60.8689 2275.49 49.9314 Q2275.49 38.832 2281.56 32.472 Q2287.68 26.1121 2298.29 26.1121 Q2301.74 26.1121 2305.02 26.8413 Q2308.3 27.5299 2311.38 28.9478 Z" fill="#000000" fill-rule="nonzero" fill-opacity="1" /><path clip-path="url(#clip610)" d="M2331.71 14.324 L2331.71 27.2059 L2347.07 27.2059 L2347.07 32.9987 L2331.71 32.9987 L2331.71 57.6282 Q2331.71 63.1779 2333.21 64.7578 Q2334.75 66.3376 2339.41 66.3376 L2347.07 66.3376 L2347.07 72.576 L2339.41 72.576 Q2330.78 72.576 2327.5 69.3758 Q2324.22 66.1351 2324.22 57.6282 L2324.22 32.9987 L2318.75 32.9987 L2318.75 27.2059 L2324.22 27.2059 L2324.22 14.324 L2331.71 14.324 Z" fill="#000000" fill-rule="nonzero" fill-opacity="1" /><path clip-path="url(#clip610)" d="M2356.87 27.2059 L2364.32 27.2059 L2364.32 72.576 L2356.87 72.576 L2356.87 27.2059 M2356.87 9.54393 L2364.32 9.54393 L2364.32 18.9825 L2356.87 18.9825 L2356.87 9.54393 Z" fill="#000000" fill-rule="nonzero" fill-opacity="1" /><path clip-path="url(#clip610)" d="M2397.5 32.4315 Q2391.51 32.4315 2388.02 37.1306 Q2384.54 41.7891 2384.54 49.9314 Q2384.54 58.0738 2387.98 62.7728 Q2391.46 67.4314 2397.5 67.4314 Q2403.46 67.4314 2406.94 62.7323 Q2410.42 58.0333 2410.42 49.9314 Q2410.42 41.8701 2406.94 37.1711 Q2403.46 32.4315 2397.5 32.4315 M2397.5 26.1121 Q2407.22 26.1121 2412.77 32.4315 Q2418.32 38.7509 2418.32 49.9314 Q2418.32 61.0714 2412.77 67.4314 Q2407.22 73.7508 2397.5 73.7508 Q2387.74 73.7508 2382.19 67.4314 Q2376.68 61.0714 2376.68 49.9314 Q2376.68 38.7509 2382.19 32.4315 Q2387.74 26.1121 2397.5 26.1121 Z" fill="#000000" fill-rule="nonzero" fill-opacity="1" /><path clip-path="url(#clip610)" d="M2468.39 45.1919 L2468.39 72.576 L2460.94 72.576 L2460.94 45.4349 Q2460.94 38.994 2458.43 35.7938 Q2455.91 32.5936 2450.89 32.5936 Q2444.86 32.5936 2441.37 36.4419 Q2437.89 40.2903 2437.89 46.9338 L2437.89 72.576 L2430.39 72.576 L2430.39 27.2059 L2437.89 27.2059 L2437.89 34.2544 Q2440.56 30.163 2444.17 28.1376 Q2447.81 26.1121 2452.55 26.1121 Q2460.37 26.1121 2464.38 30.9732 Q2468.39 35.7938 2468.39 45.1919 Z" fill="#000000" fill-rule="nonzero" fill-opacity="1" /><path clip-path="url(#clip610)" d="M2503.88 49.7694 Q2494.84 49.7694 2491.36 51.8354 Q2487.88 53.9013 2487.88 58.8839 Q2487.88 62.8538 2490.47 65.2034 Q2493.1 67.5124 2497.6 67.5124 Q2503.8 67.5124 2507.52 63.1374 Q2511.29 58.7219 2511.29 51.4303 L2511.29 49.7694 L2503.88 49.7694 M2518.74 46.6907 L2518.74 72.576 L2511.29 72.576 L2511.29 65.6895 Q2508.74 69.8214 2504.93 71.8063 Q2501.12 73.7508 2495.61 73.7508 Q2488.65 73.7508 2484.51 69.8619 Q2480.42 65.9325 2480.42 59.3701 Q2480.42 51.7138 2485.53 47.825 Q2490.67 43.9361 2500.84 43.9361 L2511.29 43.9361 L2511.29 43.2069 Q2511.29 38.0623 2507.89 35.2672 Q2504.53 32.4315 2498.41 32.4315 Q2494.52 32.4315 2490.83 33.3632 Q2487.15 34.295 2483.74 36.1584 L2483.74 29.2718 Q2487.84 27.692 2491.68 26.9223 Q2495.53 26.1121 2499.18 26.1121 Q2509.02 26.1121 2513.88 31.2163 Q2518.74 36.3204 2518.74 46.6907 Z" fill="#000000" fill-rule="nonzero" fill-opacity="1" /><path clip-path="url(#clip610)" d="M2534.1 9.54393 L2541.55 9.54393 L2541.55 72.576 L2534.1 72.576 L2534.1 9.54393 Z" fill="#000000" fill-rule="nonzero" fill-opacity="1" /><polyline clip-path="url(#clip611)" style="stroke:#4682b4; stroke-linecap:round; stroke-linejoin:round; stroke-width:8; stroke-opacity:1; fill:none" points="285.381,1349.86 594.699,1349.86 904.017,1284.19 1213.33,1205.38 1522.65,1176.31 1831.97,798.926 2141.29,505.619 2450.6,341.617 2759.92,180.494 3069.24,150.503 "/>
<circle clip-path="url(#clip611)" cx="285.381" cy="1349.86" r="14.4" fill="#4682b4" fill-rule="evenodd" fill-opacity="1" stroke="#000000" stroke-opacity="1" stroke-width="3.36"/>
<circle clip-path="url(#clip611)" cx="594.699" cy="1349.86" r="14.4" fill="#4682b4" fill-rule="evenodd" fill-opacity="1" stroke="#000000" stroke-opacity="1" stroke-width="3.36"/>
<circle clip-path="url(#clip611)" cx="904.017" cy="1284.19" r="14.4" fill="#4682b4" fill-rule="evenodd" fill-opacity="1" stroke="#000000" stroke-opacity="1" stroke-width="3.36"/>
<circle clip-path="url(#clip611)" cx="1213.33" cy="1205.38" r="14.4" fill="#4682b4" fill-rule="evenodd" fill-opacity="1" stroke="#000000" stroke-opacity="1" stroke-width="3.36"/>
<circle clip-path="url(#clip611)" cx="1522.65" cy="1176.31" r="14.4" fill="#4682b4" fill-rule="evenodd" fill-opacity="1" stroke="#000000" stroke-opacity="1" stroke-width="3.36"/>
<circle clip-path="url(#clip611)" cx="1831.97" cy="798.926" r="14.4" fill="#4682b4" fill-rule="evenodd" fill-opacity="1" stroke="#000000" stroke-opacity="1" stroke-width="3.36"/>
<circle clip-path="url(#clip611)" cx="2141.29" cy="505.619" r="14.4" fill="#4682b4" fill-rule="evenodd" fill-opacity="1" stroke="#000000" stroke-opacity="1" stroke-width="3.36"/>
<circle clip-path="url(#clip611)" cx="2450.6" cy="341.617" r="14.4" fill="#4682b4" fill-rule="evenodd" fill-opacity="1" stroke="#000000" stroke-opacity="1" stroke-width="3.36"/>
<circle clip-path="url(#clip611)" cx="2759.92" cy="180.494" r="14.4" fill="#4682b4" fill-rule="evenodd" fill-opacity="1" stroke="#000000" stroke-opacity="1" stroke-width="3.36"/>
<circle clip-path="url(#clip611)" cx="3069.24" cy="150.503" r="14.4" fill="#4682b4" fill-rule="evenodd" fill-opacity="1" stroke="#000000" stroke-opacity="1" stroke-width="3.36"/>
<polyline clip-path="url(#clip611)" style="stroke:#ffa500; stroke-linecap:round; stroke-linejoin:round; stroke-width:8; stroke-opacity:1; fill:none" stroke-dasharray="32, 20" points="285.381,1442.15 594.699,1479.94 904.017,1471.16 1213.33,1467.72 1522.65,1473.27 1831.97,1470.88 2141.29,1466.59 2450.6,1469.19 2759.92,1471.79 3069.24,1476.29 "/>
<path clip-path="url(#clip611)" d="M269.381 1426.15 L269.381 1458.15 L301.381 1458.15 L301.381 1426.15 L269.381 1426.15 Z" fill="#ffa500" fill-rule="evenodd" fill-opacity="1" stroke="#000000" stroke-opacity="1" stroke-width="3.36"/>
<path clip-path="url(#clip611)" d="M578.699 1463.94 L578.699 1495.94 L610.699 1495.94 L610.699 1463.94 L578.699 1463.94 Z" fill="#ffa500" fill-rule="evenodd" fill-opacity="1" stroke="#000000" stroke-opacity="1" stroke-width="3.36"/>
<path clip-path="url(#clip611)" d="M888.017 1455.16 L888.017 1487.16 L920.017 1487.16 L920.017 1455.16 L888.017 1455.16 Z" fill="#ffa500" fill-rule="evenodd" fill-opacity="1" stroke="#000000" stroke-opacity="1" stroke-width="3.36"/>
<path clip-path="url(#clip611)" d="M1197.33 1451.72 L1197.33 1483.72 L1229.33 1483.72 L1229.33 1451.72 L1197.33 1451.72 Z" fill="#ffa500" fill-rule="evenodd" fill-opacity="1" stroke="#000000" stroke-opacity="1" stroke-width="3.36"/>
<path clip-path="url(#clip611)" d="M1506.65 1457.27 L1506.65 1489.27 L1538.65 1489.27 L1538.65 1457.27 L1506.65 1457.27 Z" fill="#ffa500" fill-rule="evenodd" fill-opacity="1" stroke="#000000" stroke-opacity="1" stroke-width="3.36"/>
<path clip-path="url(#clip611)" d="M1815.97 1454.88 L1815.97 1486.88 L1847.97 1486.88 L1847.97 1454.88 L1815.97 1454.88 Z" fill="#ffa500" fill-rule="evenodd" fill-opacity="1" stroke="#000000" stroke-opacity="1" stroke-width="3.36"/>
<path clip-path="url(#clip611)" d="M2125.29 1450.59 L2125.29 1482.59 L2157.29 1482.59 L2157.29 1450.59 L2125.29 1450.59 Z" fill="#ffa500" fill-rule="evenodd" fill-opacity="1" stroke="#000000" stroke-opacity="1" stroke-width="3.36"/>
<path clip-path="url(#clip611)" d="M2434.6 1453.19 L2434.6 1485.19 L2466.6 1485.19 L2466.6 1453.19 L2434.6 1453.19 Z" fill="#ffa500" fill-rule="evenodd" fill-opacity="1" stroke="#000000" stroke-opacity="1" stroke-width="3.36"/>
<path clip-path="url(#clip611)" d="M2743.92 1455.79 L2743.92 1487.79 L2775.92 1487.79 L2775.92 1455.79 L2743.92 1455.79 Z" fill="#ffa500" fill-rule="evenodd" fill-opacity="1" stroke="#000000" stroke-opacity="1" stroke-width="3.36"/>
<path clip-path="url(#clip611)" d="M3053.24 1460.29 L3053.24 1492.29 L3085.24 1492.29 L3085.24 1460.29 L3053.24 1460.29 Z" fill="#ffa500" fill-rule="evenodd" fill-opacity="1" stroke="#000000" stroke-opacity="1" stroke-width="3.36"/>
<polyline clip-path="url(#clip611)" style="stroke:#dc143c; stroke-linecap:round; stroke-linejoin:round; stroke-width:8; stroke-opacity:1; fill:none" points="285.381,1442.15 594.699,1479.94 904.017,1124.33 1213.33,1467.72 1522.65,1473.27 1831.97,1470.88 2141.29,1445.73 2450.6,1450.23 2759.92,1221.96 3069.24,1422.06 "/>
<path clip-path="url(#clip611)" d="M285.381 1426.15 L281.621 1436.97 L270.165 1437.21 L279.301 1444.14 L275.973 1455.1 L285.381 1448.55 L294.789 1455.1 L291.461 1444.14 L300.597 1437.21 L289.141 1436.97 L285.381 1426.15 Z" fill="#dc143c" fill-rule="evenodd" fill-opacity="1" stroke="#000000" stroke-opacity="1" stroke-width="3.36"/>
<path clip-path="url(#clip611)" d="M594.699 1463.94 L590.939 1474.75 L579.483 1474.99 L588.619 1481.92 L585.291 1492.88 L594.699 1486.34 L604.107 1492.88 L600.779 1481.92 L609.915 1474.99 L598.459 1474.75 L594.699 1463.94 Z" fill="#dc143c" fill-rule="evenodd" fill-opacity="1" stroke="#000000" stroke-opacity="1" stroke-width="3.36"/>
<path clip-path="url(#clip611)" d="M904.017 1108.33 L900.257 1119.15 L888.801 1119.39 L897.937 1126.32 L894.609 1137.28 L904.017 1130.73 L913.425 1137.28 L910.097 1126.32 L919.233 1119.39 L907.777 1119.15 L904.017 1108.33 Z" fill="#dc143c" fill-rule="evenodd" fill-opacity="1" stroke="#000000" stroke-opacity="1" stroke-width="3.36"/>
<path clip-path="url(#clip611)" d="M1213.33 1451.72 L1209.57 1462.53 L1198.12 1462.77 L1207.25 1469.7 L1203.93 1480.66 L1213.33 1474.12 L1222.74 1480.66 L1219.41 1469.7 L1228.55 1462.77 L1217.09 1462.53 L1213.33 1451.72 Z" fill="#dc143c" fill-rule="evenodd" fill-opacity="1" stroke="#000000" stroke-opacity="1" stroke-width="3.36"/>
<path clip-path="url(#clip611)" d="M1522.65 1457.27 L1518.89 1468.08 L1507.44 1468.32 L1516.57 1475.25 L1513.24 1486.21 L1522.65 1479.67 L1532.06 1486.21 L1528.73 1475.25 L1537.87 1468.32 L1526.41 1468.08 L1522.65 1457.27 Z" fill="#dc143c" fill-rule="evenodd" fill-opacity="1" stroke="#000000" stroke-opacity="1" stroke-width="3.36"/>
<path clip-path="url(#clip611)" d="M1831.97 1454.88 L1828.21 1465.69 L1816.75 1465.93 L1825.89 1472.86 L1822.56 1483.82 L1831.97 1477.28 L1841.38 1483.82 L1838.05 1472.86 L1847.19 1465.93 L1835.73 1465.69 L1831.97 1454.88 Z" fill="#dc143c" fill-rule="evenodd" fill-opacity="1" stroke="#000000" stroke-opacity="1" stroke-width="3.36"/>
<path clip-path="url(#clip611)" d="M2141.29 1429.73 L2137.53 1440.55 L2126.07 1440.79 L2135.21 1447.72 L2131.88 1458.68 L2141.29 1452.13 L2150.7 1458.68 L2147.37 1447.72 L2156.5 1440.79 L2145.05 1440.55 L2141.29 1429.73 Z" fill="#dc143c" fill-rule="evenodd" fill-opacity="1" stroke="#000000" stroke-opacity="1" stroke-width="3.36"/>
<path clip-path="url(#clip611)" d="M2450.6 1434.23 L2446.84 1445.04 L2435.39 1445.28 L2444.52 1452.21 L2441.2 1463.17 L2450.6 1456.63 L2460.01 1463.17 L2456.68 1452.21 L2465.82 1445.28 L2454.36 1445.04 L2450.6 1434.23 Z" fill="#dc143c" fill-rule="evenodd" fill-opacity="1" stroke="#000000" stroke-opacity="1" stroke-width="3.36"/>
<path clip-path="url(#clip611)" d="M2759.92 1205.96 L2756.16 1216.78 L2744.71 1217.02 L2753.84 1223.94 L2750.51 1234.9 L2759.92 1228.36 L2769.33 1234.9 L2766 1223.94 L2775.14 1217.02 L2763.68 1216.78 L2759.92 1205.96 Z" fill="#dc143c" fill-rule="evenodd" fill-opacity="1" stroke="#000000" stroke-opacity="1" stroke-width="3.36"/>
<path clip-path="url(#clip611)" d="M3069.24 1406.06 L3065.48 1416.88 L3054.02 1417.12 L3063.16 1424.05 L3059.83 1435.01 L3069.24 1428.46 L3078.65 1435.01 L3075.32 1424.05 L3084.46 1417.12 L3073 1416.88 L3069.24 1406.06 Z" fill="#dc143c" fill-rule="evenodd" fill-opacity="1" stroke="#000000" stroke-opacity="1" stroke-width="3.36"/>
<path clip-path="url(#clip610)" d="M2465.9 364.954 L3054.39 364.954 L3054.39 157.594 L2465.9 157.594  Z" fill="#ffffff" fill-rule="evenodd" fill-opacity="1"/>
<polyline clip-path="url(#clip610)" style="stroke:#000000; stroke-linecap:round; stroke-linejoin:round; stroke-width:4; stroke-opacity:1; fill:none" points="2465.9,364.954 3054.39,364.954 3054.39,157.594 2465.9,157.594 2465.9,364.954 "/>
<polyline clip-path="url(#clip610)" style="stroke:#4682b4; stroke-linecap:round; stroke-linejoin:round; stroke-width:8; stroke-opacity:1; fill:none" points="2498.69,209.434 2695.42,209.434 "/>
<circle clip-path="url(#clip610)" cx="2597.05" cy="209.434" r="20.48" fill="#4682b4" fill-rule="evenodd" fill-opacity="1" stroke="#000000" stroke-opacity="1" stroke-width="4.77867"/>
<path clip-path="url(#clip610)" d="M2744.59 210.51 Q2746.1 211.019 2747.51 212.686 Q2748.94 214.352 2750.38 217.269 L2755.13 226.714 L2750.1 226.714 L2745.68 217.848 Q2743.97 214.376 2742.35 213.241 Q2740.75 212.107 2737.97 212.107 L2732.88 212.107 L2732.88 226.714 L2728.2 226.714 L2728.2 192.154 L2738.76 192.154 Q2744.69 192.154 2747.6 194.63 Q2750.52 197.107 2750.52 202.107 Q2750.52 205.371 2748.99 207.524 Q2747.49 209.677 2744.59 210.51 M2732.88 195.996 L2732.88 208.265 L2738.76 208.265 Q2742.14 208.265 2743.85 206.714 Q2745.59 205.14 2745.59 202.107 Q2745.59 199.075 2743.85 197.547 Q2742.14 195.996 2738.76 195.996 L2732.88 195.996 Z" fill="#000000" fill-rule="nonzero" fill-opacity="1" /><path clip-path="url(#clip610)" d="M2771.56 195.232 Q2767.95 195.232 2766.12 198.797 Q2764.31 202.339 2764.31 209.468 Q2764.31 216.575 2766.12 220.139 Q2767.95 223.681 2771.56 223.681 Q2775.19 223.681 2777 220.139 Q2778.83 216.575 2778.83 209.468 Q2778.83 202.339 2777 198.797 Q2775.19 195.232 2771.56 195.232 M2771.56 191.529 Q2777.37 191.529 2780.43 196.135 Q2783.5 200.718 2783.5 209.468 Q2783.5 218.195 2780.43 222.802 Q2777.37 227.385 2771.56 227.385 Q2765.75 227.385 2762.67 222.802 Q2759.62 218.195 2759.62 209.468 Q2759.62 200.718 2762.67 196.135 Q2765.75 191.529 2771.56 191.529 Z" fill="#000000" fill-rule="nonzero" fill-opacity="1" /><path clip-path="url(#clip610)" d="M2810.31 222.825 L2810.31 236.575 L2806.03 236.575 L2806.03 200.788 L2810.31 200.788 L2810.31 204.723 Q2811.65 202.408 2813.69 201.297 Q2815.75 200.163 2818.6 200.163 Q2823.32 200.163 2826.26 203.913 Q2829.22 207.663 2829.22 213.774 Q2829.22 219.885 2826.26 223.635 Q2823.32 227.385 2818.6 227.385 Q2815.75 227.385 2813.69 226.274 Q2811.65 225.139 2810.31 222.825 M2824.8 213.774 Q2824.8 209.075 2822.86 206.413 Q2820.94 203.728 2817.56 203.728 Q2814.18 203.728 2812.23 206.413 Q2810.31 209.075 2810.31 213.774 Q2810.31 218.473 2812.23 221.158 Q2814.18 223.82 2817.56 223.82 Q2820.94 223.82 2822.86 221.158 Q2824.8 218.473 2824.8 213.774 Z" fill="#000000" fill-rule="nonzero" fill-opacity="1" /><path clip-path="url(#clip610)" d="M2851.31 204.769 Q2850.59 204.353 2849.73 204.167 Q2848.9 203.959 2847.88 203.959 Q2844.27 203.959 2842.32 206.32 Q2840.4 208.658 2840.4 213.056 L2840.4 226.714 L2836.12 226.714 L2836.12 200.788 L2840.4 200.788 L2840.4 204.815 Q2841.75 202.454 2843.9 201.32 Q2846.05 200.163 2849.13 200.163 Q2849.57 200.163 2850.1 200.232 Q2850.63 200.278 2851.28 200.394 L2851.31 204.769 Z" fill="#000000" fill-rule="nonzero" fill-opacity="1" /><path clip-path="url(#clip610)" d="M2855.77 200.788 L2860.03 200.788 L2860.03 226.714 L2855.77 226.714 L2855.77 200.788 M2855.77 190.695 L2860.03 190.695 L2860.03 196.089 L2855.77 196.089 L2855.77 190.695 Z" fill="#000000" fill-rule="nonzero" fill-opacity="1" /><path clip-path="url(#clip610)" d="M2878.99 203.774 Q2875.56 203.774 2873.57 206.459 Q2871.58 209.121 2871.58 213.774 Q2871.58 218.427 2873.55 221.112 Q2875.54 223.774 2878.99 223.774 Q2882.39 223.774 2884.38 221.089 Q2886.37 218.403 2886.37 213.774 Q2886.37 209.167 2884.38 206.482 Q2882.39 203.774 2878.99 203.774 M2878.99 200.163 Q2884.55 200.163 2887.72 203.774 Q2890.89 207.385 2890.89 213.774 Q2890.89 220.139 2887.72 223.774 Q2884.55 227.385 2878.99 227.385 Q2873.41 227.385 2870.24 223.774 Q2867.09 220.139 2867.09 213.774 Q2867.09 207.385 2870.24 203.774 Q2873.41 200.163 2878.99 200.163 Z" fill="#000000" fill-rule="nonzero" fill-opacity="1" /><path clip-path="url(#clip610)" d="M2912.97 204.769 Q2912.25 204.353 2911.4 204.167 Q2910.56 203.959 2909.55 203.959 Q2905.93 203.959 2903.99 206.32 Q2902.07 208.658 2902.07 213.056 L2902.07 226.714 L2897.79 226.714 L2897.79 200.788 L2902.07 200.788 L2902.07 204.815 Q2903.41 202.454 2905.56 201.32 Q2907.72 200.163 2910.8 200.163 Q2911.24 200.163 2911.77 200.232 Q2912.3 200.278 2912.95 200.394 L2912.97 204.769 Z" fill="#000000" fill-rule="nonzero" fill-opacity="1" /><polyline clip-path="url(#clip610)" style="stroke:#ffa500; stroke-linecap:round; stroke-linejoin:round; stroke-width:8; stroke-opacity:1; fill:none" stroke-dasharray="32, 20" points="2498.69,261.274 2695.42,261.274 "/>
<path clip-path="url(#clip610)" d="M2574.3 238.518 L2574.3 284.029 L2619.81 284.029 L2619.81 238.518 L2574.3 238.518 Z" fill="#ffa500" fill-rule="evenodd" fill-opacity="1" stroke="#000000" stroke-opacity="1" stroke-width="4.77867"/>
<path clip-path="url(#clip610)" d="M2744.59 262.35 Q2746.1 262.859 2747.51 264.526 Q2748.94 266.192 2750.38 269.109 L2755.13 278.554 L2750.1 278.554 L2745.68 269.688 Q2743.97 266.216 2742.35 265.081 Q2740.75 263.947 2737.97 263.947 L2732.88 263.947 L2732.88 278.554 L2728.2 278.554 L2728.2 243.994 L2738.76 243.994 Q2744.69 243.994 2747.6 246.47 Q2750.52 248.947 2750.52 253.947 Q2750.52 257.211 2748.99 259.364 Q2747.49 261.517 2744.59 262.35 M2732.88 247.836 L2732.88 260.105 L2738.76 260.105 Q2742.14 260.105 2743.85 258.554 Q2745.59 256.98 2745.59 253.947 Q2745.59 250.915 2743.85 249.387 Q2742.14 247.836 2738.76 247.836 L2732.88 247.836 Z" fill="#000000" fill-rule="nonzero" fill-opacity="1" /><path clip-path="url(#clip610)" d="M2771.56 247.072 Q2767.95 247.072 2766.12 250.637 Q2764.31 254.179 2764.31 261.308 Q2764.31 268.415 2766.12 271.979 Q2767.95 275.521 2771.56 275.521 Q2775.19 275.521 2777 271.979 Q2778.83 268.415 2778.83 261.308 Q2778.83 254.179 2777 250.637 Q2775.19 247.072 2771.56 247.072 M2771.56 243.369 Q2777.37 243.369 2780.43 247.975 Q2783.5 252.558 2783.5 261.308 Q2783.5 270.035 2780.43 274.642 Q2777.37 279.225 2771.56 279.225 Q2765.75 279.225 2762.67 274.642 Q2759.62 270.035 2759.62 261.308 Q2759.62 252.558 2762.67 247.975 Q2765.75 243.369 2771.56 243.369 Z" fill="#000000" fill-rule="nonzero" fill-opacity="1" /><path clip-path="url(#clip610)" d="M2806.19 252.628 L2810.45 252.628 L2810.45 278.554 L2806.19 278.554 L2806.19 252.628 M2806.19 242.535 L2810.45 242.535 L2810.45 247.929 L2806.19 247.929 L2806.19 242.535 Z" fill="#000000" fill-rule="nonzero" fill-opacity="1" /><path clip-path="url(#clip610)" d="M2840.91 262.905 L2840.91 278.554 L2836.65 278.554 L2836.65 263.044 Q2836.65 259.364 2835.22 257.535 Q2833.78 255.706 2830.91 255.706 Q2827.46 255.706 2825.47 257.905 Q2823.48 260.105 2823.48 263.901 L2823.48 278.554 L2819.2 278.554 L2819.2 252.628 L2823.48 252.628 L2823.48 256.655 Q2825.01 254.318 2827.07 253.16 Q2829.15 252.003 2831.86 252.003 Q2836.33 252.003 2838.62 254.78 Q2840.91 257.535 2840.91 262.905 Z" fill="#000000" fill-rule="nonzero" fill-opacity="1" /><path clip-path="url(#clip610)" d="M2853.62 245.267 L2853.62 252.628 L2862.39 252.628 L2862.39 255.938 L2853.62 255.938 L2853.62 270.012 Q2853.62 273.183 2854.48 274.086 Q2855.36 274.989 2858.02 274.989 L2862.39 274.989 L2862.39 278.554 L2858.02 278.554 Q2853.09 278.554 2851.21 276.725 Q2849.34 274.873 2849.34 270.012 L2849.34 255.938 L2846.21 255.938 L2846.21 252.628 L2849.34 252.628 L2849.34 245.267 L2853.62 245.267 Z" fill="#000000" fill-rule="nonzero" fill-opacity="1" /><path clip-path="url(#clip610)" d="M2890.17 264.526 L2890.17 266.609 L2870.59 266.609 Q2870.87 271.007 2873.23 273.322 Q2875.61 275.614 2879.85 275.614 Q2882.3 275.614 2884.59 275.012 Q2886.91 274.41 2889.18 273.206 L2889.18 277.234 Q2886.88 278.206 2884.48 278.716 Q2882.07 279.225 2879.59 279.225 Q2873.39 279.225 2869.75 275.614 Q2866.14 272.003 2866.14 265.845 Q2866.14 259.48 2869.57 255.753 Q2873.02 252.003 2878.85 252.003 Q2884.08 252.003 2887.12 255.382 Q2890.17 258.739 2890.17 264.526 M2885.91 263.276 Q2885.87 259.78 2883.94 257.697 Q2882.05 255.614 2878.9 255.614 Q2875.33 255.614 2873.18 257.628 Q2871.05 259.642 2870.73 263.299 L2885.91 263.276 Z" fill="#000000" fill-rule="nonzero" fill-opacity="1" /><path clip-path="url(#clip610)" d="M2914.22 265.29 Q2914.22 260.66 2912.3 258.114 Q2910.4 255.568 2906.95 255.568 Q2903.53 255.568 2901.61 258.114 Q2899.71 260.66 2899.71 265.29 Q2899.71 269.896 2901.61 272.442 Q2903.53 274.989 2906.95 274.989 Q2910.4 274.989 2912.3 272.442 Q2914.22 269.896 2914.22 265.29 M2918.48 275.336 Q2918.48 281.956 2915.54 285.174 Q2912.6 288.415 2906.54 288.415 Q2904.29 288.415 2902.3 288.067 Q2900.31 287.743 2898.43 287.049 L2898.43 282.905 Q2900.31 283.924 2902.14 284.41 Q2903.97 284.896 2905.87 284.896 Q2910.05 284.896 2912.14 282.697 Q2914.22 280.521 2914.22 276.1 L2914.22 273.993 Q2912.9 276.285 2910.84 277.419 Q2908.78 278.554 2905.91 278.554 Q2901.14 278.554 2898.23 274.919 Q2895.31 271.285 2895.31 265.29 Q2895.31 259.271 2898.23 255.637 Q2901.14 252.003 2905.91 252.003 Q2908.78 252.003 2910.84 253.137 Q2912.9 254.271 2914.22 256.563 L2914.22 252.628 L2918.48 252.628 L2918.48 275.336 Z" fill="#000000" fill-rule="nonzero" fill-opacity="1" /><path clip-path="url(#clip610)" d="M2949.43 264.526 L2949.43 266.609 L2929.85 266.609 Q2930.12 271.007 2932.49 273.322 Q2934.87 275.614 2939.11 275.614 Q2941.56 275.614 2943.85 275.012 Q2946.17 274.41 2948.43 273.206 L2948.43 277.234 Q2946.14 278.206 2943.74 278.716 Q2941.33 279.225 2938.85 279.225 Q2932.65 279.225 2929.01 275.614 Q2925.4 272.003 2925.4 265.845 Q2925.4 259.48 2928.83 255.753 Q2932.28 252.003 2938.11 252.003 Q2943.34 252.003 2946.37 255.382 Q2949.43 258.739 2949.43 264.526 M2945.17 263.276 Q2945.12 259.78 2943.2 257.697 Q2941.3 255.614 2938.16 255.614 Q2934.59 255.614 2932.44 257.628 Q2930.31 259.642 2929.99 263.299 L2945.17 263.276 Z" fill="#000000" fill-rule="nonzero" fill-opacity="1" /><path clip-path="url(#clip610)" d="M2971.44 256.609 Q2970.73 256.193 2969.87 256.007 Q2969.04 255.799 2968.02 255.799 Q2964.41 255.799 2962.46 258.16 Q2960.54 260.498 2960.54 264.896 L2960.54 278.554 L2956.26 278.554 L2956.26 252.628 L2960.54 252.628 L2960.54 256.655 Q2961.88 254.294 2964.04 253.16 Q2966.19 252.003 2969.27 252.003 Q2969.71 252.003 2970.24 252.072 Q2970.77 252.118 2971.42 252.234 L2971.44 256.609 Z" fill="#000000" fill-rule="nonzero" fill-opacity="1" /><polyline clip-path="url(#clip610)" style="stroke:#dc143c; stroke-linecap:round; stroke-linejoin:round; stroke-width:8; stroke-opacity:1; fill:none" points="2498.69,313.114 2695.42,313.114 "/>
<path clip-path="url(#clip610)" d="M2597.05 290.358 L2591.71 305.741 L2575.41 306.082 L2588.41 315.935 L2583.67 331.523 L2597.05 322.216 L2610.43 331.523 L2605.7 315.935 L2618.69 306.082 L2602.4 305.741 L2597.05 290.358 Z" fill="#dc143c" fill-rule="evenodd" fill-opacity="1" stroke="#000000" stroke-opacity="1" stroke-width="4.77867"/>
<path clip-path="url(#clip610)" d="M2744.59 314.19 Q2746.1 314.699 2747.51 316.366 Q2748.94 318.032 2750.38 320.949 L2755.13 330.394 L2750.1 330.394 L2745.68 321.528 Q2743.97 318.056 2742.35 316.921 Q2740.75 315.787 2737.97 315.787 L2732.88 315.787 L2732.88 330.394 L2728.2 330.394 L2728.2 295.834 L2738.76 295.834 Q2744.69 295.834 2747.6 298.31 Q2750.52 300.787 2750.52 305.787 Q2750.52 309.051 2748.99 311.204 Q2747.49 313.357 2744.59 314.19 M2732.88 299.676 L2732.88 311.945 L2738.76 311.945 Q2742.14 311.945 2743.85 310.394 Q2745.59 308.82 2745.59 305.787 Q2745.59 302.755 2743.85 301.227 Q2742.14 299.676 2738.76 299.676 L2732.88 299.676 Z" fill="#000000" fill-rule="nonzero" fill-opacity="1" /><path clip-path="url(#clip610)" d="M2771.56 298.912 Q2767.95 298.912 2766.12 302.477 Q2764.31 306.019 2764.31 313.148 Q2764.31 320.255 2766.12 323.819 Q2767.95 327.361 2771.56 327.361 Q2775.19 327.361 2777 323.819 Q2778.83 320.255 2778.83 313.148 Q2778.83 306.019 2777 302.477 Q2775.19 298.912 2771.56 298.912 M2771.56 295.209 Q2777.37 295.209 2780.43 299.815 Q2783.5 304.398 2783.5 313.148 Q2783.5 321.875 2780.43 326.482 Q2777.37 331.065 2771.56 331.065 Q2765.75 331.065 2762.67 326.482 Q2759.62 321.875 2759.62 313.148 Q2759.62 304.398 2762.67 299.815 Q2765.75 295.209 2771.56 295.209 Z" fill="#000000" fill-rule="nonzero" fill-opacity="1" /><path clip-path="url(#clip610)" d="M2819.31 294.375 L2819.31 297.917 L2815.24 297.917 Q2812.95 297.917 2812.05 298.843 Q2811.17 299.769 2811.17 302.176 L2811.17 304.468 L2818.18 304.468 L2818.18 307.778 L2811.17 307.778 L2811.17 330.394 L2806.88 330.394 L2806.88 307.778 L2802.81 307.778 L2802.81 304.468 L2806.88 304.468 L2806.88 302.662 Q2806.88 298.334 2808.9 296.366 Q2810.91 294.375 2815.29 294.375 L2819.31 294.375 Z" fill="#000000" fill-rule="nonzero" fill-opacity="1" /><path clip-path="url(#clip610)" d="M2837.9 308.449 Q2837.18 308.033 2836.33 307.847 Q2835.5 307.639 2834.48 307.639 Q2830.87 307.639 2828.92 310 Q2827 312.338 2827 316.736 L2827 330.394 L2822.72 330.394 L2822.72 304.468 L2827 304.468 L2827 308.495 Q2828.34 306.134 2830.5 305 Q2832.65 303.843 2835.73 303.843 Q2836.17 303.843 2836.7 303.912 Q2837.23 303.958 2837.88 304.074 L2837.9 308.449 Z" fill="#000000" fill-rule="nonzero" fill-opacity="1" /><path clip-path="url(#clip610)" d="M2854.15 317.361 Q2848.99 317.361 2847 318.542 Q2845.01 319.722 2845.01 322.569 Q2845.01 324.838 2846.49 326.181 Q2848 327.5 2850.56 327.5 Q2854.11 327.5 2856.24 325 Q2858.39 322.477 2858.39 318.31 L2858.39 317.361 L2854.15 317.361 M2862.65 315.602 L2862.65 330.394 L2858.39 330.394 L2858.39 326.458 Q2856.93 328.819 2854.75 329.954 Q2852.58 331.065 2849.43 331.065 Q2845.45 331.065 2843.09 328.843 Q2840.75 326.597 2840.75 322.847 Q2840.75 318.472 2843.67 316.25 Q2846.61 314.028 2852.42 314.028 L2858.39 314.028 L2858.39 313.611 Q2858.39 310.671 2856.44 309.074 Q2854.52 307.454 2851.03 307.454 Q2848.81 307.454 2846.7 307.986 Q2844.59 308.519 2842.65 309.583 L2842.65 305.648 Q2844.99 304.746 2847.18 304.306 Q2849.38 303.843 2851.47 303.843 Q2857.09 303.843 2859.87 306.759 Q2862.65 309.676 2862.65 315.602 Z" fill="#000000" fill-rule="nonzero" fill-opacity="1" /><path clip-path="url(#clip610)" d="M2890.08 305.463 L2890.08 309.445 Q2888.27 308.449 2886.44 307.963 Q2884.64 307.454 2882.79 307.454 Q2878.64 307.454 2876.35 310.093 Q2874.06 312.708 2874.06 317.454 Q2874.06 322.199 2876.35 324.838 Q2878.64 327.454 2882.79 327.454 Q2884.64 327.454 2886.44 326.968 Q2888.27 326.458 2890.08 325.463 L2890.08 329.398 Q2888.3 330.231 2886.37 330.648 Q2884.48 331.065 2882.32 331.065 Q2876.47 331.065 2873.02 327.384 Q2869.57 323.704 2869.57 317.454 Q2869.57 311.111 2873.04 307.477 Q2876.54 303.843 2882.6 303.843 Q2884.57 303.843 2886.44 304.259 Q2888.32 304.653 2890.08 305.463 Z" fill="#000000" fill-rule="nonzero" fill-opacity="1" /><path clip-path="url(#clip610)" d="M2901.7 297.107 L2901.7 304.468 L2910.47 304.468 L2910.47 307.778 L2901.7 307.778 L2901.7 321.852 Q2901.7 325.023 2902.55 325.926 Q2903.43 326.829 2906.1 326.829 L2910.47 326.829 L2910.47 330.394 L2906.1 330.394 Q2901.17 330.394 2899.29 328.565 Q2897.42 326.713 2897.42 321.852 L2897.42 307.778 L2894.29 307.778 L2894.29 304.468 L2897.42 304.468 L2897.42 297.107 L2901.7 297.107 Z" fill="#000000" fill-rule="nonzero" fill-opacity="1" /><path clip-path="url(#clip610)" d="M2916.07 304.468 L2920.33 304.468 L2920.33 330.394 L2916.07 330.394 L2916.07 304.468 M2916.07 294.375 L2920.33 294.375 L2920.33 299.769 L2916.07 299.769 L2916.07 294.375 Z" fill="#000000" fill-rule="nonzero" fill-opacity="1" /><path clip-path="url(#clip610)" d="M2939.29 307.454 Q2935.86 307.454 2933.87 310.139 Q2931.88 312.801 2931.88 317.454 Q2931.88 322.107 2933.85 324.792 Q2935.84 327.454 2939.29 327.454 Q2942.69 327.454 2944.68 324.769 Q2946.68 322.083 2946.68 317.454 Q2946.68 312.847 2944.68 310.162 Q2942.69 307.454 2939.29 307.454 M2939.29 303.843 Q2944.85 303.843 2948.02 307.454 Q2951.19 311.065 2951.19 317.454 Q2951.19 323.819 2948.02 327.454 Q2944.85 331.065 2939.29 331.065 Q2933.71 331.065 2930.54 327.454 Q2927.39 323.819 2927.39 317.454 Q2927.39 311.065 2930.54 307.454 Q2933.71 303.843 2939.29 303.843 Z" fill="#000000" fill-rule="nonzero" fill-opacity="1" /><path clip-path="url(#clip610)" d="M2979.8 314.745 L2979.8 330.394 L2975.54 330.394 L2975.54 314.884 Q2975.54 311.204 2974.11 309.375 Q2972.67 307.546 2969.8 307.546 Q2966.35 307.546 2964.36 309.745 Q2962.37 311.945 2962.37 315.741 L2962.37 330.394 L2958.09 330.394 L2958.09 304.468 L2962.37 304.468 L2962.37 308.495 Q2963.9 306.158 2965.96 305 Q2968.04 303.843 2970.75 303.843 Q2975.22 303.843 2977.51 306.62 Q2979.8 309.375 2979.8 314.745 Z" fill="#000000" fill-rule="nonzero" fill-opacity="1" /><path clip-path="url(#clip610)" d="M3000.08 317.361 Q2994.92 317.361 2992.92 318.542 Q2990.93 319.722 2990.93 322.569 Q2990.93 324.838 2992.42 326.181 Q2993.92 327.5 2996.49 327.5 Q3000.03 327.5 3002.16 325 Q3004.31 322.477 3004.31 318.31 L3004.31 317.361 L3000.08 317.361 M3008.57 315.602 L3008.57 330.394 L3004.31 330.394 L3004.31 326.458 Q3002.86 328.819 3000.68 329.954 Q2998.5 331.065 2995.36 331.065 Q2991.37 331.065 2989.01 328.843 Q2986.67 326.597 2986.67 322.847 Q2986.67 318.472 2989.59 316.25 Q2992.53 314.028 2998.34 314.028 L3004.31 314.028 L3004.31 313.611 Q3004.31 310.671 3002.37 309.074 Q3000.45 307.454 2996.95 307.454 Q2994.73 307.454 2992.62 307.986 Q2990.52 308.519 2988.57 309.583 L2988.57 305.648 Q2990.91 304.746 2993.11 304.306 Q2995.31 303.843 2997.39 303.843 Q3003.02 303.843 3005.8 306.759 Q3008.57 309.676 3008.57 315.602 Z" fill="#000000" fill-rule="nonzero" fill-opacity="1" /><path clip-path="url(#clip610)" d="M3017.35 294.375 L3021.61 294.375 L3021.61 330.394 L3017.35 330.394 L3017.35 294.375 Z" fill="#000000" fill-rule="nonzero" fill-opacity="1" /></svg>
