<?xml version="1.0" encoding="utf-8"?>
<svg xmlns="http://www.w3.org/2000/svg" xmlns:xlink="http://www.w3.org/1999/xlink" width="900" height="420" viewBox="0 0 3600 1680">
<defs>
  <clipPath id="clip890">
    <rect x="0" y="0" width="3600" height="1680"/>
  </clipPath>
</defs>
<path clip-path="url(#clip890)" d="M0 1680 L3600 1680 L3600 0 L0 0  Z" fill="#ffffff" fill-rule="evenodd" fill-opacity="1"/>
<defs>
  <clipPath id="clip891">
    <rect x="217" y="105" width="3336" height="1423"/>
  </clipPath>
</defs>
<path clip-path="url(#clip890)" d="M217.286 1527 L3552.76 1527 L3552.76 105.328 L217.286 105.328  Z" fill="#ffffff" fill-rule="evenodd" fill-opacity="1"/>
<polyline clip-path="url(#clip891)" style="stroke:#000000; stroke-linecap:round; stroke-linejoin:round; stroke-width:2; stroke-opacity:0.1; fill:none" points="258.353,1527 258.353,105.328 "/>
<polyline clip-path="url(#clip891)" style="stroke:#000000; stroke-linecap:round; stroke-linejoin:round; stroke-width:2; stroke-opacity:0.1; fill:none" points="791.687,1527 791.687,105.328 "/>
<polyline clip-path="url(#clip891)" style="stroke:#000000; stroke-linecap:round; stroke-linejoin:round; stroke-width:2; stroke-opacity:0.1; fill:none" points="1325.02,1527 1325.02,105.328 "/>
<polyline clip-path="url(#clip891)" style="stroke:#000000; stroke-linecap:round; stroke-linejoin:round; stroke-width:2; stroke-opacity:0.1; fill:none" points="1858.35,1527 1858.35,105.328 "/>
<polyline clip-path="url(#clip891)" style="stroke:#000000; stroke-linecap:round; stroke-linejoin:round; stroke-width:2; stroke-opacity:0.1; fill:none" points="2391.69,1527 2391.69,105.328 "/>
<polyline clip-path="url(#clip891)" style="stroke:#000000; stroke-linecap:round; stroke-linejoin:round; stroke-width:2; stroke-opacity:0.1; fill:none" points="2925.02,1527 2925.02,105.328 "/>
<polyline clip-path="url(#clip891)" style="stroke:#000000; stroke-linecap:round; stroke-linejoin:round; stroke-width:2; stroke-opacity:0.1; fill:none" points="3458.36,1527 3458.36,105.328 "/>
<polyline clip-path="url(#clip891)" style="stroke:#000000; stroke-linecap:round; stroke-linejoin:round; stroke-width:2; stroke-opacity:0.1; fill:none" points="217.286,1337.75 3552.76,1337.75 "/>
<polyline clip-path="url(#clip891)" style="stroke:#000000; stroke-linecap:round; stroke-linejoin:round; stroke-width:2; stroke-opacity:0.1; fill:none" points="217.286,1039.7 3552.76,1039.7 "/>
<polyline clip-path="url(#clip891)" style="stroke:#000000; stroke-linecap:round; stroke-linejoin:round; stroke-width:2; stroke-opacity:0.1; fill:none" points="217.286,741.655 3552.76,741.655 "/>
<polyline clip-path="url(#clip891)" style="stroke:#000000; stroke-linecap:round; stroke-linejoin:round; stroke-width:2; stroke-opacity:0.1; fill:none" points="217.286,443.609 3552.76,443.609 "/>
<polyline clip-path="url(#clip891)" style="stroke:#000000; stroke-linecap:round; stroke-linejoin:round; stroke-width:2; stroke-opacity:0.1; fill:none" points="217.286,145.564 3552.76,145.564 "/>
<polyline clip-path="url(#clip890)" style="stroke:#000000; stroke-linecap:round; stroke-linejoin:round; stroke-width:4; stroke-opacity:1; fill:none" points="217.286,1527 3552.76,1527 "/>
<polyline clip-path="url(#clip890)" style="stroke:#000000; stroke-linecap:round; stroke-linejoin:round; stroke-width:4; stroke-opacity:1; fill:none" points="258.353,1527 258.353,1508.11 "/>
<polyline clip-path="url(#clip890)" style="stroke:#000000; stroke-linecap:round; stroke-linejoin:round; stroke-width:4; stroke-opacity:1; fill:none" points="791.687,1527 791.687,1508.11 "/>
<polyline clip-path="url(#clip890)" style="stroke:#000000; stroke-linecap:round; stroke-linejoin:round; stroke-width:4; stroke-opacity:1; fill:none" points="1325.02,1527 1325.02,1508.11 "/>
<polyline clip-path="url(#clip890)" style="stroke:#000000; stroke-linecap:round; stroke-linejoin:round; stroke-width:4; stroke-opacity:1; fill:none" points="1858.35,1527 1858.35,1508.11 "/>
<polyline clip-path="url(#clip890)" style="stroke:#000000; stroke-linecap:round; stroke-linejoin:round; stroke-width:4; stroke-opacity:1; fill:none" points="2391.69,1527 2391.69,1508.11 "/>
<polyline clip-path="url(#clip890)" style="stroke:#000000; stroke-linecap:round; stroke-linejoin:round; stroke-width:4; stroke-opacity:1; fill:none" points="2925.02,1527 2925.02,1508.11 "/>
<polyline clip-path="url(#clip890)" style="stroke:#000000; stroke-linecap:round; stroke-linejoin:round; stroke-width:4; stroke-opacity:1; fill:none" points="3458.36,1527 3458.36,1508.11 "/>
<path clip-path="url(#clip890)" d="M258.353 1567.52 Q254.742 1567.52 252.913 1571.09 Q251.108 1574.63 251.108 1581.76 Q251.108 1588.87 252.913 1592.43 Q254.742 1595.97 258.353 1595.97 Q261.987 1595.97 263.793 1592.43 Q265.621 1588.87 265.621 1581.76 Q265.621 1574.63 263.793 1571.09 Q261.987 1567.52 258.353 1567.52 M258.353 1563.82 Q264.163 1563.82 267.219 1568.43 Q270.297 1573.01 270.297 1581.76 Q270.297 1590.49 267.219 1595.09 Q264.163 1599.68 258.353 1599.68 Q252.543 1599.68 249.464 1595.09 Q246.409 1590.49 246.409 1581.76 Q246.409 1573.01 249.464 1568.43 Q252.543 1563.82 258.353 1563.82 Z" fill="#000000" fill-rule="nonzero" fill-opacity="1" /><path clip-path="url(#clip890)" d="M766.374 1595.07 L774.013 1595.07 L774.013 1568.7 L765.703 1570.37 L765.703 1566.11 L773.967 1564.44 L778.643 1564.44 L778.643 1595.07 L786.282 1595.07 L786.282 1599 L766.374 1599 L766.374 1595.07 Z" fill="#000000" fill-rule="nonzero" fill-opacity="1" /><path clip-path="url(#clip890)" d="M805.726 1567.52 Q802.115 1567.52 800.286 1571.09 Q798.481 1574.63 798.481 1581.76 Q798.481 1588.87 800.286 1592.43 Q802.115 1595.97 805.726 1595.97 Q809.36 1595.97 811.166 1592.43 Q812.994 1588.87 812.994 1581.76 Q812.994 1574.63 811.166 1571.09 Q809.36 1567.52 805.726 1567.52 M805.726 1563.82 Q811.536 1563.82 814.592 1568.43 Q817.67 1573.01 817.67 1581.76 Q817.67 1590.49 814.592 1595.09 Q811.536 1599.68 805.726 1599.68 Q799.916 1599.68 796.837 1595.09 Q793.782 1590.49 793.782 1581.76 Q793.782 1573.01 796.837 1568.43 Q799.916 1563.82 805.726 1563.82 Z" fill="#000000" fill-rule="nonzero" fill-opacity="1" /><path clip-path="url(#clip890)" d="M1303.79 1595.07 L1320.11 1595.07 L1320.11 1599 L1298.17 1599 L1298.17 1595.07 Q1300.83 1592.31 1305.41 1587.68 Q1310.02 1583.03 1311.2 1581.69 Q1313.45 1579.17 1314.33 1577.43 Q1315.23 1575.67 1315.23 1573.98 Q1315.23 1571.23 1313.28 1569.49 Q1311.36 1567.75 1308.26 1567.75 Q1306.06 1567.75 1303.61 1568.52 Q1301.18 1569.28 1298.4 1570.83 L1298.4 1566.11 Q1301.22 1564.98 1303.68 1564.4 Q1306.13 1563.82 1308.17 1563.82 Q1313.54 1563.82 1316.73 1566.5 Q1319.93 1569.19 1319.93 1573.68 Q1319.93 1575.81 1319.12 1577.73 Q1318.33 1579.63 1316.22 1582.22 Q1315.65 1582.89 1312.54 1586.11 Q1309.44 1589.3 1303.79 1595.07 Z" fill="#000000" fill-rule="nonzero" fill-opacity="1" /><path clip-path="url(#clip890)" d="M1339.93 1567.52 Q1336.32 1567.52 1334.49 1571.09 Q1332.68 1574.63 1332.68 1581.76 Q1332.68 1588.87 1334.49 1592.43 Q1336.32 1595.97 1339.93 1595.97 Q1343.56 1595.97 1345.37 1592.43 Q1347.2 1588.87 1347.2 1581.76 Q1347.2 1574.63 1345.37 1571.09 Q1343.56 1567.52 1339.93 1567.52 M1339.93 1563.82 Q1345.74 1563.82 1348.79 1568.43 Q1351.87 1573.01 1351.87 1581.76 Q1351.87 1590.49 1348.79 1595.09 Q1345.74 1599.68 1339.93 1599.68 Q1334.12 1599.68 1331.04 1595.09 Q1327.98 1590.49 1327.98 1581.76 Q1327.98 1573.01 1331.04 1568.43 Q1334.12 1563.82 1339.93 1563.82 Z" fill="#000000" fill-rule="nonzero" fill-opacity="1" /><path clip-path="url(#clip890)" d="M1847.2 1580.37 Q1850.55 1581.09 1852.43 1583.36 Q1854.33 1585.62 1854.33 1588.96 Q1854.33 1594.07 1850.81 1596.87 Q1847.29 1599.68 1840.81 1599.68 Q1838.63 1599.68 1836.32 1599.24 Q1834.03 1598.82 1831.57 1597.96 L1831.57 1593.45 Q1833.52 1594.58 1835.83 1595.16 Q1838.15 1595.74 1840.67 1595.74 Q1845.07 1595.74 1847.36 1594 Q1849.67 1592.27 1849.67 1588.96 Q1849.67 1585.9 1847.52 1584.19 Q1845.39 1582.45 1841.57 1582.45 L1837.54 1582.45 L1837.54 1578.61 L1841.76 1578.61 Q1845.21 1578.61 1847.03 1577.24 Q1848.86 1575.86 1848.86 1573.26 Q1848.86 1570.6 1846.97 1569.19 Q1845.09 1567.75 1841.57 1567.75 Q1839.65 1567.75 1837.45 1568.17 Q1835.25 1568.59 1832.61 1569.47 L1832.61 1565.3 Q1835.28 1564.56 1837.59 1564.19 Q1839.93 1563.82 1841.99 1563.82 Q1847.31 1563.82 1850.41 1566.25 Q1853.52 1568.66 1853.52 1572.78 Q1853.52 1575.65 1851.87 1577.64 Q1850.23 1579.61 1847.2 1580.37 Z" fill="#000000" fill-rule="nonzero" fill-opacity="1" /><path clip-path="url(#clip890)" d="M1873.19 1567.52 Q1869.58 1567.52 1867.75 1571.09 Q1865.95 1574.63 1865.95 1581.76 Q1865.95 1588.87 1867.75 1592.43 Q1869.58 1595.97 1873.19 1595.97 Q1876.83 1595.97 1878.63 1592.43 Q1880.46 1588.87 1880.46 1581.76 Q1880.46 1574.63 1878.63 1571.09 Q1876.83 1567.52 1873.19 1567.52 M1873.19 1563.82 Q1879 1563.82 1882.06 1568.43 Q1885.14 1573.01 1885.14 1581.76 Q1885.14 1590.49 1882.06 1595.09 Q1879 1599.68 1873.19 1599.68 Q1867.38 1599.68 1864.3 1595.09 Q1861.25 1590.49 1861.25 1581.76 Q1861.25 1573.01 1864.3 1568.43 Q1867.38 1563.82 1873.19 1563.82 Z" fill="#000000" fill-rule="nonzero" fill-opacity="1" /><path clip-path="url(#clip890)" d="M2379.86 1568.52 L2368.05 1586.97 L2379.86 1586.97 L2379.86 1568.52 M2378.63 1564.44 L2384.51 1564.44 L2384.51 1586.97 L2389.44 1586.97 L2389.44 1590.86 L2384.51 1590.86 L2384.51 1599 L2379.86 1599 L2379.86 1590.86 L2364.26 1590.86 L2364.26 1586.34 L2378.63 1564.44 Z" fill="#000000" fill-rule="nonzero" fill-opacity="1" /><path clip-path="url(#clip890)" d="M2407.17 1567.52 Q2403.56 1567.52 2401.73 1571.09 Q2399.93 1574.63 2399.93 1581.76 Q2399.93 1588.87 2401.73 1592.43 Q2403.56 1595.97 2407.17 1595.97 Q2410.81 1595.97 2412.61 1592.43 Q2414.44 1588.87 2414.44 1581.76 Q2414.44 1574.63 2412.61 1571.09 Q2410.81 1567.52 2407.17 1567.52 M2407.17 1563.82 Q2412.98 1563.82 2416.04 1568.43 Q2419.12 1573.01 2419.12 1581.76 Q2419.12 1590.49 2416.04 1595.09 Q2412.98 1599.68 2407.17 1599.68 Q2401.36 1599.68 2398.29 1595.09 Q2395.23 1590.49 2395.23 1581.76 Q2395.23 1573.01 2398.29 1568.43 Q2401.36 1563.82 2407.17 1563.82 Z" fill="#000000" fill-rule="nonzero" fill-opacity="1" /><path clip-path="url(#clip890)" d="M2899.72 1564.44 L2918.08 1564.44 L2918.08 1568.38 L2904 1568.38 L2904 1576.85 Q2905.02 1576.5 2906.04 1576.34 Q2907.06 1576.16 2908.08 1576.16 Q2913.86 1576.16 2917.24 1579.33 Q2920.62 1582.5 2920.62 1587.92 Q2920.62 1593.49 2917.15 1596.6 Q2913.68 1599.68 2907.36 1599.68 Q2905.18 1599.68 2902.92 1599.3 Q2900.67 1598.93 2898.26 1598.19 L2898.26 1593.49 Q2900.35 1594.63 2902.57 1595.18 Q2904.79 1595.74 2907.27 1595.74 Q2911.27 1595.74 2913.61 1593.63 Q2915.95 1591.53 2915.95 1587.92 Q2915.95 1584.3 2913.61 1582.2 Q2911.27 1580.09 2907.27 1580.09 Q2905.39 1580.09 2903.52 1580.51 Q2901.67 1580.93 2899.72 1581.8 L2899.72 1564.44 Z" fill="#000000" fill-rule="nonzero" fill-opacity="1" /><path clip-path="url(#clip890)" d="M2939.84 1567.52 Q2936.23 1567.52 2934.4 1571.09 Q2932.59 1574.63 2932.59 1581.76 Q2932.59 1588.87 2934.4 1592.43 Q2936.23 1595.97 2939.84 1595.97 Q2943.47 1595.97 2945.28 1592.43 Q2947.11 1588.87 2947.11 1581.76 Q2947.11 1574.63 2945.28 1571.09 Q2943.47 1567.52 2939.84 1567.52 M2939.84 1563.82 Q2945.65 1563.82 2948.7 1568.43 Q2951.78 1573.01 2951.78 1581.76 Q2951.78 1590.49 2948.7 1595.09 Q2945.65 1599.68 2939.84 1599.68 Q2934.03 1599.68 2930.95 1595.09 Q2927.89 1590.49 2927.89 1581.76 Q2927.89 1573.01 2930.95 1568.43 Q2934.03 1563.82 2939.84 1563.82 Z" fill="#000000" fill-rule="nonzero" fill-opacity="1" /><path clip-path="url(#clip890)" d="M3443.76 1579.86 Q3440.61 1579.86 3438.76 1582.01 Q3436.93 1584.17 3436.93 1587.92 Q3436.93 1591.64 3438.76 1593.82 Q3440.61 1595.97 3443.76 1595.97 Q3446.91 1595.97 3448.74 1593.82 Q3450.59 1591.64 3450.59 1587.92 Q3450.59 1584.17 3448.74 1582.01 Q3446.91 1579.86 3443.76 1579.86 M3453.04 1565.21 L3453.04 1569.47 Q3451.28 1568.63 3449.48 1568.19 Q3447.7 1567.75 3445.94 1567.75 Q3441.31 1567.75 3438.85 1570.88 Q3436.42 1574 3436.08 1580.32 Q3437.44 1578.31 3439.5 1577.24 Q3441.56 1576.16 3444.04 1576.16 Q3449.25 1576.16 3452.26 1579.33 Q3455.29 1582.48 3455.29 1587.92 Q3455.29 1593.24 3452.14 1596.46 Q3448.99 1599.68 3443.76 1599.68 Q3437.77 1599.68 3434.59 1595.09 Q3431.42 1590.49 3431.42 1581.76 Q3431.42 1573.56 3435.31 1568.7 Q3439.2 1563.82 3445.75 1563.82 Q3447.51 1563.82 3449.29 1564.17 Q3451.1 1564.51 3453.04 1565.21 Z" fill="#000000" fill-rule="nonzero" fill-opacity="1" /><path clip-path="url(#clip890)" d="M3473.34 1567.52 Q3469.73 1567.52 3467.9 1571.09 Q3466.1 1574.63 3466.1 1581.76 Q3466.1 1588.87 3467.9 1592.43 Q3469.73 1595.97 3473.34 1595.97 Q3476.98 1595.97 3478.78 1592.43 Q3480.61 1588.87 3480.61 1581.76 Q3480.61 1574.63 3478.78 1571.09 Q3476.98 1567.52 3473.34 1567.52 M3473.34 1563.82 Q3479.15 1563.82 3482.21 1568.43 Q3485.29 1573.01 3485.29 1581.76 Q3485.29 1590.49 3482.21 1595.09 Q3479.15 1599.68 3473.34 1599.68 Q3467.53 1599.68 3464.46 1595.09 Q3461.4 1590.49 3461.4 1581.76 Q3461.4 1573.01 3464.46 1568.43 Q3467.53 1563.82 3473.34 1563.82 Z" fill="#000000" fill-rule="nonzero" fill-opacity="1" /><path clip-path="url(#clip890)" d="M1582.38 1689.87 L1582.38 1642.35 L1611.95 1642.35 L1611.95 1647.76 L1588.81 1647.76 L1588.81 1689.87 L1582.38 1689.87 Z" fill="#000000" fill-rule="nonzero" fill-opacity="1" /><path clip-path="url(#clip890)" d="M1635.69 1658.33 Q1630.98 1658.33 1628.24 1662.02 Q1625.51 1665.68 1625.51 1672.08 Q1625.51 1678.47 1628.21 1682.17 Q1630.95 1685.83 1635.69 1685.83 Q1640.37 1685.83 1643.11 1682.13 Q1645.85 1678.44 1645.85 1672.08 Q1645.85 1665.74 1643.11 1662.05 Q1640.37 1658.33 1635.69 1658.33 M1635.69 1653.36 Q1643.33 1653.36 1647.69 1658.33 Q1652.05 1663.29 1652.05 1672.08 Q1652.05 1680.83 1647.69 1685.83 Q1643.33 1690.79 1635.69 1690.79 Q1628.02 1690.79 1623.66 1685.83 Q1619.33 1680.83 1619.33 1672.08 Q1619.33 1663.29 1623.66 1658.33 Q1628.02 1653.36 1635.69 1653.36 Z" fill="#000000" fill-rule="nonzero" fill-opacity="1" /><path clip-path="url(#clip890)" d="M1667.43 1684.52 L1667.43 1703.43 L1661.54 1703.43 L1661.54 1654.22 L1667.43 1654.22 L1667.43 1659.63 Q1669.27 1656.45 1672.07 1654.92 Q1674.9 1653.36 1678.82 1653.36 Q1685.31 1653.36 1689.36 1658.52 Q1693.43 1663.67 1693.43 1672.08 Q1693.43 1680.48 1689.36 1685.63 Q1685.31 1690.79 1678.82 1690.79 Q1674.9 1690.79 1672.07 1689.26 Q1669.27 1687.7 1667.43 1684.52 M1687.35 1672.08 Q1687.35 1665.61 1684.68 1661.95 Q1682.03 1658.26 1677.39 1658.26 Q1672.74 1658.26 1670.07 1661.95 Q1667.43 1665.61 1667.43 1672.08 Q1667.43 1678.54 1670.07 1682.23 Q1672.74 1685.89 1677.39 1685.89 Q1682.03 1685.89 1684.68 1682.23 Q1687.35 1678.54 1687.35 1672.08 Z" fill="#000000" fill-rule="nonzero" fill-opacity="1" /><path clip-path="url(#clip890)" d="M1733.44 1654.22 L1733.44 1689.87 L1727.61 1689.87 L1727.61 1661.25 L1710.43 1689.87 L1702.91 1689.87 L1702.91 1654.22 L1708.74 1654.22 L1708.74 1682.77 L1725.89 1654.22 L1733.44 1654.22 Z" fill="#000000" fill-rule="nonzero" fill-opacity="1" /><path clip-path="url(#clip890)" d="M1761.83 1670.64 Q1765.78 1671.41 1767.97 1673.73 Q1770.17 1676.05 1770.17 1679.49 Q1770.17 1685 1766.06 1687.89 Q1761.96 1690.79 1754.38 1690.79 Q1751.83 1690.79 1749.13 1690.35 Q1746.46 1689.9 1743.59 1689.01 L1743.59 1683.57 Q1745.85 1684.74 1748.56 1685.35 Q1751.26 1685.92 1754.22 1685.92 Q1759.03 1685.92 1761.7 1684.14 Q1764.41 1682.36 1764.41 1679.49 Q1764.41 1676.69 1762.02 1675 Q1759.63 1673.29 1755.27 1673.29 L1750.56 1673.29 L1750.56 1668.45 L1755.49 1668.45 Q1759.19 1668.45 1761.32 1667.05 Q1763.48 1665.61 1763.48 1663.39 Q1763.48 1661.35 1761.26 1659.89 Q1759.06 1658.42 1755.27 1658.42 Q1753.01 1658.42 1750.43 1658.84 Q1747.89 1659.25 1744.8 1660.17 L1744.8 1654.86 Q1747.92 1654.09 1750.63 1653.71 Q1753.33 1653.33 1755.75 1653.33 Q1761.99 1653.33 1765.58 1655.84 Q1769.21 1658.33 1769.21 1662.81 Q1769.21 1665.77 1767.3 1667.84 Q1765.39 1669.88 1761.83 1670.64 Z" fill="#000000" fill-rule="nonzero" fill-opacity="1" /><path clip-path="url(#clip890)" d="M1793.98 1658.33 Q1789.26 1658.33 1786.53 1662.02 Q1783.79 1665.68 1783.79 1672.08 Q1783.79 1678.47 1786.5 1682.17 Q1789.23 1685.83 1793.98 1685.83 Q1798.65 1685.83 1801.39 1682.13 Q1804.13 1678.44 1804.13 1672.08 Q1804.13 1665.74 1801.39 1662.05 Q1798.65 1658.33 1793.98 1658.33 M1793.98 1653.36 Q1801.61 1653.36 1805.97 1658.33 Q1810.34 1663.29 1810.34 1672.08 Q1810.34 1680.83 1805.97 1685.83 Q1801.61 1690.79 1793.98 1690.79 Q1786.3 1690.79 1781.94 1685.83 Q1777.62 1680.83 1777.62 1672.08 Q1777.62 1663.29 1781.94 1658.33 Q1786.3 1653.36 1793.98 1653.36 Z" fill="#000000" fill-rule="nonzero" fill-opacity="1" /><path clip-path="url(#clip890)" d="M1819.82 1654.22 L1825.71 1654.22 L1825.71 1668.77 L1844.71 1668.77 L1844.71 1654.22 L1850.6 1654.22 L1850.6 1689.87 L1844.71 1689.87 L1844.71 1673.44 L1825.71 1673.44 L1825.71 1689.87 L1819.82 1689.87 L1819.82 1654.22 Z" fill="#000000" fill-rule="nonzero" fill-opacity="1" /><path clip-path="url(#clip890)" d="M1858.43 1654.22 L1892.58 1654.22 L1892.58 1658.9 L1878.38 1658.9 L1878.38 1689.87 L1872.62 1689.87 L1872.62 1658.9 L1858.43 1658.9 L1858.43 1654.22 Z" fill="#000000" fill-rule="nonzero" fill-opacity="1" /><path clip-path="url(#clip890)" d="M1921.61 1642.35 L1928.04 1642.35 L1928.04 1684.46 L1951.18 1684.46 L1951.18 1689.87 L1921.61 1689.87 L1921.61 1642.35 Z" fill="#000000" fill-rule="nonzero" fill-opacity="1" /><path clip-path="url(#clip890)" d="M1992.46 1640.41 Q1988.19 1647.73 1986.12 1654.89 Q1984.06 1662.05 1984.06 1669.4 Q1984.06 1676.75 1986.12 1683.98 Q1988.23 1691.17 1992.46 1698.46 L1987.37 1698.46 Q1982.59 1690.98 1980.2 1683.76 Q1977.85 1676.53 1977.85 1669.4 Q1977.85 1662.3 1980.2 1655.11 Q1982.56 1647.92 1987.37 1640.41 L1992.46 1640.41 Z" fill="#000000" fill-rule="nonzero" fill-opacity="1" /><path clip-path="url(#clip890)" d="M2011.78 1685.19 L2028.77 1685.19 L2028.77 1658.9 L2016.46 1658.9 L2016.46 1663.35 Q2016.46 1676.47 2012.7 1683.47 L2011.78 1685.19 M2003.28 1685.19 Q2006.18 1683.92 2007.45 1681.21 Q2010.57 1674.49 2010.57 1660.97 L2010.57 1654.22 L2034.66 1654.22 L2034.66 1685.19 L2039.34 1685.19 L2039.34 1698.88 L2034.66 1698.88 L2034.66 1689.87 L2005.76 1689.87 L2005.76 1698.88 L2001.08 1698.88 L2001.08 1685.19 L2003.28 1685.19 Z" fill="#000000" fill-rule="nonzero" fill-opacity="1" /><path clip-path="url(#clip890)" d="M2048.67 1654.22 L2054.56 1654.22 L2054.56 1668.77 L2073.56 1668.77 L2073.56 1654.22 L2079.45 1654.22 L2079.45 1689.87 L2073.56 1689.87 L2073.56 1673.44 L2054.56 1673.44 L2054.56 1689.87 L2048.67 1689.87 L2048.67 1654.22 Z" fill="#000000" fill-rule="nonzero" fill-opacity="1" /><path clip-path="url(#clip890)" d="M2122 1670.58 L2122 1673.44 L2095.07 1673.44 Q2095.46 1679.49 2098.7 1682.67 Q2101.98 1685.83 2107.8 1685.83 Q2111.18 1685.83 2114.33 1685 Q2117.51 1684.17 2120.63 1682.52 L2120.63 1688.05 Q2117.48 1689.39 2114.17 1690.09 Q2110.86 1690.79 2107.45 1690.79 Q2098.92 1690.79 2093.93 1685.83 Q2088.96 1680.86 2088.96 1672.39 Q2088.96 1663.64 2093.67 1658.52 Q2098.42 1653.36 2106.44 1653.36 Q2113.63 1653.36 2117.8 1658.01 Q2122 1662.62 2122 1670.58 M2116.14 1668.86 Q2116.08 1664.05 2113.44 1661.19 Q2110.83 1658.33 2106.5 1658.33 Q2101.6 1658.33 2098.64 1661.09 Q2095.71 1663.86 2095.26 1668.89 L2116.14 1668.86 Z" fill="#000000" fill-rule="nonzero" fill-opacity="1" /><path clip-path="url(#clip890)" d="M2161.91 1654.22 L2161.91 1689.87 L2156.09 1689.87 L2156.09 1661.25 L2138.9 1689.87 L2131.39 1689.87 L2131.39 1654.22 L2137.21 1654.22 L2137.21 1682.77 L2154.37 1654.22 L2161.91 1654.22 M2136.71 1640.34 L2140.46 1640.34 Q2140.81 1642.73 2142.34 1643.94 Q2143.9 1645.12 2146.67 1645.12 Q2149.4 1645.12 2150.93 1643.94 Q2152.46 1642.76 2152.87 1640.34 L2156.63 1640.34 Q2156.31 1644.89 2153.8 1647.19 Q2151.28 1649.48 2146.67 1649.48 Q2142.05 1649.48 2139.54 1647.19 Q2137.02 1644.89 2136.71 1640.34 Z" fill="#000000" fill-rule="nonzero" fill-opacity="1" /><path clip-path="url(#clip890)" d="M2173.05 1640.41 L2178.15 1640.41 Q2182.92 1647.92 2185.28 1655.11 Q2187.66 1662.3 2187.66 1669.4 Q2187.66 1676.53 2185.28 1683.76 Q2182.92 1690.98 2178.15 1698.46 L2173.05 1698.46 Q2177.29 1691.17 2179.36 1683.98 Q2181.46 1676.75 2181.46 1669.4 Q2181.46 1662.05 2179.36 1654.89 Q2177.29 1647.73 2173.05 1640.41 Z" fill="#000000" fill-rule="nonzero" fill-opacity="1" /><polyline clip-path="url(#clip890)" style="stroke:#000000; stroke-linecap:round; stroke-linejoin:round; stroke-width:4; stroke-opacity:1; fill:none" points="217.286,1527 217.286,105.328 "/>
<polyline clip-path="url(#clip890)" style="stroke:#000000; stroke-linecap:round; stroke-linejoin:round; stroke-width:4; stroke-opacity:1; fill:none" points="217.286,1337.75 236.184,1337.75 "/>
<polyline clip-path="url(#clip890)" style="stroke:#000000; stroke-linecap:round; stroke-linejoin:round; stroke-width:4; stroke-opacity:1; fill:none" points="217.286,1039.7 236.184,1039.7 "/>
<polyline clip-path="url(#clip890)" style="stroke:#000000; stroke-linecap:round; stroke-linejoin:round; stroke-width:4; stroke-opacity:1; fill:none" points="217.286,741.655 236.184,741.655 "/>
<polyline clip-path="url(#clip890)" style="stroke:#000000; stroke-linecap:round; stroke-linejoin:round; stroke-width:4; stroke-opacity:1; fill:none" points="217.286,443.609 236.184,443.609 "/>
<polyline clip-path="url(#clip890)" style="stroke:#000000; stroke-linecap:round; stroke-linejoin:round; stroke-width:4; stroke-opacity:1; fill:none" points="217.286,145.564 236.184,145.564 "/>
<path clip-path="url(#clip890)" d="M105.949 1323.54 Q102.337 1323.54 100.509 1327.11 Q98.7032 1330.65 98.7032 1337.78 Q98.7032 1344.89 100.509 1348.45 Q102.337 1351.99 105.949 1351.99 Q109.583 1351.99 111.388 1348.45 Q113.217 1344.89 113.217 1337.78 Q113.217 1330.65 111.388 1327.11 Q109.583 1323.54 105.949 1323.54 M105.949 1319.84 Q111.759 1319.84 114.814 1324.45 Q117.893 1329.03 117.893 1337.78 Q117.893 1346.51 114.814 1351.11 Q111.759 1355.7 105.949 1355.7 Q100.138 1355.7 97.0597 1351.11 Q94.0042 1346.51 94.0042 1337.78 Q94.0042 1329.03 97.0597 1324.45 Q100.138 1319.84 105.949 1319.84 Z" fill="#000000" fill-rule="nonzero" fill-opacity="1" /><path clip-path="url(#clip890)" d="M126.11 1349.15 L130.995 1349.15 L130.995 1355.03 L126.11 1355.03 L126.11 1349.15 Z" fill="#000000" fill-rule="nonzero" fill-opacity="1" /><path clip-path="url(#clip890)" d="M151.758 1335.88 Q148.61 1335.88 146.759 1338.03 Q144.93 1340.19 144.93 1343.94 Q144.93 1347.66 146.759 1349.84 Q148.61 1351.99 151.758 1351.99 Q154.907 1351.99 156.735 1349.84 Q158.587 1347.66 158.587 1343.94 Q158.587 1340.19 156.735 1338.03 Q154.907 1335.88 151.758 1335.88 M161.041 1321.23 L161.041 1325.49 Q159.282 1324.65 157.476 1324.22 Q155.694 1323.78 153.934 1323.78 Q149.305 1323.78 146.851 1326.9 Q144.421 1330.03 144.073 1336.34 Q145.439 1334.33 147.499 1333.27 Q149.559 1332.18 152.036 1332.18 Q157.245 1332.18 160.254 1335.35 Q163.286 1338.5 163.286 1343.94 Q163.286 1349.26 160.138 1352.48 Q156.99 1355.7 151.758 1355.7 Q145.763 1355.7 142.592 1351.11 Q139.421 1346.51 139.421 1337.78 Q139.421 1329.59 143.309 1324.72 Q147.198 1319.84 153.749 1319.84 Q155.508 1319.84 157.291 1320.19 Q159.096 1320.53 161.041 1321.23 Z" fill="#000000" fill-rule="nonzero" fill-opacity="1" /><path clip-path="url(#clip890)" d="M107.013 1025.5 Q103.402 1025.5 101.574 1029.06 Q99.768 1032.61 99.768 1039.73 Q99.768 1046.84 101.574 1050.41 Q103.402 1053.95 107.013 1053.95 Q110.648 1053.95 112.453 1050.41 Q114.282 1046.84 114.282 1039.73 Q114.282 1032.61 112.453 1029.06 Q110.648 1025.5 107.013 1025.5 M107.013 1021.79 Q112.824 1021.79 115.879 1026.4 Q118.958 1030.98 118.958 1039.73 Q118.958 1048.46 115.879 1053.07 Q112.824 1057.65 107.013 1057.65 Q101.203 1057.65 98.1245 1053.07 Q95.069 1048.46 95.069 1039.73 Q95.069 1030.98 98.1245 1026.4 Q101.203 1021.79 107.013 1021.79 Z" fill="#000000" fill-rule="nonzero" fill-opacity="1" /><path clip-path="url(#clip890)" d="M127.175 1051.1 L132.06 1051.1 L132.06 1056.98 L127.175 1056.98 L127.175 1051.1 Z" fill="#000000" fill-rule="nonzero" fill-opacity="1" /><path clip-path="url(#clip890)" d="M141.064 1022.42 L163.286 1022.42 L163.286 1024.41 L150.74 1056.98 L145.856 1056.98 L157.661 1026.36 L141.064 1026.36 L141.064 1022.42 Z" fill="#000000" fill-rule="nonzero" fill-opacity="1" /><path clip-path="url(#clip890)" d="M106.203 727.453 Q102.592 727.453 100.763 731.018 Q98.9578 734.56 98.9578 741.689 Q98.9578 748.796 100.763 752.361 Q102.592 755.902 106.203 755.902 Q109.837 755.902 111.643 752.361 Q113.472 748.796 113.472 741.689 Q113.472 734.56 111.643 731.018 Q109.837 727.453 106.203 727.453 M106.203 723.75 Q112.013 723.75 115.069 728.356 Q118.148 732.939 118.148 741.689 Q118.148 750.416 115.069 755.023 Q112.013 759.606 106.203 759.606 Q100.393 759.606 97.3143 755.023 Q94.2588 750.416 94.2588 741.689 Q94.2588 732.939 97.3143 728.356 Q100.393 723.75 106.203 723.75 Z" fill="#000000" fill-rule="nonzero" fill-opacity="1" /><path clip-path="url(#clip890)" d="M126.365 753.055 L131.249 753.055 L131.249 758.935 L126.365 758.935 L126.365 753.055 Z" fill="#000000" fill-rule="nonzero" fill-opacity="1" /><path clip-path="url(#clip890)" d="M151.434 742.523 Q148.101 742.523 146.18 744.305 Q144.282 746.088 144.282 749.213 Q144.282 752.337 146.18 754.12 Q148.101 755.902 151.434 755.902 Q154.768 755.902 156.689 754.12 Q158.61 752.314 158.61 749.213 Q158.61 746.088 156.689 744.305 Q154.791 742.523 151.434 742.523 M146.759 740.532 Q143.749 739.791 142.059 737.731 Q140.393 735.671 140.393 732.708 Q140.393 728.564 143.333 726.157 Q146.296 723.75 151.434 723.75 Q156.596 723.75 159.536 726.157 Q162.476 728.564 162.476 732.708 Q162.476 735.671 160.786 737.731 Q159.12 739.791 156.133 740.532 Q159.513 741.319 161.388 743.611 Q163.286 745.902 163.286 749.213 Q163.286 754.236 160.208 756.921 Q157.152 759.606 151.434 759.606 Q145.717 759.606 142.638 756.921 Q139.583 754.236 139.583 749.213 Q139.583 745.902 141.481 743.611 Q143.379 741.319 146.759 740.532 M145.046 733.148 Q145.046 735.833 146.712 737.338 Q148.402 738.842 151.434 738.842 Q154.444 738.842 156.133 737.338 Q157.846 735.833 157.846 733.148 Q157.846 730.463 156.133 728.958 Q154.444 727.453 151.434 727.453 Q148.402 727.453 146.712 728.958 Q145.046 730.463 145.046 733.148 Z" fill="#000000" fill-rule="nonzero" fill-opacity="1" /><path clip-path="url(#clip890)" d="M106.296 429.408 Q102.685 429.408 100.856 432.973 Q99.0504 436.515 99.0504 443.644 Q99.0504 450.751 100.856 454.315 Q102.685 457.857 106.296 457.857 Q109.93 457.857 111.736 454.315 Q113.564 450.751 113.564 443.644 Q113.564 436.515 111.736 432.973 Q109.93 429.408 106.296 429.408 M106.296 425.704 Q112.106 425.704 115.161 430.311 Q118.24 434.894 118.24 443.644 Q118.24 452.371 115.161 456.977 Q112.106 461.561 106.296 461.561 Q100.486 461.561 97.4069 456.977 Q94.3514 452.371 94.3514 443.644 Q94.3514 434.894 97.4069 430.311 Q100.486 425.704 106.296 425.704 Z" fill="#000000" fill-rule="nonzero" fill-opacity="1" /><path clip-path="url(#clip890)" d="M126.458 455.01 L131.342 455.01 L131.342 460.889 L126.458 460.889 L126.458 455.01 Z" fill="#000000" fill-rule="nonzero" fill-opacity="1" /><path clip-path="url(#clip890)" d="M141.666 460.172 L141.666 455.913 Q143.425 456.746 145.231 457.186 Q147.036 457.626 148.772 457.626 Q153.402 457.626 155.833 454.524 Q158.286 451.399 158.633 445.056 Q157.291 447.047 155.231 448.112 Q153.171 449.177 150.671 449.177 Q145.485 449.177 142.453 446.052 Q139.444 442.903 139.444 437.464 Q139.444 432.14 142.592 428.922 Q145.74 425.704 150.971 425.704 Q156.967 425.704 160.115 430.311 Q163.286 434.894 163.286 443.644 Q163.286 451.815 159.397 456.7 Q155.532 461.561 148.981 461.561 Q147.221 461.561 145.416 461.214 Q143.61 460.866 141.666 460.172 M150.971 445.519 Q154.12 445.519 155.948 443.366 Q157.8 441.214 157.8 437.464 Q157.8 433.737 155.948 431.584 Q154.12 429.408 150.971 429.408 Q147.823 429.408 145.971 431.584 Q144.143 433.737 144.143 437.464 Q144.143 441.214 145.971 443.366 Q147.823 445.519 150.971 445.519 Z" fill="#000000" fill-rule="nonzero" fill-opacity="1" /><path clip-path="url(#clip890)" d="M96.9208 158.909 L104.56 158.909 L104.56 132.543 L96.2495 134.21 L96.2495 129.951 L104.513 128.284 L109.189 128.284 L109.189 158.909 L116.828 158.909 L116.828 162.844 L96.9208 162.844 L96.9208 158.909 Z" fill="#000000" fill-rule="nonzero" fill-opacity="1" /><path clip-path="url(#clip890)" d="M126.273 156.965 L131.157 156.965 L131.157 162.844 L126.273 162.844 L126.273 156.965 Z" fill="#000000" fill-rule="nonzero" fill-opacity="1" /><path clip-path="url(#clip890)" d="M151.342 131.363 Q147.731 131.363 145.902 134.928 Q144.096 138.469 144.096 145.599 Q144.096 152.705 145.902 156.27 Q147.731 159.812 151.342 159.812 Q154.976 159.812 156.782 156.27 Q158.61 152.705 158.61 145.599 Q158.61 138.469 156.782 134.928 Q154.976 131.363 151.342 131.363 M151.342 127.659 Q157.152 127.659 160.208 132.266 Q163.286 136.849 163.286 145.599 Q163.286 154.326 160.208 158.932 Q157.152 163.516 151.342 163.516 Q145.532 163.516 142.453 158.932 Q139.397 154.326 139.397 145.599 Q139.397 136.849 142.453 132.266 Q145.532 127.659 151.342 127.659 Z" fill="#000000" fill-rule="nonzero" fill-opacity="1" /><path clip-path="url(#clip890)" d="M20.3373 906.368 L20.3373 883.133 L25.7482 883.133 L25.7482 913.752 L20.3373 913.752 L0.476302 898.506 L-16.361 913.752 L-21.7718 913.752 L-21.7718 883.706 L-16.361 883.706 L-16.361 906.368 L0.348988 891.122 L20.3373 906.368 Z" fill="#000000" fill-rule="nonzero" fill-opacity="1" /><path clip-path="url(#clip890)" d="M-24.0635 844.557 L41.1213 844.557 L41.1213 849.968 L-24.0635 849.968 L-24.0635 844.557 Z" fill="#000000" fill-rule="nonzero" fill-opacity="1" /><path clip-path="url(#clip890)" d="M-9.8998 833.544 L-9.8998 827.688 L17.9183 820.367 L-9.8998 813.079 L-9.8998 806.172 L17.9183 798.851 L-9.8998 791.563 L-9.8998 785.706 L25.7482 795.032 L25.7482 801.939 L-3.47044 809.609 L25.7482 817.312 L25.7482 824.219 L-9.8998 833.544 Z" fill="#000000" fill-rule="nonzero" fill-opacity="1" /><path clip-path="url(#clip890)" d="M36.5699 749.74 L41.1213 749.74 L41.1213 783.605 L36.5699 783.605 L36.5699 749.74 Z" fill="#000000" fill-rule="nonzero" fill-opacity="1" /><path clip-path="url(#clip890)" d="M-9.8998 744.233 L-9.8998 738.377 L26.3847 738.377 Q33.196 738.377 36.2516 740.987 Q39.3071 743.565 39.3071 749.326 L39.3071 751.554 L34.3419 751.554 L34.3419 749.994 Q34.3419 746.652 32.7823 745.443 Q31.2545 744.233 26.3847 744.233 L-9.8998 744.233 M-23.777 744.233 L-23.777 738.377 L-16.361 738.377 L-16.361 744.233 L-23.777 744.233 Z" fill="#000000" fill-rule="nonzero" fill-opacity="1" /><path clip-path="url(#clip890)" d="M-24.0635 718.58 L41.1213 718.58 L41.1213 723.991 L-24.0635 723.991 L-24.0635 718.58 Z" fill="#000000" fill-rule="nonzero" fill-opacity="1" /><path clip-path="url(#clip890)" d="M953.313 12.096 L961.496 12.096 L961.496 36.8875 L991.23 36.8875 L991.23 12.096 L999.412 12.096 L999.412 72.576 L991.23 72.576 L991.23 43.7741 L961.496 43.7741 L961.496 72.576 L953.313 72.576 L953.313 12.096 Z" fill="#000000" fill-rule="nonzero" fill-opacity="1" /><path clip-path="url(#clip890)" d="M1035.99 49.7694 Q1026.96 49.7694 1023.47 51.8354 Q1019.99 53.9013 1019.99 58.8839 Q1019.99 62.8538 1022.58 65.2034 Q1025.22 67.5124 1029.71 67.5124 Q1035.91 67.5124 1039.64 63.1374 Q1043.41 58.7219 1043.41 51.4303 L1043.41 49.7694 L1035.99 49.7694 M1050.86 46.6907 L1050.86 72.576 L1043.41 72.576 L1043.41 65.6895 Q1040.85 69.8214 1037.05 71.8063 Q1033.24 73.7508 1027.73 73.7508 Q1020.76 73.7508 1016.63 69.8619 Q1012.54 65.9325 1012.54 59.3701 Q1012.54 51.7138 1017.64 47.825 Q1022.79 43.9361 1032.95 43.9361 L1043.41 43.9361 L1043.41 43.2069 Q1043.41 38.0623 1040 35.2672 Q1036.64 32.4315 1030.52 32.4315 Q1026.63 32.4315 1022.95 33.3632 Q1019.26 34.295 1015.86 36.1584 L1015.86 29.2718 Q1019.95 27.692 1023.8 26.9223 Q1027.65 26.1121 1031.29 26.1121 Q1041.14 26.1121 1046 31.2163 Q1050.86 36.3204 1050.86 46.6907 Z" fill="#000000" fill-rule="nonzero" fill-opacity="1" /><path clip-path="url(#clip890)" d="M1065.93 27.2059 L1073.34 27.2059 L1073.34 48.5136 L1094.37 27.2059 L1103.52 27.2059 L1086.18 44.7463 L1105.75 72.576 L1097.4 72.576 L1081.32 49.6884 L1073.34 57.7902 L1073.34 72.576 L1065.93 72.576 L1065.93 27.2059 Z" fill="#000000" fill-rule="nonzero" fill-opacity="1" /><path clip-path="url(#clip890)" d="M1133.9 32.4315 Q1127.91 32.4315 1124.42 37.1306 Q1120.94 41.7891 1120.94 49.9314 Q1120.94 58.0738 1124.38 62.7728 Q1127.87 67.4314 1133.9 67.4314 Q1139.86 67.4314 1143.34 62.7323 Q1146.82 58.0333 1146.82 49.9314 Q1146.82 41.8701 1143.34 37.1711 Q1139.86 32.4315 1133.9 32.4315 M1133.9 26.1121 Q1143.62 26.1121 1149.17 32.4315 Q1154.72 38.7509 1154.72 49.9314 Q1154.72 61.0714 1149.17 67.4314 Q1143.62 73.7508 1133.9 73.7508 Q1124.14 73.7508 1118.59 67.4314 Q1113.08 61.0714 1113.08 49.9314 Q1113.08 38.7509 1118.59 32.4315 Q1124.14 26.1121 1133.9 26.1121 Z" fill="#000000" fill-rule="nonzero" fill-opacity="1" /><path clip-path="url(#clip890)" d="M1205.97 27.2059 L1205.97 72.576 L1198.47 72.576 L1198.47 33.1607 L1174.29 33.1607 L1174.29 72.576 L1166.8 72.576 L1166.8 27.2059 L1205.97 27.2059 Z" fill="#000000" fill-rule="nonzero" fill-opacity="1" /><path clip-path="url(#clip890)" d="M1216.58 72.576 L1216.58 66.3781 Q1223.95 65.2439 1226.22 60.1397 Q1228.98 52.9696 1228.98 34.619 L1228.98 27.2059 L1259.64 27.2059 L1259.64 72.576 L1252.19 72.576 L1252.19 33.1607 L1236.43 33.1607 L1236.43 37.6572 Q1236.43 55.1571 1232.87 63.0159 Q1229.06 71.4012 1216.58 72.576 Z" fill="#000000" fill-rule="nonzero" fill-opacity="1" /><path clip-path="url(#clip890)" d="M1313.15 48.0275 L1313.15 51.6733 L1278.88 51.6733 Q1279.37 59.3701 1283.5 63.421 Q1287.67 67.4314 1295.09 67.4314 Q1299.38 67.4314 1303.39 66.3781 Q1307.44 65.3249 1311.41 63.2184 L1311.41 70.267 Q1307.4 71.9684 1303.19 72.8596 Q1298.98 73.7508 1294.64 73.7508 Q1283.79 73.7508 1277.43 67.4314 Q1271.11 61.1119 1271.11 50.3365 Q1271.11 39.1965 1277.1 32.6746 Q1283.14 26.1121 1293.35 26.1121 Q1302.5 26.1121 1307.81 32.0264 Q1313.15 37.9003 1313.15 48.0275 M1305.7 45.84 Q1305.62 39.7232 1302.26 36.0774 Q1298.94 32.4315 1293.43 32.4315 Q1287.19 32.4315 1283.42 35.9558 Q1279.69 39.4801 1279.13 45.8805 L1305.7 45.84 Z" fill="#000000" fill-rule="nonzero" fill-opacity="1" /><path clip-path="url(#clip890)" d="M1325.11 27.2059 L1332.6 27.2059 L1332.6 45.7185 L1356.78 45.7185 L1356.78 27.2059 L1364.28 27.2059 L1364.28 72.576 L1356.78 72.576 L1356.78 51.6733 L1332.6 51.6733 L1332.6 72.576 L1325.11 72.576 L1325.11 27.2059 Z" fill="#000000" fill-rule="nonzero" fill-opacity="1" /><path clip-path="url(#clip890)" d="M1379.35 27.2059 L1386.84 27.2059 L1386.84 45.7185 L1411.02 45.7185 L1411.02 27.2059 L1418.52 27.2059 L1418.52 72.576 L1411.02 72.576 L1411.02 51.6733 L1386.84 51.6733 L1386.84 72.576 L1379.35 72.576 L1379.35 27.2059 Z" fill="#000000" fill-rule="nonzero" fill-opacity="1" /><path clip-path="url(#clip890)" d="M1454.49 49.7694 Q1445.46 49.7694 1441.97 51.8354 Q1438.49 53.9013 1438.49 58.8839 Q1438.49 62.8538 1441.08 65.2034 Q1443.72 67.5124 1448.21 67.5124 Q1454.41 67.5124 1458.14 63.1374 Q1461.9 58.7219 1461.9 51.4303 L1461.9 49.7694 L1454.49 49.7694 M1469.36 46.6907 L1469.36 72.576 L1461.9 72.576 L1461.9 65.6895 Q1459.35 69.8214 1455.54 71.8063 Q1451.74 73.7508 1446.23 73.7508 Q1439.26 73.7508 1435.13 69.8619 Q1431.04 65.9325 1431.04 59.3701 Q1431.04 51.7138 1436.14 47.825 Q1441.29 43.9361 1451.45 43.9361 L1461.9 43.9361 L1461.9 43.2069 Q1461.9 38.0623 1458.5 35.2672 Q1455.14 32.4315 1449.02 32.4315 Q1445.13 32.4315 1441.45 33.3632 Q1437.76 34.295 1434.36 36.1584 L1434.36 29.2718 Q1438.45 27.692 1442.3 26.9223 Q1446.15 26.1121 1449.79 26.1121 Q1459.64 26.1121 1464.5 31.2163 Q1469.36 36.3204 1469.36 46.6907 Z" fill="#000000" fill-rule="nonzero" fill-opacity="1" /><path clip-path="url(#clip890)" d="M1492.2 40.2903 Q1492.2 43.6525 1494.8 45.5565 Q1497.39 47.4604 1502.21 47.4604 L1512.26 47.4604 L1512.26 33.1607 L1502.21 33.1607 Q1497.39 33.1607 1494.8 35.0241 Q1492.2 36.8875 1492.2 40.2903 M1481.59 72.576 L1495.45 52.6861 Q1490.75 51.6328 1487.63 48.8782 Q1484.51 46.0831 1484.51 40.2903 Q1484.51 33.7278 1488.84 30.4871 Q1493.22 27.2059 1502.01 27.2059 L1519.75 27.2059 L1519.75 72.576 L1512.26 72.576 L1512.26 53.4152 L1502.98 53.4152 L1489.61 72.576 L1481.59 72.576 Z" fill="#000000" fill-rule="nonzero" fill-opacity="1" /><path clip-path="url(#clip890)" d="M1599.88 27.2059 L1599.88 72.576 L1592.38 72.576 L1592.38 33.1607 L1568.2 33.1607 L1568.2 72.576 L1560.71 72.576 L1560.71 27.2059 L1599.88 27.2059 Z" fill="#000000" fill-rule="nonzero" fill-opacity="1" /><path clip-path="url(#clip890)" d="M1635.85 49.7694 Q1626.82 49.7694 1623.33 51.8354 Q1619.85 53.9013 1619.85 58.8839 Q1619.85 62.8538 1622.44 65.2034 Q1625.07 67.5124 1629.57 67.5124 Q1635.77 67.5124 1639.5 63.1374 Q1643.26 58.7219 1643.26 51.4303 L1643.26 49.7694 L1635.85 49.7694 M1650.72 46.6907 L1650.72 72.576 L1643.26 72.576 L1643.26 65.6895 Q1640.71 69.8214 1636.9 71.8063 Q1633.1 73.7508 1627.59 73.7508 Q1620.62 73.7508 1616.49 69.8619 Q1612.4 65.9325 1612.4 59.3701 Q1612.4 51.7138 1617.5 47.825 Q1622.64 43.9361 1632.81 43.9361 L1643.26 43.9361 L1643.26 43.2069 Q1643.26 38.0623 1639.86 35.2672 Q1636.5 32.4315 1630.38 32.4315 Q1626.49 32.4315 1622.81 33.3632 Q1619.12 34.295 1615.72 36.1584 L1615.72 29.2718 Q1619.81 27.692 1623.66 26.9223 Q1627.51 26.1121 1631.15 26.1121 Q1640.99 26.1121 1645.86 31.2163 Q1650.72 36.3204 1650.72 46.6907 Z" fill="#000000" fill-rule="nonzero" fill-opacity="1" /><path clip-path="url(#clip890)" d="M1665.79 27.2059 L1676.68 27.2059 L1689.56 57.5877 L1702.49 27.2059 L1713.3 27.2059 L1713.3 72.576 L1705.81 72.576 L1705.81 34.3355 L1693.29 63.8666 L1685.84 63.8666 L1673.28 34.3355 L1673.28 72.576 L1665.79 72.576 L1665.79 27.2059 Z" fill="#000000" fill-rule="nonzero" fill-opacity="1" /><path clip-path="url(#clip890)" d="M1736.15 40.2903 Q1736.15 43.6525 1738.74 45.5565 Q1741.34 47.4604 1746.16 47.4604 L1756.2 47.4604 L1756.2 33.1607 L1746.16 33.1607 Q1741.34 33.1607 1738.74 35.0241 Q1736.15 36.8875 1736.15 40.2903 M1725.54 72.576 L1739.39 52.6861 Q1734.69 51.6328 1731.57 48.8782 Q1728.45 46.0831 1728.45 40.2903 Q1728.45 33.7278 1732.79 30.4871 Q1737.16 27.2059 1745.95 27.2059 L1763.7 27.2059 L1763.7 72.576 L1756.2 72.576 L1756.2 53.4152 L1746.93 53.4152 L1733.56 72.576 L1725.54 72.576 Z" fill="#000000" fill-rule="nonzero" fill-opacity="1" /><path clip-path="url(#clip890)" d="M1773.18 27.2059 L1816.64 27.2059 L1816.64 33.1607 L1798.57 33.1607 L1798.57 72.576 L1791.24 72.576 L1791.24 33.1607 L1773.18 33.1607 L1773.18 27.2059 Z" fill="#000000" fill-rule="nonzero" fill-opacity="1" /><path clip-path="url(#clip890)" d="M1855.13 59.127 Q1855.13 55.4812 1852.45 53.5773 Q1849.82 51.6733 1844.71 51.6733 L1834.1 51.6733 L1834.1 66.6212 L1844.71 66.6212 Q1849.82 66.6212 1852.45 64.7172 Q1855.13 62.7728 1855.13 59.127 M1826.61 27.2059 L1834.1 27.2059 L1834.1 45.7185 L1845.04 45.7185 Q1853.71 45.7185 1858.37 49.0402 Q1863.07 52.3215 1863.07 59.127 Q1863.07 65.9325 1858.37 69.2543 Q1853.71 72.576 1845.04 72.576 L1826.61 72.576 L1826.61 27.2059 Z" fill="#000000" fill-rule="nonzero" fill-opacity="1" /><path clip-path="url(#clip890)" d="M1877.69 62.2867 L1886.24 62.2867 L1886.24 72.576 L1877.69 72.576 L1877.69 62.2867 M1877.69 29.6769 L1886.24 29.6769 L1886.24 39.9662 L1877.69 39.9662 L1877.69 29.6769 Z" fill="#000000" fill-rule="nonzero" fill-opacity="1" /><path clip-path="url(#clip890)" d="M1939.83 65.6895 L1969.4 65.6895 L1969.4 72.576 L1930.43 72.576 L1930.43 65.6895 L1949.84 40.4118 L1930.43 18.9825 L1930.43 12.096 L1968.67 12.096 L1968.67 18.9825 L1939.83 18.9825 L1959.23 40.2498 L1939.83 65.6895 Z" fill="#000000" fill-rule="nonzero" fill-opacity="1" /><path clip-path="url(#clip890)" d="M2017 86.3491 L2017 92.1419 L1973.9 92.1419 L1973.9 86.3491 L2017 86.3491 Z" fill="#000000" fill-rule="nonzero" fill-opacity="1" /><path clip-path="url(#clip890)" d="M2058.6 80.2727 L2058.6 86.106 L2056.09 86.106 Q2046 86.106 2042.56 83.1084 Q2039.16 80.1107 2039.16 71.1582 L2039.16 61.4765 Q2039.16 55.3597 2036.97 53.0101 Q2034.78 50.6606 2029.03 50.6606 L2026.56 50.6606 L2026.56 44.8678 L2029.03 44.8678 Q2034.82 44.8678 2036.97 42.5588 Q2039.16 40.2093 2039.16 34.1734 L2039.16 24.4513 Q2039.16 15.4988 2042.56 12.5416 Q2046 9.54393 2056.09 9.54393 L2058.6 9.54393 L2058.6 15.3367 L2055.85 15.3367 Q2050.14 15.3367 2048.39 17.1191 Q2046.65 18.9015 2046.65 24.6133 L2046.65 34.6595 Q2046.65 41.0195 2044.79 43.8956 Q2042.97 46.7717 2038.51 47.7845 Q2043.01 48.8782 2044.83 51.7544 Q2046.65 54.6305 2046.65 60.9499 L2046.65 70.9961 Q2046.65 76.7079 2048.39 78.4903 Q2050.14 80.2727 2055.85 80.2727 L2058.6 80.2727 Z" fill="#000000" fill-rule="nonzero" fill-opacity="1" /><path clip-path="url(#clip890)" d="M2076.79 27.2059 L2084.24 27.2059 L2084.24 73.3862 Q2084.24 82.0551 2080.92 85.944 Q2077.64 89.8329 2070.31 89.8329 L2067.47 89.8329 L2067.47 83.5134 L2069.46 83.5134 Q2073.71 83.5134 2075.25 81.5285 Q2076.79 79.5841 2076.79 73.3862 L2076.79 27.2059 M2076.79 9.54393 L2084.24 9.54393 L2084.24 18.9825 L2076.79 18.9825 L2076.79 9.54393 Z" fill="#000000" fill-rule="nonzero" fill-opacity="1" /><path clip-path="url(#clip890)" d="M2100.81 34.9026 L2152.75 34.9026 L2152.75 41.7081 L2100.81 41.7081 L2100.81 34.9026 M2100.81 51.4303 L2152.75 51.4303 L2152.75 58.3168 L2100.81 58.3168 L2100.81 51.4303 Z" fill="#000000" fill-rule="nonzero" fill-opacity="1" /><path clip-path="url(#clip890)" d="M2171.83 65.6895 L2185.19 65.6895 L2185.19 19.5497 L2170.65 22.4663 L2170.65 15.0127 L2185.11 12.096 L2193.29 12.096 L2193.29 65.6895 L2206.66 65.6895 L2206.66 72.576 L2171.83 72.576 L2171.83 65.6895 Z" fill="#000000" fill-rule="nonzero" fill-opacity="1" /><path clip-path="url(#clip890)" d="M2224.69 80.2727 L2227.53 80.2727 Q2233.2 80.2727 2234.9 78.5308 Q2236.64 76.7889 2236.64 70.9961 L2236.64 60.9499 Q2236.64 54.6305 2238.46 51.7544 Q2240.29 48.8782 2244.78 47.7845 Q2240.29 46.7717 2238.46 43.8956 Q2236.64 41.0195 2236.64 34.6595 L2236.64 24.6133 Q2236.64 18.861 2234.9 17.1191 Q2233.2 15.3367 2227.53 15.3367 L2224.69 15.3367 L2224.69 9.54393 L2227.24 9.54393 Q2237.33 9.54393 2240.69 12.5416 Q2244.09 15.4988 2244.09 24.4513 L2244.09 34.1734 Q2244.09 40.2093 2246.28 42.5588 Q2248.47 44.8678 2254.22 44.8678 L2256.73 44.8678 L2256.73 50.6606 L2254.22 50.6606 Q2248.47 50.6606 2246.28 53.0101 Q2244.09 55.3597 2244.09 61.4765 L2244.09 71.1582 Q2244.09 80.1107 2240.69 83.1084 Q2237.33 86.106 2227.24 86.106 L2224.69 86.106 L2224.69 80.2727 Z" fill="#000000" fill-rule="nonzero" fill-opacity="1" /><path clip-path="url(#clip890)" d="M2305.83 12.096 L2327.83 34.6595 L2319.68 34.6595 L2301.86 18.6585 L2284.04 34.6595 L2275.89 34.6595 L2297.89 12.096 L2305.83 12.096 Z" fill="#000000" fill-rule="nonzero" fill-opacity="1" /><path clip-path="url(#clip890)" d="M2379.03 80.2727 L2379.03 86.106 L2376.52 86.106 Q2366.43 86.106 2362.99 83.1084 Q2359.58 80.1107 2359.58 71.1582 L2359.58 61.4765 Q2359.58 55.3597 2357.4 53.0101 Q2355.21 50.6606 2349.46 50.6606 L2346.99 50.6606 L2346.99 44.8678 L2349.46 44.8678 Q2355.25 44.8678 2357.4 42.5588 Q2359.58 40.2093 2359.58 34.1734 L2359.58 24.4513 Q2359.58 15.4988 2362.99 12.5416 Q2366.43 9.54393 2376.52 9.54393 L2379.03 9.54393 L2379.03 15.3367 L2376.27 15.3367 Q2370.56 15.3367 2368.82 17.1191 Q2367.08 18.9015 2367.08 24.6133 L2367.08 34.6595 Q2367.08 41.0195 2365.22 43.8956 Q2363.39 46.7717 2358.94 47.7845 Q2363.43 48.8782 2365.26 51.7544 Q2367.08 54.6305 2367.08 60.9499 L2367.08 70.9961 Q2367.08 76.7079 2368.82 78.4903 Q2370.56 80.2727 2376.27 80.2727 L2379.03 80.2727 Z" fill="#000000" fill-rule="nonzero" fill-opacity="1" /><path clip-path="url(#clip890)" d="M2397.54 12.096 L2405.72 12.096 L2405.72 65.6895 L2435.17 65.6895 L2435.17 72.576 L2397.54 72.576 L2397.54 12.096 Z" fill="#000000" fill-rule="nonzero" fill-opacity="1" /><path clip-path="url(#clip890)" d="M2445.99 80.2727 L2448.83 80.2727 Q2454.5 80.2727 2456.2 78.5308 Q2457.94 76.7889 2457.94 70.9961 L2457.94 60.9499 Q2457.94 54.6305 2459.76 51.7544 Q2461.59 48.8782 2466.08 47.7845 Q2461.59 46.7717 2459.76 43.8956 Q2457.94 41.0195 2457.94 34.6595 L2457.94 24.6133 Q2457.94 18.861 2456.2 17.1191 Q2454.5 15.3367 2448.83 15.3367 L2445.99 15.3367 L2445.99 9.54393 L2448.54 9.54393 Q2458.63 9.54393 2461.99 12.5416 Q2465.39 15.4988 2465.39 24.4513 L2465.39 34.1734 Q2465.39 40.2093 2467.58 42.5588 Q2469.77 44.8678 2475.52 44.8678 L2478.03 44.8678 L2478.03 50.6606 L2475.52 50.6606 Q2469.77 50.6606 2467.58 53.0101 Q2465.39 55.3597 2465.39 61.4765 L2465.39 71.1582 Q2465.39 80.1107 2461.99 83.1084 Q2458.63 86.106 2448.54 86.106 L2445.99 86.106 L2445.99 80.2727 Z" fill="#000000" fill-rule="nonzero" fill-opacity="1" /><path clip-path="url(#clip890)" d="M2532.19 9.17935 L2532.19 92.1419 L2525.31 92.1419 L2525.31 9.17935 L2532.19 9.17935 Z" fill="#000000" fill-rule="nonzero" fill-opacity="1" /><path clip-path="url(#clip890)" d="M2546.21 27.2059 L2553.66 27.2059 L2562.98 62.6108 L2572.26 27.2059 L2581.05 27.2059 L2590.36 62.6108 L2599.64 27.2059 L2607.09 27.2059 L2595.23 72.576 L2586.44 72.576 L2576.67 35.3887 L2566.87 72.576 L2558.08 72.576 L2546.21 27.2059 Z" fill="#000000" fill-rule="nonzero" fill-opacity="1" /><path clip-path="url(#clip890)" d="M2652.87 86.3491 L2652.87 92.1419 L2609.77 92.1419 L2609.77 86.3491 L2652.87 86.3491 Z" fill="#000000" fill-rule="nonzero" fill-opacity="1" /><path clip-path="url(#clip890)" d="M2659.88 27.2059 L2667.33 27.2059 L2667.33 73.3862 Q2667.33 82.0551 2664.01 85.944 Q2660.73 89.8329 2653.4 89.8329 L2650.56 89.8329 L2650.56 83.5134 L2652.55 83.5134 Q2656.8 83.5134 2658.34 81.5285 Q2659.88 79.5841 2659.88 73.3862 L2659.88 27.2059 M2659.88 9.54393 L2667.33 9.54393 L2667.33 18.9825 L2659.88 18.9825 L2659.88 9.54393 Z" fill="#000000" fill-rule="nonzero" fill-opacity="1" /><path clip-path="url(#clip890)" d="M2713.84 12.096 L2735.83 34.6595 L2727.69 34.6595 L2709.87 18.6585 L2692.04 34.6595 L2683.9 34.6595 L2705.9 12.096 L2713.84 12.096 Z" fill="#000000" fill-rule="nonzero" fill-opacity="1" /><path clip-path="url(#clip890)" d="M2778.89 51.4708 L2777.11 42.1132 Q2775.29 32.5126 2768.08 32.5126 Q2762.65 32.5126 2760.18 36.9686 Q2757.06 42.5588 2757.06 49.9314 Q2757.06 58.8434 2760.1 63.0969 Q2763.18 67.4314 2768.08 67.4314 Q2773.51 67.4314 2776.42 58.8029 L2778.89 51.4708 M2783.07 39.075 L2787.08 27.2059 L2793.72 27.2059 L2785.42 51.7949 L2787.04 60.6663 Q2787.4 62.6513 2788.82 64.3122 Q2790.48 66.2566 2791.78 66.2566 L2795.34 66.2566 L2795.34 72.576 L2790.88 72.576 Q2787.08 72.576 2783.67 69.1732 Q2782.01 67.4719 2781.32 63.9071 Q2779.46 68.4036 2775.65 71.9279 Q2773.87 73.5887 2768.08 73.5887 Q2758.56 73.5887 2753.94 67.4314 Q2749.2 61.0714 2749.2 49.9314 Q2749.2 38.0218 2754.35 32.4315 Q2760.06 26.1931 2768.08 26.1931 Q2780.68 26.1931 2783.07 39.075 Z" fill="#000000" fill-rule="nonzero" fill-opacity="1" /><path clip-path="url(#clip890)" d="M2816.73 9.17935 L2816.73 92.1419 L2809.84 92.1419 L2809.84 9.17935 L2816.73 9.17935 Z" fill="#000000" fill-rule="nonzero" fill-opacity="1" /><polyline clip-path="url(#clip891)" style="stroke:#800080; stroke-linecap:round; stroke-linejoin:round; stroke-width:8; stroke-opacity:1; fill:none" points="311.686,1486.77 365.02,1117.94 418.353,939.668 471.686,830.479 525.02,755.139 578.353,699.261 631.687,655.756 685.02,620.68 738.353,591.646 791.687,567.111 845.02,546.034 898.353,527.679 951.687,511.512 1005.02,497.136 1058.35,484.245 1111.69,472.603 1165.02,462.022 1218.35,452.353 1271.69,443.472 1325.02,435.279 1378.35,427.692 1431.69,420.638 1485.02,414.061 1538.35,407.908 1591.69,402.136 1645.02,396.709 1698.35,391.593 1751.69,386.76 1805.02,382.186 1858.35,377.847 1911.69,373.726 1965.02,369.805 2018.35,366.067 2071.69,362.5 2125.02,359.091 2178.35,355.829 2231.69,352.704 2285.02,349.706 2338.35,346.827 2391.69,344.059 2445.02,341.397 2498.35,338.832 2551.69,336.36 2605.02,333.975 2658.36,331.672 2711.69,329.447 2765.02,327.295 2818.36,325.213 2871.69,323.197 2925.02,321.243 2978.36,319.348 3031.69,317.51 3085.02,315.726 3138.36,313.992 3191.69,312.308 3245.02,310.671 3298.36,309.077 3351.69,307.527 3405.02,306.017 3458.36,304.546 "/>
<polyline clip-path="url(#clip891)" style="stroke:#0000ff; stroke-linecap:round; stroke-linejoin:round; stroke-width:8; stroke-opacity:1; fill:none" points="311.686,1188.72 365.02,849.696 418.353,697.134 471.686,607.504 525.02,547.452 578.353,503.914 631.687,470.639 685.02,444.226 738.353,422.656 791.687,404.645 845.02,389.336 898.353,376.132 951.687,364.603 1005.02,354.434 1058.35,345.383 1111.69,337.265 1165.02,329.935 1218.35,323.277 1271.69,317.198 1325.02,311.62 1378.35,306.48 1431.69,301.726 1485.02,297.312 1538.35,293.202 1591.69,289.364 1645.02,285.769 1698.35,282.394 1751.69,279.217 1805.02,276.222 1858.35,273.391 1911.69,270.71 1965.02,268.168 2018.35,265.753 2071.69,263.456 2125.02,261.266 2178.35,259.177 2231.69,257.181 2285.02,255.272 2338.35,253.444 2391.69,251.691 2445.02,250.008 2498.35,248.392 2551.69,246.837 2605.02,245.341 2658.36,243.9 2711.69,242.51 2765.02,241.17 2818.36,239.875 2871.69,238.624 2925.02,237.414 2978.36,236.244 3031.69,235.11 3085.02,234.012 3138.36,232.947 3191.69,231.915 3245.02,230.912 3298.36,229.939 3351.69,228.993 3405.02,228.074 3458.36,227.18 "/>
<polyline clip-path="url(#clip891)" style="stroke:#008080; stroke-linecap:round; stroke-linejoin:round; stroke-width:8; stroke-opacity:1; fill:none" points="311.686,890.677 365.02,611.26 418.353,494.836 471.686,429.348 525.02,386.78 578.353,356.628 631.687,334.014 685.02,316.347 738.353,302.115 791.687,290.374 845.02,280.5 898.353,272.067 951.687,264.769 1005.02,258.383 1058.35,252.742 1111.69,247.718 1165.02,243.211 1218.35,239.142 1271.69,235.449 1325.02,232.078 1378.35,228.988 1431.69,226.144 1485.02,223.516 1538.35,221.08 1591.69,218.815 1645.02,216.702 1698.35,214.726 1751.69,212.873 1805.02,211.133 1858.35,209.493 1911.69,207.947 1965.02,206.485 2018.35,205.1 2071.69,203.787 2125.02,202.539 2178.35,201.352 2231.69,200.221 2285.02,199.143 2338.35,198.112 2391.69,197.127 2445.02,196.184 2498.35,195.28 2551.69,194.413 2605.02,193.58 2658.36,192.78 2711.69,192.01 2765.02,191.269 2818.36,190.555 2871.69,189.866 2925.02,189.202 2978.36,188.56 3031.69,187.94 3085.02,187.34 3138.36,186.76 3191.69,186.198 3245.02,185.654 3298.36,185.126 3351.69,184.615 3405.02,184.118 3458.36,183.636 "/>
<polyline clip-path="url(#clip891)" style="stroke:#008000; stroke-linecap:round; stroke-linejoin:round; stroke-width:8; stroke-opacity:1; fill:none" points="311.686,592.632 365.02,402.628 418.353,329.793 471.686,290.645 525.02,265.981 578.353,248.922 631.687,236.371 685.02,226.723 738.353,219.058 791.687,212.811 845.02,207.615 898.353,203.22 951.687,199.45 1005.02,196.178 1058.35,193.31 1111.69,190.774 1165.02,188.513 1218.35,186.485 1271.69,184.654 1325.02,182.993 1378.35,181.478 1431.69,180.09 1485.02,178.814 1538.35,177.637 1591.69,176.546 1645.02,175.533 1698.35,174.59 1751.69,173.709 1805.02,172.884 1858.35,172.11 1911.69,171.382 1965.02,170.696 2018.35,170.049 2071.69,169.437 2125.02,168.857 2178.35,168.307 2231.69,167.785 2285.02,167.288 2338.35,166.814 2391.69,166.363 2445.02,165.931 2498.35,165.519 2551.69,165.125 2605.02,164.747 2658.36,164.384 2711.69,164.037 2765.02,163.703 2818.36,163.381 2871.69,163.072 2925.02,162.775 2978.36,162.488 3031.69,162.211 3085.02,161.944 3138.36,161.686 3191.69,161.437 3245.02,161.196 3298.36,160.963 3351.69,160.738 3405.02,160.519 3458.36,160.307 "/>
<polyline clip-path="url(#clip891)" style="stroke:#ffa500; stroke-linecap:round; stroke-linejoin:round; stroke-width:8; stroke-opacity:1; fill:none" points="311.686,294.587 365.02,223.801 418.353,199.026 471.686,186.329 525.02,178.584 578.353,173.356 631.687,169.584 685.02,166.732 738.353,164.497 791.687,162.699 845.02,161.219 898.353,159.979 951.687,158.926 1005.02,158.019 1058.35,157.231 1111.69,156.538 1165.02,155.925 1218.35,155.378 1271.69,154.887 1325.02,154.444 1378.35,154.043 1431.69,153.676 1485.02,153.341 1538.35,153.034 1591.69,152.75 1645.02,152.487 1698.35,152.244 1751.69,152.017 1805.02,151.806 1858.35,151.608 1911.69,151.423 1965.02,151.249 2018.35,151.085 2071.69,150.931 2125.02,150.785 2178.35,150.647 2231.69,150.517 2285.02,150.393 2338.35,150.275 2391.69,150.164 2445.02,150.057 2498.35,149.955 2551.69,149.858 2605.02,149.766 2658.36,149.677 2711.69,149.592 2765.02,149.511 2818.36,149.433 2871.69,149.358 2925.02,149.285 2978.36,149.216 3031.69,149.149 3085.02,149.085 3138.36,149.023 3191.69,148.963 3245.02,148.906 3298.36,148.85 3351.69,148.796 3405.02,148.744 3458.36,148.694 "/>
<polyline clip-path="url(#clip891)" style="stroke:#ff0000; stroke-linecap:round; stroke-linejoin:round; stroke-width:8; stroke-opacity:1; fill:none" points="311.686,145.564 365.02,145.564 418.353,145.564 471.686,145.564 525.02,145.564 578.353,145.564 631.687,145.564 685.02,145.564 738.353,145.564 791.687,145.564 845.02,145.564 898.353,145.564 951.687,145.564 1005.02,145.564 1058.35,145.564 1111.69,145.564 1165.02,145.564 1218.35,145.564 1271.69,145.564 1325.02,145.564 1378.35,145.564 1431.69,145.564 1485.02,145.564 1538.35,145.564 1591.69,145.564 1645.02,145.564 1698.35,145.564 1751.69,145.564 1805.02,145.564 1858.35,145.564 1911.69,145.564 1965.02,145.564 2018.35,145.564 2071.69,145.564 2125.02,145.564 2178.35,145.564 2231.69,145.564 2285.02,145.564 2338.35,145.564 2391.69,145.564 2445.02,145.564 2498.35,145.564 2551.69,145.564 2605.02,145.564 2658.36,145.564 2711.69,145.564 2765.02,145.564 2818.36,145.564 2871.69,145.564 2925.02,145.564 2978.36,145.564 3031.69,145.564 3085.02,145.564 3138.36,145.564 3191.69,145.564 3245.02,145.564 3298.36,145.564 3351.69,145.564 3405.02,145.564 3458.36,145.564 "/>
<polyline clip-path="url(#clip891)" style="stroke:#000000; stroke-linecap:round; stroke-linejoin:round; stroke-width:4; stroke-opacity:1; fill:none" stroke-dasharray="2, 4" points="-3118.18,145.564 6888.23,145.564 "/>
<path clip-path="url(#clip890)" d="M2864.32 1479.61 L3441.57 1479.61 L3441.57 1064.89 L2864.32 1064.89  Z" fill="#ffffff" fill-rule="evenodd" fill-opacity="1"/>
<polyline clip-path="url(#clip890)" style="stroke:#000000; stroke-linecap:round; stroke-linejoin:round; stroke-width:4; stroke-opacity:1; fill:none" points="2864.32,1479.61 3441.57,1479.61 3441.57,1064.89 2864.32,1064.89 2864.32,1479.61 "/>
<polyline clip-path="url(#clip890)" style="stroke:#800080; stroke-linecap:round; stroke-linejoin:round; stroke-width:8; stroke-opacity:1; fill:none" points="2901.38,1116.73 3123.75,1116.73 "/>
<path clip-path="url(#clip890)" d="M3177.78 1121.95 L3176.76 1116.61 Q3175.72 1111.12 3171.6 1111.12 Q3168.5 1111.12 3167.08 1113.67 Q3165.3 1116.86 3165.3 1121.07 Q3165.3 1126.17 3167.04 1128.6 Q3168.8 1131.07 3171.6 1131.07 Q3174.7 1131.07 3176.37 1126.14 L3177.78 1121.95 M3180.16 1114.87 L3182.45 1108.09 L3186.25 1108.09 L3181.5 1122.14 L3182.43 1127.21 Q3182.64 1128.34 3183.45 1129.29 Q3184.4 1130.4 3185.14 1130.4 L3187.18 1130.4 L3187.18 1134.01 L3184.63 1134.01 Q3182.45 1134.01 3180.51 1132.07 Q3179.56 1131.1 3179.17 1129.06 Q3178.1 1131.63 3175.93 1133.64 Q3174.91 1134.59 3171.6 1134.59 Q3166.16 1134.59 3163.52 1131.07 Q3160.81 1127.44 3160.81 1121.07 Q3160.81 1114.27 3163.75 1111.07 Q3167.01 1107.51 3171.6 1107.51 Q3178.8 1107.51 3180.16 1114.87 Z" fill="#000000" fill-rule="nonzero" fill-opacity="1" /><path clip-path="url(#clip890)" d="M3194.47 1112.49 L3224.14 1112.49 L3224.14 1116.38 L3194.47 1116.38 L3194.47 1112.49 M3194.47 1121.93 L3224.14 1121.93 L3224.14 1125.87 L3194.47 1125.87 L3194.47 1121.93 Z" fill="#000000" fill-rule="nonzero" fill-opacity="1" /><path clip-path="url(#clip890)" d="M3244.24 1102.53 Q3240.62 1102.53 3238.8 1106.1 Q3236.99 1109.64 3236.99 1116.77 Q3236.99 1123.88 3238.8 1127.44 Q3240.62 1130.98 3244.24 1130.98 Q3247.87 1130.98 3249.68 1127.44 Q3251.5 1123.88 3251.5 1116.77 Q3251.5 1109.64 3249.68 1106.1 Q3247.87 1102.53 3244.24 1102.53 M3244.24 1098.83 Q3250.05 1098.83 3253.1 1103.44 Q3256.18 1108.02 3256.18 1116.77 Q3256.18 1125.5 3253.1 1130.1 Q3250.05 1134.69 3244.24 1134.69 Q3238.43 1134.69 3235.35 1130.1 Q3232.29 1125.5 3232.29 1116.77 Q3232.29 1108.02 3235.35 1103.44 Q3238.43 1098.83 3244.24 1098.83 Z" fill="#000000" fill-rule="nonzero" fill-opacity="1" /><path clip-path="url(#clip890)" d="M3264.4 1128.14 L3269.28 1128.14 L3269.28 1134.01 L3264.4 1134.01 L3264.4 1128.14 Z" fill="#000000" fill-rule="nonzero" fill-opacity="1" /><path clip-path="url(#clip890)" d="M3279.51 1099.45 L3297.87 1099.45 L3297.87 1103.39 L3283.8 1103.39 L3283.8 1111.86 Q3284.81 1111.51 3285.83 1111.35 Q3286.85 1111.17 3287.87 1111.17 Q3293.66 1111.17 3297.04 1114.34 Q3300.42 1117.51 3300.42 1122.93 Q3300.42 1128.51 3296.94 1131.61 Q3293.47 1134.69 3287.15 1134.69 Q3284.98 1134.69 3282.71 1134.32 Q3280.46 1133.95 3278.06 1133.2 L3278.06 1128.51 Q3280.14 1129.64 3282.36 1130.2 Q3284.58 1130.75 3287.06 1130.75 Q3291.06 1130.75 3293.4 1128.64 Q3295.74 1126.54 3295.74 1122.93 Q3295.74 1119.32 3293.4 1117.21 Q3291.06 1115.1 3287.06 1115.1 Q3285.18 1115.1 3283.31 1115.52 Q3281.46 1115.94 3279.51 1116.82 L3279.51 1099.45 Z" fill="#000000" fill-rule="nonzero" fill-opacity="1" /><path clip-path="url(#clip890)" d="M3309.68 1099.45 L3328.03 1099.45 L3328.03 1103.39 L3313.96 1103.39 L3313.96 1111.86 Q3314.98 1111.51 3315.99 1111.35 Q3317.01 1111.17 3318.03 1111.17 Q3323.82 1111.17 3327.2 1114.34 Q3330.58 1117.51 3330.58 1122.93 Q3330.58 1128.51 3327.11 1131.61 Q3323.63 1134.69 3317.31 1134.69 Q3315.14 1134.69 3312.87 1134.32 Q3310.62 1133.95 3308.22 1133.2 L3308.22 1128.51 Q3310.3 1129.64 3312.52 1130.2 Q3314.74 1130.75 3317.22 1130.75 Q3321.23 1130.75 3323.56 1128.64 Q3325.9 1126.54 3325.9 1122.93 Q3325.9 1119.32 3323.56 1117.21 Q3321.23 1115.1 3317.22 1115.1 Q3315.35 1115.1 3313.47 1115.52 Q3311.62 1115.94 3309.68 1116.82 L3309.68 1099.45 Z" fill="#000000" fill-rule="nonzero" fill-opacity="1" /><polyline clip-path="url(#clip890)" style="stroke:#0000ff; stroke-linecap:round; stroke-linejoin:round; stroke-width:8; stroke-opacity:1; fill:none" points="2901.38,1168.57 3123.75,1168.57 "/>
<path clip-path="url(#clip890)" d="M3177.78 1173.79 L3176.76 1168.45 Q3175.72 1162.96 3171.6 1162.96 Q3168.5 1162.96 3167.08 1165.51 Q3165.3 1168.7 3165.3 1172.91 Q3165.3 1178.01 3167.04 1180.44 Q3168.8 1182.91 3171.6 1182.91 Q3174.7 1182.91 3176.37 1177.98 L3177.78 1173.79 M3180.16 1166.71 L3182.45 1159.93 L3186.25 1159.93 L3181.5 1173.98 L3182.43 1179.05 Q3182.64 1180.18 3183.45 1181.13 Q3184.4 1182.24 3185.14 1182.24 L3187.18 1182.24 L3187.18 1185.85 L3184.63 1185.85 Q3182.45 1185.85 3180.51 1183.91 Q3179.56 1182.94 3179.17 1180.9 Q3178.1 1183.47 3175.93 1185.48 Q3174.91 1186.43 3171.6 1186.43 Q3166.16 1186.43 3163.52 1182.91 Q3160.81 1179.28 3160.81 1172.91 Q3160.81 1166.11 3163.75 1162.91 Q3167.01 1159.35 3171.6 1159.35 Q3178.8 1159.35 3180.16 1166.71 Z" fill="#000000" fill-rule="nonzero" fill-opacity="1" /><path clip-path="url(#clip890)" d="M3194.47 1164.33 L3224.14 1164.33 L3224.14 1168.22 L3194.47 1168.22 L3194.47 1164.33 M3194.47 1173.77 L3224.14 1173.77 L3224.14 1177.71 L3194.47 1177.71 L3194.47 1173.77 Z" fill="#000000" fill-rule="nonzero" fill-opacity="1" /><path clip-path="url(#clip890)" d="M3244.24 1154.37 Q3240.62 1154.37 3238.8 1157.94 Q3236.99 1161.48 3236.99 1168.61 Q3236.99 1175.72 3238.8 1179.28 Q3240.62 1182.82 3244.24 1182.82 Q3247.87 1182.82 3249.68 1179.28 Q3251.5 1175.72 3251.5 1168.61 Q3251.5 1161.48 3249.68 1157.94 Q3247.87 1154.37 3244.24 1154.37 M3244.24 1150.67 Q3250.05 1150.67 3253.1 1155.28 Q3256.18 1159.86 3256.18 1168.61 Q3256.18 1177.34 3253.1 1181.94 Q3250.05 1186.53 3244.24 1186.53 Q3238.43 1186.53 3235.35 1181.94 Q3232.29 1177.34 3232.29 1168.61 Q3232.29 1159.86 3235.35 1155.28 Q3238.43 1150.67 3244.24 1150.67 Z" fill="#000000" fill-rule="nonzero" fill-opacity="1" /><path clip-path="url(#clip890)" d="M3264.4 1179.98 L3269.28 1179.98 L3269.28 1185.85 L3264.4 1185.85 L3264.4 1179.98 Z" fill="#000000" fill-rule="nonzero" fill-opacity="1" /><path clip-path="url(#clip890)" d="M3290.05 1166.71 Q3286.9 1166.71 3285.05 1168.86 Q3283.22 1171.02 3283.22 1174.77 Q3283.22 1178.49 3285.05 1180.67 Q3286.9 1182.82 3290.05 1182.82 Q3293.19 1182.82 3295.02 1180.67 Q3296.87 1178.49 3296.87 1174.77 Q3296.87 1171.02 3295.02 1168.86 Q3293.19 1166.71 3290.05 1166.71 M3299.33 1152.06 L3299.33 1156.32 Q3297.57 1155.48 3295.76 1155.04 Q3293.98 1154.6 3292.22 1154.6 Q3287.59 1154.6 3285.14 1157.73 Q3282.71 1160.85 3282.36 1167.17 Q3283.73 1165.16 3285.79 1164.1 Q3287.85 1163.01 3290.32 1163.01 Q3295.53 1163.01 3298.54 1166.18 Q3301.57 1169.33 3301.57 1174.77 Q3301.57 1180.09 3298.43 1183.31 Q3295.28 1186.53 3290.05 1186.53 Q3284.05 1186.53 3280.88 1181.94 Q3277.71 1177.34 3277.71 1168.61 Q3277.71 1160.41 3281.6 1155.55 Q3285.49 1150.67 3292.04 1150.67 Q3293.8 1150.67 3295.58 1151.02 Q3297.38 1151.36 3299.33 1152.06 Z" fill="#000000" fill-rule="nonzero" fill-opacity="1" /><path clip-path="url(#clip890)" d="M3309.68 1151.29 L3328.03 1151.29 L3328.03 1155.23 L3313.96 1155.23 L3313.96 1163.7 Q3314.98 1163.35 3315.99 1163.19 Q3317.01 1163.01 3318.03 1163.01 Q3323.82 1163.01 3327.2 1166.18 Q3330.58 1169.35 3330.58 1174.77 Q3330.58 1180.35 3327.11 1183.45 Q3323.63 1186.53 3317.31 1186.53 Q3315.14 1186.53 3312.87 1186.16 Q3310.62 1185.79 3308.22 1185.04 L3308.22 1180.35 Q3310.3 1181.48 3312.52 1182.04 Q3314.74 1182.59 3317.22 1182.59 Q3321.23 1182.59 3323.56 1180.48 Q3325.9 1178.38 3325.9 1174.77 Q3325.9 1171.16 3323.56 1169.05 Q3321.23 1166.94 3317.22 1166.94 Q3315.35 1166.94 3313.47 1167.36 Q3311.62 1167.78 3309.68 1168.66 L3309.68 1151.29 Z" fill="#000000" fill-rule="nonzero" fill-opacity="1" /><polyline clip-path="url(#clip890)" style="stroke:#008080; stroke-linecap:round; stroke-linejoin:round; stroke-width:8; stroke-opacity:1; fill:none" points="2901.38,1220.41 3123.75,1220.41 "/>
<path clip-path="url(#clip890)" d="M3177.78 1225.63 L3176.76 1220.29 Q3175.72 1214.8 3171.6 1214.8 Q3168.5 1214.8 3167.08 1217.35 Q3165.3 1220.54 3165.3 1224.75 Q3165.3 1229.85 3167.04 1232.28 Q3168.8 1234.75 3171.6 1234.75 Q3174.7 1234.75 3176.37 1229.82 L3177.78 1225.63 M3180.16 1218.55 L3182.45 1211.77 L3186.25 1211.77 L3181.5 1225.82 L3182.43 1230.89 Q3182.64 1232.02 3183.45 1232.97 Q3184.4 1234.08 3185.14 1234.08 L3187.18 1234.08 L3187.18 1237.69 L3184.63 1237.69 Q3182.45 1237.69 3180.51 1235.75 Q3179.56 1234.78 3179.17 1232.74 Q3178.1 1235.31 3175.93 1237.32 Q3174.91 1238.27 3171.6 1238.27 Q3166.16 1238.27 3163.52 1234.75 Q3160.81 1231.12 3160.81 1224.75 Q3160.81 1217.95 3163.75 1214.75 Q3167.01 1211.19 3171.6 1211.19 Q3178.8 1211.19 3180.16 1218.55 Z" fill="#000000" fill-rule="nonzero" fill-opacity="1" /><path clip-path="url(#clip890)" d="M3194.47 1216.17 L3224.14 1216.17 L3224.14 1220.06 L3194.47 1220.06 L3194.47 1216.17 M3194.47 1225.61 L3224.14 1225.61 L3224.14 1229.55 L3194.47 1229.55 L3194.47 1225.61 Z" fill="#000000" fill-rule="nonzero" fill-opacity="1" /><path clip-path="url(#clip890)" d="M3244.24 1206.21 Q3240.62 1206.21 3238.8 1209.78 Q3236.99 1213.32 3236.99 1220.45 Q3236.99 1227.56 3238.8 1231.12 Q3240.62 1234.66 3244.24 1234.66 Q3247.87 1234.66 3249.68 1231.12 Q3251.5 1227.56 3251.5 1220.45 Q3251.5 1213.32 3249.68 1209.78 Q3247.87 1206.21 3244.24 1206.21 M3244.24 1202.51 Q3250.05 1202.51 3253.1 1207.12 Q3256.18 1211.7 3256.18 1220.45 Q3256.18 1229.18 3253.1 1233.78 Q3250.05 1238.37 3244.24 1238.37 Q3238.43 1238.37 3235.35 1233.78 Q3232.29 1229.18 3232.29 1220.45 Q3232.29 1211.7 3235.35 1207.12 Q3238.43 1202.51 3244.24 1202.51 Z" fill="#000000" fill-rule="nonzero" fill-opacity="1" /><path clip-path="url(#clip890)" d="M3264.4 1231.82 L3269.28 1231.82 L3269.28 1237.69 L3264.4 1237.69 L3264.4 1231.82 Z" fill="#000000" fill-rule="nonzero" fill-opacity="1" /><path clip-path="url(#clip890)" d="M3278.29 1203.13 L3300.51 1203.13 L3300.51 1205.13 L3287.96 1237.69 L3283.08 1237.69 L3294.88 1207.07 L3278.29 1207.07 L3278.29 1203.13 Z" fill="#000000" fill-rule="nonzero" fill-opacity="1" /><path clip-path="url(#clip890)" d="M3309.68 1203.13 L3328.03 1203.13 L3328.03 1207.07 L3313.96 1207.07 L3313.96 1215.54 Q3314.98 1215.19 3315.99 1215.03 Q3317.01 1214.85 3318.03 1214.85 Q3323.82 1214.85 3327.2 1218.02 Q3330.58 1221.19 3330.58 1226.61 Q3330.58 1232.19 3327.11 1235.29 Q3323.63 1238.37 3317.31 1238.37 Q3315.14 1238.37 3312.87 1238 Q3310.62 1237.63 3308.22 1236.88 L3308.22 1232.19 Q3310.3 1233.32 3312.52 1233.88 Q3314.74 1234.43 3317.22 1234.43 Q3321.23 1234.43 3323.56 1232.32 Q3325.9 1230.22 3325.9 1226.61 Q3325.9 1223 3323.56 1220.89 Q3321.23 1218.78 3317.22 1218.78 Q3315.35 1218.78 3313.47 1219.2 Q3311.62 1219.62 3309.68 1220.5 L3309.68 1203.13 Z" fill="#000000" fill-rule="nonzero" fill-opacity="1" /><polyline clip-path="url(#clip890)" style="stroke:#008000; stroke-linecap:round; stroke-linejoin:round; stroke-width:8; stroke-opacity:1; fill:none" points="2901.38,1272.25 3123.75,1272.25 "/>
<path clip-path="url(#clip890)" d="M3177.78 1277.47 L3176.76 1272.13 Q3175.72 1266.64 3171.6 1266.64 Q3168.5 1266.64 3167.08 1269.19 Q3165.3 1272.38 3165.3 1276.59 Q3165.3 1281.69 3167.04 1284.12 Q3168.8 1286.59 3171.6 1286.59 Q3174.7 1286.59 3176.37 1281.66 L3177.78 1277.47 M3180.16 1270.39 L3182.45 1263.61 L3186.25 1263.61 L3181.5 1277.66 L3182.43 1282.73 Q3182.64 1283.86 3183.45 1284.81 Q3184.4 1285.92 3185.14 1285.92 L3187.18 1285.92 L3187.18 1289.53 L3184.63 1289.53 Q3182.45 1289.53 3180.51 1287.59 Q3179.56 1286.62 3179.17 1284.58 Q3178.1 1287.15 3175.93 1289.16 Q3174.91 1290.11 3171.6 1290.11 Q3166.16 1290.11 3163.52 1286.59 Q3160.81 1282.96 3160.81 1276.59 Q3160.81 1269.79 3163.75 1266.59 Q3167.01 1263.03 3171.6 1263.03 Q3178.8 1263.03 3180.16 1270.39 Z" fill="#000000" fill-rule="nonzero" fill-opacity="1" /><path clip-path="url(#clip890)" d="M3194.47 1268.01 L3224.14 1268.01 L3224.14 1271.9 L3194.47 1271.9 L3194.47 1268.01 M3194.47 1277.45 L3224.14 1277.45 L3224.14 1281.39 L3194.47 1281.39 L3194.47 1277.45 Z" fill="#000000" fill-rule="nonzero" fill-opacity="1" /><path clip-path="url(#clip890)" d="M3244.24 1258.05 Q3240.62 1258.05 3238.8 1261.62 Q3236.99 1265.16 3236.99 1272.29 Q3236.99 1279.4 3238.8 1282.96 Q3240.62 1286.5 3244.24 1286.5 Q3247.87 1286.5 3249.68 1282.96 Q3251.5 1279.4 3251.5 1272.29 Q3251.5 1265.16 3249.68 1261.62 Q3247.87 1258.05 3244.24 1258.05 M3244.24 1254.35 Q3250.05 1254.35 3253.1 1258.96 Q3256.18 1263.54 3256.18 1272.29 Q3256.18 1281.02 3253.1 1285.62 Q3250.05 1290.21 3244.24 1290.21 Q3238.43 1290.21 3235.35 1285.62 Q3232.29 1281.02 3232.29 1272.29 Q3232.29 1263.54 3235.35 1258.96 Q3238.43 1254.35 3244.24 1254.35 Z" fill="#000000" fill-rule="nonzero" fill-opacity="1" /><path clip-path="url(#clip890)" d="M3264.4 1283.66 L3269.28 1283.66 L3269.28 1289.53 L3264.4 1289.53 L3264.4 1283.66 Z" fill="#000000" fill-rule="nonzero" fill-opacity="1" /><path clip-path="url(#clip890)" d="M3289.47 1273.12 Q3286.13 1273.12 3284.21 1274.91 Q3282.31 1276.69 3282.31 1279.81 Q3282.31 1282.94 3284.21 1284.72 Q3286.13 1286.5 3289.47 1286.5 Q3292.8 1286.5 3294.72 1284.72 Q3296.64 1282.91 3296.64 1279.81 Q3296.64 1276.69 3294.72 1274.91 Q3292.82 1273.12 3289.47 1273.12 M3284.79 1271.13 Q3281.78 1270.39 3280.09 1268.33 Q3278.43 1266.27 3278.43 1263.31 Q3278.43 1259.16 3281.37 1256.76 Q3284.33 1254.35 3289.47 1254.35 Q3294.63 1254.35 3297.57 1256.76 Q3300.51 1259.16 3300.51 1263.31 Q3300.51 1266.27 3298.82 1268.33 Q3297.15 1270.39 3294.17 1271.13 Q3297.55 1271.92 3299.42 1274.21 Q3301.32 1276.5 3301.32 1279.81 Q3301.32 1284.84 3298.24 1287.52 Q3295.18 1290.21 3289.47 1290.21 Q3283.75 1290.21 3280.67 1287.52 Q3277.62 1284.84 3277.62 1279.81 Q3277.62 1276.5 3279.51 1274.21 Q3281.41 1271.92 3284.79 1271.13 M3283.08 1263.75 Q3283.08 1266.43 3284.74 1267.94 Q3286.43 1269.44 3289.47 1269.44 Q3292.48 1269.44 3294.17 1267.94 Q3295.88 1266.43 3295.88 1263.75 Q3295.88 1261.06 3294.17 1259.56 Q3292.48 1258.05 3289.47 1258.05 Q3286.43 1258.05 3284.74 1259.56 Q3283.08 1261.06 3283.08 1263.75 Z" fill="#000000" fill-rule="nonzero" fill-opacity="1" /><path clip-path="url(#clip890)" d="M3309.68 1254.97 L3328.03 1254.97 L3328.03 1258.91 L3313.96 1258.91 L3313.96 1267.38 Q3314.98 1267.03 3315.99 1266.87 Q3317.01 1266.69 3318.03 1266.69 Q3323.82 1266.69 3327.2 1269.86 Q3330.58 1273.03 3330.58 1278.45 Q3330.58 1284.03 3327.11 1287.13 Q3323.63 1290.21 3317.31 1290.21 Q3315.14 1290.21 3312.87 1289.84 Q3310.62 1289.47 3308.22 1288.72 L3308.22 1284.03 Q3310.3 1285.16 3312.52 1285.72 Q3314.74 1286.27 3317.22 1286.27 Q3321.23 1286.27 3323.56 1284.16 Q3325.9 1282.06 3325.9 1278.45 Q3325.9 1274.84 3323.56 1272.73 Q3321.23 1270.62 3317.22 1270.62 Q3315.35 1270.62 3313.47 1271.04 Q3311.62 1271.46 3309.68 1272.34 L3309.68 1254.97 Z" fill="#000000" fill-rule="nonzero" fill-opacity="1" /><polyline clip-path="url(#clip890)" style="stroke:#ffa500; stroke-linecap:round; stroke-linejoin:round; stroke-width:8; stroke-opacity:1; fill:none" points="2901.38,1324.09 3123.75,1324.09 "/>
<path clip-path="url(#clip890)" d="M3177.78 1329.31 L3176.76 1323.97 Q3175.72 1318.48 3171.6 1318.48 Q3168.5 1318.48 3167.08 1321.03 Q3165.3 1324.22 3165.3 1328.43 Q3165.3 1333.53 3167.04 1335.96 Q3168.8 1338.43 3171.6 1338.43 Q3174.7 1338.43 3176.37 1333.5 L3177.78 1329.31 M3180.16 1322.23 L3182.45 1315.45 L3186.25 1315.45 L3181.5 1329.5 L3182.43 1334.57 Q3182.64 1335.7 3183.45 1336.65 Q3184.4 1337.76 3185.14 1337.76 L3187.18 1337.76 L3187.18 1341.37 L3184.63 1341.37 Q3182.45 1341.37 3180.51 1339.43 Q3179.56 1338.46 3179.17 1336.42 Q3178.1 1338.99 3175.93 1341 Q3174.91 1341.95 3171.6 1341.95 Q3166.16 1341.95 3163.52 1338.43 Q3160.81 1334.8 3160.81 1328.43 Q3160.81 1321.63 3163.75 1318.43 Q3167.01 1314.87 3171.6 1314.87 Q3178.8 1314.87 3180.16 1322.23 Z" fill="#000000" fill-rule="nonzero" fill-opacity="1" /><path clip-path="url(#clip890)" d="M3194.47 1319.85 L3224.14 1319.85 L3224.14 1323.74 L3194.47 1323.74 L3194.47 1319.85 M3194.47 1329.29 L3224.14 1329.29 L3224.14 1333.23 L3194.47 1333.23 L3194.47 1329.29 Z" fill="#000000" fill-rule="nonzero" fill-opacity="1" /><path clip-path="url(#clip890)" d="M3244.24 1309.89 Q3240.62 1309.89 3238.8 1313.46 Q3236.99 1317 3236.99 1324.13 Q3236.99 1331.24 3238.8 1334.8 Q3240.62 1338.34 3244.24 1338.34 Q3247.87 1338.34 3249.68 1334.8 Q3251.5 1331.24 3251.5 1324.13 Q3251.5 1317 3249.68 1313.46 Q3247.87 1309.89 3244.24 1309.89 M3244.24 1306.19 Q3250.05 1306.19 3253.1 1310.8 Q3256.18 1315.38 3256.18 1324.13 Q3256.18 1332.86 3253.1 1337.46 Q3250.05 1342.05 3244.24 1342.05 Q3238.43 1342.05 3235.35 1337.46 Q3232.29 1332.86 3232.29 1324.13 Q3232.29 1315.38 3235.35 1310.8 Q3238.43 1306.19 3244.24 1306.19 Z" fill="#000000" fill-rule="nonzero" fill-opacity="1" /><path clip-path="url(#clip890)" d="M3264.4 1335.5 L3269.28 1335.5 L3269.28 1341.37 L3264.4 1341.37 L3264.4 1335.5 Z" fill="#000000" fill-rule="nonzero" fill-opacity="1" /><path clip-path="url(#clip890)" d="M3279.61 1340.66 L3279.61 1336.4 Q3281.37 1337.23 3283.17 1337.67 Q3284.98 1338.11 3286.71 1338.11 Q3291.34 1338.11 3293.77 1335.01 Q3296.23 1331.88 3296.57 1325.54 Q3295.23 1327.53 3293.17 1328.6 Q3291.11 1329.66 3288.61 1329.66 Q3283.43 1329.66 3280.39 1326.54 Q3277.38 1323.39 3277.38 1317.95 Q3277.38 1312.62 3280.53 1309.41 Q3283.68 1306.19 3288.91 1306.19 Q3294.91 1306.19 3298.06 1310.8 Q3301.23 1315.38 3301.23 1324.13 Q3301.23 1332.3 3297.34 1337.18 Q3293.47 1342.05 3286.92 1342.05 Q3285.16 1342.05 3283.36 1341.7 Q3281.55 1341.35 3279.61 1340.66 M3288.91 1326 Q3292.06 1326 3293.89 1323.85 Q3295.74 1321.7 3295.74 1317.95 Q3295.74 1314.22 3293.89 1312.07 Q3292.06 1309.89 3288.91 1309.89 Q3285.76 1309.89 3283.91 1312.07 Q3282.08 1314.22 3282.08 1317.95 Q3282.08 1321.7 3283.91 1323.85 Q3285.76 1326 3288.91 1326 Z" fill="#000000" fill-rule="nonzero" fill-opacity="1" /><path clip-path="url(#clip890)" d="M3309.68 1306.81 L3328.03 1306.81 L3328.03 1310.75 L3313.96 1310.75 L3313.96 1319.22 Q3314.98 1318.87 3315.99 1318.71 Q3317.01 1318.53 3318.03 1318.53 Q3323.82 1318.53 3327.2 1321.7 Q3330.58 1324.87 3330.58 1330.29 Q3330.58 1335.87 3327.11 1338.97 Q3323.63 1342.05 3317.31 1342.05 Q3315.14 1342.05 3312.87 1341.68 Q3310.62 1341.31 3308.22 1340.56 L3308.22 1335.87 Q3310.3 1337 3312.52 1337.56 Q3314.74 1338.11 3317.22 1338.11 Q3321.23 1338.11 3323.56 1336 Q3325.9 1333.9 3325.9 1330.29 Q3325.9 1326.68 3323.56 1324.57 Q3321.23 1322.46 3317.22 1322.46 Q3315.35 1322.46 3313.47 1322.88 Q3311.62 1323.3 3309.68 1324.18 L3309.68 1306.81 Z" fill="#000000" fill-rule="nonzero" fill-opacity="1" /><polyline clip-path="url(#clip890)" style="stroke:#ff0000; stroke-linecap:round; stroke-linejoin:round; stroke-width:8; stroke-opacity:1; fill:none" points="2901.38,1375.93 3123.75,1375.93 "/>
<path clip-path="url(#clip890)" d="M3177.78 1381.15 L3176.76 1375.81 Q3175.72 1370.32 3171.6 1370.32 Q3168.5 1370.32 3167.08 1372.87 Q3165.3 1376.06 3165.3 1380.27 Q3165.3 1385.37 3167.04 1387.8 Q3168.8 1390.27 3171.6 1390.27 Q3174.7 1390.27 3176.37 1385.34 L3177.78 1381.15 M3180.16 1374.07 L3182.45 1367.29 L3186.25 1367.29 L3181.5 1381.34 L3182.43 1386.41 Q3182.64 1387.54 3183.45 1388.49 Q3184.4 1389.6 3185.14 1389.6 L3187.18 1389.6 L3187.18 1393.21 L3184.63 1393.21 Q3182.45 1393.21 3180.51 1391.27 Q3179.56 1390.3 3179.17 1388.26 Q3178.1 1390.83 3175.93 1392.84 Q3174.91 1393.79 3171.6 1393.79 Q3166.16 1393.79 3163.52 1390.27 Q3160.81 1386.64 3160.81 1380.27 Q3160.81 1373.47 3163.75 1370.27 Q3167.01 1366.71 3171.6 1366.71 Q3178.8 1366.71 3180.16 1374.07 Z" fill="#000000" fill-rule="nonzero" fill-opacity="1" /><path clip-path="url(#clip890)" d="M3194.47 1371.69 L3224.14 1371.69 L3224.14 1375.58 L3194.47 1375.58 L3194.47 1371.69 M3194.47 1381.13 L3224.14 1381.13 L3224.14 1385.07 L3194.47 1385.07 L3194.47 1381.13 Z" fill="#000000" fill-rule="nonzero" fill-opacity="1" /><path clip-path="url(#clip890)" d="M3235.05 1389.28 L3242.68 1389.28 L3242.68 1362.91 L3234.37 1364.58 L3234.37 1360.32 L3242.64 1358.65 L3247.31 1358.65 L3247.31 1389.28 L3254.95 1389.28 L3254.95 1393.21 L3235.05 1393.21 L3235.05 1389.28 Z" fill="#000000" fill-rule="nonzero" fill-opacity="1" /><path clip-path="url(#clip890)" d="M3264.4 1387.34 L3269.28 1387.34 L3269.28 1393.21 L3264.4 1393.21 L3264.4 1387.34 Z" fill="#000000" fill-rule="nonzero" fill-opacity="1" /><path clip-path="url(#clip890)" d="M3289.47 1361.73 Q3285.86 1361.73 3284.03 1365.3 Q3282.22 1368.84 3282.22 1375.97 Q3282.22 1383.08 3284.03 1386.64 Q3285.86 1390.18 3289.47 1390.18 Q3293.1 1390.18 3294.91 1386.64 Q3296.74 1383.08 3296.74 1375.97 Q3296.74 1368.84 3294.91 1365.3 Q3293.1 1361.73 3289.47 1361.73 M3289.47 1358.03 Q3295.28 1358.03 3298.33 1362.64 Q3301.41 1367.22 3301.41 1375.97 Q3301.41 1384.7 3298.33 1389.3 Q3295.28 1393.89 3289.47 1393.89 Q3283.66 1393.89 3280.58 1389.3 Q3277.52 1384.7 3277.52 1375.97 Q3277.52 1367.22 3280.58 1362.64 Q3283.66 1358.03 3289.47 1358.03 Z" fill="#000000" fill-rule="nonzero" fill-opacity="1" /><polyline clip-path="url(#clip890)" style="stroke:#000000; stroke-linecap:round; stroke-linejoin:round; stroke-width:4; stroke-opacity:1; fill:none" stroke-dasharray="2, 4" points="2901.38,1427.77 3123.75,1427.77 "/>
<path clip-path="url(#clip890)" d="M3183.19 1419.13 L3183.19 1445.05 L3178.91 1445.05 L3178.91 1422.53 L3165.09 1422.53 L3165.09 1445.05 L3160.81 1445.05 L3160.81 1419.13 L3183.19 1419.13 Z" fill="#000000" fill-rule="nonzero" fill-opacity="1" /><path clip-path="url(#clip890)" d="M3196.09 1441.17 L3196.09 1454.92 L3191.81 1454.92 L3191.81 1419.13 L3196.09 1419.13 L3196.09 1423.06 Q3197.43 1420.75 3199.47 1419.64 Q3201.53 1418.5 3204.37 1418.5 Q3209.1 1418.5 3212.04 1422.25 Q3215 1426 3215 1432.11 Q3215 1438.23 3212.04 1441.98 Q3209.1 1445.73 3204.37 1445.73 Q3201.53 1445.73 3199.47 1444.61 Q3197.43 1443.48 3196.09 1441.17 M3210.58 1432.11 Q3210.58 1427.42 3208.63 1424.75 Q3206.71 1422.07 3203.33 1422.07 Q3199.95 1422.07 3198.01 1424.75 Q3196.09 1427.42 3196.09 1432.11 Q3196.09 1436.81 3198.01 1439.5 Q3199.95 1442.16 3203.33 1442.16 Q3206.71 1442.16 3208.63 1439.5 Q3210.58 1436.81 3210.58 1432.11 Z" fill="#000000" fill-rule="nonzero" fill-opacity="1" /><path clip-path="url(#clip890)" d="M3244.24 1431.03 L3244.24 1433.11 L3224.65 1433.11 Q3224.93 1437.51 3227.29 1439.82 Q3229.68 1442.11 3233.91 1442.11 Q3236.37 1442.11 3238.66 1441.51 Q3240.97 1440.91 3243.24 1439.71 L3243.24 1443.74 Q3240.95 1444.71 3238.54 1445.22 Q3236.13 1445.73 3233.66 1445.73 Q3227.45 1445.73 3223.82 1442.11 Q3220.21 1438.5 3220.21 1432.35 Q3220.21 1425.98 3223.63 1422.25 Q3227.08 1418.5 3232.92 1418.5 Q3238.15 1418.5 3241.18 1421.88 Q3244.24 1425.24 3244.24 1431.03 M3239.98 1429.78 Q3239.93 1426.28 3238.01 1424.2 Q3236.11 1422.11 3232.96 1422.11 Q3229.4 1422.11 3227.25 1424.13 Q3225.12 1426.14 3224.79 1429.8 L3239.98 1429.78 Z" fill="#000000" fill-rule="nonzero" fill-opacity="1" /><path clip-path="url(#clip890)" d="M3257.01 1441.65 L3269.37 1441.65 L3269.37 1422.53 L3260.42 1422.53 L3260.42 1425.77 Q3260.42 1435.31 3257.68 1440.4 L3257.01 1441.65 M3250.83 1441.65 Q3252.94 1440.73 3253.87 1438.76 Q3256.13 1433.87 3256.13 1424.04 L3256.13 1419.13 L3273.66 1419.13 L3273.66 1441.65 L3277.06 1441.65 L3277.06 1451.61 L3273.66 1451.61 L3273.66 1445.05 L3252.64 1445.05 L3252.64 1451.61 L3249.24 1451.61 L3249.24 1441.65 L3250.83 1441.65 Z" fill="#000000" fill-rule="nonzero" fill-opacity="1" /><path clip-path="url(#clip890)" d="M3306.18 1431.03 L3306.18 1433.11 L3286.6 1433.11 Q3286.87 1437.51 3289.24 1439.82 Q3291.62 1442.11 3295.86 1442.11 Q3298.31 1442.11 3300.6 1441.51 Q3302.92 1440.91 3305.18 1439.71 L3305.18 1443.74 Q3302.89 1444.71 3300.49 1445.22 Q3298.08 1445.73 3295.6 1445.73 Q3289.4 1445.73 3285.76 1442.11 Q3282.15 1438.5 3282.15 1432.35 Q3282.15 1425.98 3285.58 1422.25 Q3289.03 1418.5 3294.86 1418.5 Q3300.09 1418.5 3303.12 1421.88 Q3306.18 1425.24 3306.18 1431.03 M3301.92 1429.78 Q3301.87 1426.28 3299.95 1424.2 Q3298.06 1422.11 3294.91 1422.11 Q3291.34 1422.11 3289.19 1424.13 Q3287.06 1426.14 3286.74 1429.8 L3301.92 1429.78 Z" fill="#000000" fill-rule="nonzero" fill-opacity="1" /><path clip-path="url(#clip890)" d="M3310.46 1445.05 L3310.46 1441.51 Q3314.68 1440.86 3315.97 1437.95 Q3317.55 1433.85 3317.55 1423.36 L3317.55 1419.13 L3335.07 1419.13 L3335.07 1445.05 L3330.81 1445.05 L3330.81 1422.53 L3321.8 1422.53 L3321.8 1425.1 Q3321.8 1435.1 3319.77 1439.59 Q3317.59 1444.38 3310.46 1445.05 Z" fill="#000000" fill-rule="nonzero" fill-opacity="1" /><path clip-path="url(#clip890)" d="M3344.03 1423.53 L3373.7 1423.53 L3373.7 1427.42 L3344.03 1427.42 L3344.03 1423.53 M3344.03 1432.97 L3373.7 1432.97 L3373.7 1436.91 L3344.03 1436.91 L3344.03 1432.97 Z" fill="#000000" fill-rule="nonzero" fill-opacity="1" /><path clip-path="url(#clip890)" d="M3384.61 1441.12 L3392.24 1441.12 L3392.24 1414.75 L3383.93 1416.42 L3383.93 1412.16 L3392.2 1410.49 L3396.87 1410.49 L3396.87 1441.12 L3404.51 1441.12 L3404.51 1445.05 L3384.61 1445.05 L3384.61 1441.12 Z" fill="#000000" fill-rule="nonzero" fill-opacity="1" /></svg>
