<?xml version="1.0" encoding="utf-8"?>
<svg xmlns="http://www.w3.org/2000/svg" xmlns:xlink="http://www.w3.org/1999/xlink" width="800" height="420" viewBox="0 0 3200 1680">
<defs>
  <clipPath id="clip680">
    <rect x="0" y="0" width="3200" height="1680"/>
  </clipPath>
</defs>
<path clip-path="url(#clip680)" d="M0 1680 L3200 1680 L3200 0 L0 0  Z" fill="#ffffff" fill-rule="evenodd" fill-opacity="1"/>
<defs>
  <clipPath id="clip681">
    <rect x="230" y="110" width="2923" height="1410"/>
  </clipPath>
</defs>
<path clip-path="url(#clip680)" d="M230.291 1519.82 L3152.76 1519.82 L3152.76 110.62 L230.291 110.62  Z" fill="#ffffff" fill-rule="evenodd" fill-opacity="1"/>
<polyline clip-path="url(#clip681)" style="stroke:#000000; stroke-linecap:round; stroke-linejoin:round; stroke-width:2; stroke-opacity:0.1; fill:none" points="536.123,1519.82 536.123,110.62 "/>
<polyline clip-path="url(#clip681)" style="stroke:#000000; stroke-linecap:round; stroke-linejoin:round; stroke-width:2; stroke-opacity:0.1; fill:none" points="792.879,1519.82 792.879,110.62 "/>
<polyline clip-path="url(#clip681)" style="stroke:#000000; stroke-linecap:round; stroke-linejoin:round; stroke-width:2; stroke-opacity:0.1; fill:none" points="1049.63,1519.82 1049.63,110.62 "/>
<polyline clip-path="url(#clip681)" style="stroke:#000000; stroke-linecap:round; stroke-linejoin:round; stroke-width:2; stroke-opacity:0.1; fill:none" points="1306.39,1519.82 1306.39,110.62 "/>
<polyline clip-path="url(#clip681)" style="stroke:#000000; stroke-linecap:round; stroke-linejoin:round; stroke-width:2; stroke-opacity:0.1; fill:none" points="1563.15,1519.82 1563.15,110.62 "/>
<polyline clip-path="url(#clip681)" style="stroke:#000000; stroke-linecap:round; stroke-linejoin:round; stroke-width:2; stroke-opacity:0.1; fill:none" points="1819.9,1519.82 1819.9,110.62 "/>
<polyline clip-path="url(#clip681)" style="stroke:#000000; stroke-linecap:round; stroke-linejoin:round; stroke-width:2; stroke-opacity:0.1; fill:none" points="2076.66,1519.82 2076.66,110.62 "/>
<polyline clip-path="url(#clip681)" style="stroke:#000000; stroke-linecap:round; stroke-linejoin:round; stroke-width:2; stroke-opacity:0.1; fill:none" points="2333.41,1519.82 2333.41,110.62 "/>
<polyline clip-path="url(#clip681)" style="stroke:#000000; stroke-linecap:round; stroke-linejoin:round; stroke-width:2; stroke-opacity:0.1; fill:none" points="2590.17,1519.82 2590.17,110.62 "/>
<polyline clip-path="url(#clip681)" style="stroke:#000000; stroke-linecap:round; stroke-linejoin:round; stroke-width:2; stroke-opacity:0.1; fill:none" points="2846.92,1519.82 2846.92,110.62 "/>
<polyline clip-path="url(#clip681)" style="stroke:#000000; stroke-linecap:round; stroke-linejoin:round; stroke-width:2; stroke-opacity:0.1; fill:none" points="230.291,1519.82 3152.76,1519.82 "/>
<polyline clip-path="url(#clip681)" style="stroke:#000000; stroke-linecap:round; stroke-linejoin:round; stroke-width:2; stroke-opacity:0.1; fill:none" points="230.291,1237.98 3152.76,1237.98 "/>
<polyline clip-path="url(#clip681)" style="stroke:#000000; stroke-linecap:round; stroke-linejoin:round; stroke-width:2; stroke-opacity:0.1; fill:none" points="230.291,956.141 3152.76,956.141 "/>
<polyline clip-path="url(#clip681)" style="stroke:#000000; stroke-linecap:round; stroke-linejoin:round; stroke-width:2; stroke-opacity:0.1; fill:none" points="230.291,674.301 3152.76,674.301 "/>
<polyline clip-path="url(#clip681)" style="stroke:#000000; stroke-linecap:round; stroke-linejoin:round; stroke-width:2; stroke-opacity:0.1; fill:none" points="230.291,392.46 3152.76,392.46 "/>
<polyline clip-path="url(#clip681)" style="stroke:#000000; stroke-linecap:round; stroke-linejoin:round; stroke-width:2; stroke-opacity:0.1; fill:none" points="230.291,110.62 3152.76,110.62 "/>
<polyline clip-path="url(#clip680)" style="stroke:#000000; stroke-linecap:round; stroke-linejoin:round; stroke-width:4; stroke-opacity:1; fill:none" points="230.291,1519.82 3152.76,1519.82 "/>
<polyline clip-path="url(#clip680)" style="stroke:#000000; stroke-linecap:round; stroke-linejoin:round; stroke-width:4; stroke-opacity:1; fill:none" points="536.123,1519.82 536.123,1500.92 "/>
<polyline clip-path="url(#clip680)" style="stroke:#000000; stroke-linecap:round; stroke-linejoin:round; stroke-width:4; stroke-opacity:1; fill:none" points="792.879,1519.82 792.879,1500.92 "/>
<polyline clip-path="url(#clip680)" style="stroke:#000000; stroke-linecap:round; stroke-linejoin:round; stroke-width:4; stroke-opacity:1; fill:none" points="1049.63,1519.82 1049.63,1500.92 "/>
<polyline clip-path="url(#clip680)" style="stroke:#000000; stroke-linecap:round; stroke-linejoin:round; stroke-width:4; stroke-opacity:1; fill:none" points="1306.39,1519.82 1306.39,1500.92 "/>
<polyline clip-path="url(#clip680)" style="stroke:#000000; stroke-linecap:round; stroke-linejoin:round; stroke-width:4; stroke-opacity:1; fill:none" points="1563.15,1519.82 1563.15,1500.92 "/>
<polyline clip-path="url(#clip680)" style="stroke:#000000; stroke-linecap:round; stroke-linejoin:round; stroke-width:4; stroke-opacity:1; fill:none" points="1819.9,1519.82 1819.9,1500.92 "/>
<polyline clip-path="url(#clip680)" style="stroke:#000000; stroke-linecap:round; stroke-linejoin:round; stroke-width:4; stroke-opacity:1; fill:none" points="2076.66,1519.82 2076.66,1500.92 "/>
<polyline clip-path="url(#clip680)" style="stroke:#000000; stroke-linecap:round; stroke-linejoin:round; stroke-width:4; stroke-opacity:1; fill:none" points="2333.41,1519.82 2333.41,1500.92 "/>
<polyline clip-path="url(#clip680)" style="stroke:#000000; stroke-linecap:round; stroke-linejoin:round; stroke-width:4; stroke-opacity:1; fill:none" points="2590.17,1519.82 2590.17,1500.92 "/>
<polyline clip-path="url(#clip680)" style="stroke:#000000; stroke-linecap:round; stroke-linejoin:round; stroke-width:4; stroke-opacity:1; fill:none" points="2846.92,1519.82 2846.92,1500.92 "/>
<path clip-path="url(#clip680)" d="M526.505 1584.69 L534.144 1584.69 L534.144 1558.32 L525.834 1559.99 L525.834 1555.73 L534.098 1554.06 L538.774 1554.06 L538.774 1584.69 L546.413 1584.69 L546.413 1588.62 L526.505 1588.62 L526.505 1584.69 Z" fill="#000000" fill-rule="nonzero" fill-opacity="1" /><path clip-path="url(#clip680)" d="M787.532 1584.69 L803.851 1584.69 L803.851 1588.62 L781.907 1588.62 L781.907 1584.69 Q784.569 1581.93 789.152 1577.3 Q793.759 1572.65 794.939 1571.31 Q797.184 1568.78 798.064 1567.05 Q798.967 1565.29 798.967 1563.6 Q798.967 1560.84 797.022 1559.11 Q795.101 1557.37 791.999 1557.37 Q789.8 1557.37 787.347 1558.14 Q784.916 1558.9 782.138 1560.45 L782.138 1555.73 Q784.962 1554.59 787.416 1554.02 Q789.87 1553.44 791.907 1553.44 Q797.277 1553.44 800.471 1556.12 Q803.666 1558.81 803.666 1563.3 Q803.666 1565.43 802.856 1567.35 Q802.069 1569.25 799.962 1571.84 Q799.383 1572.51 796.282 1575.73 Q793.18 1578.92 787.532 1584.69 Z" fill="#000000" fill-rule="nonzero" fill-opacity="1" /><path clip-path="url(#clip680)" d="M1053.88 1569.99 Q1057.24 1570.71 1059.11 1572.97 Q1061.01 1575.24 1061.01 1578.58 Q1061.01 1583.69 1057.49 1586.49 Q1053.97 1589.29 1047.49 1589.29 Q1045.32 1589.29 1043 1588.85 Q1040.71 1588.44 1038.26 1587.58 L1038.26 1583.07 Q1040.2 1584.2 1042.52 1584.78 Q1044.83 1585.36 1047.35 1585.36 Q1051.75 1585.36 1054.04 1583.62 Q1056.36 1581.89 1056.36 1578.58 Q1056.36 1575.52 1054.21 1573.81 Q1052.08 1572.07 1048.26 1572.07 L1044.23 1572.07 L1044.23 1568.23 L1048.44 1568.23 Q1051.89 1568.23 1053.72 1566.86 Q1055.55 1565.47 1055.55 1562.88 Q1055.55 1560.22 1053.65 1558.81 Q1051.78 1557.37 1048.26 1557.37 Q1046.34 1557.37 1044.14 1557.79 Q1041.94 1558.21 1039.3 1559.08 L1039.3 1554.92 Q1041.96 1554.18 1044.28 1553.81 Q1046.61 1553.44 1048.67 1553.44 Q1054 1553.44 1057.1 1555.87 Q1060.2 1558.27 1060.2 1562.4 Q1060.2 1565.27 1058.56 1567.26 Q1056.91 1569.22 1053.88 1569.99 Z" fill="#000000" fill-rule="nonzero" fill-opacity="1" /><path clip-path="url(#clip680)" d="M1309.4 1558.14 L1297.59 1576.58 L1309.4 1576.58 L1309.4 1558.14 M1308.17 1554.06 L1314.05 1554.06 L1314.05 1576.58 L1318.98 1576.58 L1318.98 1580.47 L1314.05 1580.47 L1314.05 1588.62 L1309.4 1588.62 L1309.4 1580.47 L1293.8 1580.47 L1293.8 1575.96 L1308.17 1554.06 Z" fill="#000000" fill-rule="nonzero" fill-opacity="1" /><path clip-path="url(#clip680)" d="M1553.42 1554.06 L1571.78 1554.06 L1571.78 1558 L1557.71 1558 L1557.71 1566.47 Q1558.72 1566.12 1559.74 1565.96 Q1560.76 1565.77 1561.78 1565.77 Q1567.57 1565.77 1570.95 1568.95 Q1574.33 1572.12 1574.33 1577.53 Q1574.33 1583.11 1570.85 1586.21 Q1567.38 1589.29 1561.06 1589.29 Q1558.89 1589.29 1556.62 1588.92 Q1554.37 1588.55 1551.97 1587.81 L1551.97 1583.11 Q1554.05 1584.25 1556.27 1584.8 Q1558.49 1585.36 1560.97 1585.36 Q1564.97 1585.36 1567.31 1583.25 Q1569.65 1581.15 1569.65 1577.53 Q1569.65 1573.92 1567.31 1571.82 Q1564.97 1569.71 1560.97 1569.71 Q1559.09 1569.71 1557.22 1570.13 Q1555.37 1570.54 1553.42 1571.42 L1553.42 1554.06 Z" fill="#000000" fill-rule="nonzero" fill-opacity="1" /><path clip-path="url(#clip680)" d="M1820.31 1569.48 Q1817.16 1569.48 1815.31 1571.63 Q1813.48 1573.78 1813.48 1577.53 Q1813.48 1581.26 1815.31 1583.44 Q1817.16 1585.59 1820.31 1585.59 Q1823.45 1585.59 1825.28 1583.44 Q1827.14 1581.26 1827.14 1577.53 Q1827.14 1573.78 1825.28 1571.63 Q1823.45 1569.48 1820.31 1569.48 M1829.59 1554.83 L1829.59 1559.08 Q1827.83 1558.25 1826.02 1557.81 Q1824.24 1557.37 1822.48 1557.37 Q1817.85 1557.37 1815.4 1560.5 Q1812.97 1563.62 1812.62 1569.94 Q1813.99 1567.93 1816.05 1566.86 Q1818.11 1565.77 1820.58 1565.77 Q1825.79 1565.77 1828.8 1568.95 Q1831.83 1572.09 1831.83 1577.53 Q1831.83 1582.86 1828.69 1586.08 Q1825.54 1589.29 1820.31 1589.29 Q1814.31 1589.29 1811.14 1584.71 Q1807.97 1580.1 1807.97 1571.38 Q1807.97 1563.18 1811.86 1558.32 Q1815.75 1553.44 1822.3 1553.44 Q1824.06 1553.44 1825.84 1553.78 Q1827.64 1554.13 1829.59 1554.83 Z" fill="#000000" fill-rule="nonzero" fill-opacity="1" /><path clip-path="url(#clip680)" d="M2065.55 1554.06 L2087.77 1554.06 L2087.77 1556.05 L2075.22 1588.62 L2070.34 1588.62 L2082.14 1558 L2065.55 1558 L2065.55 1554.06 Z" fill="#000000" fill-rule="nonzero" fill-opacity="1" /><path clip-path="url(#clip680)" d="M2333.41 1572.21 Q2330.08 1572.21 2328.16 1573.99 Q2326.26 1575.77 2326.26 1578.9 Q2326.26 1582.02 2328.16 1583.81 Q2330.08 1585.59 2333.41 1585.59 Q2336.75 1585.59 2338.67 1583.81 Q2340.59 1582 2340.59 1578.9 Q2340.59 1575.77 2338.67 1573.99 Q2336.77 1572.21 2333.41 1572.21 M2328.74 1570.22 Q2325.73 1569.48 2324.04 1567.42 Q2322.37 1565.36 2322.37 1562.4 Q2322.37 1558.25 2325.31 1555.84 Q2328.27 1553.44 2333.41 1553.44 Q2338.57 1553.44 2341.51 1555.84 Q2344.45 1558.25 2344.45 1562.4 Q2344.45 1565.36 2342.76 1567.42 Q2341.1 1569.48 2338.11 1570.22 Q2341.49 1571.01 2343.37 1573.3 Q2345.26 1575.59 2345.26 1578.9 Q2345.26 1583.92 2342.19 1586.61 Q2339.13 1589.29 2333.41 1589.29 Q2327.7 1589.29 2324.62 1586.61 Q2321.56 1583.92 2321.56 1578.9 Q2321.56 1575.59 2323.46 1573.3 Q2325.36 1571.01 2328.74 1570.22 M2327.02 1562.83 Q2327.02 1565.52 2328.69 1567.02 Q2330.38 1568.53 2333.41 1568.53 Q2336.42 1568.53 2338.11 1567.02 Q2339.82 1565.52 2339.82 1562.83 Q2339.82 1560.15 2338.11 1558.65 Q2336.42 1557.14 2333.41 1557.14 Q2330.38 1557.14 2328.69 1558.65 Q2327.02 1560.15 2327.02 1562.83 Z" fill="#000000" fill-rule="nonzero" fill-opacity="1" /><path clip-path="url(#clip680)" d="M2580.47 1587.9 L2580.47 1583.65 Q2582.23 1584.48 2584.03 1584.92 Q2585.84 1585.36 2587.58 1585.36 Q2592.21 1585.36 2594.64 1582.26 Q2597.09 1579.13 2597.44 1572.79 Q2596.09 1574.78 2594.03 1575.84 Q2591.97 1576.91 2589.47 1576.91 Q2584.29 1576.91 2581.26 1573.78 Q2578.25 1570.64 2578.25 1565.2 Q2578.25 1559.87 2581.4 1556.65 Q2584.54 1553.44 2589.77 1553.44 Q2595.77 1553.44 2598.92 1558.04 Q2602.09 1562.63 2602.09 1571.38 Q2602.09 1579.55 2598.2 1584.43 Q2594.34 1589.29 2587.78 1589.29 Q2586.02 1589.29 2584.22 1588.95 Q2582.41 1588.6 2580.47 1587.9 M2589.77 1573.25 Q2592.92 1573.25 2594.75 1571.1 Q2596.6 1568.95 2596.6 1565.2 Q2596.6 1561.47 2594.75 1559.32 Q2592.92 1557.14 2589.77 1557.14 Q2586.63 1557.14 2584.77 1559.32 Q2582.95 1561.47 2582.95 1565.2 Q2582.95 1568.95 2584.77 1571.1 Q2586.63 1573.25 2589.77 1573.25 Z" fill="#000000" fill-rule="nonzero" fill-opacity="1" /><path clip-path="url(#clip680)" d="M2821.61 1584.69 L2829.25 1584.69 L2829.25 1558.32 L2820.94 1559.99 L2820.94 1555.73 L2829.2 1554.06 L2833.88 1554.06 L2833.88 1584.69 L2841.52 1584.69 L2841.52 1588.62 L2821.61 1588.62 L2821.61 1584.69 Z" fill="#000000" fill-rule="nonzero" fill-opacity="1" /><path clip-path="url(#clip680)" d="M2860.96 1557.14 Q2857.35 1557.14 2855.52 1560.71 Q2853.72 1564.25 2853.72 1571.38 Q2853.72 1578.48 2855.52 1582.05 Q2857.35 1585.59 2860.96 1585.59 Q2864.6 1585.59 2866.4 1582.05 Q2868.23 1578.48 2868.23 1571.38 Q2868.23 1564.25 2866.4 1560.71 Q2864.6 1557.14 2860.96 1557.14 M2860.96 1553.44 Q2866.77 1553.44 2869.83 1558.04 Q2872.91 1562.63 2872.91 1571.38 Q2872.91 1580.1 2869.83 1584.71 Q2866.77 1589.29 2860.96 1589.29 Q2855.15 1589.29 2852.07 1584.71 Q2849.02 1580.1 2849.02 1571.38 Q2849.02 1562.63 2852.07 1558.04 Q2855.15 1553.44 2860.96 1553.44 Z" fill="#000000" fill-rule="nonzero" fill-opacity="1" /><path clip-path="url(#clip680)" d="M1599.7 1653.99 L1599.7 1671.4 L1610.01 1671.4 Q1615.2 1671.4 1617.68 1669.27 Q1620.2 1667.11 1620.2 1662.68 Q1620.2 1658.23 1617.68 1656.12 Q1615.2 1653.99 1610.01 1653.99 L1599.7 1653.99 M1599.7 1634.45 L1599.7 1648.77 L1609.22 1648.77 Q1613.93 1648.77 1616.22 1647.02 Q1618.54 1645.24 1618.54 1641.61 Q1618.54 1638.01 1616.22 1636.23 Q1613.93 1634.45 1609.22 1634.45 L1599.7 1634.45 M1593.27 1629.17 L1609.69 1629.17 Q1617.04 1629.17 1621.02 1632.22 Q1625 1635.28 1625 1640.91 Q1625 1645.27 1622.96 1647.85 Q1620.93 1650.43 1616.98 1651.06 Q1621.72 1652.08 1624.33 1655.33 Q1626.98 1658.54 1626.98 1663.38 Q1626.98 1669.75 1622.65 1673.22 Q1618.32 1676.69 1610.33 1676.69 L1593.27 1676.69 L1593.27 1629.17 Z" fill="#000000" fill-rule="nonzero" fill-opacity="1" /><path clip-path="url(#clip680)" d="M1651.55 1645.14 Q1646.84 1645.14 1644.1 1648.84 Q1641.36 1652.5 1641.36 1658.89 Q1641.36 1665.29 1644.07 1668.98 Q1646.8 1672.64 1651.55 1672.64 Q1656.23 1672.64 1658.96 1668.95 Q1661.7 1665.26 1661.7 1658.89 Q1661.7 1652.56 1658.96 1648.87 Q1656.23 1645.14 1651.55 1645.14 M1651.55 1640.18 Q1659.19 1640.18 1663.55 1645.14 Q1667.91 1650.11 1667.91 1658.89 Q1667.91 1667.65 1663.55 1672.64 Q1659.19 1677.61 1651.55 1677.61 Q1643.88 1677.61 1639.52 1672.64 Q1635.19 1667.65 1635.19 1658.89 Q1635.19 1650.11 1639.52 1645.14 Q1643.88 1640.18 1651.55 1640.18 Z" fill="#000000" fill-rule="nonzero" fill-opacity="1" /><path clip-path="url(#clip680)" d="M1673.89 1676.69 L1673.89 1671.82 Q1679.68 1670.92 1681.47 1666.91 Q1683.63 1661.28 1683.63 1646.86 L1683.63 1641.04 L1707.72 1641.04 L1707.72 1676.69 L1701.87 1676.69 L1701.87 1645.72 L1689.49 1645.72 L1689.49 1649.25 Q1689.49 1663 1686.69 1669.17 Q1683.69 1675.76 1673.89 1676.69 Z" fill="#000000" fill-rule="nonzero" fill-opacity="1" /><path clip-path="url(#clip680)" d="M1719.06 1641.04 L1724.94 1641.04 L1724.94 1655.58 L1743.95 1655.58 L1743.95 1641.04 L1749.83 1641.04 L1749.83 1676.69 L1743.95 1676.69 L1743.95 1660.26 L1724.94 1660.26 L1724.94 1676.69 L1719.06 1676.69 L1719.06 1641.04 Z" fill="#000000" fill-rule="nonzero" fill-opacity="1" /><path clip-path="url(#clip680)" d="M1778.1 1658.77 Q1771 1658.77 1768.26 1660.39 Q1765.52 1662.01 1765.52 1665.93 Q1765.52 1669.05 1767.56 1670.89 Q1769.63 1672.71 1773.16 1672.71 Q1778.03 1672.71 1780.96 1669.27 Q1783.92 1665.8 1783.92 1660.07 L1783.92 1658.77 L1778.1 1658.77 M1789.78 1656.35 L1789.78 1676.69 L1783.92 1676.69 L1783.92 1671.27 Q1781.92 1674.52 1778.92 1676.08 Q1775.93 1677.61 1771.6 1677.61 Q1766.13 1677.61 1762.88 1674.55 Q1759.67 1671.47 1759.67 1666.31 Q1759.67 1660.29 1763.68 1657.24 Q1767.72 1654.18 1775.71 1654.18 L1783.92 1654.18 L1783.92 1653.61 Q1783.92 1649.57 1781.25 1647.37 Q1778.61 1645.14 1773.8 1645.14 Q1770.74 1645.14 1767.85 1645.88 Q1764.95 1646.61 1762.28 1648.07 L1762.28 1642.66 Q1765.49 1641.42 1768.52 1640.82 Q1771.54 1640.18 1774.41 1640.18 Q1782.14 1640.18 1785.96 1644.19 Q1789.78 1648.2 1789.78 1656.35 Z" fill="#000000" fill-rule="nonzero" fill-opacity="1" /><polyline clip-path="url(#clip680)" style="stroke:#000000; stroke-linecap:round; stroke-linejoin:round; stroke-width:4; stroke-opacity:1; fill:none" points="230.291,1519.82 230.291,110.62 "/>
<polyline clip-path="url(#clip680)" style="stroke:#000000; stroke-linecap:round; stroke-linejoin:round; stroke-width:4; stroke-opacity:1; fill:none" points="230.291,1519.82 249.189,1519.82 "/>
<polyline clip-path="url(#clip680)" style="stroke:#000000; stroke-linecap:round; stroke-linejoin:round; stroke-width:4; stroke-opacity:1; fill:none" points="230.291,1237.98 249.189,1237.98 "/>
<polyline clip-path="url(#clip680)" style="stroke:#000000; stroke-linecap:round; stroke-linejoin:round; stroke-width:4; stroke-opacity:1; fill:none" points="230.291,956.141 249.189,956.141 "/>
<polyline clip-path="url(#clip680)" style="stroke:#000000; stroke-linecap:round; stroke-linejoin:round; stroke-width:4; stroke-opacity:1; fill:none" points="230.291,674.301 249.189,674.301 "/>
<polyline clip-path="url(#clip680)" style="stroke:#000000; stroke-linecap:round; stroke-linejoin:round; stroke-width:4; stroke-opacity:1; fill:none" points="230.291,392.46 249.189,392.46 "/>
<polyline clip-path="url(#clip680)" style="stroke:#000000; stroke-linecap:round; stroke-linejoin:round; stroke-width:4; stroke-opacity:1; fill:none" points="230.291,110.62 249.189,110.62 "/>
<path clip-path="url(#clip680)" d="M170.347 1505.62 Q166.736 1505.62 164.907 1509.19 Q163.102 1512.73 163.102 1519.86 Q163.102 1526.96 164.907 1530.53 Q166.736 1534.07 170.347 1534.07 Q173.981 1534.07 175.787 1530.53 Q177.615 1526.96 177.615 1519.86 Q177.615 1512.73 175.787 1509.19 Q173.981 1505.62 170.347 1505.62 M170.347 1501.92 Q176.157 1501.92 179.213 1506.52 Q182.291 1511.11 182.291 1519.86 Q182.291 1528.58 179.213 1533.19 Q176.157 1537.77 170.347 1537.77 Q164.537 1537.77 161.458 1533.19 Q158.403 1528.58 158.403 1519.86 Q158.403 1511.11 161.458 1506.52 Q164.537 1501.92 170.347 1501.92 Z" fill="#000000" fill-rule="nonzero" fill-opacity="1" /><path clip-path="url(#clip680)" d="M134.213 1251.33 L150.532 1251.33 L150.532 1255.26 L128.588 1255.26 L128.588 1251.33 Q131.25 1248.57 135.833 1243.94 Q140.44 1239.29 141.62 1237.95 Q143.866 1235.42 144.745 1233.69 Q145.648 1231.93 145.648 1230.24 Q145.648 1227.48 143.704 1225.75 Q141.782 1224.01 138.68 1224.01 Q136.481 1224.01 134.028 1224.78 Q131.597 1225.54 128.819 1227.09 L128.819 1222.37 Q131.643 1221.23 134.097 1220.66 Q136.551 1220.08 138.588 1220.08 Q143.958 1220.08 147.153 1222.76 Q150.347 1225.45 150.347 1229.94 Q150.347 1232.07 149.537 1233.99 Q148.75 1235.89 146.643 1238.48 Q146.065 1239.15 142.963 1242.37 Q139.861 1245.56 134.213 1251.33 Z" fill="#000000" fill-rule="nonzero" fill-opacity="1" /><path clip-path="url(#clip680)" d="M170.347 1223.78 Q166.736 1223.78 164.907 1227.34 Q163.102 1230.89 163.102 1238.02 Q163.102 1245.12 164.907 1248.69 Q166.736 1252.23 170.347 1252.23 Q173.981 1252.23 175.787 1248.69 Q177.615 1245.12 177.615 1238.02 Q177.615 1230.89 175.787 1227.34 Q173.981 1223.78 170.347 1223.78 M170.347 1220.08 Q176.157 1220.08 179.213 1224.68 Q182.291 1229.27 182.291 1238.02 Q182.291 1246.74 179.213 1251.35 Q176.157 1255.93 170.347 1255.93 Q164.537 1255.93 161.458 1251.35 Q158.403 1246.74 158.403 1238.02 Q158.403 1229.27 161.458 1224.68 Q164.537 1220.08 170.347 1220.08 Z" fill="#000000" fill-rule="nonzero" fill-opacity="1" /><path clip-path="url(#clip680)" d="M143.032 942.935 L131.227 961.384 L143.032 961.384 L143.032 942.935 M141.805 938.861 L147.685 938.861 L147.685 961.384 L152.616 961.384 L152.616 965.273 L147.685 965.273 L147.685 973.421 L143.032 973.421 L143.032 965.273 L127.431 965.273 L127.431 960.759 L141.805 938.861 Z" fill="#000000" fill-rule="nonzero" fill-opacity="1" /><path clip-path="url(#clip680)" d="M170.347 941.94 Q166.736 941.94 164.907 945.505 Q163.102 949.046 163.102 956.176 Q163.102 963.282 164.907 966.847 Q166.736 970.389 170.347 970.389 Q173.981 970.389 175.787 966.847 Q177.615 963.282 177.615 956.176 Q177.615 949.046 175.787 945.505 Q173.981 941.94 170.347 941.94 M170.347 938.236 Q176.157 938.236 179.213 942.843 Q182.291 947.426 182.291 956.176 Q182.291 964.903 179.213 969.509 Q176.157 974.092 170.347 974.092 Q164.537 974.092 161.458 969.509 Q158.403 964.903 158.403 956.176 Q158.403 947.426 161.458 942.843 Q164.537 938.236 170.347 938.236 Z" fill="#000000" fill-rule="nonzero" fill-opacity="1" /><path clip-path="url(#clip680)" d="M140.764 672.437 Q137.616 672.437 135.764 674.59 Q133.935 676.743 133.935 680.493 Q133.935 684.22 135.764 686.396 Q137.616 688.548 140.764 688.548 Q143.912 688.548 145.741 686.396 Q147.592 684.22 147.592 680.493 Q147.592 676.743 145.741 674.59 Q143.912 672.437 140.764 672.437 M150.046 657.785 L150.046 662.044 Q148.287 661.211 146.481 660.771 Q144.699 660.331 142.94 660.331 Q138.31 660.331 135.856 663.456 Q133.426 666.581 133.079 672.9 Q134.444 670.886 136.505 669.822 Q138.565 668.734 141.042 668.734 Q146.25 668.734 149.259 671.905 Q152.292 675.053 152.292 680.493 Q152.292 685.817 149.143 689.035 Q145.995 692.252 140.764 692.252 Q134.768 692.252 131.597 687.669 Q128.426 683.062 128.426 674.336 Q128.426 666.141 132.315 661.28 Q136.204 656.396 142.755 656.396 Q144.514 656.396 146.296 656.743 Q148.102 657.09 150.046 657.785 Z" fill="#000000" fill-rule="nonzero" fill-opacity="1" /><path clip-path="url(#clip680)" d="M170.347 660.099 Q166.736 660.099 164.907 663.664 Q163.102 667.206 163.102 674.336 Q163.102 681.442 164.907 685.007 Q166.736 688.548 170.347 688.548 Q173.981 688.548 175.787 685.007 Q177.615 681.442 177.615 674.336 Q177.615 667.206 175.787 663.664 Q173.981 660.099 170.347 660.099 M170.347 656.396 Q176.157 656.396 179.213 661.002 Q182.291 665.586 182.291 674.336 Q182.291 683.062 179.213 687.669 Q176.157 692.252 170.347 692.252 Q164.537 692.252 161.458 687.669 Q158.403 683.062 158.403 674.336 Q158.403 665.586 161.458 661.002 Q164.537 656.396 170.347 656.396 Z" fill="#000000" fill-rule="nonzero" fill-opacity="1" /><path clip-path="url(#clip680)" d="M140.185 393.329 Q136.852 393.329 134.93 395.111 Q133.032 396.893 133.032 400.018 Q133.032 403.143 134.93 404.926 Q136.852 406.708 140.185 406.708 Q143.518 406.708 145.44 404.926 Q147.361 403.12 147.361 400.018 Q147.361 396.893 145.44 395.111 Q143.542 393.329 140.185 393.329 M135.509 391.338 Q132.5 390.597 130.81 388.537 Q129.143 386.477 129.143 383.514 Q129.143 379.37 132.083 376.963 Q135.046 374.555 140.185 374.555 Q145.347 374.555 148.287 376.963 Q151.227 379.37 151.227 383.514 Q151.227 386.477 149.537 388.537 Q147.87 390.597 144.884 391.338 Q148.264 392.125 150.139 394.416 Q152.037 396.708 152.037 400.018 Q152.037 405.041 148.958 407.727 Q145.903 410.412 140.185 410.412 Q134.468 410.412 131.389 407.727 Q128.333 405.041 128.333 400.018 Q128.333 396.708 130.231 394.416 Q132.13 392.125 135.509 391.338 M133.796 383.954 Q133.796 386.639 135.463 388.143 Q137.153 389.648 140.185 389.648 Q143.194 389.648 144.884 388.143 Q146.597 386.639 146.597 383.954 Q146.597 381.268 144.884 379.764 Q143.194 378.259 140.185 378.259 Q137.153 378.259 135.463 379.764 Q133.796 381.268 133.796 383.954 Z" fill="#000000" fill-rule="nonzero" fill-opacity="1" /><path clip-path="url(#clip680)" d="M170.347 378.259 Q166.736 378.259 164.907 381.824 Q163.102 385.366 163.102 392.495 Q163.102 399.602 164.907 403.166 Q166.736 406.708 170.347 406.708 Q173.981 406.708 175.787 403.166 Q177.615 399.602 177.615 392.495 Q177.615 385.366 175.787 381.824 Q173.981 378.259 170.347 378.259 M170.347 374.555 Q176.157 374.555 179.213 379.162 Q182.291 383.745 182.291 392.495 Q182.291 401.222 179.213 405.828 Q176.157 410.412 170.347 410.412 Q164.537 410.412 161.458 405.828 Q158.403 401.222 158.403 392.495 Q158.403 383.745 161.458 379.162 Q164.537 374.555 170.347 374.555 Z" fill="#000000" fill-rule="nonzero" fill-opacity="1" /><path clip-path="url(#clip680)" d="M100.833 123.965 L108.472 123.965 L108.472 97.5994 L100.162 99.266 L100.162 95.0068 L108.426 93.3401 L113.102 93.3401 L113.102 123.965 L120.741 123.965 L120.741 127.9 L100.833 127.9 L100.833 123.965 Z" fill="#000000" fill-rule="nonzero" fill-opacity="1" /><path clip-path="url(#clip680)" d="M140.185 96.4188 Q136.574 96.4188 134.745 99.9836 Q132.94 103.525 132.94 110.655 Q132.94 117.761 134.745 121.326 Q136.574 124.868 140.185 124.868 Q143.819 124.868 145.625 121.326 Q147.454 117.761 147.454 110.655 Q147.454 103.525 145.625 99.9836 Q143.819 96.4188 140.185 96.4188 M140.185 92.7151 Q145.995 92.7151 149.051 97.3216 Q152.129 101.905 152.129 110.655 Q152.129 119.382 149.051 123.988 Q145.995 128.571 140.185 128.571 Q134.375 128.571 131.296 123.988 Q128.241 119.382 128.241 110.655 Q128.241 101.905 131.296 97.3216 Q134.375 92.7151 140.185 92.7151 Z" fill="#000000" fill-rule="nonzero" fill-opacity="1" /><path clip-path="url(#clip680)" d="M170.347 96.4188 Q166.736 96.4188 164.907 99.9836 Q163.102 103.525 163.102 110.655 Q163.102 117.761 164.907 121.326 Q166.736 124.868 170.347 124.868 Q173.981 124.868 175.787 121.326 Q177.615 117.761 177.615 110.655 Q177.615 103.525 175.787 99.9836 Q173.981 96.4188 170.347 96.4188 M170.347 92.7151 Q176.157 92.7151 179.213 97.3216 Q182.291 101.905 182.291 110.655 Q182.291 119.382 179.213 123.988 Q176.157 128.571 170.347 128.571 Q164.537 128.571 161.458 123.988 Q158.403 119.382 158.403 110.655 Q158.403 101.905 161.458 97.3216 Q164.537 92.7151 170.347 92.7151 Z" fill="#000000" fill-rule="nonzero" fill-opacity="1" /><path clip-path="url(#clip680)" d="M16.9948 958.99 Q16.9948 961.76 19.3501 963.351 Q21.7054 964.911 25.9068 964.911 Q30.0445 964.911 32.4316 963.351 Q34.787 961.76 34.787 958.99 Q34.787 956.285 32.4316 954.725 Q30.0445 953.134 25.9068 953.134 Q21.7373 953.134 19.382 954.725 Q16.9948 956.285 16.9948 958.99 M12.9526 958.99 Q12.9526 953.962 16.4537 951.002 Q19.9549 948.041 25.9068 948.041 Q31.8587 948.041 35.3599 951.033 Q38.8292 953.993 38.8292 958.99 Q38.8292 964.083 35.3599 967.043 Q31.8587 970.003 25.9068 970.003 Q19.923 970.003 16.4537 967.043 Q12.9526 964.051 12.9526 958.99 M-6.43099 991.838 Q-6.43099 994.575 -4.04385 996.166 Q-1.68854 997.726 2.44917 997.726 Q6.65054 997.726 9.00585 996.166 Q11.3612 994.607 11.3612 991.838 Q11.3612 989.068 9.00585 987.509 Q6.65054 985.917 2.44917 985.917 Q-1.65671 985.917 -4.04385 987.509 Q-6.43099 989.1 -6.43099 991.838 M-10.4732 963.096 L-10.4732 958.004 L38.8292 987.732 L38.8292 992.824 L-10.4732 963.096 M-10.4732 991.838 Q-10.4732 986.809 -6.97207 983.817 Q-3.50276 980.825 2.44917 980.825 Q8.46476 980.825 11.9341 983.817 Q15.4034 986.777 15.4034 991.838 Q15.4034 996.898 11.9341 999.858 Q8.43294 1002.79 2.44917 1002.79 Q-3.47094 1002.79 -6.97207 999.826 Q-10.4732 996.866 -10.4732 991.838 Z" fill="#000000" fill-rule="nonzero" fill-opacity="1" /><path clip-path="url(#clip680)" d="M6.36408 903.768 Q6.36408 908.479 10.0562 911.216 Q13.7165 913.953 20.114 913.953 Q26.5115 913.953 30.2037 911.248 Q33.8639 908.51 33.8639 903.768 Q33.8639 899.089 30.1718 896.352 Q26.4797 893.615 20.114 893.615 Q13.7801 893.615 10.088 896.352 Q6.36408 899.089 6.36408 903.768 M1.39883 903.768 Q1.39883 896.129 6.36408 891.769 Q11.3293 887.408 20.114 887.408 Q28.8669 887.408 33.8639 891.769 Q38.8292 896.129 38.8292 903.768 Q38.8292 911.439 33.8639 915.799 Q28.8669 920.128 20.114 920.128 Q11.3293 920.128 6.36408 915.799 Q1.39883 911.439 1.39883 903.768 Z" fill="#000000" fill-rule="nonzero" fill-opacity="1" /><path clip-path="url(#clip680)" d="M2.2582 881.934 L2.2582 847.782 L6.93699 847.782 L6.93699 861.977 L37.9062 861.977 L37.9062 867.738 L6.93699 867.738 L6.93699 881.934 L2.2582 881.934 Z" fill="#000000" fill-rule="nonzero" fill-opacity="1" /><path clip-path="url(#clip680)" d="M-9.61384 818.754 L-9.61384 810.097 L30.14 789.026 L-9.61384 789.026 L-9.61384 782.788 L37.9062 782.788 L37.9062 791.445 L-1.84768 812.516 L37.9062 812.516 L37.9062 818.754 L-9.61384 818.754 Z" fill="#000000" fill-rule="nonzero" fill-opacity="1" /><path clip-path="url(#clip680)" d="M48.7279 743.161 L53.2793 743.161 L53.2793 777.027 L48.7279 777.027 L48.7279 743.161 Z" fill="#000000" fill-rule="nonzero" fill-opacity="1" /><path clip-path="url(#clip680)" d="M3.62683 712.001 L9.10133 712.001 Q7.73271 714.484 7.06431 716.998 Q6.36408 719.481 6.36408 722.027 Q6.36408 727.724 9.99253 730.875 Q13.5892 734.026 20.114 734.026 Q26.6389 734.026 30.2673 730.875 Q33.8639 727.724 33.8639 722.027 Q33.8639 719.481 33.1955 716.998 Q32.4953 714.484 31.1267 712.001 L36.5375 712.001 Q37.6834 714.452 38.2563 717.094 Q38.8292 719.704 38.8292 722.664 Q38.8292 730.716 33.7684 735.459 Q28.7077 740.201 20.114 740.201 Q11.393 740.201 6.39591 735.427 Q1.39883 730.621 1.39883 722.282 Q1.39883 719.576 1.97174 716.998 Q2.51283 714.42 3.62683 712.001 Z" fill="#000000" fill-rule="nonzero" fill-opacity="1" /><path clip-path="url(#clip680)" d="M2.2582 701.816 L2.2582 695.959 L37.9062 695.959 L37.9062 701.816 L2.2582 701.816 M-11.619 701.816 L-11.619 695.959 L-4.20299 695.959 L-4.20299 701.816 L-11.619 701.816 Z" fill="#000000" fill-rule="nonzero" fill-opacity="1" /><path clip-path="url(#clip680)" d="M-7.86327 677.913 L2.2582 677.913 L2.2582 665.85 L6.80968 665.85 L6.80968 677.913 L26.1614 677.913 Q30.5219 677.913 31.7633 676.735 Q33.0046 675.526 33.0046 671.865 L33.0046 665.85 L37.9062 665.85 L37.9062 671.865 Q37.9062 678.645 35.3917 681.223 Q32.8454 683.801 26.1614 683.801 L6.80968 683.801 L6.80968 688.098 L2.2582 688.098 L2.2582 683.801 L-7.86327 683.801 L-7.86327 677.913 Z" fill="#000000" fill-rule="nonzero" fill-opacity="1" /><path clip-path="url(#clip680)" d="M41.2163 643.315 Q47.582 645.798 49.5236 648.153 Q51.4651 650.508 51.4651 654.455 L51.4651 659.134 L46.5635 659.134 L46.5635 655.696 Q46.5635 653.277 45.4177 651.941 Q44.2719 650.604 40.0068 648.981 L37.3332 647.93 L2.2582 662.349 L2.2582 656.142 L30.14 645.002 L2.2582 633.862 L2.2582 627.655 L41.2163 643.315 Z" fill="#000000" fill-rule="nonzero" fill-opacity="1" /><path clip-path="url(#clip680)" d="M909.456 12.096 L920.475 12.096 L947.292 62.6918 L947.292 12.096 L955.231 12.096 L955.231 72.576 L944.213 72.576 L917.396 21.9802 L917.396 72.576 L909.456 72.576 L909.456 12.096 Z" fill="#000000" fill-rule="nonzero" fill-opacity="1" /><path clip-path="url(#clip680)" d="M1005.67 86.3491 L1005.67 92.1419 L962.563 92.1419 L962.563 86.3491 L1005.67 86.3491 Z" fill="#000000" fill-rule="nonzero" fill-opacity="1" /><path clip-path="url(#clip680)" d="M1051.48 48.0275 L1051.48 51.6733 L1017.21 51.6733 Q1017.7 59.3701 1021.83 63.421 Q1026 67.4314 1033.41 67.4314 Q1037.71 67.4314 1041.72 66.3781 Q1045.77 65.3249 1049.74 63.2184 L1049.74 70.267 Q1045.73 71.9684 1041.52 72.8596 Q1037.3 73.7508 1032.97 73.7508 Q1022.11 73.7508 1015.75 67.4314 Q1009.43 61.1119 1009.43 50.3365 Q1009.43 39.1965 1015.43 32.6746 Q1021.46 26.1121 1031.67 26.1121 Q1040.83 26.1121 1046.13 32.0264 Q1051.48 37.9003 1051.48 48.0275 M1044.03 45.84 Q1043.95 39.7232 1040.58 36.0774 Q1037.26 32.4315 1031.75 32.4315 Q1025.51 32.4315 1021.75 35.9558 Q1018.02 39.4801 1017.45 45.8805 L1044.03 45.84 Z" fill="#000000" fill-rule="nonzero" fill-opacity="1" /><path clip-path="url(#clip680)" d="M1086.68 9.54393 L1086.68 15.7418 L1079.55 15.7418 Q1075.54 15.7418 1073.96 17.3622 Q1072.42 18.9825 1072.42 23.1955 L1072.42 27.2059 L1084.7 27.2059 L1084.7 32.9987 L1072.42 32.9987 L1072.42 72.576 L1064.93 72.576 L1064.93 32.9987 L1057.8 32.9987 L1057.8 27.2059 L1064.93 27.2059 L1064.93 24.0462 Q1064.93 16.471 1068.45 13.0277 Q1071.98 9.54393 1079.63 9.54393 L1086.68 9.54393 Z" fill="#000000" fill-rule="nonzero" fill-opacity="1" /><path clip-path="url(#clip680)" d="M1115.89 9.54393 L1115.89 15.7418 L1108.76 15.7418 Q1104.75 15.7418 1103.17 17.3622 Q1101.63 18.9825 1101.63 23.1955 L1101.63 27.2059 L1113.91 27.2059 L1113.91 32.9987 L1101.63 32.9987 L1101.63 72.576 L1094.14 72.576 L1094.14 32.9987 L1087.01 32.9987 L1087.01 27.2059 L1094.14 27.2059 L1094.14 24.0462 Q1094.14 16.471 1097.66 13.0277 Q1101.19 9.54393 1108.84 9.54393 L1115.89 9.54393 Z" fill="#000000" fill-rule="nonzero" fill-opacity="1" /><path clip-path="url(#clip680)" d="M1187.39 27.2059 L1187.39 72.576 L1179.89 72.576 L1179.89 33.1607 L1155.71 33.1607 L1155.71 72.576 L1148.22 72.576 L1148.22 27.2059 L1187.39 27.2059 Z" fill="#000000" fill-rule="nonzero" fill-opacity="1" /><path clip-path="url(#clip680)" d="M1220.32 32.4315 Q1214.33 32.4315 1210.84 37.1306 Q1207.36 41.7891 1207.36 49.9314 Q1207.36 58.0738 1210.8 62.7728 Q1214.29 67.4314 1220.32 67.4314 Q1226.28 67.4314 1229.76 62.7323 Q1233.24 58.0333 1233.24 49.9314 Q1233.24 41.8701 1229.76 37.1711 Q1226.28 32.4315 1220.32 32.4315 M1220.32 26.1121 Q1230.04 26.1121 1235.59 32.4315 Q1241.14 38.7509 1241.14 49.9314 Q1241.14 61.0714 1235.59 67.4314 Q1230.04 73.7508 1220.32 73.7508 Q1210.56 73.7508 1205.01 67.4314 Q1199.5 61.0714 1199.5 49.9314 Q1199.5 38.7509 1205.01 32.4315 Q1210.56 26.1121 1220.32 26.1121 Z" fill="#000000" fill-rule="nonzero" fill-opacity="1" /><path clip-path="url(#clip680)" d="M1287.04 51.6733 L1287.04 66.6212 L1297.65 66.6212 Q1302.76 66.6212 1305.43 64.7172 Q1308.11 62.7728 1308.11 59.127 Q1308.11 55.4812 1305.43 53.5773 Q1302.76 51.6733 1297.65 51.6733 L1287.04 51.6733 M1287.04 33.1607 L1287.04 45.7185 L1296.84 45.7185 Q1301.06 45.7185 1303.73 44.0576 Q1306.4 42.3563 1306.4 39.3586 Q1306.4 36.3609 1303.73 34.7811 Q1301.06 33.1607 1296.84 33.1607 L1287.04 33.1607 M1279.59 27.2059 L1297.33 27.2059 Q1305.31 27.2059 1309.6 30.1225 Q1313.9 33.0392 1313.9 38.4269 Q1313.9 42.5993 1311.71 45.0704 Q1309.52 47.5009 1305.23 48.1085 Q1310.37 49.0808 1313.21 52.1594 Q1316.05 55.2381 1316.05 59.8562 Q1316.05 65.9325 1311.35 69.2543 Q1306.69 72.576 1298.02 72.576 L1279.59 72.576 L1279.59 27.2059 Z" fill="#000000" fill-rule="nonzero" fill-opacity="1" /><path clip-path="url(#clip680)" d="M1346.35 32.4315 Q1340.35 32.4315 1336.87 37.1306 Q1333.38 41.7891 1333.38 49.9314 Q1333.38 58.0738 1336.83 62.7728 Q1340.31 67.4314 1346.35 67.4314 Q1352.3 67.4314 1355.78 62.7323 Q1359.27 58.0333 1359.27 49.9314 Q1359.27 41.8701 1355.78 37.1711 Q1352.3 32.4315 1346.35 32.4315 M1346.35 26.1121 Q1356.07 26.1121 1361.62 32.4315 Q1367.17 38.7509 1367.17 49.9314 Q1367.17 61.0714 1361.62 67.4314 Q1356.07 73.7508 1346.35 73.7508 Q1336.58 73.7508 1331.03 67.4314 Q1325.52 61.0714 1325.52 49.9314 Q1325.52 38.7509 1331.03 32.4315 Q1336.58 26.1121 1346.35 26.1121 Z" fill="#000000" fill-rule="nonzero" fill-opacity="1" /><path clip-path="url(#clip680)" d="M1374.78 72.576 L1374.78 66.3781 Q1382.16 65.2439 1384.42 60.1397 Q1387.18 52.9696 1387.18 34.619 L1387.18 27.2059 L1417.84 27.2059 L1417.84 72.576 L1410.39 72.576 L1410.39 33.1607 L1394.63 33.1607 L1394.63 37.6572 Q1394.63 55.1571 1391.07 63.0159 Q1387.26 71.4012 1374.78 72.576 Z" fill="#000000" fill-rule="nonzero" fill-opacity="1" /><path clip-path="url(#clip680)" d="M1432.27 27.2059 L1439.76 27.2059 L1439.76 45.7185 L1463.94 45.7185 L1463.94 27.2059 L1471.44 27.2059 L1471.44 72.576 L1463.94 72.576 L1463.94 51.6733 L1439.76 51.6733 L1439.76 72.576 L1432.27 72.576 L1432.27 27.2059 Z" fill="#000000" fill-rule="nonzero" fill-opacity="1" /><path clip-path="url(#clip680)" d="M1507.41 49.7694 Q1498.38 49.7694 1494.89 51.8354 Q1491.41 53.9013 1491.41 58.8839 Q1491.41 62.8538 1494 65.2034 Q1496.63 67.5124 1501.13 67.5124 Q1507.33 67.5124 1511.06 63.1374 Q1514.82 58.7219 1514.82 51.4303 L1514.82 49.7694 L1507.41 49.7694 M1522.28 46.6907 L1522.28 72.576 L1514.82 72.576 L1514.82 65.6895 Q1512.27 69.8214 1508.46 71.8063 Q1504.66 73.7508 1499.15 73.7508 Q1492.18 73.7508 1488.05 69.8619 Q1483.96 65.9325 1483.96 59.3701 Q1483.96 51.7138 1489.06 47.825 Q1494.2 43.9361 1504.37 43.9361 L1514.82 43.9361 L1514.82 43.2069 Q1514.82 38.0623 1511.42 35.2672 Q1508.06 32.4315 1501.94 32.4315 Q1498.05 32.4315 1494.37 33.3632 Q1490.68 34.295 1487.28 36.1584 L1487.28 29.2718 Q1491.37 27.692 1495.22 26.9223 Q1499.07 26.1121 1502.71 26.1121 Q1512.55 26.1121 1517.42 31.2163 Q1522.28 36.3204 1522.28 46.6907 Z" fill="#000000" fill-rule="nonzero" fill-opacity="1" /><path clip-path="url(#clip680)" d="M1537.35 27.2059 L1548.24 27.2059 L1561.13 57.5877 L1574.05 27.2059 L1584.86 27.2059 L1584.86 72.576 L1577.37 72.576 L1577.37 34.3355 L1564.85 63.8666 L1557.4 63.8666 L1544.84 34.3355 L1544.84 72.576 L1537.35 72.576 L1537.35 27.2059 Z" fill="#000000" fill-rule="nonzero" fill-opacity="1" /><path clip-path="url(#clip680)" d="M1602.12 62.2867 L1610.67 62.2867 L1610.67 72.576 L1602.12 72.576 L1602.12 62.2867 M1602.12 29.6769 L1610.67 29.6769 L1610.67 39.9662 L1602.12 39.9662 L1602.12 29.6769 Z" fill="#000000" fill-rule="nonzero" fill-opacity="1" /><path clip-path="url(#clip680)" d="M1654.54 27.2059 L1661.99 27.2059 L1661.99 72.576 L1654.54 72.576 L1654.54 27.2059 M1654.54 9.54393 L1661.99 9.54393 L1661.99 18.9825 L1654.54 18.9825 L1654.54 9.54393 Z" fill="#000000" fill-rule="nonzero" fill-opacity="1" /><path clip-path="url(#clip680)" d="M1715.3 45.1919 L1715.3 72.576 L1707.85 72.576 L1707.85 45.4349 Q1707.85 38.994 1705.34 35.7938 Q1702.83 32.5936 1697.8 32.5936 Q1691.77 32.5936 1688.28 36.4419 Q1684.8 40.2903 1684.8 46.9338 L1684.8 72.576 L1677.3 72.576 L1677.3 27.2059 L1684.8 27.2059 L1684.8 34.2544 Q1687.47 30.163 1691.08 28.1376 Q1694.72 26.1121 1699.46 26.1121 Q1707.28 26.1121 1711.29 30.9732 Q1715.3 35.7938 1715.3 45.1919 Z" fill="#000000" fill-rule="nonzero" fill-opacity="1" /><path clip-path="url(#clip680)" d="M1737.54 14.324 L1737.54 27.2059 L1752.89 27.2059 L1752.89 32.9987 L1737.54 32.9987 L1737.54 57.6282 Q1737.54 63.1779 1739.04 64.7578 Q1740.58 66.3376 1745.24 66.3376 L1752.89 66.3376 L1752.89 72.576 L1745.24 72.576 Q1736.61 72.576 1733.33 69.3758 Q1730.05 66.1351 1730.05 57.6282 L1730.05 32.9987 L1724.58 32.9987 L1724.58 27.2059 L1730.05 27.2059 L1730.05 14.324 L1737.54 14.324 Z" fill="#000000" fill-rule="nonzero" fill-opacity="1" /><path clip-path="url(#clip680)" d="M1801.51 48.0275 L1801.51 51.6733 L1767.24 51.6733 Q1767.72 59.3701 1771.85 63.421 Q1776.03 67.4314 1783.44 67.4314 Q1787.73 67.4314 1791.74 66.3781 Q1795.79 65.3249 1799.76 63.2184 L1799.76 70.267 Q1795.75 71.9684 1791.54 72.8596 Q1787.33 73.7508 1782.99 73.7508 Q1772.14 73.7508 1765.78 67.4314 Q1759.46 61.1119 1759.46 50.3365 Q1759.46 39.1965 1765.45 32.6746 Q1771.49 26.1121 1781.7 26.1121 Q1790.85 26.1121 1796.16 32.0264 Q1801.51 37.9003 1801.51 48.0275 M1794.05 45.84 Q1793.97 39.7232 1790.61 36.0774 Q1787.29 32.4315 1781.78 32.4315 Q1775.54 32.4315 1771.77 35.9558 Q1768.05 39.4801 1767.48 45.8805 L1794.05 45.84 Z" fill="#000000" fill-rule="nonzero" fill-opacity="1" /><path clip-path="url(#clip680)" d="M1843.59 49.3643 Q1843.59 41.2625 1840.23 36.8065 Q1836.91 32.3505 1830.87 32.3505 Q1824.88 32.3505 1821.52 36.8065 Q1818.2 41.2625 1818.2 49.3643 Q1818.2 57.4256 1821.52 61.8816 Q1824.88 66.3376 1830.87 66.3376 Q1836.91 66.3376 1840.23 61.8816 Q1843.59 57.4256 1843.59 49.3643 M1851.05 66.9452 Q1851.05 78.5308 1845.9 84.1616 Q1840.76 89.8329 1830.15 89.8329 Q1826.22 89.8329 1822.73 89.2252 Q1819.25 88.6581 1815.97 87.4428 L1815.97 80.1917 Q1819.25 81.9741 1822.45 82.8248 Q1825.65 83.6755 1828.97 83.6755 Q1836.3 83.6755 1839.95 79.8271 Q1843.59 76.0193 1843.59 68.282 L1843.59 64.5957 Q1841.29 68.6061 1837.68 70.5911 Q1834.07 72.576 1829.05 72.576 Q1820.71 72.576 1815.6 66.2161 Q1810.5 59.8562 1810.5 49.3643 Q1810.5 38.832 1815.6 32.472 Q1820.71 26.1121 1829.05 26.1121 Q1834.07 26.1121 1837.68 28.0971 Q1841.29 30.082 1843.59 34.0924 L1843.59 27.2059 L1851.05 27.2059 L1851.05 66.9452 Z" fill="#000000" fill-rule="nonzero" fill-opacity="1" /><path clip-path="url(#clip680)" d="M1905.21 48.0275 L1905.21 51.6733 L1870.94 51.6733 Q1871.42 59.3701 1875.56 63.421 Q1879.73 67.4314 1887.14 67.4314 Q1891.44 67.4314 1895.45 66.3781 Q1899.5 65.3249 1903.47 63.2184 L1903.47 70.267 Q1899.46 71.9684 1895.24 72.8596 Q1891.03 73.7508 1886.7 73.7508 Q1875.84 73.7508 1869.48 67.4314 Q1863.16 61.1119 1863.16 50.3365 Q1863.16 39.1965 1869.16 32.6746 Q1875.19 26.1121 1885.4 26.1121 Q1894.55 26.1121 1899.86 32.0264 Q1905.21 37.9003 1905.21 48.0275 M1897.76 45.84 Q1897.67 39.7232 1894.31 36.0774 Q1890.99 32.4315 1885.48 32.4315 Q1879.24 32.4315 1875.48 35.9558 Q1871.75 39.4801 1871.18 45.8805 L1897.76 45.84 Z" fill="#000000" fill-rule="nonzero" fill-opacity="1" /><path clip-path="url(#clip680)" d="M1943.73 34.1734 Q1942.48 33.4443 1940.98 33.1202 Q1939.52 32.7556 1937.74 32.7556 Q1931.42 32.7556 1928.02 36.8875 Q1924.65 40.9789 1924.65 48.6757 L1924.65 72.576 L1917.16 72.576 L1917.16 27.2059 L1924.65 27.2059 L1924.65 34.2544 Q1927 30.1225 1930.77 28.1376 Q1934.54 26.1121 1939.93 26.1121 Q1940.69 26.1121 1941.63 26.2337 Q1942.56 26.3147 1943.69 26.5172 L1943.73 34.1734 Z" fill="#000000" fill-rule="nonzero" fill-opacity="1" /><path clip-path="url(#clip680)" d="M1972.58 27.2059 L1980.47 27.2059 L1994.65 65.2844 L2008.83 27.2059 L2016.73 27.2059 L1999.72 72.576 L1989.59 72.576 L1972.58 27.2059 Z" fill="#000000" fill-rule="nonzero" fill-opacity="1" /><path clip-path="url(#clip680)" d="M2055.94 28.5427 L2055.94 35.5912 Q2052.78 33.9709 2049.38 33.1607 Q2045.98 32.3505 2042.33 32.3505 Q2036.78 32.3505 2033.99 34.0519 Q2031.23 35.7533 2031.23 39.156 Q2031.23 41.7486 2033.22 43.2475 Q2035.2 44.7058 2041.2 46.0426 L2043.75 46.6097 Q2051.69 48.3111 2055.01 51.4303 Q2058.37 54.509 2058.37 60.0587 Q2058.37 66.3781 2053.35 70.0644 Q2048.37 73.7508 2039.62 73.7508 Q2035.97 73.7508 2032 73.0216 Q2028.07 72.3329 2023.7 70.9151 L2023.7 63.2184 Q2027.83 65.3654 2031.84 66.4591 Q2035.85 67.5124 2039.78 67.5124 Q2045.05 67.5124 2047.88 65.73 Q2050.72 63.9071 2050.72 60.6258 Q2050.72 57.5877 2048.65 55.9673 Q2046.63 54.3469 2039.7 52.8481 L2037.11 52.2405 Q2030.18 50.7821 2027.1 47.7845 Q2024.02 44.7463 2024.02 39.4801 Q2024.02 33.0797 2028.56 29.5959 Q2033.1 26.1121 2041.44 26.1121 Q2045.57 26.1121 2049.22 26.7198 Q2052.86 27.3274 2055.94 28.5427 Z" fill="#000000" fill-rule="nonzero" fill-opacity="1" /><path clip-path="url(#clip680)" d="M2119.58 9.54393 L2119.58 15.7418 L2112.45 15.7418 Q2108.44 15.7418 2106.86 17.3622 Q2105.32 18.9825 2105.32 23.1955 L2105.32 27.2059 L2117.6 27.2059 L2117.6 32.9987 L2105.32 32.9987 L2105.32 72.576 L2097.83 72.576 L2097.83 32.9987 L2090.7 32.9987 L2090.7 27.2059 L2097.83 27.2059 L2097.83 24.0462 Q2097.83 16.471 2101.35 13.0277 Q2104.88 9.54393 2112.53 9.54393 L2119.58 9.54393 Z" fill="#000000" fill-rule="nonzero" fill-opacity="1" /><path clip-path="url(#clip680)" d="M2152.11 34.1734 Q2150.86 33.4443 2149.36 33.1202 Q2147.9 32.7556 2146.12 32.7556 Q2139.8 32.7556 2136.39 36.8875 Q2133.03 40.9789 2133.03 48.6757 L2133.03 72.576 L2125.54 72.576 L2125.54 27.2059 L2133.03 27.2059 L2133.03 34.2544 Q2135.38 30.1225 2139.15 28.1376 Q2142.92 26.1121 2148.3 26.1121 Q2149.07 26.1121 2150 26.2337 Q2150.94 26.3147 2152.07 26.5172 L2152.11 34.1734 Z" fill="#000000" fill-rule="nonzero" fill-opacity="1" /><path clip-path="url(#clip680)" d="M2180.55 49.7694 Q2171.52 49.7694 2168.03 51.8354 Q2164.55 53.9013 2164.55 58.8839 Q2164.55 62.8538 2167.14 65.2034 Q2169.77 67.5124 2174.27 67.5124 Q2180.47 67.5124 2184.19 63.1374 Q2187.96 58.7219 2187.96 51.4303 L2187.96 49.7694 L2180.55 49.7694 M2195.42 46.6907 L2195.42 72.576 L2187.96 72.576 L2187.96 65.6895 Q2185.41 69.8214 2181.6 71.8063 Q2177.79 73.7508 2172.28 73.7508 Q2165.32 73.7508 2161.19 69.8619 Q2157.09 65.9325 2157.09 59.3701 Q2157.09 51.7138 2162.2 47.825 Q2167.34 43.9361 2177.51 43.9361 L2187.96 43.9361 L2187.96 43.2069 Q2187.96 38.0623 2184.56 35.2672 Q2181.2 32.4315 2175.08 32.4315 Q2171.19 32.4315 2167.5 33.3632 Q2163.82 34.295 2160.42 36.1584 L2160.42 29.2718 Q2164.51 27.692 2168.36 26.9223 Q2172.2 26.1121 2175.85 26.1121 Q2185.69 26.1121 2190.55 31.2163 Q2195.42 36.3204 2195.42 46.6907 Z" fill="#000000" fill-rule="nonzero" fill-opacity="1" /><path clip-path="url(#clip680)" d="M2243.42 28.9478 L2243.42 35.9153 Q2240.26 34.1734 2237.06 33.3227 Q2233.9 32.4315 2230.66 32.4315 Q2223.41 32.4315 2219.4 37.0496 Q2215.39 41.6271 2215.39 49.9314 Q2215.39 58.2358 2219.4 62.8538 Q2223.41 67.4314 2230.66 67.4314 Q2233.9 67.4314 2237.06 66.5807 Q2240.26 65.6895 2243.42 63.9476 L2243.42 70.8341 Q2240.3 72.2924 2236.94 73.0216 Q2233.62 73.7508 2229.85 73.7508 Q2219.6 73.7508 2213.56 67.3098 Q2207.53 60.8689 2207.53 49.9314 Q2207.53 38.832 2213.6 32.472 Q2219.72 26.1121 2230.33 26.1121 Q2233.78 26.1121 2237.06 26.8413 Q2240.34 27.5299 2243.42 28.9478 Z" fill="#000000" fill-rule="nonzero" fill-opacity="1" /><path clip-path="url(#clip680)" d="M2263.75 14.324 L2263.75 27.2059 L2279.11 27.2059 L2279.11 32.9987 L2263.75 32.9987 L2263.75 57.6282 Q2263.75 63.1779 2265.25 64.7578 Q2266.79 66.3376 2271.45 66.3376 L2279.11 66.3376 L2279.11 72.576 L2271.45 72.576 Q2262.82 72.576 2259.54 69.3758 Q2256.26 66.1351 2256.26 57.6282 L2256.26 32.9987 L2250.79 32.9987 L2250.79 27.2059 L2256.26 27.2059 L2256.26 14.324 L2263.75 14.324 Z" fill="#000000" fill-rule="nonzero" fill-opacity="1" /><path clip-path="url(#clip680)" d="M2288.91 27.2059 L2296.36 27.2059 L2296.36 72.576 L2288.91 72.576 L2288.91 27.2059 M2288.91 9.54393 L2296.36 9.54393 L2296.36 18.9825 L2288.91 18.9825 L2288.91 9.54393 Z" fill="#000000" fill-rule="nonzero" fill-opacity="1" /><path clip-path="url(#clip680)" d="M2329.54 32.4315 Q2323.55 32.4315 2320.06 37.1306 Q2316.58 41.7891 2316.58 49.9314 Q2316.58 58.0738 2320.02 62.7728 Q2323.51 67.4314 2329.54 67.4314 Q2335.5 67.4314 2338.98 62.7323 Q2342.46 58.0333 2342.46 49.9314 Q2342.46 41.8701 2338.98 37.1711 Q2335.5 32.4315 2329.54 32.4315 M2329.54 26.1121 Q2339.26 26.1121 2344.81 32.4315 Q2350.36 38.7509 2350.36 49.9314 Q2350.36 61.0714 2344.81 67.4314 Q2339.26 73.7508 2329.54 73.7508 Q2319.78 73.7508 2314.23 67.4314 Q2308.72 61.0714 2308.72 49.9314 Q2308.72 38.7509 2314.23 32.4315 Q2319.78 26.1121 2329.54 26.1121 Z" fill="#000000" fill-rule="nonzero" fill-opacity="1" /><path clip-path="url(#clip680)" d="M2400.43 45.1919 L2400.43 72.576 L2392.98 72.576 L2392.98 45.4349 Q2392.98 38.994 2390.47 35.7938 Q2387.96 32.5936 2382.93 32.5936 Q2376.9 32.5936 2373.41 36.4419 Q2369.93 40.2903 2369.93 46.9338 L2369.93 72.576 L2362.43 72.576 L2362.43 27.2059 L2369.93 27.2059 L2369.93 34.2544 Q2372.6 30.163 2376.21 28.1376 Q2379.85 26.1121 2384.59 26.1121 Q2392.41 26.1121 2396.42 30.9732 Q2400.43 35.7938 2400.43 45.1919 Z" fill="#000000" fill-rule="nonzero" fill-opacity="1" /><path clip-path="url(#clip680)" d="M2435.92 49.7694 Q2426.88 49.7694 2423.4 51.8354 Q2419.92 53.9013 2419.92 58.8839 Q2419.92 62.8538 2422.51 65.2034 Q2425.14 67.5124 2429.64 67.5124 Q2435.84 67.5124 2439.56 63.1374 Q2443.33 58.7219 2443.33 51.4303 L2443.33 49.7694 L2435.92 49.7694 M2450.78 46.6907 L2450.78 72.576 L2443.33 72.576 L2443.33 65.6895 Q2440.78 69.8214 2436.97 71.8063 Q2433.16 73.7508 2427.65 73.7508 Q2420.69 73.7508 2416.55 69.8619 Q2412.46 65.9325 2412.46 59.3701 Q2412.46 51.7138 2417.57 47.825 Q2422.71 43.9361 2432.88 43.9361 L2443.33 43.9361 L2443.33 43.2069 Q2443.33 38.0623 2439.93 35.2672 Q2436.57 32.4315 2430.45 32.4315 Q2426.56 32.4315 2422.87 33.3632 Q2419.19 34.295 2415.78 36.1584 L2415.78 29.2718 Q2419.88 27.692 2423.72 26.9223 Q2427.57 26.1121 2431.22 26.1121 Q2441.06 26.1121 2445.92 31.2163 Q2450.78 36.3204 2450.78 46.6907 Z" fill="#000000" fill-rule="nonzero" fill-opacity="1" /><path clip-path="url(#clip680)" d="M2466.14 9.54393 L2473.59 9.54393 L2473.59 72.576 L2466.14 72.576 L2466.14 9.54393 Z" fill="#000000" fill-rule="nonzero" fill-opacity="1" /><path clip-path="url(#clip681)" d="M388.489 1476.14 L388.489 1519.82 L593.893 1519.82 L593.893 1476.14 L388.489 1476.14 L388.489 1476.14  Z" fill="#ffa500" fill-rule="evenodd" fill-opacity="0.8"/>
<polyline clip-path="url(#clip681)" style="stroke:#000000; stroke-linecap:round; stroke-linejoin:round; stroke-width:1.4; stroke-opacity:0.8; fill:none" points="388.489,1476.14 388.489,1519.82 593.893,1519.82 593.893,1476.14 388.489,1476.14 "/>
<path clip-path="url(#clip681)" d="M645.244 110.62 L645.244 1519.82 L850.649 1519.82 L850.649 110.62 L645.244 110.62 L645.244 110.62  Z" fill="#ffa500" fill-rule="evenodd" fill-opacity="0.8"/>
<polyline clip-path="url(#clip681)" style="stroke:#000000; stroke-linecap:round; stroke-linejoin:round; stroke-width:1.4; stroke-opacity:0.8; fill:none" points="645.244,110.62 645.244,1519.82 850.649,1519.82 850.649,110.62 645.244,110.62 "/>
<path clip-path="url(#clip681)" d="M902 777.173 L902 1519.82 L1107.4 1519.82 L1107.4 777.173 L902 777.173 L902 777.173  Z" fill="#ffa500" fill-rule="evenodd" fill-opacity="0.8"/>
<polyline clip-path="url(#clip681)" style="stroke:#000000; stroke-linecap:round; stroke-linejoin:round; stroke-width:1.4; stroke-opacity:0.8; fill:none" points="902,777.173 902,1519.82 1107.4,1519.82 1107.4,777.173 902,777.173 "/>
<path clip-path="url(#clip681)" d="M1158.76 1197.11 L1158.76 1519.82 L1364.16 1519.82 L1364.16 1197.11 L1158.76 1197.11 L1158.76 1197.11  Z" fill="#ffa500" fill-rule="evenodd" fill-opacity="0.8"/>
<polyline clip-path="url(#clip681)" style="stroke:#000000; stroke-linecap:round; stroke-linejoin:round; stroke-width:1.4; stroke-opacity:0.8; fill:none" points="1158.76,1197.11 1158.76,1519.82 1364.16,1519.82 1364.16,1197.11 1158.76,1197.11 "/>
<path clip-path="url(#clip681)" d="M1415.51 529.153 L1415.51 1519.82 L1620.92 1519.82 L1620.92 529.153 L1415.51 529.153 L1415.51 529.153  Z" fill="#ffa500" fill-rule="evenodd" fill-opacity="0.8"/>
<polyline clip-path="url(#clip681)" style="stroke:#000000; stroke-linecap:round; stroke-linejoin:round; stroke-width:1.4; stroke-opacity:0.8; fill:none" points="1415.51,529.153 1415.51,1519.82 1620.92,1519.82 1620.92,529.153 1415.51,529.153 "/>
<path clip-path="url(#clip681)" d="M1672.27 837.768 L1672.27 1519.82 L1877.67 1519.82 L1877.67 837.768 L1672.27 837.768 L1672.27 837.768  Z" fill="#ffa500" fill-rule="evenodd" fill-opacity="0.8"/>
<polyline clip-path="url(#clip681)" style="stroke:#000000; stroke-linecap:round; stroke-linejoin:round; stroke-width:1.4; stroke-opacity:0.8; fill:none" points="1672.27,837.768 1672.27,1519.82 1877.67,1519.82 1877.67,837.768 1672.27,837.768 "/>
<path clip-path="url(#clip681)" d="M1929.02 1298.58 L1929.02 1519.82 L2134.43 1519.82 L2134.43 1298.58 L1929.02 1298.58 L1929.02 1298.58  Z" fill="#ffa500" fill-rule="evenodd" fill-opacity="0.8"/>
<polyline clip-path="url(#clip681)" style="stroke:#000000; stroke-linecap:round; stroke-linejoin:round; stroke-width:1.4; stroke-opacity:0.8; fill:none" points="1929.02,1298.58 1929.02,1519.82 2134.43,1519.82 2134.43,1298.58 1929.02,1298.58 "/>
<path clip-path="url(#clip681)" d="M2185.78 1433.86 L2185.78 1519.82 L2391.18 1519.82 L2391.18 1433.86 L2185.78 1433.86 L2185.78 1433.86  Z" fill="#ffa500" fill-rule="evenodd" fill-opacity="0.8"/>
<polyline clip-path="url(#clip681)" style="stroke:#000000; stroke-linecap:round; stroke-linejoin:round; stroke-width:1.4; stroke-opacity:0.8; fill:none" points="2185.78,1433.86 2185.78,1519.82 2391.18,1519.82 2391.18,1433.86 2185.78,1433.86 "/>
<path clip-path="url(#clip681)" d="M2442.53 1449.36 L2442.53 1519.82 L2647.94 1519.82 L2647.94 1449.36 L2442.53 1449.36 L2442.53 1449.36  Z" fill="#ffa500" fill-rule="evenodd" fill-opacity="0.8"/>
<polyline clip-path="url(#clip681)" style="stroke:#000000; stroke-linecap:round; stroke-linejoin:round; stroke-width:1.4; stroke-opacity:0.8; fill:none" points="2442.53,1449.36 2442.53,1519.82 2647.94,1519.82 2647.94,1449.36 2442.53,1449.36 "/>
<path clip-path="url(#clip681)" d="M2699.29 1481.77 L2699.29 1519.82 L2904.69 1519.82 L2904.69 1481.77 L2699.29 1481.77 L2699.29 1481.77  Z" fill="#ffa500" fill-rule="evenodd" fill-opacity="0.8"/>
<polyline clip-path="url(#clip681)" style="stroke:#000000; stroke-linecap:round; stroke-linejoin:round; stroke-width:1.4; stroke-opacity:0.8; fill:none" points="2699.29,1481.77 2699.29,1519.82 2904.69,1519.82 2904.69,1481.77 2699.29,1481.77 "/>
<circle clip-path="url(#clip681)" style="fill:#ffa500; stroke:none; fill-opacity:0" cx="491.191" cy="1476.14" r="2"/>
<circle clip-path="url(#clip681)" style="fill:#ffa500; stroke:none; fill-opacity:0" cx="1004.7" cy="777.173" r="2"/>
<circle clip-path="url(#clip681)" style="fill:#ffa500; stroke:none; fill-opacity:0" cx="1261.46" cy="1197.11" r="2"/>
<circle clip-path="url(#clip681)" style="fill:#ffa500; stroke:none; fill-opacity:0" cx="1518.21" cy="529.153" r="2"/>
<circle clip-path="url(#clip681)" style="fill:#ffa500; stroke:none; fill-opacity:0" cx="1774.97" cy="837.768" r="2"/>
<circle clip-path="url(#clip681)" style="fill:#ffa500; stroke:none; fill-opacity:0" cx="2031.72" cy="1298.58" r="2"/>
<circle clip-path="url(#clip681)" style="fill:#ffa500; stroke:none; fill-opacity:0" cx="2288.48" cy="1433.86" r="2"/>
<circle clip-path="url(#clip681)" style="fill:#ffa500; stroke:none; fill-opacity:0" cx="2545.24" cy="1449.36" r="2"/>
<circle clip-path="url(#clip681)" style="fill:#ffa500; stroke:none; fill-opacity:0" cx="2801.99" cy="1481.77" r="2"/>
<path clip-path="url(#clip681)" d="M478.353 1476.14 L478.353 1519.82 L683.758 1519.82 L683.758 1476.14 L478.353 1476.14 L478.353 1476.14  Z" fill="#ba55d3" fill-rule="evenodd" fill-opacity="0.8"/>
<polyline clip-path="url(#clip681)" style="stroke:#000000; stroke-linecap:round; stroke-linejoin:round; stroke-width:1.4; stroke-opacity:0.8; fill:none" points="478.353,1476.14 478.353,1519.82 683.758,1519.82 683.758,1476.14 478.353,1476.14 "/>
<path clip-path="url(#clip681)" d="M735.109 110.62 L735.109 1519.82 L940.513 1519.82 L940.513 110.62 L735.109 110.62 L735.109 110.62  Z" fill="#ba55d3" fill-rule="evenodd" fill-opacity="0.8"/>
<polyline clip-path="url(#clip681)" style="stroke:#000000; stroke-linecap:round; stroke-linejoin:round; stroke-width:1.4; stroke-opacity:0.8; fill:none" points="735.109,110.62 735.109,1519.82 940.513,1519.82 940.513,110.62 735.109,110.62 "/>
<path clip-path="url(#clip681)" d="M991.865 188.126 L991.865 1519.82 L1197.27 1519.82 L1197.27 188.126 L991.865 188.126 L991.865 188.126  Z" fill="#ba55d3" fill-rule="evenodd" fill-opacity="0.8"/>
<polyline clip-path="url(#clip681)" style="stroke:#000000; stroke-linecap:round; stroke-linejoin:round; stroke-width:1.4; stroke-opacity:0.8; fill:none" points="991.865,188.126 991.865,1519.82 1197.27,1519.82 1197.27,188.126 991.865,188.126 "/>
<path clip-path="url(#clip681)" d="M1248.62 1197.11 L1248.62 1519.82 L1454.02 1519.82 L1454.02 1197.11 L1248.62 1197.11 L1248.62 1197.11  Z" fill="#ba55d3" fill-rule="evenodd" fill-opacity="0.8"/>
<polyline clip-path="url(#clip681)" style="stroke:#000000; stroke-linecap:round; stroke-linejoin:round; stroke-width:1.4; stroke-opacity:0.8; fill:none" points="1248.62,1197.11 1248.62,1519.82 1454.02,1519.82 1454.02,1197.11 1248.62,1197.11 "/>
<path clip-path="url(#clip681)" d="M1505.38 529.153 L1505.38 1519.82 L1710.78 1519.82 L1710.78 529.153 L1505.38 529.153 L1505.38 529.153  Z" fill="#ba55d3" fill-rule="evenodd" fill-opacity="0.8"/>
<polyline clip-path="url(#clip681)" style="stroke:#000000; stroke-linecap:round; stroke-linejoin:round; stroke-width:1.4; stroke-opacity:0.8; fill:none" points="1505.38,529.153 1505.38,1519.82 1710.78,1519.82 1710.78,529.153 1505.38,529.153 "/>
<path clip-path="url(#clip681)" d="M1762.13 837.768 L1762.13 1519.82 L1967.54 1519.82 L1967.54 837.768 L1762.13 837.768 L1762.13 837.768  Z" fill="#ba55d3" fill-rule="evenodd" fill-opacity="0.8"/>
<polyline clip-path="url(#clip681)" style="stroke:#000000; stroke-linecap:round; stroke-linejoin:round; stroke-width:1.4; stroke-opacity:0.8; fill:none" points="1762.13,837.768 1762.13,1519.82 1967.54,1519.82 1967.54,837.768 1762.13,837.768 "/>
<path clip-path="url(#clip681)" d="M2018.89 1297.17 L2018.89 1519.82 L2224.29 1519.82 L2224.29 1297.17 L2018.89 1297.17 L2018.89 1297.17  Z" fill="#ba55d3" fill-rule="evenodd" fill-opacity="0.8"/>
<polyline clip-path="url(#clip681)" style="stroke:#000000; stroke-linecap:round; stroke-linejoin:round; stroke-width:1.4; stroke-opacity:0.8; fill:none" points="2018.89,1297.17 2018.89,1519.82 2224.29,1519.82 2224.29,1297.17 2018.89,1297.17 "/>
<path clip-path="url(#clip681)" d="M2275.64 1433.86 L2275.64 1519.82 L2481.05 1519.82 L2481.05 1433.86 L2275.64 1433.86 L2275.64 1433.86  Z" fill="#ba55d3" fill-rule="evenodd" fill-opacity="0.8"/>
<polyline clip-path="url(#clip681)" style="stroke:#000000; stroke-linecap:round; stroke-linejoin:round; stroke-width:1.4; stroke-opacity:0.8; fill:none" points="2275.64,1433.86 2275.64,1519.82 2481.05,1519.82 2481.05,1433.86 2275.64,1433.86 "/>
<path clip-path="url(#clip681)" d="M2532.4 1460.64 L2532.4 1519.82 L2737.8 1519.82 L2737.8 1460.64 L2532.4 1460.64 L2532.4 1460.64  Z" fill="#ba55d3" fill-rule="evenodd" fill-opacity="0.8"/>
<polyline clip-path="url(#clip681)" style="stroke:#000000; stroke-linecap:round; stroke-linejoin:round; stroke-width:1.4; stroke-opacity:0.8; fill:none" points="2532.4,1460.64 2532.4,1519.82 2737.8,1519.82 2737.8,1460.64 2532.4,1460.64 "/>
<path clip-path="url(#clip681)" d="M2789.15 1477.55 L2789.15 1519.82 L2994.56 1519.82 L2994.56 1477.55 L2789.15 1477.55 L2789.15 1477.55  Z" fill="#ba55d3" fill-rule="evenodd" fill-opacity="0.8"/>
<polyline clip-path="url(#clip681)" style="stroke:#000000; stroke-linecap:round; stroke-linejoin:round; stroke-width:1.4; stroke-opacity:0.8; fill:none" points="2789.15,1477.55 2789.15,1519.82 2994.56,1519.82 2994.56,1477.55 2789.15,1477.55 "/>
<circle clip-path="url(#clip681)" style="fill:#ba55d3; stroke:none; fill-opacity:0" cx="581.055" cy="1476.14" r="2"/>
<circle clip-path="url(#clip681)" style="fill:#ba55d3; stroke:none; fill-opacity:0" cx="1094.57" cy="188.126" r="2"/>
<circle clip-path="url(#clip681)" style="fill:#ba55d3; stroke:none; fill-opacity:0" cx="1351.32" cy="1197.11" r="2"/>
<circle clip-path="url(#clip681)" style="fill:#ba55d3; stroke:none; fill-opacity:0" cx="1608.08" cy="529.153" r="2"/>
<circle clip-path="url(#clip681)" style="fill:#ba55d3; stroke:none; fill-opacity:0" cx="1864.83" cy="837.768" r="2"/>
<circle clip-path="url(#clip681)" style="fill:#ba55d3; stroke:none; fill-opacity:0" cx="2121.59" cy="1297.17" r="2"/>
<circle clip-path="url(#clip681)" style="fill:#ba55d3; stroke:none; fill-opacity:0" cx="2378.34" cy="1433.86" r="2"/>
<circle clip-path="url(#clip681)" style="fill:#ba55d3; stroke:none; fill-opacity:0" cx="2635.1" cy="1460.64" r="2"/>
<circle clip-path="url(#clip681)" style="fill:#ba55d3; stroke:none; fill-opacity:0" cx="2891.86" cy="1477.55" r="2"/>
<path clip-path="url(#clip680)" d="M2540.73 313.114 L3055.34 313.114 L3055.34 157.594 L2540.73 157.594  Z" fill="#ffffff" fill-rule="evenodd" fill-opacity="1"/>
<polyline clip-path="url(#clip680)" style="stroke:#000000; stroke-linecap:round; stroke-linejoin:round; stroke-width:4; stroke-opacity:1; fill:none" points="2540.73,313.114 3055.34,313.114 3055.34,157.594 2540.73,157.594 2540.73,313.114 "/>
<path clip-path="url(#clip680)" d="M2573.21 230.17 L2768.04 230.17 L2768.04 188.698 L2573.21 188.698 L2573.21 230.17  Z" fill="#ffa500" fill-rule="evenodd" fill-opacity="0.8"/>
<polyline clip-path="url(#clip680)" style="stroke:#000000; stroke-linecap:round; stroke-linejoin:round; stroke-width:1.4; stroke-opacity:1; fill:none" points="2573.21,230.17 2768.04,230.17 2768.04,188.698 2573.21,188.698 2573.21,230.17 "/>
<path clip-path="url(#clip680)" d="M2800.51 192.154 L2805.18 192.154 L2805.18 226.714 L2800.51 226.714 L2800.51 192.154 Z" fill="#000000" fill-rule="nonzero" fill-opacity="1" /><path clip-path="url(#clip680)" d="M2835.86 211.065 L2835.86 226.714 L2831.6 226.714 L2831.6 211.204 Q2831.6 207.524 2830.16 205.695 Q2828.73 203.866 2825.86 203.866 Q2822.41 203.866 2820.42 206.065 Q2818.43 208.265 2818.43 212.061 L2818.43 226.714 L2814.14 226.714 L2814.14 200.788 L2818.43 200.788 L2818.43 204.815 Q2819.95 202.478 2822.01 201.32 Q2824.1 200.163 2826.8 200.163 Q2831.27 200.163 2833.56 202.94 Q2835.86 205.695 2835.86 211.065 Z" fill="#000000" fill-rule="nonzero" fill-opacity="1" /><path clip-path="url(#clip680)" d="M2848.56 193.427 L2848.56 200.788 L2857.34 200.788 L2857.34 204.098 L2848.56 204.098 L2848.56 218.172 Q2848.56 221.343 2849.42 222.246 Q2850.3 223.149 2852.96 223.149 L2857.34 223.149 L2857.34 226.714 L2852.96 226.714 Q2848.03 226.714 2846.16 224.885 Q2844.28 223.033 2844.28 218.172 L2844.28 204.098 L2841.16 204.098 L2841.16 200.788 L2844.28 200.788 L2844.28 193.427 L2848.56 193.427 Z" fill="#000000" fill-rule="nonzero" fill-opacity="1" /><path clip-path="url(#clip680)" d="M2885.11 212.686 L2885.11 214.769 L2865.53 214.769 Q2865.81 219.167 2868.17 221.482 Q2870.55 223.774 2874.79 223.774 Q2877.24 223.774 2879.54 223.172 Q2881.85 222.57 2884.12 221.366 L2884.12 225.394 Q2881.83 226.366 2879.42 226.876 Q2877.01 227.385 2874.54 227.385 Q2868.33 227.385 2864.7 223.774 Q2861.09 220.163 2861.09 214.005 Q2861.09 207.64 2864.51 203.913 Q2867.96 200.163 2873.8 200.163 Q2879.03 200.163 2882.06 203.542 Q2885.11 206.899 2885.11 212.686 M2880.86 211.436 Q2880.81 207.94 2878.89 205.857 Q2876.99 203.774 2873.84 203.774 Q2870.28 203.774 2868.12 205.788 Q2865.99 207.802 2865.67 211.459 L2880.86 211.436 Z" fill="#000000" fill-rule="nonzero" fill-opacity="1" /><path clip-path="url(#clip680)" d="M2909.17 213.45 Q2909.17 208.82 2907.24 206.274 Q2905.35 203.728 2901.9 203.728 Q2898.47 203.728 2896.55 206.274 Q2894.65 208.82 2894.65 213.45 Q2894.65 218.056 2896.55 220.602 Q2898.47 223.149 2901.9 223.149 Q2905.35 223.149 2907.24 220.602 Q2909.17 218.056 2909.17 213.45 M2913.42 223.496 Q2913.42 230.116 2910.48 233.334 Q2907.55 236.575 2901.48 236.575 Q2899.23 236.575 2897.24 236.227 Q2895.25 235.903 2893.38 235.209 L2893.38 231.065 Q2895.25 232.084 2897.08 232.57 Q2898.91 233.056 2900.81 233.056 Q2905 233.056 2907.08 230.857 Q2909.17 228.681 2909.17 224.26 L2909.17 222.153 Q2907.85 224.445 2905.79 225.579 Q2903.73 226.714 2900.86 226.714 Q2896.09 226.714 2893.17 223.079 Q2890.25 219.445 2890.25 213.45 Q2890.25 207.431 2893.17 203.797 Q2896.09 200.163 2900.86 200.163 Q2903.73 200.163 2905.79 201.297 Q2907.85 202.431 2909.17 204.723 L2909.17 200.788 L2913.42 200.788 L2913.42 223.496 Z" fill="#000000" fill-rule="nonzero" fill-opacity="1" /><path clip-path="url(#clip680)" d="M2944.37 212.686 L2944.37 214.769 L2924.79 214.769 Q2925.07 219.167 2927.43 221.482 Q2929.81 223.774 2934.05 223.774 Q2936.5 223.774 2938.79 223.172 Q2941.11 222.57 2943.38 221.366 L2943.38 225.394 Q2941.09 226.366 2938.68 226.876 Q2936.27 227.385 2933.79 227.385 Q2927.59 227.385 2923.96 223.774 Q2920.35 220.163 2920.35 214.005 Q2920.35 207.64 2923.77 203.913 Q2927.22 200.163 2933.05 200.163 Q2938.29 200.163 2941.32 203.542 Q2944.37 206.899 2944.37 212.686 M2940.11 211.436 Q2940.07 207.94 2938.15 205.857 Q2936.25 203.774 2933.1 203.774 Q2929.54 203.774 2927.38 205.788 Q2925.25 207.802 2924.93 211.459 L2940.11 211.436 Z" fill="#000000" fill-rule="nonzero" fill-opacity="1" /><path clip-path="url(#clip680)" d="M2966.39 204.769 Q2965.67 204.353 2964.81 204.167 Q2963.98 203.959 2962.96 203.959 Q2959.35 203.959 2957.41 206.32 Q2955.48 208.658 2955.48 213.056 L2955.48 226.714 L2951.2 226.714 L2951.2 200.788 L2955.48 200.788 L2955.48 204.815 Q2956.83 202.454 2958.98 201.32 Q2961.13 200.163 2964.21 200.163 Q2964.65 200.163 2965.18 200.232 Q2965.72 200.278 2966.36 200.394 L2966.39 204.769 Z" fill="#000000" fill-rule="nonzero" fill-opacity="1" /><path clip-path="url(#clip680)" d="M2573.21 282.01 L2768.04 282.01 L2768.04 240.538 L2573.21 240.538 L2573.21 282.01  Z" fill="#ba55d3" fill-rule="evenodd" fill-opacity="0.8"/>
<polyline clip-path="url(#clip680)" style="stroke:#000000; stroke-linecap:round; stroke-linejoin:round; stroke-width:1.4; stroke-opacity:1; fill:none" points="2573.21,282.01 2768.04,282.01 2768.04,240.538 2573.21,240.538 2573.21,282.01 "/>
<path clip-path="url(#clip680)" d="M2800.51 243.994 L2820.37 243.994 L2820.37 247.929 L2805.18 247.929 L2805.18 258.114 L2818.89 258.114 L2818.89 262.049 L2805.18 262.049 L2805.18 278.554 L2800.51 278.554 L2800.51 243.994 Z" fill="#000000" fill-rule="nonzero" fill-opacity="1" /><path clip-path="url(#clip680)" d="M2839.17 256.609 Q2838.45 256.193 2837.59 256.007 Q2836.76 255.799 2835.74 255.799 Q2832.13 255.799 2830.18 258.16 Q2828.26 260.498 2828.26 264.896 L2828.26 278.554 L2823.98 278.554 L2823.98 252.628 L2828.26 252.628 L2828.26 256.655 Q2829.61 254.294 2831.76 253.16 Q2833.91 252.003 2836.99 252.003 Q2837.43 252.003 2837.96 252.072 Q2838.49 252.118 2839.14 252.234 L2839.17 256.609 Z" fill="#000000" fill-rule="nonzero" fill-opacity="1" /><path clip-path="url(#clip680)" d="M2855.42 265.521 Q2850.25 265.521 2848.26 266.702 Q2846.27 267.882 2846.27 270.729 Q2846.27 272.998 2847.75 274.341 Q2849.26 275.66 2851.83 275.66 Q2855.37 275.66 2857.5 273.16 Q2859.65 270.637 2859.65 266.47 L2859.65 265.521 L2855.42 265.521 M2863.91 263.762 L2863.91 278.554 L2859.65 278.554 L2859.65 274.618 Q2858.19 276.979 2856.02 278.114 Q2853.84 279.225 2850.69 279.225 Q2846.71 279.225 2844.35 277.003 Q2842.01 274.757 2842.01 271.007 Q2842.01 266.632 2844.93 264.41 Q2847.87 262.188 2853.68 262.188 L2859.65 262.188 L2859.65 261.771 Q2859.65 258.831 2857.71 257.234 Q2855.79 255.614 2852.29 255.614 Q2850.07 255.614 2847.96 256.146 Q2845.86 256.679 2843.91 257.743 L2843.91 253.808 Q2846.25 252.906 2848.45 252.466 Q2850.65 252.003 2852.73 252.003 Q2858.36 252.003 2861.13 254.919 Q2863.91 257.836 2863.91 263.762 Z" fill="#000000" fill-rule="nonzero" fill-opacity="1" /><path clip-path="url(#clip680)" d="M2891.34 253.623 L2891.34 257.605 Q2889.54 256.609 2887.71 256.123 Q2885.9 255.614 2884.05 255.614 Q2879.91 255.614 2877.61 258.253 Q2875.32 260.868 2875.32 265.614 Q2875.32 270.359 2877.61 272.998 Q2879.91 275.614 2884.05 275.614 Q2885.9 275.614 2887.71 275.128 Q2889.54 274.618 2891.34 273.623 L2891.34 277.558 Q2889.56 278.391 2887.64 278.808 Q2885.74 279.225 2883.59 279.225 Q2877.73 279.225 2874.28 275.544 Q2870.83 271.864 2870.83 265.614 Q2870.83 259.271 2874.3 255.637 Q2877.8 252.003 2883.86 252.003 Q2885.83 252.003 2887.71 252.419 Q2889.58 252.813 2891.34 253.623 Z" fill="#000000" fill-rule="nonzero" fill-opacity="1" /><path clip-path="url(#clip680)" d="M2902.96 245.267 L2902.96 252.628 L2911.73 252.628 L2911.73 255.938 L2902.96 255.938 L2902.96 270.012 Q2902.96 273.183 2903.82 274.086 Q2904.7 274.989 2907.36 274.989 L2911.73 274.989 L2911.73 278.554 L2907.36 278.554 Q2902.43 278.554 2900.55 276.725 Q2898.68 274.873 2898.68 270.012 L2898.68 255.938 L2895.55 255.938 L2895.55 252.628 L2898.68 252.628 L2898.68 245.267 L2902.96 245.267 Z" fill="#000000" fill-rule="nonzero" fill-opacity="1" /><path clip-path="url(#clip680)" d="M2917.34 252.628 L2921.6 252.628 L2921.6 278.554 L2917.34 278.554 L2917.34 252.628 M2917.34 242.535 L2921.6 242.535 L2921.6 247.929 L2917.34 247.929 L2917.34 242.535 Z" fill="#000000" fill-rule="nonzero" fill-opacity="1" /><path clip-path="url(#clip680)" d="M2940.55 255.614 Q2937.13 255.614 2935.14 258.299 Q2933.15 260.961 2933.15 265.614 Q2933.15 270.267 2935.11 272.952 Q2937.11 275.614 2940.55 275.614 Q2943.96 275.614 2945.95 272.929 Q2947.94 270.243 2947.94 265.614 Q2947.94 261.007 2945.95 258.322 Q2943.96 255.614 2940.55 255.614 M2940.55 252.003 Q2946.11 252.003 2949.28 255.614 Q2952.45 259.225 2952.45 265.614 Q2952.45 271.979 2949.28 275.614 Q2946.11 279.225 2940.55 279.225 Q2934.98 279.225 2931.8 275.614 Q2928.66 271.979 2928.66 265.614 Q2928.66 259.225 2931.8 255.614 Q2934.98 252.003 2940.55 252.003 Z" fill="#000000" fill-rule="nonzero" fill-opacity="1" /><path clip-path="url(#clip680)" d="M2981.06 262.905 L2981.06 278.554 L2976.8 278.554 L2976.8 263.044 Q2976.8 259.364 2975.37 257.535 Q2973.93 255.706 2971.06 255.706 Q2967.61 255.706 2965.62 257.905 Q2963.63 260.105 2963.63 263.901 L2963.63 278.554 L2959.35 278.554 L2959.35 252.628 L2963.63 252.628 L2963.63 256.655 Q2965.16 254.318 2967.22 253.16 Q2969.3 252.003 2972.01 252.003 Q2976.48 252.003 2978.77 254.78 Q2981.06 257.535 2981.06 262.905 Z" fill="#000000" fill-rule="nonzero" fill-opacity="1" /><path clip-path="url(#clip680)" d="M3001.34 265.521 Q2996.18 265.521 2994.19 266.702 Q2992.2 267.882 2992.2 270.729 Q2992.2 272.998 2993.68 274.341 Q2995.18 275.66 2997.75 275.66 Q3001.29 275.66 3003.42 273.16 Q3005.58 270.637 3005.58 266.47 L3005.58 265.521 L3001.34 265.521 M3009.84 263.762 L3009.84 278.554 L3005.58 278.554 L3005.58 274.618 Q3004.12 276.979 3001.94 278.114 Q2999.77 279.225 2996.62 279.225 Q2992.64 279.225 2990.28 277.003 Q2987.94 274.757 2987.94 271.007 Q2987.94 266.632 2990.85 264.41 Q2993.79 262.188 2999.6 262.188 L3005.58 262.188 L3005.58 261.771 Q3005.58 258.831 3003.63 257.234 Q3001.71 255.614 2998.22 255.614 Q2995.99 255.614 2993.89 256.146 Q2991.78 256.679 2989.84 257.743 L2989.84 253.808 Q2992.17 252.906 2994.37 252.466 Q2996.57 252.003 2998.66 252.003 Q3004.28 252.003 3007.06 254.919 Q3009.84 257.836 3009.84 263.762 Z" fill="#000000" fill-rule="nonzero" fill-opacity="1" /><path clip-path="url(#clip680)" d="M3018.61 242.535 L3022.87 242.535 L3022.87 278.554 L3018.61 278.554 L3018.61 242.535 Z" fill="#000000" fill-rule="nonzero" fill-opacity="1" /></svg>
