<?xml version="1.0" encoding="utf-8"?>
<svg xmlns="http://www.w3.org/2000/svg" xmlns:xlink="http://www.w3.org/1999/xlink" width="1200" height="500" viewBox="0 0 4800 2000">
<defs>
  <clipPath id="clip880">
    <rect x="0" y="0" width="4800" height="2000"/>
  </clipPath>
</defs>
<path clip-path="url(#clip880)" d="M0 2000 L4800 2000 L4800 0 L0 0  Z" fill="#ffffff" fill-rule="evenodd" fill-opacity="1"/>
<defs>
  <clipPath id="clip881">
    <rect x="232" y="98" width="4521" height="1755"/>
  </clipPath>
</defs>
<path clip-path="url(#clip880)" d="M232.508 1852.64 L4752.76 1852.64 L4752.76 98.817 L232.508 98.817  Z" fill="#ffffff" fill-rule="evenodd" fill-opacity="1"/>
<polyline clip-path="url(#clip881)" style="stroke:#000000; stroke-linecap:round; stroke-linejoin:round; stroke-width:2; stroke-opacity:0.3; fill:none" points="896.311,1852.64 896.311,98.817 "/>
<polyline clip-path="url(#clip881)" style="stroke:#000000; stroke-linecap:round; stroke-linejoin:round; stroke-width:2; stroke-opacity:0.3; fill:none" points="2395.11,1852.64 2395.11,98.817 "/>
<polyline clip-path="url(#clip881)" style="stroke:#000000; stroke-linecap:round; stroke-linejoin:round; stroke-width:2; stroke-opacity:0.3; fill:none" points="3895.96,1852.64 3895.96,98.817 "/>
<polyline clip-path="url(#clip881)" style="stroke:#000000; stroke-linecap:round; stroke-linejoin:round; stroke-width:2; stroke-opacity:0.3; fill:none" points="232.508,1803.99 4752.76,1803.99 "/>
<polyline clip-path="url(#clip881)" style="stroke:#000000; stroke-linecap:round; stroke-linejoin:round; stroke-width:2; stroke-opacity:0.3; fill:none" points="232.508,1553.02 4752.76,1553.02 "/>
<polyline clip-path="url(#clip881)" style="stroke:#000000; stroke-linecap:round; stroke-linejoin:round; stroke-width:2; stroke-opacity:0.3; fill:none" points="232.508,1302.05 4752.76,1302.05 "/>
<polyline clip-path="url(#clip881)" style="stroke:#000000; stroke-linecap:round; stroke-linejoin:round; stroke-width:2; stroke-opacity:0.3; fill:none" points="232.508,1051.09 4752.76,1051.09 "/>
<polyline clip-path="url(#clip881)" style="stroke:#000000; stroke-linecap:round; stroke-linejoin:round; stroke-width:2; stroke-opacity:0.3; fill:none" points="232.508,800.12 4752.76,800.12 "/>
<polyline clip-path="url(#clip881)" style="stroke:#000000; stroke-linecap:round; stroke-linejoin:round; stroke-width:2; stroke-opacity:0.3; fill:none" points="232.508,549.153 4752.76,549.153 "/>
<polyline clip-path="url(#clip881)" style="stroke:#000000; stroke-linecap:round; stroke-linejoin:round; stroke-width:2; stroke-opacity:0.3; fill:none" points="232.508,298.187 4752.76,298.187 "/>
<polyline clip-path="url(#clip880)" style="stroke:#000000; stroke-linecap:round; stroke-linejoin:round; stroke-width:4; stroke-opacity:1; fill:none" points="232.508,1852.64 4752.76,1852.64 "/>
<polyline clip-path="url(#clip880)" style="stroke:#000000; stroke-linecap:round; stroke-linejoin:round; stroke-width:2; stroke-opacity:0.5; fill:none" points="232.508,98.817 4752.76,98.817 "/>
<polyline clip-path="url(#clip880)" style="stroke:#000000; stroke-linecap:round; stroke-linejoin:round; stroke-width:4; stroke-opacity:1; fill:none" points="896.311,1852.64 896.311,1833.74 "/>
<polyline clip-path="url(#clip880)" style="stroke:#000000; stroke-linecap:round; stroke-linejoin:round; stroke-width:4; stroke-opacity:1; fill:none" points="2395.11,1852.64 2395.11,1833.74 "/>
<polyline clip-path="url(#clip880)" style="stroke:#000000; stroke-linecap:round; stroke-linejoin:round; stroke-width:4; stroke-opacity:1; fill:none" points="3895.96,1852.64 3895.96,1833.74 "/>
<g clip-path="url(#clip880)">
<text style="fill:#000000; fill-opacity:1; font-family:Century Gothic,CenturyGothic,AppleGothic,sans-serif; font-size:47px; text-anchor:middle;" transform="rotate(0, 896.311, 1933.11)" x="896.311" y="1933.11">2021-01-01</text>
</g>
<g clip-path="url(#clip880)">
<text style="fill:#000000; fill-opacity:1; font-family:Century Gothic,CenturyGothic,AppleGothic,sans-serif; font-size:47px; text-anchor:middle;" transform="rotate(0, 2395.11, 1933.11)" x="2395.11" y="1933.11">2023-01-01</text>
</g>
<g clip-path="url(#clip880)">
<text style="fill:#000000; fill-opacity:1; font-family:Century Gothic,CenturyGothic,AppleGothic,sans-serif; font-size:47px; text-anchor:middle;" transform="rotate(0, 3895.96, 1933.11)" x="3895.96" y="1933.11">2025-01-01</text>
</g>
<g clip-path="url(#clip880)">
<text style="fill:#000000; fill-opacity:1; font-family:Century Gothic,CenturyGothic,AppleGothic,sans-serif; font-size:65px; text-anchor:middle;" transform="rotate(0, 2492.63, 2031.73)" x="2492.63" y="2031.73">date</text>
</g>
<polyline clip-path="url(#clip880)" style="stroke:#000000; stroke-linecap:round; stroke-linejoin:round; stroke-width:4; stroke-opacity:1; fill:none" points="232.508,1852.64 232.508,98.817 "/>
<polyline clip-path="url(#clip880)" style="stroke:#000000; stroke-linecap:round; stroke-linejoin:round; stroke-width:2; stroke-opacity:0.5; fill:none" points="4752.76,1852.64 4752.76,98.817 "/>
<polyline clip-path="url(#clip880)" style="stroke:#000000; stroke-linecap:round; stroke-linejoin:round; stroke-width:4; stroke-opacity:1; fill:none" points="232.508,1803.99 251.406,1803.99 "/>
<polyline clip-path="url(#clip880)" style="stroke:#000000; stroke-linecap:round; stroke-linejoin:round; stroke-width:4; stroke-opacity:1; fill:none" points="232.508,1553.02 251.406,1553.02 "/>
<polyline clip-path="url(#clip880)" style="stroke:#000000; stroke-linecap:round; stroke-linejoin:round; stroke-width:4; stroke-opacity:1; fill:none" points="232.508,1302.05 251.406,1302.05 "/>
<polyline clip-path="url(#clip880)" style="stroke:#000000; stroke-linecap:round; stroke-linejoin:round; stroke-width:4; stroke-opacity:1; fill:none" points="232.508,1051.09 251.406,1051.09 "/>
<polyline clip-path="url(#clip880)" style="stroke:#000000; stroke-linecap:round; stroke-linejoin:round; stroke-width:4; stroke-opacity:1; fill:none" points="232.508,800.12 251.406,800.12 "/>
<polyline clip-path="url(#clip880)" style="stroke:#000000; stroke-linecap:round; stroke-linejoin:round; stroke-width:4; stroke-opacity:1; fill:none" points="232.508,549.153 251.406,549.153 "/>
<polyline clip-path="url(#clip880)" style="stroke:#000000; stroke-linecap:round; stroke-linejoin:round; stroke-width:4; stroke-opacity:1; fill:none" points="232.508,298.187 251.406,298.187 "/>
<g clip-path="url(#clip880)">
<text style="fill:#000000; fill-opacity:1; font-family:Century Gothic,CenturyGothic,AppleGothic,sans-serif; font-size:47px; text-anchor:middle;" transform="rotate(0, 147.572, 1821.49)" x="147.572" y="1821.49">0</text>
</g>
<g clip-path="url(#clip880)">
<text style="fill:#000000; fill-opacity:1; font-family:Century Gothic,CenturyGothic,AppleGothic,sans-serif; font-size:47px; text-anchor:middle;" transform="rotate(0, 121.698, 1570.52)" x="121.698" y="1570.52">100</text>
</g>
<g clip-path="url(#clip880)">
<text style="fill:#000000; fill-opacity:1; font-family:Century Gothic,CenturyGothic,AppleGothic,sans-serif; font-size:47px; text-anchor:middle;" transform="rotate(0, 121.698, 1319.55)" x="121.698" y="1319.55">200</text>
</g>
<g clip-path="url(#clip880)">
<text style="fill:#000000; fill-opacity:1; font-family:Century Gothic,CenturyGothic,AppleGothic,sans-serif; font-size:47px; text-anchor:middle;" transform="rotate(0, 121.698, 1068.59)" x="121.698" y="1068.59">300</text>
</g>
<g clip-path="url(#clip880)">
<text style="fill:#000000; fill-opacity:1; font-family:Century Gothic,CenturyGothic,AppleGothic,sans-serif; font-size:47px; text-anchor:middle;" transform="rotate(0, 121.698, 817.62)" x="121.698" y="817.62">400</text>
</g>
<g clip-path="url(#clip880)">
<text style="fill:#000000; fill-opacity:1; font-family:Century Gothic,CenturyGothic,AppleGothic,sans-serif; font-size:47px; text-anchor:middle;" transform="rotate(0, 121.698, 566.653)" x="121.698" y="566.653">500</text>
</g>
<g clip-path="url(#clip880)">
<text style="fill:#000000; fill-opacity:1; font-family:Century Gothic,CenturyGothic,AppleGothic,sans-serif; font-size:47px; text-anchor:middle;" transform="rotate(0, 121.698, 315.687)" x="121.698" y="315.687">600</text>
</g>
<g clip-path="url(#clip880)">
<text style="fill:#000000; fill-opacity:1; font-family:Century Gothic,CenturyGothic,AppleGothic,sans-serif; font-size:65px; text-anchor:middle;" transform="rotate(-90, 0.932806, 975.729)" x="0.932806" y="975.729">daily_interp_gauss</text>
</g>
<g clip-path="url(#clip880)">
<text style="fill:#000000; fill-opacity:1; font-family:Century Gothic,CenturyGothic,AppleGothic,sans-serif; font-size:81px; text-anchor:middle;" transform="rotate(0, 2492.63, 72)" x="2492.63" y="72">ВП — пики заболеваемости</text>
</g>
<polyline clip-path="url(#clip881)" style="stroke:#4682b4; stroke-linecap:round; stroke-linejoin:round; stroke-width:8; stroke-opacity:1; fill:none" points="360.44,1778.17 362.493,1777.62 364.546,1777.1 366.599,1776.54 368.652,1775.87 370.705,1775.21 372.759,1774.56 374.812,1773.84 376.865,1773.12 378.918,1772.35 380.971,1771.53 383.024,1770.66 385.077,1769.7 387.131,1768.69 389.184,1767.61 391.237,1766.47 393.29,1765.28 395.343,1764 397.396,1762.67 399.449,1761.28 401.503,1759.75 403.556,1758.13 405.609,1756.43 407.662,1754.64 409.715,1752.76 411.768,1750.76 413.821,1748.68 415.875,1746.48 417.928,1744.17 419.981,1741.75 422.034,1739.24 424.087,1736.59 426.14,1733.86 428.194,1731.03 430.247,1728.12 432.3,1725.11 434.353,1722.05 436.406,1718.91 438.459,1715.72 440.512,1712.49 442.566,1709.23 444.619,1705.96 446.672,1702.7 448.725,1699.45 450.778,1696.24 452.831,1693.07 454.884,1689.95 456.938,1686.92 458.991,1684.01 461.044,1681.22 463.097,1678.58 465.15,1676.1 467.203,1673.8 469.256,1671.67 471.31,1669.74 473.363,1668.06 475.416,1666.58 477.469,1665.34 479.522,1664.34 481.575,1663.59 483.628,1663.08 485.682,1662.81 487.735,1662.8 489.788,1663.04 491.841,1663.5 493.894,1664.23 495.947,1665.18 498,1666.33 500.054,1667.7 502.107,1669.24 504.16,1670.97 506.213,1672.85 508.266,1674.88 510.319,1677.03 512.373,1679.28 514.426,1681.63 516.479,1684.05 518.532,1686.52 520.585,1689.02 522.638,1691.56 524.691,1694.09 526.745,1696.62 528.798,1699.11 530.851,1701.57 532.904,1703.97 534.957,1706.3 537.01,1708.56 539.063,1710.73 541.117,1712.83 543.17,1714.83 545.223,1716.73 547.276,1718.52 549.329,1720.21 551.382,1721.77 553.435,1723.23 555.489,1724.61 557.542,1725.84 559.595,1726.94 561.648,1727.96 563.701,1728.86 565.754,1729.66 567.807,1730.38 569.861,1731 571.914,1731.58 573.967,1732.04 576.02,1732.43 578.073,1732.75 580.126,1732.99 582.179,1733.19 584.233,1733.29 586.286,1733.35 588.339,1733.41 590.392,1733.41 592.445,1733.38 594.498,1733.32 596.552,1733.23 598.605,1733.16 600.658,1733.04 602.711,1732.93 604.764,1732.83 606.817,1732.73 608.87,1732.65 610.924,1732.59 612.977,1732.53 615.03,1732.49 617.083,1732.44 619.136,1732.42 621.189,1732.4 623.242,1732.4 625.296,1732.41 627.349,1732.44 629.402,1732.48 631.455,1732.52 633.508,1732.55 635.561,1732.59 637.614,1732.6 639.668,1732.6 641.721,1732.59 643.774,1732.54 645.827,1732.44 647.88,1732.3 649.933,1732.11 651.986,1731.84 654.04,1731.52 656.093,1731.14 658.146,1730.68 660.199,1730.11 662.252,1729.45 664.305,1728.69 666.358,1727.82 668.412,1726.82 670.465,1725.73 672.518,1724.52 674.571,1723.17 676.624,1721.68 678.677,1720.06 680.731,1718.26 682.784,1716.33 684.837,1714.26 686.89,1712.03 688.943,1709.64 690.996,1707.08 693.049,1704.4 695.103,1701.53 697.156,1698.48 699.209,1695.28 701.262,1691.9 703.315,1688.35 705.368,1684.63 707.421,1680.74 709.475,1676.67 711.528,1672.44 713.581,1668.06 715.634,1663.52 717.687,1658.84 719.74,1654.01 721.793,1649.06 723.847,1643.96 725.9,1638.74 727.953,1633.41 730.006,1627.97 732.059,1622.42 734.112,1616.79 736.165,1611.07 738.219,1605.27 740.272,1599.43 742.325,1593.52 744.378,1587.57 746.431,1581.59 748.484,1575.05 750.537,1568.85 752.591,1562.58 754.644,1556.21 756.697,1549.82 758.75,1543.36 760.803,1536.81 762.856,1530.18 764.909,1523.45 766.963,1516.61 769.016,1509.64 771.069,1502.56 773.122,1495.32 775.175,1487.92 777.228,1480.33 779.282,1472.54 781.335,1464.52 783.388,1456.26 785.441,1447.72 787.494,1438.92 789.547,1429.83 791.6,1420.45 793.654,1410.73 795.707,1400.67 797.76,1390.27 799.813,1379.51 801.866,1368.45 803.919,1357.07 805.972,1345.38 808.026,1333.33 810.079,1321 812.132,1308.31 814.185,1295.32 816.238,1282.13 818.291,1268.7 820.344,1255.07 822.398,1241.27 824.451,1227.35 826.504,1213.36 828.557,1199.38 830.61,1185.4 832.663,1171.58 834.716,1157.88 836.77,1144.44 838.823,1131.32 840.876,1118.54 842.929,1106.26 844.982,1094.44 847.035,1083.21 849.088,1072.62 851.142,1062.78 853.195,1053.68 855.248,1045.47 857.301,1038.12 859.354,1031.67 861.407,1026.16 863.461,1021.67 865.514,1018.2 867.567,1015.81 869.62,1014.55 871.673,1014.33 873.726,1015.17 875.779,1017.06 877.833,1020.05 879.886,1024.04 881.939,1029.1 883.992,1035.11 886.045,1042.06 888.098,1049.91 890.151,1058.55 892.205,1067.96 894.258,1078.1 896.311,1088.93 898.364,1100.35 900.417,1112.29 902.47,1124.67 904.523,1137.47 906.577,1150.59 908.63,1163.99 910.683,1177.6 912.736,1191.41 914.789,1205.34 916.842,1219.32 918.895,1233.31 920.949,1247.27 923.002,1261.14 925.055,1274.9 927.108,1288.53 929.161,1301.97 931.214,1315.21 933.267,1328.21 935.321,1341.37 937.374,1353.8 939.427,1365.96 941.48,1377.88 943.533,1389.46 945.586,1400.69 947.64,1411.6 949.693,1422.14 951.746,1432.32 953.799,1442.15 955.852,1451.64 957.905,1460.74 959.958,1469.47 962.012,1477.83 964.065,1485.82 966.118,1493.42 968.171,1500.65 970.224,1507.54 972.277,1514.06 974.33,1520.21 976.384,1526.02 978.437,1531.48 980.49,1536.63 982.543,1541.46 984.596,1545.99 986.649,1550.23 988.702,1554.14 990.756,1557.78 992.809,1561.15 994.862,1564.35 996.915,1567.33 998.968,1570.17 1001.02,1572.86 1003.07,1575.32 1005.13,1577.66 1007.18,1579.89 1009.23,1582.03 1011.29,1584.08 1013.34,1586.05 1015.39,1587.91 1017.45,1589.75 1019.5,1591.47 1021.55,1593.2 1023.61,1594.85 1025.66,1596.47 1027.71,1598.07 1029.77,1599.6 1031.82,1601.17 1033.87,1602.69 1035.92,1604.21 1037.98,1605.68 1040.03,1607.18 1042.08,1608.62 1044.14,1610.07 1046.19,1611.53 1048.24,1613 1050.3,1614.42 1052.35,1615.83 1054.4,1617.19 1056.46,1618.5 1058.51,1619.84 1060.56,1621.17 1062.62,1622.5 1064.67,1623.74 1066.72,1624.97 1068.78,1626.14 1070.83,1627.31 1072.88,1628.45 1074.93,1629.58 1076.99,1630.69 1079.04,1631.76 1081.09,1632.79 1083.15,1633.78 1085.2,1634.74 1087.25,1635.68 1089.31,1636.64 1091.36,1637.56 1093.41,1638.46 1095.47,1639.35 1097.52,1640.23 1099.57,1641.04 1101.63,1641.84 1103.68,1642.64 1105.73,1643.44 1107.78,1644.25 1109.84,1645.05 1111.89,1645.87 1113.94,1646.66 1116,1647.47 1118.05,1648.27 1120.1,1649.1 1122.16,1649.93 1124.21,1650.78 1126.26,1651.65 1128.32,1652.51 1130.37,1653.38 1132.42,1654.31 1134.48,1655.26 1136.53,1656.25 1138.58,1657.26 1140.64,1658.29 1142.69,1659.32 1144.74,1660.38 1146.79,1661.47 1148.85,1662.57 1150.9,1663.7 1152.95,1664.84 1155.01,1665.99 1157.06,1667.13 1159.11,1668.28 1161.17,1669.43 1163.22,1670.55 1165.27,1671.65 1167.33,1672.7 1169.38,1673.73 1171.43,1674.72 1173.49,1675.67 1175.54,1676.55 1177.59,1677.35 1179.65,1678.06 1181.7,1678.67 1183.75,1679.16 1185.8,1679.52 1187.86,1679.76 1189.91,1679.86 1191.96,1679.82 1194.02,1679.6 1196.07,1679.21 1198.12,1678.62 1200.18,1677.84 1202.23,1676.85 1204.28,1675.64 1206.34,1674.21 1208.39,1672.53 1210.44,1670.61 1212.5,1668.42 1214.55,1665.99 1216.6,1663.29 1218.65,1660.34 1220.71,1657.13 1222.76,1653.67 1224.81,1649.94 1226.87,1645.97 1228.92,1641.76 1230.97,1637.34 1233.03,1632.7 1235.08,1627.87 1237.13,1622.87 1239.19,1617.69 1241.24,1612.37 1243.29,1606.92 1245.35,1601.36 1247.4,1595.75 1249.45,1590.1 1251.51,1584.44 1253.56,1578.79 1255.61,1573.19 1257.66,1567.65 1259.72,1562.2 1261.77,1556.86 1263.82,1551.69 1265.88,1546.69 1267.93,1541.88 1269.98,1537.27 1272.04,1532.9 1274.09,1528.77 1276.14,1524.89 1278.2,1521.29 1280.25,1517.98 1282.3,1514.95 1284.36,1512.21 1286.41,1509.78 1288.46,1507.64 1290.51,1505.8 1292.57,1504.25 1294.62,1502.96 1296.67,1501.95 1298.73,1501.2 1300.78,1500.72 1302.83,1500.48 1304.89,1500.46 1306.94,1500.66 1308.99,1501.05 1311.05,1501.63 1313.1,1502.36 1315.15,1503.26 1317.21,1504.3 1319.26,1505.47 1321.31,1506.75 1323.37,1508.12 1325.42,1509.57 1327.47,1511.1 1329.52,1512.7 1331.58,1514.35 1333.63,1516.04 1335.68,1517.76 1337.74,1519.5 1339.79,1521.24 1341.84,1523 1343.9,1524.75 1345.95,1526.49 1348,1528.21 1350.06,1529.91 1352.11,1531.58 1354.16,1533.21 1356.22,1534.78 1358.27,1536.3 1360.32,1537.76 1362.38,1539.14 1364.43,1540.44 1366.48,1541.65 1368.53,1542.75 1370.59,1543.74 1372.64,1544.6 1374.69,1545.33 1376.75,1545.91 1378.8,1546.32 1380.85,1546.55 1382.91,1546.59 1384.96,1546.41 1387.01,1546.03 1389.07,1545.41 1391.12,1544.55 1393.17,1543.43 1395.23,1542.03 1397.28,1540.35 1399.33,1538.36 1401.38,1536.07 1403.44,1533.46 1405.49,1530.51 1407.54,1527.22 1409.6,1523.58 1411.65,1519.59 1413.7,1515.24 1415.76,1510.53 1417.81,1505.46 1419.86,1500.03 1421.92,1494.24 1423.97,1488.1 1426.02,1481.61 1428.08,1474.79 1430.13,1467.64 1432.18,1460.17 1434.24,1452.4 1436.29,1444.34 1438.34,1436.01 1440.39,1427.43 1442.45,1418.61 1444.5,1409.57 1446.55,1400.34 1448.61,1390.94 1450.66,1381.39 1452.71,1371.71 1454.77,1361.92 1456.82,1352.07 1458.87,1342.16 1460.93,1332.22 1462.98,1322.28 1465.03,1312.36 1467.09,1302.48 1469.14,1292.67 1471.19,1282.96 1473.24,1273.37 1475.3,1263.92 1477.35,1254.63 1479.4,1245.52 1481.46,1236.63 1483.51,1227.97 1485.56,1219.55 1487.62,1211.41 1489.67,1203.54 1491.72,1195.99 1493.78,1188.74 1495.83,1181.83 1497.88,1175.26 1499.94,1169.06 1501.99,1163.23 1504.04,1157.79 1506.1,1152.75 1508.15,1148.12 1510.2,1143.92 1512.25,1140.14 1514.31,1136.81 1516.36,1133.92 1518.41,1131.49 1520.47,1129.52 1522.52,1128.03 1524.57,1127.02 1526.63,1126.48 1528.68,1126.42 1530.73,1126.85 1532.79,1127.75 1534.84,1129.13 1536.89,1130.99 1538.95,1133.32 1541,1136.11 1543.05,1139.34 1545.11,1143.02 1547.16,1147.13 1549.21,1151.65 1551.26,1156.57 1553.32,1161.88 1555.37,1167.56 1557.42,1173.58 1559.48,1179.92 1561.53,1186.55 1563.58,1193.45 1565.64,1200.59 1567.69,1207.95 1569.74,1215.5 1571.8,1223.2 1573.85,1231.04 1575.9,1238.99 1577.96,1247.01 1580.01,1255.08 1582.06,1263.19 1584.11,1271.3 1586.17,1279.4 1588.22,1287.49 1590.27,1295.53 1592.33,1303.52 1594.38,1311.45 1596.43,1319.29 1598.49,1327.04 1600.54,1334.69 1602.59,1342.22 1604.65,1349.63 1606.7,1356.91 1608.75,1364.06 1610.81,1371.05 1612.86,1377.89 1614.91,1384.55 1616.97,1391.02 1619.02,1397.29 1621.07,1403.33 1623.12,1409.1 1625.18,1414.57 1627.23,1419.73 1629.28,1424.51 1631.34,1428.91 1633.39,1432.86 1635.44,1436.3 1637.5,1439.18 1639.55,1441.46 1641.6,1443.06 1643.66,1443.92 1645.71,1444 1647.76,1443.22 1649.82,1441.51 1651.87,1438.77 1653.92,1434.95 1655.97,1430 1658.03,1423.87 1660.08,1416.45 1662.13,1407.7 1664.19,1397.53 1666.24,1385.87 1668.29,1372.66 1670.35,1357.82 1672.4,1341.3 1674.45,1323.05 1676.51,1303.06 1678.56,1281.28 1680.61,1257.7 1682.67,1232.31 1684.72,1205.09 1686.77,1176.09 1688.83,1145.4 1690.88,1113.11 1692.93,1079 1694.98,1043.31 1697.04,1006.13 1699.09,967.613 1701.14,927.863 1703.2,886.874 1705.25,844.9 1707.3,802.118 1709.36,758.725 1711.41,714.937 1713.46,671.004 1715.52,627.184 1717.57,583.648 1719.62,540.709 1721.68,498.652 1723.73,457.745 1725.78,418.295 1727.84,380.588 1729.89,344.931 1731.94,311.455 1733.99,280.492 1736.05,252.306 1738.1,227.1 1740.15,205.098 1742.21,186.476 1744.26,171.393 1746.31,159.953 1748.37,152.282 1750.42,148.454 1752.47,148.499 1754.53,152.425 1756.58,160.2 1758.63,171.763 1760.69,187.016 1762.74,205.837 1764.79,228.083 1766.84,253.573 1768.9,282.094 1770.95,313.421 1773,347.312 1775.06,383.503 1777.11,421.738 1779.16,461.738 1781.22,503.222 1783.27,545.906 1785.32,589.512 1787.38,633.764 1789.43,678.389 1791.48,723.137 1793.54,767.766 1795.59,812.049 1797.64,855.78 1799.7,898.772 1801.75,940.851 1803.8,981.877 1805.85,1021.71 1807.91,1060.24 1809.96,1097.38 1812.01,1133.08 1814.07,1167.27 1816.12,1199.92 1818.17,1230.99 1820.23,1260.49 1822.28,1288.44 1824.33,1314.85 1826.39,1339.76 1828.44,1363.2 1830.49,1385.22 1832.55,1405.85 1834.6,1425.17 1836.65,1443.25 1838.7,1460.17 1840.76,1475.97 1842.81,1490.68 1844.86,1504.4 1846.92,1517.19 1848.97,1529.12 1851.02,1540.27 1853.08,1550.69 1855.13,1560.45 1857.18,1569.6 1859.24,1578.21 1861.29,1586.3 1863.34,1593.91 1865.4,1601.07 1867.45,1607.81 1869.5,1614.18 1871.56,1620.22 1873.61,1625.93 1875.66,1631.26 1877.71,1636.24 1879.77,1641.14 1881.82,1645.81 1883.87,1650.25 1885.93,1654.45 1887.98,1658.46 1890.03,1662.42 1892.09,1666.21 1894.14,1669.85 1896.19,1673.35 1898.25,1676.7 1900.3,1679.89 1902.35,1682.93 1904.41,1685.89 1906.46,1688.72 1908.51,1691.42 1910.57,1694.01 1912.62,1696.47 1914.67,1698.81 1916.72,1701.03 1918.78,1703.24 1920.83,1705.38 1922.88,1707.42 1924.94,1709.4 1926.99,1711.31 1929.04,1713.16 1931.1,1714.96 1933.15,1716.73 1935.2,1718.46 1937.26,1720.15 1939.31,1721.8 1941.36,1723.42 1943.42,1725.01 1945.47,1726.57 1947.52,1728.1 1949.57,1729.61 1951.63,1731.08 1953.68,1732.51 1955.73,1733.92 1957.79,1735.31 1959.84,1736.65 1961.89,1737.96 1963.95,1739.22 1966,1740.44 1968.05,1741.61 1970.11,1742.73 1972.16,1743.8 1974.21,1744.83 1976.27,1745.81 1978.32,1746.73 1980.37,1747.59 1982.43,1748.39 1984.48,1749.13 1986.53,1749.81 1988.58,1750.43 1990.64,1750.97 1992.69,1751.45 1994.74,1751.87 1996.8,1752.21 1998.85,1752.49 2000.9,1752.68 2002.96,1752.81 2005.01,1752.86 2007.06,1752.83 2009.12,1752.73 2011.17,1752.53 2013.22,1752.25 2015.28,1751.89 2017.33,1751.42 2019.38,1750.85 2021.43,1750.16 2023.49,1749.35 2025.54,1748.39 2027.59,1747.31 2029.65,1746.09 2031.7,1744.72 2033.75,1743.18 2035.81,1741.47 2037.86,1739.59 2039.91,1737.51 2041.97,1735.24 2044.02,1732.77 2046.07,1730.16 2048.13,1727.25 2050.18,1724.09 2052.23,1720.66 2054.29,1716.96 2056.34,1712.97 2058.39,1708.69 2060.44,1704.1 2062.5,1699.2 2064.55,1694 2066.6,1688.48 2068.66,1682.63 2070.71,1676.44 2072.76,1669.91 2074.82,1663.02 2076.87,1655.79 2078.92,1648.21 2080.98,1640.29 2083.03,1632.02 2085.08,1623.39 2087.14,1614.43 2089.19,1605.14 2091.24,1595.54 2093.3,1585.62 2095.35,1575.4 2097.4,1564.89 2099.45,1554.13 2101.51,1543.2 2103.56,1532.1 2105.61,1520.75 2107.67,1509.28 2109.72,1497.68 2111.77,1485.97 2113.83,1474.19 2115.88,1462.42 2117.93,1450.66 2119.99,1438.89 2122.04,1427.17 2124.09,1415.53 2126.15,1404.01 2128.2,1392.65 2130.25,1381.48 2132.3,1370.56 2134.36,1359.9 2136.41,1349.57 2138.46,1339.58 2140.52,1330 2142.57,1320.87 2144.62,1312.24 2146.68,1304.14 2148.73,1296.6 2150.78,1289.67 2152.84,1283.4 2154.89,1277.82 2156.94,1272.98 2159,1268.91 2161.05,1265.66 2163.1,1263.24 2165.16,1261.7 2167.21,1261.05 2169.26,1261.32 2171.31,1262.53 2173.37,1264.67 2175.42,1267.75 2177.47,1271.77 2179.53,1276.73 2181.58,1282.61 2183.63,1289.38 2185.69,1297.03 2187.74,1305.51 2189.79,1314.78 2191.85,1324.79 2193.9,1335.48 2195.95,1346.8 2198.01,1358.7 2200.06,1371.1 2202.11,1383.94 2204.16,1397.16 2206.22,1410.67 2208.27,1424.41 2210.32,1438.32 2212.38,1452.32 2214.43,1466.35 2216.48,1480.34 2218.54,1494.22 2220.59,1507.94 2222.64,1521.45 2224.7,1534.7 2226.75,1547.65 2228.8,1560.25 2230.86,1572.48 2232.91,1584.24 2234.96,1595.65 2237.02,1606.64 2239.07,1617.18 2241.12,1627.26 2243.17,1636.89 2245.23,1646.04 2247.28,1654.73 2249.33,1662.95 2251.39,1670.71 2253.44,1678.01 2255.49,1684.89 2257.55,1691.36 2259.6,1697.43 2261.65,1703.12 2263.71,1708.44 2265.76,1713.41 2267.81,1718.05 2269.87,1722.37 2271.92,1726.39 2273.97,1730.14 2276.03,1733.62 2278.08,1736.84 2280.13,1739.83 2282.18,1742.59 2284.24,1745.14 2286.29,1747.49 2288.34,1749.58 2290.4,1751.48 2292.45,1753.29 2294.5,1754.91 2296.56,1756.4 2298.61,1757.77 2300.66,1759.02 2302.72,1760.12 2304.77,1761.12 2306.82,1762.07 2308.88,1762.95 2310.93,1763.77 2312.98,1764.52 2315.03,1765.21 2317.09,1765.85 2319.14,1766.44 2321.19,1766.99 2323.25,1767.51 2325.3,1767.99 2327.35,1768.45 2329.41,1768.88 2331.46,1769.29 2333.51,1769.7 2335.57,1770.13 2337.62,1770.56 2339.67,1771 2341.73,1771.44 2343.78,1771.9 2345.83,1772.37 2347.89,1772.85 2349.94,1773.35 2351.99,1773.87 2354.04,1774.4 2356.1,1774.94 2358.15,1775.5 2360.2,1776.06 2362.26,1776.64 2364.31,1777.23 2366.36,1777.82 2368.42,1778.4 2370.47,1778.98 2372.52,1779.55 2374.58,1780.1 2376.63,1780.64 2378.68,1781.15 2380.74,1781.64 2382.79,1782.1 2384.84,1782.5 2386.9,1782.87 2388.95,1783.18 2391,1783.45 2393.05,1783.65 2395.11,1783.8 2397.16,1783.88 2399.21,1783.88 2401.27,1783.81 2403.32,1783.66 2405.37,1783.44 2407.43,1783.14 2409.48,1782.76 2411.53,1782.3 2413.59,1781.78 2415.64,1781.18 2417.69,1780.49 2419.75,1779.73 2421.8,1778.88 2423.85,1777.94 2425.9,1776.92 2427.96,1775.82 2430.01,1774.64 2432.06,1773.4 2434.12,1772.1 2436.17,1770.73 2438.22,1769.29 2440.28,1767.79 2442.33,1766.21 2444.38,1764.58 2446.44,1762.9 2448.49,1761.18 2450.54,1759.41 2452.6,1757.59 2454.65,1755.72 2456.7,1753.81 2458.76,1751.88 2460.81,1749.93 2462.86,1747.97 2464.91,1745.99 2466.97,1744 2469.02,1742 2471.07,1739.99 2473.13,1737.99 2475.18,1736.01 2477.23,1734.05 2479.29,1732.11 2481.34,1730.19 2483.39,1728.28 2485.45,1726.41 2487.5,1724.57 2489.55,1722.79 2491.61,1721.05 2493.66,1719.34 2495.71,1717.66 2497.76,1716.02 2499.82,1714.43 2501.87,1712.88 2503.92,1711.39 2505.98,1709.95 2508.03,1708.54 2510.08,1707.18 2512.14,1705.86 2514.19,1704.59 2516.24,1703.36 2518.3,1702.19 2520.35,1701.08 2522.4,1700.01 2524.46,1699 2526.51,1698.04 2528.56,1697.13 2530.62,1696.29 2532.67,1695.51 2534.72,1694.79 2536.77,1694.14 2538.83,1693.56 2540.88,1693.04 2542.93,1692.6 2544.99,1692.23 2547.04,1691.94 2549.09,1691.75 2551.15,1691.65 2553.2,1691.62 2555.25,1691.68 2557.31,1691.81 2559.36,1692.03 2561.41,1692.34 2563.47,1692.73 2565.52,1693.2 2567.57,1693.76 2569.63,1694.39 2571.68,1695.09 2573.73,1695.87 2575.78,1696.7 2577.84,1697.59 2579.89,1698.55 2581.94,1699.55 2584,1700.6 2586.05,1701.7 2588.1,1702.84 2590.16,1704.02 2592.21,1705.23 2594.26,1706.48 2596.32,1707.75 2598.37,1709.03 2600.42,1710.33 2602.48,1711.65 2604.53,1712.98 2606.58,1714.34 2608.63,1715.73 2610.69,1717.14 2612.74,1718.55 2614.79,1719.97 2616.85,1721.4 2618.9,1722.84 2620.95,1724.28 2623.01,1725.73 2625.06,1727.18 2627.11,1728.65 2629.17,1730.13 2631.22,1731.62 2633.27,1733.1 2635.33,1734.59 2637.38,1736.1 2639.43,1737.61 2641.49,1739.13 2643.54,1740.66 2645.59,1742.18 2647.64,1743.69 2649.7,1745.2 2651.75,1746.71 2653.8,1748.23 2655.86,1749.74 2657.91,1751.25 2659.96,1752.74 2662.02,1754.22 2664.07,1755.69 2666.12,1757.15 2668.18,1758.61 2670.23,1760.06 2672.28,1761.49 2674.34,1762.9 2676.39,1764.28 2678.44,1765.64 2680.49,1766.99 2682.55,1768.34 2684.6,1769.66 2686.65,1770.95 2688.71,1772.22 2690.76,1773.45 2692.81,1774.65 2694.87,1775.83 2696.92,1776.99 2698.97,1778.11 2701.03,1779.21 2703.08,1780.26 2705.13,1781.27 2707.19,1782.24 2709.24,1783.18 2711.29,1784.09 2713.35,1784.96 2715.4,1785.8 2717.45,1786.6 2719.5,1787.36 2721.56,1788.09 2723.61,1788.79 2725.66,1789.45 2727.72,1790.09 2729.77,1790.69 2731.82,1791.26 2733.88,1791.8 2735.93,1792.3 2737.98,1792.77 2740.04,1793.23 2742.09,1793.67 2744.14,1794.09 2746.2,1794.48 2748.25,1794.84 2750.3,1795.19 2752.36,1795.52 2754.41,1795.82 2756.46,1796.12 2758.51,1796.41 2760.57,1796.68 2762.62,1796.94 2764.67,1797.18 2766.73,1797.42 2768.78,1797.64 2770.83,1797.85 2772.89,1798.05 2774.94,1798.24 2776.99,1798.42 2779.05,1798.59 2781.1,1798.74 2783.15,1798.89 2785.21,1799.04 2787.26,1799.17 2789.31,1799.3 2791.36,1799.42 2793.42,1799.53 2795.47,1799.65 2797.52,1799.75 2799.58,1799.85 2801.63,1799.95 2803.68,1800.04 2805.74,1800.12 2807.79,1800.21 2809.84,1800.29 2811.9,1800.37 2813.95,1800.45 2816,1800.52 2818.06,1800.6 2820.11,1800.67 2822.16,1800.74 2824.22,1800.8 2826.27,1800.87 2828.32,1800.93 2830.37,1801 2832.43,1801.06 2834.48,1801.11 2836.53,1801.17 2838.59,1801.22 2840.64,1801.28 2842.69,1801.33 2844.75,1801.38 2846.8,1801.43 2848.85,1801.47 2850.91,1801.51 2852.96,1801.54 2855.01,1801.57 2857.07,1801.59 2859.12,1801.6 2861.17,1801.61 2863.22,1801.62 2865.28,1801.62 2867.33,1801.61 2869.38,1801.6 2871.44,1801.58 2873.49,1801.55 2875.54,1801.52 2877.6,1801.48 2879.65,1801.44 2881.7,1801.39 2883.76,1801.33 2885.81,1801.27 2887.86,1801.2 2889.92,1801.12 2891.97,1801.04 2894.02,1800.95 2896.08,1800.85 2898.13,1800.74 2900.18,1800.63 2902.23,1800.51 2904.29,1800.39 2906.34,1800.27 2908.39,1800.14 2910.45,1800 2912.5,1799.85 2914.55,1799.7 2916.61,1799.54 2918.66,1799.39 2920.71,1799.23 2922.77,1799.07 2924.82,1798.88 2926.87,1798.7 2928.93,1798.51 2930.98,1798.32 2933.03,1798.12 2935.09,1797.91 2937.14,1797.7 2939.19,1797.49 2941.24,1797.26 2943.3,1797.01 2945.35,1796.75 2947.4,1796.47 2949.46,1796.2 2951.51,1795.91 2953.56,1795.59 2955.62,1795.25 2957.67,1794.89 2959.72,1794.49 2961.78,1794.07 2963.83,1793.64 2965.88,1793.19 2967.94,1792.68 2969.99,1792.13 2972.04,1791.54 2974.09,1790.89 2976.15,1790.2 2978.2,1789.48 2980.25,1788.72 2982.31,1787.89 2984.36,1786.99 2986.41,1786.01 2988.47,1784.97 2990.52,1783.85 2992.57,1782.66 2994.63,1781.41 2996.68,1780.06 2998.73,1778.64 3000.79,1777.13 3002.84,1775.53 3004.89,1773.83 3006.95,1772.05 3009,1770.22 3011.05,1768.24 3013.1,1766.17 3015.16,1764 3017.21,1761.71 3019.26,1759.33 3021.32,1756.87 3023.37,1754.33 3025.42,1751.61 3027.48,1748.8 3029.53,1745.87 3031.58,1742.84 3033.64,1739.71 3035.69,1736.52 3037.74,1733.24 3039.8,1729.83 3041.85,1726.35 3043.9,1722.77 3045.95,1719.14 3048.01,1715.45 3050.06,1711.72 3052.11,1707.96 3054.17,1704.16 3056.22,1700.36 3058.27,1696.56 3060.33,1692.78 3062.38,1689.03 3064.43,1685.35 3066.49,1681.74 3068.54,1678.21 3070.59,1674.8 3072.65,1671.52 3074.7,1668.39 3076.75,1665.44 3078.81,1662.69 3080.86,1660.15 3082.91,1657.83 3084.96,1655.77 3087.02,1653.97 3089.07,1652.45 3091.12,1651.22 3093.18,1650.29 3095.23,1649.68 3097.28,1649.4 3099.34,1649.43 3101.39,1649.79 3103.44,1650.47 3105.5,1651.48 3107.55,1652.81 3109.6,1654.45 3111.66,1656.4 3113.71,1658.64 3115.76,1661.15 3117.82,1663.92 3119.87,1666.94 3121.92,1670.18 3123.97,1673.62 3126.03,1677.23 3128.08,1681.02 3130.13,1684.94 3132.19,1688.96 3134.24,1693.08 3136.29,1697.24 3138.35,1701.44 3140.4,1705.68 3142.45,1709.89 3144.51,1714.08 3146.56,1718.22 3148.61,1722.29 3150.67,1726.26 3152.72,1730.13 3154.77,1733.9 3156.82,1737.56 3158.88,1741.07 3160.93,1744.43 3162.98,1747.66 3165.04,1750.7 3167.09,1753.58 3169.14,1756.32 3171.2,1758.9 3173.25,1761.33 3175.3,1763.6 3177.36,1765.71 3179.41,1767.68 3181.46,1769.48 3183.52,1771.16 3185.57,1772.69 3187.62,1774.11 3189.68,1775.4 3191.73,1776.59 3193.78,1777.66 3195.83,1778.6 3197.89,1779.5 3199.94,1780.31 3201.99,1781.04 3204.05,1781.71 3206.1,1782.3 3208.15,1782.82 3210.21,1783.26 3212.26,1783.73 3214.31,1784.14 3216.37,1784.51 3218.42,1784.84 3220.47,1785.14 3222.53,1785.37 3224.58,1785.59 3226.63,1785.83 3228.68,1786.04 3230.74,1786.24 3232.79,1786.42 3234.84,1786.59 3236.9,1786.74 3238.95,1786.89 3241,1787.04 3243.06,1787.19 3245.11,1787.35 3247.16,1787.5 3249.22,1787.67 3251.27,1787.84 3253.32,1788.01 3255.38,1788.19 3257.43,1788.38 3259.48,1788.58 3261.54,1788.78 3263.59,1788.98 3265.64,1789.19 3267.69,1789.4 3269.75,1789.62 3271.8,1789.85 3273.85,1790.08 3275.91,1790.32 3277.96,1790.56 3280.01,1790.8 3282.07,1791.03 3284.12,1791.28 3286.17,1791.53 3288.23,1791.78 3290.28,1792.02 3292.33,1792.26 3294.39,1792.5 3296.44,1792.73 3298.49,1792.97 3300.55,1793.2 3302.6,1793.43 3304.65,1793.64 3306.7,1793.86 3308.76,1794.06 3310.81,1794.25 3312.86,1794.44 3314.92,1794.62 3316.97,1794.79 3319.02,1794.96 3321.08,1795.11 3323.13,1795.24 3325.18,1795.38 3327.24,1795.49 3329.29,1795.61 3331.34,1795.71 3333.4,1795.81 3335.45,1795.89 3337.5,1795.96 3339.55,1796.02 3341.61,1796.08 3343.66,1796.13 3345.71,1796.18 3347.77,1796.22 3349.82,1796.25 3351.87,1796.27 3353.93,1796.3 3355.98,1796.32 3358.03,1796.34 3360.09,1796.36 3362.14,1796.38 3364.19,1796.4 3366.25,1796.41 3368.3,1796.43 3370.35,1796.46 3372.41,1796.48 3374.46,1796.51 3376.51,1796.55 3378.56,1796.59 3380.62,1796.63 3382.67,1796.68 3384.72,1796.74 3386.78,1796.81 3388.83,1796.88 3390.88,1796.96 3392.94,1797.03 3394.99,1797.12 3397.04,1797.2 3399.1,1797.3 3401.15,1797.4 3403.2,1797.49 3405.26,1797.6 3407.31,1797.7 3409.36,1797.8 3411.41,1797.9 3413.47,1798 3415.52,1798.11 3417.57,1798.2 3419.63,1798.3 3421.68,1798.4 3423.73,1798.49 3425.79,1798.58 3427.84,1798.66 3429.89,1798.74 3431.95,1798.82 3434,1798.9 3436.05,1798.97 3438.11,1799.03 3440.16,1799.1 3442.21,1799.16 3444.27,1799.22 3446.32,1799.28 3448.37,1799.33 3450.42,1799.39 3452.48,1799.44 3454.53,1799.49 3456.58,1799.54 3458.64,1799.6 3460.69,1799.65 3462.74,1799.7 3464.8,1799.76 3466.85,1799.81 3468.9,1799.87 3470.96,1799.92 3473.01,1799.98 3475.06,1800.04 3477.12,1800.1 3479.17,1800.16 3481.22,1800.22 3483.28,1800.28 3485.33,1800.34 3487.38,1800.4 3489.43,1800.45 3491.49,1800.5 3493.54,1800.56 3495.59,1800.61 3497.65,1800.66 3499.7,1800.7 3501.75,1800.74 3503.81,1800.77 3505.86,1800.8 3507.91,1800.83 3509.97,1800.84 3512.02,1800.85 3514.07,1800.86 3516.13,1800.85 3518.18,1800.83 3520.23,1800.79 3522.28,1800.75 3524.34,1800.7 3526.39,1800.64 3528.44,1800.57 3530.5,1800.48 3532.55,1800.39 3534.6,1800.28 3536.66,1800.16 3538.71,1800.03 3540.76,1799.88 3542.82,1799.72 3544.87,1799.55 3546.92,1799.37 3548.98,1799.17 3551.03,1798.96 3553.08,1798.74 3555.14,1798.51 3557.19,1798.27 3559.24,1798.02 3561.29,1797.76 3563.35,1797.48 3565.4,1797.2 3567.45,1796.91 3569.51,1796.61 3571.56,1796.3 3573.61,1795.98 3575.67,1795.64 3577.72,1795.3 3579.77,1794.95 3581.83,1794.61 3583.88,1794.26 3585.93,1793.9 3587.99,1793.53 3590.04,1793.17 3592.09,1792.79 3594.14,1792.41 3596.2,1792.04 3598.25,1791.66 3600.3,1791.28 3602.36,1790.89 3604.41,1790.5 3606.46,1790.11 3608.52,1789.72 3610.57,1789.33 3612.62,1788.95 3614.68,1788.56 3616.73,1788.16 3618.78,1787.77 3620.84,1787.38 3622.89,1786.99 3624.94,1786.61 3627,1786.23 3629.05,1785.85 3631.1,1785.47 3633.15,1785.09 3635.21,1784.72 3637.26,1784.35 3639.31,1784 3641.37,1783.65 3643.42,1783.31 3645.47,1782.98 3647.53,1782.66 3649.58,1782.34 3651.63,1782.05 3653.69,1781.77 3655.74,1781.51 3657.79,1781.26 3659.85,1781.03 3661.9,1780.82 3663.95,1780.62 3666.01,1780.45 3668.06,1780.3 3670.11,1780.18 3672.16,1780.07 3674.22,1779.99 3676.27,1779.93 3678.32,1779.89 3680.38,1779.88 3682.43,1779.88 3684.48,1779.9 3686.54,1779.95 3688.59,1780 3690.64,1780.07 3692.7,1780.16 3694.75,1780.26 3696.8,1780.37 3698.86,1780.49 3700.91,1780.61 3702.96,1780.75 3705.01,1780.89 3707.07,1781.04 3709.12,1781.19 3711.17,1781.34 3713.23,1781.49 3715.28,1781.64 3717.33,1781.8 3719.39,1781.96 3721.44,1782.11 3723.49,1782.28 3725.55,1782.44 3727.6,1782.6 3729.65,1782.77 3731.71,1782.95 3733.76,1783.13 3735.81,1783.31 3737.87,1783.5 3739.92,1783.7 3741.97,1783.9 3744.02,1784.11 3746.08,1784.33 3748.13,1784.55 3750.18,1784.79 3752.24,1785.03 3754.29,1785.28 3756.34,1785.53 3758.4,1785.8 3760.45,1786.07 3762.5,1786.34 3764.56,1786.61 3766.61,1786.89 3768.66,1787.15 3770.72,1787.41 3772.77,1787.68 3774.82,1787.94 3776.87,1788.2 3778.93,1788.44 3780.98,1788.68 3783.03,1788.91 3785.09,1789.13 3787.14,1789.34 3789.19,1789.55 3791.25,1789.73 3793.3,1789.91 3795.35,1790.07 3797.41,1790.22 3799.46,1790.36 3801.51,1790.5 3803.57,1790.63 3805.62,1790.74 3807.67,1790.84 3809.73,1790.94 3811.78,1791.02 3813.83,1791.1 3815.88,1791.17 3817.94,1791.25 3819.99,1791.31 3822.04,1791.38 3824.1,1791.44 3826.15,1791.5 3828.2,1791.55 3830.26,1791.61 3832.31,1791.65 3834.36,1791.71 3836.42,1791.77 3838.47,1791.83 3840.52,1791.89 3842.58,1791.95 3844.63,1792.02 3846.68,1792.09 3848.74,1792.17 3850.79,1792.25 3852.84,1792.34 3854.89,1792.42 3856.95,1792.51 3859,1792.61 3861.05,1792.72 3863.11,1792.83 3865.16,1792.95 3867.21,1793.07 3869.27,1793.2 3871.32,1793.33 3873.37,1793.47 3875.43,1793.62 3877.48,1793.77 3879.53,1793.93 3881.59,1794.08 3883.64,1794.25 3885.69,1794.41 3887.74,1794.58 3889.8,1794.75 3891.85,1794.91 3893.9,1795.08 3895.96,1795.24 3898.01,1795.41 3900.06,1795.57 3902.12,1795.73 3904.17,1795.89 3906.22,1796.04 3908.28,1796.2 3910.33,1796.34 3912.38,1796.48 3914.44,1796.62 3916.49,1796.75 3918.54,1796.88 3920.6,1797 3922.65,1797.11 3924.7,1797.22 3926.75,1797.33 3928.81,1797.43 3930.86,1797.53 3932.91,1797.62 3934.97,1797.72 3937.02,1797.8 3939.07,1797.89 3941.13,1797.96 3943.18,1798.04 3945.23,1798.11 3947.29,1798.19 3949.34,1798.26 3951.39,1798.33 3953.45,1798.4 3955.5,1798.47 3957.55,1798.53 3959.6,1798.59 3961.66,1798.66 3963.71,1798.72 3965.76,1798.78 3967.82,1798.83 3969.87,1798.89 3971.92,1798.94 3973.98,1798.99 3976.03,1799.05 3978.08,1799.1 3980.14,1799.15 3982.19,1799.2 3984.24,1799.25 3986.3,1799.3 3988.35,1799.34 3990.4,1799.39 3992.46,1799.43 3994.51,1799.47 3996.56,1799.5 3998.61,1799.54 4000.67,1799.57 4002.72,1799.6 4004.77,1799.62 4006.83,1799.64 4008.88,1799.66 4010.93,1799.67 4012.99,1799.67 4015.04,1799.67 4017.09,1799.66 4019.15,1799.65 4021.2,1799.63 4023.25,1799.59 4025.31,1799.54 4027.36,1799.48 4029.41,1799.41 4031.47,1799.32 4033.52,1799.23 4035.57,1799.11 4037.62,1798.98 4039.68,1798.83 4041.73,1798.66 4043.78,1798.47 4045.84,1798.27 4047.89,1798.04 4049.94,1797.79 4052,1797.52 4054.05,1797.23 4056.1,1796.92 4058.16,1796.59 4060.21,1796.25 4062.26,1795.89 4064.32,1795.52 4066.37,1795.14 4068.42,1794.75 4070.47,1794.35 4072.53,1793.95 4074.58,1793.56 4076.63,1793.17 4078.69,1792.79 4080.74,1792.42 4082.79,1792.08 4084.85,1791.75 4086.9,1791.44 4088.95,1791.17 4091.01,1790.93 4093.06,1790.72 4095.11,1790.55 4097.17,1790.42 4099.22,1790.33 4101.27,1790.29 4103.33,1790.29 4105.38,1790.34 4107.43,1790.43 4109.48,1790.57 4111.54,1790.75 4113.59,1790.97 4115.64,1791.22 4117.7,1791.52 4119.75,1791.85 4121.8,1792.21 4123.86,1792.59 4125.91,1793 4127.96,1793.42 4130.02,1793.86 4132.07,1794.31 4134.12,1794.76 4136.18,1795.22 4138.23,1795.68 4140.28,1796.13 4142.34,1796.57 4144.39,1797 4146.44,1797.42 4148.49,1797.83 4150.55,1798.21 4152.6,1798.58 4154.65,1798.93 4156.71,1799.26 4158.76,1799.57 4160.81,1799.86 4162.87,1800.13 4164.92,1800.38 4166.97,1800.6 4169.03,1800.82 4171.08,1801.01 4173.13,1801.19 4175.19,1801.35 4177.24,1801.5 4179.29,1801.64 4181.34,1801.77 4183.4,1801.89 4185.45,1802 4187.5,1802.1 4189.56,1802.19 4191.61,1802.27 4193.66,1802.35 4195.72,1802.43 4197.77,1802.5 4199.82,1802.56 4201.88,1802.62 4203.93,1802.67 4205.98,1802.73 4208.04,1802.77 4210.09,1802.82 4212.14,1802.86 4214.2,1802.89 4216.25,1802.92 4218.3,1802.95 4220.35,1802.97 4222.41,1802.98 4224.46,1803 4226.51,1803 4228.57,1803 4230.62,1803 4232.67,1802.99 4234.73,1802.98 4236.78,1802.96 4238.83,1802.94 4240.89,1802.92 4242.94,1802.88 4244.99,1802.85 4247.05,1802.81 4249.1,1802.76 4251.15,1802.71 4253.2,1802.65 4255.26,1802.6 4257.31,1802.53 4259.36,1802.47 4261.42,1802.4 4263.47,1802.34 4265.52,1802.27 4267.58,1802.19 4269.63,1802.12 4271.68,1802.05 4273.74,1801.98 4275.79,1801.92 4277.84,1801.85 4279.9,1801.78 4281.95,1801.72 4284,1801.66 4286.06,1801.6 4288.11,1801.55 4290.16,1801.5 4292.21,1801.45 4294.27,1801.41 4296.32,1801.38 4298.37,1801.34 4300.43,1801.32 4302.48,1801.29 4304.53,1801.28 4306.59,1801.26 4308.64,1801.25 4310.69,1801.24 4312.75,1801.24 4314.8,1801.24 4316.85,1801.24 4318.91,1801.24 4320.96,1801.25 4323.01,1801.25 4325.07,1801.26 4327.12,1801.27 4329.17,1801.27 4331.22,1801.28 4333.28,1801.29 4335.33,1801.29 4337.38,1801.29 4339.44,1801.29 4341.49,1801.28 4343.54,1801.28 4345.6,1801.27 4347.65,1801.25 4349.7,1801.23 4351.76,1801.21 4353.81,1801.18 4355.86,1801.15 4357.92,1801.11 4359.97,1801.07 4362.02,1801.02 4364.07,1800.96 4366.13,1800.91 4368.18,1800.84 4370.23,1800.77 4372.29,1800.7 4374.34,1800.62 4376.39,1800.54 4378.45,1800.46 4380.5,1800.37 4382.55,1800.28 4384.61,1800.19 4386.66,1800.09 4388.71,1800 4390.77,1799.9 4392.82,1799.81 4394.87,1799.71 4396.93,1799.62 4398.98,1799.53 4401.03,1799.44 4403.08,1799.36 4405.14,1799.29 4407.19,1799.22 4409.24,1799.15 4411.3,1799.1 4413.35,1799.04 4415.4,1799 4417.46,1798.96 4419.51,1798.93 4421.56,1798.91 4423.62,1798.89 4425.67,1798.88 4427.72,1798.88 4429.78,1798.89 4431.83,1798.9 4433.88,1798.92 4435.93,1798.94 4437.99,1798.96 4440.04,1798.99 4442.09,1799.03 4444.15,1799.06 4446.2,1799.1 4448.25,1799.14 4450.31,1799.18 4452.36,1799.22 4454.41,1799.26 4456.47,1799.3 4458.52,1799.33 4460.57,1799.36 4462.63,1799.39 4464.68,1799.42 4466.73,1799.44 4468.79,1799.46 4470.84,1799.47 4472.89,1799.48 4474.94,1799.48 4477,1799.48 4479.05,1799.48 4481.1,1799.47 4483.16,1799.46 4485.21,1799.44 4487.26,1799.41 4489.32,1799.39 4491.37,1799.36 4493.42,1799.32 4495.48,1799.28 4497.53,1799.24 4499.58,1799.19 4501.64,1799.15 4503.69,1799.09 4505.74,1799.04 4507.8,1798.98 4509.85,1798.91 4511.9,1798.85 4513.95,1798.78 4516.01,1798.71 4518.06,1798.64 4520.11,1798.56 4522.17,1798.48 4524.22,1798.39 4526.27,1798.3 4528.33,1798.21 4530.38,1798.11 4532.43,1798.01 4534.49,1797.91 4536.54,1797.81 4538.59,1797.7 4540.65,1797.58 4542.7,1797.47 4544.75,1797.35 4546.8,1797.22 4548.86,1797.09 4550.91,1796.96 4552.96,1796.82 4555.02,1796.69 4557.07,1796.54 4559.12,1796.4 4561.18,1796.26 4563.23,1796.11 4565.28,1795.96 4567.34,1795.81 4569.39,1795.66 4571.44,1795.51 4573.5,1795.35 4575.55,1795.2 4577.6,1795.05 4579.66,1794.91 4581.71,1794.76 4583.76,1794.62 4585.81,1794.47 4587.87,1794.33 4589.92,1794.2 4591.97,1794.07 4594.03,1793.94 4596.08,1793.81 4598.13,1793.69 4600.19,1793.57 4602.24,1793.46 4604.29,1793.35 4606.35,1793.24 4608.4,1793.14 4610.45,1793.04 4612.51,1792.95 4614.56,1792.86 4616.61,1792.77 4618.66,1792.69 4620.72,1792.6 4622.77,1792.53 4624.82,1792.45 "/>
<path clip-path="url(#clip881)" d="M405.609 1728.43 L377.609 1784.43 L433.609 1784.43 L405.609 1728.43 Z" fill="#008000" fill-rule="evenodd" fill-opacity="1" stroke="#000000" stroke-opacity="1" stroke-width="4"/>
<path clip-path="url(#clip881)" d="M360.44 1750.17 L332.44 1806.17 L388.44 1806.17 L360.44 1750.17 Z" fill="#008000" fill-rule="evenodd" fill-opacity="1" stroke="#000000" stroke-opacity="1" stroke-width="4"/>
<path clip-path="url(#clip881)" d="M1206.34 1646.21 L1178.34 1702.21 L1234.34 1702.21 L1206.34 1646.21 Z" fill="#008000" fill-rule="evenodd" fill-opacity="1" stroke="#000000" stroke-opacity="1" stroke-width="4"/>
<path clip-path="url(#clip881)" d="M1376.75 1517.91 L1348.75 1573.91 L1404.75 1573.91 L1376.75 1517.91 Z" fill="#008000" fill-rule="evenodd" fill-opacity="1" stroke="#000000" stroke-opacity="1" stroke-width="4"/>
<path clip-path="url(#clip881)" d="M1157.06 1639.13 L1129.06 1695.13 L1185.06 1695.13 L1157.06 1639.13 Z" fill="#008000" fill-rule="evenodd" fill-opacity="1" stroke="#000000" stroke-opacity="1" stroke-width="4"/>
<path clip-path="url(#clip881)" d="M2064.55 1666 L2036.55 1722 L2092.55 1722 L2064.55 1666 Z" fill="#008000" fill-rule="evenodd" fill-opacity="1" stroke="#000000" stroke-opacity="1" stroke-width="4"/>
<path clip-path="url(#clip881)" d="M2503.92 1683.39 L2475.92 1739.39 L2531.92 1739.39 L2503.92 1683.39 Z" fill="#008000" fill-rule="evenodd" fill-opacity="1" stroke="#000000" stroke-opacity="1" stroke-width="4"/>
<path clip-path="url(#clip881)" d="M2982.31 1759.89 L2954.31 1815.89 L3010.31 1815.89 L2982.31 1759.89 Z" fill="#008000" fill-rule="evenodd" fill-opacity="1" stroke="#000000" stroke-opacity="1" stroke-width="4"/>
<path clip-path="url(#clip881)" d="M3655.74 1753.51 L3627.74 1809.51 L3683.74 1809.51 L3655.74 1753.51 Z" fill="#008000" fill-rule="evenodd" fill-opacity="1" stroke="#000000" stroke-opacity="1" stroke-width="4"/>
<path clip-path="url(#clip881)" d="M4082.79 1764.08 L4054.79 1820.08 L4110.79 1820.08 L4082.79 1764.08 Z" fill="#008000" fill-rule="evenodd" fill-opacity="1" stroke="#000000" stroke-opacity="1" stroke-width="4"/>
<path clip-path="url(#clip881)" d="M487.735 1626.8 L479.275 1651.14 L453.499 1651.68 L474.055 1667.27 L466.567 1691.93 L487.735 1677.2 L508.903 1691.93 L501.415 1667.27 L521.971 1651.68 L496.195 1651.14 L487.735 1626.8 Z" fill="#ff0000" fill-rule="evenodd" fill-opacity="1" stroke="#000000" stroke-opacity="1" stroke-width="4"/>
<path clip-path="url(#clip881)" d="M871.673 978.332 L863.213 1002.67 L837.437 1003.21 L857.993 1018.8 L850.505 1043.46 L871.673 1028.73 L892.841 1043.46 L885.353 1018.8 L905.909 1003.21 L880.133 1002.67 L871.673 978.332 Z" fill="#ff0000" fill-rule="evenodd" fill-opacity="1" stroke="#000000" stroke-opacity="1" stroke-width="4"/>
<path clip-path="url(#clip881)" d="M1304.89 1464.46 L1296.43 1488.8 L1270.65 1489.34 L1291.21 1504.93 L1283.72 1529.59 L1304.89 1514.86 L1326.05 1529.59 L1318.57 1504.93 L1339.12 1489.34 L1313.35 1488.8 L1304.89 1464.46 Z" fill="#ff0000" fill-rule="evenodd" fill-opacity="1" stroke="#000000" stroke-opacity="1" stroke-width="4"/>
<path clip-path="url(#clip881)" d="M1528.68 1090.42 L1520.22 1114.76 L1494.44 1115.3 L1515 1130.89 L1507.51 1155.55 L1528.68 1140.82 L1549.85 1155.55 L1542.36 1130.89 L1562.92 1115.3 L1537.14 1114.76 L1528.68 1090.42 Z" fill="#ff0000" fill-rule="evenodd" fill-opacity="1" stroke="#000000" stroke-opacity="1" stroke-width="4"/>
<path clip-path="url(#clip881)" d="M1750.42 112.454 L1741.96 136.79 L1716.18 137.33 L1736.74 152.918 L1729.25 177.578 L1750.42 162.854 L1771.59 177.578 L1764.1 152.918 L1784.66 137.33 L1758.88 136.79 L1750.42 112.454 Z" fill="#ff0000" fill-rule="evenodd" fill-opacity="1" stroke="#000000" stroke-opacity="1" stroke-width="4"/>
<path clip-path="url(#clip881)" d="M2167.21 1225.05 L2158.75 1249.39 L2132.97 1249.93 L2153.53 1265.52 L2146.04 1290.18 L2167.21 1275.45 L2188.38 1290.18 L2180.89 1265.52 L2201.44 1249.93 L2175.67 1249.39 L2167.21 1225.05 Z" fill="#ff0000" fill-rule="evenodd" fill-opacity="1" stroke="#000000" stroke-opacity="1" stroke-width="4"/>
<path clip-path="url(#clip881)" d="M2553.2 1655.62 L2544.74 1679.96 L2518.96 1680.5 L2539.52 1696.09 L2532.03 1720.75 L2553.2 1706.02 L2574.37 1720.75 L2566.88 1696.09 L2587.44 1680.5 L2561.66 1679.96 L2553.2 1655.62 Z" fill="#ff0000" fill-rule="evenodd" fill-opacity="1" stroke="#000000" stroke-opacity="1" stroke-width="4"/>
<path clip-path="url(#clip881)" d="M3097.28 1613.4 L3088.82 1637.73 L3063.05 1638.27 L3083.6 1653.86 L3076.12 1678.52 L3097.28 1663.8 L3118.45 1678.52 L3110.96 1653.86 L3131.52 1638.27 L3105.74 1637.73 L3097.28 1613.4 Z" fill="#ff0000" fill-rule="evenodd" fill-opacity="1" stroke="#000000" stroke-opacity="1" stroke-width="4"/>
<path clip-path="url(#clip881)" d="M3682.43 1743.88 L3673.97 1768.21 L3648.19 1768.75 L3668.75 1784.34 L3661.26 1809 L3682.43 1794.28 L3703.6 1809 L3696.11 1784.34 L3716.67 1768.75 L3690.89 1768.21 L3682.43 1743.88 Z" fill="#ff0000" fill-rule="evenodd" fill-opacity="1" stroke="#000000" stroke-opacity="1" stroke-width="4"/>
<path clip-path="url(#clip881)" d="M4101.27 1754.29 L4092.81 1778.62 L4067.04 1779.16 L4087.59 1794.75 L4080.1 1819.41 L4101.27 1804.69 L4122.44 1819.41 L4114.95 1794.75 L4135.51 1779.16 L4109.73 1778.62 L4101.27 1754.29 Z" fill="#ff0000" fill-rule="evenodd" fill-opacity="1" stroke="#000000" stroke-opacity="1" stroke-width="4"/>
<path clip-path="url(#clip881)" d="M573.223 1688.73 L517.223 1688.73 L545.223 1744.73 L573.223 1688.73 Z" fill="#4169e1" fill-rule="evenodd" fill-opacity="1" stroke="#000000" stroke-opacity="1" stroke-width="4"/>
<path clip-path="url(#clip881)" d="M1183.01 1637.99 L1127.01 1637.99 L1155.01 1693.99 L1183.01 1637.99 Z" fill="#4169e1" fill-rule="evenodd" fill-opacity="1" stroke="#000000" stroke-opacity="1" stroke-width="4"/>
<path clip-path="url(#clip881)" d="M1400.64 1516.6 L1344.64 1516.6 L1372.64 1572.6 L1400.64 1516.6 Z" fill="#4169e1" fill-rule="evenodd" fill-opacity="1" stroke="#000000" stroke-opacity="1" stroke-width="4"/>
<path clip-path="url(#clip881)" d="M1620.33 1275.52 L1564.33 1275.52 L1592.33 1331.52 L1620.33 1275.52 Z" fill="#4169e1" fill-rule="evenodd" fill-opacity="1" stroke="#000000" stroke-opacity="1" stroke-width="4"/>
<path clip-path="url(#clip881)" d="M4652.82 1764.45 L4596.82 1764.45 L4624.82 1820.45 L4652.82 1764.45 Z" fill="#4169e1" fill-rule="evenodd" fill-opacity="1" stroke="#000000" stroke-opacity="1" stroke-width="4"/>
<path clip-path="url(#clip881)" d="M2398.47 1750.98 L2342.47 1750.98 L2370.47 1806.98 L2398.47 1750.98 Z" fill="#4169e1" fill-rule="evenodd" fill-opacity="1" stroke="#000000" stroke-opacity="1" stroke-width="4"/>
<path clip-path="url(#clip881)" d="M2638.69 1689.14 L2582.69 1689.14 L2610.69 1745.14 L2638.69 1689.14 Z" fill="#4169e1" fill-rule="evenodd" fill-opacity="1" stroke="#000000" stroke-opacity="1" stroke-width="4"/>
<path clip-path="url(#clip881)" d="M3262.84 1758.59 L3206.84 1758.59 L3234.84 1814.59 L3262.84 1758.59 Z" fill="#4169e1" fill-rule="evenodd" fill-opacity="1" stroke="#000000" stroke-opacity="1" stroke-width="4"/>
<path clip-path="url(#clip881)" d="M3737.12 1753.19 L3681.12 1753.19 L3709.12 1809.19 L3737.12 1753.19 Z" fill="#4169e1" fill-rule="evenodd" fill-opacity="1" stroke="#000000" stroke-opacity="1" stroke-width="4"/>
<path clip-path="url(#clip881)" d="M4147.75 1763.85 L4091.75 1763.85 L4119.75 1819.85 L4147.75 1763.85 Z" fill="#4169e1" fill-rule="evenodd" fill-opacity="1" stroke="#000000" stroke-opacity="1" stroke-width="4"/>
<path clip-path="url(#clip880)" d="M3737.86 402.934 L4602.08 402.934 L4602.08 157.278 L3737.86 157.278  Z" fill="#ffffff" fill-rule="evenodd" fill-opacity="1"/>
<polyline clip-path="url(#clip880)" style="stroke:#000000; stroke-linecap:round; stroke-linejoin:round; stroke-width:4; stroke-opacity:1; fill:none" points="3737.86,402.934 4602.08,402.934 4602.08,157.278 3737.86,157.278 3737.86,402.934 "/>
<polyline clip-path="url(#clip880)" style="stroke:#4682b4; stroke-linecap:round; stroke-linejoin:round; stroke-width:8; stroke-opacity:1; fill:none" points="3788.08,206.409 4089.43,206.409 "/>
<g clip-path="url(#clip880)">
<text style="fill:#000000; fill-opacity:1; font-family:Century Gothic,CenturyGothic,AppleGothic,sans-serif; font-size:47px; text-anchor:start;" transform="rotate(0, 4139.66, 223.909)" x="4139.66" y="223.909">daily_interp_gauss</text>
</g>
<path clip-path="url(#clip880)" d="M3938.76 231.647 L3914.86 279.434 L3962.65 279.434 L3938.76 231.647 Z" fill="#008000" fill-rule="evenodd" fill-opacity="1" stroke="#000000" stroke-opacity="1" stroke-width="3.41333"/>
<g clip-path="url(#clip880)">
<text style="fill:#000000; fill-opacity:1; font-family:Century Gothic,CenturyGothic,AppleGothic,sans-serif; font-size:47px; text-anchor:start;" transform="rotate(0, 4139.66, 273.04)" x="4139.66" y="273.04">start</text>
</g>
<path clip-path="url(#clip880)" d="M3938.76 280.419 L3933.06 296.814 L3915.69 297.177 L3929.54 307.679 L3924.5 324.292 L3938.76 314.373 L3953.02 324.292 L3947.97 307.679 L3961.82 297.177 L3944.46 296.814 L3938.76 280.419 Z" fill="#ff0000" fill-rule="evenodd" fill-opacity="1" stroke="#000000" stroke-opacity="1" stroke-width="2.69474"/>
<g clip-path="url(#clip880)">
<text style="fill:#000000; fill-opacity:1; font-family:Century Gothic,CenturyGothic,AppleGothic,sans-serif; font-size:47px; text-anchor:start;" transform="rotate(0, 4139.66, 322.172)" x="4139.66" y="322.172">peak</text>
</g>
<path clip-path="url(#clip880)" d="M3962.65 329.909 L3914.86 329.909 L3938.76 377.696 L3962.65 329.909 Z" fill="#4169e1" fill-rule="evenodd" fill-opacity="1" stroke="#000000" stroke-opacity="1" stroke-width="3.41333"/>
<g clip-path="url(#clip880)">
<text style="fill:#000000; fill-opacity:1; font-family:Century Gothic,CenturyGothic,AppleGothic,sans-serif; font-size:47px; text-anchor:start;" transform="rotate(0, 4139.66, 371.303)" x="4139.66" y="371.303">end</text>
</g>
<path clip-path="url(#clip880)" d="M452.191 1613.96 L456.913 1613.96 L464.182 1643.17 L471.427 1613.96 L476.682 1613.96 L483.95 1643.17 L491.195 1613.96 L495.941 1613.96 L487.26 1648.52 L481.381 1648.52 L474.089 1618.52 L466.728 1648.52 L460.848 1648.52 L452.191 1613.96 Z" fill="#ff0000" fill-rule="nonzero" fill-opacity="1" /><path clip-path="url(#clip880)" d="M503.371 1644.58 L511.01 1644.58 L511.01 1618.22 L502.7 1619.88 L502.7 1615.62 L510.964 1613.96 L515.64 1613.96 L515.64 1644.58 L523.279 1644.58 L523.279 1648.52 L503.371 1648.52 L503.371 1644.58 Z" fill="#ff0000" fill-rule="nonzero" fill-opacity="1" /><path clip-path="url(#clip880)" d="M462.353 1665.8 L480.709 1665.8 L480.709 1669.73 L466.635 1669.73 L466.635 1678.2 Q467.654 1677.86 468.672 1677.69 Q469.691 1677.51 470.709 1677.51 Q476.496 1677.51 479.876 1680.68 Q483.256 1683.85 483.256 1689.27 Q483.256 1694.85 479.783 1697.95 Q476.311 1701.03 469.992 1701.03 Q467.816 1701.03 465.547 1700.66 Q463.302 1700.29 460.895 1699.55 L460.895 1694.85 Q462.978 1695.98 465.2 1696.54 Q467.422 1697.09 469.899 1697.09 Q473.904 1697.09 476.242 1694.99 Q478.58 1692.88 478.58 1689.27 Q478.58 1685.66 476.242 1683.55 Q473.904 1681.44 469.899 1681.44 Q468.024 1681.44 466.149 1681.86 Q464.297 1682.28 462.353 1683.16 L462.353 1665.8 Z" fill="#ff0000" fill-rule="nonzero" fill-opacity="1" /><path clip-path="url(#clip880)" d="M503.047 1681.21 Q499.899 1681.21 498.047 1683.37 Q496.219 1685.52 496.219 1689.27 Q496.219 1693 498.047 1695.17 Q499.899 1697.32 503.047 1697.32 Q506.195 1697.32 508.024 1695.17 Q509.876 1693 509.876 1689.27 Q509.876 1685.52 508.024 1683.37 Q506.195 1681.21 503.047 1681.21 M512.33 1666.56 L512.33 1670.82 Q510.57 1669.99 508.765 1669.55 Q506.982 1669.11 505.223 1669.11 Q500.593 1669.11 498.14 1672.23 Q495.709 1675.36 495.362 1681.68 Q496.728 1679.66 498.788 1678.6 Q500.848 1677.51 503.325 1677.51 Q508.533 1677.51 511.543 1680.68 Q514.575 1683.83 514.575 1689.27 Q514.575 1694.59 511.427 1697.81 Q508.279 1701.03 503.047 1701.03 Q497.052 1701.03 493.881 1696.44 Q490.709 1691.84 490.709 1683.11 Q490.709 1674.92 494.598 1670.06 Q498.487 1665.17 505.038 1665.17 Q506.797 1665.17 508.58 1665.52 Q510.385 1665.87 512.33 1666.56 Z" fill="#ff0000" fill-rule="nonzero" fill-opacity="1" /><path clip-path="url(#clip880)" d="M836.314 939.546 L841.037 939.546 L848.305 968.759 L855.551 939.546 L860.805 939.546 L868.074 968.759 L875.319 939.546 L880.064 939.546 L871.384 974.106 L865.504 974.106 L858.213 944.106 L850.851 974.106 L844.972 974.106 L836.314 939.546 Z" fill="#ff0000" fill-rule="nonzero" fill-opacity="1" /><path clip-path="url(#clip880)" d="M890.712 970.171 L907.032 970.171 L907.032 974.106 L885.087 974.106 L885.087 970.171 Q887.749 967.416 892.333 962.786 Q896.939 958.134 898.12 956.791 Q900.365 954.268 901.245 952.532 Q902.147 950.773 902.147 949.083 Q902.147 946.328 900.203 944.592 Q898.282 942.856 895.18 942.856 Q892.981 942.856 890.527 943.62 Q888.097 944.384 885.319 945.935 L885.319 941.212 Q888.143 940.078 890.597 939.499 Q893.05 938.921 895.087 938.921 Q900.458 938.921 903.652 941.606 Q906.847 944.291 906.847 948.782 Q906.847 950.911 906.036 952.833 Q905.249 954.731 903.143 957.323 Q902.564 957.995 899.462 961.212 Q896.36 964.407 890.712 970.171 Z" fill="#ff0000" fill-rule="nonzero" fill-opacity="1" /><path clip-path="url(#clip880)" d="M845.932 1007.31 Q849.289 1008.03 851.164 1010.3 Q853.062 1012.57 853.062 1015.9 Q853.062 1021.02 849.544 1023.82 Q846.025 1026.62 839.544 1026.62 Q837.368 1026.62 835.053 1026.18 Q832.761 1025.76 830.308 1024.9 L830.308 1020.39 Q832.252 1021.52 834.567 1022.1 Q836.882 1022.68 839.405 1022.68 Q843.803 1022.68 846.095 1020.95 Q848.409 1019.21 848.409 1015.9 Q848.409 1012.84 846.257 1011.13 Q844.127 1009.39 840.308 1009.39 L836.28 1009.39 L836.28 1005.55 L840.493 1005.55 Q843.942 1005.55 845.77 1004.19 Q847.599 1002.8 847.599 1000.21 Q847.599 997.543 845.701 996.131 Q843.826 994.696 840.308 994.696 Q838.386 994.696 836.187 995.113 Q833.988 995.529 831.349 996.409 L831.349 992.242 Q834.011 991.501 836.326 991.131 Q838.664 990.761 840.724 990.761 Q846.048 990.761 849.15 993.191 Q852.252 995.599 852.252 999.719 Q852.252 1002.59 850.608 1004.58 Q848.965 1006.55 845.932 1007.31 Z" fill="#ff0000" fill-rule="nonzero" fill-opacity="1" /><path clip-path="url(#clip880)" d="M862.738 1022.01 L870.377 1022.01 L870.377 995.645 L862.067 997.312 L862.067 993.052 L870.331 991.386 L875.006 991.386 L875.006 1022.01 L882.645 1022.01 L882.645 1025.95 L862.738 1025.95 L862.738 1022.01 Z" fill="#ff0000" fill-rule="nonzero" fill-opacity="1" /><path clip-path="url(#clip880)" d="M892.136 991.386 L910.492 991.386 L910.492 995.321 L896.418 995.321 L896.418 1003.79 Q897.437 1003.45 898.455 1003.28 Q899.474 1003.1 900.492 1003.1 Q906.279 1003.1 909.659 1006.27 Q913.039 1009.44 913.039 1014.86 Q913.039 1020.44 909.566 1023.54 Q906.094 1026.62 899.775 1026.62 Q897.599 1026.62 895.33 1026.25 Q893.085 1025.88 890.678 1025.14 L890.678 1020.44 Q892.761 1021.57 894.983 1022.13 Q897.205 1022.68 899.682 1022.68 Q903.687 1022.68 906.025 1020.58 Q908.363 1018.47 908.363 1014.86 Q908.363 1011.25 906.025 1009.14 Q903.687 1007.03 899.682 1007.03 Q897.807 1007.03 895.932 1007.45 Q894.08 1007.87 892.136 1008.75 L892.136 991.386 Z" fill="#ff0000" fill-rule="nonzero" fill-opacity="1" /><path clip-path="url(#clip880)" d="M1269.05 1445.12 L1273.78 1445.12 L1281.04 1474.34 L1288.29 1445.12 L1293.54 1445.12 L1300.81 1474.34 L1308.06 1445.12 L1312.8 1445.12 L1304.12 1479.68 L1298.24 1479.68 L1290.95 1449.68 L1283.59 1479.68 L1277.71 1479.68 L1269.05 1445.12 Z" fill="#ff0000" fill-rule="nonzero" fill-opacity="1" /><path clip-path="url(#clip880)" d="M1333.59 1461.05 Q1336.95 1461.77 1338.82 1464.03 Q1340.72 1466.3 1340.72 1469.64 Q1340.72 1474.75 1337.2 1477.55 Q1333.68 1480.35 1327.2 1480.35 Q1325.03 1480.35 1322.71 1479.91 Q1320.42 1479.5 1317.97 1478.64 L1317.97 1474.13 Q1319.91 1475.26 1322.22 1475.84 Q1324.54 1476.42 1327.06 1476.42 Q1331.46 1476.42 1333.75 1474.68 Q1336.07 1472.95 1336.07 1469.64 Q1336.07 1466.58 1333.91 1464.87 Q1331.78 1463.13 1327.97 1463.13 L1323.94 1463.13 L1323.94 1459.29 L1328.15 1459.29 Q1331.6 1459.29 1333.43 1457.92 Q1335.26 1456.53 1335.26 1453.94 Q1335.26 1451.28 1333.36 1449.87 Q1331.48 1448.43 1327.97 1448.43 Q1326.04 1448.43 1323.85 1448.85 Q1321.65 1449.27 1319.01 1450.15 L1319.01 1445.98 Q1321.67 1445.24 1323.98 1444.87 Q1326.32 1444.5 1328.38 1444.5 Q1333.71 1444.5 1336.81 1446.93 Q1339.91 1449.34 1339.91 1453.46 Q1339.91 1456.33 1338.27 1458.32 Q1336.62 1460.28 1333.59 1461.05 Z" fill="#ff0000" fill-rule="nonzero" fill-opacity="1" /><path clip-path="url(#clip880)" d="M1265.11 1527.59 L1272.75 1527.59 L1272.75 1501.22 L1264.44 1502.89 L1264.44 1498.63 L1272.7 1496.96 L1277.38 1496.96 L1277.38 1527.59 L1285.01 1527.59 L1285.01 1531.52 L1265.11 1531.52 L1265.11 1527.59 Z" fill="#ff0000" fill-rule="nonzero" fill-opacity="1" /><path clip-path="url(#clip880)" d="M1298.49 1527.59 L1314.81 1527.59 L1314.81 1531.52 L1292.86 1531.52 L1292.86 1527.59 Q1295.52 1524.83 1300.11 1520.2 Q1304.71 1515.55 1305.89 1514.21 Q1308.14 1511.68 1309.02 1509.95 Q1309.92 1508.19 1309.92 1506.5 Q1309.92 1503.74 1307.98 1502.01 Q1306.06 1500.27 1302.95 1500.27 Q1300.76 1500.27 1298.3 1501.04 Q1295.87 1501.8 1293.09 1503.35 L1293.09 1498.63 Q1295.92 1497.49 1298.37 1496.92 Q1300.82 1496.34 1302.86 1496.34 Q1308.23 1496.34 1311.43 1499.02 Q1314.62 1501.71 1314.62 1506.2 Q1314.62 1508.33 1313.81 1510.25 Q1313.02 1512.15 1310.92 1514.74 Q1310.34 1515.41 1307.24 1518.63 Q1304.13 1521.82 1298.49 1527.59 Z" fill="#ff0000" fill-rule="nonzero" fill-opacity="1" /><path clip-path="url(#clip880)" d="M1325.43 1527.59 L1333.07 1527.59 L1333.07 1501.22 L1324.76 1502.89 L1324.76 1498.63 L1333.02 1496.96 L1337.7 1496.96 L1337.7 1527.59 L1345.34 1527.59 L1345.34 1531.52 L1325.43 1531.52 L1325.43 1527.59 Z" fill="#ff0000" fill-rule="nonzero" fill-opacity="1" /><path clip-path="url(#clip880)" d="M1492.28 1056.12 L1497 1056.12 L1504.27 1085.33 L1511.52 1056.12 L1516.77 1056.12 L1524.04 1085.33 L1531.28 1056.12 L1536.03 1056.12 L1527.35 1090.68 L1521.47 1090.68 L1514.18 1060.68 L1506.82 1090.68 L1500.94 1090.68 L1492.28 1056.12 Z" fill="#ff0000" fill-rule="nonzero" fill-opacity="1" /><path clip-path="url(#clip880)" d="M1555.5 1060.19 L1543.69 1078.64 L1555.5 1078.64 L1555.5 1060.19 M1554.27 1056.12 L1560.15 1056.12 L1560.15 1078.64 L1565.08 1078.64 L1565.08 1082.53 L1560.15 1082.53 L1560.15 1090.68 L1555.5 1090.68 L1555.5 1082.53 L1539.9 1082.53 L1539.9 1078.02 L1554.27 1056.12 Z" fill="#ff0000" fill-rule="nonzero" fill-opacity="1" /><path clip-path="url(#clip880)" d="M1492.37 1138.58 L1508.69 1138.58 L1508.69 1142.52 L1486.75 1142.52 L1486.75 1138.58 Q1489.41 1135.83 1493.99 1131.2 Q1498.6 1126.55 1499.78 1125.2 Q1502.02 1122.68 1502.9 1120.95 Q1503.81 1119.19 1503.81 1117.5 Q1503.81 1114.74 1501.86 1113.01 Q1499.94 1111.27 1496.84 1111.27 Q1494.64 1111.27 1492.19 1112.03 Q1489.76 1112.8 1486.98 1114.35 L1486.98 1109.63 Q1489.8 1108.49 1492.26 1107.91 Q1494.71 1107.33 1496.75 1107.33 Q1502.12 1107.33 1505.31 1110.02 Q1508.51 1112.7 1508.51 1117.2 Q1508.51 1119.33 1507.7 1121.25 Q1506.91 1123.14 1504.8 1125.74 Q1504.22 1126.41 1501.12 1129.63 Q1498.02 1132.82 1492.37 1138.58 Z" fill="#ff0000" fill-rule="nonzero" fill-opacity="1" /><path clip-path="url(#clip880)" d="M1517.33 1107.96 L1539.55 1107.96 L1539.55 1109.95 L1527 1142.52 L1522.12 1142.52 L1533.92 1111.89 L1517.33 1111.89 L1517.33 1107.96 Z" fill="#ff0000" fill-rule="nonzero" fill-opacity="1" /><path clip-path="url(#clip880)" d="M1558.67 1111.04 Q1555.06 1111.04 1553.23 1114.6 Q1551.42 1118.14 1551.42 1125.27 Q1551.42 1132.38 1553.23 1135.95 Q1555.06 1139.49 1558.67 1139.49 Q1562.3 1139.49 1564.11 1135.95 Q1565.94 1132.38 1565.94 1125.27 Q1565.94 1118.14 1564.11 1114.6 Q1562.3 1111.04 1558.67 1111.04 M1558.67 1107.33 Q1564.48 1107.33 1567.53 1111.94 Q1570.61 1116.52 1570.61 1125.27 Q1570.61 1134 1567.53 1138.61 Q1564.48 1143.19 1558.67 1143.19 Q1552.86 1143.19 1549.78 1138.61 Q1546.72 1134 1546.72 1125.27 Q1546.72 1116.52 1549.78 1111.94 Q1552.86 1107.33 1558.67 1107.33 Z" fill="#ff0000" fill-rule="nonzero" fill-opacity="1" /><path clip-path="url(#clip880)" d="M1714.76 39.0322 L1719.48 39.0322 L1726.75 68.245 L1734 39.0322 L1739.25 39.0322 L1746.52 68.245 L1753.76 39.0322 L1758.51 39.0322 L1749.83 73.5922 L1743.95 73.5922 L1736.66 43.5924 L1729.3 73.5922 L1723.42 73.5922 L1714.76 39.0322 Z" fill="#ff0000" fill-rule="nonzero" fill-opacity="1" /><path clip-path="url(#clip880)" d="M1765.18 39.0322 L1783.53 39.0322 L1783.53 42.9674 L1769.46 42.9674 L1769.46 51.4396 Q1770.48 51.0924 1771.5 50.9303 Q1772.51 50.7451 1773.53 50.7451 Q1779.32 50.7451 1782.7 53.9164 Q1786.08 57.0877 1786.08 62.5043 Q1786.08 68.083 1782.61 71.1848 Q1779.13 74.2635 1772.82 74.2635 Q1770.64 74.2635 1768.37 73.8932 Q1766.13 73.5228 1763.72 72.7821 L1763.72 68.083 Q1765.8 69.2173 1768.02 69.7728 Q1770.25 70.3284 1772.72 70.3284 Q1776.73 70.3284 1779.07 68.2219 Q1781.4 66.1154 1781.4 62.5043 Q1781.4 58.8932 1779.07 56.7868 Q1776.73 54.6803 1772.72 54.6803 Q1770.85 54.6803 1768.97 55.097 Q1767.12 55.5136 1765.18 56.3933 L1765.18 39.0322 Z" fill="#ff0000" fill-rule="nonzero" fill-opacity="1" /><path clip-path="url(#clip880)" d="M1720.74 106.289 Q1717.6 106.289 1715.74 108.442 Q1713.92 110.594 1713.92 114.344 Q1713.92 118.071 1715.74 120.247 Q1717.6 122.4 1720.74 122.4 Q1723.89 122.4 1725.72 120.247 Q1727.57 118.071 1727.57 114.344 Q1727.57 110.594 1725.72 108.442 Q1723.89 106.289 1720.74 106.289 M1730.03 91.6361 L1730.03 95.8954 Q1728.27 95.062 1726.46 94.6222 Q1724.68 94.1824 1722.92 94.1824 Q1718.29 94.1824 1715.84 97.3074 Q1713.41 100.432 1713.06 106.752 Q1714.42 104.738 1716.48 103.673 Q1718.54 102.585 1721.02 102.585 Q1726.23 102.585 1729.24 105.756 Q1732.27 108.905 1732.27 114.344 Q1732.27 119.668 1729.12 122.886 Q1725.98 126.104 1720.74 126.104 Q1714.75 126.104 1711.58 121.52 Q1708.41 116.914 1708.41 108.187 Q1708.41 99.9926 1712.29 95.1315 Q1716.18 90.2472 1722.73 90.2472 Q1724.49 90.2472 1726.28 90.5945 Q1728.08 90.9417 1730.03 91.6361 Z" fill="#ff0000" fill-rule="nonzero" fill-opacity="1" /><path clip-path="url(#clip880)" d="M1750.91 106.289 Q1747.76 106.289 1745.91 108.442 Q1744.08 110.594 1744.08 114.344 Q1744.08 118.071 1745.91 120.247 Q1747.76 122.4 1750.91 122.4 Q1754.05 122.4 1755.88 120.247 Q1757.73 118.071 1757.73 114.344 Q1757.73 110.594 1755.88 108.442 Q1754.05 106.289 1750.91 106.289 M1760.19 91.6361 L1760.19 95.8954 Q1758.43 95.062 1756.62 94.6222 Q1754.84 94.1824 1753.08 94.1824 Q1748.45 94.1824 1746 97.3074 Q1743.57 100.432 1743.22 106.752 Q1744.59 104.738 1746.65 103.673 Q1748.71 102.585 1751.18 102.585 Q1756.39 102.585 1759.4 105.756 Q1762.43 108.905 1762.43 114.344 Q1762.43 119.668 1759.29 122.886 Q1756.14 126.104 1750.91 126.104 Q1744.91 126.104 1741.74 121.52 Q1738.57 116.914 1738.57 108.187 Q1738.57 99.9926 1742.46 95.1315 Q1746.35 90.2472 1752.9 90.2472 Q1754.66 90.2472 1756.44 90.5945 Q1758.24 90.9417 1760.19 91.6361 Z" fill="#ff0000" fill-rule="nonzero" fill-opacity="1" /><path clip-path="url(#clip880)" d="M1780.49 93.9509 Q1776.88 93.9509 1775.05 97.5157 Q1773.24 101.057 1773.24 108.187 Q1773.24 115.293 1775.05 118.858 Q1776.88 122.4 1780.49 122.4 Q1784.12 122.4 1785.93 118.858 Q1787.76 115.293 1787.76 108.187 Q1787.76 101.057 1785.93 97.5157 Q1784.12 93.9509 1780.49 93.9509 M1780.49 90.2472 Q1786.3 90.2472 1789.35 94.8537 Q1792.43 99.437 1792.43 108.187 Q1792.43 116.914 1789.35 121.52 Q1786.3 126.104 1780.49 126.104 Q1774.68 126.104 1771.6 121.52 Q1768.54 116.914 1768.54 108.187 Q1768.54 99.437 1771.6 94.8537 Q1774.68 90.2472 1780.49 90.2472 Z" fill="#ff0000" fill-rule="nonzero" fill-opacity="1" /><path clip-path="url(#clip880)" d="M2130.97 1196.14 L2135.69 1196.14 L2142.96 1225.35 L2150.21 1196.14 L2155.46 1196.14 L2162.73 1225.35 L2169.97 1196.14 L2174.72 1196.14 L2166.04 1230.7 L2160.16 1230.7 L2152.87 1200.7 L2145.51 1230.7 L2139.63 1230.7 L2130.97 1196.14 Z" fill="#ff0000" fill-rule="nonzero" fill-opacity="1" /><path clip-path="url(#clip880)" d="M2191.92 1211.55 Q2188.77 1211.55 2186.92 1213.7 Q2185.09 1215.86 2185.09 1219.61 Q2185.09 1223.33 2186.92 1225.51 Q2188.77 1227.66 2191.92 1227.66 Q2195.07 1227.66 2196.9 1225.51 Q2198.75 1223.33 2198.75 1219.61 Q2198.75 1215.86 2196.9 1213.7 Q2195.07 1211.55 2191.92 1211.55 M2201.2 1196.9 L2201.2 1201.16 Q2199.44 1200.32 2197.64 1199.89 Q2195.85 1199.45 2194.09 1199.45 Q2189.47 1199.45 2187.01 1202.57 Q2184.58 1205.7 2184.23 1212.01 Q2185.6 1210 2187.66 1208.94 Q2189.72 1207.85 2192.2 1207.85 Q2197.4 1207.85 2200.41 1211.02 Q2203.45 1214.17 2203.45 1219.61 Q2203.45 1224.93 2200.3 1228.15 Q2197.15 1231.37 2191.92 1231.37 Q2185.92 1231.37 2182.75 1226.78 Q2179.58 1222.18 2179.58 1213.45 Q2179.58 1205.26 2183.47 1200.39 Q2187.36 1195.51 2193.91 1195.51 Q2195.67 1195.51 2197.45 1195.86 Q2199.26 1196.2 2201.2 1196.9 Z" fill="#ff0000" fill-rule="nonzero" fill-opacity="1" /><path clip-path="url(#clip880)" d="M2130.82 1278.6 L2147.14 1278.6 L2147.14 1282.54 L2125.19 1282.54 L2125.19 1278.6 Q2127.86 1275.85 2132.44 1271.22 Q2137.05 1266.56 2138.23 1265.22 Q2140.47 1262.7 2141.35 1260.96 Q2142.25 1259.2 2142.25 1257.51 Q2142.25 1254.76 2140.31 1253.02 Q2138.39 1251.29 2135.29 1251.29 Q2133.09 1251.29 2130.63 1252.05 Q2128.2 1252.81 2125.43 1254.36 L2125.43 1249.64 Q2128.25 1248.51 2130.7 1247.93 Q2133.16 1247.35 2135.19 1247.35 Q2140.56 1247.35 2143.76 1250.04 Q2146.95 1252.72 2146.95 1257.21 Q2146.95 1259.34 2146.14 1261.26 Q2145.36 1263.16 2143.25 1265.75 Q2142.67 1266.42 2139.57 1269.64 Q2136.47 1272.84 2130.82 1278.6 Z" fill="#ff0000" fill-rule="nonzero" fill-opacity="1" /><path clip-path="url(#clip880)" d="M2157.76 1278.6 L2165.4 1278.6 L2165.4 1252.23 L2157.09 1253.9 L2157.09 1249.64 L2165.36 1247.98 L2170.03 1247.98 L2170.03 1278.6 L2177.67 1278.6 L2177.67 1282.54 L2157.76 1282.54 L2157.76 1278.6 Z" fill="#ff0000" fill-rule="nonzero" fill-opacity="1" /><path clip-path="url(#clip880)" d="M2197.69 1263.39 Q2194.55 1263.39 2192.69 1265.54 Q2190.87 1267.7 2190.87 1271.45 Q2190.87 1275.17 2192.69 1277.35 Q2194.55 1279.5 2197.69 1279.5 Q2200.84 1279.5 2202.67 1277.35 Q2204.52 1275.17 2204.52 1271.45 Q2204.52 1267.7 2202.67 1265.54 Q2200.84 1263.39 2197.69 1263.39 M2206.98 1248.74 L2206.98 1253 Q2205.22 1252.16 2203.41 1251.73 Q2201.63 1251.29 2199.87 1251.29 Q2195.24 1251.29 2192.79 1254.41 Q2190.36 1257.54 2190.01 1263.85 Q2191.37 1261.84 2193.44 1260.78 Q2195.5 1259.69 2197.97 1259.69 Q2203.18 1259.69 2206.19 1262.86 Q2209.22 1266.01 2209.22 1271.45 Q2209.22 1276.77 2206.07 1279.99 Q2202.93 1283.21 2197.69 1283.21 Q2191.7 1283.21 2188.53 1278.62 Q2185.36 1274.02 2185.36 1265.29 Q2185.36 1257.1 2189.25 1252.23 Q2193.13 1247.35 2199.69 1247.35 Q2201.44 1247.35 2203.23 1247.7 Q2205.03 1248.04 2206.98 1248.74 Z" fill="#ff0000" fill-rule="nonzero" fill-opacity="1" /><path clip-path="url(#clip880)" d="M2517.49 1643.93 L2522.22 1643.93 L2529.48 1673.14 L2536.73 1643.93 L2541.98 1643.93 L2549.25 1673.14 L2556.5 1643.93 L2561.24 1643.93 L2552.56 1678.49 L2546.68 1678.49 L2539.39 1648.49 L2532.03 1678.49 L2526.15 1678.49 L2517.49 1643.93 Z" fill="#ff0000" fill-rule="nonzero" fill-opacity="1" /><path clip-path="url(#clip880)" d="M2566.68 1643.93 L2588.91 1643.93 L2588.91 1645.92 L2576.36 1678.49 L2571.48 1678.49 L2583.28 1647.86 L2566.68 1647.86 L2566.68 1643.93 Z" fill="#ff0000" fill-rule="nonzero" fill-opacity="1" /><path clip-path="url(#clip880)" d="M2541.87 1699.84 L2530.06 1718.29 L2541.87 1718.29 L2541.87 1699.84 M2540.64 1695.77 L2546.52 1695.77 L2546.52 1718.29 L2551.45 1718.29 L2551.45 1722.18 L2546.52 1722.18 L2546.52 1730.33 L2541.87 1730.33 L2541.87 1722.18 L2526.27 1722.18 L2526.27 1717.67 L2540.64 1695.77 Z" fill="#ff0000" fill-rule="nonzero" fill-opacity="1" /><path clip-path="url(#clip880)" d="M2559.23 1695.77 L2577.59 1695.77 L2577.59 1699.7 L2563.51 1699.7 L2563.51 1708.18 Q2564.53 1707.83 2565.55 1707.67 Q2566.57 1707.48 2567.59 1707.48 Q2573.37 1707.48 2576.75 1710.65 Q2580.13 1713.82 2580.13 1719.24 Q2580.13 1724.82 2576.66 1727.92 Q2573.19 1731 2566.87 1731 Q2564.69 1731 2562.42 1730.63 Q2560.18 1730.26 2557.77 1729.52 L2557.77 1724.82 Q2559.85 1725.95 2562.08 1726.51 Q2564.3 1727.06 2566.78 1727.06 Q2570.78 1727.06 2573.12 1724.96 Q2575.46 1722.85 2575.46 1719.24 Q2575.46 1715.63 2573.12 1713.52 Q2570.78 1711.42 2566.78 1711.42 Q2564.9 1711.42 2563.03 1711.83 Q2561.17 1712.25 2559.23 1713.13 L2559.23 1695.77 Z" fill="#ff0000" fill-rule="nonzero" fill-opacity="1" /><path clip-path="url(#clip880)" d="M3061.17 1600.01 L3065.89 1600.01 L3073.16 1629.23 L3080.41 1600.01 L3085.66 1600.01 L3092.93 1629.23 L3100.18 1600.01 L3104.92 1600.01 L3096.24 1634.57 L3090.36 1634.57 L3083.07 1604.57 L3075.71 1634.57 L3069.83 1634.57 L3061.17 1600.01 Z" fill="#ff0000" fill-rule="nonzero" fill-opacity="1" /><path clip-path="url(#clip880)" d="M3121.54 1618.16 Q3118.21 1618.16 3116.29 1619.94 Q3114.39 1621.73 3114.39 1624.85 Q3114.39 1627.98 3116.29 1629.76 Q3118.21 1631.54 3121.54 1631.54 Q3124.88 1631.54 3126.8 1629.76 Q3128.72 1627.95 3128.72 1624.85 Q3128.72 1621.73 3126.8 1619.94 Q3124.9 1618.16 3121.54 1618.16 M3116.87 1616.17 Q3113.86 1615.43 3112.17 1613.37 Q3110.5 1611.31 3110.5 1608.35 Q3110.5 1604.2 3113.44 1601.8 Q3116.4 1599.39 3121.54 1599.39 Q3126.7 1599.39 3129.64 1601.8 Q3132.58 1604.2 3132.58 1608.35 Q3132.58 1611.31 3130.89 1613.37 Q3129.23 1615.43 3126.24 1616.17 Q3129.62 1616.96 3131.5 1619.25 Q3133.39 1621.54 3133.39 1624.85 Q3133.39 1629.87 3130.32 1632.56 Q3127.26 1635.24 3121.54 1635.24 Q3115.83 1635.24 3112.75 1632.56 Q3109.69 1629.87 3109.69 1624.85 Q3109.69 1621.54 3111.59 1619.25 Q3113.49 1616.96 3116.87 1616.17 M3115.15 1608.79 Q3115.15 1611.47 3116.82 1612.98 Q3118.51 1614.48 3121.54 1614.48 Q3124.55 1614.48 3126.24 1612.98 Q3127.95 1611.47 3127.95 1608.79 Q3127.95 1606.1 3126.24 1604.6 Q3124.55 1603.09 3121.54 1603.09 Q3118.51 1603.09 3116.82 1604.6 Q3115.15 1606.1 3115.15 1608.79 Z" fill="#ff0000" fill-rule="nonzero" fill-opacity="1" /><path clip-path="url(#clip880)" d="M3083.49 1667.27 Q3080.34 1667.27 3078.49 1669.42 Q3076.66 1671.57 3076.66 1675.32 Q3076.66 1679.05 3078.49 1681.23 Q3080.34 1683.38 3083.49 1683.38 Q3086.64 1683.38 3088.46 1681.23 Q3090.32 1679.05 3090.32 1675.32 Q3090.32 1671.57 3088.46 1669.42 Q3086.64 1667.27 3083.49 1667.27 M3092.77 1652.62 L3092.77 1656.88 Q3091.01 1656.04 3089.2 1655.6 Q3087.42 1655.16 3085.66 1655.16 Q3081.03 1655.16 3078.58 1658.29 Q3076.15 1661.41 3075.8 1667.73 Q3077.17 1665.72 3079.23 1664.65 Q3081.29 1663.57 3083.77 1663.57 Q3088.97 1663.57 3091.98 1666.74 Q3095.02 1669.89 3095.02 1675.32 Q3095.02 1680.65 3091.87 1683.87 Q3088.72 1687.08 3083.49 1687.08 Q3077.49 1687.08 3074.32 1682.5 Q3071.15 1677.89 3071.15 1669.17 Q3071.15 1660.97 3075.04 1656.11 Q3078.93 1651.23 3085.48 1651.23 Q3087.24 1651.23 3089.02 1651.58 Q3090.83 1651.92 3092.77 1652.62 Z" fill="#ff0000" fill-rule="nonzero" fill-opacity="1" /><path clip-path="url(#clip880)" d="M3107.1 1682.48 L3123.42 1682.48 L3123.42 1686.41 L3101.47 1686.41 L3101.47 1682.48 Q3104.14 1679.72 3108.72 1675.09 Q3113.33 1670.44 3114.51 1669.1 Q3116.75 1666.57 3117.63 1664.84 Q3118.53 1663.08 3118.53 1661.39 Q3118.53 1658.64 3116.59 1656.9 Q3114.67 1655.16 3111.57 1655.16 Q3109.37 1655.16 3106.91 1655.93 Q3104.48 1656.69 3101.7 1658.24 L3101.7 1653.52 Q3104.53 1652.39 3106.98 1651.81 Q3109.44 1651.23 3111.47 1651.23 Q3116.84 1651.23 3120.04 1653.91 Q3123.23 1656.6 3123.23 1661.09 Q3123.23 1663.22 3122.42 1665.14 Q3121.64 1667.04 3119.53 1669.63 Q3118.95 1670.3 3115.85 1673.52 Q3112.75 1676.71 3107.1 1682.48 Z" fill="#ff0000" fill-rule="nonzero" fill-opacity="1" /><path clip-path="url(#clip880)" d="M3646.37 1735.71 L3651.09 1735.71 L3658.36 1764.93 L3665.6 1735.71 L3670.86 1735.71 L3678.12 1764.93 L3685.37 1735.71 L3690.12 1735.71 L3681.43 1770.27 L3675.56 1770.27 L3668.26 1740.27 L3660.9 1770.27 L3655.02 1770.27 L3646.37 1735.71 Z" fill="#ff0000" fill-rule="nonzero" fill-opacity="1" /><path clip-path="url(#clip880)" d="M3696.87 1769.55 L3696.87 1765.3 Q3698.63 1766.13 3700.44 1766.57 Q3702.24 1767.01 3703.98 1767.01 Q3708.61 1767.01 3711.04 1763.91 Q3713.49 1760.78 3713.84 1754.44 Q3712.5 1756.43 3710.44 1757.49 Q3708.38 1758.56 3705.88 1758.56 Q3700.69 1758.56 3697.66 1755.43 Q3694.65 1752.29 3694.65 1746.85 Q3694.65 1741.52 3697.8 1738.3 Q3700.95 1735.09 3706.18 1735.09 Q3712.18 1735.09 3715.32 1739.69 Q3718.49 1744.28 3718.49 1753.03 Q3718.49 1761.2 3714.61 1766.08 Q3710.74 1770.94 3704.19 1770.94 Q3702.43 1770.94 3700.62 1770.6 Q3698.82 1770.25 3696.87 1769.55 M3706.18 1754.9 Q3709.33 1754.9 3711.16 1752.75 Q3713.01 1750.6 3713.01 1746.85 Q3713.01 1743.12 3711.16 1740.97 Q3709.33 1738.79 3706.18 1738.79 Q3703.03 1738.79 3701.18 1740.97 Q3699.35 1743.12 3699.35 1746.85 Q3699.35 1750.6 3701.18 1752.75 Q3703.03 1754.9 3706.18 1754.9 Z" fill="#ff0000" fill-rule="nonzero" fill-opacity="1" /><path clip-path="url(#clip880)" d="M3657.12 1818.18 L3664.76 1818.18 L3664.76 1791.81 L3656.45 1793.48 L3656.45 1789.22 L3664.71 1787.55 L3669.39 1787.55 L3669.39 1818.18 L3677.03 1818.18 L3677.03 1822.11 L3657.12 1822.11 L3657.12 1818.18 Z" fill="#ff0000" fill-rule="nonzero" fill-opacity="1" /><path clip-path="url(#clip880)" d="M3696.47 1790.63 Q3692.86 1790.63 3691.03 1794.2 Q3689.22 1797.74 3689.22 1804.87 Q3689.22 1811.97 3691.03 1815.54 Q3692.86 1819.08 3696.47 1819.08 Q3700.1 1819.08 3701.91 1815.54 Q3703.74 1811.97 3703.74 1804.87 Q3703.74 1797.74 3701.91 1794.2 Q3700.1 1790.63 3696.47 1790.63 M3696.47 1786.93 Q3702.28 1786.93 3705.34 1791.53 Q3708.41 1796.12 3708.41 1804.87 Q3708.41 1813.59 3705.34 1818.2 Q3702.28 1822.78 3696.47 1822.78 Q3690.66 1822.78 3687.58 1818.2 Q3684.53 1813.59 3684.53 1804.87 Q3684.53 1796.12 3687.58 1791.53 Q3690.66 1786.93 3696.47 1786.93 Z" fill="#ff0000" fill-rule="nonzero" fill-opacity="1" /><path clip-path="url(#clip880)" d="M4050.03 1746.54 L4054.76 1746.54 L4062.02 1775.75 L4069.27 1746.54 L4074.52 1746.54 L4081.79 1775.75 L4089.04 1746.54 L4093.78 1746.54 L4085.1 1781.1 L4079.22 1781.1 L4071.93 1751.1 L4064.57 1781.1 L4058.69 1781.1 L4050.03 1746.54 Z" fill="#ff0000" fill-rule="nonzero" fill-opacity="1" /><path clip-path="url(#clip880)" d="M4101.21 1777.16 L4108.85 1777.16 L4108.85 1750.8 L4100.54 1752.47 L4100.54 1748.21 L4108.81 1746.54 L4113.48 1746.54 L4113.48 1777.16 L4121.12 1777.16 L4121.12 1781.1 L4101.21 1781.1 L4101.21 1777.16 Z" fill="#ff0000" fill-rule="nonzero" fill-opacity="1" /><path clip-path="url(#clip880)" d="M4140.57 1749.62 Q4136.95 1749.62 4135.13 1753.18 Q4133.32 1756.72 4133.32 1763.85 Q4133.32 1770.96 4135.13 1774.53 Q4136.95 1778.07 4140.57 1778.07 Q4144.2 1778.07 4146.01 1774.53 Q4147.83 1770.96 4147.83 1763.85 Q4147.83 1756.72 4146.01 1753.18 Q4144.2 1749.62 4140.57 1749.62 M4140.57 1745.91 Q4146.38 1745.91 4149.43 1750.52 Q4152.51 1755.1 4152.51 1763.85 Q4152.51 1772.58 4149.43 1777.19 Q4146.38 1781.77 4140.57 1781.77 Q4134.76 1781.77 4131.68 1777.19 Q4128.62 1772.58 4128.62 1763.85 Q4128.62 1755.1 4131.68 1750.52 Q4134.76 1745.91 4140.57 1745.91 Z" fill="#ff0000" fill-rule="nonzero" fill-opacity="1" /><path clip-path="url(#clip880)" d="M4091.55 1798.38 L4109.91 1798.38 L4109.91 1802.31 L4095.83 1802.31 L4095.83 1810.79 Q4096.85 1810.44 4097.87 1810.28 Q4098.89 1810.09 4099.91 1810.09 Q4105.69 1810.09 4109.07 1813.26 Q4112.45 1816.44 4112.45 1821.85 Q4112.45 1827.43 4108.98 1830.53 Q4105.51 1833.61 4099.19 1833.61 Q4097.01 1833.61 4094.74 1833.24 Q4092.5 1832.87 4090.09 1832.13 L4090.09 1827.43 Q4092.17 1828.56 4094.4 1829.12 Q4096.62 1829.68 4099.1 1829.68 Q4103.1 1829.68 4105.44 1827.57 Q4107.78 1825.46 4107.78 1821.85 Q4107.78 1818.24 4105.44 1816.13 Q4103.1 1814.03 4099.1 1814.03 Q4097.22 1814.03 4095.35 1814.44 Q4093.49 1814.86 4091.55 1815.74 L4091.55 1798.38 Z" fill="#ff0000" fill-rule="nonzero" fill-opacity="1" /></svg>
