<?xml version="1.0" encoding="utf-8"?>
<svg xmlns="http://www.w3.org/2000/svg" xmlns:xlink="http://www.w3.org/1999/xlink" width="800" height="400" viewBox="0 0 3200 1600">
<defs>
  <clipPath id="clip330">
    <rect x="0" y="0" width="3200" height="1600"/>
  </clipPath>
</defs>
<path clip-path="url(#clip330)" d="M0 1600 L3200 1600 L3200 0 L0 0  Z" fill="#ffffff" fill-rule="evenodd" fill-opacity="1"/>
<defs>
  <clipPath id="clip331">
    <rect x="228" y="108" width="2925" height="1336"/>
  </clipPath>
</defs>
<path clip-path="url(#clip330)" d="M228.509 1443.7 L3152.76 1443.7 L3152.76 108.352 L228.509 108.352  Z" fill="#ffffff" fill-rule="evenodd" fill-opacity="1"/>
<polyline clip-path="url(#clip331)" style="stroke:#000000; stroke-linecap:round; stroke-linejoin:round; stroke-width:2; stroke-opacity:0.1; fill:none" points="230.007,1443.7 230.007,108.352 "/>
<polyline clip-path="url(#clip331)" style="stroke:#000000; stroke-linecap:round; stroke-linejoin:round; stroke-width:2; stroke-opacity:0.1; fill:none" points="893.928,1443.7 893.928,108.352 "/>
<polyline clip-path="url(#clip331)" style="stroke:#000000; stroke-linecap:round; stroke-linejoin:round; stroke-width:2; stroke-opacity:0.1; fill:none" points="1557.85,1443.7 1557.85,108.352 "/>
<polyline clip-path="url(#clip331)" style="stroke:#000000; stroke-linecap:round; stroke-linejoin:round; stroke-width:2; stroke-opacity:0.1; fill:none" points="2221.77,1443.7 2221.77,108.352 "/>
<polyline clip-path="url(#clip331)" style="stroke:#000000; stroke-linecap:round; stroke-linejoin:round; stroke-width:2; stroke-opacity:0.1; fill:none" points="2885.69,1443.7 2885.69,108.352 "/>
<polyline clip-path="url(#clip331)" style="stroke:#000000; stroke-linecap:round; stroke-linejoin:round; stroke-width:2; stroke-opacity:0.1; fill:none" points="228.509,1443.7 3152.76,1443.7 "/>
<polyline clip-path="url(#clip331)" style="stroke:#000000; stroke-linecap:round; stroke-linejoin:round; stroke-width:2; stroke-opacity:0.1; fill:none" points="228.509,1176.63 3152.76,1176.63 "/>
<polyline clip-path="url(#clip331)" style="stroke:#000000; stroke-linecap:round; stroke-linejoin:round; stroke-width:2; stroke-opacity:0.1; fill:none" points="228.509,909.561 3152.76,909.561 "/>
<polyline clip-path="url(#clip331)" style="stroke:#000000; stroke-linecap:round; stroke-linejoin:round; stroke-width:2; stroke-opacity:0.1; fill:none" points="228.509,642.491 3152.76,642.491 "/>
<polyline clip-path="url(#clip331)" style="stroke:#000000; stroke-linecap:round; stroke-linejoin:round; stroke-width:2; stroke-opacity:0.1; fill:none" points="228.509,375.422 3152.76,375.422 "/>
<polyline clip-path="url(#clip331)" style="stroke:#000000; stroke-linecap:round; stroke-linejoin:round; stroke-width:2; stroke-opacity:0.1; fill:none" points="228.509,108.352 3152.76,108.352 "/>
<polyline clip-path="url(#clip330)" style="stroke:#000000; stroke-linecap:round; stroke-linejoin:round; stroke-width:4; stroke-opacity:1; fill:none" points="228.509,1443.7 3152.76,1443.7 "/>
<polyline clip-path="url(#clip330)" style="stroke:#000000; stroke-linecap:round; stroke-linejoin:round; stroke-width:4; stroke-opacity:1; fill:none" points="230.007,1443.7 230.007,1424.8 "/>
<polyline clip-path="url(#clip330)" style="stroke:#000000; stroke-linecap:round; stroke-linejoin:round; stroke-width:4; stroke-opacity:1; fill:none" points="893.928,1443.7 893.928,1424.8 "/>
<polyline clip-path="url(#clip330)" style="stroke:#000000; stroke-linecap:round; stroke-linejoin:round; stroke-width:4; stroke-opacity:1; fill:none" points="1557.85,1443.7 1557.85,1424.8 "/>
<polyline clip-path="url(#clip330)" style="stroke:#000000; stroke-linecap:round; stroke-linejoin:round; stroke-width:4; stroke-opacity:1; fill:none" points="2221.77,1443.7 2221.77,1424.8 "/>
<polyline clip-path="url(#clip330)" style="stroke:#000000; stroke-linecap:round; stroke-linejoin:round; stroke-width:4; stroke-opacity:1; fill:none" points="2885.69,1443.7 2885.69,1424.8 "/>
<path clip-path="url(#clip330)" d="M207.392 1481.02 Q203.78 1481.02 201.952 1484.58 Q200.146 1488.12 200.146 1495.25 Q200.146 1502.36 201.952 1505.93 Q203.78 1509.47 207.392 1509.47 Q211.026 1509.47 212.831 1505.93 Q214.66 1502.36 214.66 1495.25 Q214.66 1488.12 212.831 1484.58 Q211.026 1481.02 207.392 1481.02 M207.392 1477.31 Q213.202 1477.31 216.257 1481.92 Q219.336 1486.5 219.336 1495.25 Q219.336 1503.98 216.257 1508.59 Q213.202 1513.17 207.392 1513.17 Q201.581 1513.17 198.503 1508.59 Q195.447 1503.98 195.447 1495.25 Q195.447 1486.5 198.503 1481.92 Q201.581 1477.31 207.392 1477.31 Z" fill="#000000" fill-rule="nonzero" fill-opacity="1" /><path clip-path="url(#clip330)" d="M227.553 1506.62 L232.438 1506.62 L232.438 1512.5 L227.553 1512.5 L227.553 1506.62 Z" fill="#000000" fill-rule="nonzero" fill-opacity="1" /><path clip-path="url(#clip330)" d="M252.623 1481.02 Q249.012 1481.02 247.183 1484.58 Q245.377 1488.12 245.377 1495.25 Q245.377 1502.36 247.183 1505.93 Q249.012 1509.47 252.623 1509.47 Q256.257 1509.47 258.063 1505.93 Q259.891 1502.36 259.891 1495.25 Q259.891 1488.12 258.063 1484.58 Q256.257 1481.02 252.623 1481.02 M252.623 1477.31 Q258.433 1477.31 261.488 1481.92 Q264.567 1486.5 264.567 1495.25 Q264.567 1503.98 261.488 1508.59 Q258.433 1513.17 252.623 1513.17 Q246.813 1513.17 243.734 1508.59 Q240.678 1503.98 240.678 1495.25 Q240.678 1486.5 243.734 1481.92 Q246.813 1477.31 252.623 1477.31 Z" fill="#000000" fill-rule="nonzero" fill-opacity="1" /><path clip-path="url(#clip330)" d="M865.664 1508.56 L881.983 1508.56 L881.983 1512.5 L860.039 1512.5 L860.039 1508.56 Q862.701 1505.81 867.284 1501.18 Q871.891 1496.53 873.071 1495.19 Q875.317 1492.66 876.196 1490.93 Q877.099 1489.17 877.099 1487.48 Q877.099 1484.72 875.155 1482.99 Q873.233 1481.25 870.132 1481.25 Q867.933 1481.25 865.479 1482.01 Q863.048 1482.78 860.271 1484.33 L860.271 1479.61 Q863.095 1478.47 865.548 1477.89 Q868.002 1477.31 870.039 1477.31 Q875.409 1477.31 878.604 1480 Q881.798 1482.69 881.798 1487.18 Q881.798 1489.31 880.988 1491.23 Q880.201 1493.12 878.095 1495.72 Q877.516 1496.39 874.414 1499.61 Q871.312 1502.8 865.664 1508.56 Z" fill="#000000" fill-rule="nonzero" fill-opacity="1" /><path clip-path="url(#clip330)" d="M891.798 1506.62 L896.682 1506.62 L896.682 1512.5 L891.798 1512.5 L891.798 1506.62 Z" fill="#000000" fill-rule="nonzero" fill-opacity="1" /><path clip-path="url(#clip330)" d="M906.914 1477.94 L925.27 1477.94 L925.27 1481.88 L911.196 1481.88 L911.196 1490.35 Q912.215 1490 913.233 1489.84 Q914.252 1489.65 915.27 1489.65 Q921.057 1489.65 924.437 1492.82 Q927.817 1496 927.817 1501.41 Q927.817 1506.99 924.344 1510.09 Q920.872 1513.17 914.553 1513.17 Q912.377 1513.17 910.108 1512.8 Q907.863 1512.43 905.456 1511.69 L905.456 1506.99 Q907.539 1508.12 909.761 1508.68 Q911.983 1509.24 914.46 1509.24 Q918.465 1509.24 920.803 1507.13 Q923.141 1505.02 923.141 1501.41 Q923.141 1497.8 920.803 1495.69 Q918.465 1493.59 914.46 1493.59 Q912.585 1493.59 910.71 1494 Q908.858 1494.42 906.914 1495.3 L906.914 1477.94 Z" fill="#000000" fill-rule="nonzero" fill-opacity="1" /><path clip-path="url(#clip330)" d="M1525.01 1477.94 L1543.37 1477.94 L1543.37 1481.88 L1529.3 1481.88 L1529.3 1490.35 Q1530.31 1490 1531.33 1489.84 Q1532.35 1489.65 1533.37 1489.65 Q1539.16 1489.65 1542.54 1492.82 Q1545.92 1496 1545.92 1501.41 Q1545.92 1506.99 1542.44 1510.09 Q1538.97 1513.17 1532.65 1513.17 Q1530.48 1513.17 1528.21 1512.8 Q1525.96 1512.43 1523.55 1511.69 L1523.55 1506.99 Q1525.64 1508.12 1527.86 1508.68 Q1530.08 1509.24 1532.56 1509.24 Q1536.56 1509.24 1538.9 1507.13 Q1541.24 1505.02 1541.24 1501.41 Q1541.24 1497.8 1538.9 1495.69 Q1536.56 1493.59 1532.56 1493.59 Q1530.68 1493.59 1528.81 1494 Q1526.96 1494.42 1525.01 1495.3 L1525.01 1477.94 Z" fill="#000000" fill-rule="nonzero" fill-opacity="1" /><path clip-path="url(#clip330)" d="M1555.13 1506.62 L1560.01 1506.62 L1560.01 1512.5 L1555.13 1512.5 L1555.13 1506.62 Z" fill="#000000" fill-rule="nonzero" fill-opacity="1" /><path clip-path="url(#clip330)" d="M1580.2 1481.02 Q1576.59 1481.02 1574.76 1484.58 Q1572.95 1488.12 1572.95 1495.25 Q1572.95 1502.36 1574.76 1505.93 Q1576.59 1509.47 1580.2 1509.47 Q1583.83 1509.47 1585.64 1505.93 Q1587.47 1502.36 1587.47 1495.25 Q1587.47 1488.12 1585.64 1484.58 Q1583.83 1481.02 1580.2 1481.02 M1580.2 1477.31 Q1586.01 1477.31 1589.06 1481.92 Q1592.14 1486.5 1592.14 1495.25 Q1592.14 1503.98 1589.06 1508.59 Q1586.01 1513.17 1580.2 1513.17 Q1574.39 1513.17 1571.31 1508.59 Q1568.25 1503.98 1568.25 1495.25 Q1568.25 1486.5 1571.31 1481.92 Q1574.39 1477.31 1580.2 1477.31 Z" fill="#000000" fill-rule="nonzero" fill-opacity="1" /><path clip-path="url(#clip330)" d="M2188.09 1477.94 L2210.31 1477.94 L2210.31 1479.93 L2197.76 1512.5 L2192.88 1512.5 L2204.69 1481.88 L2188.09 1481.88 L2188.09 1477.94 Z" fill="#000000" fill-rule="nonzero" fill-opacity="1" /><path clip-path="url(#clip330)" d="M2219.43 1506.62 L2224.32 1506.62 L2224.32 1512.5 L2219.43 1512.5 L2219.43 1506.62 Z" fill="#000000" fill-rule="nonzero" fill-opacity="1" /><path clip-path="url(#clip330)" d="M2234.55 1477.94 L2252.9 1477.94 L2252.9 1481.88 L2238.83 1481.88 L2238.83 1490.35 Q2239.85 1490 2240.87 1489.84 Q2241.88 1489.65 2242.9 1489.65 Q2248.69 1489.65 2252.07 1492.82 Q2255.45 1496 2255.45 1501.41 Q2255.45 1506.99 2251.98 1510.09 Q2248.51 1513.17 2242.19 1513.17 Q2240.01 1513.17 2237.74 1512.8 Q2235.5 1512.43 2233.09 1511.69 L2233.09 1506.99 Q2235.17 1508.12 2237.39 1508.68 Q2239.62 1509.24 2242.09 1509.24 Q2246.1 1509.24 2248.44 1507.13 Q2250.77 1505.02 2250.77 1501.41 Q2250.77 1497.8 2248.44 1495.69 Q2246.1 1493.59 2242.09 1493.59 Q2240.22 1493.59 2238.34 1494 Q2236.49 1494.42 2234.55 1495.3 L2234.55 1477.94 Z" fill="#000000" fill-rule="nonzero" fill-opacity="1" /><path clip-path="url(#clip330)" d="M2837.76 1508.56 L2845.4 1508.56 L2845.4 1482.2 L2837.09 1483.87 L2837.09 1479.61 L2845.35 1477.94 L2850.03 1477.94 L2850.03 1508.56 L2857.67 1508.56 L2857.67 1512.5 L2837.76 1512.5 L2837.76 1508.56 Z" fill="#000000" fill-rule="nonzero" fill-opacity="1" /><path clip-path="url(#clip330)" d="M2877.11 1481.02 Q2873.5 1481.02 2871.67 1484.58 Q2869.87 1488.12 2869.87 1495.25 Q2869.87 1502.36 2871.67 1505.93 Q2873.5 1509.47 2877.11 1509.47 Q2880.75 1509.47 2882.55 1505.93 Q2884.38 1502.36 2884.38 1495.25 Q2884.38 1488.12 2882.55 1484.58 Q2880.75 1481.02 2877.11 1481.02 M2877.11 1477.31 Q2882.92 1477.31 2885.98 1481.92 Q2889.06 1486.5 2889.06 1495.25 Q2889.06 1503.98 2885.98 1508.59 Q2882.92 1513.17 2877.11 1513.17 Q2871.3 1513.17 2868.22 1508.59 Q2865.17 1503.98 2865.17 1495.25 Q2865.17 1486.5 2868.22 1481.92 Q2871.3 1477.31 2877.11 1477.31 Z" fill="#000000" fill-rule="nonzero" fill-opacity="1" /><path clip-path="url(#clip330)" d="M2897.28 1506.62 L2902.16 1506.62 L2902.16 1512.5 L2897.28 1512.5 L2897.28 1506.62 Z" fill="#000000" fill-rule="nonzero" fill-opacity="1" /><path clip-path="url(#clip330)" d="M2922.34 1481.02 Q2918.73 1481.02 2916.9 1484.58 Q2915.1 1488.12 2915.1 1495.25 Q2915.1 1502.36 2916.9 1505.93 Q2918.73 1509.47 2922.34 1509.47 Q2925.98 1509.47 2927.78 1505.93 Q2929.61 1502.36 2929.61 1495.25 Q2929.61 1488.12 2927.78 1484.58 Q2925.98 1481.02 2922.34 1481.02 M2922.34 1477.31 Q2928.15 1477.31 2931.21 1481.92 Q2934.29 1486.5 2934.29 1495.25 Q2934.29 1503.98 2931.21 1508.59 Q2928.15 1513.17 2922.34 1513.17 Q2916.53 1513.17 2913.46 1508.59 Q2910.4 1503.98 2910.4 1495.25 Q2910.4 1486.5 2913.46 1481.92 Q2916.53 1477.31 2922.34 1477.31 Z" fill="#000000" fill-rule="nonzero" fill-opacity="1" /><path clip-path="url(#clip330)" d="M1598.81 1577.87 L1598.81 1595.28 L1609.12 1595.28 Q1614.31 1595.28 1616.79 1593.15 Q1619.3 1590.98 1619.3 1586.56 Q1619.3 1582.1 1616.79 1580 Q1614.31 1577.87 1609.12 1577.87 L1598.81 1577.87 M1598.81 1558.33 L1598.81 1572.65 L1608.32 1572.65 Q1613.03 1572.65 1615.33 1570.9 Q1617.65 1569.12 1617.65 1565.49 Q1617.65 1561.89 1615.33 1560.11 Q1613.03 1558.33 1608.32 1558.33 L1598.81 1558.33 M1592.38 1553.04 L1608.8 1553.04 Q1616.15 1553.04 1620.13 1556.1 Q1624.11 1559.15 1624.11 1564.79 Q1624.11 1569.15 1622.07 1571.73 Q1620.04 1574.31 1616.09 1574.94 Q1620.83 1575.96 1623.44 1579.21 Q1626.08 1582.42 1626.08 1587.26 Q1626.08 1593.63 1621.76 1597.09 Q1617.43 1600.56 1609.44 1600.56 L1592.38 1600.56 L1592.38 1553.04 Z" fill="#000000" fill-rule="nonzero" fill-opacity="1" /><path clip-path="url(#clip330)" d="M1650.66 1569.02 Q1645.95 1569.02 1643.21 1572.71 Q1640.47 1576.37 1640.47 1582.77 Q1640.47 1589.17 1643.18 1592.86 Q1645.91 1596.52 1650.66 1596.52 Q1655.33 1596.52 1658.07 1592.83 Q1660.81 1589.14 1660.81 1582.77 Q1660.81 1576.44 1658.07 1572.75 Q1655.33 1569.02 1650.66 1569.02 M1650.66 1564.06 Q1658.29 1564.06 1662.66 1569.02 Q1667.02 1573.99 1667.02 1582.77 Q1667.02 1591.52 1662.66 1596.52 Q1658.29 1601.49 1650.66 1601.49 Q1642.99 1601.49 1638.62 1596.52 Q1634.3 1591.52 1634.3 1582.77 Q1634.3 1573.99 1638.62 1569.02 Q1642.99 1564.06 1650.66 1564.06 Z" fill="#000000" fill-rule="nonzero" fill-opacity="1" /><path clip-path="url(#clip330)" d="M1673 1600.56 L1673 1595.69 Q1678.79 1594.8 1680.57 1590.79 Q1682.74 1585.16 1682.74 1570.74 L1682.74 1564.92 L1706.83 1564.92 L1706.83 1600.56 L1700.98 1600.56 L1700.98 1569.59 L1688.6 1569.59 L1688.6 1573.13 Q1688.6 1586.88 1685.79 1593.05 Q1682.8 1599.64 1673 1600.56 Z" fill="#000000" fill-rule="nonzero" fill-opacity="1" /><path clip-path="url(#clip330)" d="M1718.16 1564.92 L1724.05 1564.92 L1724.05 1579.46 L1743.05 1579.46 L1743.05 1564.92 L1748.94 1564.92 L1748.94 1600.56 L1743.05 1600.56 L1743.05 1584.14 L1724.05 1584.14 L1724.05 1600.56 L1718.16 1600.56 L1718.16 1564.92 Z" fill="#000000" fill-rule="nonzero" fill-opacity="1" /><path clip-path="url(#clip330)" d="M1777.21 1582.64 Q1770.11 1582.64 1767.37 1584.27 Q1764.63 1585.89 1764.63 1589.81 Q1764.63 1592.92 1766.67 1594.77 Q1768.74 1596.59 1772.27 1596.59 Q1777.14 1596.59 1780.07 1593.15 Q1783.03 1589.68 1783.03 1583.95 L1783.03 1582.64 L1777.21 1582.64 M1788.89 1580.23 L1788.89 1600.56 L1783.03 1600.56 L1783.03 1595.15 Q1781.03 1598.4 1778.03 1599.96 Q1775.04 1601.49 1770.71 1601.49 Q1765.24 1601.49 1761.99 1598.43 Q1758.78 1595.34 1758.78 1590.19 Q1758.78 1584.17 1762.79 1581.12 Q1766.83 1578.06 1774.82 1578.06 L1783.03 1578.06 L1783.03 1577.49 Q1783.03 1573.45 1780.36 1571.25 Q1777.72 1569.02 1772.91 1569.02 Q1769.85 1569.02 1766.96 1569.75 Q1764.06 1570.49 1761.39 1571.95 L1761.39 1566.54 Q1764.6 1565.3 1767.63 1564.69 Q1770.65 1564.06 1773.51 1564.06 Q1781.25 1564.06 1785.07 1568.07 Q1788.89 1572.08 1788.89 1580.23 Z" fill="#000000" fill-rule="nonzero" fill-opacity="1" /><polyline clip-path="url(#clip330)" style="stroke:#000000; stroke-linecap:round; stroke-linejoin:round; stroke-width:4; stroke-opacity:1; fill:none" points="228.509,1443.7 228.509,108.352 "/>
<polyline clip-path="url(#clip330)" style="stroke:#000000; stroke-linecap:round; stroke-linejoin:round; stroke-width:4; stroke-opacity:1; fill:none" points="228.509,1443.7 247.407,1443.7 "/>
<polyline clip-path="url(#clip330)" style="stroke:#000000; stroke-linecap:round; stroke-linejoin:round; stroke-width:4; stroke-opacity:1; fill:none" points="228.509,1176.63 247.407,1176.63 "/>
<polyline clip-path="url(#clip330)" style="stroke:#000000; stroke-linecap:round; stroke-linejoin:round; stroke-width:4; stroke-opacity:1; fill:none" points="228.509,909.561 247.407,909.561 "/>
<polyline clip-path="url(#clip330)" style="stroke:#000000; stroke-linecap:round; stroke-linejoin:round; stroke-width:4; stroke-opacity:1; fill:none" points="228.509,642.491 247.407,642.491 "/>
<polyline clip-path="url(#clip330)" style="stroke:#000000; stroke-linecap:round; stroke-linejoin:round; stroke-width:4; stroke-opacity:1; fill:none" points="228.509,375.422 247.407,375.422 "/>
<polyline clip-path="url(#clip330)" style="stroke:#000000; stroke-linecap:round; stroke-linejoin:round; stroke-width:4; stroke-opacity:1; fill:none" points="228.509,108.352 247.407,108.352 "/>
<path clip-path="url(#clip330)" d="M168.565 1429.5 Q164.954 1429.5 163.125 1433.06 Q161.32 1436.6 161.32 1443.73 Q161.32 1450.84 163.125 1454.41 Q164.954 1457.95 168.565 1457.95 Q172.199 1457.95 174.005 1454.41 Q175.833 1450.84 175.833 1443.73 Q175.833 1436.6 174.005 1433.06 Q172.199 1429.5 168.565 1429.5 M168.565 1425.79 Q174.375 1425.79 177.431 1430.4 Q180.509 1434.98 180.509 1443.73 Q180.509 1452.46 177.431 1457.07 Q174.375 1461.65 168.565 1461.65 Q162.755 1461.65 159.676 1457.07 Q156.621 1452.46 156.621 1443.73 Q156.621 1434.98 159.676 1430.4 Q162.755 1425.79 168.565 1425.79 Z" fill="#000000" fill-rule="nonzero" fill-opacity="1" /><path clip-path="url(#clip330)" d="M132.431 1189.98 L148.75 1189.98 L148.75 1193.91 L126.806 1193.91 L126.806 1189.98 Q129.468 1187.22 134.051 1182.59 Q138.658 1177.94 139.838 1176.6 Q142.084 1174.07 142.963 1172.34 Q143.866 1170.58 143.866 1168.89 Q143.866 1166.13 141.922 1164.4 Q140 1162.66 136.898 1162.66 Q134.699 1162.66 132.246 1163.42 Q129.815 1164.19 127.037 1165.74 L127.037 1161.02 Q129.861 1159.88 132.315 1159.3 Q134.769 1158.73 136.806 1158.73 Q142.176 1158.73 145.371 1161.41 Q148.565 1164.1 148.565 1168.59 Q148.565 1170.72 147.755 1172.64 Q146.968 1174.54 144.861 1177.13 Q144.283 1177.8 141.181 1181.02 Q138.079 1184.21 132.431 1189.98 Z" fill="#000000" fill-rule="nonzero" fill-opacity="1" /><path clip-path="url(#clip330)" d="M168.565 1162.43 Q164.954 1162.43 163.125 1165.99 Q161.32 1169.54 161.32 1176.67 Q161.32 1183.77 163.125 1187.34 Q164.954 1190.88 168.565 1190.88 Q172.199 1190.88 174.005 1187.34 Q175.833 1183.77 175.833 1176.67 Q175.833 1169.54 174.005 1165.99 Q172.199 1162.43 168.565 1162.43 M168.565 1158.73 Q174.375 1158.73 177.431 1163.33 Q180.509 1167.92 180.509 1176.67 Q180.509 1185.39 177.431 1190 Q174.375 1194.58 168.565 1194.58 Q162.755 1194.58 159.676 1190 Q156.621 1185.39 156.621 1176.67 Q156.621 1167.92 159.676 1163.33 Q162.755 1158.73 168.565 1158.73 Z" fill="#000000" fill-rule="nonzero" fill-opacity="1" /><path clip-path="url(#clip330)" d="M141.25 896.355 L129.445 914.804 L141.25 914.804 L141.25 896.355 M140.023 892.281 L145.903 892.281 L145.903 914.804 L150.834 914.804 L150.834 918.693 L145.903 918.693 L145.903 926.841 L141.25 926.841 L141.25 918.693 L125.649 918.693 L125.649 914.179 L140.023 892.281 Z" fill="#000000" fill-rule="nonzero" fill-opacity="1" /><path clip-path="url(#clip330)" d="M168.565 895.359 Q164.954 895.359 163.125 898.924 Q161.32 902.466 161.32 909.595 Q161.32 916.702 163.125 920.267 Q164.954 923.808 168.565 923.808 Q172.199 923.808 174.005 920.267 Q175.833 916.702 175.833 909.595 Q175.833 902.466 174.005 898.924 Q172.199 895.359 168.565 895.359 M168.565 891.656 Q174.375 891.656 177.431 896.262 Q180.509 900.846 180.509 909.595 Q180.509 918.322 177.431 922.929 Q174.375 927.512 168.565 927.512 Q162.755 927.512 159.676 922.929 Q156.621 918.322 156.621 909.595 Q156.621 900.846 159.676 896.262 Q162.755 891.656 168.565 891.656 Z" fill="#000000" fill-rule="nonzero" fill-opacity="1" /><path clip-path="url(#clip330)" d="M138.982 640.628 Q135.834 640.628 133.982 642.781 Q132.153 644.933 132.153 648.683 Q132.153 652.41 133.982 654.586 Q135.834 656.739 138.982 656.739 Q142.13 656.739 143.959 654.586 Q145.81 652.41 145.81 648.683 Q145.81 644.933 143.959 642.781 Q142.13 640.628 138.982 640.628 M148.264 625.975 L148.264 630.234 Q146.505 629.401 144.699 628.961 Q142.917 628.521 141.158 628.521 Q136.528 628.521 134.074 631.646 Q131.644 634.771 131.297 641.091 Q132.662 639.077 134.723 638.012 Q136.783 636.924 139.26 636.924 Q144.468 636.924 147.477 640.095 Q150.51 643.244 150.51 648.683 Q150.51 654.007 147.361 657.225 Q144.213 660.443 138.982 660.443 Q132.986 660.443 129.815 655.859 Q126.644 651.253 126.644 642.526 Q126.644 634.332 130.533 629.47 Q134.422 624.586 140.973 624.586 Q142.732 624.586 144.514 624.933 Q146.32 625.281 148.264 625.975 Z" fill="#000000" fill-rule="nonzero" fill-opacity="1" /><path clip-path="url(#clip330)" d="M168.565 628.29 Q164.954 628.29 163.125 631.855 Q161.32 635.396 161.32 642.526 Q161.32 649.632 163.125 653.197 Q164.954 656.739 168.565 656.739 Q172.199 656.739 174.005 653.197 Q175.833 649.632 175.833 642.526 Q175.833 635.396 174.005 631.855 Q172.199 628.29 168.565 628.29 M168.565 624.586 Q174.375 624.586 177.431 629.193 Q180.509 633.776 180.509 642.526 Q180.509 651.253 177.431 655.859 Q174.375 660.443 168.565 660.443 Q162.755 660.443 159.676 655.859 Q156.621 651.253 156.621 642.526 Q156.621 633.776 159.676 629.193 Q162.755 624.586 168.565 624.586 Z" fill="#000000" fill-rule="nonzero" fill-opacity="1" /><path clip-path="url(#clip330)" d="M138.403 376.29 Q135.07 376.29 133.148 378.072 Q131.25 379.855 131.25 382.979 Q131.25 386.104 133.148 387.887 Q135.07 389.669 138.403 389.669 Q141.736 389.669 143.658 387.887 Q145.579 386.081 145.579 382.979 Q145.579 379.855 143.658 378.072 Q141.76 376.29 138.403 376.29 M133.727 374.299 Q130.718 373.558 129.028 371.498 Q127.361 369.438 127.361 366.475 Q127.361 362.331 130.301 359.924 Q133.264 357.517 138.403 357.517 Q143.565 357.517 146.505 359.924 Q149.445 362.331 149.445 366.475 Q149.445 369.438 147.755 371.498 Q146.088 373.558 143.102 374.299 Q146.482 375.086 148.357 377.378 Q150.255 379.669 150.255 382.979 Q150.255 388.003 147.176 390.688 Q144.121 393.373 138.403 393.373 Q132.686 393.373 129.607 390.688 Q126.551 388.003 126.551 382.979 Q126.551 379.669 128.449 377.378 Q130.348 375.086 133.727 374.299 M132.014 366.915 Q132.014 369.6 133.681 371.105 Q135.371 372.609 138.403 372.609 Q141.412 372.609 143.102 371.105 Q144.815 369.6 144.815 366.915 Q144.815 364.23 143.102 362.725 Q141.412 361.22 138.403 361.22 Q135.371 361.22 133.681 362.725 Q132.014 364.23 132.014 366.915 Z" fill="#000000" fill-rule="nonzero" fill-opacity="1" /><path clip-path="url(#clip330)" d="M168.565 361.22 Q164.954 361.22 163.125 364.785 Q161.32 368.327 161.32 375.456 Q161.32 382.563 163.125 386.128 Q164.954 389.669 168.565 389.669 Q172.199 389.669 174.005 386.128 Q175.833 382.563 175.833 375.456 Q175.833 368.327 174.005 364.785 Q172.199 361.22 168.565 361.22 M168.565 357.517 Q174.375 357.517 177.431 362.123 Q180.509 366.706 180.509 375.456 Q180.509 384.183 177.431 388.79 Q174.375 393.373 168.565 393.373 Q162.755 393.373 159.676 388.79 Q156.621 384.183 156.621 375.456 Q156.621 366.706 159.676 362.123 Q162.755 357.517 168.565 357.517 Z" fill="#000000" fill-rule="nonzero" fill-opacity="1" /><path clip-path="url(#clip330)" d="M99.0515 121.697 L106.69 121.697 L106.69 95.3314 L98.3802 96.998 L98.3802 92.7388 L106.644 91.0721 L111.32 91.0721 L111.32 121.697 L118.959 121.697 L118.959 125.632 L99.0515 125.632 L99.0515 121.697 Z" fill="#000000" fill-rule="nonzero" fill-opacity="1" /><path clip-path="url(#clip330)" d="M138.403 94.1508 Q134.792 94.1508 132.963 97.7156 Q131.158 101.257 131.158 108.387 Q131.158 115.493 132.963 119.058 Q134.792 122.6 138.403 122.6 Q142.037 122.6 143.843 119.058 Q145.672 115.493 145.672 108.387 Q145.672 101.257 143.843 97.7156 Q142.037 94.1508 138.403 94.1508 M138.403 90.4471 Q144.213 90.4471 147.269 95.0536 Q150.347 99.6369 150.347 108.387 Q150.347 117.114 147.269 121.72 Q144.213 126.303 138.403 126.303 Q132.593 126.303 129.514 121.72 Q126.459 117.114 126.459 108.387 Q126.459 99.6369 129.514 95.0536 Q132.593 90.4471 138.403 90.4471 Z" fill="#000000" fill-rule="nonzero" fill-opacity="1" /><path clip-path="url(#clip330)" d="M168.565 94.1508 Q164.954 94.1508 163.125 97.7156 Q161.32 101.257 161.32 108.387 Q161.32 115.493 163.125 119.058 Q164.954 122.6 168.565 122.6 Q172.199 122.6 174.005 119.058 Q175.833 115.493 175.833 108.387 Q175.833 101.257 174.005 97.7156 Q172.199 94.1508 168.565 94.1508 M168.565 90.4471 Q174.375 90.4471 177.431 95.0536 Q180.509 99.6369 180.509 108.387 Q180.509 117.114 177.431 121.72 Q174.375 126.303 168.565 126.303 Q162.755 126.303 159.676 121.72 Q156.621 117.114 156.621 108.387 Q156.621 99.6369 159.676 95.0536 Q162.755 90.4471 168.565 90.4471 Z" fill="#000000" fill-rule="nonzero" fill-opacity="1" /><path clip-path="url(#clip330)" d="M15.2128 953.661 Q15.2128 956.43 17.5681 958.022 Q19.9234 959.581 24.1248 959.581 Q28.2625 959.581 30.6496 958.022 Q33.005 956.43 33.005 953.661 Q33.005 950.956 30.6496 949.396 Q28.2625 947.805 24.1248 947.805 Q19.9553 947.805 17.6 949.396 Q15.2128 950.956 15.2128 953.661 M11.1706 953.661 Q11.1706 948.632 14.6717 945.672 Q18.1729 942.712 24.1248 942.712 Q30.0767 942.712 33.5779 945.704 Q37.0472 948.664 37.0472 953.661 Q37.0472 958.754 33.5779 961.714 Q30.0767 964.674 24.1248 964.674 Q18.141 964.674 14.6717 961.714 Q11.1706 958.722 11.1706 953.661 M-8.21299 986.508 Q-8.21299 989.245 -5.82585 990.837 Q-3.47054 992.396 0.667172 992.396 Q4.86854 992.396 7.22385 990.837 Q9.57916 989.277 9.57916 986.508 Q9.57916 983.739 7.22385 982.179 Q4.86854 980.588 0.667172 980.588 Q-3.43871 980.588 -5.82585 982.179 Q-8.21299 983.771 -8.21299 986.508 M-12.2552 957.767 L-12.2552 952.674 L37.0472 982.402 L37.0472 987.495 L-12.2552 957.767 M-12.2552 986.508 Q-12.2552 981.479 -8.75407 978.487 Q-5.28476 975.495 0.667172 975.495 Q6.68276 975.495 10.1521 978.487 Q13.6214 981.447 13.6214 986.508 Q13.6214 991.569 10.1521 994.529 Q6.65094 997.457 0.667172 997.457 Q-5.25294 997.457 -8.75407 994.497 Q-12.2552 991.537 -12.2552 986.508 Z" fill="#000000" fill-rule="nonzero" fill-opacity="1" /><path clip-path="url(#clip330)" d="M4.58208 898.439 Q4.58208 903.149 8.27419 905.886 Q11.9345 908.624 18.332 908.624 Q24.7295 908.624 28.4217 905.918 Q32.0819 903.181 32.0819 898.439 Q32.0819 893.76 28.3898 891.022 Q24.6977 888.285 18.332 888.285 Q11.9981 888.285 8.30602 891.022 Q4.58208 893.76 4.58208 898.439 M-0.38317 898.439 Q-0.38317 890.8 4.58208 886.439 Q9.54733 882.079 18.332 882.079 Q27.0849 882.079 32.0819 886.439 Q37.0472 890.8 37.0472 898.439 Q37.0472 906.109 32.0819 910.47 Q27.0849 914.798 18.332 914.798 Q9.54733 914.798 4.58208 910.47 Q-0.38317 906.109 -0.38317 898.439 Z" fill="#000000" fill-rule="nonzero" fill-opacity="1" /><path clip-path="url(#clip330)" d="M0.4762 876.604 L0.4762 842.452 L5.15499 842.452 L5.15499 856.648 L36.1242 856.648 L36.1242 862.409 L5.15499 862.409 L5.15499 876.604 L0.4762 876.604 Z" fill="#000000" fill-rule="nonzero" fill-opacity="1" /><path clip-path="url(#clip330)" d="M30.7133 807.313 L30.7133 784.874 L36.1242 784.874 L36.1242 815.048 L30.7133 815.048 Q26.9257 811.387 20.56 805.085 Q14.1625 798.752 12.3164 797.128 Q8.8471 794.041 6.45996 792.831 Q4.041 791.59 1.71751 791.59 Q-2.07008 791.59 -4.45722 794.264 Q-6.84436 796.906 -6.84436 801.171 Q-6.84436 804.194 -5.79402 807.568 Q-4.74368 810.91 -2.61117 814.729 L-9.10419 814.729 Q-10.6638 810.846 -11.4595 807.473 Q-12.2552 804.099 -12.2552 801.298 Q-12.2552 793.914 -8.5631 789.521 Q-4.87099 785.129 1.30374 785.129 Q4.23197 785.129 6.87374 786.243 Q9.48368 787.325 13.0485 790.222 Q13.9715 791.017 18.3957 795.282 Q22.788 799.547 30.7133 807.313 Z" fill="#000000" fill-rule="nonzero" fill-opacity="1" /><path clip-path="url(#clip330)" d="M-7.16265 757.629 Q-7.16265 762.594 -2.26105 765.109 Q2.60871 767.591 12.4119 767.591 Q22.1833 767.591 27.0849 765.109 Q31.9546 762.594 31.9546 757.629 Q31.9546 752.632 27.0849 750.149 Q22.1833 747.635 12.4119 747.635 Q2.60871 747.635 -2.26105 750.149 Q-7.16265 752.632 -7.16265 757.629 M-12.2552 757.629 Q-12.2552 749.64 -5.92133 745.439 Q0.380715 741.206 12.4119 741.206 Q24.4113 741.206 30.7451 745.439 Q37.0472 749.64 37.0472 757.629 Q37.0472 765.618 30.7451 769.851 Q24.4113 774.053 12.4119 774.053 Q0.380715 774.053 -5.92133 769.851 Q-12.2552 765.618 -12.2552 757.629 Z" fill="#000000" fill-rule="nonzero" fill-opacity="1" /><path clip-path="url(#clip330)" d="M-7.16265 716.157 Q-7.16265 721.122 -2.26105 723.636 Q2.60871 726.119 12.4119 726.119 Q22.1833 726.119 27.0849 723.636 Q31.9546 721.122 31.9546 716.157 Q31.9546 711.159 27.0849 708.677 Q22.1833 706.162 12.4119 706.162 Q2.60871 706.162 -2.26105 708.677 Q-7.16265 711.159 -7.16265 716.157 M-12.2552 716.157 Q-12.2552 708.168 -5.92133 703.966 Q0.380715 699.733 12.4119 699.733 Q24.4113 699.733 30.7451 703.966 Q37.0472 708.168 37.0472 716.157 Q37.0472 724.145 30.7451 728.379 Q24.4113 732.58 12.4119 732.58 Q0.380715 732.58 -5.92133 728.379 Q-12.2552 724.145 -12.2552 716.157 Z" fill="#000000" fill-rule="nonzero" fill-opacity="1" /><path clip-path="url(#clip330)" d="M-7.16265 653.964 Q-7.16265 658.929 -2.26105 661.443 Q2.60871 663.926 12.4119 663.926 Q22.1833 663.926 27.0849 661.443 Q31.9546 658.929 31.9546 653.964 Q31.9546 648.966 27.0849 646.484 Q22.1833 643.969 12.4119 643.969 Q2.60871 643.969 -2.26105 646.484 Q-7.16265 648.966 -7.16265 653.964 M-12.2552 653.964 Q-12.2552 645.975 -5.92133 641.773 Q0.380715 637.54 12.4119 637.54 Q24.4113 637.54 30.7451 641.773 Q37.0472 645.975 37.0472 653.964 Q37.0472 661.953 30.7451 666.186 Q24.4113 670.387 12.4119 670.387 Q0.380715 670.387 -5.92133 666.186 Q-12.2552 661.953 -12.2552 653.964 Z" fill="#000000" fill-rule="nonzero" fill-opacity="1" /><path clip-path="url(#clip330)" d="M-7.16265 612.491 Q-7.16265 617.456 -2.26105 619.971 Q2.60871 622.453 12.4119 622.453 Q22.1833 622.453 27.0849 619.971 Q31.9546 617.456 31.9546 612.491 Q31.9546 607.494 27.0849 605.011 Q22.1833 602.497 12.4119 602.497 Q2.60871 602.497 -2.26105 605.011 Q-7.16265 607.494 -7.16265 612.491 M-12.2552 612.491 Q-12.2552 604.502 -5.92133 600.301 Q0.380715 596.067 12.4119 596.067 Q24.4113 596.067 30.7451 600.301 Q37.0472 604.502 37.0472 612.491 Q37.0472 620.48 30.7451 624.713 Q24.4113 628.915 12.4119 628.915 Q0.380715 628.915 -5.92133 624.713 Q-12.2552 620.48 -12.2552 612.491 Z" fill="#000000" fill-rule="nonzero" fill-opacity="1" /><path clip-path="url(#clip330)" d="M-7.16265 571.018 Q-7.16265 575.984 -2.26105 578.498 Q2.60871 580.981 12.4119 580.981 Q22.1833 580.981 27.0849 578.498 Q31.9546 575.984 31.9546 571.018 Q31.9546 566.021 27.0849 563.539 Q22.1833 561.024 12.4119 561.024 Q2.60871 561.024 -2.26105 563.539 Q-7.16265 566.021 -7.16265 571.018 M-12.2552 571.018 Q-12.2552 563.029 -5.92133 558.828 Q0.380715 554.595 12.4119 554.595 Q24.4113 554.595 30.7451 558.828 Q37.0472 563.029 37.0472 571.018 Q37.0472 579.007 30.7451 583.241 Q24.4113 587.442 12.4119 587.442 Q0.380715 587.442 -5.92133 583.241 Q-12.2552 579.007 -12.2552 571.018 Z" fill="#000000" fill-rule="nonzero" fill-opacity="1" /><path clip-path="url(#clip330)" d="M554.334 59.3701 Q562.881 67.0263 573.251 67.0263 Q583.946 67.0263 588.766 61.274 Q593.587 55.5217 594.478 45.84 L562.152 45.84 L562.152 38.9535 L594.478 38.9535 Q593.587 29.2718 588.766 23.5195 Q583.946 17.7268 573.251 17.7268 Q562.881 17.7268 554.334 25.383 L554.334 16.7545 Q562.76 11.0023 573.738 11.0023 Q587.308 11.0023 595.207 19.4281 Q603.107 27.8135 603.107 42.3563 Q603.107 56.9395 595.207 65.3654 Q587.308 73.7508 573.738 73.7508 Q562.922 73.7508 554.334 67.9175 L554.334 59.3701 Z" fill="#000000" fill-rule="nonzero" fill-opacity="1" /><path clip-path="url(#clip330)" d="M620.039 49.9314 Q620.039 59.4511 622.956 63.502 Q625.913 67.5124 630.896 67.5124 Q634.866 67.5124 639.484 60.7069 L639.484 39.156 Q634.866 32.3505 630.896 32.3505 Q625.913 32.3505 622.956 36.4014 Q620.039 40.4118 620.039 49.9314 M639.484 89.8329 L639.484 66.7832 Q637.175 70.5911 634.501 72.1709 Q631.868 73.7508 628.506 73.7508 Q621.741 73.7508 617.001 67.5124 Q612.302 61.2335 612.302 50.0935 Q612.302 38.9535 617.001 32.5531 Q621.741 26.1121 628.506 26.1121 Q631.868 26.1121 634.501 27.6515 Q637.175 29.1908 639.484 32.9987 L639.484 12.096 L646.978 12.096 L646.978 32.9987 Q649.287 29.1908 651.92 27.6515 Q654.594 26.1121 657.956 26.1121 Q664.721 26.1121 669.42 32.5531 Q674.159 38.9535 674.159 50.0935 Q674.159 61.2335 669.42 67.5124 Q664.721 73.7508 657.956 73.7508 Q654.594 73.7508 651.92 72.1709 Q649.287 70.5911 646.978 66.7832 L646.978 89.8329 L639.484 89.8329 M666.422 49.9314 Q666.422 40.4118 663.465 36.4014 Q660.548 32.3505 655.566 32.3505 Q651.596 32.3505 646.978 39.156 L646.978 60.7069 Q651.596 67.5124 655.566 67.5124 Q660.548 67.5124 663.465 63.502 Q666.422 59.4511 666.422 49.9314 Z" fill="#000000" fill-rule="nonzero" fill-opacity="1" /><path clip-path="url(#clip330)" d="M690.971 49.9314 Q690.971 59.4511 693.887 63.502 Q696.845 67.5124 701.827 67.5124 Q705.797 67.5124 710.415 60.7069 L710.415 39.156 Q705.797 32.3505 701.827 32.3505 Q696.845 32.3505 693.887 36.4014 Q690.971 40.4118 690.971 49.9314 M710.415 89.8329 L710.415 66.7832 Q708.106 70.5911 705.432 72.1709 Q702.799 73.7508 699.437 73.7508 Q692.672 73.7508 687.933 67.5124 Q683.234 61.2335 683.234 50.0935 Q683.234 38.9535 687.933 32.5531 Q692.672 26.1121 699.437 26.1121 Q702.799 26.1121 705.432 27.6515 Q708.106 29.1908 710.415 32.9987 L710.415 12.096 L717.909 12.096 L717.909 32.9987 Q720.218 29.1908 722.851 27.6515 Q725.525 26.1121 728.887 26.1121 Q735.652 26.1121 740.351 32.5531 Q745.091 38.9535 745.091 50.0935 Q745.091 61.2335 740.351 67.5124 Q735.652 73.7508 728.887 73.7508 Q725.525 73.7508 722.851 72.1709 Q720.218 70.5911 717.909 66.7832 L717.909 89.8329 L710.415 89.8329 M737.354 49.9314 Q737.354 40.4118 734.396 36.4014 Q731.48 32.3505 726.497 32.3505 Q722.527 32.3505 717.909 39.156 L717.909 60.7069 Q722.527 67.5124 726.497 67.5124 Q731.48 67.5124 734.396 63.502 Q737.354 59.4511 737.354 49.9314 Z" fill="#000000" fill-rule="nonzero" fill-opacity="1" /><path clip-path="url(#clip330)" d="M796.254 48.0275 L796.254 51.6733 L761.983 51.6733 Q762.469 59.3701 766.601 63.421 Q770.774 67.4314 778.187 67.4314 Q782.481 67.4314 786.491 66.3781 Q790.542 65.3249 794.512 63.2184 L794.512 70.267 Q790.501 71.9684 786.289 72.8596 Q782.076 73.7508 777.741 73.7508 Q766.885 73.7508 760.525 67.4314 Q754.205 61.1119 754.205 50.3365 Q754.205 39.1965 760.201 32.6746 Q766.237 26.1121 776.445 26.1121 Q785.6 26.1121 790.907 32.0264 Q796.254 37.9003 796.254 48.0275 M788.8 45.84 Q788.719 39.7232 785.357 36.0774 Q782.035 32.4315 776.526 32.4315 Q770.287 32.4315 766.52 35.9558 Q762.793 39.4801 762.226 45.8805 L788.8 45.84 Z" fill="#000000" fill-rule="nonzero" fill-opacity="1" /><path clip-path="url(#clip330)" d="M808.204 27.2059 L815.617 27.2059 L815.617 48.5136 L836.641 27.2059 L845.796 27.2059 L828.458 44.7463 L848.024 72.576 L839.679 72.576 L823.597 49.6884 L815.617 57.7902 L815.617 72.576 L808.204 72.576 L808.204 27.2059 Z" fill="#000000" fill-rule="nonzero" fill-opacity="1" /><path clip-path="url(#clip330)" d="M853.209 27.2059 L896.676 27.2059 L896.676 33.1607 L878.609 33.1607 L878.609 72.576 L871.276 72.576 L871.276 33.1607 L853.209 33.1607 L853.209 27.2059 Z" fill="#000000" fill-rule="nonzero" fill-opacity="1" /><path clip-path="url(#clip330)" d="M945.489 27.2059 L945.489 72.576 L938.076 72.576 L938.076 36.1584 L916.201 72.576 L906.641 72.576 L906.641 27.2059 L914.054 27.2059 L914.054 63.5425 L935.888 27.2059 L945.489 27.2059 Z" fill="#000000" fill-rule="nonzero" fill-opacity="1" /><path clip-path="url(#clip330)" d="M968.012 51.6733 L968.012 66.6212 L978.625 66.6212 Q983.73 66.6212 986.403 64.7172 Q989.077 62.7728 989.077 59.127 Q989.077 55.4812 986.403 53.5773 Q983.73 51.6733 978.625 51.6733 L968.012 51.6733 M968.012 33.1607 L968.012 45.7185 L977.815 45.7185 Q982.028 45.7185 984.702 44.0576 Q987.375 42.3563 987.375 39.3586 Q987.375 36.3609 984.702 34.7811 Q982.028 33.1607 977.815 33.1607 L968.012 33.1607 M960.558 27.2059 L978.301 27.2059 Q986.282 27.2059 990.576 30.1225 Q994.87 33.0392 994.87 38.4269 Q994.87 42.5993 992.682 45.0704 Q990.495 47.5009 986.201 48.1085 Q991.345 49.0808 994.181 52.1594 Q997.017 55.2381 997.017 59.8562 Q997.017 65.9325 992.318 69.2543 Q987.659 72.576 978.99 72.576 L960.558 72.576 L960.558 27.2059 Z" fill="#000000" fill-rule="nonzero" fill-opacity="1" /><path clip-path="url(#clip330)" d="M1009.45 27.2059 L1016.95 27.2059 L1016.95 45.7185 L1041.13 45.7185 L1041.13 27.2059 L1048.63 27.2059 L1048.63 72.576 L1041.13 72.576 L1041.13 51.6733 L1016.95 51.6733 L1016.95 72.576 L1009.45 72.576 L1009.45 27.2059 Z" fill="#000000" fill-rule="nonzero" fill-opacity="1" /><path clip-path="url(#clip330)" d="M1084.6 49.7694 Q1075.56 49.7694 1072.08 51.8354 Q1068.6 53.9013 1068.6 58.8839 Q1068.6 62.8538 1071.19 65.2034 Q1073.82 67.5124 1078.32 67.5124 Q1084.52 67.5124 1088.24 63.1374 Q1092.01 58.7219 1092.01 51.4303 L1092.01 49.7694 L1084.6 49.7694 M1099.46 46.6907 L1099.46 72.576 L1092.01 72.576 L1092.01 65.6895 Q1089.46 69.8214 1085.65 71.8063 Q1081.84 73.7508 1076.33 73.7508 Q1069.37 73.7508 1065.23 69.8619 Q1061.14 65.9325 1061.14 59.3701 Q1061.14 51.7138 1066.25 47.825 Q1071.39 43.9361 1081.56 43.9361 L1092.01 43.9361 L1092.01 43.2069 Q1092.01 38.0623 1088.61 35.2672 Q1085.25 32.4315 1079.13 32.4315 Q1075.24 32.4315 1071.55 33.3632 Q1067.87 34.295 1064.46 36.1584 L1064.46 29.2718 Q1068.56 27.692 1072.4 26.9223 Q1076.25 26.1121 1079.9 26.1121 Q1089.74 26.1121 1094.6 31.2163 Q1099.46 36.3204 1099.46 46.6907 Z" fill="#000000" fill-rule="nonzero" fill-opacity="1" /><path clip-path="url(#clip330)" d="M1122.31 40.2903 Q1122.31 43.6525 1124.9 45.5565 Q1127.5 47.4604 1132.32 47.4604 L1142.36 47.4604 L1142.36 33.1607 L1132.32 33.1607 Q1127.5 33.1607 1124.9 35.0241 Q1122.31 36.8875 1122.31 40.2903 M1111.7 72.576 L1125.55 52.6861 Q1120.85 51.6328 1117.73 48.8782 Q1114.61 46.0831 1114.61 40.2903 Q1114.61 33.7278 1118.95 30.4871 Q1123.32 27.2059 1132.11 27.2059 L1149.86 27.2059 L1149.86 72.576 L1142.36 72.576 L1142.36 53.4152 L1133.09 53.4152 L1119.72 72.576 L1111.7 72.576 Z" fill="#000000" fill-rule="nonzero" fill-opacity="1" /><path clip-path="url(#clip330)" d="M1198.27 51.6733 L1198.27 66.6212 L1208.88 66.6212 Q1213.98 66.6212 1216.66 64.7172 Q1219.33 62.7728 1219.33 59.127 Q1219.33 55.4812 1216.66 53.5773 Q1213.98 51.6733 1208.88 51.6733 L1198.27 51.6733 M1198.27 33.1607 L1198.27 45.7185 L1208.07 45.7185 Q1212.28 45.7185 1214.96 44.0576 Q1217.63 42.3563 1217.63 39.3586 Q1217.63 36.3609 1214.96 34.7811 Q1212.28 33.1607 1208.07 33.1607 L1198.27 33.1607 M1190.81 27.2059 L1208.55 27.2059 Q1216.54 27.2059 1220.83 30.1225 Q1225.12 33.0392 1225.12 38.4269 Q1225.12 42.5993 1222.94 45.0704 Q1220.75 47.5009 1216.45 48.1085 Q1221.6 49.0808 1224.43 52.1594 Q1227.27 55.2381 1227.27 59.8562 Q1227.27 65.9325 1222.57 69.2543 Q1217.91 72.576 1209.24 72.576 L1190.81 72.576 L1190.81 27.2059 Z" fill="#000000" fill-rule="nonzero" fill-opacity="1" /><path clip-path="url(#clip330)" d="M1257.57 32.4315 Q1251.58 32.4315 1248.09 37.1306 Q1244.61 41.7891 1244.61 49.9314 Q1244.61 58.0738 1248.05 62.7728 Q1251.53 67.4314 1257.57 67.4314 Q1263.53 67.4314 1267.01 62.7323 Q1270.49 58.0333 1270.49 49.9314 Q1270.49 41.8701 1267.01 37.1711 Q1263.53 32.4315 1257.57 32.4315 M1257.57 26.1121 Q1267.29 26.1121 1272.84 32.4315 Q1278.39 38.7509 1278.39 49.9314 Q1278.39 61.0714 1272.84 67.4314 Q1267.29 73.7508 1257.57 73.7508 Q1247.81 73.7508 1242.26 67.4314 Q1236.75 61.0714 1236.75 49.9314 Q1236.75 38.7509 1242.26 32.4315 Q1247.81 26.1121 1257.57 26.1121 Z" fill="#000000" fill-rule="nonzero" fill-opacity="1" /><path clip-path="url(#clip330)" d="M1323.4 28.9478 L1323.4 35.9153 Q1320.24 34.1734 1317.04 33.3227 Q1313.88 32.4315 1310.64 32.4315 Q1303.39 32.4315 1299.38 37.0496 Q1295.37 41.6271 1295.37 49.9314 Q1295.37 58.2358 1299.38 62.8538 Q1303.39 67.4314 1310.64 67.4314 Q1313.88 67.4314 1317.04 66.5807 Q1320.24 65.6895 1323.4 63.9476 L1323.4 70.8341 Q1320.28 72.2924 1316.92 73.0216 Q1313.59 73.7508 1309.83 73.7508 Q1299.58 73.7508 1293.54 67.3098 Q1287.51 60.8689 1287.51 49.9314 Q1287.51 38.832 1293.58 32.472 Q1299.7 26.1121 1310.31 26.1121 Q1313.76 26.1121 1317.04 26.8413 Q1320.32 27.5299 1323.4 28.9478 Z" fill="#000000" fill-rule="nonzero" fill-opacity="1" /><path clip-path="url(#clip330)" d="M1375.25 27.2059 L1375.25 72.576 L1367.76 72.576 L1367.76 33.1607 L1343.57 33.1607 L1343.57 72.576 L1336.08 72.576 L1336.08 27.2059 L1375.25 27.2059 Z" fill="#000000" fill-rule="nonzero" fill-opacity="1" /><path clip-path="url(#clip330)" d="M1397.81 65.7705 L1397.81 89.8329 L1390.32 89.8329 L1390.32 27.2059 L1397.81 27.2059 L1397.81 34.0924 Q1400.16 30.0415 1403.73 28.0971 Q1407.33 26.1121 1412.32 26.1121 Q1420.58 26.1121 1425.72 32.6746 Q1430.91 39.2371 1430.91 49.9314 Q1430.91 60.6258 1425.72 67.1883 Q1420.58 73.7508 1412.32 73.7508 Q1407.33 73.7508 1403.73 71.8063 Q1400.16 69.8214 1397.81 65.7705 M1423.17 49.9314 Q1423.17 41.7081 1419.77 37.0496 Q1416.41 32.3505 1410.49 32.3505 Q1404.58 32.3505 1401.18 37.0496 Q1397.81 41.7081 1397.81 49.9314 Q1397.81 58.1548 1401.18 62.8538 Q1404.58 67.5124 1410.49 67.5124 Q1416.41 67.5124 1419.77 62.8538 Q1423.17 58.1548 1423.17 49.9314 Z" fill="#000000" fill-rule="nonzero" fill-opacity="1" /><path clip-path="url(#clip330)" d="M1481.83 27.2059 L1481.83 72.576 L1474.42 72.576 L1474.42 36.1584 L1452.54 72.576 L1442.98 72.576 L1442.98 27.2059 L1450.39 27.2059 L1450.39 63.5425 L1472.23 27.2059 L1481.83 27.2059 Z" fill="#000000" fill-rule="nonzero" fill-opacity="1" /><path clip-path="url(#clip330)" d="M1535.75 27.2059 L1535.75 72.576 L1528.33 72.576 L1528.33 36.1584 L1506.46 72.576 L1496.9 72.576 L1496.9 27.2059 L1504.31 27.2059 L1504.31 63.5425 L1526.15 27.2059 L1535.75 27.2059 Z" fill="#000000" fill-rule="nonzero" fill-opacity="1" /><path clip-path="url(#clip330)" d="M1550.82 27.2059 L1561.71 27.2059 L1574.59 57.5877 L1587.52 27.2059 L1598.33 27.2059 L1598.33 72.576 L1590.84 72.576 L1590.84 34.3355 L1578.32 63.8666 L1570.87 63.8666 L1558.31 34.3355 L1558.31 72.576 L1550.82 72.576 L1550.82 27.2059 Z" fill="#000000" fill-rule="nonzero" fill-opacity="1" /><path clip-path="url(#clip330)" d="M1639.9 72.576 L1639.9 53.4962 L1626 53.4962 Q1619.8 53.4962 1615.67 49.6479 Q1611.94 46.1641 1611.94 38.7104 L1611.94 27.2059 L1619.4 27.2059 L1619.4 38.0218 Q1619.4 42.7613 1621.5 45.1514 Q1623.65 47.5414 1627.86 47.5414 L1639.9 47.5414 L1639.9 27.2059 L1647.35 27.2059 L1647.35 72.576 L1639.9 72.576 Z" fill="#000000" fill-rule="nonzero" fill-opacity="1" /><path clip-path="url(#clip330)" d="M1701.27 27.2059 L1701.27 72.576 L1693.85 72.576 L1693.85 36.1584 L1671.98 72.576 L1662.42 72.576 L1662.42 27.2059 L1669.83 27.2059 L1669.83 63.5425 L1691.67 27.2059 L1701.27 27.2059 Z" fill="#000000" fill-rule="nonzero" fill-opacity="1" /><path clip-path="url(#clip330)" d="M1723.79 51.6733 L1723.79 66.6212 L1734.4 66.6212 Q1739.51 66.6212 1742.18 64.7172 Q1744.85 62.7728 1744.85 59.127 Q1744.85 55.4812 1742.18 53.5773 Q1739.51 51.6733 1734.4 51.6733 L1723.79 51.6733 M1723.79 33.1607 L1723.79 45.7185 L1733.59 45.7185 Q1737.81 45.7185 1740.48 44.0576 Q1743.15 42.3563 1743.15 39.3586 Q1743.15 36.3609 1740.48 34.7811 Q1737.81 33.1607 1733.59 33.1607 L1723.79 33.1607 M1716.34 27.2059 L1734.08 27.2059 Q1742.06 27.2059 1746.35 30.1225 Q1750.65 33.0392 1750.65 38.4269 Q1750.65 42.5993 1748.46 45.0704 Q1746.27 47.5009 1741.98 48.1085 Q1747.12 49.0808 1749.96 52.1594 Q1752.79 55.2381 1752.79 59.8562 Q1752.79 65.9325 1748.09 69.2543 Q1743.44 72.576 1734.77 72.576 L1716.34 72.576 L1716.34 27.2059 Z" fill="#000000" fill-rule="nonzero" fill-opacity="1" /><path clip-path="url(#clip330)" d="M1786.13 49.7694 Q1777.1 49.7694 1773.62 51.8354 Q1770.13 53.9013 1770.13 58.8839 Q1770.13 62.8538 1772.72 65.2034 Q1775.36 67.5124 1779.85 67.5124 Q1786.05 67.5124 1789.78 63.1374 Q1793.55 58.7219 1793.55 51.4303 L1793.55 49.7694 L1786.13 49.7694 M1801 46.6907 L1801 72.576 L1793.55 72.576 L1793.55 65.6895 Q1790.99 69.8214 1787.19 71.8063 Q1783.38 73.7508 1777.87 73.7508 Q1770.9 73.7508 1766.77 69.8619 Q1762.68 65.9325 1762.68 59.3701 Q1762.68 51.7138 1767.78 47.825 Q1772.93 43.9361 1783.09 43.9361 L1793.55 43.9361 L1793.55 43.2069 Q1793.55 38.0623 1790.14 35.2672 Q1786.78 32.4315 1780.66 32.4315 Q1776.78 32.4315 1773.09 33.3632 Q1769.4 34.295 1766 36.1584 L1766 29.2718 Q1770.09 27.692 1773.94 26.9223 Q1777.79 26.1121 1781.43 26.1121 Q1791.28 26.1121 1796.14 31.2163 Q1801 36.3204 1801 46.6907 Z" fill="#000000" fill-rule="nonzero" fill-opacity="1" /><path clip-path="url(#clip330)" d="M1823.85 40.2903 Q1823.85 43.6525 1826.44 45.5565 Q1829.03 47.4604 1833.85 47.4604 L1843.9 47.4604 L1843.9 33.1607 L1833.85 33.1607 Q1829.03 33.1607 1826.44 35.0241 Q1823.85 36.8875 1823.85 40.2903 M1813.23 72.576 L1827.09 52.6861 Q1822.39 51.6328 1819.27 48.8782 Q1816.15 46.0831 1816.15 40.2903 Q1816.15 33.7278 1820.48 30.4871 Q1824.86 27.2059 1833.65 27.2059 L1851.39 27.2059 L1851.39 72.576 L1843.9 72.576 L1843.9 53.4152 L1834.62 53.4152 L1821.25 72.576 L1813.23 72.576 Z" fill="#000000" fill-rule="nonzero" fill-opacity="1" /><path clip-path="url(#clip330)" d="M1931.52 27.2059 L1931.52 72.576 L1924.03 72.576 L1924.03 33.1607 L1899.84 33.1607 L1899.84 72.576 L1892.35 72.576 L1892.35 27.2059 L1931.52 27.2059 Z" fill="#000000" fill-rule="nonzero" fill-opacity="1" /><path clip-path="url(#clip330)" d="M1964.45 32.4315 Q1958.46 32.4315 1954.97 37.1306 Q1951.49 41.7891 1951.49 49.9314 Q1951.49 58.0738 1954.93 62.7728 Q1958.42 67.4314 1964.45 67.4314 Q1970.41 67.4314 1973.89 62.7323 Q1977.38 58.0333 1977.38 49.9314 Q1977.38 41.8701 1973.89 37.1711 Q1970.41 32.4315 1964.45 32.4315 M1964.45 26.1121 Q1974.18 26.1121 1979.73 32.4315 Q1985.28 38.7509 1985.28 49.9314 Q1985.28 61.0714 1979.73 67.4314 Q1974.18 73.7508 1964.45 73.7508 Q1954.69 73.7508 1949.14 67.4314 Q1943.63 61.0714 1943.63 49.9314 Q1943.63 38.7509 1949.14 32.4315 Q1954.69 26.1121 1964.45 26.1121 Z" fill="#000000" fill-rule="nonzero" fill-opacity="1" /><path clip-path="url(#clip330)" d="M2036.52 27.2059 L2036.52 72.576 L2029.02 72.576 L2029.02 33.1607 L2004.84 33.1607 L2004.84 72.576 L1997.35 72.576 L1997.35 27.2059 L2036.52 27.2059 Z" fill="#000000" fill-rule="nonzero" fill-opacity="1" /><path clip-path="url(#clip330)" d="M2070.75 76.7889 Q2067.59 84.8907 2064.59 87.3618 Q2061.59 89.8329 2056.57 89.8329 L2050.62 89.8329 L2050.62 83.5945 L2054.99 83.5945 Q2058.07 83.5945 2059.77 82.1361 Q2061.47 80.6778 2063.54 75.2496 L2064.88 71.8468 L2046.52 27.2059 L2054.42 27.2059 L2068.6 62.6918 L2082.78 27.2059 L2090.68 27.2059 L2070.75 76.7889 Z" fill="#000000" fill-rule="nonzero" fill-opacity="1" /><path clip-path="url(#clip330)" d="M2096.23 72.576 L2096.23 66.3781 Q2103.6 65.2439 2105.87 60.1397 Q2108.63 52.9696 2108.63 34.619 L2108.63 27.2059 L2139.29 27.2059 L2139.29 72.576 L2131.84 72.576 L2131.84 33.1607 L2116.08 33.1607 L2116.08 37.6572 Q2116.08 55.1571 2112.51 63.0159 Q2108.71 71.4012 2096.23 72.576 Z" fill="#000000" fill-rule="nonzero" fill-opacity="1" /><path clip-path="url(#clip330)" d="M2161.49 40.2903 Q2161.49 43.6525 2164.08 45.5565 Q2166.67 47.4604 2171.5 47.4604 L2181.54 47.4604 L2181.54 33.1607 L2171.5 33.1607 Q2166.67 33.1607 2164.08 35.0241 Q2161.49 36.8875 2161.49 40.2903 M2150.88 72.576 L2164.73 52.6861 Q2160.03 51.6328 2156.91 48.8782 Q2153.79 46.0831 2153.79 40.2903 Q2153.79 33.7278 2158.13 30.4871 Q2162.5 27.2059 2171.29 27.2059 L2189.04 27.2059 L2189.04 72.576 L2181.54 72.576 L2181.54 53.4152 L2172.26 53.4152 L2158.9 72.576 L2150.88 72.576 Z" fill="#000000" fill-rule="nonzero" fill-opacity="1" /><path clip-path="url(#clip330)" d="M2242.79 72.576 L2203.62 72.576 L2203.62 27.2059 L2211.11 27.2059 L2211.11 66.6212 L2235.3 66.6212 L2235.3 27.2059 L2242.79 27.2059 L2242.79 66.6212 L2248.75 66.6212 L2248.75 84.0401 L2242.79 84.0401 L2242.79 72.576 Z" fill="#000000" fill-rule="nonzero" fill-opacity="1" /><path clip-path="url(#clip330)" d="M2298.94 27.2059 L2298.94 72.576 L2291.52 72.576 L2291.52 36.1584 L2269.65 72.576 L2260.09 72.576 L2260.09 27.2059 L2267.5 27.2059 L2267.5 63.5425 L2289.34 27.2059 L2298.94 27.2059 Z" fill="#000000" fill-rule="nonzero" fill-opacity="1" /><path clip-path="url(#clip330)" d="M2321.78 40.2903 Q2321.78 43.6525 2324.38 45.5565 Q2326.97 47.4604 2331.79 47.4604 L2341.84 47.4604 L2341.84 33.1607 L2331.79 33.1607 Q2326.97 33.1607 2324.38 35.0241 Q2321.78 36.8875 2321.78 40.2903 M2311.17 72.576 L2325.02 52.6861 Q2320.33 51.6328 2317.21 48.8782 Q2314.09 46.0831 2314.09 40.2903 Q2314.09 33.7278 2318.42 30.4871 Q2322.8 27.2059 2331.59 27.2059 L2349.33 27.2059 L2349.33 72.576 L2341.84 72.576 L2341.84 53.4152 L2332.56 53.4152 L2319.19 72.576 L2311.17 72.576 Z" fill="#000000" fill-rule="nonzero" fill-opacity="1" /><path clip-path="url(#clip330)" d="M2429.46 27.2059 L2429.46 72.576 L2421.96 72.576 L2421.96 33.1607 L2397.78 33.1607 L2397.78 72.576 L2390.28 72.576 L2390.28 27.2059 L2429.46 27.2059 Z" fill="#000000" fill-rule="nonzero" fill-opacity="1" /><path clip-path="url(#clip330)" d="M2462.39 32.4315 Q2456.4 32.4315 2452.91 37.1306 Q2449.43 41.7891 2449.43 49.9314 Q2449.43 58.0738 2452.87 62.7728 Q2456.35 67.4314 2462.39 67.4314 Q2468.35 67.4314 2471.83 62.7323 Q2475.31 58.0333 2475.31 49.9314 Q2475.31 41.8701 2471.83 37.1711 Q2468.35 32.4315 2462.39 32.4315 M2462.39 26.1121 Q2472.11 26.1121 2477.66 32.4315 Q2483.21 38.7509 2483.21 49.9314 Q2483.21 61.0714 2477.66 67.4314 Q2472.11 73.7508 2462.39 73.7508 Q2452.63 73.7508 2447.08 67.4314 Q2441.57 61.0714 2441.57 49.9314 Q2441.57 38.7509 2447.08 32.4315 Q2452.63 26.1121 2462.39 26.1121 Z" fill="#000000" fill-rule="nonzero" fill-opacity="1" /><path clip-path="url(#clip330)" d="M2529.11 51.6733 L2529.11 66.6212 L2539.72 66.6212 Q2544.83 66.6212 2547.5 64.7172 Q2550.17 62.7728 2550.17 59.127 Q2550.17 55.4812 2547.5 53.5773 Q2544.83 51.6733 2539.72 51.6733 L2529.11 51.6733 M2529.11 33.1607 L2529.11 45.7185 L2538.91 45.7185 Q2543.13 45.7185 2545.8 44.0576 Q2548.47 42.3563 2548.47 39.3586 Q2548.47 36.3609 2545.8 34.7811 Q2543.13 33.1607 2538.91 33.1607 L2529.11 33.1607 M2521.66 27.2059 L2539.4 27.2059 Q2547.38 27.2059 2551.67 30.1225 Q2555.97 33.0392 2555.97 38.4269 Q2555.97 42.5993 2553.78 45.0704 Q2551.59 47.5009 2547.3 48.1085 Q2552.44 49.0808 2555.28 52.1594 Q2558.11 55.2381 2558.11 59.8562 Q2558.11 65.9325 2553.41 69.2543 Q2548.76 72.576 2540.09 72.576 L2521.66 72.576 L2521.66 27.2059 Z" fill="#000000" fill-rule="nonzero" fill-opacity="1" /><path clip-path="url(#clip330)" d="M2588.41 32.4315 Q2582.42 32.4315 2578.94 37.1306 Q2575.45 41.7891 2575.45 49.9314 Q2575.45 58.0738 2578.89 62.7728 Q2582.38 67.4314 2588.41 67.4314 Q2594.37 67.4314 2597.85 62.7323 Q2601.34 58.0333 2601.34 49.9314 Q2601.34 41.8701 2597.85 37.1711 Q2594.37 32.4315 2588.41 32.4315 M2588.41 26.1121 Q2598.14 26.1121 2603.69 32.4315 Q2609.24 38.7509 2609.24 49.9314 Q2609.24 61.0714 2603.69 67.4314 Q2598.14 73.7508 2588.41 73.7508 Q2578.65 73.7508 2573.1 67.4314 Q2567.59 61.0714 2567.59 49.9314 Q2567.59 38.7509 2573.1 32.4315 Q2578.65 26.1121 2588.41 26.1121 Z" fill="#000000" fill-rule="nonzero" fill-opacity="1" /><path clip-path="url(#clip330)" d="M2616.85 72.576 L2616.85 66.3781 Q2624.22 65.2439 2626.49 60.1397 Q2629.25 52.9696 2629.25 34.619 L2629.25 27.2059 L2659.91 27.2059 L2659.91 72.576 L2652.46 72.576 L2652.46 33.1607 L2636.7 33.1607 L2636.7 37.6572 Q2636.7 55.1571 2633.14 63.0159 Q2629.33 71.4012 2616.85 72.576 Z" fill="#000000" fill-rule="nonzero" fill-opacity="1" /><path clip-path="url(#clip330)" d="M2674.33 27.2059 L2681.83 27.2059 L2681.83 45.7185 L2706.01 45.7185 L2706.01 27.2059 L2713.51 27.2059 L2713.51 72.576 L2706.01 72.576 L2706.01 51.6733 L2681.83 51.6733 L2681.83 72.576 L2674.33 72.576 L2674.33 27.2059 Z" fill="#000000" fill-rule="nonzero" fill-opacity="1" /><path clip-path="url(#clip330)" d="M2749.48 49.7694 Q2740.44 49.7694 2736.96 51.8354 Q2733.48 53.9013 2733.48 58.8839 Q2733.48 62.8538 2736.07 65.2034 Q2738.7 67.5124 2743.2 67.5124 Q2749.4 67.5124 2753.12 63.1374 Q2756.89 58.7219 2756.89 51.4303 L2756.89 49.7694 L2749.48 49.7694 M2764.35 46.6907 L2764.35 72.576 L2756.89 72.576 L2756.89 65.6895 Q2754.34 69.8214 2750.53 71.8063 Q2746.72 73.7508 2741.21 73.7508 Q2734.25 73.7508 2730.11 69.8619 Q2726.02 65.9325 2726.02 59.3701 Q2726.02 51.7138 2731.13 47.825 Q2736.27 43.9361 2746.44 43.9361 L2756.89 43.9361 L2756.89 43.2069 Q2756.89 38.0623 2753.49 35.2672 Q2750.13 32.4315 2744.01 32.4315 Q2740.12 32.4315 2736.43 33.3632 Q2732.75 34.295 2729.35 36.1584 L2729.35 29.2718 Q2733.44 27.692 2737.29 26.9223 Q2741.13 26.1121 2744.78 26.1121 Q2754.62 26.1121 2759.48 31.2163 Q2764.35 36.3204 2764.35 46.6907 Z" fill="#000000" fill-rule="nonzero" fill-opacity="1" /><path clip-path="url(#clip330)" d="M2779.41 27.2059 L2790.31 27.2059 L2803.19 57.5877 L2816.12 27.2059 L2826.93 27.2059 L2826.93 72.576 L2819.44 72.576 L2819.44 34.3355 L2806.92 63.8666 L2799.47 63.8666 L2786.91 34.3355 L2786.91 72.576 L2779.41 72.576 L2779.41 27.2059 Z" fill="#000000" fill-rule="nonzero" fill-opacity="1" /><path clip-path="url(#clip331)" d="M389.348 1400.97 L389.348 1443.7 L601.803 1443.7 L601.803 1400.97 L389.348 1400.97 L389.348 1400.97  Z" fill="#4682b4" fill-rule="evenodd" fill-opacity="0.8"/>
<polyline clip-path="url(#clip331)" style="stroke:#000000; stroke-linecap:round; stroke-linejoin:round; stroke-width:4; stroke-opacity:0.8; fill:none" points="389.348,1400.97 389.348,1443.7 601.803,1443.7 601.803,1400.97 389.348,1400.97 "/>
<path clip-path="url(#clip331)" d="M654.916 108.352 L654.916 1443.7 L867.371 1443.7 L867.371 108.352 L654.916 108.352 L654.916 108.352  Z" fill="#4682b4" fill-rule="evenodd" fill-opacity="0.8"/>
<polyline clip-path="url(#clip331)" style="stroke:#000000; stroke-linecap:round; stroke-linejoin:round; stroke-width:4; stroke-opacity:0.8; fill:none" points="654.916,108.352 654.916,1443.7 867.371,1443.7 867.371,108.352 654.916,108.352 "/>
<path clip-path="url(#clip331)" d="M920.485 738.636 L920.485 1443.7 L1132.94 1443.7 L1132.94 738.636 L920.485 738.636 L920.485 738.636  Z" fill="#4682b4" fill-rule="evenodd" fill-opacity="0.8"/>
<polyline clip-path="url(#clip331)" style="stroke:#000000; stroke-linecap:round; stroke-linejoin:round; stroke-width:4; stroke-opacity:0.8; fill:none" points="920.485,738.636 920.485,1443.7 1132.94,1443.7 1132.94,738.636 920.485,738.636 "/>
<path clip-path="url(#clip331)" d="M1186.05 1128.56 L1186.05 1443.7 L1398.51 1443.7 L1398.51 1128.56 L1186.05 1128.56 L1186.05 1128.56  Z" fill="#4682b4" fill-rule="evenodd" fill-opacity="0.8"/>
<polyline clip-path="url(#clip331)" style="stroke:#000000; stroke-linecap:round; stroke-linejoin:round; stroke-width:4; stroke-opacity:0.8; fill:none" points="1186.05,1128.56 1186.05,1443.7 1398.51,1443.7 1398.51,1128.56 1186.05,1128.56 "/>
<path clip-path="url(#clip331)" d="M1451.62 490.262 L1451.62 1443.7 L1664.08 1443.7 L1664.08 490.262 L1451.62 490.262 L1451.62 490.262  Z" fill="#4682b4" fill-rule="evenodd" fill-opacity="0.8"/>
<polyline clip-path="url(#clip331)" style="stroke:#000000; stroke-linecap:round; stroke-linejoin:round; stroke-width:4; stroke-opacity:0.8; fill:none" points="1451.62,490.262 1451.62,1443.7 1664.08,1443.7 1664.08,490.262 1451.62,490.262 "/>
<path clip-path="url(#clip331)" d="M1717.19 806.739 L1717.19 1443.7 L1929.64 1443.7 L1929.64 806.739 L1717.19 806.739 L1717.19 806.739  Z" fill="#4682b4" fill-rule="evenodd" fill-opacity="0.8"/>
<polyline clip-path="url(#clip331)" style="stroke:#000000; stroke-linecap:round; stroke-linejoin:round; stroke-width:4; stroke-opacity:0.8; fill:none" points="1717.19,806.739 1717.19,1443.7 1929.64,1443.7 1929.64,806.739 1717.19,806.739 "/>
<path clip-path="url(#clip331)" d="M1982.76 1234.05 L1982.76 1443.7 L2195.21 1443.7 L2195.21 1234.05 L1982.76 1234.05 L1982.76 1234.05  Z" fill="#4682b4" fill-rule="evenodd" fill-opacity="0.8"/>
<polyline clip-path="url(#clip331)" style="stroke:#000000; stroke-linecap:round; stroke-linejoin:round; stroke-width:4; stroke-opacity:0.8; fill:none" points="1982.76,1234.05 1982.76,1443.7 2195.21,1443.7 2195.21,1234.05 1982.76,1234.05 "/>
<path clip-path="url(#clip331)" d="M2248.33 1362.24 L2248.33 1443.7 L2460.78 1443.7 L2460.78 1362.24 L2248.33 1362.24 L2248.33 1362.24  Z" fill="#4682b4" fill-rule="evenodd" fill-opacity="0.8"/>
<polyline clip-path="url(#clip331)" style="stroke:#000000; stroke-linecap:round; stroke-linejoin:round; stroke-width:4; stroke-opacity:0.8; fill:none" points="2248.33,1362.24 2248.33,1443.7 2460.78,1443.7 2460.78,1362.24 2248.33,1362.24 "/>
<path clip-path="url(#clip331)" d="M2513.89 1375.6 L2513.89 1443.7 L2726.35 1443.7 L2726.35 1375.6 L2513.89 1375.6 L2513.89 1375.6  Z" fill="#4682b4" fill-rule="evenodd" fill-opacity="0.8"/>
<polyline clip-path="url(#clip331)" style="stroke:#000000; stroke-linecap:round; stroke-linejoin:round; stroke-width:4; stroke-opacity:0.8; fill:none" points="2513.89,1375.6 2513.89,1443.7 2726.35,1443.7 2726.35,1375.6 2513.89,1375.6 "/>
<path clip-path="url(#clip331)" d="M2779.46 1407.65 L2779.46 1443.7 L2991.92 1443.7 L2991.92 1407.65 L2779.46 1407.65 L2779.46 1407.65  Z" fill="#4682b4" fill-rule="evenodd" fill-opacity="0.8"/>
<polyline clip-path="url(#clip331)" style="stroke:#000000; stroke-linecap:round; stroke-linejoin:round; stroke-width:4; stroke-opacity:0.8; fill:none" points="2779.46,1407.65 2779.46,1443.7 2991.92,1443.7 2991.92,1407.65 2779.46,1407.65 "/>
<circle clip-path="url(#clip331)" style="fill:#4682b4; stroke:none; fill-opacity:0" cx="495.575" cy="1400.97" r="2"/>
<circle clip-path="url(#clip331)" style="fill:#4682b4; stroke:none; fill-opacity:0" cx="761.144" cy="108.352" r="2"/>
<circle clip-path="url(#clip331)" style="fill:#4682b4; stroke:none; fill-opacity:0" cx="1026.71" cy="738.636" r="2"/>
<circle clip-path="url(#clip331)" style="fill:#4682b4; stroke:none; fill-opacity:0" cx="1292.28" cy="1128.56" r="2"/>
<circle clip-path="url(#clip331)" style="fill:#4682b4; stroke:none; fill-opacity:0" cx="1557.85" cy="490.262" r="2"/>
<circle clip-path="url(#clip331)" style="fill:#4682b4; stroke:none; fill-opacity:0" cx="1823.42" cy="806.739" r="2"/>
<circle clip-path="url(#clip331)" style="fill:#4682b4; stroke:none; fill-opacity:0" cx="2088.99" cy="1234.05" r="2"/>
<circle clip-path="url(#clip331)" style="fill:#4682b4; stroke:none; fill-opacity:0" cx="2354.55" cy="1362.24" r="2"/>
<circle clip-path="url(#clip331)" style="fill:#4682b4; stroke:none; fill-opacity:0" cx="2620.12" cy="1375.6" r="2"/>
<circle clip-path="url(#clip331)" style="fill:#4682b4; stroke:none; fill-opacity:0" cx="2885.69" cy="1407.65" r="2"/>
</svg>
