<?xml version="1.0" encoding="utf-8"?>
<svg xmlns="http://www.w3.org/2000/svg" xmlns:xlink="http://www.w3.org/1999/xlink" width="800" height="400" viewBox="0 0 3200 1600">
<defs>
  <clipPath id="clip260">
    <rect x="0" y="0" width="3200" height="1600"/>
  </clipPath>
</defs>
<path clip-path="url(#clip260)" d="M0 1600 L3200 1600 L3200 0 L0 0  Z" fill="#ffffff" fill-rule="evenodd" fill-opacity="1"/>
<defs>
  <clipPath id="clip261">
    <rect x="200" y="108" width="2954" height="1336"/>
  </clipPath>
</defs>
<path clip-path="url(#clip260)" d="M200.084 1443.7 L3152.76 1443.7 L3152.76 108.352 L200.084 108.352  Z" fill="#ffffff" fill-rule="evenodd" fill-opacity="1"/>
<polyline clip-path="url(#clip261)" style="stroke:#000000; stroke-linecap:round; stroke-linejoin:round; stroke-width:2; stroke-opacity:0.1; fill:none" points="593.154,1443.7 593.154,108.352 "/>
<polyline clip-path="url(#clip261)" style="stroke:#000000; stroke-linecap:round; stroke-linejoin:round; stroke-width:2; stroke-opacity:0.1; fill:none" points="1212.16,1443.7 1212.16,108.352 "/>
<polyline clip-path="url(#clip261)" style="stroke:#000000; stroke-linecap:round; stroke-linejoin:round; stroke-width:2; stroke-opacity:0.1; fill:none" points="1831.17,1443.7 1831.17,108.352 "/>
<polyline clip-path="url(#clip261)" style="stroke:#000000; stroke-linecap:round; stroke-linejoin:round; stroke-width:2; stroke-opacity:0.1; fill:none" points="2450.18,1443.7 2450.18,108.352 "/>
<polyline clip-path="url(#clip261)" style="stroke:#000000; stroke-linecap:round; stroke-linejoin:round; stroke-width:2; stroke-opacity:0.1; fill:none" points="3069.19,1443.7 3069.19,108.352 "/>
<polyline clip-path="url(#clip261)" style="stroke:#000000; stroke-linecap:round; stroke-linejoin:round; stroke-width:2; stroke-opacity:0.1; fill:none" points="200.084,1144.39 3152.76,1144.39 "/>
<polyline clip-path="url(#clip261)" style="stroke:#000000; stroke-linecap:round; stroke-linejoin:round; stroke-width:2; stroke-opacity:0.1; fill:none" points="200.084,811.751 3152.76,811.751 "/>
<polyline clip-path="url(#clip261)" style="stroke:#000000; stroke-linecap:round; stroke-linejoin:round; stroke-width:2; stroke-opacity:0.1; fill:none" points="200.084,479.114 3152.76,479.114 "/>
<polyline clip-path="url(#clip261)" style="stroke:#000000; stroke-linecap:round; stroke-linejoin:round; stroke-width:2; stroke-opacity:0.1; fill:none" points="200.084,146.478 3152.76,146.478 "/>
<polyline clip-path="url(#clip260)" style="stroke:#000000; stroke-linecap:round; stroke-linejoin:round; stroke-width:4; stroke-opacity:1; fill:none" points="200.084,1443.7 3152.76,1443.7 "/>
<polyline clip-path="url(#clip260)" style="stroke:#000000; stroke-linecap:round; stroke-linejoin:round; stroke-width:4; stroke-opacity:1; fill:none" points="593.154,1443.7 593.154,1424.8 "/>
<polyline clip-path="url(#clip260)" style="stroke:#000000; stroke-linecap:round; stroke-linejoin:round; stroke-width:4; stroke-opacity:1; fill:none" points="1212.16,1443.7 1212.16,1424.8 "/>
<polyline clip-path="url(#clip260)" style="stroke:#000000; stroke-linecap:round; stroke-linejoin:round; stroke-width:4; stroke-opacity:1; fill:none" points="1831.17,1443.7 1831.17,1424.8 "/>
<polyline clip-path="url(#clip260)" style="stroke:#000000; stroke-linecap:round; stroke-linejoin:round; stroke-width:4; stroke-opacity:1; fill:none" points="2450.18,1443.7 2450.18,1424.8 "/>
<polyline clip-path="url(#clip260)" style="stroke:#000000; stroke-linecap:round; stroke-linejoin:round; stroke-width:4; stroke-opacity:1; fill:none" points="3069.19,1443.7 3069.19,1424.8 "/>
<path clip-path="url(#clip260)" d="M587.807 1508.56 L604.126 1508.56 L604.126 1512.5 L582.182 1512.5 L582.182 1508.56 Q584.844 1505.81 589.427 1501.18 Q594.034 1496.53 595.214 1495.19 Q597.46 1492.66 598.339 1490.93 Q599.242 1489.17 599.242 1487.48 Q599.242 1484.72 597.298 1482.99 Q595.376 1481.25 592.275 1481.25 Q590.076 1481.25 587.622 1482.01 Q585.191 1482.78 582.414 1484.33 L582.414 1479.61 Q585.238 1478.47 587.691 1477.89 Q590.145 1477.31 592.182 1477.31 Q597.552 1477.31 600.747 1480 Q603.941 1482.69 603.941 1487.18 Q603.941 1489.31 603.131 1491.23 Q602.344 1493.12 600.238 1495.72 Q599.659 1496.39 596.557 1499.61 Q593.455 1502.8 587.807 1508.56 Z" fill="#000000" fill-rule="nonzero" fill-opacity="1" /><path clip-path="url(#clip260)" d="M1215.17 1482.01 L1203.37 1500.46 L1215.17 1500.46 L1215.17 1482.01 M1213.95 1477.94 L1219.83 1477.94 L1219.83 1500.46 L1224.76 1500.46 L1224.76 1504.35 L1219.83 1504.35 L1219.83 1512.5 L1215.17 1512.5 L1215.17 1504.35 L1199.57 1504.35 L1199.57 1499.84 L1213.95 1477.94 Z" fill="#000000" fill-rule="nonzero" fill-opacity="1" /><path clip-path="url(#clip260)" d="M1831.58 1493.36 Q1828.43 1493.36 1826.58 1495.51 Q1824.75 1497.66 1824.75 1501.41 Q1824.75 1505.14 1826.58 1507.31 Q1828.43 1509.47 1831.58 1509.47 Q1834.73 1509.47 1836.55 1507.31 Q1838.41 1505.14 1838.41 1501.41 Q1838.41 1497.66 1836.55 1495.51 Q1834.73 1493.36 1831.58 1493.36 M1840.86 1478.7 L1840.86 1482.96 Q1839.1 1482.13 1837.29 1481.69 Q1835.51 1481.25 1833.75 1481.25 Q1829.12 1481.25 1826.67 1484.37 Q1824.24 1487.5 1823.89 1493.82 Q1825.26 1491.81 1827.32 1490.74 Q1829.38 1489.65 1831.85 1489.65 Q1837.06 1489.65 1840.07 1492.82 Q1843.1 1495.97 1843.1 1501.41 Q1843.1 1506.74 1839.96 1509.95 Q1836.81 1513.17 1831.58 1513.17 Q1825.58 1513.17 1822.41 1508.59 Q1819.24 1503.98 1819.24 1495.25 Q1819.24 1487.06 1823.13 1482.2 Q1827.02 1477.31 1833.57 1477.31 Q1835.33 1477.31 1837.11 1477.66 Q1838.91 1478.01 1840.86 1478.7 Z" fill="#000000" fill-rule="nonzero" fill-opacity="1" /><path clip-path="url(#clip260)" d="M2450.18 1496.09 Q2446.85 1496.09 2444.93 1497.87 Q2443.03 1499.65 2443.03 1502.78 Q2443.03 1505.9 2444.93 1507.69 Q2446.85 1509.47 2450.18 1509.47 Q2453.51 1509.47 2455.44 1507.69 Q2457.36 1505.88 2457.36 1502.78 Q2457.36 1499.65 2455.44 1497.87 Q2453.54 1496.09 2450.18 1496.09 M2445.5 1494.1 Q2442.5 1493.36 2440.81 1491.3 Q2439.14 1489.24 2439.14 1486.27 Q2439.14 1482.13 2442.08 1479.72 Q2445.04 1477.31 2450.18 1477.31 Q2455.34 1477.31 2458.28 1479.72 Q2461.22 1482.13 2461.22 1486.27 Q2461.22 1489.24 2459.53 1491.3 Q2457.87 1493.36 2454.88 1494.1 Q2458.26 1494.88 2460.13 1497.18 Q2462.03 1499.47 2462.03 1502.78 Q2462.03 1507.8 2458.95 1510.49 Q2455.9 1513.17 2450.18 1513.17 Q2444.46 1513.17 2441.38 1510.49 Q2438.33 1507.8 2438.33 1502.78 Q2438.33 1499.47 2440.23 1497.18 Q2442.13 1494.88 2445.5 1494.1 M2443.79 1486.71 Q2443.79 1489.4 2445.46 1490.9 Q2447.15 1492.41 2450.18 1492.41 Q2453.19 1492.41 2454.88 1490.9 Q2456.59 1489.4 2456.59 1486.71 Q2456.59 1484.03 2454.88 1482.52 Q2453.19 1481.02 2450.18 1481.02 Q2447.15 1481.02 2445.46 1482.52 Q2443.79 1484.03 2443.79 1486.71 Z" fill="#000000" fill-rule="nonzero" fill-opacity="1" /><path clip-path="url(#clip260)" d="M3043.88 1508.56 L3051.52 1508.56 L3051.52 1482.2 L3043.21 1483.87 L3043.21 1479.61 L3051.47 1477.94 L3056.15 1477.94 L3056.15 1508.56 L3063.78 1508.56 L3063.78 1512.5 L3043.88 1512.5 L3043.88 1508.56 Z" fill="#000000" fill-rule="nonzero" fill-opacity="1" /><path clip-path="url(#clip260)" d="M3083.23 1481.02 Q3079.62 1481.02 3077.79 1484.58 Q3075.98 1488.12 3075.98 1495.25 Q3075.98 1502.36 3077.79 1505.93 Q3079.62 1509.47 3083.23 1509.47 Q3086.86 1509.47 3088.67 1505.93 Q3090.5 1502.36 3090.5 1495.25 Q3090.5 1488.12 3088.67 1484.58 Q3086.86 1481.02 3083.23 1481.02 M3083.23 1477.31 Q3089.04 1477.31 3092.09 1481.92 Q3095.17 1486.5 3095.17 1495.25 Q3095.17 1503.98 3092.09 1508.59 Q3089.04 1513.17 3083.23 1513.17 Q3077.42 1513.17 3074.34 1508.59 Q3071.28 1503.98 3071.28 1495.25 Q3071.28 1486.5 3074.34 1481.92 Q3077.42 1477.31 3083.23 1477.31 Z" fill="#000000" fill-rule="nonzero" fill-opacity="1" /><path clip-path="url(#clip260)" d="M1584.59 1577.87 L1584.59 1595.28 L1594.91 1595.28 Q1600.09 1595.28 1602.58 1593.15 Q1605.09 1590.98 1605.09 1586.56 Q1605.09 1582.1 1602.58 1580 Q1600.09 1577.87 1594.91 1577.87 L1584.59 1577.87 M1584.59 1558.33 L1584.59 1572.65 L1594.11 1572.65 Q1598.82 1572.65 1601.11 1570.9 Q1603.44 1569.12 1603.44 1565.49 Q1603.44 1561.89 1601.11 1560.11 Q1598.82 1558.33 1594.11 1558.33 L1584.59 1558.33 M1578.17 1553.04 L1594.59 1553.04 Q1601.94 1553.04 1605.92 1556.1 Q1609.9 1559.15 1609.9 1564.79 Q1609.9 1569.15 1607.86 1571.73 Q1605.82 1574.31 1601.88 1574.94 Q1606.62 1575.96 1609.23 1579.21 Q1611.87 1582.42 1611.87 1587.26 Q1611.87 1593.63 1607.54 1597.09 Q1603.21 1600.56 1595.23 1600.56 L1578.17 1600.56 L1578.17 1553.04 Z" fill="#000000" fill-rule="nonzero" fill-opacity="1" /><path clip-path="url(#clip260)" d="M1636.44 1569.02 Q1631.73 1569.02 1629 1572.71 Q1626.26 1576.37 1626.26 1582.77 Q1626.26 1589.17 1628.96 1592.86 Q1631.7 1596.52 1636.44 1596.52 Q1641.12 1596.52 1643.86 1592.83 Q1646.6 1589.14 1646.6 1582.77 Q1646.6 1576.44 1643.86 1572.75 Q1641.12 1569.02 1636.44 1569.02 M1636.44 1564.06 Q1644.08 1564.06 1648.44 1569.02 Q1652.8 1573.99 1652.8 1582.77 Q1652.8 1591.52 1648.44 1596.52 Q1644.08 1601.49 1636.44 1601.49 Q1628.77 1601.49 1624.41 1596.52 Q1620.08 1591.52 1620.08 1582.77 Q1620.08 1573.99 1624.41 1569.02 Q1628.77 1564.06 1636.44 1564.06 Z" fill="#000000" fill-rule="nonzero" fill-opacity="1" /><path clip-path="url(#clip260)" d="M1658.79 1600.56 L1658.79 1595.69 Q1664.58 1594.8 1666.36 1590.79 Q1668.53 1585.16 1668.53 1570.74 L1668.53 1564.92 L1692.62 1564.92 L1692.62 1600.56 L1686.76 1600.56 L1686.76 1569.59 L1674.38 1569.59 L1674.38 1573.13 Q1674.38 1586.88 1671.58 1593.05 Q1668.59 1599.64 1658.79 1600.56 Z" fill="#000000" fill-rule="nonzero" fill-opacity="1" /><path clip-path="url(#clip260)" d="M1703.95 1564.92 L1709.84 1564.92 L1709.84 1579.46 L1728.84 1579.46 L1728.84 1564.92 L1734.73 1564.92 L1734.73 1600.56 L1728.84 1600.56 L1728.84 1584.14 L1709.84 1584.14 L1709.84 1600.56 L1703.95 1600.56 L1703.95 1564.92 Z" fill="#000000" fill-rule="nonzero" fill-opacity="1" /><path clip-path="url(#clip260)" d="M1762.99 1582.64 Q1755.9 1582.64 1753.16 1584.27 Q1750.42 1585.89 1750.42 1589.81 Q1750.42 1592.92 1752.46 1594.77 Q1754.53 1596.59 1758.06 1596.59 Q1762.93 1596.59 1765.86 1593.15 Q1768.82 1589.68 1768.82 1583.95 L1768.82 1582.64 L1762.99 1582.64 M1774.67 1580.23 L1774.67 1600.56 L1768.82 1600.56 L1768.82 1595.15 Q1766.81 1598.4 1763.82 1599.96 Q1760.83 1601.49 1756.5 1601.49 Q1751.03 1601.49 1747.78 1598.43 Q1744.56 1595.34 1744.56 1590.19 Q1744.56 1584.17 1748.58 1581.12 Q1752.62 1578.06 1760.61 1578.06 L1768.82 1578.06 L1768.82 1577.49 Q1768.82 1573.45 1766.14 1571.25 Q1763.5 1569.02 1758.7 1569.02 Q1755.64 1569.02 1752.74 1569.75 Q1749.85 1570.49 1747.17 1571.95 L1747.17 1566.54 Q1750.39 1565.3 1753.41 1564.69 Q1756.44 1564.06 1759.3 1564.06 Q1767.04 1564.06 1770.85 1568.07 Q1774.67 1572.08 1774.67 1580.23 Z" fill="#000000" fill-rule="nonzero" fill-opacity="1" /><polyline clip-path="url(#clip260)" style="stroke:#000000; stroke-linecap:round; stroke-linejoin:round; stroke-width:4; stroke-opacity:1; fill:none" points="200.084,1443.7 200.084,108.352 "/>
<polyline clip-path="url(#clip260)" style="stroke:#000000; stroke-linecap:round; stroke-linejoin:round; stroke-width:4; stroke-opacity:1; fill:none" points="200.084,1144.39 218.981,1144.39 "/>
<polyline clip-path="url(#clip260)" style="stroke:#000000; stroke-linecap:round; stroke-linejoin:round; stroke-width:4; stroke-opacity:1; fill:none" points="200.084,811.751 218.981,811.751 "/>
<polyline clip-path="url(#clip260)" style="stroke:#000000; stroke-linecap:round; stroke-linejoin:round; stroke-width:4; stroke-opacity:1; fill:none" points="200.084,479.114 218.981,479.114 "/>
<polyline clip-path="url(#clip260)" style="stroke:#000000; stroke-linecap:round; stroke-linejoin:round; stroke-width:4; stroke-opacity:1; fill:none" points="200.084,146.478 218.981,146.478 "/>
<path clip-path="url(#clip260)" d="M131.181 1127.11 L149.537 1127.11 L149.537 1131.04 L135.463 1131.04 L135.463 1139.52 Q136.482 1139.17 137.5 1139.01 Q138.519 1138.82 139.537 1138.82 Q145.324 1138.82 148.704 1141.99 Q152.084 1145.16 152.084 1150.58 Q152.084 1156.16 148.611 1159.26 Q145.139 1162.34 138.82 1162.34 Q136.644 1162.34 134.375 1161.97 Q132.13 1161.6 129.723 1160.86 L129.723 1156.16 Q131.806 1157.29 134.028 1157.85 Q136.25 1158.4 138.727 1158.4 Q142.732 1158.4 145.07 1156.3 Q147.408 1154.19 147.408 1150.58 Q147.408 1146.97 145.07 1144.86 Q142.732 1142.76 138.727 1142.76 Q136.852 1142.76 134.977 1143.17 Q133.125 1143.59 131.181 1144.47 L131.181 1127.11 Z" fill="#000000" fill-rule="nonzero" fill-opacity="1" /><path clip-path="url(#clip260)" d="M100.788 825.096 L108.426 825.096 L108.426 798.73 L100.116 800.397 L100.116 796.138 L108.38 794.471 L113.056 794.471 L113.056 825.096 L120.695 825.096 L120.695 829.031 L100.788 829.031 L100.788 825.096 Z" fill="#000000" fill-rule="nonzero" fill-opacity="1" /><path clip-path="url(#clip260)" d="M140.139 797.55 Q136.528 797.55 134.699 801.115 Q132.894 804.656 132.894 811.786 Q132.894 818.892 134.699 822.457 Q136.528 825.999 140.139 825.999 Q143.773 825.999 145.579 822.457 Q147.408 818.892 147.408 811.786 Q147.408 804.656 145.579 801.115 Q143.773 797.55 140.139 797.55 M140.139 793.846 Q145.949 793.846 149.005 798.453 Q152.084 803.036 152.084 811.786 Q152.084 820.513 149.005 825.119 Q145.949 829.702 140.139 829.702 Q134.329 829.702 131.25 825.119 Q128.195 820.513 128.195 811.786 Q128.195 803.036 131.25 798.453 Q134.329 793.846 140.139 793.846 Z" fill="#000000" fill-rule="nonzero" fill-opacity="1" /><path clip-path="url(#clip260)" d="M101.783 492.459 L109.422 492.459 L109.422 466.094 L101.112 467.76 L101.112 463.501 L109.375 461.834 L114.051 461.834 L114.051 492.459 L121.69 492.459 L121.69 496.394 L101.783 496.394 L101.783 492.459 Z" fill="#000000" fill-rule="nonzero" fill-opacity="1" /><path clip-path="url(#clip260)" d="M131.181 461.834 L149.537 461.834 L149.537 465.77 L135.463 465.77 L135.463 474.242 Q136.482 473.895 137.5 473.732 Q138.519 473.547 139.537 473.547 Q145.324 473.547 148.704 476.719 Q152.084 479.89 152.084 485.306 Q152.084 490.885 148.611 493.987 Q145.139 497.066 138.82 497.066 Q136.644 497.066 134.375 496.695 Q132.13 496.325 129.723 495.584 L129.723 490.885 Q131.806 492.019 134.028 492.575 Q136.25 493.131 138.727 493.131 Q142.732 493.131 145.07 491.024 Q147.408 488.918 147.408 485.306 Q147.408 481.695 145.07 479.589 Q142.732 477.482 138.727 477.482 Q136.852 477.482 134.977 477.899 Q133.125 478.316 131.181 479.195 L131.181 461.834 Z" fill="#000000" fill-rule="nonzero" fill-opacity="1" /><path clip-path="url(#clip260)" d="M104.005 159.822 L120.324 159.822 L120.324 163.758 L98.3802 163.758 L98.3802 159.822 Q101.042 157.068 105.625 152.438 Q110.232 147.785 111.412 146.443 Q113.658 143.92 114.537 142.184 Q115.44 140.424 115.44 138.735 Q115.44 135.98 113.496 134.244 Q111.575 132.508 108.473 132.508 Q106.274 132.508 103.82 133.272 Q101.389 134.036 98.6116 135.586 L98.6116 130.864 Q101.436 129.73 103.889 129.151 Q106.343 128.573 108.38 128.573 Q113.75 128.573 116.945 131.258 Q120.139 133.943 120.139 138.434 Q120.139 140.563 119.329 142.485 Q118.542 144.383 116.436 146.975 Q115.857 147.647 112.755 150.864 Q109.653 154.059 104.005 159.822 Z" fill="#000000" fill-rule="nonzero" fill-opacity="1" /><path clip-path="url(#clip260)" d="M140.139 132.276 Q136.528 132.276 134.699 135.841 Q132.894 139.383 132.894 146.512 Q132.894 153.619 134.699 157.184 Q136.528 160.725 140.139 160.725 Q143.773 160.725 145.579 157.184 Q147.408 153.619 147.408 146.512 Q147.408 139.383 145.579 135.841 Q143.773 132.276 140.139 132.276 M140.139 128.573 Q145.949 128.573 149.005 133.179 Q152.084 137.762 152.084 146.512 Q152.084 155.239 149.005 159.846 Q145.949 164.429 140.139 164.429 Q134.329 164.429 131.25 159.846 Q128.195 155.239 128.195 146.512 Q128.195 137.762 131.25 133.179 Q134.329 128.573 140.139 128.573 Z" fill="#000000" fill-rule="nonzero" fill-opacity="1" /><path clip-path="url(#clip260)" d="M13.8442 791.511 Q14.5444 789.442 16.8361 787.5 Q19.1277 785.527 23.1381 783.553 L36.1242 777.029 L36.1242 783.935 L23.9338 790.015 Q19.1595 792.37 17.6 794.598 Q16.0404 796.794 16.0404 800.614 L16.0404 807.616 L36.1242 807.616 L36.1242 814.045 L-11.3958 814.045 L-11.3958 799.531 Q-11.3958 791.383 -7.99019 787.373 Q-4.58454 783.362 2.29043 783.362 Q6.77825 783.362 9.7383 785.463 Q12.6984 787.532 13.8442 791.511 M-6.11231 807.616 L10.7568 807.616 L10.7568 799.531 Q10.7568 794.884 8.6243 792.529 Q6.45996 790.142 2.29043 790.142 Q-1.87911 790.142 -3.97979 792.529 Q-6.11231 794.884 -6.11231 799.531 L-6.11231 807.616 Z" fill="#000000" fill-rule="nonzero" fill-opacity="1" /><path clip-path="url(#clip260)" d="M-7.16265 754.43 Q-7.16265 759.396 -2.26105 761.91 Q2.60871 764.393 12.4119 764.393 Q22.1833 764.393 27.0849 761.91 Q31.9546 759.396 31.9546 754.43 Q31.9546 749.433 27.0849 746.951 Q22.1833 744.436 12.4119 744.436 Q2.60871 744.436 -2.26105 746.951 Q-7.16265 749.433 -7.16265 754.43 M-12.2552 754.43 Q-12.2552 746.441 -5.92133 742.24 Q0.380715 738.007 12.4119 738.007 Q24.4113 738.007 30.7451 742.24 Q37.0472 746.441 37.0472 754.43 Q37.0472 762.419 30.7451 766.652 Q24.4113 770.854 12.4119 770.854 Q0.380715 770.854 -5.92133 766.652 Q-12.2552 762.419 -12.2552 754.43 Z" fill="#000000" fill-rule="nonzero" fill-opacity="1" /><path clip-path="url(#clip260)" d="M912.095 44.2197 Q914.728 45.1109 917.199 48.0275 Q919.711 50.9442 922.222 56.0483 L930.527 72.576 L921.736 72.576 L913.999 57.061 Q911.001 50.9847 908.166 48.9997 Q905.371 47.0148 900.51 47.0148 L891.598 47.0148 L891.598 72.576 L883.415 72.576 L883.415 12.096 L901.887 12.096 Q912.257 12.096 917.361 16.4305 Q922.465 20.7649 922.465 29.5149 Q922.465 35.2267 919.792 38.994 Q917.159 42.7613 912.095 44.2197 M891.598 18.8205 L891.598 40.2903 L901.887 40.2903 Q907.801 40.2903 910.799 37.5762 Q913.837 34.8216 913.837 29.5149 Q913.837 24.2082 910.799 21.5346 Q907.801 18.8205 901.887 18.8205 L891.598 18.8205 Z" fill="#000000" fill-rule="nonzero" fill-opacity="1" /><path clip-path="url(#clip260)" d="M959.288 17.4837 Q952.969 17.4837 949.769 23.7221 Q946.609 29.92 946.609 42.3968 Q946.609 54.833 949.769 61.0714 Q952.969 67.2693 959.288 67.2693 Q965.648 67.2693 968.808 61.0714 Q972.008 54.833 972.008 42.3968 Q972.008 29.92 968.808 23.7221 Q965.648 17.4837 959.288 17.4837 M959.288 11.0023 Q969.456 11.0023 974.803 19.0636 Q980.191 27.0843 980.191 42.3968 Q980.191 57.6687 974.803 65.73 Q969.456 73.7508 959.288 73.7508 Q949.12 73.7508 943.733 65.73 Q938.385 57.6687 938.385 42.3968 Q938.385 27.0843 943.733 19.0636 Q949.12 11.0023 959.288 11.0023 Z" fill="#000000" fill-rule="nonzero" fill-opacity="1" /><path clip-path="url(#clip260)" d="M995.422 62.2867 L1003.97 62.2867 L1003.97 72.576 L995.422 72.576 L995.422 62.2867 M995.422 29.6769 L1003.97 29.6769 L1003.97 39.9662 L995.422 39.9662 L995.422 29.6769 Z" fill="#000000" fill-rule="nonzero" fill-opacity="1" /><path clip-path="url(#clip260)" d="M1057.97 66.6212 L1079.6 66.6212 L1079.6 33.1607 L1063.92 33.1607 L1063.92 38.832 Q1063.92 55.5217 1059.14 64.4337 L1057.97 66.6212 M1047.15 66.6212 Q1050.84 65.0008 1052.46 61.5575 Q1056.43 53.0101 1056.43 35.7938 L1056.43 27.2059 L1087.09 27.2059 L1087.09 66.6212 L1093.05 66.6212 L1093.05 84.0401 L1087.09 84.0401 L1087.09 72.576 L1050.31 72.576 L1050.31 84.0401 L1044.36 84.0401 L1044.36 66.6212 L1047.15 66.6212 Z" fill="#000000" fill-rule="nonzero" fill-opacity="1" /><path clip-path="url(#clip260)" d="M1125.82 49.7694 Q1116.79 49.7694 1113.3 51.8354 Q1109.82 53.9013 1109.82 58.8839 Q1109.82 62.8538 1112.41 65.2034 Q1115.05 67.5124 1119.54 67.5124 Q1125.74 67.5124 1129.47 63.1374 Q1133.23 58.7219 1133.23 51.4303 L1133.23 49.7694 L1125.82 49.7694 M1140.69 46.6907 L1140.69 72.576 L1133.23 72.576 L1133.23 65.6895 Q1130.68 69.8214 1126.87 71.8063 Q1123.07 73.7508 1117.56 73.7508 Q1110.59 73.7508 1106.46 69.8619 Q1102.37 65.9325 1102.37 59.3701 Q1102.37 51.7138 1107.47 47.825 Q1112.61 43.9361 1122.78 43.9361 L1133.23 43.9361 L1133.23 43.2069 Q1133.23 38.0623 1129.83 35.2672 Q1126.47 32.4315 1120.35 32.4315 Q1116.46 32.4315 1112.78 33.3632 Q1109.09 34.295 1105.69 36.1584 L1105.69 29.2718 Q1109.78 27.692 1113.63 26.9223 Q1117.48 26.1121 1121.12 26.1121 Q1130.97 26.1121 1135.83 31.2163 Q1140.69 36.3204 1140.69 46.6907 Z" fill="#000000" fill-rule="nonzero" fill-opacity="1" /><path clip-path="url(#clip260)" d="M1155.76 27.2059 L1163.25 27.2059 L1163.25 45.7185 L1187.44 45.7185 L1187.44 27.2059 L1194.93 27.2059 L1194.93 72.576 L1187.44 72.576 L1187.44 51.6733 L1163.25 51.6733 L1163.25 72.576 L1155.76 72.576 L1155.76 27.2059 Z" fill="#000000" fill-rule="nonzero" fill-opacity="1" /><path clip-path="url(#clip260)" d="M1210 27.2059 L1217.49 27.2059 L1217.49 45.7185 L1241.68 45.7185 L1241.68 27.2059 L1249.17 27.2059 L1249.17 72.576 L1241.68 72.576 L1241.68 51.6733 L1217.49 51.6733 L1217.49 72.576 L1210 72.576 L1210 27.2059 Z" fill="#000000" fill-rule="nonzero" fill-opacity="1" /><path clip-path="url(#clip260)" d="M1307.38 27.2059 L1314.84 27.2059 L1314.84 72.576 L1307.38 72.576 L1307.38 27.2059 M1311.11 26.1121 L1311.11 26.1121 M1292.76 59.127 Q1292.76 55.4812 1290.09 53.5773 Q1287.45 51.6733 1282.35 51.6733 L1271.73 51.6733 L1271.73 66.6212 L1282.35 66.6212 Q1287.45 66.6212 1290.09 64.7172 Q1292.76 62.7728 1292.76 59.127 M1264.24 27.2059 L1271.73 27.2059 L1271.73 45.7185 L1282.67 45.7185 Q1291.34 45.7185 1296 49.0402 Q1300.7 52.3215 1300.7 59.127 Q1300.7 65.9325 1296 69.2543 Q1291.34 72.576 1282.67 72.576 L1264.24 72.576 L1264.24 27.2059 Z" fill="#000000" fill-rule="nonzero" fill-opacity="1" /><path clip-path="url(#clip260)" d="M1368.83 48.0275 L1368.83 51.6733 L1334.56 51.6733 Q1335.05 59.3701 1339.18 63.421 Q1343.35 67.4314 1350.77 67.4314 Q1355.06 67.4314 1359.07 66.3781 Q1363.12 65.3249 1367.09 63.2184 L1367.09 70.267 Q1363.08 71.9684 1358.87 72.8596 Q1354.66 73.7508 1350.32 73.7508 Q1339.47 73.7508 1333.11 67.4314 Q1326.79 61.1119 1326.79 50.3365 Q1326.79 39.1965 1332.78 32.6746 Q1338.82 26.1121 1349.03 26.1121 Q1358.18 26.1121 1363.49 32.0264 Q1368.83 37.9003 1368.83 48.0275 M1361.38 45.84 Q1361.3 39.7232 1357.94 36.0774 Q1354.62 32.4315 1349.11 32.4315 Q1342.87 32.4315 1339.1 35.9558 Q1335.37 39.4801 1334.81 45.8805 L1361.38 45.84 Z" fill="#000000" fill-rule="nonzero" fill-opacity="1" /><path clip-path="url(#clip260)" d="M1441.31 66.6212 L1460.51 66.6212 L1460.51 27.2059 L1468 27.2059 L1468 72.576 L1407.16 72.576 L1407.16 27.2059 L1414.65 27.2059 L1414.65 66.6212 L1433.81 66.6212 L1433.81 27.2059 L1441.31 27.2059 L1441.31 66.6212 Z" fill="#000000" fill-rule="nonzero" fill-opacity="1" /><path clip-path="url(#clip260)" d="M1477.97 27.2059 L1521.43 27.2059 L1521.43 33.1607 L1503.37 33.1607 L1503.37 72.576 L1496.03 72.576 L1496.03 33.1607 L1477.97 33.1607 L1477.97 27.2059 Z" fill="#000000" fill-rule="nonzero" fill-opacity="1" /><path clip-path="url(#clip260)" d="M1552.3 49.7694 Q1543.27 49.7694 1539.78 51.8354 Q1536.3 53.9013 1536.3 58.8839 Q1536.3 62.8538 1538.89 65.2034 Q1541.52 67.5124 1546.02 67.5124 Q1552.22 67.5124 1555.95 63.1374 Q1559.71 58.7219 1559.71 51.4303 L1559.71 49.7694 L1552.3 49.7694 M1567.17 46.6907 L1567.17 72.576 L1559.71 72.576 L1559.71 65.6895 Q1557.16 69.8214 1553.35 71.8063 Q1549.55 73.7508 1544.04 73.7508 Q1537.07 73.7508 1532.94 69.8619 Q1528.85 65.9325 1528.85 59.3701 Q1528.85 51.7138 1533.95 47.825 Q1539.09 43.9361 1549.26 43.9361 L1559.71 43.9361 L1559.71 43.2069 Q1559.71 38.0623 1556.31 35.2672 Q1552.95 32.4315 1546.83 32.4315 Q1542.94 32.4315 1539.26 33.3632 Q1535.57 34.295 1532.17 36.1584 L1532.17 29.2718 Q1536.26 27.692 1540.11 26.9223 Q1543.96 26.1121 1547.6 26.1121 Q1557.44 26.1121 1562.31 31.2163 Q1567.17 36.3204 1567.17 46.6907 Z" fill="#000000" fill-rule="nonzero" fill-opacity="1" /><path clip-path="url(#clip260)" d="M1582.24 27.2059 L1593.13 27.2059 L1606.02 57.5877 L1618.94 27.2059 L1629.75 27.2059 L1629.75 72.576 L1622.26 72.576 L1622.26 34.3355 L1609.74 63.8666 L1602.29 63.8666 L1589.73 34.3355 L1589.73 72.576 L1582.24 72.576 L1582.24 27.2059 Z" fill="#000000" fill-rule="nonzero" fill-opacity="1" /><path clip-path="url(#clip260)" d="M1644.82 27.2059 L1655.72 27.2059 L1668.6 57.5877 L1681.52 27.2059 L1692.34 27.2059 L1692.34 72.576 L1684.85 72.576 L1684.85 34.3355 L1672.33 63.8666 L1664.87 63.8666 L1652.32 34.3355 L1652.32 72.576 L1644.82 72.576 L1644.82 27.2059 Z" fill="#000000" fill-rule="nonzero" fill-opacity="1" /><path clip-path="url(#clip260)" d="M1728.31 49.7694 Q1719.28 49.7694 1715.79 51.8354 Q1712.31 53.9013 1712.31 58.8839 Q1712.31 62.8538 1714.9 65.2034 Q1717.54 67.5124 1722.03 67.5124 Q1728.23 67.5124 1731.96 63.1374 Q1735.72 58.7219 1735.72 51.4303 L1735.72 49.7694 L1728.31 49.7694 M1743.18 46.6907 L1743.18 72.576 L1735.72 72.576 L1735.72 65.6895 Q1733.17 69.8214 1729.37 71.8063 Q1725.56 73.7508 1720.05 73.7508 Q1713.08 73.7508 1708.95 69.8619 Q1704.86 65.9325 1704.86 59.3701 Q1704.86 51.7138 1709.96 47.825 Q1715.11 43.9361 1725.27 43.9361 L1735.72 43.9361 L1735.72 43.2069 Q1735.72 38.0623 1732.32 35.2672 Q1728.96 32.4315 1722.84 32.4315 Q1718.95 32.4315 1715.27 33.3632 Q1711.58 34.295 1708.18 36.1584 L1708.18 29.2718 Q1712.27 27.692 1716.12 26.9223 Q1719.97 26.1121 1723.61 26.1121 Q1733.46 26.1121 1738.32 31.2163 Q1743.18 36.3204 1743.18 46.6907 Z" fill="#000000" fill-rule="nonzero" fill-opacity="1" /><path clip-path="url(#clip260)" d="M1779.56 27.2059 L1787.46 27.2059 L1801.63 65.2844 L1815.81 27.2059 L1823.71 27.2059 L1806.7 72.576 L1796.57 72.576 L1779.56 27.2059 Z" fill="#000000" fill-rule="nonzero" fill-opacity="1" /><path clip-path="url(#clip260)" d="M1862.92 28.5427 L1862.92 35.5912 Q1859.76 33.9709 1856.36 33.1607 Q1852.96 32.3505 1849.31 32.3505 Q1843.76 32.3505 1840.97 34.0519 Q1838.21 35.7533 1838.21 39.156 Q1838.21 41.7486 1840.2 43.2475 Q1842.18 44.7058 1848.18 46.0426 L1850.73 46.6097 Q1858.67 48.3111 1861.99 51.4303 Q1865.35 54.509 1865.35 60.0587 Q1865.35 66.3781 1860.33 70.0644 Q1855.35 73.7508 1846.6 73.7508 Q1842.95 73.7508 1838.98 73.0216 Q1835.05 72.3329 1830.68 70.9151 L1830.68 63.2184 Q1834.81 65.3654 1838.82 66.4591 Q1842.83 67.5124 1846.76 67.5124 Q1852.03 67.5124 1854.86 65.73 Q1857.7 63.9071 1857.7 60.6258 Q1857.7 57.5877 1855.63 55.9673 Q1853.61 54.3469 1846.68 52.8481 L1844.09 52.2405 Q1837.16 50.7821 1834.08 47.7845 Q1831 44.7463 1831 39.4801 Q1831 33.0797 1835.54 29.5959 Q1840.08 26.1121 1848.42 26.1121 Q1852.55 26.1121 1856.2 26.7198 Q1859.84 27.3274 1862.92 28.5427 Z" fill="#000000" fill-rule="nonzero" fill-opacity="1" /><path clip-path="url(#clip260)" d="M1942.48 27.2059 L1942.48 72.576 L1934.99 72.576 L1934.99 33.1607 L1910.81 33.1607 L1910.81 72.576 L1903.31 72.576 L1903.31 27.2059 L1942.48 27.2059 Z" fill="#000000" fill-rule="nonzero" fill-opacity="1" /><path clip-path="url(#clip260)" d="M1975.42 32.4315 Q1969.42 32.4315 1965.94 37.1306 Q1962.45 41.7891 1962.45 49.9314 Q1962.45 58.0738 1965.9 62.7728 Q1969.38 67.4314 1975.42 67.4314 Q1981.37 67.4314 1984.86 62.7323 Q1988.34 58.0333 1988.34 49.9314 Q1988.34 41.8701 1984.86 37.1711 Q1981.37 32.4315 1975.42 32.4315 M1975.42 26.1121 Q1985.14 26.1121 1990.69 32.4315 Q1996.24 38.7509 1996.24 49.9314 Q1996.24 61.0714 1990.69 67.4314 Q1985.14 73.7508 1975.42 73.7508 Q1965.65 73.7508 1960.1 67.4314 Q1954.6 61.0714 1954.6 49.9314 Q1954.6 38.7509 1960.1 32.4315 Q1965.65 26.1121 1975.42 26.1121 Z" fill="#000000" fill-rule="nonzero" fill-opacity="1" /><path clip-path="url(#clip260)" d="M2018.72 66.6212 L2040.35 66.6212 L2040.35 33.1607 L2024.68 33.1607 L2024.68 38.832 Q2024.68 55.5217 2019.9 64.4337 L2018.72 66.6212 M2007.91 66.6212 Q2011.59 65.0008 2013.21 61.5575 Q2017.18 53.0101 2017.18 35.7938 L2017.18 27.2059 L2047.85 27.2059 L2047.85 66.6212 L2053.8 66.6212 L2053.8 84.0401 L2047.85 84.0401 L2047.85 72.576 L2011.06 72.576 L2011.06 84.0401 L2005.11 84.0401 L2005.11 66.6212 L2007.91 66.6212 Z" fill="#000000" fill-rule="nonzero" fill-opacity="1" /><path clip-path="url(#clip260)" d="M2083.54 32.4315 Q2077.54 32.4315 2074.06 37.1306 Q2070.57 41.7891 2070.57 49.9314 Q2070.57 58.0738 2074.02 62.7728 Q2077.5 67.4314 2083.54 67.4314 Q2089.49 67.4314 2092.97 62.7323 Q2096.46 58.0333 2096.46 49.9314 Q2096.46 41.8701 2092.97 37.1711 Q2089.49 32.4315 2083.54 32.4315 M2083.54 26.1121 Q2093.26 26.1121 2098.81 32.4315 Q2104.36 38.7509 2104.36 49.9314 Q2104.36 61.0714 2098.81 67.4314 Q2093.26 73.7508 2083.54 73.7508 Q2073.77 73.7508 2068.22 67.4314 Q2062.71 61.0714 2062.71 49.9314 Q2062.71 38.7509 2068.22 32.4315 Q2073.77 26.1121 2083.54 26.1121 Z" fill="#000000" fill-rule="nonzero" fill-opacity="1" /><path clip-path="url(#clip260)" d="M2134.7 26.1121 Q2144.42 26.1121 2149.97 32.4315 Q2155.52 38.7509 2155.52 49.9314 Q2155.52 61.0714 2149.97 67.4314 Q2144.42 73.7508 2134.7 73.7508 Q2124.94 73.7508 2119.55 67.5934 Q2114.16 61.436 2113.88 49.9314 L2113.63 40.6549 Q2113.43 35.8343 2113.43 34.1734 Q2113.43 27.692 2115.78 22.9119 Q2119.47 15.4177 2125.83 12.177 Q2132.23 8.93629 2142.92 8.85528 Q2147.86 8.81477 2150.05 8.12611 L2152.12 14.0404 Q2150.13 14.8506 2148.31 14.8911 L2138.18 15.5798 Q2133.08 15.9444 2130 17.7268 Q2121.94 22.4663 2121.17 28.6642 L2120.88 30.9327 Q2126.15 26.1121 2134.7 26.1121 M2134.7 32.4315 Q2128.7 32.4315 2125.22 37.1306 Q2121.74 41.7891 2121.74 49.9314 Q2121.74 58.0738 2125.18 62.7728 Q2128.66 67.4314 2134.7 67.4314 Q2140.65 67.4314 2144.14 62.7323 Q2147.62 58.0333 2147.62 49.9314 Q2147.62 41.8701 2144.14 37.1711 Q2140.65 32.4315 2134.7 32.4315 Z" fill="#000000" fill-rule="nonzero" fill-opacity="1" /><path clip-path="url(#clip260)" d="M2175.09 65.7705 L2175.09 89.8329 L2167.59 89.8329 L2167.59 27.2059 L2175.09 27.2059 L2175.09 34.0924 Q2177.44 30.0415 2181 28.0971 Q2184.61 26.1121 2189.59 26.1121 Q2197.85 26.1121 2203 32.6746 Q2208.18 39.2371 2208.18 49.9314 Q2208.18 60.6258 2203 67.1883 Q2197.85 73.7508 2189.59 73.7508 Q2184.61 73.7508 2181 71.8063 Q2177.44 69.8214 2175.09 65.7705 M2200.44 49.9314 Q2200.44 41.7081 2197.04 37.0496 Q2193.68 32.3505 2187.77 32.3505 Q2181.85 32.3505 2178.45 37.0496 Q2175.09 41.7081 2175.09 49.9314 Q2175.09 58.1548 2178.45 62.8538 Q2181.85 67.5124 2187.77 67.5124 Q2193.68 67.5124 2197.04 62.8538 Q2200.44 58.1548 2200.44 49.9314 Z" fill="#000000" fill-rule="nonzero" fill-opacity="1" /><path clip-path="url(#clip260)" d="M2241.16 49.7694 Q2232.12 49.7694 2228.64 51.8354 Q2225.16 53.9013 2225.16 58.8839 Q2225.16 62.8538 2227.75 65.2034 Q2230.38 67.5124 2234.88 67.5124 Q2241.08 67.5124 2244.8 63.1374 Q2248.57 58.7219 2248.57 51.4303 L2248.57 49.7694 L2241.16 49.7694 M2256.02 46.6907 L2256.02 72.576 L2248.57 72.576 L2248.57 65.6895 Q2246.02 69.8214 2242.21 71.8063 Q2238.4 73.7508 2232.89 73.7508 Q2225.92 73.7508 2221.79 69.8619 Q2217.7 65.9325 2217.7 59.3701 Q2217.7 51.7138 2222.81 47.825 Q2227.95 43.9361 2238.12 43.9361 L2248.57 43.9361 L2248.57 43.2069 Q2248.57 38.0623 2245.17 35.2672 Q2241.8 32.4315 2235.69 32.4315 Q2231.8 32.4315 2228.11 33.3632 Q2224.43 34.295 2221.02 36.1584 L2221.02 29.2718 Q2225.11 27.692 2228.96 26.9223 Q2232.81 26.1121 2236.46 26.1121 Q2246.3 26.1121 2251.16 31.2163 Q2256.02 36.3204 2256.02 46.6907 Z" fill="#000000" fill-rule="nonzero" fill-opacity="1" /><path clip-path="url(#clip260)" d="M2271.09 27.2059 L2278.59 27.2059 L2278.59 45.7185 L2302.77 45.7185 L2302.77 27.2059 L2310.26 27.2059 L2310.26 72.576 L2302.77 72.576 L2302.77 51.6733 L2278.59 51.6733 L2278.59 72.576 L2271.09 72.576 L2271.09 27.2059 Z" fill="#000000" fill-rule="nonzero" fill-opacity="1" /><path clip-path="url(#clip260)" d="M2325.33 27.2059 L2332.83 27.2059 L2332.83 45.7185 L2357.01 45.7185 L2357.01 27.2059 L2364.51 27.2059 L2364.51 72.576 L2357.01 72.576 L2357.01 51.6733 L2332.83 51.6733 L2332.83 72.576 L2325.33 72.576 L2325.33 27.2059 Z" fill="#000000" fill-rule="nonzero" fill-opacity="1" /><path clip-path="url(#clip260)" d="M2397.44 32.4315 Q2391.44 32.4315 2387.96 37.1306 Q2384.48 41.7891 2384.48 49.9314 Q2384.48 58.0738 2387.92 62.7728 Q2391.4 67.4314 2397.44 67.4314 Q2403.4 67.4314 2406.88 62.7323 Q2410.36 58.0333 2410.36 49.9314 Q2410.36 41.8701 2406.88 37.1711 Q2403.4 32.4315 2397.44 32.4315 M2397.44 26.1121 Q2407.16 26.1121 2412.71 32.4315 Q2418.26 38.7509 2418.26 49.9314 Q2418.26 61.0714 2412.71 67.4314 Q2407.16 73.7508 2397.44 73.7508 Q2387.68 73.7508 2382.13 67.4314 Q2376.62 61.0714 2376.62 49.9314 Q2376.62 38.7509 2382.13 32.4315 Q2387.68 26.1121 2397.44 26.1121 Z" fill="#000000" fill-rule="nonzero" fill-opacity="1" /><path clip-path="url(#clip260)" d="M2469.42 48.0275 L2469.42 51.6733 L2435.15 51.6733 Q2435.64 59.3701 2439.77 63.421 Q2443.94 67.4314 2451.36 67.4314 Q2455.65 67.4314 2459.66 66.3781 Q2463.71 65.3249 2467.68 63.2184 L2467.68 70.267 Q2463.67 71.9684 2459.46 72.8596 Q2455.25 73.7508 2450.91 73.7508 Q2440.06 73.7508 2433.7 67.4314 Q2427.38 61.1119 2427.38 50.3365 Q2427.38 39.1965 2433.37 32.6746 Q2439.41 26.1121 2449.62 26.1121 Q2458.77 26.1121 2464.08 32.0264 Q2469.42 37.9003 2469.42 48.0275 M2461.97 45.84 Q2461.89 39.7232 2458.53 36.0774 Q2455.21 32.4315 2449.7 32.4315 Q2443.46 32.4315 2439.69 35.9558 Q2435.96 39.4801 2435.4 45.8805 L2461.97 45.84 Z" fill="#000000" fill-rule="nonzero" fill-opacity="1" /><polyline clip-path="url(#clip261)" style="stroke:#ffa500; stroke-linecap:round; stroke-linejoin:round; stroke-width:8; stroke-opacity:1; fill:none" points="283.65,1282.17 593.154,1282.17 902.659,1219.96 1212.16,1145.32 1521.67,1117.78 1831.17,760.326 2140.68,482.507 2450.18,327.166 2759.69,174.552 3069.19,146.145 "/>
<circle clip-path="url(#clip261)" cx="283.65" cy="1282.17" r="14.4" fill="#ffa500" fill-rule="evenodd" fill-opacity="1" stroke="#000000" stroke-opacity="1" stroke-width="3.2"/>
<circle clip-path="url(#clip261)" cx="593.154" cy="1282.17" r="14.4" fill="#ffa500" fill-rule="evenodd" fill-opacity="1" stroke="#000000" stroke-opacity="1" stroke-width="3.2"/>
<circle clip-path="url(#clip261)" cx="902.659" cy="1219.96" r="14.4" fill="#ffa500" fill-rule="evenodd" fill-opacity="1" stroke="#000000" stroke-opacity="1" stroke-width="3.2"/>
<circle clip-path="url(#clip261)" cx="1212.16" cy="1145.32" r="14.4" fill="#ffa500" fill-rule="evenodd" fill-opacity="1" stroke="#000000" stroke-opacity="1" stroke-width="3.2"/>
<circle clip-path="url(#clip261)" cx="1521.67" cy="1117.78" r="14.4" fill="#ffa500" fill-rule="evenodd" fill-opacity="1" stroke="#000000" stroke-opacity="1" stroke-width="3.2"/>
<circle clip-path="url(#clip261)" cx="1831.17" cy="760.326" r="14.4" fill="#ffa500" fill-rule="evenodd" fill-opacity="1" stroke="#000000" stroke-opacity="1" stroke-width="3.2"/>
<circle clip-path="url(#clip261)" cx="2140.68" cy="482.507" r="14.4" fill="#ffa500" fill-rule="evenodd" fill-opacity="1" stroke="#000000" stroke-opacity="1" stroke-width="3.2"/>
<circle clip-path="url(#clip261)" cx="2450.18" cy="327.166" r="14.4" fill="#ffa500" fill-rule="evenodd" fill-opacity="1" stroke="#000000" stroke-opacity="1" stroke-width="3.2"/>
<circle clip-path="url(#clip261)" cx="2759.69" cy="174.552" r="14.4" fill="#ffa500" fill-rule="evenodd" fill-opacity="1" stroke="#000000" stroke-opacity="1" stroke-width="3.2"/>
<circle clip-path="url(#clip261)" cx="3069.19" cy="146.145" r="14.4" fill="#ffa500" fill-rule="evenodd" fill-opacity="1" stroke="#000000" stroke-opacity="1" stroke-width="3.2"/>
<polyline clip-path="url(#clip261)" style="stroke:#dc143c; stroke-linecap:round; stroke-linejoin:round; stroke-width:8; stroke-opacity:1; fill:none" points="283.65,1370.38 593.154,1405.91 902.659,1397.06 1212.16,1393.93 1521.67,1399.05 1831.17,1396.33 2140.68,1392.34 2450.18,1394.86 2759.69,1397.39 3069.19,1401.78 "/>
<path clip-path="url(#clip261)" d="M283.65 1354.38 L279.89 1365.2 L268.434 1365.44 L277.57 1372.37 L274.242 1383.33 L283.65 1376.78 L293.058 1383.33 L289.73 1372.37 L298.866 1365.44 L287.41 1365.2 L283.65 1354.38 Z" fill="#dc143c" fill-rule="evenodd" fill-opacity="1" stroke="#000000" stroke-opacity="1" stroke-width="3.2"/>
<path clip-path="url(#clip261)" d="M593.154 1389.91 L589.394 1400.72 L577.938 1400.96 L587.074 1407.89 L583.746 1418.85 L593.154 1412.31 L602.562 1418.85 L599.234 1407.89 L608.37 1400.96 L596.914 1400.72 L593.154 1389.91 Z" fill="#dc143c" fill-rule="evenodd" fill-opacity="1" stroke="#000000" stroke-opacity="1" stroke-width="3.2"/>
<path clip-path="url(#clip261)" d="M902.659 1381.06 L898.899 1391.87 L887.443 1392.11 L896.579 1399.04 L893.251 1410 L902.659 1403.46 L912.067 1410 L908.739 1399.04 L917.875 1392.11 L906.419 1391.87 L902.659 1381.06 Z" fill="#dc143c" fill-rule="evenodd" fill-opacity="1" stroke="#000000" stroke-opacity="1" stroke-width="3.2"/>
<path clip-path="url(#clip261)" d="M1212.16 1377.93 L1208.4 1388.75 L1196.95 1388.99 L1206.08 1395.92 L1202.76 1406.88 L1212.16 1400.33 L1221.57 1406.88 L1218.24 1395.92 L1227.38 1388.99 L1215.92 1388.75 L1212.16 1377.93 Z" fill="#dc143c" fill-rule="evenodd" fill-opacity="1" stroke="#000000" stroke-opacity="1" stroke-width="3.2"/>
<path clip-path="url(#clip261)" d="M1521.67 1383.05 L1517.91 1393.87 L1506.45 1394.11 L1515.59 1401.04 L1512.26 1412 L1521.67 1405.45 L1531.08 1412 L1527.75 1401.04 L1536.88 1394.11 L1525.43 1393.87 L1521.67 1383.05 Z" fill="#dc143c" fill-rule="evenodd" fill-opacity="1" stroke="#000000" stroke-opacity="1" stroke-width="3.2"/>
<path clip-path="url(#clip261)" d="M1831.17 1380.33 L1827.41 1391.14 L1815.96 1391.38 L1825.09 1398.31 L1821.76 1409.27 L1831.17 1402.73 L1840.58 1409.27 L1837.25 1398.31 L1846.39 1391.38 L1834.93 1391.14 L1831.17 1380.33 Z" fill="#dc143c" fill-rule="evenodd" fill-opacity="1" stroke="#000000" stroke-opacity="1" stroke-width="3.2"/>
<path clip-path="url(#clip261)" d="M2140.68 1376.34 L2136.92 1387.15 L2125.46 1387.39 L2134.6 1394.32 L2131.27 1405.28 L2140.68 1398.74 L2150.08 1405.28 L2146.76 1394.32 L2155.89 1387.39 L2144.44 1387.15 L2140.68 1376.34 Z" fill="#dc143c" fill-rule="evenodd" fill-opacity="1" stroke="#000000" stroke-opacity="1" stroke-width="3.2"/>
<path clip-path="url(#clip261)" d="M2450.18 1378.86 L2446.42 1389.68 L2434.96 1389.92 L2444.1 1396.85 L2440.77 1407.81 L2450.18 1401.26 L2459.59 1407.81 L2456.26 1396.85 L2465.4 1389.92 L2453.94 1389.68 L2450.18 1378.86 Z" fill="#dc143c" fill-rule="evenodd" fill-opacity="1" stroke="#000000" stroke-opacity="1" stroke-width="3.2"/>
<path clip-path="url(#clip261)" d="M2759.69 1381.39 L2755.93 1392.21 L2744.47 1392.45 L2753.61 1399.38 L2750.28 1410.34 L2759.69 1403.79 L2769.09 1410.34 L2765.77 1399.38 L2774.9 1392.45 L2763.45 1392.21 L2759.69 1381.39 Z" fill="#dc143c" fill-rule="evenodd" fill-opacity="1" stroke="#000000" stroke-opacity="1" stroke-width="3.2"/>
<path clip-path="url(#clip261)" d="M3069.19 1385.78 L3065.43 1396.6 L3053.97 1396.84 L3063.11 1403.77 L3059.78 1414.73 L3069.19 1408.18 L3078.6 1414.73 L3075.27 1403.77 L3084.41 1396.84 L3072.95 1396.6 L3069.19 1385.78 Z" fill="#dc143c" fill-rule="evenodd" fill-opacity="1" stroke="#000000" stroke-opacity="1" stroke-width="3.2"/>
<path clip-path="url(#clip260)" d="M2354.74 308.384 L3054.33 308.384 L3054.33 152.864 L2354.74 152.864  Z" fill="#ffffff" fill-rule="evenodd" fill-opacity="1"/>
<polyline clip-path="url(#clip260)" style="stroke:#000000; stroke-linecap:round; stroke-linejoin:round; stroke-width:4; stroke-opacity:1; fill:none" points="2354.74,308.384 3054.33,308.384 3054.33,152.864 2354.74,152.864 2354.74,308.384 "/>
<polyline clip-path="url(#clip260)" style="stroke:#ffa500; stroke-linecap:round; stroke-linejoin:round; stroke-width:8; stroke-opacity:1; fill:none" points="2387.55,204.704 2584.39,204.704 "/>
<circle clip-path="url(#clip260)" cx="2485.97" cy="204.704" r="20.48" fill="#ffa500" fill-rule="evenodd" fill-opacity="1" stroke="#000000" stroke-opacity="1" stroke-width="4.55111"/>
<path clip-path="url(#clip260)" d="M2633.59 205.78 Q2635.09 206.289 2636.5 207.956 Q2637.94 209.623 2639.38 212.539 L2644.12 221.984 L2639.1 221.984 L2634.68 213.118 Q2632.96 209.646 2631.34 208.512 Q2629.75 207.377 2626.97 207.377 L2621.88 207.377 L2621.88 221.984 L2617.2 221.984 L2617.2 187.424 L2627.75 187.424 Q2633.68 187.424 2636.6 189.901 Q2639.51 192.377 2639.51 197.377 Q2639.51 200.641 2637.99 202.794 Q2636.48 204.947 2633.59 205.78 M2621.88 191.266 L2621.88 203.535 L2627.75 203.535 Q2631.13 203.535 2632.85 201.984 Q2634.58 200.41 2634.58 197.377 Q2634.58 194.345 2632.85 192.817 Q2631.13 191.266 2627.75 191.266 L2621.88 191.266 Z" fill="#000000" fill-rule="nonzero" fill-opacity="1" /><path clip-path="url(#clip260)" d="M2660.56 190.502 Q2656.94 190.502 2655.12 194.067 Q2653.31 197.609 2653.31 204.738 Q2653.31 211.845 2655.12 215.41 Q2656.94 218.951 2660.56 218.951 Q2664.19 218.951 2666 215.41 Q2667.82 211.845 2667.82 204.738 Q2667.82 197.609 2666 194.067 Q2664.19 190.502 2660.56 190.502 M2660.56 186.799 Q2666.37 186.799 2669.42 191.405 Q2672.5 195.988 2672.5 204.738 Q2672.5 213.465 2669.42 218.072 Q2666.37 222.655 2660.56 222.655 Q2654.75 222.655 2651.67 218.072 Q2648.61 213.465 2648.61 204.738 Q2648.61 195.988 2651.67 191.405 Q2654.75 186.799 2660.56 186.799 Z" fill="#000000" fill-rule="nonzero" fill-opacity="1" /><path clip-path="url(#clip260)" d="M2699.31 218.095 L2699.31 231.845 L2695.02 231.845 L2695.02 196.058 L2699.31 196.058 L2699.31 199.993 Q2700.65 197.678 2702.69 196.567 Q2704.75 195.433 2707.59 195.433 Q2712.31 195.433 2715.25 199.183 Q2718.22 202.933 2718.22 209.044 Q2718.22 215.155 2715.25 218.905 Q2712.31 222.655 2707.59 222.655 Q2704.75 222.655 2702.69 221.544 Q2700.65 220.41 2699.31 218.095 M2713.8 209.044 Q2713.8 204.345 2711.85 201.683 Q2709.93 198.998 2706.55 198.998 Q2703.17 198.998 2701.23 201.683 Q2699.31 204.345 2699.31 209.044 Q2699.31 213.743 2701.23 216.428 Q2703.17 219.09 2706.55 219.09 Q2709.93 219.09 2711.85 216.428 Q2713.8 213.743 2713.8 209.044 Z" fill="#000000" fill-rule="nonzero" fill-opacity="1" /><path clip-path="url(#clip260)" d="M2740.3 200.039 Q2739.58 199.623 2738.73 199.438 Q2737.89 199.229 2736.87 199.229 Q2733.26 199.229 2731.32 201.59 Q2729.4 203.928 2729.4 208.326 L2729.4 221.984 L2725.12 221.984 L2725.12 196.058 L2729.4 196.058 L2729.4 200.086 Q2730.74 197.725 2732.89 196.59 Q2735.05 195.433 2738.12 195.433 Q2738.56 195.433 2739.1 195.502 Q2739.63 195.549 2740.28 195.664 L2740.3 200.039 Z" fill="#000000" fill-rule="nonzero" fill-opacity="1" /><path clip-path="url(#clip260)" d="M2744.77 196.058 L2749.03 196.058 L2749.03 221.984 L2744.77 221.984 L2744.77 196.058 M2744.77 185.965 L2749.03 185.965 L2749.03 191.359 L2744.77 191.359 L2744.77 185.965 Z" fill="#000000" fill-rule="nonzero" fill-opacity="1" /><path clip-path="url(#clip260)" d="M2767.99 199.044 Q2764.56 199.044 2762.57 201.729 Q2760.58 204.391 2760.58 209.044 Q2760.58 213.697 2762.55 216.382 Q2764.54 219.044 2767.99 219.044 Q2771.39 219.044 2773.38 216.359 Q2775.37 213.674 2775.37 209.044 Q2775.37 204.438 2773.38 201.752 Q2771.39 199.044 2767.99 199.044 M2767.99 195.433 Q2773.54 195.433 2776.71 199.044 Q2779.88 202.655 2779.88 209.044 Q2779.88 215.41 2776.71 219.044 Q2773.54 222.655 2767.99 222.655 Q2762.41 222.655 2759.24 219.044 Q2756.09 215.41 2756.09 209.044 Q2756.09 202.655 2759.24 199.044 Q2762.41 195.433 2767.99 195.433 Z" fill="#000000" fill-rule="nonzero" fill-opacity="1" /><path clip-path="url(#clip260)" d="M2801.97 200.039 Q2801.25 199.623 2800.39 199.438 Q2799.56 199.229 2798.54 199.229 Q2794.93 199.229 2792.99 201.59 Q2791.06 203.928 2791.06 208.326 L2791.06 221.984 L2786.78 221.984 L2786.78 196.058 L2791.06 196.058 L2791.06 200.086 Q2792.41 197.725 2794.56 196.59 Q2796.71 195.433 2799.79 195.433 Q2800.23 195.433 2800.76 195.502 Q2801.3 195.549 2801.94 195.664 L2801.97 200.039 Z" fill="#000000" fill-rule="nonzero" fill-opacity="1" /><path clip-path="url(#clip260)" d="M2831.74 186.012 Q2828.63 191.336 2827.13 196.544 Q2825.62 201.752 2825.62 207.1 Q2825.62 212.447 2827.13 217.701 Q2828.66 222.933 2831.74 228.234 L2828.03 228.234 Q2824.56 222.794 2822.82 217.539 Q2821.11 212.285 2821.11 207.1 Q2821.11 201.938 2822.82 196.706 Q2824.54 191.475 2828.03 186.012 L2831.74 186.012 Z" fill="#000000" fill-rule="nonzero" fill-opacity="1" /><path clip-path="url(#clip260)" d="M2859.35 218.581 L2870.32 218.581 L2870.32 196.058 L2874.61 196.058 L2874.61 221.984 L2839.84 221.984 L2839.84 196.058 L2844.12 196.058 L2844.12 218.581 L2855.07 218.581 L2855.07 196.058 L2859.35 196.058 L2859.35 218.581 Z" fill="#000000" fill-rule="nonzero" fill-opacity="1" /><path clip-path="url(#clip260)" d="M2880.3 196.058 L2905.14 196.058 L2905.14 199.461 L2894.81 199.461 L2894.81 221.984 L2890.62 221.984 L2890.62 199.461 L2880.3 199.461 L2880.3 196.058 Z" fill="#000000" fill-rule="nonzero" fill-opacity="1" /><path clip-path="url(#clip260)" d="M2922.78 208.951 Q2917.61 208.951 2915.62 210.132 Q2913.63 211.312 2913.63 214.16 Q2913.63 216.428 2915.11 217.771 Q2916.62 219.09 2919.19 219.09 Q2922.73 219.09 2924.86 216.59 Q2927.01 214.067 2927.01 209.9 L2927.01 208.951 L2922.78 208.951 M2931.27 207.192 L2931.27 221.984 L2927.01 221.984 L2927.01 218.049 Q2925.55 220.41 2923.38 221.544 Q2921.2 222.655 2918.05 222.655 Q2914.07 222.655 2911.71 220.433 Q2909.37 218.187 2909.37 214.437 Q2909.37 210.062 2912.29 207.84 Q2915.23 205.618 2921.04 205.618 L2927.01 205.618 L2927.01 205.201 Q2927.01 202.262 2925.07 200.664 Q2923.15 199.044 2919.65 199.044 Q2917.43 199.044 2915.32 199.576 Q2913.22 200.109 2911.27 201.174 L2911.27 197.238 Q2913.61 196.336 2915.81 195.896 Q2918.01 195.433 2920.09 195.433 Q2925.72 195.433 2928.49 198.35 Q2931.27 201.266 2931.27 207.192 Z" fill="#000000" fill-rule="nonzero" fill-opacity="1" /><path clip-path="url(#clip260)" d="M2939.88 196.058 L2946.11 196.058 L2953.47 213.419 L2960.86 196.058 L2967.04 196.058 L2967.04 221.984 L2962.75 221.984 L2962.75 200.132 L2955.6 217.007 L2951.34 217.007 L2944.17 200.132 L2944.17 221.984 L2939.88 221.984 L2939.88 196.058 Z" fill="#000000" fill-rule="nonzero" fill-opacity="1" /><path clip-path="url(#clip260)" d="M2975.65 196.058 L2981.87 196.058 L2989.23 213.419 L2996.62 196.058 L3002.8 196.058 L3002.8 221.984 L2998.52 221.984 L2998.52 200.132 L2991.36 217.007 L2987.1 217.007 L2979.93 200.132 L2979.93 221.984 L2975.65 221.984 L2975.65 196.058 Z" fill="#000000" fill-rule="nonzero" fill-opacity="1" /><path clip-path="url(#clip260)" d="M3010.9 186.012 L3014.6 186.012 Q3018.08 191.475 3019.79 196.706 Q3021.53 201.938 3021.53 207.1 Q3021.53 212.285 3019.79 217.539 Q3018.08 222.794 3014.6 228.234 L3010.9 228.234 Q3013.98 222.933 3015.48 217.701 Q3017.01 212.447 3017.01 207.1 Q3017.01 201.752 3015.48 196.544 Q3013.98 191.336 3010.9 186.012 Z" fill="#000000" fill-rule="nonzero" fill-opacity="1" /><polyline clip-path="url(#clip260)" style="stroke:#dc143c; stroke-linecap:round; stroke-linejoin:round; stroke-width:8; stroke-opacity:1; fill:none" points="2387.55,256.544 2584.39,256.544 "/>
<path clip-path="url(#clip260)" d="M2485.97 233.788 L2480.62 249.171 L2464.33 249.512 L2477.32 259.365 L2472.59 274.953 L2485.97 265.646 L2499.35 274.953 L2494.62 259.365 L2507.61 249.512 L2491.32 249.171 L2485.97 233.788 Z" fill="#dc143c" fill-rule="evenodd" fill-opacity="1" stroke="#000000" stroke-opacity="1" stroke-width="4.55111"/>
<path clip-path="url(#clip260)" d="M2633.59 257.62 Q2635.09 258.129 2636.5 259.796 Q2637.94 261.463 2639.38 264.379 L2644.12 273.824 L2639.1 273.824 L2634.68 264.958 Q2632.96 261.486 2631.34 260.352 Q2629.75 259.217 2626.97 259.217 L2621.88 259.217 L2621.88 273.824 L2617.2 273.824 L2617.2 239.264 L2627.75 239.264 Q2633.68 239.264 2636.6 241.741 Q2639.51 244.217 2639.51 249.217 Q2639.51 252.481 2637.99 254.634 Q2636.48 256.787 2633.59 257.62 M2621.88 243.106 L2621.88 255.375 L2627.75 255.375 Q2631.13 255.375 2632.85 253.824 Q2634.58 252.25 2634.58 249.217 Q2634.58 246.185 2632.85 244.657 Q2631.13 243.106 2627.75 243.106 L2621.88 243.106 Z" fill="#000000" fill-rule="nonzero" fill-opacity="1" /><path clip-path="url(#clip260)" d="M2660.56 242.342 Q2656.94 242.342 2655.12 245.907 Q2653.31 249.449 2653.31 256.578 Q2653.31 263.685 2655.12 267.25 Q2656.94 270.791 2660.56 270.791 Q2664.19 270.791 2666 267.25 Q2667.82 263.685 2667.82 256.578 Q2667.82 249.449 2666 245.907 Q2664.19 242.342 2660.56 242.342 M2660.56 238.639 Q2666.37 238.639 2669.42 243.245 Q2672.5 247.828 2672.5 256.578 Q2672.5 265.305 2669.42 269.912 Q2666.37 274.495 2660.56 274.495 Q2654.75 274.495 2651.67 269.912 Q2648.61 265.305 2648.61 256.578 Q2648.61 247.828 2651.67 243.245 Q2654.75 238.639 2660.56 238.639 Z" fill="#000000" fill-rule="nonzero" fill-opacity="1" /><path clip-path="url(#clip260)" d="M2708.31 237.805 L2708.31 241.347 L2704.24 241.347 Q2701.94 241.347 2701.04 242.273 Q2700.16 243.199 2700.16 245.606 L2700.16 247.898 L2707.18 247.898 L2707.18 251.208 L2700.16 251.208 L2700.16 273.824 L2695.88 273.824 L2695.88 251.208 L2691.81 251.208 L2691.81 247.898 L2695.88 247.898 L2695.88 246.092 Q2695.88 241.764 2697.89 239.796 Q2699.91 237.805 2704.28 237.805 L2708.31 237.805 Z" fill="#000000" fill-rule="nonzero" fill-opacity="1" /><path clip-path="url(#clip260)" d="M2711.87 247.898 L2716.13 247.898 L2716.13 273.824 L2711.87 273.824 L2711.87 247.898 M2711.87 237.805 L2716.13 237.805 L2716.13 243.199 L2711.87 243.199 L2711.87 237.805 Z" fill="#000000" fill-rule="nonzero" fill-opacity="1" /><path clip-path="url(#clip260)" d="M2729.26 240.537 L2729.26 247.898 L2738.03 247.898 L2738.03 251.208 L2729.26 251.208 L2729.26 265.282 Q2729.26 268.453 2730.12 269.356 Q2731 270.259 2733.66 270.259 L2738.03 270.259 L2738.03 273.824 L2733.66 273.824 Q2728.73 273.824 2726.85 271.995 Q2724.98 270.143 2724.98 265.282 L2724.98 251.208 L2721.85 251.208 L2721.85 247.898 L2724.98 247.898 L2724.98 240.537 L2729.26 240.537 Z" fill="#000000" fill-rule="nonzero" fill-opacity="1" /></svg>
