<?xml version="1.0" encoding="utf-8"?>
<svg xmlns="http://www.w3.org/2000/svg" xmlns:xlink="http://www.w3.org/1999/xlink" width="1920" height="1080" viewBox="0 0 7680 4320">
<defs>
  <clipPath id="clip190">
    <rect x="0" y="0" width="7680" height="4320"/>
  </clipPath>
</defs>
<path clip-path="url(#clip190)" d="M0 4320 L7680 4320 L7680 0 L0 0  Z" fill="#ffffff" fill-rule="evenodd" fill-opacity="1"/>
<defs>
  <clipPath id="clip191">
    <rect x="245" y="111" width="7165" height="4022"/>
  </clipPath>
</defs>
<path clip-path="url(#clip190)" d="M245.287 4132.42 L7408.84 4132.42 L7408.84 111.356 L245.287 111.356  Z" fill="#ffffff" fill-rule="evenodd" fill-opacity="1"/>
<polyline clip-path="url(#clip191)" style="stroke:#000000; stroke-linecap:round; stroke-linejoin:round; stroke-width:2; stroke-opacity:0.3; fill:none" points="448.029,4132.42 448.029,111.356 "/>
<polyline clip-path="url(#clip191)" style="stroke:#000000; stroke-linecap:round; stroke-linejoin:round; stroke-width:2; stroke-opacity:0.3; fill:none" points="2712.07,4132.42 2712.07,111.356 "/>
<polyline clip-path="url(#clip191)" style="stroke:#000000; stroke-linecap:round; stroke-linejoin:round; stroke-width:2; stroke-opacity:0.3; fill:none" points="4973.02,4132.42 4973.02,111.356 "/>
<polyline clip-path="url(#clip191)" style="stroke:#000000; stroke-linecap:round; stroke-linejoin:round; stroke-width:2; stroke-opacity:0.3; fill:none" points="7237.07,4132.42 7237.07,111.356 "/>
<polyline clip-path="url(#clip190)" style="stroke:#000000; stroke-linecap:round; stroke-linejoin:round; stroke-width:4; stroke-opacity:1; fill:none" points="245.287,4132.42 7408.84,4132.42 "/>
<polyline clip-path="url(#clip190)" style="stroke:#000000; stroke-linecap:round; stroke-linejoin:round; stroke-width:2; stroke-opacity:0.5; fill:none" points="245.287,111.356 7408.84,111.356 "/>
<polyline clip-path="url(#clip190)" style="stroke:#000000; stroke-linecap:round; stroke-linejoin:round; stroke-width:4; stroke-opacity:1; fill:none" points="448.029,4132.42 448.029,4113.53 "/>
<polyline clip-path="url(#clip190)" style="stroke:#000000; stroke-linecap:round; stroke-linejoin:round; stroke-width:4; stroke-opacity:1; fill:none" points="2712.07,4132.42 2712.07,4113.53 "/>
<polyline clip-path="url(#clip190)" style="stroke:#000000; stroke-linecap:round; stroke-linejoin:round; stroke-width:4; stroke-opacity:1; fill:none" points="4973.02,4132.42 4973.02,4113.53 "/>
<polyline clip-path="url(#clip190)" style="stroke:#000000; stroke-linecap:round; stroke-linejoin:round; stroke-width:4; stroke-opacity:1; fill:none" points="7237.07,4132.42 7237.07,4113.53 "/>
<g clip-path="url(#clip190)">
<text style="fill:#000000; fill-opacity:1; font-family:Century Gothic,CenturyGothic,AppleGothic,sans-serif; font-size:47px; text-anchor:middle;" transform="rotate(0, 448.029, 4235.93)" x="448.029" y="4235.93">2020-01-01</text>
</g>
<g clip-path="url(#clip190)">
<text style="fill:#000000; fill-opacity:1; font-family:Century Gothic,CenturyGothic,AppleGothic,sans-serif; font-size:47px; text-anchor:middle;" transform="rotate(0, 2712.07, 4235.93)" x="2712.07" y="4235.93">2022-01-01</text>
</g>
<g clip-path="url(#clip190)">
<text style="fill:#000000; fill-opacity:1; font-family:Century Gothic,CenturyGothic,AppleGothic,sans-serif; font-size:47px; text-anchor:middle;" transform="rotate(0, 4973.02, 4235.93)" x="4973.02" y="4235.93">2024-01-01</text>
</g>
<g clip-path="url(#clip190)">
<text style="fill:#000000; fill-opacity:1; font-family:Century Gothic,CenturyGothic,AppleGothic,sans-serif; font-size:47px; text-anchor:middle;" transform="rotate(0, 7237.07, 4235.93)" x="7237.07" y="4235.93">2026-01-01</text>
</g>
<g clip-path="url(#clip190)">
<text style="fill:#000000; fill-opacity:1; font-family:Century Gothic,CenturyGothic,AppleGothic,sans-serif; font-size:65px; text-anchor:middle;" transform="rotate(0, 3827.06, 4354.71)" x="3827.06" y="4354.71">Date</text>
</g>
<polyline clip-path="url(#clip190)" style="stroke:#000000; stroke-linecap:round; stroke-linejoin:round; stroke-width:4; stroke-opacity:1; fill:none" points="245.287,4132.42 245.287,111.356 "/>
<polyline clip-path="url(#clip190)" style="stroke:#000000; stroke-linecap:round; stroke-linejoin:round; stroke-width:2; stroke-opacity:0.5; fill:none" points="7408.84,4132.42 7408.84,111.356 "/>
<polyline clip-path="url(#clip190)" style="stroke:#000000; stroke-linecap:round; stroke-linejoin:round; stroke-width:4; stroke-opacity:1; fill:none" points="245.287,3552.76 264.184,3552.76 "/>
<polyline clip-path="url(#clip190)" style="stroke:#000000; stroke-linecap:round; stroke-linejoin:round; stroke-width:4; stroke-opacity:1; fill:none" points="245.287,2443.56 264.184,2443.56 "/>
<polyline clip-path="url(#clip190)" style="stroke:#000000; stroke-linecap:round; stroke-linejoin:round; stroke-width:4; stroke-opacity:1; fill:none" points="245.287,1334.36 264.184,1334.36 "/>
<polyline clip-path="url(#clip190)" style="stroke:#000000; stroke-linecap:round; stroke-linejoin:round; stroke-width:4; stroke-opacity:1; fill:none" points="245.287,225.16 264.184,225.16 "/>
<g clip-path="url(#clip190)">
<text style="fill:#000000; fill-opacity:1; font-family:Century Gothic,CenturyGothic,AppleGothic,sans-serif; font-size:47px; text-anchor:middle;" transform="rotate(0, 117.15, 3570.26)" x="117.15" y="3570.26">5</text>
</g>
<g clip-path="url(#clip190)">
<text style="fill:#000000; fill-opacity:1; font-family:Century Gothic,CenturyGothic,AppleGothic,sans-serif; font-size:47px; text-anchor:middle;" transform="rotate(0, 104.213, 2461.06)" x="104.213" y="2461.06">10</text>
</g>
<g clip-path="url(#clip190)">
<text style="fill:#000000; fill-opacity:1; font-family:Century Gothic,CenturyGothic,AppleGothic,sans-serif; font-size:47px; text-anchor:middle;" transform="rotate(0, 104.213, 1351.86)" x="104.213" y="1351.86">15</text>
</g>
<g clip-path="url(#clip190)">
<text style="fill:#000000; fill-opacity:1; font-family:Century Gothic,CenturyGothic,AppleGothic,sans-serif; font-size:47px; text-anchor:middle;" transform="rotate(0, 104.213, 242.66)" x="104.213" y="242.66">20</text>
</g>
<g clip-path="url(#clip190)">
<text style="fill:#000000; fill-opacity:1; font-family:Century Gothic,CenturyGothic,AppleGothic,sans-serif; font-size:65px; text-anchor:middle;" transform="rotate(-90, -46.8154, 2121.89)" x="-46.8154" y="2121.89">R0_avg</text>
</g>
<g clip-path="url(#clip190)">
<text style="fill:#000000; fill-opacity:1; font-family:Century Gothic,CenturyGothic,AppleGothic,sans-serif; font-size:81px; text-anchor:middle;" transform="rotate(0, 3827.06, 72)" x="3827.06" y="72">Timeline of R0_avg for COVID-19 Strains</text>
</g>
<polyline clip-path="url(#clip191)" style="stroke:#009af9; stroke-linecap:round; stroke-linejoin:round; stroke-width:8; stroke-opacity:1; fill:none" points="448.029,4018.62 1535.14,3663.68 1928.49,3663.68 1999.72,3641.49 2142.19,3530.57 2693.49,2554.48 2981.53,1999.88 3312.93,1334.36 3743.44,1112.52 3997.41,890.679 4214.21,668.839 4545.61,446.999 4969.93,225.16 5425.21,225.16 5914.57,225.16 "/>
<polyline clip-path="url(#clip191)" style="stroke:#008000; stroke-linecap:round; stroke-linejoin:round; stroke-width:8; stroke-opacity:1; fill:none" stroke-dasharray="32, 20" points="448.029,8153.49 448.029,-3909.71 "/>
<polyline clip-path="url(#clip191)" style="stroke:#ff0000; stroke-linecap:round; stroke-linejoin:round; stroke-width:8; stroke-opacity:1; fill:none" stroke-dasharray="32, 20" points="1535.14,8153.49 1535.14,-3909.71 "/>
<polyline clip-path="url(#clip191)" style="stroke:#008000; stroke-linecap:round; stroke-linejoin:round; stroke-width:8; stroke-opacity:1; fill:none" stroke-dasharray="32, 20" points="1535.14,8153.49 1535.14,-3909.71 "/>
<polyline clip-path="url(#clip191)" style="stroke:#ff0000; stroke-linecap:round; stroke-linejoin:round; stroke-width:8; stroke-opacity:1; fill:none" stroke-dasharray="32, 20" points="1928.49,8153.49 1928.49,-3909.71 "/>
<polyline clip-path="url(#clip191)" style="stroke:#008000; stroke-linecap:round; stroke-linejoin:round; stroke-width:8; stroke-opacity:1; fill:none" stroke-dasharray="32, 20" points="1928.49,8153.49 1928.49,-3909.71 "/>
<polyline clip-path="url(#clip191)" style="stroke:#ff0000; stroke-linecap:round; stroke-linejoin:round; stroke-width:8; stroke-opacity:1; fill:none" stroke-dasharray="32, 20" points="1999.72,8153.49 1999.72,-3909.71 "/>
<polyline clip-path="url(#clip191)" style="stroke:#008000; stroke-linecap:round; stroke-linejoin:round; stroke-width:8; stroke-opacity:1; fill:none" stroke-dasharray="32, 20" points="1999.72,8153.49 1999.72,-3909.71 "/>
<polyline clip-path="url(#clip191)" style="stroke:#ff0000; stroke-linecap:round; stroke-linejoin:round; stroke-width:8; stroke-opacity:1; fill:none" stroke-dasharray="32, 20" points="2142.19,8153.49 2142.19,-3909.71 "/>
<polyline clip-path="url(#clip191)" style="stroke:#008000; stroke-linecap:round; stroke-linejoin:round; stroke-width:8; stroke-opacity:1; fill:none" stroke-dasharray="32, 20" points="2142.19,8153.49 2142.19,-3909.71 "/>
<polyline clip-path="url(#clip191)" style="stroke:#ff0000; stroke-linecap:round; stroke-linejoin:round; stroke-width:8; stroke-opacity:1; fill:none" stroke-dasharray="32, 20" points="2693.49,8153.49 2693.49,-3909.71 "/>
<polyline clip-path="url(#clip191)" style="stroke:#008000; stroke-linecap:round; stroke-linejoin:round; stroke-width:8; stroke-opacity:1; fill:none" stroke-dasharray="32, 20" points="2693.49,8153.49 2693.49,-3909.71 "/>
<polyline clip-path="url(#clip191)" style="stroke:#ff0000; stroke-linecap:round; stroke-linejoin:round; stroke-width:8; stroke-opacity:1; fill:none" stroke-dasharray="32, 20" points="2981.53,8153.49 2981.53,-3909.71 "/>
<polyline clip-path="url(#clip191)" style="stroke:#008000; stroke-linecap:round; stroke-linejoin:round; stroke-width:8; stroke-opacity:1; fill:none" stroke-dasharray="32, 20" points="2981.53,8153.49 2981.53,-3909.71 "/>
<polyline clip-path="url(#clip191)" style="stroke:#ff0000; stroke-linecap:round; stroke-linejoin:round; stroke-width:8; stroke-opacity:1; fill:none" stroke-dasharray="32, 20" points="3312.93,8153.49 3312.93,-3909.71 "/>
<polyline clip-path="url(#clip191)" style="stroke:#008000; stroke-linecap:round; stroke-linejoin:round; stroke-width:8; stroke-opacity:1; fill:none" stroke-dasharray="32, 20" points="3312.93,8153.49 3312.93,-3909.71 "/>
<polyline clip-path="url(#clip191)" style="stroke:#ff0000; stroke-linecap:round; stroke-linejoin:round; stroke-width:8; stroke-opacity:1; fill:none" stroke-dasharray="32, 20" points="3743.44,8153.49 3743.44,-3909.71 "/>
<polyline clip-path="url(#clip191)" style="stroke:#008000; stroke-linecap:round; stroke-linejoin:round; stroke-width:8; stroke-opacity:1; fill:none" stroke-dasharray="32, 20" points="3743.44,8153.49 3743.44,-3909.71 "/>
<polyline clip-path="url(#clip191)" style="stroke:#ff0000; stroke-linecap:round; stroke-linejoin:round; stroke-width:8; stroke-opacity:1; fill:none" stroke-dasharray="32, 20" points="3997.41,8153.49 3997.41,-3909.71 "/>
<polyline clip-path="url(#clip191)" style="stroke:#008000; stroke-linecap:round; stroke-linejoin:round; stroke-width:8; stroke-opacity:1; fill:none" stroke-dasharray="32, 20" points="3997.41,8153.49 3997.41,-3909.71 "/>
<polyline clip-path="url(#clip191)" style="stroke:#ff0000; stroke-linecap:round; stroke-linejoin:round; stroke-width:8; stroke-opacity:1; fill:none" stroke-dasharray="32, 20" points="4214.21,8153.49 4214.21,-3909.71 "/>
<polyline clip-path="url(#clip191)" style="stroke:#008000; stroke-linecap:round; stroke-linejoin:round; stroke-width:8; stroke-opacity:1; fill:none" stroke-dasharray="32, 20" points="4214.21,8153.49 4214.21,-3909.71 "/>
<polyline clip-path="url(#clip191)" style="stroke:#ff0000; stroke-linecap:round; stroke-linejoin:round; stroke-width:8; stroke-opacity:1; fill:none" stroke-dasharray="32, 20" points="4545.61,8153.49 4545.61,-3909.71 "/>
<polyline clip-path="url(#clip191)" style="stroke:#008000; stroke-linecap:round; stroke-linejoin:round; stroke-width:8; stroke-opacity:1; fill:none" stroke-dasharray="32, 20" points="4545.61,8153.49 4545.61,-3909.71 "/>
<polyline clip-path="url(#clip191)" style="stroke:#ff0000; stroke-linecap:round; stroke-linejoin:round; stroke-width:8; stroke-opacity:1; fill:none" stroke-dasharray="32, 20" points="4969.93,8153.49 4969.93,-3909.71 "/>
<polyline clip-path="url(#clip191)" style="stroke:#008000; stroke-linecap:round; stroke-linejoin:round; stroke-width:8; stroke-opacity:1; fill:none" stroke-dasharray="32, 20" points="4969.93,8153.49 4969.93,-3909.71 "/>
<polyline clip-path="url(#clip191)" style="stroke:#ff0000; stroke-linecap:round; stroke-linejoin:round; stroke-width:8; stroke-opacity:1; fill:none" stroke-dasharray="32, 20" points="5425.21,8153.49 5425.21,-3909.71 "/>
<polyline clip-path="url(#clip191)" style="stroke:#008000; stroke-linecap:round; stroke-linejoin:round; stroke-width:8; stroke-opacity:1; fill:none" stroke-dasharray="32, 20" points="5425.21,8153.49 5425.21,-3909.71 "/>
<polyline clip-path="url(#clip191)" style="stroke:#ff0000; stroke-linecap:round; stroke-linejoin:round; stroke-width:8; stroke-opacity:1; fill:none" stroke-dasharray="32, 20" points="5914.57,8153.49 5914.57,-3909.71 "/>
<polyline clip-path="url(#clip191)" style="stroke:#008000; stroke-linecap:round; stroke-linejoin:round; stroke-width:8; stroke-opacity:1; fill:none" stroke-dasharray="32, 20" points="5914.57,8153.49 5914.57,-3909.71 "/>
<polyline clip-path="url(#clip191)" style="stroke:#ff0000; stroke-linecap:round; stroke-linejoin:round; stroke-width:8; stroke-opacity:1; fill:none" stroke-dasharray="32, 20" points="6664.09,8153.49 6664.09,-3909.71 "/>
<path clip-path="url(#clip190)" d="M6286.92 343.654 L7170.05 343.654 L7170.05 245.391 L6286.92 245.391  Z" fill="#ffffff" fill-rule="evenodd" fill-opacity="1"/>
<polyline clip-path="url(#clip190)" style="stroke:#000000; stroke-linecap:round; stroke-linejoin:round; stroke-width:4; stroke-opacity:1; fill:none" points="6286.92,343.654 7170.05,343.654 7170.05,245.391 6286.92,245.391 6286.92,343.654 "/>
<polyline clip-path="url(#clip190)" style="stroke:#009af9; stroke-linecap:round; stroke-linejoin:round; stroke-width:8; stroke-opacity:1; fill:none" points="6366.52,294.523 6844.09,294.523 "/>
<g clip-path="url(#clip190)">
<text style="fill:#000000; fill-opacity:1; font-family:Century Gothic,CenturyGothic,AppleGothic,sans-serif; font-size:47px; text-anchor:start;" transform="rotate(0, 6923.68, 312.023)" x="6923.68" y="312.023">R0_avg</text>
</g>
<polyline clip-path="url(#clip190)" style="stroke:#000000; stroke-linecap:round; stroke-linejoin:round; stroke-width:4; stroke-opacity:1; fill:none" points="7408.84,4132.42 7408.84,111.356 "/>
<polyline clip-path="url(#clip190)" style="stroke:#000000; stroke-linecap:round; stroke-linejoin:round; stroke-width:2; stroke-opacity:0.5; fill:none" points="245.287,4132.42 245.287,111.356 "/>
<polyline clip-path="url(#clip190)" style="stroke:#000000; stroke-linecap:round; stroke-linejoin:round; stroke-width:4; stroke-opacity:1; fill:none" points="7408.84,4018.62 7389.94,4018.62 "/>
<polyline clip-path="url(#clip190)" style="stroke:#000000; stroke-linecap:round; stroke-linejoin:round; stroke-width:4; stroke-opacity:1; fill:none" points="7408.84,3205.98 7389.94,3205.98 "/>
<polyline clip-path="url(#clip190)" style="stroke:#000000; stroke-linecap:round; stroke-linejoin:round; stroke-width:4; stroke-opacity:1; fill:none" points="7408.84,2393.33 7389.94,2393.33 "/>
<polyline clip-path="url(#clip190)" style="stroke:#000000; stroke-linecap:round; stroke-linejoin:round; stroke-width:4; stroke-opacity:1; fill:none" points="7408.84,1580.69 7389.94,1580.69 "/>
<polyline clip-path="url(#clip190)" style="stroke:#000000; stroke-linecap:round; stroke-linejoin:round; stroke-width:4; stroke-opacity:1; fill:none" points="7408.84,768.05 7389.94,768.05 "/>
<g clip-path="url(#clip190)">
<text style="fill:#000000; fill-opacity:1; font-family:Century Gothic,CenturyGothic,AppleGothic,sans-serif; font-size:47px; text-anchor:middle;" transform="rotate(0, 7536.98, 4036.12)" x="7536.98" y="4036.12">0</text>
</g>
<g clip-path="url(#clip190)">
<text style="fill:#000000; fill-opacity:1; font-family:Century Gothic,CenturyGothic,AppleGothic,sans-serif; font-size:47px; text-anchor:middle;" transform="rotate(0, 7562.85, 3223.48)" x="7562.85" y="3223.48">200</text>
</g>
<g clip-path="url(#clip190)">
<text style="fill:#000000; fill-opacity:1; font-family:Century Gothic,CenturyGothic,AppleGothic,sans-serif; font-size:47px; text-anchor:middle;" transform="rotate(0, 7562.85, 2410.83)" x="7562.85" y="2410.83">400</text>
</g>
<g clip-path="url(#clip190)">
<text style="fill:#000000; fill-opacity:1; font-family:Century Gothic,CenturyGothic,AppleGothic,sans-serif; font-size:47px; text-anchor:middle;" transform="rotate(0, 7562.85, 1598.19)" x="7562.85" y="1598.19">600</text>
</g>
<g clip-path="url(#clip190)">
<text style="fill:#000000; fill-opacity:1; font-family:Century Gothic,CenturyGothic,AppleGothic,sans-serif; font-size:47px; text-anchor:middle;" transform="rotate(0, 7562.85, 785.55)" x="7562.85" y="785.55">800</text>
</g>
<g clip-path="url(#clip190)">
<text style="fill:#000000; fill-opacity:1; font-family:Century Gothic,CenturyGothic,AppleGothic,sans-serif; font-size:65px; text-anchor:middle;" transform="rotate(-90, 7774.82, 2121.89)" x="7774.82" y="2121.89">Total Cases</text>
</g>
<polyline clip-path="url(#clip191)" style="stroke:#0000ff; stroke-linecap:round; stroke-linejoin:round; stroke-width:8; stroke-opacity:1; fill:none" points="773.234,4018.62 776.331,4008.46 779.428,3998.3 782.525,4001.35 785.623,3998.3 788.72,3997.63 791.817,3998.3 794.914,3998.81 798.011,3998.3 801.108,3991.8 804.206,3987.96 807.303,3985.78 810.4,3987.05 813.497,3985.24 816.594,3985.57 819.692,3986.62 822.789,3982.77 825.886,3980.7 828.983,3980.47 832.08,3977.54 835.178,3977.08 838.275,3973.7 841.372,3969.41 844.469,3969.18 847.566,3966.48 850.664,3963.99 853.761,3960.83 856.858,3963.09 859.955,3964.22 863.052,3963.77 866.149,3960.38 869.247,3959.25 872.344,3956.54 875.441,3951.35 878.538,3954.51 881.635,3951.13 884.733,3947.06 887.83,3944.35 890.927,3941.87 894.024,3939.84 897.121,3942.32 900.219,3939.16 903.316,3933.29 906.413,3924.94 909.51,3919.97 912.607,3909.14 915.705,3897.63 918.802,3896.05 921.899,3890.4 924.996,3869.41 928.093,3859.03 931.19,3857.9 934.288,3844.58 937.385,3843.68 940.482,3839.61 943.579,3832.84 946.676,3824.71 949.774,3805.75 952.871,3786.79 955.968,3767.83 959.065,3755.19 962.162,3752.71 965.26,3740.74 968.357,3742.55 971.454,3747.51 974.551,3731.26 977.648,3719.75 980.745,3728.1 983.843,3729 986.94,3726.29 990.037,3726.29 993.134,3726.29 996.231,3724.49 999.329,3724.94 1002.43,3725.84 1005.52,3742.77 1008.62,3748.87 1011.72,3762.41 1014.81,3771.67 1017.91,3777.99 1021.01,3787.92 1024.11,3793.56 1027.2,3794.24 1030.3,3809.59 1033.4,3824.71 1036.49,3833.74 1039.59,3841.64 1042.69,3847.96 1045.79,3856.54 1048.88,3862.19 1051.98,3864.67 1055.08,3869.64 1058.18,3875.96 1061.27,3879.79 1064.37,3889.5 1067.47,3895.37 1070.56,3904.62 1073.66,3908.69 1076.76,3912.98 1079.86,3908.01 1082.95,3912.07 1086.05,3911.85 1089.15,3910.04 1092.24,3914.56 1095.34,3917.49 1098.44,3912.07 1101.54,3909.59 1104.63,3904.85 1107.73,3904.4 1110.83,3904.17 1113.92,3910.04 1117.02,3913.2 1120.12,3913.2 1123.22,3912.98 1126.31,3912.3 1129.41,3911.62 1132.51,3911.4 1135.61,3917.49 1138.7,3917.72 1141.8,3915.69 1144.9,3916.59 1147.99,3911.17 1151.09,3906.43 1154.19,3904.85 1157.29,3908.69 1160.38,3910.04 1163.48,3909.82 1166.58,3910.27 1169.67,3902.37 1172.77,3895.59 1175.87,3891.08 1178.97,3890.18 1182.06,3885.21 1185.16,3883.41 1188.26,3884.08 1191.35,3883.41 1194.45,3882.73 1197.55,3883.86 1200.65,3890.4 1203.74,3893.79 1206.84,3896.27 1209.94,3901.01 1213.03,3898.98 1216.13,3900.34 1219.23,3903.04 1222.33,3906.2 1225.42,3909.82 1228.52,3911.4 1231.62,3918.62 1234.72,3915.46 1237.81,3917.49 1240.91,3919.07 1244.01,3922.68 1247.1,3923.81 1250.2,3922.23 1253.3,3923.36 1256.4,3916.36 1259.49,3912.3 1262.59,3908.69 1265.69,3909.14 1268.78,3911.62 1271.88,3910.72 1274.98,3909.14 1278.08,3903.95 1281.17,3899.21 1284.27,3896.95 1287.37,3897.85 1290.46,3898.75 1293.56,3899.21 1296.66,3895.37 1299.76,3887.69 1302.85,3880.92 1305.95,3876.18 1309.05,3869.18 1312.14,3865.57 1315.24,3863.99 1318.34,3864.44 1321.44,3859.7 1324.53,3852.25 1327.63,3843.68 1330.73,3837.13 1333.83,3832.61 1336.92,3827.42 1340.02,3821.1 1343.12,3807.33 1346.21,3795.37 1349.31,3782.05 1352.41,3768.51 1355.51,3760.15 1358.6,3749.09 1361.7,3738.48 1364.8,3726.97 1367.89,3713.43 1370.99,3699.66 1374.09,3683.18 1377.19,3667.15 1380.28,3653.83 1383.38,3643.22 1386.48,3630.58 1389.57,3618.17 1392.67,3606.2 1395.77,3593.79 1398.87,3582.28 1401.96,3574.83 1405.06,3568.28 1408.16,3561.73 1411.25,3552.03 1414.35,3554.96 1417.45,3547.74 1420.55,3543 1423.64,3536.9 1426.74,3528.33 1429.84,3518.84 1432.94,3511.17 1436.03,3501.01 1439.13,3487.47 1442.23,3476.18 1445.32,3465.8 1448.42,3455.41 1451.52,3444.35 1454.62,3435.1 1457.71,3424.04 1460.81,3412.3 1463.91,3401.46 1467,3390.18 1470.1,3368.73 1473.2,3356.09 1476.3,3341.42 1479.39,3328.55 1482.49,3317.94 1485.59,3308.23 1488.68,3297.17 1491.78,3288.37 1494.88,3282.05 1497.98,3121.1 1501.07,3101.91 1504.17,3074.6 1507.27,3037.13 1510.37,3013.65 1513.46,2984.76 1516.56,2948.64 1519.66,2913.88 1522.75,2880.02 1525.85,2842.09 1528.95,2802.82 1532.05,2766.25 1535.14,2725.39 1538.24,2680.69 1541.34,2635.55 1544.43,2591.53 1547.53,2546.61 1550.63,2497.4 1553.73,2596.27 1556.82,2558.8 1559.92,2526.97 1563.02,2512.75 1566.11,2484.53 1569.21,2462.64 1572.31,2447.96 1575.41,2433.74 1578.5,2439.38 1581.6,2456.99 1584.7,2491.75 1587.79,2517.04 1590.89,2557.67 1593.99,2591.76 1597.09,2622 1600.18,2673.24 1603.28,2721.78 1606.38,2769.41 1609.48,2815.23 1612.57,2857.44 1615.67,2898.08 1618.77,2943 1621.86,2970.54 1624.96,3017.94 1628.06,3045.93 1631.16,3087.02 1634.25,3114.1 1637.35,3130.58 1640.45,3147.06 1643.54,3158.35 1646.64,3165.57 1649.74,3179.34 1652.84,3217.49 1655.93,3222.46 1659.03,3249.54 1662.13,3273.7 1665.22,3296.95 1668.32,3310.04 1671.42,3331.49 1674.52,3339.16 1677.61,3375.05 1680.71,3407.11 1683.81,3445.48 1686.9,3464.89 1690,3469.41 1693.1,3495.14 1696.2,3503.95 1699.29,3538.93 1702.39,3557.45 1705.49,3581.15 1708.59,3587.24 1711.68,3594.01 1714.78,3583.18 1717.88,3581.82 1720.97,3599.43 1724.07,3624.71 1727.17,3642.77 1730.27,3654.06 1733.36,3659.48 1736.46,3643 1739.56,3640.74 1742.65,3642.32 1745.75,3666.93 1748.85,3671.44 1751.95,3676.18 1755.04,3668.28 1758.14,3664.89 1761.24,3660.83 1764.33,3653.16 1767.43,3659.03 1770.53,3663.31 1773.63,3666.47 1776.72,3657.67 1779.82,3649.77 1782.92,3643.45 1786.01,3649.32 1789.11,3657.9 1792.21,3676.18 1795.31,3684.31 1798.4,3689.5 1801.5,3679.79 1804.6,3672.57 1807.7,3668.05 1810.79,3673.25 1813.89,3680.02 1816.99,3685.89 1820.08,3691.76 1823.18,3696.05 1826.28,3701.24 1829.38,3706.2 1832.47,3713.88 1835.57,3718.62 1838.67,3723.59 1841.76,3728.1 1844.86,3724.04 1847.96,3721.33 1851.06,3726.75 1854.15,3732.84 1857.25,3737.36 1860.35,3738.71 1863.44,3738.94 1866.54,3732.39 1869.64,3729.45 1872.74,3733.29 1875.83,3738.48 1878.93,3744.35 1882.03,3744.8 1885.13,3744.35 1888.22,3743.45 1891.32,3745.03 1894.42,3751.12 1897.51,3753.38 1900.61,3757.9 1903.71,3752.48 1906.81,3747.51 1909.9,3746.61 1913,3748.42 1916.1,3757.45 1919.19,3765.57 1922.29,3770.54 1925.39,3775.05 1928.49,3770.99 1931.58,3764.67 1934.68,3763.09 1937.78,3768.05 1940.87,3772.12 1943.97,3772.57 1947.07,3771.89 1950.17,3766.7 1953.26,3759.7 1956.36,3753.83 1959.46,3754.06 1962.55,3759.03 1965.65,3767.15 1968.75,3771.67 1971.85,3773.7 1974.94,3773.25 1978.04,3774.6 1981.14,3776.18 1984.24,3780.24 1987.33,3785.44 1990.43,3789.73 1993.53,3787.02 1996.62,3784.08 1999.72,3783.63 2002.82,3787.69 2005.92,3790.63 2009.01,3798.75 2012.11,3808.24 2015.21,3815.23 2018.3,3815.01 2021.4,3815.46 2024.5,3820.88 2027.6,3818.39 2030.69,3819.97 2033.79,3820.2 2036.89,3819.97 2039.98,3823.59 2043.08,3828.1 2046.18,3830.81 2049.28,3833.07 2052.37,3838.03 2055.47,3843 2058.57,3845.26 2061.66,3849.77 2064.76,3853.16 2067.86,3853.61 2070.96,3852.48 2074.05,3854.06 2077.15,3850.67 2080.25,3845.03 2083.35,3846.61 2086.44,3847.74 2089.54,3849.32 2092.64,3850.22 2095.73,3846.16 2098.83,3840.97 2101.93,3831.26 2105.03,3828.55 2108.12,3823.81 2111.22,3818.39 2114.32,3810.72 2117.41,3801.01 2120.51,3789.5 2123.61,3774.83 2126.71,3760.38 2129.8,3745.03 2132.9,3731.49 2136,3716.81 2139.09,3699.43 2142.19,3680.92 2145.29,3661.06 2148.39,3641.64 2151.48,3622.23 2154.58,3603.72 2157.68,3585.89 2160.77,3566.7 2163.87,3547.96 2166.97,3530.58 2170.07,3515.91 2173.16,3502.59 2176.26,3493.56 2179.36,3486.34 2182.46,3481.37 2185.55,3476.86 2188.65,3471.67 2191.75,3468.73 2194.84,3467.38 2197.94,3467.83 2201.04,3469.63 2204.14,3471.44 2207.23,3473.92 2210.33,3477.31 2213.43,3481.82 2216.52,3486.56 2219.62,3492.66 2222.72,3499.43 2225.82,3504.4 2228.91,3510.27 2232.01,3512.75 2235.11,3515.91 2238.2,3518.84 2241.3,3522.91 2244.4,3526.52 2247.5,3529.91 2250.59,3533.74 2253.69,3537.58 2256.79,3540.52 2259.89,3544.58 2262.98,3549.54 2266.08,3554.51 2269.18,3557.9 2272.27,3561.06 2275.37,3563.99 2278.47,3566.7 2281.57,3570.31 2284.66,3571.89 2287.76,3575.05 2290.86,3577.76 2293.95,3580.92 2297.05,3583.18 2300.15,3586.56 2303.25,3589.27 2306.34,3592.21 2309.44,3592.89 2312.54,3594.92 2315.63,3598.08 2318.73,3600.11 2321.83,3601.01 2324.93,3604.62 2328.02,3609.36 2331.12,3613.43 2334.22,3617.72 2337.31,3619.97 2340.41,3624.04 2343.51,3628.1 2346.61,3632.61 2349.7,3635.1 2352.8,3637.35 2355.9,3639.61 2359,3641.87 2362.09,3643.22 2365.19,3645.26 2368.29,3646.38 2371.38,3645.93 2374.48,3647.06 2377.58,3647.51 2380.68,3645.03 2383.77,3640.74 2386.87,3634.42 2389.97,3625.84 2393.06,3617.94 2396.16,3608.91 2399.26,3598.75 2402.36,3586.34 2405.45,3573.25 2408.55,3561.28 2411.65,3546.84 2414.74,3532.39 2417.84,3517.04 2420.94,3501.69 2424.04,3485.89 2427.13,3468.73 2430.23,3448.42 2433.33,3427.2 2436.42,3405.75 2439.52,3384.98 2442.62,3365.57 2445.72,3346.16 2448.81,3325.62 2451.91,3304.17 2455.01,3282.28 2458.11,3261.28 2461.2,3241.87 2464.3,3221.78 2467.4,3201.69 2470.49,3180.92 2473.59,3159.93 2476.69,3139.61 2479.79,3120.2 2482.88,3100.79 2485.98,3082.95 2489.08,3065.34 2492.17,3047.96 2495.27,3029.45 2498.37,3011.62 2501.47,2995.14 2504.56,2981.37 2507.66,2968.73 2510.76,2956.32 2513.85,2943.45 2516.95,2931.03 2520.05,2919.52 2523.15,2910.04 2526.24,2901.24 2529.34,2894.01 2532.44,2886.56 2535.54,2878.44 2538.63,2870.99 2541.73,2864.22 2544.83,2859.7 2547.92,2855.19 2551.02,2852.03 2554.12,2849.09 2557.22,2846.61 2560.31,2843 2563.41,2840.51 2566.51,2839.84 2569.6,2840.74 2572.7,2841.42 2575.8,2842.32 2578.9,2843 2581.99,2845.25 2585.09,2847.96 2588.19,2852.48 2591.28,2859.25 2594.38,2867.38 2597.48,2877.76 2600.58,2889.72 2603.67,2905.53 2606.77,2923.81 2609.87,2944.8 2612.96,2966.25 2616.06,2989.27 2619.16,3012.52 2622.26,3034.42 2625.35,3056.54 2628.45,3079.57 2631.55,3101.91 2634.65,3124.94 2637.74,3146.83 2640.84,3168.28 2643.94,3188.6 2647.03,3207.56 2650.13,3226.07 2653.23,3242.55 2656.33,3256.99 2659.42,3268.51 2662.52,3278.21 2665.62,3285.44 2668.71,3292.21 2671.81,3298.08 2674.91,3303.04 2678.01,3309.36 2681.1,3315.01 2684.2,3321.33 2687.3,3327.65 2690.39,3333.29 2693.49,3339.39 2696.59,3345.03 2699.69,3350.67 2702.78,3357.67 2705.88,3365.35 2708.98,3377.08 2712.07,3389.05 2715.17,3404.4 2718.27,3420.65 2721.37,3441.64 2724.46,3461.96 2727.56,3482.05 2730.66,3502.82 2733.76,3522.23 2736.85,3541.64 2739.95,3559.25 2743.05,3576.86 2746.14,3592.43 2749.24,3605.08 2752.34,3614.33 2755.44,3620.42 2758.53,3622.68 2761.63,3622.68 2764.73,3618.39 2767.82,3612.75 2770.92,3603.49 2774.02,3591.53 2777.12,3573.02 2780.21,3552.25 2783.31,3529 2786.41,3502.37 2789.5,3474.15 2792.6,3443.45 2795.7,3410.49 2798.8,3374.83 2801.89,3338.03 2804.99,3301.69 2808.09,3262.86 2811.18,3224.49 2814.28,3182.73 2817.38,3131.03 2820.48,3067.83 2823.57,2997.85 2826.67,2916.36 2829.77,2829.45 2832.87,2732.84 2835.96,2624.71 2839.06,2506.88 2842.16,2378.89 2845.25,2241.19 2848.35,2094.46 2851.45,1946.61 2854.55,1791.3 2857.64,1632.61 2860.74,1465.57 2863.84,1294.24 2866.93,1135.54 2870.03,988.592 2873.13,853.152 2876.23,736.221 2879.32,628.32 2882.42,533.964 2885.52,448.185 2888.61,373.015 2891.71,310.713 2894.81,262.406 2897.91,233.737 2901,225.16 2904.1,241.412 2907.2,270.532 2910.3,319.968 2913.39,391.751 2916.49,515.002 2919.59,697.621 2922.68,827.192 2925.78,965.341 2928.88,1118.39 2931.98,1291.53 2935.07,1478.89 2938.17,1631.26 2941.27,1782.27 2944.36,1934.42 2947.46,2088.14 2950.56,2241.64 2953.66,2396.04 2956.75,2552.25 2959.85,2679.57 2962.95,2798.53 2966.04,2912.97 2969.14,3012.07 2972.24,3080.02 2975.34,3108.91 2978.43,3198.3 2981.53,3245.48 2984.63,3278.44 2987.72,3291.76 2990.82,3290.85 2993.92,3326.52 2997.02,3363.77 3000.11,3401.46 3003.21,3434.42 3006.31,3465.12 3009.41,3489.5 3012.5,3504.4 3015.6,3535.1 3018.7,3566.25 3021.79,3591.31 3024.89,3615.23 3027.99,3628.33 3031.09,3632.84 3034.18,3620.88 3037.28,3634.42 3040.38,3646.61 3043.47,3652.25 3046.57,3656.99 3049.67,3661.73 3052.77,3666.47 3055.86,3671.67 3058.96,3681.37 3062.06,3692.21 3065.15,3701.91 3068.25,3708.46 3071.35,3715.46 3074.45,3721.78 3077.54,3728.1 3080.64,3735.78 3083.74,3746.16 3086.83,3756.54 3089.93,3767.38 3093.03,3781.15 3096.13,3793.11 3099.22,3803.5 3102.32,3814.33 3105.42,3822.68 3108.52,3828.78 3111.61,3833.74 3114.71,3838.03 3117.81,3841.42 3120.9,3844.58 3124,3849.32 3127.1,3852.93 3130.2,3856.54 3133.29,3859.93 3136.39,3862.19 3139.49,3864.44 3142.58,3867.83 3145.68,3866.7 3148.78,3865.35 3151.88,3867.15 3154.97,3868.28 3158.07,3870.09 3161.17,3870.54 3164.26,3870.31 3167.36,3869.18 3170.46,3869.41 3173.56,3871.67 3176.65,3872.34 3179.75,3875.96 3182.85,3879.12 3185.94,3882.5 3189.04,3886.79 3192.14,3894.69 3195.24,3901.24 3198.33,3901.24 3201.43,3903.72 3204.53,3906.43 3207.63,3908.69 3210.72,3912.3 3213.82,3915.01 3216.92,3918.85 3220.01,3923.81 3223.11,3927.2 3226.21,3930.13 3229.31,3932.16 3232.4,3936.23 3235.5,3938.71 3238.6,3942.32 3241.69,3944.58 3244.79,3945.93 3247.89,3943.9 3250.99,3940.97 3254.08,3941.87 3257.18,3943.68 3260.28,3945.03 3263.37,3945.26 3266.47,3945.48 3269.57,3945.03 3272.67,3944.13 3275.76,3942.55 3278.86,3943.45 3281.96,3944.13 3285.06,3944.58 3288.15,3943.9 3291.25,3942.1 3294.35,3940.06 3297.44,3939.84 3300.54,3940.74 3303.64,3941.64 3306.74,3941.87 3309.83,3941.87 3312.93,3941.64 3316.03,3940.52 3319.12,3940.06 3322.22,3940.29 3325.32,3941.19 3328.42,3941.42 3331.51,3941.42 3334.61,3940.97 3337.71,3939.39 3340.8,3936.45 3343.9,3934.2 3347,3932.62 3350.1,3929.68 3353.19,3924.94 3356.29,3919.52 3359.39,3912.07 3362.48,3905.75 3365.58,3901.92 3368.68,3899.66 3371.78,3896.05 3374.87,3890.18 3377.97,3881.6 3381.07,3872.12 3384.17,3861.28 3387.26,3849.77 3390.36,3838.94 3393.46,3828.78 3396.55,3818.17 3399.65,3807.33 3402.75,3792.89 3405.85,3780.92 3408.94,3768.28 3412.04,3753.83 3415.14,3739.84 3418.23,3721.78 3421.33,3697.17 3424.43,3666.02 3427.53,3636.23 3430.62,3607.33 3433.72,3578.21 3436.82,3548.42 3439.91,3519.75 3443.01,3491.08 3446.11,3462.19 3449.21,3434.19 3452.3,3410.94 3455.4,3414.33 3458.5,3393.79 3461.59,3369.18 3464.69,3343 3467.79,3314.1 3470.89,3282.73 3473.98,3256.99 3477.08,3233.07 3480.18,3212.52 3483.28,3194.46 3486.37,3183.18 3489.47,3173.47 3492.57,3163.31 3495.66,3152.03 3498.76,3139.16 3501.86,3125.62 3504.96,3110.04 3508.05,3090.4 3511.15,3043 3514.25,3018.84 3517.34,2996.04 3520.44,2974.83 3523.54,2957.44 3526.64,2939.16 3529.73,2917.71 3532.83,2898.08 3535.93,2883.18 3539.02,2893.11 3542.12,2908.23 3545.22,2903.27 3548.32,2916.81 3551.41,2933.29 3554.51,2953.16 3557.61,2977.99 3560.7,3023.81 3563.8,3074.6 3566.9,3117.04 3570,3161.51 3573.09,3204.62 3576.19,3250.67 3579.29,3298.53 3582.39,3352.48 3585.48,3410.04 3588.58,3466.7 3591.68,3521.55 3594.77,3551.35 3597.87,3572.34 3600.97,3617.72 3604.07,3651.35 3607.16,3687.47 3610.26,3716.14 3613.36,3739.84 3616.45,3745.03 3619.55,3745.03 3622.65,3755.41 3625.75,3768.28 3628.84,3784.53 3631.94,3798.53 3635.04,3812.07 3638.13,3826.29 3641.23,3838.03 3644.33,3852.25 3647.43,3866.25 3650.52,3879.34 3653.62,3889.95 3656.72,3895.59 3659.82,3895.14 3662.91,3892.66 3666.01,3898.53 3669.11,3905.98 3672.2,3913.2 3675.3,3918.85 3678.4,3922.68 3681.5,3926.29 3684.59,3930.36 3687.69,3935.55 3690.79,3940.52 3693.88,3944.13 3696.98,3946.38 3700.08,3947.51 3703.18,3947.97 3706.27,3948.42 3709.37,3950.45 3712.47,3953.61 3715.56,3956.99 3718.66,3958.35 3721.76,3958.57 3724.86,3958.12 3727.95,3956.32 3731.05,3957.67 3734.15,3961.06 3737.24,3964.9 3740.34,3965.57 3743.44,3965.35 3746.54,3965.12 3749.63,3964.67 3752.73,3966.25 3755.83,3967.83 3758.93,3968.28 3762.02,3967.15 3765.12,3963.99 3768.22,3961.06 3771.31,3959.93 3774.41,3960.15 3777.51,3960.38 3780.61,3960.15 3783.7,3959.25 3786.8,3958.8 3789.9,3957.22 3792.99,3954.74 3796.09,3954.74 3799.19,3956.77 3802.29,3959.93 3805.38,3960.38 3808.48,3959.93 3811.58,3959.7 3814.67,3961.28 3817.77,3964.44 3820.87,3968.96 3823.97,3973.7 3827.06,3975.28 3830.16,3977.08 3833.26,3978.21 3836.35,3979.79 3839.45,3983.18 3842.55,3985.66 3845.65,3988.37 3848.74,3991.08 3851.84,3994.01 3854.94,3995.37 3858.04,3995.59 3861.13,3998.08 3864.23,4001.01 3867.33,4004.17 3870.42,4005.3 3873.52,4004.85 3876.62,4003.5 3879.72,4001.46 3882.81,4001.46 3885.91,4001.24 3889.01,4001.92 3892.1,4001.46 3895.2,4000.11 3898.3,3998.08 3901.4,3995.14 3904.49,3992.66 3907.59,3990.63 3910.69,3989.27 3913.78,3987.02 3916.88,3984.31 3919.98,3981.15 3923.08,3977.31 3926.17,3975.5 3929.27,3975.05 3932.37,3975.73 3935.47,3974.38 3938.56,3972.12 3941.66,3968.06 3944.76,3963.99 3947.85,3959.7 3950.95,3956.77 3954.05,3955.87 3957.15,3954.29 3960.24,3951.8 3963.34,3948.19 3966.44,3942.1 3969.53,3936.45 3972.63,3932.84 3975.73,3929.68 3978.83,3925.17 3981.92,3919.07 3985.02,3912.07 3988.12,3903.27 3991.21,3897.63 3994.31,3891.53 3997.41,3886.57 4000.51,3880.7 4003.6,3875.5 4006.7,3871.67 4009.8,3871.22 4012.89,3871.89 4015.99,3873.47 4019.09,3875.5 4022.19,3872.57 4025.28,3867.6 4028.38,3862.19 4031.48,3855.41 4034.58,3850.67 4037.67,3848.87 4040.77,3851.58 4043.87,3854.51 4046.96,3855.41 4050.06,3857.9 4053.16,3858.35 4056.26,3858.35 4059.35,3861.28 4062.45,3864.67 4065.55,3857.45 4068.64,3849.54 4071.74,3839.39 4074.84,3827.2 4077.94,3823.36 4081.03,3825.39 4084.13,3830.58 4087.23,3833.29 4090.32,3832.84 4093.42,3829.23 4096.52,3820.88 4099.62,3814.1 4102.71,3812.07 4105.81,3813.43 4108.91,3813.43 4112,3812.52 4115.1,3808.01 4118.2,3800.33 4121.3,3801.69 4124.39,3809.59 4127.49,3821.33 4130.59,3829.45 4133.69,3833.74 4136.78,3834.2 4139.88,3831.71 4142.98,3833.97 4146.07,3840.52 4149.17,3849.09 4152.27,3855.41 4155.37,3859.7 4158.46,3858.35 4161.56,3852.93 4164.66,3853.16 4167.75,3858.35 4170.85,3866.7 4173.95,3872.57 4177.05,3875.28 4180.14,3872.12 4183.24,3866.25 4186.34,3867.83 4189.43,3872.12 4192.53,3877.99 4195.63,3880.47 4198.73,3881.15 4201.82,3879.79 4204.92,3875.96 4208.02,3875.73 4211.11,3879.57 4214.21,3888.82 4217.31,3898.75 4220.41,3903.5 4223.5,3902.14 4226.6,3897.63 4229.7,3899.43 4232.8,3902.37 4235.89,3906.66 4238.99,3912.07 4242.09,3915.91 4245.18,3918.39 4248.28,3919.75 4251.38,3922.01 4254.48,3925.62 4257.57,3930.13 4260.67,3935.32 4263.77,3938.71 4266.86,3939.16 4269.96,3937.36 4273.06,3936.23 4276.16,3938.26 4279.25,3943.68 4282.35,3949.77 4285.45,3952.93 4288.54,3954.96 4291.64,3955.64 4294.74,3956.99 4297.84,3958.12 4300.93,3961.06 4304.03,3961.96 4307.13,3965.12 4310.23,3967.15 4313.32,3968.96 4316.42,3971.89 4319.52,3976.86 4322.61,3982.28 4325.71,3985.66 4328.81,3987.69 4331.91,3989.27 4335,3990.18 4338.1,3991.76 4341.2,3992.66 4344.29,3993.79 4347.39,3996.27 4350.49,3996.95 4353.59,3996.95 4356.68,3996.5 4359.78,3998.76 4362.88,4000.11 4365.97,4002.14 4369.07,4004.17 4372.17,4004.4 4375.27,4003.27 4378.36,4002.14 4381.46,4001.92 4384.56,4002.37 4387.65,4003.27 4390.75,4003.72 4393.85,4003.95 4396.95,4004.85 4400.04,4005.3 4403.14,4005.3 4406.24,4005.75 4409.34,4006.88 4412.43,4007.33 4415.53,4007.33 4418.63,4007.33 4421.72,4007.33 4424.82,4007.33 4427.92,4008.46 4431.02,4009.59 4434.11,4010.04 4437.21,4010.49 4440.31,4010.72 4443.4,4010.94 4446.5,4011.85 4449.6,4012.52 4452.7,4012.98 4455.79,4013.43 4458.89,4013.2 4461.99,4013.65 4465.08,4013.43 4468.18,4013.65 4471.28,4012.75 4474.38,4012.52 4477.47,4012.3 4480.57,4011.85 4483.67,4011.85 4486.76,4011.4 4489.86,4011.62 4492.96,4012.07 4496.06,4012.75 4499.15,4012.98 4502.25,4013.2 4505.35,4012.98 4508.45,4012.98 4511.54,4012.52 4514.64,4012.52 4517.74,4012.52 4520.83,4012.52 4523.93,4012.75 4527.03,4013.65 4530.13,4013.88 4533.22,4014.11 4536.32,4014.33 4539.42,4014.33 4542.51,4015.01 4545.61,4015.46 4548.71,4015.46 4551.81,4015.46 4554.9,4015.23 4558,4015.46 4561.1,4016.14 4564.19,4015.69 4567.29,4015.91 4570.39,4015.91 4573.49,4015.91 4576.58,4016.14 4579.68,4016.36 4582.78,4016.59 4585.87,4016.36 4588.97,4016.36 4592.07,4016.14 4595.17,4015.69 4598.26,4015.01 4601.36,4015.01 4604.46,4015.23 4607.56,4014.78 4610.65,4015.23 4613.75,4015.01 4616.85,4014.78 4619.94,4015.01 4623.04,4015.23 4626.14,4015.46 4629.24,4014.78 4632.33,4013.88 4635.43,4013.88 4638.53,4013.2 4641.62,4012.98 4644.72,4012.3 4647.82,4012.75 4650.92,4012.75 4654.01,4012.98 4657.11,4012.75 4660.21,4012.75 4663.3,4012.07 4666.4,4011.85 4669.5,4012.07 4672.6,4011.62 4675.69,4009.82 4678.79,4008.46 4681.89,4007.11 4684.99,4007.11 4688.08,4008.24 4691.18,4008.24 4694.28,4006.88 4697.37,4006.88 4700.47,4006.43 4703.57,4005.75 4706.67,4006.2 4709.76,4006.66 4712.86,4006.88 4715.96,4005.98 4719.05,4005.53 4722.15,4005.3 4725.25,4003.95 4728.35,4003.95 4731.44,4005.98 4734.54,4007.33 4737.64,4006.88 4740.73,4005.75 4743.83,4005.08 4746.93,4003.04 4750.03,4003.5 4753.12,4003.72 4756.22,4004.85 4759.32,4002.59 4762.41,3999.66 4765.51,3997.85 4768.61,3994.69 4771.71,3994.92 4774.8,3995.59 4777.9,3995.82 4781,3991.76 4784.1,3989.05 4787.19,3984.76 4790.29,3980.24 4793.39,3978.66 4796.48,3976.63 4799.58,3975.28 4802.68,3977.31 4805.78,3972.12 4808.87,3966.02 4811.97,3958.57 4815.07,3952.93 4818.16,3952.93 4821.26,3953.38 4824.36,3947.51 4827.46,3941.19 4830.55,3933.97 4833.65,3923.59 4836.75,3920.2 4839.84,3920.65 4842.94,3923.81 4846.04,3919.07 4849.14,3910.49 4852.23,3903.27 4855.33,3892.43 4858.43,3878.21 4861.52,3877.54 4864.62,3880.24 4867.72,3877.08 4870.82,3870.54 4873.91,3854.06 4877.01,3835.32 4880.11,3822.68 4883.21,3808.91 4886.3,3801.92 4889.4,3792.21 4892.5,3782.95 4895.59,3763.99 4898.69,3743.45 4901.79,3730.58 4904.89,3726.29 4907.98,3730.58 4911.08,3721.1 4914.18,3715.91 4917.27,3704.17 4920.37,3685.89 4923.47,3677.99 4926.57,3682.95 4929.66,3699.88 4932.76,3695.37 4935.86,3694.92 4938.95,3692.89 4942.05,3687.92 4945.15,3688.6 4948.25,3702.59 4951.34,3721.78 4954.44,3727.2 4957.54,3735.55 4960.63,3736.45 4963.73,3735.1 4966.83,3748.19 4969.93,3766.25 4973.02,3785.21 4976.12,3803.27 4979.22,3820.65 4982.32,3826.07 4985.41,3827.65 4988.51,3850.45 4991.61,3871.22 4994.7,3894.01 4997.8,3909.82 5000.9,3924.94 5004,3924.71 5007.09,3922.91 5010.19,3936 5013.29,3949.77 5016.38,3964.67 5019.48,3968.51 5022.58,3975.28 5025.68,3974.38 5028.77,3972.8 5031.87,3973.7 5034.97,3974.6 5038.06,3979.12 5041.16,3977.99 5044.26,3977.54 5047.36,3975.96 5050.45,3974.15 5053.55,3976.41 5056.65,3980.47 5059.75,3984.53 5062.84,3986.34 5065.94,3987.69 5069.04,3984.99 5072.13,3983.63 5075.23,3986.11 5078.33,3988.37 5081.43,3989.95 5084.52,3989.73 5087.62,3991.76 5090.72,3989.73 5093.81,3986.34 5096.91,3987.47 5100.01,3989.5 5103.11,3991.53 5106.2,3992.66 5109.3,3990.85 5112.4,3989.05 5115.49,3986.79 5118.59,3987.92 5121.69,3989.5 5124.79,3991.98 5127.88,3992.66 5130.98,3992.89 5134.08,3990.4 5137.17,3988.37 5140.27,3989.95 5143.37,3990.63 5146.47,3991.76 5149.56,3994.47 5152.66,3991.53 5155.76,3988.82 5158.86,3987.47 5161.95,3986.79 5165.05,3990.4 5168.15,3992.66 5171.24,3992.66 5174.34,3992.43 5177.44,3991.76 5180.54,3990.85 5183.63,3991.08 5186.73,3992.21 5189.83,3994.92 5192.92,3996.27 5196.02,3995.37 5199.12,3994.69 5202.22,3993.56 5205.31,3994.01 5208.41,3997.85 5211.51,4000.34 5214.6,4001.24 5217.7,4001.24 5220.8,4001.01 5223.9,3999.21 5226.99,4001.01 5230.09,4002.59 5233.19,4003.5 5236.28,4003.95 5239.38,4003.72 5242.48,4003.5 5245.58,4003.04 5248.67,4003.5 5251.77,4004.85 5254.87,4005.75 5257.97,4006.66 5261.06,4005.98 5264.16,4004.62 5267.26,4004.17 5270.35,4005.53 5273.45,4006.66 5276.55,4007.11 5279.65,4008.24 5282.74,4008.01 5285.84,4007.33 5288.94,4006.43 5292.03,4006.66 5295.13,4007.78 5298.23,4008.46 5301.33,4008.46 5304.42,4008.01 5307.52,4007.33 5310.62,4007.33 5313.71,4008.46 5316.81,4008.91 5319.91,4008.91 5323.01,4009.14 5326.1,4008.24 5329.2,4007.56 5332.3,4005.3 5335.4,4003.95 5338.49,4003.04 5341.59,4003.04 5344.69,4003.04 5347.78,4003.5 5350.88,4003.5 5353.98,4003.27 5357.08,4003.27 5360.17,4004.17 5363.27,4004.85 5366.37,4004.62 5369.46,4003.95 5372.56,4003.72 5375.66,4005.08 5378.76,4005.75 5381.85,4006.66 5384.95,4007.33 5388.05,4008.01 5391.14,4008.24 5394.24,4009.59 5397.34,4010.49 5400.44,4010.94 5403.53,4010.94 5406.63,4010.94 5409.73,4010.94 5412.82,4011.4 5415.92,4011.62 5419.02,4010.94 5422.12,4010.72 5425.21,4011.17 5428.31,4012.07 5431.41,4012.07 5434.51,4010.72 5437.6,4009.59 5440.7,4009.82 5443.8,4011.17 5446.89,4012.98 5449.99,4013.43 5453.09,4012.07 5456.19,4011.85 5459.28,4011.4 5462.38,4010.94 5465.48,4010.49 5468.57,4010.49 5471.67,4010.72 5474.77,4010.72 5477.87,4010.27 5480.96,4010.72 5484.06,4010.72 5487.16,4010.04 5490.25,4011.17 5493.35,4012.3 5496.45,4012.07 5499.55,4011.85 5502.64,4010.94 5505.74,4010.49 5508.84,4011.85 5511.93,4012.52 5515.03,4012.98 5518.13,4012.75 5521.23,4013.2 5524.32,4013.2 5527.42,4013.2 5530.52,4013.88 5533.62,4014.78 5536.71,4014.78 5539.81,4014.33 5542.91,4014.33 5546,4013.88 5549.1,4013.88 5552.2,4014.11 5555.3,4014.56 5558.39,4015.46 5561.49,4015.69 5564.59,4015.46 5567.68,4015.46 5570.78,4015.23 5573.88,4015.91 5576.98,4016.14 5580.07,4016.14 5583.17,4015.23 5586.27,4014.78 5589.36,4014.56 5592.46,4014.56 5595.56,4014.78 5598.66,4015.46 5601.75,4016.14 5604.85,4014.56 5607.95,4013.2 5611.04,4012.07 5614.14,4012.07 5617.24,4011.4 5620.34,4011.17 5623.43,4011.17 5626.53,4010.94 5629.63,4009.36 5632.73,4008.24 5635.82,4007.56 5638.92,4007.56 5642.02,4008.01 5645.11,4008.24 5648.21,4006.2 5651.31,4005.53 5654.41,4004.17 5657.5,4003.5 5660.6,4004.4 5663.7,4005.08 5666.79,4006.2 5669.89,4004.17 5672.99,4002.82 5676.09,4001.24 5679.18,3998.76 5682.28,3996.72 5685.38,3997.18 5688.47,3998.3 5691.57,3996.95 5694.67,3996.72 5697.77,3995.59 5700.86,3993.11 5703.96,3992.89 5707.06,3992.89 5710.16,3994.01 5713.25,3992.66 5716.35,3990.85 5719.45,3989.73 5722.54,3987.02 5725.64,3986.79 5728.74,3988.15 5731.84,3990.18 5734.93,3990.4 5738.03,3991.53 5741.13,3991.31 5744.22,3989.05 5747.32,3987.92 5750.42,3988.6 5753.52,3989.5 5756.61,3988.37 5759.71,3985.21 5762.81,3981.37 5765.9,3977.99 5769,3974.83 5772.1,3977.08 5775.2,3978.89 5778.29,3977.99 5781.39,3976.18 5784.49,3974.6 5787.58,3972.57 5790.68,3970.76 5793.78,3971.67 5796.88,3973.02 5799.97,3972.34 5803.07,3971.89 5806.17,3969.64 5809.27,3967.6 5812.36,3970.09 5815.46,3974.15 5818.56,3978.89 5821.65,3979.79 5824.75,3980.7 5827.85,3979.34 5830.95,3977.31 5834.04,3979.12 5837.14,3982.73 5840.24,3984.99 5843.33,3986.11 5846.43,3987.02 5849.53,3985.89 5852.63,3983.18 5855.72,3982.28 5858.82,3985.21 5861.92,3987.92 5865.01,3987.02 5868.11,3986.11 5871.21,3985.66 5874.31,3982.95 5877.4,3983.18 5880.5,3986.11 5883.6,3987.47 5886.69,3987.02 5889.79,3984.76 5892.89,3981.37 5895.99,3979.57 5899.08,3976.63 5902.18,3979.12 5905.28,3980.7 5908.38,3982.05 5911.47,3984.53 5914.57,3983.18 5917.67,3981.83 5920.76,3984.08 5923.86,3984.53 5926.96,3986.34 5930.06,3989.05 5933.15,3990.4 5936.25,3988.82 5939.35,3988.15 5942.44,3989.73 5945.54,3993.34 5948.64,3997.18 5951.74,3997.85 5954.83,3999.21 5957.93,3999.88 5961.03,3998.53 5964.12,3998.98 5967.22,4000.11 5970.32,4001.92 5973.42,4001.24 5976.51,4001.69 5979.61,4001.69 5982.71,3998.3 5985.8,3996.95 5988.9,3997.63 5992,4000.34 5995.1,3999.43 5998.19,3998.08 6001.29,3997.18 6004.39,3996.72 6007.49,3996.5 6010.58,3998.53 6013.68,3998.3 6016.78,3998.3 6019.87,3997.4 6022.97,3995.59 6026.07,3995.14 6029.17,3995.82 6032.26,3996.05 6035.36,3997.63 6038.46,4000.34 6041.55,4000.56 6044.65,3999.88 6047.75,3998.08 6050.85,3998.76 6053.94,4000.56 6057.04,4001.92 6060.14,4001.24 6063.23,4000.56 6066.33,3999.66 6069.43,3996.95 6072.53,3997.63 6075.62,3998.76 6078.72,4000.56 6081.82,4000.11 6084.92,4000.56 6088.01,3998.76 6091.11,3997.18 6094.21,3997.63 6097.3,3996.5 6100.4,3996.95 6103.5,3998.76 6106.6,3999.66 6109.69,4000.11 6112.79,3999.66 6115.89,4000.11 6118.98,4002.37 6122.08,4003.72 6125.18,4005.75 6128.28,4006.43 6131.37,4006.88 6134.47,4006.66 6137.57,4006.88 6140.66,4007.56 6143.76,4009.59 6146.86,4009.36 6149.96,4006.88 6153.05,4008.46 6156.15,4008.46 6159.25,4008.69 6162.34,4008.91 6165.44,4008.91 6168.54,4008.69 6171.64,4008.46 6174.73,4008.24 6177.83,4006.66 6180.93,4007.33 6184.03,4007.33 6187.12,4007.56 6190.22,4007.33 6193.32,4008.01 6196.41,4008.01 6199.51,4007.78 6202.61,4008.24 6205.71,4010.72 6208.8,4011.17 6211.9,4010.27 6215,4009.82 6218.09,4009.59 6221.19,4009.59 6224.29,4009.59 6227.39,4010.49 6230.48,4010.72 6233.58,4011.62 6236.68,4010.94 6239.77,4010.49 6242.87,4010.49 6245.97,4010.04 6249.07,4010.04 6252.16,4010.27 6255.26,4010.27 6258.36,4010.49 6261.45,4010.72 6264.55,4010.04 6267.65,4011.4 6270.75,4011.85 6273.84,4012.07 6276.94,4011.62 6280.04,4011.85 6283.14,4011.62 6286.23,4010.94 6289.33,4011.17 6292.43,4011.62 6295.52,4012.07 6298.62,4012.07 6301.72,4012.3 6304.82,4012.07 6307.91,4011.4 6311.01,4011.4 6314.11,4012.07 6317.2,4012.07 6320.3,4012.3 6323.4,4012.3 6326.5,4011.85 6329.59,4011.85 6332.69,4011.62 6335.79,4012.07 6338.88,4011.85 6341.98,4012.52 6345.08,4012.98 6348.18,4013.2 6351.27,4013.2 6354.37,4012.52 6357.47,4012.98 6360.56,4013.43 6363.66,4014.11 6366.76,4014.11 6369.86,4014.33 6372.95,4014.33 6376.05,4013.65 6379.15,4013.88 6382.25,4014.33 6385.34,4013.87 6388.44,4013.68 6391.54,4012.45 6394.63,4011.35 6397.73,4009.51 6400.83,4007.41 6403.93,4005.33 6407.02,4002.85 6410.12,4000.91 6413.22,3998.64 6416.31,3995.85 6419.41,3993.04 6422.51,3990.47 6425.61,3987.95 6428.7,3985.29 6431.8,3984.1 6434.9,3981.73 6437.99,3979.55 6441.09,3978.08 6444.19,3977.28 6447.29,3977.16 6450.38,3977.7 6453.48,3978.82 6456.58,3980.44 6459.68,3982.46 6462.77,3984.8 6465.87,3987.37 6468.97,3990.07 6472.06,3992.83 6475.16,3995.59 6478.26,3998.33 6481.36,4001.01 6484.45,4003.59 6487.55,4006.05 6490.65,4008.33 6493.74,4010.42 6496.84,4012.28 6499.94,4013.87 6503.04,4015.17 6506.13,4016.17 6509.23,4016.89 6512.33,4017.36 6515.42,4017.65 6518.52,4017.79 6521.62,4017.84 6524.72,4017.86 6527.81,4017.89 6530.91,4017.57 6534.01,4016.95 6537.1,4016.11 6540.2,4015.42 6543.3,4014.92 6546.4,4014.61 6549.49,4014.46 6552.59,4014.43 6555.69,4014.5 6558.79,4014.54 6561.88,4014.56 6564.98,4014.56 6568.08,4014.56 6571.17,4014.56 6574.27,4014.56 6577.37,4014.56 6580.47,4014.56 6583.56,4014.56 6586.66,4014.93 6589.76,4015.61 6592.85,4016.52 6595.95,4017.29 6599.05,4017.87 6602.15,4018.27 6605.24,4018.51 6608.34,4018.62 6611.44,4018.55 6614.53,4018.25 6617.63,4018.01 6620.73,4017.85 6623.83,4017.76 6626.92,4017.72 6630.02,4017.72 6633.12,4017.72 6636.21,4017.72 6639.31,4017.72 6642.41,4017.72 6645.51,4017.72 6648.6,4017.72 6651.7,4017.71 6654.8,4017.67 6657.9,4017.63 6660.99,4017.59 6664.09,4017.56 6667.19,4017.62 6670.28,4017.89 6673.38,4018.08 6676.48,4018.15 6679.58,4018.09 6682.67,4017.89 6685.77,4017.56 6688.87,4017.12 6691.96,4016.59 6695.06,4016.02 6698.16,4015.44 6701.26,4014.87 6704.35,4014.36 6707.45,4013.96 6710.55,4013.7 6713.64,4013.54 6716.74,4013.44 6719.84,4013.37 6722.94,4013.3 6726.03,4013.2 6729.13,4013.07 6732.23,4012.9 6735.33,4012.73 6738.42,4012.59 6741.52,4012.53 6744.62,4012.57 6747.71,4012.71 6750.81,4012.94 6753.91,4013.23 6757.01,4013.55 6760.1,4013.85 6763.2,4014.09 6766.3,4014.23 6769.39,4014.29 6772.49,4014.29 6775.59,4014.24 6778.69,4014.19 6781.78,4014.15 6784.88,4014.17 6787.98,4014.26 6791.07,4014.41 6794.17,4014.61 6797.27,4014.82 6800.37,4015.04 6803.46,4015.22 6806.56,4015.35 6809.66,4015.41 6812.75,4015.39 6815.85,4015.3 6818.95,4015.15 6822.05,4014.97 6825.14,4014.77 6828.24,4014.59 6831.34,4014.44 6834.44,4014.35 6837.53,4014.33 6840.63,4014.39 6843.73,4014.51 6846.82,4014.66 6849.92,4014.8 6853.02,4014.9 6856.12,4014.95 6859.21,4014.9 6862.31,4014.75 6865.41,4014.5 6868.5,4014.19 6871.6,4013.83 6874.7,4013.44 6877.8,4013.04 6880.89,4012.62 6883.99,4012.19 6887.09,4011.73 6890.18,4011.23 6893.28,4010.69 6896.38,4010.09 6899.48,4009.47 6902.57,4008.86 6905.67,4008.3 6908.77,4007.8 6911.86,4007.41 6914.96,4007.15 6918.06,4007.04 6921.16,4007.05 6924.25,4007.18 6927.35,4007.4 6930.45,4007.69 6933.55,4008.03 6936.64,4008.4 6939.74,4008.79 6942.84,4009.18 6945.93,4009.58 6949.03,4009.97 6952.13,4010.36 6955.23,4010.72 6958.32,4011.05 6961.42,4011.33 6964.52,4011.56 6967.61,4011.75 6970.71,4011.88 6973.81,4011.97 6976.91,4012.03 6980,4012.07 6983.1,4012.11 6986.2,4012.15 6989.29,4012.2 6992.39,4012.27 6995.49,4012.35 6998.59,4012.43 7001.68,4012.5 7004.78,4012.55 7007.88,4012.57 7010.97,4012.57 7014.07,4012.53 7017.17,4012.46 7020.27,4012.38 7023.36,4012.28 7026.46,4012.17 7029.56,4012.05 7032.66,4011.9 7035.75,4011.72 7038.85,4011.51 7041.95,4011.27 7045.04,4011.01 7048.14,4010.74 7051.24,4010.48 7054.34,4010.25 7057.43,4010.07 7060.53,4009.94 7063.63,4009.86 7066.72,4009.81 7069.82,4009.8 7072.92,4009.82 7076.02,4009.83 7079.11,4009.85 7082.21,4009.85 7085.31,4009.85 7088.4,4009.85 7091.5,4009.85 7094.6,4009.85 7097.7,4009.82 7100.79,4009.76 7103.89,4009.67 7106.99,4009.54 7110.09,4009.35 7113.18,4009.12 7116.28,4008.84 7119.38,4008.56 7122.47,4008.28 7125.57,4008.01 7128.67,4007.73 7131.77,4007.46 7134.86,4007.18 7137.96,4006.87 7141.06,4006.52 7144.15,4006.1 7147.25,4005.63 7150.35,4005.14 7153.45,4004.63 7156.54,4004.14 7159.64,4003.68 7162.74,4003.27 7165.83,4002.91 7168.93,4002.59 7172.03,4002.29 7175.13,4001.98 7178.22,4001.65 7181.32,4001.28 7184.42,4000.89 7187.51,4000.47 7190.61,4000.06 7193.71,3999.67 7196.81,3999.34 7199.9,3999.08 7203,3998.88 7206.1,3998.73 "/>
<path clip-path="url(#clip190)" d="M484.072 343.654 L1457.39 343.654 L1457.39 245.391 L484.072 245.391  Z" fill="#ffffff" fill-rule="evenodd" fill-opacity="1"/>
<polyline clip-path="url(#clip190)" style="stroke:#000000; stroke-linecap:round; stroke-linejoin:round; stroke-width:4; stroke-opacity:1; fill:none" points="484.072,343.654 1457.39,343.654 1457.39,245.391 484.072,245.391 484.072,343.654 "/>
<polyline clip-path="url(#clip190)" style="stroke:#0000ff; stroke-linecap:round; stroke-linejoin:round; stroke-width:8; stroke-opacity:1; fill:none" points="563.667,294.523 1041.24,294.523 "/>
<g clip-path="url(#clip190)">
<text style="fill:#000000; fill-opacity:1; font-family:Century Gothic,CenturyGothic,AppleGothic,sans-serif; font-size:47px; text-anchor:start;" transform="rotate(0, 1120.83, 312.023)" x="1120.83" y="312.023">Total Cases</text>
</g>
</svg>
