<?xml version="1.0" encoding="utf-8"?>
<svg xmlns="http://www.w3.org/2000/svg" xmlns:xlink="http://www.w3.org/1999/xlink" width="1920" height="1080" viewBox="0 0 7680 4320">
<defs>
  <clipPath id="clip510">
    <rect x="0" y="0" width="7680" height="4320"/>
  </clipPath>
</defs>
<path clip-path="url(#clip510)" d="M0 4320 L7680 4320 L7680 0 L0 0  Z" fill="#ffffff" fill-rule="evenodd" fill-opacity="1"/>
<defs>
  <clipPath id="clip511">
    <rect x="411" y="97" width="7223" height="4036"/>
  </clipPath>
</defs>
<path clip-path="url(#clip510)" d="M411.04 4132.42 L7632.76 4132.42 L7632.76 97.5375 L411.04 97.5375  Z" fill="#ffffff" fill-rule="evenodd" fill-opacity="1"/>
<polyline clip-path="url(#clip511)" style="stroke:#000000; stroke-linecap:round; stroke-linejoin:round; stroke-width:2; stroke-opacity:0.3; fill:none" points="1471.56,4132.42 1471.56,97.5375 "/>
<polyline clip-path="url(#clip511)" style="stroke:#000000; stroke-linecap:round; stroke-linejoin:round; stroke-width:2; stroke-opacity:0.3; fill:none" points="3866.09,4132.42 3866.09,97.5375 "/>
<polyline clip-path="url(#clip511)" style="stroke:#000000; stroke-linecap:round; stroke-linejoin:round; stroke-width:2; stroke-opacity:0.3; fill:none" points="6263.9,4132.42 6263.9,97.5375 "/>
<polyline clip-path="url(#clip511)" style="stroke:#000000; stroke-linecap:round; stroke-linejoin:round; stroke-width:2; stroke-opacity:0.3; fill:none" points="411.04,4018.98 7632.76,4018.98 "/>
<polyline clip-path="url(#clip511)" style="stroke:#000000; stroke-linecap:round; stroke-linejoin:round; stroke-width:2; stroke-opacity:0.3; fill:none" points="411.04,3321.1 7632.76,3321.1 "/>
<polyline clip-path="url(#clip511)" style="stroke:#000000; stroke-linecap:round; stroke-linejoin:round; stroke-width:2; stroke-opacity:0.3; fill:none" points="411.04,2623.21 7632.76,2623.21 "/>
<polyline clip-path="url(#clip511)" style="stroke:#000000; stroke-linecap:round; stroke-linejoin:round; stroke-width:2; stroke-opacity:0.3; fill:none" points="411.04,1925.32 7632.76,1925.32 "/>
<polyline clip-path="url(#clip511)" style="stroke:#000000; stroke-linecap:round; stroke-linejoin:round; stroke-width:2; stroke-opacity:0.3; fill:none" points="411.04,1227.44 7632.76,1227.44 "/>
<polyline clip-path="url(#clip511)" style="stroke:#000000; stroke-linecap:round; stroke-linejoin:round; stroke-width:2; stroke-opacity:0.3; fill:none" points="411.04,529.55 7632.76,529.55 "/>
<polyline clip-path="url(#clip510)" style="stroke:#000000; stroke-linecap:round; stroke-linejoin:round; stroke-width:4; stroke-opacity:1; fill:none" points="411.04,4132.42 7632.76,4132.42 "/>
<polyline clip-path="url(#clip510)" style="stroke:#000000; stroke-linecap:round; stroke-linejoin:round; stroke-width:2; stroke-opacity:0.5; fill:none" points="411.04,97.5375 7632.76,97.5375 "/>
<polyline clip-path="url(#clip510)" style="stroke:#000000; stroke-linecap:round; stroke-linejoin:round; stroke-width:4; stroke-opacity:1; fill:none" points="1471.56,4132.42 1471.56,4113.53 "/>
<polyline clip-path="url(#clip510)" style="stroke:#000000; stroke-linecap:round; stroke-linejoin:round; stroke-width:4; stroke-opacity:1; fill:none" points="3866.09,4132.42 3866.09,4113.53 "/>
<polyline clip-path="url(#clip510)" style="stroke:#000000; stroke-linecap:round; stroke-linejoin:round; stroke-width:4; stroke-opacity:1; fill:none" points="6263.9,4132.42 6263.9,4113.53 "/>
<g clip-path="url(#clip510)">
<text style="fill:#000000; fill-opacity:1; font-family:Century Gothic,CenturyGothic,AppleGothic,sans-serif; font-size:47px; text-anchor:middle;" transform="rotate(0, 1471.56, 4235.93)" x="1471.56" y="4235.93">2021-01-01</text>
</g>
<g clip-path="url(#clip510)">
<text style="fill:#000000; fill-opacity:1; font-family:Century Gothic,CenturyGothic,AppleGothic,sans-serif; font-size:47px; text-anchor:middle;" transform="rotate(0, 3866.09, 4235.93)" x="3866.09" y="4235.93">2023-01-01</text>
</g>
<g clip-path="url(#clip510)">
<text style="fill:#000000; fill-opacity:1; font-family:Century Gothic,CenturyGothic,AppleGothic,sans-serif; font-size:47px; text-anchor:middle;" transform="rotate(0, 6263.9, 4235.93)" x="6263.9" y="4235.93">2025-01-01</text>
</g>
<g clip-path="url(#clip510)">
<text style="fill:#000000; fill-opacity:1; font-family:Century Gothic,CenturyGothic,AppleGothic,sans-serif; font-size:65px; text-anchor:middle;" transform="rotate(0, 4021.9, 4354.71)" x="4021.9" y="4354.71">Date</text>
</g>
<polyline clip-path="url(#clip510)" style="stroke:#000000; stroke-linecap:round; stroke-linejoin:round; stroke-width:4; stroke-opacity:1; fill:none" points="411.04,4132.42 411.04,97.5375 "/>
<polyline clip-path="url(#clip510)" style="stroke:#000000; stroke-linecap:round; stroke-linejoin:round; stroke-width:2; stroke-opacity:0.5; fill:none" points="7632.76,4132.42 7632.76,97.5375 "/>
<polyline clip-path="url(#clip510)" style="stroke:#000000; stroke-linecap:round; stroke-linejoin:round; stroke-width:4; stroke-opacity:1; fill:none" points="411.04,4018.98 429.938,4018.98 "/>
<polyline clip-path="url(#clip510)" style="stroke:#000000; stroke-linecap:round; stroke-linejoin:round; stroke-width:4; stroke-opacity:1; fill:none" points="411.04,3321.1 429.938,3321.1 "/>
<polyline clip-path="url(#clip510)" style="stroke:#000000; stroke-linecap:round; stroke-linejoin:round; stroke-width:4; stroke-opacity:1; fill:none" points="411.04,2623.21 429.938,2623.21 "/>
<polyline clip-path="url(#clip510)" style="stroke:#000000; stroke-linecap:round; stroke-linejoin:round; stroke-width:4; stroke-opacity:1; fill:none" points="411.04,1925.32 429.938,1925.32 "/>
<polyline clip-path="url(#clip510)" style="stroke:#000000; stroke-linecap:round; stroke-linejoin:round; stroke-width:4; stroke-opacity:1; fill:none" points="411.04,1227.44 429.938,1227.44 "/>
<polyline clip-path="url(#clip510)" style="stroke:#000000; stroke-linecap:round; stroke-linejoin:round; stroke-width:4; stroke-opacity:1; fill:none" points="411.04,529.55 429.938,529.55 "/>
<g clip-path="url(#clip510)">
<text style="fill:#000000; fill-opacity:1; font-family:Century Gothic,CenturyGothic,AppleGothic,sans-serif; font-size:47px; text-anchor:middle;" transform="rotate(0, 282.904, 4036.48)" x="282.904" y="4036.48">0</text>
</g>
<g clip-path="url(#clip510)">
<text style="fill:#000000; fill-opacity:1; font-family:Century Gothic,CenturyGothic,AppleGothic,sans-serif; font-size:47px; text-anchor:start;" transform="rotate(0, 78.3401, 3344.82)" x="78.3401" y="3344.82">2.500×10</text>
</g>
<g clip-path="url(#clip510)">
<text style="fill:#000000; fill-opacity:1; font-family:Century Gothic,CenturyGothic,AppleGothic,sans-serif; font-size:38px; text-anchor:start;" transform="rotate(0, 274.818, 3317.41)" x="274.818" y="3317.41">4</text>
</g>
<g clip-path="url(#clip510)">
<text style="fill:#000000; fill-opacity:1; font-family:Century Gothic,CenturyGothic,AppleGothic,sans-serif; font-size:47px; text-anchor:start;" transform="rotate(0, 78.3401, 2646.94)" x="78.3401" y="2646.94">5.000×10</text>
</g>
<g clip-path="url(#clip510)">
<text style="fill:#000000; fill-opacity:1; font-family:Century Gothic,CenturyGothic,AppleGothic,sans-serif; font-size:38px; text-anchor:start;" transform="rotate(0, 274.818, 2619.53)" x="274.818" y="2619.53">4</text>
</g>
<g clip-path="url(#clip510)">
<text style="fill:#000000; fill-opacity:1; font-family:Century Gothic,CenturyGothic,AppleGothic,sans-serif; font-size:47px; text-anchor:start;" transform="rotate(0, 78.3401, 1949.05)" x="78.3401" y="1949.05">7.500×10</text>
</g>
<g clip-path="url(#clip510)">
<text style="fill:#000000; fill-opacity:1; font-family:Century Gothic,CenturyGothic,AppleGothic,sans-serif; font-size:38px; text-anchor:start;" transform="rotate(0, 274.818, 1921.64)" x="274.818" y="1921.64">4</text>
</g>
<g clip-path="url(#clip510)">
<text style="fill:#000000; fill-opacity:1; font-family:Century Gothic,CenturyGothic,AppleGothic,sans-serif; font-size:47px; text-anchor:start;" transform="rotate(0, 78.3401, 1251.16)" x="78.3401" y="1251.16">1.000×10</text>
</g>
<g clip-path="url(#clip510)">
<text style="fill:#000000; fill-opacity:1; font-family:Century Gothic,CenturyGothic,AppleGothic,sans-serif; font-size:38px; text-anchor:start;" transform="rotate(0, 274.818, 1223.75)" x="274.818" y="1223.75">5</text>
</g>
<g clip-path="url(#clip510)">
<text style="fill:#000000; fill-opacity:1; font-family:Century Gothic,CenturyGothic,AppleGothic,sans-serif; font-size:47px; text-anchor:start;" transform="rotate(0, 78.3401, 553.278)" x="78.3401" y="553.278">1.250×10</text>
</g>
<g clip-path="url(#clip510)">
<text style="fill:#000000; fill-opacity:1; font-family:Century Gothic,CenturyGothic,AppleGothic,sans-serif; font-size:38px; text-anchor:start;" transform="rotate(0, 274.818, 525.867)" x="274.818" y="525.867">5</text>
</g>
<g clip-path="url(#clip510)">
<text style="fill:#000000; fill-opacity:1; font-family:Century Gothic,CenturyGothic,AppleGothic,sans-serif; font-size:65px; text-anchor:middle;" transform="rotate(-90, -46.8154, 2114.98)" x="-46.8154" y="2114.98">Total</text>
</g>
<g clip-path="url(#clip510)">
<text style="fill:#000000; fill-opacity:1; font-family:Century Gothic,CenturyGothic,AppleGothic,sans-serif; font-size:58px; text-anchor:middle;" transform="rotate(0, 4021.9, 51.6)" x="4021.9" y="51.6">Корличество заболевших (наблюдаемое vs интерполированное)</text>
</g>
<polyline clip-path="url(#clip511)" style="stroke:#009af9; stroke-linecap:round; stroke-linejoin:round; stroke-width:8; stroke-opacity:1; fill:none" points="615.429,4018.23 618.709,4018.09 621.989,4017.81 625.269,4017.75 628.549,4017.53 631.83,4017.36 635.11,4017.25 638.39,4017.14 641.67,4016.97 644.95,4016.39 648.23,4015.91 651.511,4015.52 654.791,4015.41 658.071,4015.02 661.351,4014.82 664.631,4014.71 667.912,4014.04 671.192,4013.54 674.472,4013.51 677.752,4013.01 681.032,4012.67 684.312,4012.2 687.593,4011.45 690.873,4011.25 694.153,4010.8 697.433,4010.38 700.713,4009.83 703.994,4009.52 707.274,4009.18 710.554,4008.74 713.834,4008.21 717.114,4007.68 720.394,4007.15 723.675,4006.39 726.955,4006.11 730.235,4005.19 733.515,4004.66 736.795,4003.82 740.076,4003.18 743.356,4002.46 746.636,4002.01 749.916,4001.42 753.196,4000.25 756.476,3998.8 759.757,3997.63 763.037,3995.98 766.317,3994.22 769.597,3993.58 772.877,3992.35 776.158,3989.22 779.438,3987.41 782.718,3986.52 785.998,3984.59 789.278,3983.56 792.558,3982.52 795.839,3980.85 799.119,3979.2 802.399,3976.13 805.679,3973.34 808.959,3970.41 812.24,3967.67 815.52,3965.92 818.8,3963.26 822.08,3961.84 825.36,3960.69 828.64,3958.04 831.921,3955.39 835.201,3953.3 838.481,3951.59 841.761,3950.37 845.041,3948.44 848.322,3947.41 851.602,3946.15 854.882,3944.53 858.162,3943 861.442,3942.02 864.722,3939.98 868.003,3938.73 871.283,3937.13 874.563,3936.16 877.843,3934.73 881.123,3934.01 884.404,3932.95 887.684,3932.19 890.964,3931.41 894.244,3930.43 897.524,3929.71 900.804,3929.26 904.085,3928.4 907.365,3928.06 910.645,3927.11 913.925,3926.11 917.205,3925.35 920.486,3924.85 923.766,3924.01 927.046,3923.48 930.326,3923.04 933.606,3922.56 936.886,3921.67 940.167,3920.33 943.447,3919.77 946.727,3918.99 950.007,3917.98 953.287,3917.57 956.568,3917.2 959.848,3916.09 963.128,3914.91 966.408,3913.99 969.688,3912.99 972.968,3911.95 976.249,3911.93 979.529,3911.81 982.809,3910.98 986.089,3910.42 989.369,3909.89 992.65,3909.33 995.93,3908.41 999.21,3907.82 1002.49,3907.29 1005.77,3906.26 1009.05,3905.37 1012.33,3904.28 1015.61,3903.33 1018.89,3902.02 1022.17,3901.32 1025.45,3900.57 1028.73,3899.53 1032.01,3898.56 1035.29,3897.55 1038.57,3896.6 1041.85,3895.21 1045.13,3894.54 1048.41,3893.39 1051.69,3892.61 1054.97,3891.77 1058.25,3891.1 1061.53,3890.49 1064.81,3889.59 1068.09,3889.51 1071.37,3888.84 1074.65,3888.2 1077.93,3887.47 1081.21,3886.52 1084.49,3885.94 1087.77,3885.24 1091.06,3884.65 1094.34,3884.09 1097.62,3883.34 1100.9,3882.84 1104.18,3881.78 1107.46,3880.88 1110.74,3880.3 1114.02,3879.91 1117.3,3879.38 1120.58,3878.57 1123.86,3877.81 1127.14,3876.86 1130.42,3875.69 1133.7,3874.6 1136.98,3873.93 1140.26,3873.29 1143.54,3872.59 1146.82,3871.7 1150.1,3870.47 1153.38,3869.33 1156.66,3868.29 1159.94,3867.9 1163.22,3866.95 1166.5,3866.12 1169.78,3865.06 1173.06,3863.72 1176.34,3862.35 1179.62,3860.95 1182.9,3859.33 1186.18,3857.94 1189.46,3856.57 1192.74,3855.54 1196.02,3854.28 1199.3,3852.72 1202.58,3850.96 1205.86,3849.26 1209.14,3847.47 1212.42,3845.68 1215.7,3843.87 1218.98,3841.78 1222.26,3839.35 1225.54,3836.86 1228.82,3834.13 1232.1,3831.75 1235.38,3829.02 1238.66,3826.31 1241.94,3823.27 1245.22,3820.2 1248.5,3817.13 1251.78,3814.06 1255.06,3810.82 1258.34,3807.61 1261.62,3804.54 1264.9,3801.27 1268.18,3797.95 1271.47,3794.68 1274.75,3791.33 1278.03,3787.81 1281.31,3784.46 1284.59,3781.17 1287.87,3777.63 1291.15,3774.05 1294.43,3771.68 1297.71,3768.08 1300.99,3764.45 1304.27,3760.62 1307.55,3756.49 1310.83,3752.25 1314.11,3748.06 1317.39,3743.6 1320.67,3738.85 1323.95,3734.19 1327.23,3729.58 1330.51,3725.03 1333.79,3720.31 1337.07,3715.65 1340.35,3710.94 1343.63,3706.19 1346.91,3701.3 1350.19,3696.34 1353.47,3691.31 1356.75,3686.15 1360.03,3680.7 1363.31,3675.29 1366.59,3669.84 1369.87,3664.4 1373.15,3658.85 1376.43,3653.29 1379.71,3647.76 1382.99,3623.2 1386.27,3616.22 1389.55,3608.29 1392.83,3598.94 1396.11,3591.37 1399.39,3583.08 1402.67,3573.87 1405.95,3564.69 1409.23,3555.53 1412.51,3545.82 1415.79,3535.79 1419.07,3525.83 1422.35,3515.36 1425.63,3504.39 1428.91,3493.36 1432.19,3482.36 1435.47,3471.25 1438.75,3459.64 1442.03,3447.3 1445.31,3435.69 1448.59,3423.82 1451.88,3412.71 1455.16,3401.66 1458.44,3390.66 1461.72,3379.63 1465,3368.69 1468.28,3360.23 1471.56,3352.7 1474.84,3346.97 1478.12,3340.13 1481.4,3334.69 1484.68,3327.94 1487.96,3320.65 1491.24,3315.99 1494.52,3310.88 1497.8,3305.16 1501.08,3298.48 1504.36,3292.09 1507.64,3285.25 1510.92,3279.7 1514.2,3272.05 1517.48,3266.91 1520.76,3259.35 1524.04,3253.48 1527.32,3248.38 1530.6,3242.88 1533.88,3239.19 1537.16,3233.75 1540.44,3229.2 1543.72,3224.15 1547,3221.58 1550.28,3217.53 1553.56,3215.77 1556.84,3213.04 1560.12,3209.24 1563.4,3204.47 1566.68,3200.28 1569.96,3195.67 1573.24,3192.46 1576.52,3191.29 1579.8,3188.47 1583.08,3185.01 1586.36,3180.46 1589.64,3178.14 1592.92,3175.54 1596.2,3174.43 1599.48,3172.17 1602.76,3170.05 1606.04,3168.23 1609.32,3165.02 1612.6,3161.92 1615.88,3159.02 1619.16,3157.4 1622.44,3155.75 1625.72,3153.8 1629.01,3150.59 1632.29,3148.05 1635.57,3144.84 1638.85,3141.74 1642.13,3138.47 1645.41,3136.97 1648.69,3135.21 1651.97,3133.2 1655.25,3131.1 1658.53,3128.42 1661.81,3125.8 1665.09,3123.04 1668.37,3120.55 1671.65,3117.98 1674.93,3115.47 1678.21,3112.76 1681.49,3110.14 1684.77,3107.4 1688.05,3104.92 1691.33,3103.44 1694.61,3102.49 1697.89,3100.4 1701.17,3097.77 1704.45,3095.06 1707.73,3092.41 1711.01,3089.84 1714.29,3088.39 1717.57,3086.55 1720.85,3084.65 1724.13,3082.61 1727.41,3080.66 1730.69,3078.73 1733.97,3076.84 1737.25,3075.08 1740.53,3073.04 1743.81,3070.92 1747.09,3068.99 1750.37,3067.01 1753.65,3065.73 1756.93,3064.3 1760.21,3062.43 1763.49,3060.28 1766.77,3057.8 1770.05,3055.26 1773.33,3053 1776.61,3050.79 1779.89,3049.37 1783.17,3047.97 1786.45,3046.74 1789.73,3044.87 1793.01,3042.92 1796.29,3041.05 1799.57,3039.21 1802.85,3037.84 1806.13,3036.19 1809.42,3034.77 1812.7,3032.81 1815.98,3030.78 1819.26,3028.79 1822.54,3026.87 1825.82,3025.5 1829.1,3023.96 1832.38,3022.32 1835.66,3020.67 1838.94,3018.74 1842.22,3016.57 1845.5,3015.14 1848.78,3013.89 1852.06,3012.43 1855.34,3010.62 1858.62,3008.69 1861.9,3006.68 1865.18,3004.17 1868.46,3002.02 1871.74,3000.1 1875.02,2998.67 1878.3,2997.7 1881.58,2996.33 1884.86,2995.21 1888.14,2993.62 1891.42,2992.14 1894.7,2990.69 1897.98,2989.26 1901.26,2987.73 1904.54,2986.84 1907.82,2985.25 1911.1,2983.43 1914.38,2981.56 1917.66,2980.14 1920.94,2978.49 1924.22,2976.98 1927.5,2976 1930.78,2974.94 1934.06,2973.49 1937.34,2972.57 1940.62,2971.87 1943.9,2970.45 1947.18,2969.05 1950.46,2967.6 1953.74,2966.12 1957.02,2965.15 1960.3,2964.17 1963.58,2963.61 1966.86,2962.3 1970.14,2961.1 1973.42,2959.84 1976.7,2958.7 1979.98,2957.61 1983.26,2956.52 1986.54,2955.6 1989.83,2954.4 1993.11,2953.14 1996.39,2951.8 1999.67,2950.41 2002.95,2949.18 2006.23,2947.92 2009.51,2946.67 2012.79,2945.3 2016.07,2943.82 2019.35,2942.2 2022.63,2940.44 2025.91,2938.79 2029.19,2937.01 2032.47,2935.08 2035.75,2932.99 2039.03,2930.7 2042.31,2928.19 2045.59,2925.45 2048.87,2922.46 2052.15,2919.31 2055.43,2916.29 2058.71,2913.08 2061.99,2909.71 2065.27,2906.16 2068.55,2902.45 2071.83,2898.68 2075.11,2894.8 2078.39,2890.89 2081.67,2886.93 2084.95,2882.91 2088.23,2878.8 2091.51,2874.73 2094.79,2870.82 2098.07,2866.88 2101.35,2863.25 2104.63,2859.63 2107.91,2856.02 2111.19,2852.31 2114.47,2848.65 2117.75,2845.08 2121.03,2841.54 2124.31,2838.05 2127.59,2834.56 2130.87,2831.01 2134.15,2827.44 2137.43,2823.95 2140.71,2820.54 2143.99,2817.11 2147.27,2813.76 2150.55,2810.52 2153.83,2807.23 2157.11,2804.02 2160.39,2800.7 2163.67,2797.46 2166.95,2794.22 2170.24,2791.01 2173.52,2787.8 2176.8,2784.64 2180.08,2781.57 2183.36,2778.56 2186.64,2775.43 2189.92,2772.39 2193.2,2769.43 2196.48,2766.56 2199.76,2763.57 2203.04,2760.53 2206.32,2757.54 2209.6,2754.64 2212.88,2751.79 2216.16,2748.77 2219.44,2745.84 2222.72,2742.94 2226,2740.09 2229.28,2737.16 2232.56,2734.37 2235.84,2731.55 2239.12,2728.84 2242.4,2725.91 2245.68,2723.04 2248.96,2720.38 2252.24,2717.68 2255.52,2714.91 2258.8,2712.37 2262.08,2709.91 2265.36,2707.43 2268.64,2705.06 2271.92,2702.49 2275.2,2699.98 2278.48,2697.55 2281.76,2695.2 2285.04,2692.66 2288.32,2690.01 2291.6,2687.5 2294.88,2684.96 2298.16,2682.42 2301.44,2679.74 2304.72,2677 2308,2674.29 2311.28,2671.73 2314.56,2669.02 2317.84,2666.17 2321.12,2663.18 2324.4,2659.92 2327.68,2656.48 2330.96,2652.94 2334.24,2649.31 2337.52,2645.63 2340.8,2641.75 2344.08,2637.59 2347.36,2633.45 2350.65,2629.16 2353.93,2624.83 2357.21,2620.39 2360.49,2615.81 2363.77,2611.12 2367.05,2606.29 2370.33,2601.21 2373.61,2595.88 2376.89,2590.38 2380.17,2584.83 2383.45,2579.16 2386.73,2573.32 2390.01,2567.24 2393.29,2560.96 2396.57,2554.57 2399.85,2548.09 2403.13,2541.53 2406.41,2534.91 2409.69,2528.13 2412.97,2521.23 2416.25,2514.2 2419.53,2507.11 2422.81,2500.02 2426.09,2492.79 2429.37,2485.5 2432.65,2477.99 2435.93,2470.34 2439.21,2462.5 2442.49,2454.63 2445.77,2446.76 2449.05,2438.97 2452.33,2431.12 2455.61,2423.2 2458.89,2415.13 2462.17,2407.03 2465.45,2398.99 2468.73,2391.04 2472.01,2383.05 2475.29,2375.12 2478.57,2367.11 2481.85,2359.02 2485.13,2350.87 2488.41,2342.74 2491.69,2334.68 2494.97,2326.47 2498.25,2318.23 2501.53,2310 2504.81,2301.82 2508.09,2293.58 2511.37,2285.43 2514.65,2277.42 2517.93,2269.46 2521.21,2261.45 2524.49,2253.52 2527.78,2245.65 2531.06,2237.95 2534.34,2230.36 2537.62,2222.9 2540.9,2215.64 2544.18,2208.5 2547.46,2201.66 2550.74,2195.07 2554.02,2188.82 2557.3,2182.84 2560.58,2177.2 2563.86,2171.68 2567.14,2166.29 2570.42,2161.01 2573.7,2155.71 2576.98,2150.49 2580.26,2145.32 2583.54,2140.16 2586.82,2135.14 2590.1,2130.14 2593.38,2125.2 2596.66,2120.26 2599.94,2115.34 2603.22,2110.49 2606.5,2105.68 2609.78,2100.88 2613.06,2096.05 2616.34,2091.28 2619.62,2086.53 2622.9,2081.84 2626.18,2077.18 2629.46,2072.52 2632.74,2068 2636.02,2063.48 2639.3,2059.09 2642.58,2054.71 2645.86,2050.38 2649.14,2046.14 2652.42,2041.9 2655.7,2037.65 2658.98,2033.61 2662.26,2029.7 2665.54,2026.35 2668.82,2023.03 2672.1,2020.1 2675.38,2017.33 2678.66,2015.18 2681.94,2013.01 2685.22,2010.83 2688.5,2008.73 2691.78,2006.61 2695.06,2004.49 2698.34,2002.29 2701.62,2000.08 2704.9,1997.68 2708.19,1995 2711.47,1991.9 2714.75,1988.41 2718.03,1984.64 2721.31,1980.74 2724.59,1976.85 2727.87,1972.84 2731.15,1968.76 2734.43,1964.52 2737.71,1960.08 2740.99,1955.33 2744.27,1950.28 2747.55,1944.89 2750.83,1939.28 2754.11,1933.36 2757.39,1927.08 2760.67,1920.47 2763.95,1913.51 2767.23,1906.34 2770.51,1898.44 2773.79,1890.21 2777.07,1881.27 2780.35,1870.97 2783.63,1859.27 2786.91,1846.6 2790.19,1832.45 2793.47,1817.46 2796.75,1801.07 2800.03,1782.95 2803.31,1763.33 2806.59,1742.11 2809.87,1719.47 2813.15,1695.41 2816.43,1670.85 2819.71,1645.02 2822.99,1618.45 2826.27,1590.62 2829.55,1561.53 2832.83,1533.67 2836.11,1506.56 2839.39,1479.51 2842.67,1453.36 2845.95,1427.34 2849.23,1401.52 2852.51,1375.92 2855.79,1350.24 2859.07,1324.41 2862.35,1298.82 2865.63,1274.06 2868.91,1250.36 2872.19,1228.3 2875.47,1207.34 2878.75,1187.63 2882.03,1169.93 2885.31,1157.34 2888.6,1150.84 2891.88,1139 2895.16,1128.98 2898.44,1120.86 2901.72,1116.11 2905,1113.26 2908.28,1106.28 2911.56,1099.36 2914.84,1092.49 2918.12,1085.68 2921.4,1079.07 2924.68,1073.4 2927.96,1069.02 2931.24,1062.71 2934.52,1056.45 2937.8,1050.9 2941.08,1045.46 2944.36,1041.27 2947.64,1038.34 2950.92,1037.56 2954.2,1033.37 2957.48,1029.32 2960.76,1026.22 2964.04,1023.26 2967.32,1020.69 2970.6,1018.38 2973.88,1016.17 2977.16,1013.44 2980.44,1010.62 2983.72,1007.97 2987,1005.42 2990.28,1002.91 2993.56,1000.51 2996.84,998.055 3000.12,995.571 3003.4,993.002 3006.68,990.63 3009.96,988.368 3013.24,985.856 3016.52,983.316 3019.8,980.915 3023.08,978.542 3026.36,976.56 3029.64,974.829 3032.92,973.266 3036.2,971.731 3039.48,970.251 3042.76,968.8 3046.04,967.069 3049.32,965.422 3052.6,963.803 3055.88,962.128 3059.16,960.593 3062.44,959.308 3065.72,958.22 3069.01,957.299 3072.29,956.489 3075.57,955.428 3078.85,954.312 3082.13,953.279 3085.41,952.33 3088.69,951.353 3091.97,950.403 3095.25,949.398 3098.53,948.338 3101.81,947.277 3105.09,946.132 3108.37,944.932 3111.65,943.76 3114.93,942.503 3118.21,941.247 3121.49,940.242 3124.77,939.572 3128.05,938.511 3131.33,937.534 3134.61,936.697 3137.89,935.72 3141.17,934.91 3144.45,934.017 3147.73,933.012 3151.01,931.923 3154.29,930.946 3157.57,930.165 3160.85,929.188 3164.13,928.49 3167.41,927.68 3170.69,926.926 3173.97,926.201 3177.25,925.922 3180.53,925.726 3183.81,925.056 3187.09,924.302 3190.37,923.66 3193.65,923.102 3196.93,922.572 3200.21,922.097 3203.49,921.678 3206.77,921.288 3210.05,920.618 3213.33,920.003 3216.61,919.473 3219.89,918.999 3223.17,918.608 3226.45,918.245 3229.73,917.77 3233.01,917.212 3236.29,916.682 3239.57,916.123 3242.85,915.565 3246.13,915.035 3249.42,914.56 3252.7,914.03 3255.98,913.527 3259.26,912.997 3262.54,912.466 3265.82,911.88 3269.1,911.322 3272.38,910.791 3275.66,910.317 3278.94,909.758 3282.22,909.144 3285.5,908.53 3288.78,908.028 3292.06,907.581 3295.34,907.162 3298.62,906.632 3301.9,906.074 3305.18,905.515 3308.46,904.901 3311.74,904.315 3315.02,903.84 3318.3,903.422 3321.58,902.919 3324.86,902.333 3328.14,901.719 3331.42,900.993 3334.7,900.156 3337.98,899.318 3341.26,898.509 3344.54,897.532 3347.82,896.443 3351.1,895.326 3354.38,893.986 3357.66,892.674 3360.94,891.641 3364.22,890.804 3367.5,889.743 3370.78,888.431 3374.06,886.896 3377.34,885.305 3380.62,883.462 3383.9,881.452 3387.18,879.498 3390.46,877.516 3393.74,875.367 3397.02,873.189 3400.3,870.593 3403.58,868.137 3406.86,865.485 3410.14,862.581 3413.42,859.511 3416.7,855.965 3419.98,851.89 3423.26,847.2 3426.55,842.454 3429.83,837.569 3433.11,832.433 3436.39,827.157 3439.67,821.769 3442.95,816.214 3446.23,810.687 3449.51,805.243 3452.79,800.218 3456.07,798.46 3459.35,793.323 3462.63,787.824 3465.91,781.934 3469.19,775.457 3472.47,768.506 3475.75,761.779 3479.03,754.744 3482.31,747.514 3485.59,740.535 3488.87,734.254 3492.15,727.917 3495.43,721.385 3498.71,714.602 3501.99,707.455 3505.27,700.253 3508.55,692.883 3511.83,685.43 3515.11,677.809 3518.39,669.686 3521.67,661.367 3524.95,652.853 3528.23,644.227 3531.51,635.015 3534.79,625.635 3538.07,616.172 3541.35,607.099 3544.63,601.348 3547.91,596.938 3551.19,589.987 3554.47,585.13 3557.75,580.384 3561.03,575.694 3564.31,571.563 3567.59,569.86 3570.87,568.687 3574.15,566.315 3577.43,563.691 3580.71,560.704 3583.99,557.884 3587.27,555.176 3590.55,552.636 3593.83,550.375 3597.11,547.918 3600.39,545.629 3603.67,543.563 3606.96,541.749 3610.24,540.409 3613.52,539.711 3616.8,539.432 3620.08,538.287 3623.36,537.087 3626.64,536.026 3629.92,534.854 3633.2,533.765 3636.48,532.732 3639.76,531.755 3643.04,530.667 3646.32,529.634 3649.6,528.852 3652.88,528.042 3656.16,527.345 3659.44,526.786 3662.72,526.34 3666,525.837 3669.28,525.195 3672.56,524.441 3675.84,523.855 3679.12,523.436 3682.4,523.157 3685.68,522.99 3688.96,522.515 3692.24,521.901 3695.52,521.315 3698.8,520.84 3702.08,520.394 3705.36,519.975 3708.64,519.64 3711.92,519.11 3715.2,518.551 3718.48,518.049 3721.76,517.658 3725.04,517.407 3728.32,517.155 3731.6,516.82 3734.88,516.402 3738.16,516.011 3741.44,515.676 3744.72,515.285 3748,514.978 3751.28,514.783 3754.56,514.671 3757.84,514.28 3761.12,513.806 3764.4,513.359 3767.68,512.968 3770.96,512.633 3774.24,512.27 3777.52,511.824 3780.8,511.293 3784.08,510.651 3787.37,510.037 3790.65,509.562 3793.93,509.172 3797.21,508.809 3800.49,508.446 3803.77,507.943 3807.05,507.58 3810.33,507.19 3813.61,506.771 3816.89,506.38 3820.17,506.157 3823.45,506.101 3826.73,505.766 3830.01,505.375 3833.29,504.984 3836.57,504.733 3839.85,504.594 3843.13,504.51 3846.41,504.482 3849.69,504.203 3852.97,504.035 3856.25,503.812 3859.53,503.644 3862.81,503.561 3866.09,503.505 3869.37,503.449 3872.65,503.365 3875.93,503.337 3879.21,503.281 3882.49,503.254 3885.77,503.226 3889.05,503.198 3892.33,503.198 3895.61,503.086 3898.89,502.891 3902.17,502.639 3905.45,502.36 3908.73,502.081 3912.01,501.886 3915.29,501.746 3918.57,501.523 3921.85,501.272 3925.13,500.964 3928.41,500.546 3931.69,500.155 3934.97,499.876 3938.25,499.652 3941.53,499.345 3944.81,498.983 3948.09,498.564 3951.37,498.089 3954.65,497.754 3957.93,497.503 3961.21,497.335 3964.49,496.889 3967.78,496.331 3971.06,495.633 3974.34,494.991 3977.62,494.237 3980.9,493.623 3984.18,493.204 3987.46,492.59 3990.74,491.892 3994.02,491.166 3997.3,490.189 4000.58,489.184 4003.86,488.375 4007.14,487.565 4010.42,486.532 4013.7,485.444 4016.98,484.327 4020.26,483.071 4023.54,481.926 4026.82,480.614 4030.1,479.302 4033.38,477.934 4036.66,476.538 4039.94,475.45 4043.22,474.975 4046.5,474.445 4049.78,473.942 4053.06,473.468 4056.34,472.128 4059.62,470.509 4062.9,469.029 4066.18,467.382 4069.46,465.763 4072.74,464.451 4076.02,463.669 4079.3,462.776 4082.58,461.743 4085.86,460.738 4089.14,459.482 4092.42,458.114 4095.7,457.081 4098.98,456.411 4102.26,455.044 4105.54,453.536 4108.82,451.777 4112.1,449.795 4115.38,447.981 4118.66,446.613 4121.94,445.776 4125.22,444.464 4128.5,442.789 4131.78,441.03 4135.06,439.216 4138.34,437.485 4141.62,436.201 4144.91,435.363 4148.19,434.107 4151.47,432.627 4154.75,431.036 4158.03,429.417 4161.31,428.217 4164.59,427.686 4167.87,427.379 4171.15,426.402 4174.43,425.118 4177.71,423.806 4180.99,422.662 4184.27,421.629 4187.55,420.763 4190.83,420.065 4194.11,419.033 4197.39,417.832 4200.67,416.381 4203.95,414.873 4207.23,413.645 4210.51,412.807 4213.79,412.249 4217.07,411.356 4220.35,410.49 4223.63,409.569 4226.91,408.536 4230.19,407.755 4233.47,407.001 4236.75,406.415 4240.03,405.577 4243.31,404.628 4246.59,403.595 4249.87,402.423 4253.15,401.362 4256.43,400.636 4259.71,400.329 4262.99,400.05 4266.27,399.408 4269.55,398.403 4272.83,397.286 4276.11,396.617 4279.39,396.114 4282.67,395.723 4285.95,395.36 4289.23,395.053 4292.51,394.607 4295.79,394.188 4299.07,393.63 4302.35,393.127 4305.63,392.653 4308.91,392.122 4312.19,391.48 4315.47,390.81 4318.75,390.28 4322.03,389.861 4325.32,389.47 4328.6,389.135 4331.88,388.772 4335.16,388.493 4338.44,388.242 4341.72,387.935 4345,387.739 4348.28,387.572 4351.56,387.488 4354.84,387.181 4358.12,387.014 4361.4,386.762 4364.68,386.511 4367.96,386.344 4371.24,386.316 4374.52,386.316 4377.8,386.204 4381.08,386.037 4384.36,385.841 4387.64,385.618 4390.92,385.45 4394.2,385.283 4397.48,385.171 4400.76,385.171 4404.04,385.06 4407.32,384.892 4410.6,384.752 4413.88,384.725 4417.16,384.725 4420.44,384.725 4423.72,384.725 4427,384.585 4430.28,384.417 4433.56,384.278 4436.84,384.138 4440.12,384.027 4443.4,383.943 4446.68,383.775 4449.96,383.636 4453.24,383.58 4456.52,383.524 4459.8,383.524 4463.08,383.468 4466.36,383.44 4469.64,383.357 4472.92,383.329 4476.2,383.329 4479.48,383.329 4482.76,383.329 4486.04,383.329 4489.32,383.301 4492.6,383.217 4495.88,383.133 4499.16,383.05 4502.44,382.994 4505.73,382.938 4509.01,382.882 4512.29,382.882 4515.57,382.882 4518.85,382.854 4522.13,382.854 4525.41,382.798 4528.69,382.743 4531.97,382.603 4535.25,382.575 4538.53,382.547 4541.81,382.491 4545.09,382.491 4548.37,382.408 4551.65,382.352 4554.93,382.324 4558.21,382.324 4561.49,382.296 4564.77,382.268 4568.05,382.184 4571.33,382.184 4574.61,382.128 4577.89,382.1 4581.17,382.1 4584.45,382.045 4587.73,382.017 4591.01,381.989 4594.29,381.989 4597.57,381.989 4600.85,381.961 4604.13,381.961 4607.41,381.961 4610.69,381.961 4613.97,381.933 4617.25,381.933 4620.53,381.877 4623.81,381.877 4627.09,381.877 4630.37,381.821 4633.65,381.793 4636.93,381.765 4640.21,381.765 4643.49,381.738 4646.77,381.738 4650.05,381.738 4653.33,381.71 4656.61,381.71 4659.89,381.654 4663.17,381.598 4666.45,381.514 4669.73,381.514 4673.01,381.514 4676.29,381.458 4679.57,381.458 4682.85,381.43 4686.14,381.403 4689.42,381.375 4692.7,381.375 4695.98,381.375 4699.26,381.291 4702.54,381.151 4705.82,381.151 4709.1,381.068 4712.38,381.012 4715.66,380.928 4718.94,380.928 4722.22,380.872 4725.5,380.816 4728.78,380.788 4732.06,380.788 4735.34,380.649 4738.62,380.621 4741.9,380.621 4745.18,380.537 4748.46,380.286 4751.74,380.118 4755.02,379.951 4758.3,379.867 4761.58,379.867 4764.86,379.867 4768.14,379.616 4771.42,379.56 4774.7,379.421 4777.98,379.337 4781.26,379.337 4784.54,379.337 4787.82,379.337 4791.1,379.225 4794.38,379.03 4797.66,378.974 4800.94,378.806 4804.22,378.723 4807.5,378.723 4810.78,378.723 4814.06,378.499 4817.34,378.276 4820.62,378.192 4823.9,377.941 4827.18,377.746 4830.46,377.718 4833.74,377.718 4837.02,377.355 4840.3,376.992 4843.58,376.769 4846.86,376.378 4850.14,376.294 4853.42,376.182 4856.7,376.154 4859.98,375.485 4863.26,375.066 4866.55,374.535 4869.83,373.977 4873.11,373.558 4876.39,373.084 4879.67,372.833 4882.95,372.833 4886.23,371.995 4889.51,371.213 4892.79,370.292 4896.07,369.231 4899.35,368.869 4902.63,368.701 4905.91,367.584 4909.19,366.719 4912.47,365.714 4915.75,364.402 4919.03,363.313 4922.31,362.95 4925.59,362.811 4928.87,361.666 4932.15,360.187 4935.43,358.819 4938.71,357.228 4941.99,355.469 4945.27,354.548 4948.55,354.101 4951.83,352.789 4955.11,350.919 4958.39,348.518 4961.67,346.034 4964.95,343.354 4968.23,340.786 4971.51,338.915 4974.79,336.403 4978.07,334.17 4981.35,331.462 4984.63,328.782 4987.91,326.046 4991.19,324.036 4994.47,323.199 4997.75,320.435 5001.03,318.034 5004.31,315.662 5007.59,312.954 5010.87,310.665 5014.15,309.409 5017.43,309.102 5020.71,306.059 5023.99,303.323 5027.27,300.504 5030.55,298.019 5033.83,295.59 5037.11,295.088 5040.39,294.753 5043.68,292.743 5046.96,291.04 5050.24,289.142 5053.52,288.137 5056.8,286.992 5060.08,286.825 5063.36,286.797 5066.64,286.323 5069.92,286.183 5073.2,285.597 5076.48,285.485 5079.76,285.262 5083.04,285.094 5086.32,285.094 5089.6,284.564 5092.88,284.006 5096.16,283.475 5099.44,282.917 5102.72,282.526 5106,282.526 5109.28,282.47 5112.56,281.94 5115.84,281.633 5119.12,281.354 5122.4,281.13 5125.68,280.767 5128.96,280.739 5132.24,280.712 5135.52,280.46 5138.8,280.181 5142.08,279.818 5145.36,279.595 5148.64,279.344 5151.92,279.288 5155.2,279.26 5158.48,278.925 5161.76,278.702 5165.04,278.367 5168.32,278.143 5171.6,277.92 5174.88,277.892 5178.16,277.808 5181.44,277.557 5184.72,277.445 5188,277.166 5191.28,276.72 5194.56,276.608 5197.84,276.58 5201.12,276.468 5204.4,276.385 5207.68,275.91 5210.96,275.631 5214.24,275.324 5217.52,275.128 5220.8,275.101 5224.09,275.073 5227.37,274.933 5230.65,274.738 5233.93,274.403 5237.21,274.068 5240.49,274.012 5243.77,273.984 5247.05,273.844 5250.33,273.733 5253.61,273.258 5256.89,272.895 5260.17,272.616 5263.45,272.449 5266.73,272.421 5270.01,272.421 5273.29,272.114 5276.57,271.89 5279.85,271.779 5283.13,271.639 5286.41,271.527 5289.69,271.472 5292.97,271.472 5296.25,271.304 5299.53,271.137 5302.81,271.025 5306.09,270.746 5309.37,270.69 5312.65,270.69 5315.93,270.634 5319.21,270.467 5322.49,270.299 5325.77,270.243 5329.05,270.02 5332.33,269.936 5335.61,269.908 5338.89,269.908 5342.17,269.824 5345.45,269.685 5348.73,269.601 5352.01,269.545 5355.29,269.434 5358.57,269.434 5361.85,269.434 5365.13,269.266 5368.41,269.127 5371.69,268.959 5374.97,268.847 5378.25,268.847 5381.53,268.82 5384.81,268.82 5388.09,268.736 5391.37,268.624 5394.65,268.512 5397.93,268.401 5401.21,268.345 5404.5,268.345 5407.78,268.345 5411.06,268.289 5414.34,268.122 5417.62,268.038 5420.9,268.038 5424.18,268.01 5427.46,267.926 5430.74,267.759 5434.02,267.675 5437.3,267.563 5440.58,267.452 5443.86,267.173 5447.14,266.921 5450.42,266.698 5453.7,266.586 5456.98,266.475 5460.26,266.475 5463.54,266.475 5466.82,266.447 5470.1,266.391 5473.38,266.335 5476.66,266.335 5479.94,266.307 5483.22,266.195 5486.5,266.084 5489.78,266.084 5493.06,266.084 5496.34,266.084 5499.62,266.056 5502.9,265.86 5506.18,265.637 5509.46,265.581 5512.74,265.581 5516.02,265.526 5519.3,265.526 5522.58,265.526 5525.86,265.498 5529.14,265.498 5532.42,265.47 5535.7,265.386 5538.98,265.33 5542.26,265.274 5545.54,265.274 5548.82,265.274 5552.1,265.107 5555.38,264.967 5558.66,264.967 5561.94,264.939 5565.22,264.939 5568.5,264.939 5571.78,264.772 5575.06,264.688 5578.34,264.632 5581.62,264.576 5584.91,264.493 5588.19,264.493 5591.47,264.493 5594.75,264.409 5598.03,264.297 5601.31,264.297 5604.59,264.297 5607.87,264.213 5611.15,264.186 5614.43,264.186 5617.71,264.158 5620.99,264.102 5624.27,263.99 5627.55,263.934 5630.83,263.934 5634.11,263.934 5637.39,263.934 5640.67,263.851 5643.95,263.823 5647.23,263.823 5650.51,263.823 5653.79,263.823 5657.07,263.823 5660.35,263.823 5663.63,263.767 5666.91,263.683 5670.19,263.599 5673.47,263.599 5676.75,263.599 5680.03,263.599 5683.31,263.599 5686.59,263.571 5689.87,263.544 5693.15,263.544 5696.43,263.516 5699.71,263.516 5702.99,263.516 5706.27,263.516 5709.55,263.404 5712.83,263.348 5716.11,263.32 5719.39,263.32 5722.67,263.292 5725.95,263.292 5729.23,263.292 5732.51,263.097 5735.79,262.929 5739.07,262.79 5742.35,262.79 5745.63,262.678 5748.91,262.622 5752.19,262.622 5755.47,262.566 5758.75,262.371 5762.04,262.231 5765.32,262.148 5768.6,262.036 5771.88,262.036 5775.16,262.036 5778.44,261.785 5781.72,261.673 5785,261.506 5788.28,261.422 5791.56,261.338 5794.84,261.254 5798.12,261.254 5801.4,261.003 5804.68,260.724 5807.96,260.473 5811.24,260.166 5814.52,259.859 5817.8,259.719 5821.08,259.719 5824.36,259.468 5827.64,259.328 5830.92,259.189 5834.2,258.882 5837.48,258.602 5840.76,258.491 5844.04,258.463 5847.32,258.212 5850.6,257.905 5853.88,257.681 5857.16,257.346 5860.44,257.067 5863.72,256.955 5867,256.955 5870.28,256.676 5873.56,256.509 5876.84,256.341 5880.12,256.062 5883.4,255.671 5886.68,255.616 5889.96,255.588 5893.24,255.141 5896.52,254.471 5899.8,253.885 5903.08,253.438 5906.36,252.796 5909.64,252.768 5912.92,252.768 5916.2,252.321 5919.48,251.819 5922.76,251.512 5926.04,251.261 5929.32,250.758 5932.6,250.702 5935.88,250.702 5939.16,250.34 5942.45,249.893 5945.73,249.558 5949.01,249.279 5952.29,249.139 5955.57,248.972 5958.85,248.972 5962.13,248.637 5965.41,248.106 5968.69,247.911 5971.97,247.66 5975.25,247.436 5978.53,247.38 5981.81,247.353 5985.09,247.241 5988.37,246.85 5991.65,246.655 5994.93,246.32 5998.21,245.845 6001.49,245.761 6004.77,245.761 6008.05,245.371 6011.33,245.119 6014.61,244.896 6017.89,244.561 6021.17,244.254 6024.45,244.086 6027.73,244.059 6031.01,243.751 6034.29,243.249 6037.57,242.774 6040.85,242.523 6044.13,242.049 6047.41,241.965 6050.69,241.965 6053.97,241.797 6057.25,241.63 6060.53,241.379 6063.81,241.211 6067.09,241.099 6070.37,240.904 6073.65,240.904 6076.93,240.904 6080.21,240.764 6083.49,240.402 6086.77,240.29 6090.05,240.178 6093.33,240.122 6096.61,240.122 6099.89,239.955 6103.17,239.648 6106.45,239.648 6109.73,239.48 6113.01,239.369 6116.29,239.341 6119.57,239.313 6122.86,239.062 6126.14,239.006 6129.42,238.81 6132.7,238.392 6135.98,238.224 6139.26,238.168 6142.54,238.14 6145.82,237.917 6149.1,237.638 6152.38,237.47 6155.66,237.415 6158.94,237.219 6162.22,237.163 6165.5,237.135 6168.78,236.968 6172.06,236.745 6175.34,236.493 6178.62,236.41 6181.9,236.242 6185.18,236.214 6188.46,236.214 6191.74,236.131 6195.02,235.991 6198.3,235.851 6201.58,235.6 6204.86,235.461 6208.14,235.405 6211.42,235.405 6214.7,235.265 6217.98,234.986 6221.26,234.819 6224.54,234.456 6227.82,234.372 6231.1,234.288 6234.38,234.26 6237.66,234.121 6240.94,234.009 6244.22,233.758 6247.5,233.562 6250.78,233.534 6254.06,233.255 6257.34,233.171 6260.62,233.144 6263.9,233.116 6267.18,233.116 6270.46,233.06 6273.74,232.976 6277.02,232.976 6280.3,232.976 6283.58,232.864 6286.86,232.864 6290.14,232.837 6293.42,232.781 6296.7,232.669 6299.98,232.641 6303.27,232.641 6306.55,232.418 6309.83,232.083 6313.11,231.999 6316.39,231.915 6319.67,231.915 6322.95,231.915 6326.23,231.915 6329.51,231.832 6332.79,231.72 6336.07,231.692 6339.35,231.497 6342.63,231.469 6345.91,231.469 6349.19,231.469 6352.47,231.385 6355.75,231.357 6359.03,231.329 6362.31,231.301 6365.59,231.134 6368.87,231.106 6372.15,231.078 6375.43,230.882 6378.71,230.827 6381.99,230.799 6385.27,230.799 6388.55,230.715 6391.83,230.715 6395.11,230.715 6398.39,230.631 6401.67,230.52 6404.95,230.464 6408.23,230.464 6411.51,230.324 6414.79,230.296 6418.07,230.296 6421.35,230.268 6424.63,230.129 6427.91,230.129 6431.19,230.017 6434.47,229.989 6437.75,229.989 6441.03,229.989 6444.31,229.933 6447.59,229.877 6450.87,229.85 6454.15,229.766 6457.43,229.71 6460.71,229.654 6463.99,229.654 6467.27,229.654 6470.55,229.542 6473.83,229.487 6477.11,229.403 6480.39,229.375 6483.68,229.319 6486.96,229.319 6490.24,229.235 6493.52,229.207 6496.8,229.152 6500.08,229.152 6503.36,229.068 6506.64,229.068 6509.92,229.012 6513.2,229.012 6516.48,229.012 6519.76,228.984 6523.04,228.984 6526.32,228.9 6529.6,228.845 6532.88,228.845 6536.16,228.845 6539.44,228.817 6542.72,228.789 6546,228.789 6549.28,228.621 6552.56,228.621 6555.84,228.621 "/>
<polyline clip-path="url(#clip511)" style="stroke:#009af9; stroke-linecap:round; stroke-linejoin:round; stroke-width:8; stroke-opacity:1; fill:none" points="6716.57,222.619 6719.85,222.508 "/>
<polyline clip-path="url(#clip511)" style="stroke:#e26f46; stroke-linecap:round; stroke-linejoin:round; stroke-width:8; stroke-opacity:1; fill:none" stroke-dasharray="32, 20" points="615.429,4018.23 618.709,4018.09 621.989,4017.81 625.269,4017.75 628.549,4017.53 631.83,4017.36 635.11,4017.25 638.39,4017.14 641.67,4016.97 644.95,4016.39 648.23,4015.91 651.511,4015.52 654.791,4015.41 658.071,4015.02 661.351,4014.82 664.631,4014.71 667.912,4014.04 671.192,4013.54 674.472,4013.51 677.752,4013.01 681.032,4012.67 684.312,4012.2 687.593,4011.45 690.873,4011.25 694.153,4010.8 697.433,4010.38 700.713,4009.83 703.994,4009.52 707.274,4009.18 710.554,4008.74 713.834,4008.21 717.114,4007.68 720.394,4007.15 723.675,4006.39 726.955,4006.11 730.235,4005.19 733.515,4004.66 736.795,4003.82 740.076,4003.18 743.356,4002.46 746.636,4002.01 749.916,4001.42 753.196,4000.25 756.476,3998.8 759.757,3997.63 763.037,3995.98 766.317,3994.22 769.597,3993.58 772.877,3992.35 776.158,3989.22 779.438,3987.41 782.718,3986.52 785.998,3984.59 789.278,3983.56 792.558,3982.52 795.839,3980.85 799.119,3979.2 802.399,3976.13 805.679,3973.34 808.959,3970.41 812.24,3967.67 815.52,3965.92 818.8,3963.26 822.08,3961.84 825.36,3960.69 828.64,3958.04 831.921,3955.39 835.201,3953.3 838.481,3951.59 841.761,3950.37 845.041,3948.44 848.322,3947.41 851.602,3946.15 854.882,3944.53 858.162,3943 861.442,3942.02 864.722,3939.98 868.003,3938.73 871.283,3937.13 874.563,3936.16 877.843,3934.73 881.123,3934.01 884.404,3932.95 887.684,3932.19 890.964,3931.41 894.244,3930.43 897.524,3929.71 900.804,3929.26 904.085,3928.4 907.365,3928.06 910.645,3927.11 913.925,3926.11 917.205,3925.35 920.486,3924.85 923.766,3924.01 927.046,3923.48 930.326,3923.04 933.606,3922.56 936.886,3921.67 940.167,3920.33 943.447,3919.77 946.727,3918.99 950.007,3917.98 953.287,3917.57 956.568,3917.2 959.848,3916.09 963.128,3914.91 966.408,3913.99 969.688,3912.99 972.968,3911.95 976.249,3911.93 979.529,3911.81 982.809,3910.98 986.089,3910.42 989.369,3909.89 992.65,3909.33 995.93,3908.41 999.21,3907.82 1002.49,3907.29 1005.77,3906.26 1009.05,3905.37 1012.33,3904.28 1015.61,3903.33 1018.89,3902.02 1022.17,3901.32 1025.45,3900.57 1028.73,3899.53 1032.01,3898.56 1035.29,3897.55 1038.57,3896.6 1041.85,3895.21 1045.13,3894.54 1048.41,3893.39 1051.69,3892.61 1054.97,3891.77 1058.25,3891.1 1061.53,3890.49 1064.81,3889.59 1068.09,3889.51 1071.37,3888.84 1074.65,3888.2 1077.93,3887.47 1081.21,3886.52 1084.49,3885.94 1087.77,3885.24 1091.06,3884.65 1094.34,3884.09 1097.62,3883.34 1100.9,3882.84 1104.18,3881.78 1107.46,3880.88 1110.74,3880.3 1114.02,3879.91 1117.3,3879.38 1120.58,3878.57 1123.86,3877.81 1127.14,3876.86 1130.42,3875.69 1133.7,3874.6 1136.98,3873.93 1140.26,3873.29 1143.54,3872.59 1146.82,3871.7 1150.1,3870.47 1153.38,3869.33 1156.66,3868.29 1159.94,3867.9 1163.22,3866.95 1166.5,3866.12 1169.78,3865.06 1173.06,3863.72 1176.34,3862.35 1179.62,3860.95 1182.9,3859.33 1186.18,3857.94 1189.46,3856.57 1192.74,3855.54 1196.02,3854.28 1199.3,3852.72 1202.58,3850.96 1205.86,3849.26 1209.14,3847.47 1212.42,3845.68 1215.7,3843.87 1218.98,3841.78 1222.26,3839.35 1225.54,3836.86 1228.82,3834.13 1232.1,3831.75 1235.38,3829.02 1238.66,3826.31 1241.94,3823.27 1245.22,3820.2 1248.5,3817.13 1251.78,3814.06 1255.06,3810.82 1258.34,3807.61 1261.62,3804.54 1264.9,3801.27 1268.18,3797.95 1271.47,3794.68 1274.75,3791.33 1278.03,3787.81 1281.31,3784.46 1284.59,3781.17 1287.87,3777.63 1291.15,3774.05 1294.43,3771.68 1297.71,3768.08 1300.99,3764.45 1304.27,3760.62 1307.55,3756.49 1310.83,3752.25 1314.11,3748.06 1317.39,3743.6 1320.67,3738.85 1323.95,3734.19 1327.23,3729.58 1330.51,3725.03 1333.79,3720.31 1337.07,3715.65 1340.35,3710.94 1343.63,3706.19 1346.91,3701.3 1350.19,3696.34 1353.47,3691.31 1356.75,3686.15 1360.03,3680.7 1363.31,3675.29 1366.59,3669.84 1369.87,3664.4 1373.15,3658.85 1376.43,3653.29 1379.71,3647.76 1382.99,3623.2 1386.27,3616.22 1389.55,3608.29 1392.83,3598.94 1396.11,3591.37 1399.39,3583.08 1402.67,3573.87 1405.95,3564.69 1409.23,3555.53 1412.51,3545.82 1415.79,3535.79 1419.07,3525.83 1422.35,3515.36 1425.63,3504.39 1428.91,3493.36 1432.19,3482.36 1435.47,3471.25 1438.75,3459.64 1442.03,3447.3 1445.31,3435.69 1448.59,3423.82 1451.88,3412.71 1455.16,3401.66 1458.44,3390.66 1461.72,3379.63 1465,3368.69 1468.28,3360.23 1471.56,3352.7 1474.84,3346.97 1478.12,3340.13 1481.4,3334.69 1484.68,3327.94 1487.96,3320.65 1491.24,3315.99 1494.52,3310.88 1497.8,3305.16 1501.08,3298.48 1504.36,3292.09 1507.64,3285.25 1510.92,3279.7 1514.2,3272.05 1517.48,3266.91 1520.76,3259.35 1524.04,3253.48 1527.32,3248.38 1530.6,3242.88 1533.88,3239.19 1537.16,3233.75 1540.44,3229.2 1543.72,3224.15 1547,3221.58 1550.28,3217.53 1553.56,3215.77 1556.84,3213.04 1560.12,3209.24 1563.4,3204.47 1566.68,3200.28 1569.96,3195.67 1573.24,3192.46 1576.52,3191.29 1579.8,3188.47 1583.08,3185.01 1586.36,3180.46 1589.64,3178.14 1592.92,3175.54 1596.2,3174.43 1599.48,3172.17 1602.76,3170.05 1606.04,3168.23 1609.32,3165.02 1612.6,3161.92 1615.88,3159.02 1619.16,3157.4 1622.44,3155.75 1625.72,3153.8 1629.01,3150.59 1632.29,3148.05 1635.57,3144.84 1638.85,3141.74 1642.13,3138.47 1645.41,3136.97 1648.69,3135.21 1651.97,3133.2 1655.25,3131.1 1658.53,3128.42 1661.81,3125.8 1665.09,3123.04 1668.37,3120.55 1671.65,3117.98 1674.93,3115.47 1678.21,3112.76 1681.49,3110.14 1684.77,3107.4 1688.05,3104.92 1691.33,3103.44 1694.61,3102.49 1697.89,3100.4 1701.17,3097.77 1704.45,3095.06 1707.73,3092.41 1711.01,3089.84 1714.29,3088.39 1717.57,3086.55 1720.85,3084.65 1724.13,3082.61 1727.41,3080.66 1730.69,3078.73 1733.97,3076.84 1737.25,3075.08 1740.53,3073.04 1743.81,3070.92 1747.09,3068.99 1750.37,3067.01 1753.65,3065.73 1756.93,3064.3 1760.21,3062.43 1763.49,3060.28 1766.77,3057.8 1770.05,3055.26 1773.33,3053 1776.61,3050.79 1779.89,3049.37 1783.17,3047.97 1786.45,3046.74 1789.73,3044.87 1793.01,3042.92 1796.29,3041.05 1799.57,3039.21 1802.85,3037.84 1806.13,3036.19 1809.42,3034.77 1812.7,3032.81 1815.98,3030.78 1819.26,3028.79 1822.54,3026.87 1825.82,3025.5 1829.1,3023.96 1832.38,3022.32 1835.66,3020.67 1838.94,3018.74 1842.22,3016.57 1845.5,3015.14 1848.78,3013.89 1852.06,3012.43 1855.34,3010.62 1858.62,3008.69 1861.9,3006.68 1865.18,3004.17 1868.46,3002.02 1871.74,3000.1 1875.02,2998.67 1878.3,2997.7 1881.58,2996.33 1884.86,2995.21 1888.14,2993.62 1891.42,2992.14 1894.7,2990.69 1897.98,2989.26 1901.26,2987.73 1904.54,2986.84 1907.82,2985.25 1911.1,2983.43 1914.38,2981.56 1917.66,2980.14 1920.94,2978.49 1924.22,2976.98 1927.5,2976 1930.78,2974.94 1934.06,2973.49 1937.34,2972.57 1940.62,2971.87 1943.9,2970.45 1947.18,2969.05 1950.46,2967.6 1953.74,2966.12 1957.02,2965.15 1960.3,2964.17 1963.58,2963.61 1966.86,2962.3 1970.14,2961.1 1973.42,2959.84 1976.7,2958.7 1979.98,2957.61 1983.26,2956.52 1986.54,2955.6 1989.83,2954.4 1993.11,2953.14 1996.39,2951.8 1999.67,2950.41 2002.95,2949.18 2006.23,2947.92 2009.51,2946.67 2012.79,2945.3 2016.07,2943.82 2019.35,2942.2 2022.63,2940.44 2025.91,2938.79 2029.19,2937.01 2032.47,2935.08 2035.75,2932.99 2039.03,2930.7 2042.31,2928.19 2045.59,2925.45 2048.87,2922.46 2052.15,2919.31 2055.43,2916.29 2058.71,2913.08 2061.99,2909.71 2065.27,2906.16 2068.55,2902.45 2071.83,2898.68 2075.11,2894.8 2078.39,2890.89 2081.67,2886.93 2084.95,2882.91 2088.23,2878.8 2091.51,2874.73 2094.79,2870.82 2098.07,2866.88 2101.35,2863.25 2104.63,2859.63 2107.91,2856.02 2111.19,2852.31 2114.47,2848.65 2117.75,2845.08 2121.03,2841.54 2124.31,2838.05 2127.59,2834.56 2130.87,2831.01 2134.15,2827.44 2137.43,2823.95 2140.71,2820.54 2143.99,2817.11 2147.27,2813.76 2150.55,2810.52 2153.83,2807.23 2157.11,2804.02 2160.39,2800.7 2163.67,2797.46 2166.95,2794.22 2170.24,2791.01 2173.52,2787.8 2176.8,2784.64 2180.08,2781.57 2183.36,2778.56 2186.64,2775.43 2189.92,2772.39 2193.2,2769.43 2196.48,2766.56 2199.76,2763.57 2203.04,2760.53 2206.32,2757.54 2209.6,2754.64 2212.88,2751.79 2216.16,2748.77 2219.44,2745.84 2222.72,2742.94 2226,2740.09 2229.28,2737.16 2232.56,2734.37 2235.84,2731.55 2239.12,2728.84 2242.4,2725.91 2245.68,2723.04 2248.96,2720.38 2252.24,2717.68 2255.52,2714.91 2258.8,2712.37 2262.08,2709.91 2265.36,2707.43 2268.64,2705.06 2271.92,2702.49 2275.2,2699.98 2278.48,2697.55 2281.76,2695.2 2285.04,2692.66 2288.32,2690.01 2291.6,2687.5 2294.88,2684.96 2298.16,2682.42 2301.44,2679.74 2304.72,2677 2308,2674.29 2311.28,2671.73 2314.56,2669.02 2317.84,2666.17 2321.12,2663.18 2324.4,2659.92 2327.68,2656.48 2330.96,2652.94 2334.24,2649.31 2337.52,2645.63 2340.8,2641.75 2344.08,2637.59 2347.36,2633.45 2350.65,2629.16 2353.93,2624.83 2357.21,2620.39 2360.49,2615.81 2363.77,2611.12 2367.05,2606.29 2370.33,2601.21 2373.61,2595.88 2376.89,2590.38 2380.17,2584.83 2383.45,2579.16 2386.73,2573.32 2390.01,2567.24 2393.29,2560.96 2396.57,2554.57 2399.85,2548.09 2403.13,2541.53 2406.41,2534.91 2409.69,2528.13 2412.97,2521.23 2416.25,2514.2 2419.53,2507.11 2422.81,2500.02 2426.09,2492.79 2429.37,2485.5 2432.65,2477.99 2435.93,2470.34 2439.21,2462.5 2442.49,2454.63 2445.77,2446.76 2449.05,2438.97 2452.33,2431.12 2455.61,2423.2 2458.89,2415.13 2462.17,2407.03 2465.45,2398.99 2468.73,2391.04 2472.01,2383.05 2475.29,2375.12 2478.57,2367.11 2481.85,2359.02 2485.13,2350.87 2488.41,2342.74 2491.69,2334.68 2494.97,2326.47 2498.25,2318.23 2501.53,2310 2504.81,2301.82 2508.09,2293.58 2511.37,2285.43 2514.65,2277.42 2517.93,2269.46 2521.21,2261.45 2524.49,2253.52 2527.78,2245.65 2531.06,2237.95 2534.34,2230.36 2537.62,2222.9 2540.9,2215.64 2544.18,2208.5 2547.46,2201.66 2550.74,2195.07 2554.02,2188.82 2557.3,2182.84 2560.58,2177.2 2563.86,2171.68 2567.14,2166.29 2570.42,2161.01 2573.7,2155.71 2576.98,2150.49 2580.26,2145.32 2583.54,2140.16 2586.82,2135.14 2590.1,2130.14 2593.38,2125.2 2596.66,2120.26 2599.94,2115.34 2603.22,2110.49 2606.5,2105.68 2609.78,2100.88 2613.06,2096.05 2616.34,2091.28 2619.62,2086.53 2622.9,2081.84 2626.18,2077.18 2629.46,2072.52 2632.74,2068 2636.02,2063.48 2639.3,2059.09 2642.58,2054.71 2645.86,2050.38 2649.14,2046.14 2652.42,2041.9 2655.7,2037.65 2658.98,2033.61 2662.26,2029.7 2665.54,2026.35 2668.82,2023.03 2672.1,2020.1 2675.38,2017.33 2678.66,2015.18 2681.94,2013.01 2685.22,2010.83 2688.5,2008.73 2691.78,2006.61 2695.06,2004.49 2698.34,2002.29 2701.62,2000.08 2704.9,1997.68 2708.19,1995 2711.47,1991.9 2714.75,1988.41 2718.03,1984.64 2721.31,1980.74 2724.59,1976.85 2727.87,1972.84 2731.15,1968.76 2734.43,1964.52 2737.71,1960.08 2740.99,1955.33 2744.27,1950.28 2747.55,1944.89 2750.83,1939.28 2754.11,1933.36 2757.39,1927.08 2760.67,1920.47 2763.95,1913.51 2767.23,1906.34 2770.51,1898.44 2773.79,1890.21 2777.07,1881.27 2780.35,1870.97 2783.63,1859.27 2786.91,1846.6 2790.19,1832.45 2793.47,1817.46 2796.75,1801.07 2800.03,1782.95 2803.31,1763.33 2806.59,1742.11 2809.87,1719.47 2813.15,1695.41 2816.43,1670.85 2819.71,1645.02 2822.99,1618.45 2826.27,1590.62 2829.55,1561.53 2832.83,1533.67 2836.11,1506.56 2839.39,1479.51 2842.67,1453.36 2845.95,1427.34 2849.23,1401.52 2852.51,1375.92 2855.79,1350.24 2859.07,1324.41 2862.35,1298.82 2865.63,1274.06 2868.91,1250.36 2872.19,1228.3 2875.47,1207.34 2878.75,1187.63 2882.03,1169.93 2885.31,1157.34 2888.6,1150.84 2891.88,1139 2895.16,1128.98 2898.44,1120.86 2901.72,1116.11 2905,1113.26 2908.28,1106.28 2911.56,1099.36 2914.84,1092.49 2918.12,1085.68 2921.4,1079.07 2924.68,1073.4 2927.96,1069.02 2931.24,1062.71 2934.52,1056.45 2937.8,1050.9 2941.08,1045.46 2944.36,1041.27 2947.64,1038.34 2950.92,1037.56 2954.2,1033.37 2957.48,1029.32 2960.76,1026.22 2964.04,1023.26 2967.32,1020.69 2970.6,1018.38 2973.88,1016.17 2977.16,1013.44 2980.44,1010.62 2983.72,1007.97 2987,1005.42 2990.28,1002.91 2993.56,1000.51 2996.84,998.055 3000.12,995.571 3003.4,993.002 3006.68,990.63 3009.96,988.368 3013.24,985.856 3016.52,983.316 3019.8,980.915 3023.08,978.542 3026.36,976.56 3029.64,974.829 3032.92,973.266 3036.2,971.731 3039.48,970.251 3042.76,968.8 3046.04,967.069 3049.32,965.422 3052.6,963.803 3055.88,962.128 3059.16,960.593 3062.44,959.308 3065.72,958.22 3069.01,957.299 3072.29,956.489 3075.57,955.428 3078.85,954.312 3082.13,953.279 3085.41,952.33 3088.69,951.353 3091.97,950.403 3095.25,949.398 3098.53,948.338 3101.81,947.277 3105.09,946.132 3108.37,944.932 3111.65,943.76 3114.93,942.503 3118.21,941.247 3121.49,940.242 3124.77,939.572 3128.05,938.511 3131.33,937.534 3134.61,936.697 3137.89,935.72 3141.17,934.91 3144.45,934.017 3147.73,933.012 3151.01,931.923 3154.29,930.946 3157.57,930.165 3160.85,929.188 3164.13,928.49 3167.41,927.68 3170.69,926.926 3173.97,926.201 3177.25,925.922 3180.53,925.726 3183.81,925.056 3187.09,924.302 3190.37,923.66 3193.65,923.102 3196.93,922.572 3200.21,922.097 3203.49,921.678 3206.77,921.288 3210.05,920.618 3213.33,920.003 3216.61,919.473 3219.89,918.999 3223.17,918.608 3226.45,918.245 3229.73,917.77 3233.01,917.212 3236.29,916.682 3239.57,916.123 3242.85,915.565 3246.13,915.035 3249.42,914.56 3252.7,914.03 3255.98,913.527 3259.26,912.997 3262.54,912.466 3265.82,911.88 3269.1,911.322 3272.38,910.791 3275.66,910.317 3278.94,909.758 3282.22,909.144 3285.5,908.53 3288.78,908.028 3292.06,907.581 3295.34,907.162 3298.62,906.632 3301.9,906.074 3305.18,905.515 3308.46,904.901 3311.74,904.315 3315.02,903.84 3318.3,903.422 3321.58,902.919 3324.86,902.333 3328.14,901.719 3331.42,900.993 3334.7,900.156 3337.98,899.318 3341.26,898.509 3344.54,897.532 3347.82,896.443 3351.1,895.326 3354.38,893.986 3357.66,892.674 3360.94,891.641 3364.22,890.804 3367.5,889.743 3370.78,888.431 3374.06,886.896 3377.34,885.305 3380.62,883.462 3383.9,881.452 3387.18,879.498 3390.46,877.516 3393.74,875.367 3397.02,873.189 3400.3,870.593 3403.58,868.137 3406.86,865.485 3410.14,862.581 3413.42,859.511 3416.7,855.965 3419.98,851.89 3423.26,847.2 3426.55,842.454 3429.83,837.569 3433.11,832.433 3436.39,827.157 3439.67,821.769 3442.95,816.214 3446.23,810.687 3449.51,805.243 3452.79,800.218 3456.07,798.46 3459.35,793.323 3462.63,787.824 3465.91,781.934 3469.19,775.457 3472.47,768.506 3475.75,761.779 3479.03,754.744 3482.31,747.514 3485.59,740.535 3488.87,734.254 3492.15,727.917 3495.43,721.385 3498.71,714.602 3501.99,707.455 3505.27,700.253 3508.55,692.883 3511.83,685.43 3515.11,677.809 3518.39,669.686 3521.67,661.367 3524.95,652.853 3528.23,644.227 3531.51,635.015 3534.79,625.635 3538.07,616.172 3541.35,607.099 3544.63,601.348 3547.91,596.938 3551.19,589.987 3554.47,585.13 3557.75,580.384 3561.03,575.694 3564.31,571.563 3567.59,569.86 3570.87,568.687 3574.15,566.315 3577.43,563.691 3580.71,560.704 3583.99,557.884 3587.27,555.176 3590.55,552.636 3593.83,550.375 3597.11,547.918 3600.39,545.629 3603.67,543.563 3606.96,541.749 3610.24,540.409 3613.52,539.711 3616.8,539.432 3620.08,538.287 3623.36,537.087 3626.64,536.026 3629.92,534.854 3633.2,533.765 3636.48,532.732 3639.76,531.755 3643.04,530.667 3646.32,529.634 3649.6,528.852 3652.88,528.042 3656.16,527.345 3659.44,526.786 3662.72,526.34 3666,525.837 3669.28,525.195 3672.56,524.441 3675.84,523.855 3679.12,523.436 3682.4,523.157 3685.68,522.99 3688.96,522.515 3692.24,521.901 3695.52,521.315 3698.8,520.84 3702.08,520.394 3705.36,519.975 3708.64,519.64 3711.92,519.11 3715.2,518.551 3718.48,518.049 3721.76,517.658 3725.04,517.407 3728.32,517.155 3731.6,516.82 3734.88,516.402 3738.16,516.011 3741.44,515.676 3744.72,515.285 3748,514.978 3751.28,514.783 3754.56,514.671 3757.84,514.28 3761.12,513.806 3764.4,513.359 3767.68,512.968 3770.96,512.633 3774.24,512.27 3777.52,511.824 3780.8,511.293 3784.08,510.651 3787.37,510.037 3790.65,509.562 3793.93,509.172 3797.21,508.809 3800.49,508.446 3803.77,507.943 3807.05,507.58 3810.33,507.19 3813.61,506.771 3816.89,506.38 3820.17,506.157 3823.45,506.101 3826.73,505.766 3830.01,505.375 3833.29,504.984 3836.57,504.733 3839.85,504.594 3843.13,504.51 3846.41,504.482 3849.69,504.203 3852.97,504.035 3856.25,503.812 3859.53,503.644 3862.81,503.561 3866.09,503.505 3869.37,503.449 3872.65,503.365 3875.93,503.337 3879.21,503.281 3882.49,503.254 3885.77,503.226 3889.05,503.198 3892.33,503.198 3895.61,503.086 3898.89,502.891 3902.17,502.639 3905.45,502.36 3908.73,502.081 3912.01,501.886 3915.29,501.746 3918.57,501.523 3921.85,501.272 3925.13,500.964 3928.41,500.546 3931.69,500.155 3934.97,499.876 3938.25,499.652 3941.53,499.345 3944.81,498.983 3948.09,498.564 3951.37,498.089 3954.65,497.754 3957.93,497.503 3961.21,497.335 3964.49,496.889 3967.78,496.331 3971.06,495.633 3974.34,494.991 3977.62,494.237 3980.9,493.623 3984.18,493.204 3987.46,492.59 3990.74,491.892 3994.02,491.166 3997.3,490.189 4000.58,489.184 4003.86,488.375 4007.14,487.565 4010.42,486.532 4013.7,485.444 4016.98,484.327 4020.26,483.071 4023.54,481.926 4026.82,480.614 4030.1,479.302 4033.38,477.934 4036.66,476.538 4039.94,475.45 4043.22,474.975 4046.5,474.445 4049.78,473.942 4053.06,473.468 4056.34,472.128 4059.62,470.509 4062.9,469.029 4066.18,467.382 4069.46,465.763 4072.74,464.451 4076.02,463.669 4079.3,462.776 4082.58,461.743 4085.86,460.738 4089.14,459.482 4092.42,458.114 4095.7,457.081 4098.98,456.411 4102.26,455.044 4105.54,453.536 4108.82,451.777 4112.1,449.795 4115.38,447.981 4118.66,446.613 4121.94,445.776 4125.22,444.464 4128.5,442.789 4131.78,441.03 4135.06,439.216 4138.34,437.485 4141.62,436.201 4144.91,435.363 4148.19,434.107 4151.47,432.627 4154.75,431.036 4158.03,429.417 4161.31,428.217 4164.59,427.686 4167.87,427.379 4171.15,426.402 4174.43,425.118 4177.71,423.806 4180.99,422.662 4184.27,421.629 4187.55,420.763 4190.83,420.065 4194.11,419.033 4197.39,417.832 4200.67,416.381 4203.95,414.873 4207.23,413.645 4210.51,412.807 4213.79,412.249 4217.07,411.356 4220.35,410.49 4223.63,409.569 4226.91,408.536 4230.19,407.755 4233.47,407.001 4236.75,406.415 4240.03,405.577 4243.31,404.628 4246.59,403.595 4249.87,402.423 4253.15,401.362 4256.43,400.636 4259.71,400.329 4262.99,400.05 4266.27,399.408 4269.55,398.403 4272.83,397.286 4276.11,396.617 4279.39,396.114 4282.67,395.723 4285.95,395.36 4289.23,395.053 4292.51,394.607 4295.79,394.188 4299.07,393.63 4302.35,393.127 4305.63,392.653 4308.91,392.122 4312.19,391.48 4315.47,390.81 4318.75,390.28 4322.03,389.861 4325.32,389.47 4328.6,389.135 4331.88,388.772 4335.16,388.493 4338.44,388.242 4341.72,387.935 4345,387.739 4348.28,387.572 4351.56,387.488 4354.84,387.181 4358.12,387.014 4361.4,386.762 4364.68,386.511 4367.96,386.344 4371.24,386.316 4374.52,386.316 4377.8,386.204 4381.08,386.037 4384.36,385.841 4387.64,385.618 4390.92,385.45 4394.2,385.283 4397.48,385.171 4400.76,385.171 4404.04,385.06 4407.32,384.892 4410.6,384.752 4413.88,384.725 4417.16,384.725 4420.44,384.725 4423.72,384.725 4427,384.585 4430.28,384.417 4433.56,384.278 4436.84,384.138 4440.12,384.027 4443.4,383.943 4446.68,383.775 4449.96,383.636 4453.24,383.58 4456.52,383.524 4459.8,383.524 4463.08,383.468 4466.36,383.44 4469.64,383.357 4472.92,383.329 4476.2,383.329 4479.48,383.329 4482.76,383.329 4486.04,383.329 4489.32,383.301 4492.6,383.217 4495.88,383.133 4499.16,383.05 4502.44,382.994 4505.73,382.938 4509.01,382.882 4512.29,382.882 4515.57,382.882 4518.85,382.854 4522.13,382.854 4525.41,382.798 4528.69,382.743 4531.97,382.603 4535.25,382.575 4538.53,382.547 4541.81,382.491 4545.09,382.491 4548.37,382.408 4551.65,382.352 4554.93,382.324 4558.21,382.324 4561.49,382.296 4564.77,382.268 4568.05,382.184 4571.33,382.184 4574.61,382.128 4577.89,382.1 4581.17,382.1 4584.45,382.045 4587.73,382.017 4591.01,381.989 4594.29,381.989 4597.57,381.989 4600.85,381.961 4604.13,381.961 4607.41,381.961 4610.69,381.961 4613.97,381.933 4617.25,381.933 4620.53,381.877 4623.81,381.877 4627.09,381.877 4630.37,381.821 4633.65,381.793 4636.93,381.765 4640.21,381.765 4643.49,381.738 4646.77,381.738 4650.05,381.738 4653.33,381.71 4656.61,381.71 4659.89,381.654 4663.17,381.598 4666.45,381.514 4669.73,381.514 4673.01,381.514 4676.29,381.458 4679.57,381.458 4682.85,381.43 4686.14,381.403 4689.42,381.375 4692.7,381.375 4695.98,381.375 4699.26,381.291 4702.54,381.151 4705.82,381.151 4709.1,381.068 4712.38,381.012 4715.66,380.928 4718.94,380.928 4722.22,380.872 4725.5,380.816 4728.78,380.788 4732.06,380.788 4735.34,380.649 4738.62,380.621 4741.9,380.621 4745.18,380.537 4748.46,380.286 4751.74,380.118 4755.02,379.951 4758.3,379.867 4761.58,379.867 4764.86,379.867 4768.14,379.616 4771.42,379.56 4774.7,379.421 4777.98,379.337 4781.26,379.337 4784.54,379.337 4787.82,379.337 4791.1,379.225 4794.38,379.03 4797.66,378.974 4800.94,378.806 4804.22,378.723 4807.5,378.723 4810.78,378.723 4814.06,378.499 4817.34,378.276 4820.62,378.192 4823.9,377.941 4827.18,377.746 4830.46,377.718 4833.74,377.718 4837.02,377.355 4840.3,376.992 4843.58,376.769 4846.86,376.378 4850.14,376.294 4853.42,376.182 4856.7,376.154 4859.98,375.485 4863.26,375.066 4866.55,374.535 4869.83,373.977 4873.11,373.558 4876.39,373.084 4879.67,372.833 4882.95,372.833 4886.23,371.995 4889.51,371.213 4892.79,370.292 4896.07,369.231 4899.35,368.869 4902.63,368.701 4905.91,367.584 4909.19,366.719 4912.47,365.714 4915.75,364.402 4919.03,363.313 4922.31,362.95 4925.59,362.811 4928.87,361.666 4932.15,360.187 4935.43,358.819 4938.71,357.228 4941.99,355.469 4945.27,354.548 4948.55,354.101 4951.83,352.789 4955.11,350.919 4958.39,348.518 4961.67,346.034 4964.95,343.354 4968.23,340.786 4971.51,338.915 4974.79,336.403 4978.07,334.17 4981.35,331.462 4984.63,328.782 4987.91,326.046 4991.19,324.036 4994.47,323.199 4997.75,320.435 5001.03,318.034 5004.31,315.662 5007.59,312.954 5010.87,310.665 5014.15,309.409 5017.43,309.102 5020.71,306.059 5023.99,303.323 5027.27,300.504 5030.55,298.019 5033.83,295.59 5037.11,295.088 5040.39,294.753 5043.68,292.743 5046.96,291.04 5050.24,289.142 5053.52,288.137 5056.8,286.992 5060.08,286.825 5063.36,286.797 5066.64,286.323 5069.92,286.183 5073.2,285.597 5076.48,285.485 5079.76,285.262 5083.04,285.094 5086.32,285.094 5089.6,284.564 5092.88,284.006 5096.16,283.475 5099.44,282.917 5102.72,282.526 5106,282.526 5109.28,282.47 5112.56,281.94 5115.84,281.633 5119.12,281.354 5122.4,281.13 5125.68,280.767 5128.96,280.739 5132.24,280.712 5135.52,280.46 5138.8,280.181 5142.08,279.818 5145.36,279.595 5148.64,279.344 5151.92,279.288 5155.2,279.26 5158.48,278.925 5161.76,278.702 5165.04,278.367 5168.32,278.143 5171.6,277.92 5174.88,277.892 5178.16,277.808 5181.44,277.557 5184.72,277.445 5188,277.166 5191.28,276.72 5194.56,276.608 5197.84,276.58 5201.12,276.468 5204.4,276.385 5207.68,275.91 5210.96,275.631 5214.24,275.324 5217.52,275.128 5220.8,275.101 5224.09,275.073 5227.37,274.933 5230.65,274.738 5233.93,274.403 5237.21,274.068 5240.49,274.012 5243.77,273.984 5247.05,273.844 5250.33,273.733 5253.61,273.258 5256.89,272.895 5260.17,272.616 5263.45,272.449 5266.73,272.421 5270.01,272.421 5273.29,272.114 5276.57,271.89 5279.85,271.779 5283.13,271.639 5286.41,271.527 5289.69,271.472 5292.97,271.472 5296.25,271.304 5299.53,271.137 5302.81,271.025 5306.09,270.746 5309.37,270.69 5312.65,270.69 5315.93,270.634 5319.21,270.467 5322.49,270.299 5325.77,270.243 5329.05,270.02 5332.33,269.936 5335.61,269.908 5338.89,269.908 5342.17,269.824 5345.45,269.685 5348.73,269.601 5352.01,269.545 5355.29,269.434 5358.57,269.434 5361.85,269.434 5365.13,269.266 5368.41,269.127 5371.69,268.959 5374.97,268.847 5378.25,268.847 5381.53,268.82 5384.81,268.82 5388.09,268.736 5391.37,268.624 5394.65,268.512 5397.93,268.401 5401.21,268.345 5404.5,268.345 5407.78,268.345 5411.06,268.289 5414.34,268.122 5417.62,268.038 5420.9,268.038 5424.18,268.01 5427.46,267.926 5430.74,267.759 5434.02,267.675 5437.3,267.563 5440.58,267.452 5443.86,267.173 5447.14,266.921 5450.42,266.698 5453.7,266.586 5456.98,266.475 5460.26,266.475 5463.54,266.475 5466.82,266.447 5470.1,266.391 5473.38,266.335 5476.66,266.335 5479.94,266.307 5483.22,266.195 5486.5,266.084 5489.78,266.084 5493.06,266.084 5496.34,266.084 5499.62,266.056 5502.9,265.86 5506.18,265.637 5509.46,265.581 5512.74,265.581 5516.02,265.526 5519.3,265.526 5522.58,265.526 5525.86,265.498 5529.14,265.498 5532.42,265.47 5535.7,265.386 5538.98,265.33 5542.26,265.274 5545.54,265.274 5548.82,265.274 5552.1,265.107 5555.38,264.967 5558.66,264.967 5561.94,264.939 5565.22,264.939 5568.5,264.939 5571.78,264.772 5575.06,264.688 5578.34,264.632 5581.62,264.576 5584.91,264.493 5588.19,264.493 5591.47,264.493 5594.75,264.409 5598.03,264.297 5601.31,264.297 5604.59,264.297 5607.87,264.213 5611.15,264.186 5614.43,264.186 5617.71,264.158 5620.99,264.102 5624.27,263.99 5627.55,263.934 5630.83,263.934 5634.11,263.934 5637.39,263.934 5640.67,263.851 5643.95,263.823 5647.23,263.823 5650.51,263.823 5653.79,263.823 5657.07,263.823 5660.35,263.823 5663.63,263.767 5666.91,263.683 5670.19,263.599 5673.47,263.599 5676.75,263.599 5680.03,263.599 5683.31,263.599 5686.59,263.571 5689.87,263.544 5693.15,263.544 5696.43,263.516 5699.71,263.516 5702.99,263.516 5706.27,263.516 5709.55,263.404 5712.83,263.348 5716.11,263.32 5719.39,263.32 5722.67,263.292 5725.95,263.292 5729.23,263.292 5732.51,263.097 5735.79,262.929 5739.07,262.79 5742.35,262.79 5745.63,262.678 5748.91,262.622 5752.19,262.622 5755.47,262.566 5758.75,262.371 5762.04,262.231 5765.32,262.148 5768.6,262.036 5771.88,262.036 5775.16,262.036 5778.44,261.785 5781.72,261.673 5785,261.506 5788.28,261.422 5791.56,261.338 5794.84,261.254 5798.12,261.254 5801.4,261.003 5804.68,260.724 5807.96,260.473 5811.24,260.166 5814.52,259.859 5817.8,259.719 5821.08,259.719 5824.36,259.468 5827.64,259.328 5830.92,259.189 5834.2,258.882 5837.48,258.602 5840.76,258.491 5844.04,258.463 5847.32,258.212 5850.6,257.905 5853.88,257.681 5857.16,257.346 5860.44,257.067 5863.72,256.955 5867,256.955 5870.28,256.676 5873.56,256.509 5876.84,256.341 5880.12,256.062 5883.4,255.671 5886.68,255.616 5889.96,255.588 5893.24,255.141 5896.52,254.471 5899.8,253.885 5903.08,253.438 5906.36,252.796 5909.64,252.768 5912.92,252.768 5916.2,252.321 5919.48,251.819 5922.76,251.512 5926.04,251.261 5929.32,250.758 5932.6,250.702 5935.88,250.702 5939.16,250.34 5942.45,249.893 5945.73,249.558 5949.01,249.279 5952.29,249.139 5955.57,248.972 5958.85,248.972 5962.13,248.637 5965.41,248.106 5968.69,247.911 5971.97,247.66 5975.25,247.436 5978.53,247.38 5981.81,247.353 5985.09,247.241 5988.37,246.85 5991.65,246.655 5994.93,246.32 5998.21,245.845 6001.49,245.761 6004.77,245.761 6008.05,245.371 6011.33,245.119 6014.61,244.896 6017.89,244.561 6021.17,244.254 6024.45,244.086 6027.73,244.059 6031.01,243.751 6034.29,243.249 6037.57,242.774 6040.85,242.523 6044.13,242.049 6047.41,241.965 6050.69,241.965 6053.97,241.797 6057.25,241.63 6060.53,241.379 6063.81,241.211 6067.09,241.099 6070.37,240.904 6073.65,240.904 6076.93,240.904 6080.21,240.764 6083.49,240.402 6086.77,240.29 6090.05,240.178 6093.33,240.122 6096.61,240.122 6099.89,239.955 6103.17,239.648 6106.45,239.648 6109.73,239.48 6113.01,239.369 6116.29,239.341 6119.57,239.313 6122.86,239.062 6126.14,239.006 6129.42,238.81 6132.7,238.392 6135.98,238.224 6139.26,238.168 6142.54,238.14 6145.82,237.917 6149.1,237.638 6152.38,237.47 6155.66,237.415 6158.94,237.219 6162.22,237.163 6165.5,237.135 6168.78,236.968 6172.06,236.745 6175.34,236.493 6178.62,236.41 6181.9,236.242 6185.18,236.214 6188.46,236.214 6191.74,236.131 6195.02,235.991 6198.3,235.851 6201.58,235.6 6204.86,235.461 6208.14,235.405 6211.42,235.405 6214.7,235.265 6217.98,234.986 6221.26,234.819 6224.54,234.456 6227.82,234.372 6231.1,234.288 6234.38,234.26 6237.66,234.121 6240.94,234.009 6244.22,233.758 6247.5,233.562 6250.78,233.534 6254.06,233.255 6257.34,233.171 6260.62,233.144 6263.9,233.116 6267.18,233.116 6270.46,233.06 6273.74,232.976 6277.02,232.976 6280.3,232.976 6283.58,232.864 6286.86,232.864 6290.14,232.837 6293.42,232.781 6296.7,232.669 6299.98,232.641 6303.27,232.641 6306.55,232.418 6309.83,232.083 6313.11,231.999 6316.39,231.915 6319.67,231.915 6322.95,231.915 6326.23,231.915 6329.51,231.832 6332.79,231.72 6336.07,231.692 6339.35,231.497 6342.63,231.469 6345.91,231.469 6349.19,231.469 6352.47,231.385 6355.75,231.357 6359.03,231.329 6362.31,231.301 6365.59,231.134 6368.87,231.106 6372.15,231.078 6375.43,230.882 6378.71,230.827 6381.99,230.799 6385.27,230.799 6388.55,230.715 6391.83,230.715 6395.11,230.715 6398.39,230.631 6401.67,230.52 6404.95,230.464 6408.23,230.464 6411.51,230.324 6414.79,230.296 6418.07,230.296 6421.35,230.268 6424.63,230.129 6427.91,230.129 6431.19,230.017 6434.47,229.989 6437.75,229.989 6441.03,229.989 6444.31,229.933 6447.59,229.877 6450.87,229.85 6454.15,229.766 6457.43,229.71 6460.71,229.654 6463.99,229.654 6467.27,229.654 6470.55,229.542 6473.83,229.487 6477.11,229.403 6480.39,229.375 6483.68,229.319 6486.96,229.319 6490.24,229.235 6493.52,229.207 6496.8,229.152 6500.08,229.152 6503.36,229.068 6506.64,229.068 6509.92,229.012 6513.2,229.012 6516.48,229.012 6519.76,228.984 6523.04,228.984 6526.32,228.9 6529.6,228.845 6532.88,228.845 6536.16,228.845 6539.44,228.817 6542.72,228.789 6546,228.789 6549.28,228.621 6552.56,228.621 6555.84,228.621 6559.12,228.564 6562.4,228.457 6565.68,228.305 6568.96,228.113 6572.24,227.885 6575.52,227.626 6578.8,227.341 6582.08,227.034 6585.36,226.71 6588.64,226.373 6591.92,226.029 6595.2,225.681 6598.48,225.335 6601.76,224.996 6605.04,224.666 6608.32,224.353 6611.6,224.059 6614.88,223.79 6618.16,223.55 6621.44,223.345 6624.72,223.178 6628,223.052 6631.28,222.963 6634.56,222.905 6637.84,222.87 6641.12,222.852 6644.4,222.845 6647.68,222.843 6650.96,222.839 6654.24,222.834 6657.52,222.826 6660.81,222.818 6664.09,222.808 6667.37,222.798 6670.65,222.787 6673.93,222.776 6677.21,222.766 6680.49,222.757 6683.77,222.752 6687.05,222.749 6690.33,222.749 6693.61,222.749 6696.89,222.749 6700.17,222.749 6703.45,222.749 6706.73,222.749 6710.01,222.749 6713.29,222.704 6716.57,222.619 6719.85,222.508 6723.13,222.412 6726.41,222.341 6729.69,222.291 6732.97,222.261 6736.25,222.248 6739.53,222.248 6742.81,222.248 6746.09,222.248 6749.37,222.248 6752.65,222.248 6755.93,222.248 6759.21,222.248 6762.49,222.248 6765.77,222.248 6769.05,222.248 6772.33,222.248 6775.61,222.248 6778.89,222.248 6782.17,222.248 6785.45,222.248 6788.73,222.248 6792.01,222.248 6795.29,222.248 6798.57,222.239 6801.85,222.202 6805.13,222.173 6808.41,222.153 6811.69,222.141 6814.97,222.136 6818.25,222.136 6821.53,222.136 6824.81,222.136 6828.09,222.136 6831.37,222.136 6834.65,222.136 6837.93,222.136 6841.22,222.135 6844.5,222.13 6847.78,222.125 6851.06,222.12 6854.34,222.117 6857.62,222.115 6860.9,222.112 6864.18,222.106 6867.46,222.094 6870.74,222.075 6874.02,222.047 6877.3,222.005 6880.58,221.951 6883.86,221.886 6887.14,221.815 6890.42,221.742 6893.7,221.673 6896.98,221.61 6900.26,221.559 6903.54,221.522 6906.82,221.497 6910.1,221.48 6913.38,221.468 6916.66,221.456 6919.94,221.441 6923.22,221.419 6926.5,221.387 6929.78,221.347 6933.06,221.301 6936.34,221.252 6939.62,221.202 6942.9,221.155 6946.18,221.112 6949.46,221.076 6952.74,221.045 6956.02,221.02 6959.3,220.998 6962.58,220.979 6965.86,220.962 6969.14,220.945 6972.42,220.927 6975.7,220.908 6978.98,220.889 6982.26,220.869 6985.54,220.848 6988.82,220.827 6992.1,220.805 6995.38,220.783 6998.66,220.759 7001.94,220.735 7005.22,220.708 7008.5,220.678 7011.78,220.646 7015.06,220.61 7018.34,220.57 7021.63,220.528 7024.91,220.486 7028.19,220.446 7031.47,220.41 7034.75,220.38 7038.03,220.358 7041.31,220.346 7044.59,220.34 7047.87,220.337 7051.15,220.332 7054.43,220.323 7057.71,220.305 7060.99,220.275 7064.27,220.229 7067.55,220.169 7070.83,220.098 7074.11,220.017 7077.39,219.93 7080.67,219.838 7083.95,219.744 7087.23,219.65 7090.51,219.558 7093.79,219.467 7097.07,219.378 7100.35,219.292 7103.63,219.209 7106.91,219.13 7110.19,219.056 7113.47,218.986 7116.75,218.919 7120.03,218.856 7123.31,218.796 7126.59,218.739 7129.87,218.683 7133.15,218.63 7136.43,218.578 7139.71,218.528 7142.99,218.48 7146.27,218.434 7149.55,218.39 7152.83,218.348 7156.11,218.308 7159.39,218.27 7162.67,218.232 7165.95,218.193 7169.23,218.154 7172.51,218.113 7175.79,218.069 7179.07,218.022 7182.35,217.973 7185.63,217.923 7188.91,217.873 7192.19,217.824 7195.47,217.778 7198.75,217.734 7202.04,217.695 7205.32,217.659 7208.6,217.625 7211.88,217.591 7215.16,217.558 7218.44,217.522 7221.72,217.483 7225,217.44 7228.28,217.393 7231.56,217.341 7234.84,217.285 7238.12,217.225 7241.4,217.161 7244.68,217.092 7247.96,217.02 7251.24,216.945 7254.52,216.869 7257.8,216.793 7261.08,216.721 7264.36,216.652 7267.64,216.59 7270.92,216.534 7274.2,216.484 7277.48,216.438 7280.76,216.394 7284.04,216.35 7287.32,216.304 7290.6,216.255 7293.88,216.2 7297.16,216.141 7300.44,216.077 7303.72,216.008 7307,215.936 7310.28,215.859 7313.56,215.78 7316.84,215.698 7320.12,215.614 7323.4,215.529 7326.68,215.444 7329.96,215.359 7333.24,215.275 7336.52,215.194 7339.8,215.115 7343.08,215.037 7346.36,214.958 7349.64,214.875 7352.92,214.786 7356.2,214.688 7359.48,214.58 7362.76,214.46 7366.04,214.329 7369.32,214.192 7372.6,214.051 7375.88,213.908 7379.16,213.767 7382.45,213.631 7385.73,213.501 7389.01,213.377 7392.29,213.256 7395.57,213.137 7398.85,213.016 7402.13,212.893 7405.41,212.765 7408.69,212.631 7411.97,212.49 7415.25,212.345 7418.53,212.195 7421.81,212.043 7425.09,211.888 7428.37,211.732 "/>
<path clip-path="url(#clip510)" d="M651.764 379.427 L1630.71 379.427 L1630.71 232.034 L651.764 232.034  Z" fill="#ffffff" fill-rule="evenodd" fill-opacity="1"/>
<polyline clip-path="url(#clip510)" style="stroke:#000000; stroke-linecap:round; stroke-linejoin:round; stroke-width:4; stroke-opacity:1; fill:none" points="651.764,379.427 1630.71,379.427 1630.71,232.034 651.764,232.034 651.764,379.427 "/>
<polyline clip-path="url(#clip510)" style="stroke:#009af9; stroke-linecap:round; stroke-linejoin:round; stroke-width:8; stroke-opacity:1; fill:none" points="732.006,281.165 1213.45,281.165 "/>
<g clip-path="url(#clip510)">
<text style="fill:#000000; fill-opacity:1; font-family:Century Gothic,CenturyGothic,AppleGothic,sans-serif; font-size:47px; text-anchor:start;" transform="rotate(0, 1293.69, 298.665)" x="1293.69" y="298.665">total</text>
</g>
<polyline clip-path="url(#clip510)" style="stroke:#e26f46; stroke-linecap:round; stroke-linejoin:round; stroke-width:8; stroke-opacity:1; fill:none" stroke-dasharray="32, 20" points="732.006,330.296 1213.45,330.296 "/>
<g clip-path="url(#clip510)">
<text style="fill:#000000; fill-opacity:1; font-family:Century Gothic,CenturyGothic,AppleGothic,sans-serif; font-size:47px; text-anchor:start;" transform="rotate(0, 1293.69, 347.796)" x="1293.69" y="347.796">total_interp</text>
</g>
</svg>
